<svg width="110" height="105" viewBox="0 0 110 105" fill="none" xmlns="http://www.w3.org/2000/svg">
<path d="M91.2758 17.2869C91.2383 17.226 91.1987 17.166 91.1572 17.1067C90.6788 16.7594 90.2062 16.4421 89.754 16.1666C87.1822 14.5992 83.5541 12.022 80.601 11.6405C78.4072 11.357 76.776 9.7599 74.7153 8.99648C73.3371 8.48594 72.1961 7.77524 70.8885 7.15915C68.9069 6.22553 66.3582 4.50255 64.1076 4.38075L63.826 4.36549C58.0915 4.05478 51.1904 3.68086 45.6225 4.69444C41.6701 5.41395 37.2846 5.5907 33.2693 5.5907C31.81 5.5907 29.813 7.18422 28.4802 7.87616C27.674 8.29468 26.9017 8.74635 26.1348 9.19443C24.5137 10.1415 22.9163 11.0725 21.0727 11.6405C20.648 11.7713 20.2321 11.9913 19.8361 12.2702C19.2671 14.3306 17.6947 16.2342 16.843 18.1831C16.163 19.7395 14.1031 22.1936 12.7029 23.1574C11.0377 24.3037 9.78525 26.0343 8.15997 27.2802C7.3848 27.8744 6.55403 28.5506 5.78724 29.2752C2.51411 34.0909 1.04343 38.3517 1.04343 44.3091C1.04343 45.7477 1.05551 47.1772 1.08984 48.5991C1.29362 52.3048 1.9191 55.9557 3.68416 59.0974C4.3266 60.2409 4.38721 61.6645 5.07166 62.8393C5.83193 64.1442 6.67345 65.4478 7.24243 66.85C8.62672 70.2617 10.2901 73.669 12.0987 76.8881C13.5889 79.5407 14.2893 82.4296 15.7241 85.1337C17.986 89.3966 19.4344 93.1208 22.5945 96.8971C24.4053 99.0612 28.6755 101.775 31.8266 102.588C32.3131 102.676 32.7975 102.759 33.2768 102.837C37.0355 103.255 41.712 103.313 45.3316 102.588C49.8504 101.684 54.9489 102.431 59.5423 102.387C60.0119 102.382 60.4791 102.348 60.9446 102.294C61.7711 102.082 62.5985 101.866 63.4362 101.67C64.2812 101.472 66.0763 101.478 66.8379 100.998C68.2701 100.095 69.7737 100.121 71.2242 99.1154C73.6993 97.3997 76.4281 96.2681 79.1745 95.1225C79.9256 94.473 80.6862 93.8365 81.5185 93.2897C85.0504 90.9691 88.4387 87.83 91.4772 84.8649C95.5558 80.8846 99.7745 76.8919 102.555 71.8691C104.398 68.5391 105.548 64.611 106.64 60.8258C106.642 59.6573 106.612 58.4695 106.673 57.2601C106.858 53.5423 106.986 49.8648 106.986 46.1464C106.986 39.9287 104.069 34.5173 100.921 29.2744C100.193 28.0624 99.4404 26.5703 98.597 25.091C97.6622 23.8778 96.7644 22.6359 95.8859 21.5217C95.3963 20.9009 94.7982 20.2525 94.1418 19.6162C93.139 18.9421 91.9183 18.3284 91.2758 17.2869Z" fill="white"/>
<path d="M20.3789 14.0604C22.3616 12.5164 24.1879 10.7782 26.1348 9.19443M64.1076 4.38075C66.3582 4.50255 68.9069 6.22553 70.8885 7.15915C72.196 7.77524 73.3371 8.48594 74.7153 8.99648C76.776 9.7599 78.4072 11.357 80.601 11.6405C83.5541 12.022 87.1822 14.5992 89.754 16.1666C90.2062 16.4421 90.6788 16.7594 91.1572 17.1067M64.1076 4.38075L63.826 4.36549M64.1076 4.38075C64.0141 4.37569 63.9202 4.3706 63.826 4.36549M19.9761 11.6405C19.9409 11.8521 19.8936 12.062 19.8361 12.2702M91.1572 17.1067C91.1987 17.166 91.2382 17.226 91.2758 17.2869C91.9183 18.3284 93.139 18.9421 94.1418 19.6162M91.1572 17.1067C92.1735 17.8447 93.2156 18.7183 94.1418 19.6162M91.1572 17.1067C89.9716 15.4134 87.2171 14.3457 85.681 12.9176C83.6817 11.0588 80.5894 9.18876 78.184 8.05541C76.46 7.2431 74.4997 6.05018 72.6116 5.68032C67.6012 4.69881 62.8642 2.51754 57.8415 1.64716C51.5888 0.563629 46.2383 0.846139 40.0725 2.45379C36.4031 3.41053 33.1118 4.68314 29.8453 6.57658C28.5243 7.34232 27.3076 8.24034 26.1348 9.19443M63.826 4.36549C58.0915 4.05478 51.1904 3.68086 45.6225 4.69444C41.6701 5.41395 37.2846 5.5907 33.2693 5.5907C31.81 5.5907 29.813 7.18422 28.4802 7.87616C27.674 8.29468 26.9017 8.74635 26.1348 9.19443M26.1348 9.19443C24.5137 10.1415 22.9163 11.0725 21.0727 11.6405C20.648 11.7713 20.2321 11.9913 19.8361 12.2702M19.8361 12.2702C19.2671 14.3306 17.6947 16.2342 16.843 18.1831C16.163 19.7395 14.1031 22.1936 12.7029 23.1574C11.0377 24.3037 9.78525 26.0343 8.15997 27.2802C7.3848 27.8744 6.55403 28.5506 5.78724 29.2752M19.8361 12.2702C18.8266 12.9812 17.9464 14.0744 17.3801 15.0462C16.6439 16.3099 15.2997 17.0445 14.3366 18.1159C13.414 19.1423 13.142 20.7516 12.1434 21.6337C11.1625 22.5003 10.7012 23.2578 10.0622 24.3897C9.09678 26.0999 7.31209 27.0962 6.19062 28.6918C6.05323 28.8873 5.91878 29.0817 5.78724 29.2752M5.78724 29.2752C2.51411 34.0909 1.04343 38.3517 1.04343 44.3091C1.04343 45.7477 1.05551 47.1772 1.08984 48.5991M5.78724 29.2752C5.17413 29.8546 4.60192 30.465 4.13174 31.0893C2.08671 33.8045 1.04343 36.0118 1.04343 39.4693C1.04343 42.3747 0.91974 45.506 1.08984 48.5991M1.08984 48.5991C1.29362 52.3048 1.9191 55.9557 3.68416 59.0974C4.3266 60.2409 4.38721 61.6645 5.07166 62.8393C5.83193 64.1442 6.67345 65.4478 7.24243 66.85C8.62672 70.2617 10.2901 73.669 12.0987 76.8881C13.5889 79.5407 14.2893 82.4296 15.7241 85.1337C17.986 89.3966 19.4344 93.1208 22.5945 96.8971C24.4053 99.0612 28.6755 101.775 31.8266 102.588M1.08984 48.5991C1.21144 53.6363 1.61224 58.5777 2.74424 63.4891C4.04068 69.1139 6.72082 74.9668 9.18941 80.2043C11.222 84.5168 12.0702 89.2897 14.7394 93.3345C16.6198 96.1839 19.6352 97.4568 22.3931 99.3395C24.9804 101.106 28.4537 101.979 31.8266 102.588M31.8266 102.588C32.3131 102.676 32.7975 102.759 33.2768 102.837M31.8266 102.588C32.1899 102.682 32.5384 102.751 32.8664 102.79C33.0019 102.806 33.1388 102.822 33.2768 102.837M33.2768 102.837C37.0355 103.255 41.712 103.313 45.3316 102.588C49.8504 101.684 54.9489 102.431 59.5423 102.387C60.0119 102.382 60.4791 102.348 60.9446 102.294M33.2768 102.837C34.5355 103.044 35.7593 103.226 36.8947 103.417C39.1914 103.804 41.4228 104 43.7427 104C48.2448 104 52.3769 103.936 56.812 103.216C58.2152 102.988 59.5786 102.646 60.9446 102.294M60.9446 102.294C61.7711 102.082 62.5985 101.866 63.4362 101.67C64.2812 101.472 66.0763 101.478 66.8379 100.998C68.27 100.095 69.7737 100.121 71.2242 99.1154C73.6993 97.3997 76.4281 96.2681 79.1745 95.1225M60.9446 102.294C62.6965 102.091 64.4246 101.607 66.1665 101.356C69.0633 100.938 71.0448 100.824 73.5292 98.9585C74.7018 98.078 76.091 97.672 77.2665 96.7403C77.9203 96.222 78.5441 95.6677 79.1745 95.1225M79.1745 95.1225C79.9256 94.473 80.6862 93.8365 81.5185 93.2897C85.0504 90.9691 88.4387 87.83 91.4772 84.8649C95.5558 80.8846 99.7745 76.8919 102.555 71.8691C104.398 68.5391 105.548 64.611 106.64 60.8258M79.1745 95.1225C79.9113 94.8152 80.6494 94.5069 81.3842 94.186C83.5715 93.2308 86.4841 92.3487 88.2322 90.6905C92.7524 86.4031 96.2077 81.3593 100.541 76.7985C102.047 75.2136 102.963 73.2432 104.121 71.421C104.953 70.1127 104.9 68.4098 105.576 66.9845C106.524 64.9865 106.635 62.9379 106.64 60.8258M106.64 60.8258C106.642 59.6573 106.612 58.4695 106.673 57.2601C106.858 53.5423 106.986 49.8648 106.986 46.1464C106.986 39.9287 104.069 34.5173 100.921 29.2744C100.193 28.0624 99.4404 26.5703 98.597 25.091M106.64 60.8258C107.007 59.5518 107.368 58.2941 107.747 57.0808C108.161 55.754 109 53.6354 109 52.0618C109 50.0426 108.464 48.2354 108.217 46.2585C107.964 44.2315 107.775 42.1334 107.299 40.1415C107.042 39.066 106.097 38.1409 105.688 37.0942C104.812 34.8521 103.902 30.6205 102.062 28.9831C100.837 27.8927 99.6918 26.5116 98.597 25.091M98.597 25.091C97.6622 23.8778 96.7644 22.6359 95.8859 21.5217C95.3963 20.9009 94.7982 20.2525 94.1418 19.6162M98.597 25.091C97.4 22.9913 96.021 20.9174 94.2746 19.7068C94.2308 19.6765 94.1865 19.6463 94.1418 19.6162" stroke="#C2000D" stroke-linecap="round" stroke-linejoin="round"/>
</svg>
