<svg width="121" height="86" viewBox="0 0 121 86" fill="none" xmlns="http://www.w3.org/2000/svg">
<path d="M96.1631 35.1604C97.5721 36.5678 98.5242 38.2325 99.7024 39.8098C100.803 41.2835 102.573 42.2435 103.918 43.4419C105.758 45.0802 107.35 47.0659 109.062 48.8374C111.031 50.8749 113.551 52.2609 115.897 53.8064" stroke="#C2000D" stroke-linecap="round" stroke-linejoin="round"/>
<path d="M26.0309 61.0887C25.892 61.2032 25.7666 61.3843 25.7242 61.5748C25.3805 62.9465 24.956 63.9184 23.4748 65.14C21.6695 66.6288 19.1842 65.9579 17.5362 63.8191C15.0826 60.6348 14.3745 55.9332 16.9898 53.7763C17.4758 53.3755 17.9657 53.127 18.4497 53.1165C18.6386 53.1161 18.8373 53.03 18.9761 52.9155C19.3464 52.6101 19.4324 52.0339 19.1211 51.6299C18.3704 50.6556 16.5392 51.816 15.8912 52.3505C12.026 55.5381 13.4742 61.4949 16.1476 64.9644C18.1618 67.5784 21.7498 68.8945 24.5734 66.5658C26.3324 65.1152 27.027 63.6095 27.4363 62.0283C27.5116 61.7331 27.4394 61.4428 27.2746 61.229C26.9633 60.825 26.4012 60.7833 26.0309 61.0887Z" fill="#C2000D"/>
<path d="M38.4387 45.6423C38.2955 45.7514 38.1876 45.9089 38.1213 46.0725C37.4323 48.0297 36.816 48.7628 35.742 49.5806C34.5724 50.4712 33.2847 50.283 32.4188 49.0951C31.7827 48.2223 31.3527 46.6648 32.7658 43.817C32.9161 43.514 32.8889 43.1201 32.6945 42.8534C32.3764 42.4171 31.8063 42.3987 31.4483 42.6714L31.329 42.7622C28.8659 45.3916 28.1596 49.2092 28.0298 51.9846C27.2709 50.7906 26.3998 49.4936 25.5339 48.3057C25.2512 47.9178 24.6697 47.8328 24.2878 48.1236C23.9059 48.4144 23.8191 49.0082 24.1018 49.3961C25.9926 51.9902 28.021 55.3842 28.2603 56.069C28.2894 56.1599 28.3425 56.2326 28.3955 56.3054C28.6605 56.669 29.1881 56.8328 29.6416 56.4875C29.9281 56.2694 30.0669 55.8998 29.9742 55.518C29.8462 55.0877 29.5032 51.9183 30.265 48.737C30.4222 49.2582 30.6863 49.7734 30.9867 50.1855C32.418 52.1492 34.8688 52.5074 36.8022 51.0353C38.1149 50.0357 39.0548 48.83 39.8163 46.6668C39.9251 46.3578 39.8616 46.0669 39.6849 45.8244C39.3845 45.4123 38.7967 45.3697 38.4387 45.6423Z" fill="#C2000D"/>
<path d="M51.2071 37.735C50.4521 38.0283 50.7451 38.88 49.8223 39.2386C48.6479 39.6949 46.914 36.6674 45.8975 34.0048C45.7263 33.5564 45.1851 33.3161 44.7376 33.49C44.2902 33.6638 44.0938 34.1585 44.1769 34.5446C44.3202 35.0039 45.6837 40.8466 42.8315 41.9549C41.3774 42.5199 40.252 41.9273 39.6314 40.3017C38.936 38.4799 39.1193 38.119 38.9481 37.6706C38.7876 37.2502 38.2915 36.9602 37.7882 37.1558C37.4526 37.2862 37.2199 37.6019 37.2192 38.0205C37.2341 38.1435 37.2689 39.1599 37.9537 40.9536C38.831 43.2518 41.0127 44.5927 43.4735 43.6365C45.5707 42.8216 46.262 40.8472 46.4219 39.0793C47.2884 40.2553 48.7026 41.6047 50.4643 40.9202C51.8904 40.366 52.2948 38.9859 52.3466 38.8692C52.4049 38.6856 52.4139 38.4569 52.339 38.2607C52.1785 37.8403 51.6545 37.5611 51.2071 37.735Z" fill="#C2000D"/>
<path d="M60.7469 45.0319C60.4821 43.9231 60.8169 41.9677 61.5596 40.0414C62.2141 40.8447 62.7504 41.7985 63.0292 42.9657C63.3429 44.2787 62.7684 45.4889 61.833 45.7048C61.2776 45.833 60.8794 45.5863 60.7469 45.0319ZM61.2147 28.9142C61.1659 28.7099 61.0294 28.5259 60.8414 28.3846C59.9516 27.7587 58.8964 27.602 57.8733 27.8382C55.3594 28.4185 53.9347 30.7177 54.5342 33.2271C55.2103 36.0575 58.1939 37.1853 60.1308 38.7086C59.1948 40.9875 58.526 43.4817 58.9931 45.4367C59.3485 46.9248 60.7604 47.7997 62.2512 47.4556C64.5313 46.9293 65.2362 44.4574 64.7831 42.5608C64.344 40.7225 63.3969 39.3402 62.3371 38.2609C62.792 37.3246 63.297 36.4692 63.7854 35.8022C63.9482 35.5799 63.9732 35.2971 63.9174 35.0636C63.7989 34.5676 63.2991 34.2827 62.8314 34.3907C62.6267 34.4379 62.4361 34.5435 62.2955 34.7299C61.8071 35.3968 61.3536 36.2096 60.907 37.0516C60.5311 36.769 60.1329 36.5222 59.7708 36.2979C57.9245 35.1539 56.5947 34.1062 56.288 32.8223C55.9116 31.2466 56.713 29.9533 58.2915 29.5889C58.9054 29.4472 59.3926 29.5503 59.834 29.8486C60.0512 29.9832 60.313 30.0459 60.5468 29.992C61.0438 29.8773 61.3262 29.381 61.2147 28.9142Z" fill="#C2000D"/>
<path d="M82.7807 31.38C82.6013 31.3944 82.4279 31.4684 82.2874 31.5699C80.6974 32.8404 79.7915 33.1234 78.4458 33.2309C76.9804 33.348 75.9599 32.4968 75.8122 31.0343C75.7036 29.9598 76.121 28.4219 78.7903 26.7944C79.0743 26.6213 79.2505 26.2762 79.2173 25.9479C79.163 25.4106 78.6783 25.0883 78.2297 25.1242L78.0802 25.1361C74.6117 26.0151 72.063 28.8365 70.5427 31.0944C70.4907 29.6843 70.3937 28.1274 70.2459 26.6649C70.1977 26.1873 69.7368 25.8029 69.2583 25.8411C68.7798 25.8794 68.4034 26.3307 68.4516 26.8083C68.7743 30.002 68.8104 33.9408 68.6705 34.644C68.6496 34.736 68.6587 34.8255 68.6677 34.9151C68.7129 35.3628 69.0871 35.7842 69.6553 35.7388C70.0142 35.7101 70.322 35.4749 70.4353 35.1048C70.5426 34.675 71.8532 31.8321 74.1272 29.5742C73.999 30.096 73.9666 30.6703 74.0179 31.1777C74.2621 33.5954 76.2044 35.2154 78.6267 35.0218C80.2715 34.8904 81.6976 34.3852 83.4549 32.9811C83.706 32.7805 83.7985 32.5023 83.7683 32.2038C83.717 31.6964 83.2293 31.3442 82.7807 31.38Z" fill="#C2000D"/>
<path d="M96.3303 29.2392C96.334 29.1493 96.3077 29.0572 96.2815 28.965C95.915 27.6452 94.7225 26.7152 93.436 26.6202C90.1449 26.3771 87.0142 29.5732 86.885 32.7506C86.8168 34.4292 87.7981 36.1252 89.7428 36.2689C91.6576 36.4104 93.5216 35.586 95.1371 34.2321C95.2837 35.0547 95.6368 36.7043 96.6241 36.7773C97.1327 36.8148 97.5399 36.3939 97.5582 35.9443C97.5655 35.7645 97.513 35.5802 97.4293 35.4237C96.9786 34.6989 96.7508 33.6598 96.8068 32.281C96.8239 31.8613 96.4545 31.353 95.9459 31.3154C95.6766 31.2955 95.4324 31.3977 95.2443 31.5943C93.4525 33.5966 91.5213 34.5964 89.8159 34.4704C89.068 34.4151 88.6387 33.9024 88.6801 32.8832C88.7703 30.6651 91.2686 28.264 93.3629 28.4187C93.8715 28.4563 94.4253 28.858 94.5841 29.3808C94.6891 29.7494 95.0073 30.0435 95.3962 30.0722C95.9348 30.112 96.3121 29.6889 96.3303 29.2392Z" fill="#C2000D"/>
</svg>
