<svg width="111" height="106" viewBox="0 0 111 106" fill="none" xmlns="http://www.w3.org/2000/svg">
<path d="M106.946 44.9747C106.948 44.9032 106.947 44.8313 106.945 44.759C106.733 44.2071 106.509 43.6835 106.28 43.2061C104.978 40.4905 103.34 36.3525 101.072 34.4236C99.3865 32.9905 98.889 30.7625 97.577 28.9995C96.6996 27.8205 96.1301 26.6028 95.3693 25.3738C94.2165 23.5112 93.0182 20.6777 91.1974 19.3493L90.9696 19.183C86.3304 15.7978 80.7475 11.724 75.5265 9.54007C71.8203 7.98975 68.0467 5.74839 64.6798 3.56051C63.4562 2.76537 60.9134 3.01343 59.4188 2.86739C58.5148 2.77907 57.6211 2.737 56.7338 2.69481C54.8585 2.60564 53.0118 2.5159 51.1564 1.98759C50.7291 1.8659 50.2604 1.8238 49.7764 1.84187C48.1766 3.25948 45.8209 3.99886 44.0448 5.16905C42.6266 6.10351 39.5621 7.03891 37.8629 7.08413C35.842 7.13792 33.8488 7.90667 31.8071 8.06577C30.8334 8.14165 29.7683 8.25596 28.7305 8.44577C23.362 10.7003 19.8071 13.4717 16.5611 18.467C15.7772 19.6733 15.0084 20.8786 14.2624 22.0896C12.4141 25.3079 10.9493 28.7099 10.7174 32.3061C10.6331 33.615 9.9082 34.8417 9.842 36.1997C9.76846 37.7082 9.7638 39.2598 9.47681 40.7456C8.7786 44.3606 8.31681 48.1241 8.07925 51.8088C7.88349 54.845 6.89665 57.6489 6.62631 60.6982C6.20015 65.5052 5.38541 69.4171 5.97752 74.3055C6.31682 77.1068 8.41838 81.7095 10.6177 84.1082C10.9777 84.447 11.339 84.78 11.698 85.1072C14.6223 87.5052 18.5118 90.1023 21.9418 91.4668C26.2239 93.1703 30.0918 96.5751 33.9675 99.0409C34.3637 99.2929 34.7741 99.519 35.1938 99.7274C36.0027 99.9995 36.8141 100.269 37.6233 100.561C38.4395 100.856 39.9417 101.839 40.8419 101.851C42.5348 101.875 43.7814 102.716 45.5454 102.663C48.5557 102.573 51.4604 103.111 54.3875 103.647C55.3713 103.512 56.3558 103.392 57.3517 103.387C61.5777 103.366 66.1292 102.58 70.2927 101.749C75.8814 100.634 81.5944 99.585 86.6626 96.8883C90.0227 95.1004 93.1273 92.4333 96.1054 89.8542C96.7441 88.8758 97.366 87.8633 98.0756 86.8821C100.257 83.8659 102.368 80.8518 104.394 77.7339C107.782 72.5203 108.285 66.3934 108.502 60.2819C108.552 58.8692 108.734 57.2077 108.833 55.5077C108.71 53.9811 108.634 52.4505 108.504 51.0376C108.432 50.2503 108.284 49.3806 108.08 48.4895C107.606 47.3778 106.917 46.1981 106.946 44.9747Z" fill="white"/>
<path d="M49.2562 3.63869C51.76 3.42438 54.2384 2.96196 56.7338 2.69481M91.1974 19.3493C93.0182 20.6777 94.2165 23.5112 95.3693 25.3738C96.1301 26.6028 96.6996 27.8205 97.577 28.9995C98.889 30.7625 99.3865 32.9905 101.072 34.4236C103.34 36.3525 104.978 40.4905 106.28 43.2061C106.509 43.6835 106.733 44.2071 106.945 44.759M91.1974 19.3493L90.9696 19.183M91.1974 19.3493C91.1217 19.294 91.0458 19.2386 90.9696 19.183M50.2369 1.39009C50.0921 1.54837 49.9381 1.69859 49.7764 1.84187M106.945 44.759C106.947 44.8313 106.948 44.9032 106.946 44.9747C106.917 46.1981 107.606 47.3778 108.08 48.4895M106.945 44.759C107.395 45.9315 107.793 47.232 108.08 48.4895M106.945 44.759C106.873 42.6931 105.145 40.297 104.635 38.2625C103.972 35.6145 102.398 32.3615 100.998 30.1005C99.9954 28.48 99.0017 26.4116 97.62 25.0727C93.9535 21.5195 91.17 17.1094 87.4327 13.6428C82.7801 9.32724 78.1398 6.64877 72.0937 4.63715C68.4955 3.44001 65.0423 2.71369 61.2716 2.52151C59.7466 2.44379 58.2372 2.53387 56.7338 2.69481M90.9696 19.183C86.3304 15.7978 80.7475 11.724 75.5265 9.54007C71.8203 7.98975 68.0467 5.74839 64.6798 3.56051C63.4562 2.76537 60.9134 3.01343 59.4188 2.86739C58.5148 2.77907 57.6211 2.737 56.7338 2.69481M56.7338 2.69481C54.8585 2.60564 53.0118 2.5159 51.1564 1.98759C50.7291 1.8659 50.2604 1.8238 49.7764 1.84187M49.7764 1.84187C48.1766 3.25948 45.8209 3.99887 44.0448 5.16905C42.6266 6.10351 39.5621 7.03891 37.8629 7.08413C35.842 7.13792 33.8488 7.90667 31.8071 8.06577C30.8334 8.14165 29.7683 8.25596 28.7305 8.44577M49.7764 1.84187C48.5425 1.88794 47.2088 2.32498 46.2044 2.83138C44.8986 3.4898 43.3711 3.37335 41.9798 3.74697C40.6469 4.10487 39.5419 5.30609 38.224 5.50169C36.9292 5.69385 36.1297 6.07762 34.9771 6.67859C33.2358 7.58651 31.1964 7.44947 29.3866 8.17635C29.1649 8.2654 28.9463 8.35516 28.7305 8.44577M28.7305 8.44577C23.362 10.7003 19.8071 13.4717 16.5611 18.467C15.7772 19.6733 15.0084 20.8786 14.2624 22.0896M28.7305 8.44577C27.9007 8.59754 27.0883 8.79757 26.3539 9.06483C23.1596 10.2273 21.0821 11.5096 19.1982 14.4088C17.6151 16.845 15.8052 19.4033 14.2624 22.0896M14.2624 22.0896C12.4141 25.3079 10.9493 28.7099 10.7174 32.3061C10.6331 33.615 9.9082 34.8417 9.842 36.1997C9.76846 37.7082 9.7638 39.2598 9.47681 40.7456C8.7786 44.3606 8.31681 48.1241 8.07925 51.8088C7.88349 54.845 6.89664 57.6489 6.62631 60.6982C6.20015 65.5052 5.38541 69.4171 5.97752 74.3055C6.31682 77.1068 8.41838 81.7095 10.6177 84.1082M14.2624 22.0896C11.6197 26.3796 9.26328 30.7414 7.53637 35.4764C5.55859 40.8993 4.61673 47.2674 3.83286 53.0042C3.18744 57.7278 1.29798 62.1922 1.33218 67.0381C1.35627 70.452 3.1912 73.1624 4.47785 76.2437C5.68496 79.1345 8.12143 81.7595 10.6177 84.1082M10.6177 84.1082C10.9777 84.447 11.339 84.78 11.698 85.1072M10.6177 84.1082C10.8712 84.3847 11.1261 84.632 11.3797 84.8438C11.4845 84.9313 11.5906 85.0191 11.698 85.1072M11.698 85.1072C14.6223 87.5052 18.5118 90.1023 21.9418 91.4668C26.2239 93.1703 30.0918 96.5751 33.9675 99.0409C34.3637 99.2929 34.7741 99.519 35.1938 99.7274M11.698 85.1072C12.6407 85.9665 13.5677 86.7858 14.4156 87.5648C16.1307 89.1406 17.8951 90.5206 19.8403 91.7847C23.6154 94.2378 27.1151 96.4355 31.2264 98.2484C32.5271 98.8219 33.8569 99.2778 35.1938 99.7274M35.1938 99.7274C36.0027 99.9995 36.8141 100.269 37.6233 100.561C38.4395 100.856 39.9417 101.839 40.8419 101.851C42.5348 101.875 43.7814 102.716 45.5454 102.663C48.5557 102.573 51.4604 103.111 54.3875 103.647M35.1938 99.7274C36.7732 100.512 38.4861 101.048 40.0836 101.786C42.7403 103.014 44.464 103.998 47.5637 103.788C49.0267 103.688 50.4128 104.105 51.9061 103.964C52.7368 103.886 53.5618 103.761 54.3875 103.647M54.3875 103.647C55.3713 103.512 56.3558 103.392 57.3517 103.387C61.5777 103.366 66.1292 102.58 70.2927 101.749C75.8814 100.634 81.5944 99.585 86.6626 96.8883C90.0227 95.1004 93.1273 92.4333 96.1054 89.8542M54.3875 103.647C55.1728 103.791 55.9597 103.934 56.7507 104.066C59.1052 104.457 62.0281 105.304 64.3974 104.866C70.5238 103.734 76.1694 101.387 82.2878 99.9242C84.414 99.4157 86.2563 98.263 88.2203 97.3661C89.6304 96.7222 90.5138 95.2653 91.8574 94.4387C93.7409 93.2798 94.9507 91.6228 96.1054 89.8542M96.1054 89.8542C96.7441 88.8758 97.366 87.8633 98.0756 86.8821C100.257 83.8659 102.368 80.8518 104.394 77.7339C107.782 72.5203 108.285 66.3934 108.502 60.2819C108.552 58.8692 108.734 57.2077 108.833 55.5077M96.1054 89.8542C97.1076 88.9863 98.0955 88.1283 99.074 87.3171C100.144 86.4301 102.002 85.1109 102.86 83.7915C103.96 82.0984 104.495 80.2907 105.365 78.4986C106.257 76.661 107.242 74.7989 107.929 72.8694C108.299 71.8276 108.011 70.5369 108.238 69.4363C108.725 67.0788 110.268 63.035 109.618 60.6596C109.184 59.0777 108.976 57.2954 108.833 55.5077M108.833 55.5077C108.71 53.9811 108.634 52.4505 108.504 51.0376C108.432 50.2503 108.284 49.3806 108.08 48.4895M108.833 55.5077C108.973 53.0949 108.947 50.6045 108.142 48.6378C108.122 48.5885 108.101 48.5391 108.08 48.4895" stroke="#C2000D" stroke-linecap="round" stroke-linejoin="round"/>
</svg>
