<svg width="374" height="132" viewBox="0 0 374 132" fill="none" xmlns="http://www.w3.org/2000/svg">
<path d="M10.6554 49.7234C10.5364 49.8044 10.4626 49.9199 10.434 50.0699C9.94417 52.6457 10.8055 56.0874 11.1545 58.6802C11.2893 59.7424 11.2269 60.0026 11.0334 60.1342C10.7804 60.3063 10.2939 60.0713 9.74715 59.2677C8.64345 57.6455 7.93158 56.2793 6.65574 54.4042C6.49373 54.1661 6.1585 54.0894 5.90551 54.2615C5.6674 54.4235 5.60557 54.7486 5.7527 54.9969C6.94877 56.8827 7.73029 58.2233 8.85424 59.8752C9.32003 60.5598 10.4058 61.8675 11.641 61.0271C12.4892 60.4499 12.355 59.4527 12.2214 58.5204C12.114 57.7226 11.9923 56.9998 11.8498 56.1824C13.1016 57.0942 14.5956 57.754 15.8209 57.9871C15.971 58.0156 16.1055 57.9894 16.2246 57.9084C16.4627 57.7464 16.5293 57.3963 16.3673 57.1582C16.2863 57.0391 16.1707 56.9653 16.0207 56.9368C14.6953 56.6847 12.8541 55.7385 11.6201 54.5969C11.4208 53.0561 11.2513 51.4951 11.4844 50.2697C11.5129 50.1197 11.4867 49.9851 11.4057 49.866C11.2437 49.6279 10.8935 49.5614 10.6554 49.7234Z" fill="#C2000D"/>
<path d="M21.0279 49.8566C21.0022 49.8091 20.9606 49.7702 20.9191 49.7313C20.3287 49.1709 19.4397 49.0795 18.7592 49.4484C17.0185 50.3919 16.4139 53.0537 17.3231 54.7311C17.8035 55.6173 18.8205 56.1717 19.8492 55.6141C20.8619 55.0651 21.5528 54.0355 21.9553 52.814C22.2819 53.1898 22.9666 53.9243 23.4888 53.6412C23.7579 53.4954 23.8349 53.1465 23.7063 52.9092C23.6548 52.8142 23.5717 52.7364 23.4813 52.683C23.0308 52.4563 22.5968 51.9955 22.2022 51.2675C22.0821 51.046 21.7391 50.9043 21.4701 51.0501C21.3277 51.1273 21.2354 51.2592 21.2005 51.4215C20.9075 53.0339 20.2365 54.1757 19.3345 54.6646C18.9389 54.8791 18.5643 54.7545 18.2726 54.2165C17.6379 53.0455 18.1662 50.9983 19.2739 50.3979C19.5429 50.252 19.9465 50.279 20.1873 50.4965C20.3535 50.6521 20.6048 50.7002 20.8105 50.5887C21.0954 50.4343 21.1566 50.094 21.0279 49.8566Z" fill="#C2000D"/>
<path d="M25.7996 51.02C25.7101 50.6342 26.2364 49.7175 27.2834 48.7352C27.3037 48.8229 27.3416 48.9065 27.362 48.9942C27.6225 50.1163 27.2017 51.2488 26.4478 51.4239C26.1146 51.5012 25.877 51.3531 25.7996 51.02ZM24.2716 48.4181C24.3944 48.3896 24.509 48.3261 24.5938 48.214C24.8577 47.8386 25.184 47.6519 25.5522 47.5665C26.0081 47.4606 26.3644 47.5627 26.6831 47.8213C25.6145 48.7901 24.4586 50.0193 24.7476 51.2642C24.9552 52.1584 25.7978 52.6835 26.692 52.4759C28.3928 52.081 28.7234 50.0825 28.414 48.7499C28.3529 48.4869 28.2568 48.232 28.1472 47.9988C28.5946 47.6177 29.0812 47.246 29.4572 46.9555C29.8089 48.6293 30.0447 50.4409 30.0168 50.7985C30.0115 50.8552 30.0237 50.9078 30.0359 50.9604C30.097 51.2234 30.3509 51.4416 30.6665 51.3683C30.8945 51.3154 31.0682 51.1087 31.0977 50.9171C31.1283 50.6513 31.7141 48.7968 32.8616 47.2923C32.8162 47.6539 32.8503 47.9601 32.9195 48.2582C33.2493 49.6784 34.5239 50.4727 35.9441 50.143C36.9085 49.9191 37.7147 49.4917 38.6484 48.4988C38.7817 48.357 38.8152 48.1829 38.7745 48.0075C38.7053 47.7095 38.3894 47.5426 38.1264 47.6037C38.0212 47.6281 37.9241 47.6876 37.8487 47.7605C37.004 48.6589 36.4889 48.9078 35.6999 49.091C34.8407 49.2904 34.171 48.8731 33.9715 48.0139C33.825 47.3827 33.9546 46.4287 35.4114 45.222C35.5354 45.1193 35.6444 44.8722 35.5955 44.6618C35.5263 44.3638 35.2144 44.2144 34.9514 44.2755L34.8638 44.2958C32.8762 45.1269 31.6132 47.0093 30.8543 48.5159C30.7237 47.7147 30.539 46.7598 30.3395 45.9006C30.2662 45.585 29.9544 45.4357 29.6914 45.4967C29.6212 45.513 29.5552 45.5468 29.4932 45.5982C29.0201 45.9482 28.2599 46.4943 27.516 47.1105C26.9486 46.577 26.1671 46.315 25.3079 46.5144C24.7293 46.6488 24.1388 46.9707 23.7052 47.5703C23.6069 47.704 23.5909 47.874 23.6235 48.0142C23.6927 48.3123 23.9911 48.4833 24.2716 48.4181Z" fill="#C2000D"/>
<path d="M43.6814 53.4596C43.5853 52.7824 43.8944 51.6295 44.4453 50.5151C44.791 51.0296 45.0577 51.6281 45.1589 52.3409C45.2727 53.1429 44.8622 53.8374 44.2919 53.9184C43.9533 53.9664 43.7295 53.7982 43.6814 53.4596ZM44.8612 43.8384C44.8435 43.7136 44.7723 43.5965 44.6681 43.5022C44.1721 43.0817 43.5511 42.9335 42.9273 43.022C41.3947 43.2395 40.416 44.542 40.6335 46.0746C40.8788 47.8033 42.5963 48.6322 43.6671 49.6438C42.9811 50.9592 42.4427 52.4173 42.6121 53.6114C42.7411 54.5203 43.5348 55.1167 44.4437 54.9877C45.8338 54.7904 46.3926 53.3476 46.2282 52.1892C46.0688 51.0664 45.5809 50.1903 45.0088 49.4897C45.3325 48.9529 45.6817 48.467 46.0105 48.0931C46.12 47.9685 46.1507 47.8005 46.1305 47.6579C46.0875 47.355 45.8051 47.1587 45.52 47.1992C45.3952 47.2169 45.2755 47.2702 45.1813 47.3745C44.8525 47.7484 44.5365 48.2114 44.2229 48.6922C44.0143 48.5037 43.7905 48.3355 43.587 48.1825C42.5491 47.4026 41.8141 46.707 41.7028 45.9229C41.5662 44.9605 42.1167 44.2279 43.0791 44.0913C43.4533 44.0382 43.7383 44.125 43.9851 44.3263C44.1072 44.4181 44.2599 44.4691 44.4024 44.4489C44.7054 44.4059 44.9017 44.1235 44.8612 43.8384Z" fill="#C2000D"/>
<path d="M52.7956 44.7035C52.8169 44.9003 52.8005 45.0832 52.7821 45.2481C52.595 45.3589 52.3899 45.4716 52.1573 45.4968C51.5846 45.5588 51.2276 45.2716 51.1656 44.6989C51.1249 44.3231 51.4281 43.9463 51.8039 43.9056C52.3766 43.8436 52.7336 44.1308 52.7956 44.7035ZM56.0646 41.4526C55.8856 41.472 55.7164 41.5809 55.6424 41.7337C55.6443 41.7516 54.8253 43.2163 53.8224 44.3207C53.5886 43.3321 52.7077 42.7214 51.6876 42.8319C50.7034 42.9385 49.9853 43.831 50.0919 44.8152C50.2004 45.8174 50.9498 46.551 51.9316 46.5895C51.6768 46.7438 51.3803 46.8483 51.0403 46.8852C49.7518 47.0247 48.7882 46.1514 48.6409 44.7913C48.5014 43.5028 48.878 42.4663 49.1497 41.9661C49.1937 41.8708 49.2178 41.7596 49.2062 41.6522C49.1771 41.3838 48.9154 41.1405 48.6112 41.1735C48.4323 41.1929 48.279 41.2819 48.189 41.4546C47.8612 42.1056 47.3966 43.3328 47.5672 44.9076C47.7687 46.7687 49.2239 48.1682 51.1566 47.9589C52.4271 47.8213 53.4214 46.9713 53.7564 45.8849C54.4237 45.36 54.9663 44.6857 55.4552 44.0172C55.4528 44.1623 55.478 44.3949 55.4993 44.5917C55.6349 45.8444 56.4269 46.9717 57.8479 47.0532L57.9374 47.0435C58.2058 47.0144 58.451 46.7706 58.4161 46.4485C58.389 46.198 58.1829 45.9668 57.9106 45.9601C57.1454 45.9162 56.6699 45.3702 56.573 44.4755C56.4645 43.4733 56.5916 42.8078 56.6533 42.0407C56.6495 42.0049 56.6635 41.9672 56.6596 41.9314C56.6305 41.6629 56.3867 41.4178 56.0646 41.4526Z" fill="#C2000D"/>
<path d="M68.9155 44.6075C68.4309 44.6453 68.455 45.185 67.8628 45.2312C67.1091 45.29 66.6251 43.2515 66.4921 41.5467C66.4697 41.2595 66.1988 41.0279 65.9117 41.0503C65.6246 41.0727 65.4274 41.3228 65.4097 41.5589C65.4142 41.8474 65.2068 45.4384 63.3764 45.5812C62.4432 45.654 61.896 45.1189 61.8148 44.0781C61.7238 42.9116 61.8906 42.7361 61.8682 42.449C61.8472 42.1798 61.6109 41.9274 61.2879 41.9526C61.0725 41.9694 60.8849 42.1104 60.8134 42.3507C60.8011 42.4239 60.6485 43.0136 60.7381 44.1621C60.8528 45.6336 61.8812 46.7811 63.4604 46.6579C64.8063 46.5529 65.5397 45.5388 65.9321 44.5513C66.2311 45.3766 66.8162 46.3961 67.9468 46.308C68.862 46.2366 69.3292 45.514 69.3789 45.456C69.4436 45.3607 69.4877 45.2309 69.4779 45.1052C69.4569 44.8361 69.2026 44.5851 68.9155 44.6075ZM61.0013 33.6498C61.0111 33.7754 61.0747 33.8968 61.1535 33.9809C61.9026 34.7891 62.7822 34.9552 63.4462 34.9034C64.487 34.8222 65.4943 34.3103 66.2388 33.4398C66.3381 33.3237 66.3822 33.1939 66.371 33.0503C66.3486 32.7632 66.0777 32.5316 65.7906 32.554C65.647 32.5652 65.5256 32.6288 65.4263 32.7449C64.8472 33.422 64.1159 33.7679 63.3622 33.8267C62.9495 33.8589 62.4372 33.7725 61.9258 33.2346C61.8083 33.1174 61.6592 33.0568 61.4977 33.0694C61.1926 33.0932 60.9789 33.3626 61.0013 33.6498Z" fill="#C2000D"/>
<path d="M87.2254 40.3065C86.9916 40.2977 86.7876 40.4522 86.7076 40.6653C85.887 42.8501 84.3516 44.8819 83.4522 44.8481C83.0565 44.8332 82.7469 44.4433 82.7868 43.3821C82.8172 42.5726 83.0475 41.7167 83.2191 40.9846C83.2205 40.9486 83.2398 40.9133 83.2412 40.8774C83.2513 40.6076 83.0456 40.3296 82.7218 40.3175C82.488 40.3087 82.284 40.4631 82.204 40.6763C81.364 42.8963 79.9919 44.8982 79.3084 44.8725C79.1465 44.8665 78.9154 44.7857 78.6211 44.4685C78.5172 44.3565 78.3933 44.2978 78.2494 44.2924C77.9616 44.2816 77.7004 44.5239 77.6895 44.8117C77.6841 44.9556 77.7334 45.0836 77.8372 45.1955C78.2354 45.6248 78.7103 45.9308 79.2679 45.9518C80.3111 45.991 81.0851 45.0474 81.7345 44.063C81.846 44.9318 82.3145 45.8861 83.4117 45.9273C84.5629 45.9706 85.4994 45.0151 86.2428 43.9262C86.3669 44.9396 86.9732 46.0611 88.2683 46.1098C88.5561 46.1206 88.8174 45.8782 88.8282 45.5904C88.839 45.3026 88.5966 45.0413 88.3088 45.0305C87.6793 45.0069 87.2539 44.3424 87.2904 43.3711C87.3282 42.3638 87.5504 41.7237 87.7227 40.9737C87.7241 40.9377 87.7434 40.9024 87.7447 40.8664C87.7549 40.5966 87.5492 40.3187 87.2254 40.3065Z" fill="#C2000D"/>
<path d="M93.1627 46.7862C93.9325 46.8667 94.608 46.8107 95.6055 46.4445C95.7938 46.3737 95.9398 46.1899 95.9603 45.9929C95.994 45.6707 95.748 45.4278 95.4794 45.3997C95.4078 45.3922 95.3164 45.4007 95.2411 45.4291C94.3548 45.7707 93.9374 45.7814 93.275 45.7121C92.9886 45.6821 92.7435 45.6022 92.5381 45.4903C93.7787 45.2218 95.0641 44.1799 95.2045 42.8372C95.3093 41.8347 94.604 40.9646 93.6015 40.8597C92.0081 40.6931 90.7738 41.9395 90.6166 43.4433C90.4387 45.144 91.444 46.6065 93.1627 46.7862ZM94.1303 42.7249C94.0367 43.62 92.7428 44.5706 91.7582 44.4676C91.677 44.2057 91.6551 43.8958 91.6907 43.5556C91.7955 42.5531 92.5761 41.8384 93.4891 41.9339C93.9188 41.9788 94.1753 42.2952 94.1303 42.7249Z" fill="#C2000D"/>
<path d="M103.508 42.8714C103.6 42.2663 102.708 42.0219 102.192 41.9437C100.412 41.674 98.7324 43.1489 98.4761 44.8395C98.2576 46.2811 99.1485 47.4902 100.59 47.7087C101.569 47.8571 102.476 47.7579 103.71 47.1804C103.887 47.0979 103.982 46.9485 104.009 46.7705C104.055 46.468 103.823 46.1962 103.556 46.1557C103.449 46.1395 103.337 46.1589 103.24 46.1988C102.123 46.7214 101.553 46.7623 100.752 46.6409C99.8798 46.5088 99.4117 45.8734 99.5439 45.0014C99.7192 43.8446 100.962 42.8497 102.03 43.0115C102.351 43.0601 102.49 43.0994 102.67 43.2359C102.736 43.2823 102.822 43.3136 102.893 43.3244C103.16 43.3648 103.459 43.1917 103.508 42.8714Z" fill="#C2000D"/>
<path d="M108.593 45.3876C108.693 44.8753 109.629 44.306 110.247 44.4267C110.583 44.4921 110.739 44.7244 110.674 45.0601C110.557 45.6607 109.998 46.1753 109.569 46.495L109.48 46.4778C108.809 46.3468 108.486 45.9353 108.593 45.3876ZM106.667 48.6798C106.72 48.6902 106.755 48.697 106.811 48.6897C107.634 48.6117 108.966 48.1747 109.888 47.5843C110.611 47.542 111.263 47.2106 111.791 46.8551L111.777 46.9258C111.419 48.7632 111.589 49.7684 111.607 49.8637C111.654 50.0929 111.846 50.2403 112.04 50.2782C112.358 50.3402 112.622 50.1165 112.673 49.8515C112.739 49.5159 112.472 49.0053 112.837 47.1326C113.051 46.0372 113.552 45.3465 113.6 45.0991C113.652 44.8341 113.513 44.5135 113.177 44.4481C112.983 44.4101 112.786 44.4817 112.663 44.6411C112.663 44.6411 112.256 45.1302 111.626 45.6309C111.668 45.5107 111.71 45.3905 111.734 45.2668C111.91 44.3658 111.355 43.5424 110.454 43.3666C109.306 43.1426 107.777 43.9265 107.533 45.1809C107.371 46.0112 107.741 46.7437 108.357 47.1574C107.737 47.4215 107.12 47.5763 106.729 47.6099C106.485 47.6358 106.285 47.8167 106.24 48.0464C106.178 48.3644 106.402 48.6281 106.667 48.6798Z" fill="#C2000D"/>
<path d="M120.784 56.3077C120.985 55.4672 121.855 54.4533 122.998 53.5411C122.922 54.1706 122.819 54.7568 122.694 55.2821C122.398 56.5254 121.465 57.0248 121.01 56.9164C120.887 56.8872 120.701 56.6579 120.784 56.3077ZM116.774 45.1759C116.529 45.1175 116.277 45.2426 116.166 45.4752C115.851 46.1773 115.661 46.7426 115.49 47.4605C115.148 48.8964 115.775 50.3039 117.316 50.6708C118.594 50.9752 119.646 50.2082 120.374 49.3268C120.364 50.3791 120.601 51.6382 121.827 51.9301C122.317 52.0468 122.81 51.9977 123.158 51.8584C123.163 51.9151 123.142 52.0027 123.143 52.0769C121.657 53.1108 120.101 54.5166 119.734 56.0575C119.567 56.7579 119.831 57.746 120.759 57.967C122.055 58.2756 123.373 57.0907 123.745 55.5323C123.949 54.6743 124.072 53.612 124.167 52.6723C125.133 52.0328 126.205 51.4925 126.94 51.2048C127.105 51.1331 127.23 50.9964 127.272 50.8213C127.343 50.5236 127.134 50.2334 126.872 50.1709C126.767 50.1459 126.657 50.1384 126.553 50.1875C125.919 50.4435 125.098 50.8587 124.278 51.3482C124.317 50.8762 124.429 50.3292 123.903 50.2041C123.711 50.1583 123.489 50.235 123.36 50.3892C123.028 50.7728 122.69 51.0254 122.077 50.8795C121.219 50.6752 121.46 48.4196 121.856 46.3676C121.905 46.0833 121.732 45.8014 121.452 45.7347C121.172 45.668 120.89 45.8414 120.806 46.1174C120.31 47.8868 118.914 49.9413 117.566 49.6202C116.656 49.4034 116.299 48.7263 116.541 47.7107C116.703 47.0278 116.833 46.5592 117.132 45.9272C117.14 45.8921 117.166 45.8613 117.174 45.8263C117.237 45.5636 117.089 45.2509 116.774 45.1759Z" fill="#C2000D"/>
<path d="M136.409 49.4646C136.182 49.4083 135.933 49.5135 135.807 49.7233C135.498 50.2958 135.116 51.3137 134.886 52.2396C134.583 53.4626 134.509 53.908 134.433 54.8162C134.402 55.087 134.604 55.3223 134.848 55.383C135.163 55.461 135.437 55.2509 135.502 54.9889C135.693 54.2201 135.618 53.8492 135.809 53.0063C136.839 53.1877 137.931 53.1988 138.834 52.7736L138.73 53.1929C138.487 54.1713 138.237 55.8525 139.827 56.2468C140.368 56.3812 140.909 56.2186 141.411 55.9164C141.542 55.8376 141.624 55.7283 141.659 55.5886C141.728 55.309 141.545 55.0038 141.265 54.9344C141.125 54.8998 140.99 54.9219 140.859 55.0007C140.488 55.224 140.244 55.2376 140.087 55.1986C139.58 55.0729 139.501 54.571 139.778 53.4529L140.341 51.1817C140.402 50.9371 140.262 50.6056 139.947 50.5276C139.702 50.4669 139.449 50.5896 139.336 50.8212C138.793 51.9661 137.562 52.2172 136.086 51.9624C136.294 51.2722 136.577 50.5819 136.751 50.2542C136.781 50.2061 136.794 50.1537 136.803 50.1187C136.868 49.8567 136.723 49.5426 136.409 49.4646Z" fill="#C2000D"/>
<path d="M145.116 52.5356C144.941 52.494 144.767 52.5267 144.625 52.6594C144.076 53.1767 143.696 53.8448 143.525 54.5629C143.168 56.069 144.022 57.456 145.528 57.8135C147.367 58.2501 149.368 57.2265 149.821 55.3176C150.158 53.899 149.37 52.6204 147.951 52.2836C147.443 52.1631 146.154 52.0605 145.992 52.7435C145.921 53.0412 146.13 53.3313 146.393 53.3936C146.498 53.4186 146.607 53.426 146.711 53.3768C146.998 53.2598 147.352 53.2513 147.702 53.3344C148.56 53.5382 148.974 54.21 148.77 55.0681C148.475 56.3115 147.091 57.0746 145.778 56.7627C144.832 56.5382 144.351 55.7581 144.576 54.8123C144.697 54.3045 144.957 53.8298 145.359 53.4627C145.432 53.3876 145.492 53.2908 145.517 53.1858C145.579 52.9231 145.414 52.6063 145.116 52.5356Z" fill="#C2000D"/>
<path d="M154.989 55.9332C155.218 55.9839 155.446 55.8686 155.563 55.6734C155.735 55.3981 156.116 55.2613 156.414 55.3276C156.942 55.4446 157.207 55.9092 157.059 56.577C156.786 57.807 154.963 58.8774 153.662 58.5887C153.118 58.4678 152.42 57.5386 152.959 55.1136C154.047 50.211 155.382 49.0139 155.944 49.1387C156.243 49.205 156.569 49.6462 156.413 50.3491C156.183 51.3858 155.724 51.5421 155.703 51.5558C155.504 51.6222 155.359 51.7745 155.32 51.9503C155.25 52.2666 155.467 52.5359 155.731 52.5944C155.801 52.61 155.893 52.612 155.971 52.5924C156.144 52.5573 157.109 52.1997 157.468 50.5831C157.702 49.5288 157.286 48.3301 156.179 48.0844C154.281 47.6631 152.922 50.2932 151.904 54.8796C151.351 57.3749 151.864 59.2959 153.428 59.643C155.291 60.0565 157.684 58.744 158.113 56.811C158.355 55.7215 157.879 54.5463 156.649 54.2733C155.893 54.1055 155.063 54.4376 154.65 55.1386C154.62 55.1875 154.591 55.2363 154.579 55.289C154.521 55.5526 154.673 55.863 154.989 55.9332Z" fill="#C2000D"/>
<path d="M164.326 58.816C164.288 59.0104 164.218 59.1802 164.152 59.3323C163.941 59.3827 163.711 59.4296 163.482 59.3848C162.916 59.2745 162.66 58.8945 162.771 58.3291C162.843 57.9581 163.244 57.688 163.615 57.7603C164.181 57.8707 164.436 58.2507 164.326 58.816ZM168.411 56.6788C168.234 56.6443 168.041 56.6982 167.925 56.8223C167.921 56.84 166.705 57.9965 165.42 58.7544C165.49 57.741 164.829 56.8968 163.822 56.7003C162.85 56.5107 161.9 57.1506 161.711 58.1223C161.518 59.1116 162.016 60.0342 162.943 60.3617C162.653 60.4336 162.339 60.4457 162.004 60.3802C160.732 60.132 160.07 59.0125 160.332 57.6699C160.58 56.3978 161.247 55.5192 161.654 55.122C161.724 55.044 161.78 54.9449 161.801 54.8389C161.853 54.5738 161.675 54.264 161.375 54.2054C161.198 54.171 161.025 54.2106 160.888 54.3489C160.382 54.8738 159.575 55.9083 159.272 57.463C158.913 59.3004 159.889 61.0679 161.797 61.4402C163.051 61.685 164.252 61.1675 164.894 60.229C165.687 59.9252 166.405 59.4417 167.07 58.9479C167.024 59.0858 166.98 59.3155 166.942 59.5098C166.7 60.7465 167.123 62.0577 168.456 62.5563L168.545 62.5735C168.81 62.6252 169.116 62.4649 169.178 62.1469C169.226 61.8996 169.098 61.6178 168.84 61.5307C168.122 61.2623 167.829 60.6 168.002 59.7166C168.195 58.7273 168.513 58.1292 168.799 57.4148C168.806 57.3794 168.831 57.3476 168.838 57.3122C168.889 57.0472 168.729 56.7408 168.411 56.6788Z" fill="#C2000D"/>
<path d="M174.549 63.7632C175.313 63.8854 175.991 63.8661 177.006 63.5545C177.198 63.4941 177.354 63.3184 177.385 63.1229C177.436 62.803 177.204 62.5471 176.937 62.5045C176.866 62.4931 176.774 62.4967 176.698 62.5209C175.794 62.8139 175.377 62.8019 174.719 62.6968C174.435 62.6513 174.194 62.5582 173.995 62.4353C175.249 62.2346 176.589 61.2639 176.802 59.9308C176.961 58.9355 176.304 58.0284 175.308 57.8693C173.727 57.6164 172.426 58.794 172.188 60.287C171.918 61.9756 172.842 63.4905 174.549 63.7632ZM175.735 59.7604C175.593 60.6491 174.25 61.528 173.272 61.3718C173.205 61.1059 173.2 60.7952 173.254 60.4575C173.413 59.4621 174.232 58.7909 175.138 58.9357C175.565 59.0039 175.804 59.3338 175.735 59.7604Z" fill="#C2000D"/>
<path d="M191.494 61.4144C191.5 61.3606 191.487 61.3051 191.475 61.2495C191.304 60.4538 190.621 59.877 189.851 59.7978C187.881 59.5954 185.881 61.4526 185.686 63.3506C185.583 64.3533 186.11 65.3846 187.274 65.5043C188.42 65.622 189.571 65.1613 190.592 64.3797C190.65 64.8742 190.801 65.8668 191.392 65.9276C191.697 65.9589 191.957 65.7142 191.985 65.4456C191.996 65.3382 191.971 65.2271 191.926 65.132C191.682 64.6908 191.584 64.0654 191.668 63.2417C191.694 62.9911 191.491 62.6806 191.186 62.6493C191.025 62.6328 190.875 62.6897 190.754 62.804C189.603 63.9704 188.405 64.5348 187.384 64.4299C186.937 64.3839 186.698 64.0698 186.76 63.461C186.896 62.136 188.487 60.7433 189.741 60.8722C190.045 60.9035 190.363 61.1533 190.439 61.4688C190.489 61.691 190.669 61.8724 190.902 61.8963C191.224 61.9294 191.467 61.6829 191.494 61.4144Z" fill="#C2000D"/>
<path d="M202.25 64.675C202.142 64.6688 202.032 64.6985 201.939 64.7473C200.875 65.3712 200.311 65.4649 199.502 65.4183C198.622 65.3676 198.097 64.7784 198.148 63.8979C198.185 63.251 198.578 62.3721 200.316 61.6248C200.501 61.5453 200.638 61.3549 200.649 61.1572C200.668 60.8337 200.411 60.6026 200.141 60.587L200.051 60.5819C197.91 60.8192 196.131 62.2853 195.015 63.5012C195.118 62.6597 195.208 61.7273 195.258 60.8467C195.275 60.5592 195.038 60.2931 194.75 60.2766C194.463 60.26 194.197 60.4971 194.18 60.7846C194.069 62.7075 193.718 65.0491 193.568 65.4552C193.547 65.5081 193.544 65.562 193.541 65.6159C193.526 65.8855 193.708 66.1664 194.049 66.1861C194.265 66.1985 194.47 66.0841 194.572 65.8736C194.676 65.6272 195.723 64.0467 197.286 62.8927C197.161 63.192 197.087 63.5303 197.069 63.8358C196.986 65.2914 197.985 66.4127 199.44 66.4965C200.429 66.5534 201.323 66.3705 202.498 65.681C202.666 65.5825 202.747 65.4249 202.758 65.2452C202.775 64.9397 202.519 64.6905 202.25 64.675Z" fill="#C2000D"/>
<path d="M211.986 71.3007C211.989 70.4367 212.605 69.2508 213.509 68.1017C213.579 68.732 213.613 69.3261 213.611 69.8661C213.607 71.1441 212.813 71.8435 212.345 71.8419C212.219 71.8415 211.985 71.6607 211.986 71.3007ZM205.539 61.3794C205.287 61.3785 205.071 61.5578 205.016 61.8096C204.869 62.5652 204.813 63.159 204.811 63.897C204.806 65.373 205.738 66.6 207.322 66.6053C208.636 66.6096 209.485 65.6224 209.993 64.5981C210.223 65.6249 210.741 66.7966 212.001 66.8007C212.505 66.8024 212.974 66.642 213.28 66.427C213.298 66.481 213.298 66.571 213.316 66.6431C212.105 67.9891 210.912 69.7132 210.906 71.2972C210.904 72.0171 211.387 72.9187 212.341 72.9219C213.673 72.9263 214.686 71.4716 214.691 69.8697C214.694 68.9877 214.572 67.9252 214.449 66.9888C215.243 66.1455 216.164 65.3745 216.813 64.9266C216.958 64.8191 217.048 64.6574 217.049 64.4774C217.05 64.1714 216.781 63.9365 216.511 63.9356C216.403 63.9353 216.295 63.9529 216.204 64.0246C215.645 64.4188 214.941 65.0104 214.255 65.6742C214.185 65.206 214.168 64.6479 213.628 64.6461C213.43 64.6455 213.232 64.7708 213.141 64.9505C212.906 65.3997 212.635 65.7228 212.005 65.7208C211.123 65.7178 210.842 63.4669 210.759 61.3786C210.742 61.0906 210.509 60.8558 210.221 60.8548C209.933 60.8539 209.698 61.0871 209.679 61.375C209.601 63.2108 208.711 65.5299 207.325 65.5253C206.389 65.5222 205.887 64.9445 205.891 63.9005C205.893 63.1985 205.913 62.7126 206.059 62.0291C206.059 61.9931 206.077 61.9571 206.077 61.9211C206.078 61.6511 205.863 61.3804 205.539 61.3794Z" fill="#C2000D"/>
<path d="M227.206 64.7868C226.721 64.8077 226.726 65.3479 226.133 65.3735C225.377 65.4061 224.964 63.3519 224.891 61.6435C224.878 61.3558 224.616 61.1148 224.328 61.1272C224.04 61.1396 223.835 61.3827 223.809 61.6181C223.803 61.9066 223.471 65.4882 221.637 65.5672C220.702 65.6075 220.173 65.0537 220.128 64.0107C220.078 62.8418 220.251 62.6722 220.238 62.3844C220.227 62.1147 219.999 61.8542 219.676 61.8682C219.46 61.8775 219.267 62.0119 219.188 62.2495C219.173 62.3223 219 62.9062 219.049 64.0572C219.113 65.5318 220.101 66.7144 221.683 66.6462C223.032 66.5881 223.8 65.6001 224.227 64.6269C224.497 65.462 225.046 66.5013 226.179 66.4525C227.096 66.413 227.588 65.7072 227.64 65.6509C227.708 65.5579 227.756 65.4297 227.751 65.3038C227.739 65.034 227.494 64.7744 227.206 64.7868Z" fill="#C2000D"/>
<path d="M238.117 63.9433C237.632 63.9851 237.661 64.5246 237.069 64.5757C236.316 64.6407 235.815 62.6062 235.668 60.9025C235.643 60.6156 235.371 60.3862 235.084 60.4109C234.797 60.4357 234.602 60.6874 234.586 60.9236C234.593 61.2121 234.415 64.8047 232.586 64.9625C231.653 65.043 231.102 64.5124 231.012 63.4723C230.911 62.3066 231.077 62.1298 231.052 61.8428C231.029 61.5738 230.79 61.3234 230.467 61.3512C230.252 61.3698 230.066 61.5124 229.996 61.7532C229.985 61.8265 229.837 62.4174 229.936 63.5651C230.063 65.0357 231.1 66.1747 232.679 66.0385C234.024 65.9225 234.749 64.9024 235.133 63.9117C235.439 64.7344 236.032 65.7492 237.162 65.6517C238.076 65.5728 238.538 64.8465 238.587 64.788C238.651 64.6922 238.694 64.562 238.683 64.4364C238.66 64.1674 238.404 63.9186 238.117 63.9433Z" fill="#C2000D"/>
<path d="M237.841 64.4278C242.855 61.1056 248.221 59.0059 254.286 58.8107C258.272 58.6825 262.584 58.8331 266.415 60.0095C272.576 61.901 278.071 66.4635 283.553 69.7103C289.806 73.414 295.462 77.9369 301.605 81.7961C310.306 87.2623 319.379 90.1498 329.531 91.413C340.69 92.8014 352.915 94.0796 363.945 91.1344C365.85 90.6256 368.802 90.0005 369.589 87.9216" stroke="#C2000D" stroke-linecap="round" stroke-linejoin="round"/>
</svg>
