<svg width="299" height="134" viewBox="0 0 299 134" fill="none" xmlns="http://www.w3.org/2000/svg">
<path d="M-13.9712 2.66127C-12.4335 2.06454 -10.1519 1.44768 -8.62462 2.40214C-7.08811 3.36237 -5.78569 4.42836 -4.89754 6.0473C-4.24606 7.23483 -3.65204 8.59886 -3.31146 9.90044C-2.86529 11.6056 -2.0994 13.2211 -1.48504 14.8733C-0.82275 16.6544 -0.14109 18.4151 0.835578 20.0604C1.94201 21.9242 2.77432 23.8808 4.953 25.3093C8.04817 27.3386 10.8043 27.3187 14.374 26.3413C16.3866 25.7902 17.3086 24.9231 19.1232 23.893C21.122 22.7585 22.274 22.1495 24.1073 20.7635C26.0028 19.3305 27.3804 18.706 28.6133 16.6746C28.9559 16.11 29.0872 15.6425 29.3737 15.164" stroke="#C2000D" stroke-linecap="round" stroke-linejoin="round"/>
<path d="M29.5149 16.0419C29.6228 16.012 29.701 15.9471 29.7493 15.8473C30.2727 14.7661 30.293 12.5276 30.0729 10.2549C30.0673 10.17 30.0588 10.0427 30.0505 9.98737C30.3467 10.5825 30.7109 11.3748 31.206 12.5487C31.6357 13.5678 32.3754 15.2502 33.6977 14.8842C34.885 14.5556 34.9902 12.697 34.9311 10.9847C34.9964 11.1395 35.0482 11.298 35.1189 11.4657C35.7826 13.0395 36.5446 14.0963 37.8804 13.7266C38.609 13.5249 38.8935 12.9132 38.9096 12.8799C38.9579 12.7801 38.9414 12.6694 38.9033 12.5791C38.8162 12.3727 38.5512 12.2444 38.3353 12.3042C37.971 12.405 38.1207 12.7957 37.554 12.9526C37.0008 13.1057 36.6248 12.8928 35.9284 11.2416C35.3518 9.87426 35.1973 8.79339 34.8383 7.942C34.7567 7.7485 34.4997 7.60355 34.2703 7.66703C34.1354 7.70438 34.0411 7.80248 34.0091 7.94099C34.0065 7.97052 33.8572 8.61688 33.9714 9.78092C34.2053 12.1219 33.8705 13.972 33.3713 14.1102C33.0744 14.1924 32.565 13.6275 32.0155 12.3246C30.5576 8.86745 30.0943 8.37624 29.9426 8.23095C29.8451 8.14269 29.6532 8.08057 29.4913 8.12538C29.3564 8.16272 29.2621 8.26083 29.2301 8.39933C29.2275 8.42887 29.0782 9.07522 29.1924 10.2393C29.4178 12.453 29.3326 14.6806 28.9541 15.4624C28.9058 15.5622 28.9034 15.6637 28.9469 15.7669C29.034 15.9733 29.299 16.1016 29.5149 16.0419Z" fill="#C2000D"/>
<path d="M43.4523 10.2828C43.4966 10.4303 43.5098 10.5713 43.519 10.6989C43.39 10.8042 43.2474 10.913 43.0711 10.9583C42.6372 11.0696 42.3205 10.8909 42.1915 10.4619C42.1069 10.1804 42.288 9.85951 42.5727 9.78642C43.0067 9.67506 43.3233 9.85374 43.4523 10.2828ZM45.5195 7.4416C45.3839 7.4764 45.2684 7.57824 45.2329 7.70289C45.2369 7.7163 44.811 8.92317 44.1919 9.87634C43.8713 9.1499 43.1038 8.78362 42.3309 8.98199C41.585 9.1734 41.1562 9.93333 41.3779 10.6707C41.6036 11.4215 42.2868 11.8961 43.0513 11.8154C42.8761 11.9615 42.6617 12.0743 42.404 12.1404C41.4277 12.391 40.5591 11.834 40.2528 10.8151C39.9625 9.84975 40.107 9.01839 40.2463 8.60716C40.2668 8.52969 40.2697 8.44228 40.2455 8.36184C40.1851 8.16073 39.9483 8.00487 39.7178 8.06403C39.5822 8.09883 39.4763 8.18378 39.4312 8.32533C39.2699 8.85773 39.0844 9.84405 39.4391 11.0239C39.8583 12.4182 41.1813 13.3207 42.6459 12.9448C43.6087 12.6977 44.2571 11.9392 44.3623 11.0746C44.8039 10.6002 45.1279 10.026 45.4113 9.46231C45.43 9.57305 45.4824 9.74734 45.5267 9.89482C45.8089 10.8333 46.5807 11.6028 47.6908 11.5057L47.7586 11.4883C47.962 11.4361 48.117 11.223 48.0445 10.9817C47.988 10.794 47.796 10.6411 47.5845 10.6664C46.9868 10.7188 46.5419 10.3564 46.3403 9.68601C46.1146 8.93521 46.1186 8.41427 46.0578 7.82333C46.0498 7.79652 46.0553 7.76622 46.0472 7.73941C45.9867 7.5383 45.7636 7.37895 45.5195 7.4416Z" fill="#C2000D"/>
<path d="M56.5901 10.0228C56.5954 10.0926 56.6297 10.1746 56.6618 10.2286C56.709 10.2956 57.3032 11.0986 58.4907 11.0211C59.3428 10.9655 60.6858 10.3448 60.5782 8.92085C60.5212 8.167 60.0439 7.60893 59.3337 7.50094C59.4932 7.19593 59.5807 6.86755 59.5501 6.46271C59.4763 5.48549 58.6238 4.97996 57.7576 5.03647C57.2687 5.06838 56.2325 5.29031 56.2757 5.86268C56.2937 6.1 56.517 6.26781 56.7265 6.25414C56.8103 6.24867 56.892 6.21528 56.9587 6.16884C57.1577 6.01556 57.4717 5.89688 57.8209 5.87409C58.3518 5.83945 58.6802 6.09859 58.7119 6.5174C58.7625 7.18749 58.0849 7.69467 58.0182 7.74111C57.9246 7.80333 57.8384 7.96327 57.8511 8.13079C57.869 8.36812 58.0912 8.52196 58.3008 8.50829C58.5522 8.49188 58.5417 8.35228 58.9887 8.32311C59.4777 8.2912 59.7031 8.48693 59.74 8.97554C59.7949 9.70147 59.084 10.1407 58.4274 10.1835C57.7288 10.2291 57.4028 9.81547 57.3406 9.73536C57.2633 9.64219 57.1033 9.56846 56.9636 9.57757C56.7121 9.59398 56.5743 9.81341 56.5901 10.0228Z" fill="#C2000D"/>
<path d="M65.6772 6.44711C65.675 6.40517 65.6587 6.36395 65.6425 6.32274C65.4144 5.73175 64.8201 5.37 64.2189 5.40113C62.681 5.48077 61.3686 7.14686 61.4484 8.62872C61.4905 9.41158 62.0205 10.1412 62.9293 10.0941C63.8241 10.0478 64.6529 9.55624 65.343 8.83358C65.4472 9.20669 65.6836 9.95146 66.145 9.92757C66.3826 9.91526 66.5531 9.69615 66.5418 9.48646C66.5373 9.40258 66.5048 9.32015 66.4591 9.25242C66.2181 8.94247 66.0667 8.47368 66.0321 7.83061C66.0216 7.63489 65.8278 7.42062 65.5901 7.43293C65.4643 7.43945 65.3554 7.50116 65.2768 7.60336C64.5333 8.63719 63.6811 9.21404 62.8841 9.2553C62.5346 9.2734 62.3128 9.06059 62.2873 8.58528C62.2316 7.55077 63.2854 6.29059 64.2641 6.23991C64.5017 6.22761 64.7764 6.38161 64.8731 6.61492C64.9381 6.77978 65.0986 6.89763 65.2804 6.88822C65.532 6.87519 65.6885 6.65681 65.6772 6.44711Z" fill="#C2000D"/>
<path d="M71.7111 5.80729C71.7532 5.45983 71.4033 5.32791 71.0399 5.30718C69.5443 5.22185 68.1971 6.69835 68.0302 8.07427C67.9122 9.04714 68.5267 9.78192 69.5051 9.83774C71.1824 9.93343 72.6275 8.46251 72.8281 6.80864C72.99 5.47442 72.0572 3.88183 72.1651 2.99235C72.2545 2.25574 72.9906 1.64001 73.7314 1.68228C74.3884 1.71976 74.6173 2.15265 75.6377 2.21087C76.3645 2.25234 76.8356 1.73344 76.8669 1.70724C76.9329 1.62704 76.9867 1.53214 76.9968 1.44875C77.0237 1.22638 76.8656 1.02144 76.628 1.00788C76.2646 0.987151 76.2001 1.4033 75.7388 1.37698C75.0819 1.3395 74.8529 0.906607 73.8326 0.848392C72.6166 0.779013 71.4731 1.73536 71.3265 2.9445C71.1646 4.27872 72.0974 5.87131 71.9895 6.76079C71.8361 8.02552 70.7245 9.06765 69.6063 9.00385C69.0472 8.97195 68.8014 8.67804 68.8688 8.12212C68.9885 7.13535 70.0582 6.09083 70.9387 6.14107C71.0086 6.14505 71.1433 6.19472 71.2412 6.20031C71.4508 6.21227 71.6807 6.05745 71.7111 5.80729Z" fill="#C2000D"/>
<path d="M75.4931 6.31527C75.3583 6.27775 75.2129 6.29458 75.078 6.38593C74.558 6.74243 74.1504 7.21612 73.9047 7.73485C73.3892 8.82292 73.8688 9.87284 75.0287 10.1956C76.4449 10.5897 78.2118 9.92137 78.8651 8.54231C79.3506 7.5175 78.9085 6.54961 77.816 6.24562C77.4248 6.13678 76.4013 6.0095 76.1675 6.50292C76.0656 6.71801 76.19 6.93878 76.3923 6.99507C76.4733 7.01759 76.5602 7.02745 76.6516 6.99561C76.9004 6.92163 77.1866 6.92968 77.4563 7.00474C78.1172 7.18863 78.3495 7.69718 78.0558 8.31713C77.6303 9.21542 76.3999 9.71795 75.3884 9.43647C74.66 9.23382 74.3903 8.64324 74.7139 7.96003C74.8878 7.59312 75.1695 7.25624 75.5486 7.00374C75.6191 6.95174 75.682 6.88333 75.718 6.80742C75.8079 6.61764 75.7224 6.37907 75.4931 6.31527Z" fill="#C2000D"/>
<path d="M89.8234 12.3706C89.7189 12.3306 89.6068 12.3322 89.4872 12.3754C89.1683 12.4906 88.9903 12.4966 88.7026 12.3865C88.0489 12.1362 88.6478 10.645 89.3706 9.21611C89.4671 9.01578 89.3863 8.79201 89.1771 8.71192C88.994 8.64185 88.7686 8.70386 88.6403 8.84754C87.6878 9.92158 86.3424 11.1863 85.3095 10.7909C84.7081 10.5606 84.641 10.001 85.0797 9.21972C85.3469 8.74361 85.4697 8.5533 85.8416 8.11724C85.8553 8.09282 85.8821 8.07341 85.8958 8.04899C85.9986 7.86588 85.9445 7.6227 85.7091 7.5326C85.5261 7.46253 85.2938 7.53675 85.1723 7.66822C84.3084 8.61298 82.4629 10.146 81.443 9.7556C80.92 9.55538 80.7956 9.21112 81.0698 8.72281C81.4193 8.10021 81.8049 7.63974 82.4707 7.01959C82.5044 6.98797 82.538 6.95635 82.5586 6.91973C82.6614 6.73661 82.6073 6.49343 82.3719 6.40333C82.202 6.33826 81.9965 6.39307 81.8619 6.51955C81.1824 7.16411 80.6896 7.70223 80.2853 8.42249C79.8055 9.27703 80.1166 10.1377 81.0318 10.4881C82.0255 10.8685 83.111 10.3497 83.9537 9.78236C83.8202 10.4728 84.0485 11.198 84.8983 11.5233C85.9181 11.9138 86.937 11.4288 87.7274 10.8414C87.4662 11.6462 87.2847 12.7335 88.2914 13.1189C88.7882 13.3091 89.2702 13.2712 89.7485 13.0983C89.8681 13.0551 89.9553 12.9847 90.0101 12.887C90.1197 12.6917 90.0326 12.4507 89.8234 12.3706ZM91.9042 4.69205C92.0207 4.48452 91.9267 4.25574 91.7175 4.17565L91.6914 4.16564C88.8367 3.28042 88.5733 3.26857 84.6509 1.76696C84.4417 1.68687 84.1627 1.78771 84.0531 1.98303C83.9434 2.17836 84.0305 2.41934 84.2397 2.49943C88.1621 4.00104 88.5039 4.04291 91.3325 4.91813C91.5485 4.98601 91.8014 4.87516 91.9042 4.69205Z" fill="#C2000D"/>
<path d="M97.6096 15.1017C97.2584 14.9617 97.0132 15.3064 96.584 15.1353C96.0378 14.9176 96.6941 13.4828 97.4297 12.3747C97.5536 12.1881 97.4799 11.9522 97.2718 11.8693C97.0637 11.7863 96.807 11.8757 96.6804 12.017C96.5435 12.1984 94.6594 14.3679 93.3329 13.8391C92.6567 13.5694 92.5403 13.051 92.9894 12.3745C93.4926 11.6163 93.6924 11.5632 93.8162 11.3765C93.9324 11.2016 93.8925 10.9644 93.6584 10.8711C93.5023 10.8088 93.3051 10.8335 93.1394 10.9592C93.0954 11.0006 92.7046 11.3169 92.2091 12.0634C91.5742 13.0198 91.724 14.0826 92.8684 14.5389C93.8437 14.9278 94.8392 14.5429 95.5877 14.0595C95.3929 14.6751 95.3002 15.5085 96.1195 15.8352C96.7827 16.0996 97.454 15.8067 97.5163 15.7873C97.607 15.7497 97.7002 15.6836 97.7544 15.602C97.8705 15.427 97.8176 15.1846 97.6096 15.1017Z" fill="#C2000D"/>
<path d="M106.177 16.9425C106.013 16.8619 105.796 16.8914 105.64 16.9969C104.038 18.0782 101.997 18.8354 101.369 18.5252C101.093 18.3887 101.053 18.049 101.574 17.4083C101.972 16.9196 102.534 16.4666 102.997 16.071C103.014 16.0493 103.044 16.0338 103.062 16.012C103.195 15.8491 103.177 15.6118 102.951 15.5001C102.788 15.4195 102.57 15.449 102.414 15.5545C100.782 16.6513 98.8712 17.4426 98.3943 17.2069C98.2814 17.151 98.1535 17.0269 98.0904 16.7369C98.0681 16.6345 98.0068 16.5585 97.9064 16.5088C97.7056 16.4096 97.4062 16.4748 97.2648 16.6485C97.1941 16.7354 97.1699 16.83 97.1922 16.9324C97.2776 17.3249 97.4751 17.6661 97.8642 17.8584C98.5921 18.2183 99.5838 17.8862 100.505 17.489C100.182 18.0599 100.074 18.7983 100.839 19.1768C101.642 19.5738 102.756 19.2867 103.793 18.8554C103.411 19.5194 103.324 20.4051 104.228 20.8518C104.428 20.9511 104.728 20.8859 104.869 20.7122C105.011 20.5384 104.959 20.2995 104.758 20.2003C104.319 19.9831 104.323 19.4371 104.8 18.8507C105.295 18.2425 105.751 17.9199 106.223 17.5134C106.24 17.4917 106.27 17.4762 106.288 17.4544C106.421 17.2915 106.403 17.0542 106.177 16.9425Z" fill="#C2000D"/>
<path d="M111.313 20.32C111.623 19.9585 111.058 19.5405 110.705 19.3392C109.49 18.6448 107.652 19.0995 106.787 20.1096C106.049 20.9709 106.229 22.008 107.214 22.5704C107.882 22.9523 108.596 23.1543 109.745 23.1452C109.909 23.1439 110.039 23.0759 110.13 22.9696C110.285 22.7888 110.221 22.5465 110.039 22.4423C109.966 22.4006 109.875 22.3802 109.787 22.3774C108.748 22.3857 108.307 22.2449 107.76 21.9324C107.164 21.5922 107.07 21.0473 107.516 20.5263C108.108 19.8351 109.429 19.5605 110.159 19.9772C110.378 20.1022 110.466 20.1683 110.545 20.3085C110.575 20.3576 110.627 20.4029 110.676 20.4307C110.858 20.5348 111.15 20.5114 111.313 20.32Z" fill="#C2000D"/>
<path d="M112.433 22.789C112.656 22.4491 113.556 22.1987 114.012 22.3777C114.26 22.4748 114.319 22.66 114.173 22.8826C113.913 23.281 113.327 23.5517 112.898 23.7072L112.832 23.6817C112.337 23.4874 112.196 23.1523 112.433 22.789ZM109.989 24.7748C110.028 24.7902 110.054 24.8004 110.101 24.804C110.774 24.8766 111.951 24.779 112.847 24.5117C113.431 24.5939 114.04 24.4646 114.557 24.2994L114.527 24.3463C113.73 25.565 113.585 26.2884 113.573 26.3572C113.546 26.5234 113.656 26.655 113.8 26.7113C114.034 26.8033 114.305 26.6889 114.42 26.5131C114.566 26.2904 114.497 25.8952 115.309 24.653C115.784 23.9265 116.374 23.5248 116.481 23.3608C116.596 23.185 116.575 22.9412 116.327 22.8441C116.184 22.7879 116.008 22.8071 115.866 22.8987C115.866 22.8987 115.407 23.175 114.769 23.4252C114.835 23.3483 114.902 23.2714 114.955 23.1894C115.346 22.5917 115.137 21.9353 114.472 21.6746C113.625 21.3422 112.195 21.6502 111.651 22.4822C111.291 23.033 111.381 23.598 111.753 23.9798C111.188 24.0674 110.656 24.0796 110.337 24.0425C110.137 24.023 109.927 24.1176 109.828 24.2699C109.69 24.4808 109.794 24.6982 109.989 24.7748Z" fill="#C2000D"/>
<path d="M124.013 29.8492C123.878 29.8135 123.729 29.8308 123.588 29.9204C123.045 30.2699 122.611 30.7327 122.339 31.2383C121.769 32.2988 122.211 33.3162 123.375 33.6228C124.797 33.9972 126.62 33.3371 127.342 31.993C127.879 30.9942 127.472 30.0563 126.375 29.7675C125.983 29.6641 124.948 29.5466 124.69 30.0275C124.577 30.2371 124.694 30.4509 124.897 30.5044C124.978 30.5258 125.066 30.5348 125.16 30.5033C125.416 30.43 125.707 30.436 125.977 30.5074C126.641 30.6821 126.855 31.1749 126.53 31.7791C126.06 32.6546 124.788 33.1504 123.773 32.8829C123.042 32.6904 122.793 32.1181 123.151 31.4522C123.343 31.0946 123.644 30.7656 124.04 30.5179C124.114 30.4669 124.18 30.4001 124.22 30.3261C124.32 30.1411 124.243 29.9098 124.013 29.8492Z" fill="#C2000D"/>
<path d="M131.06 39.9024C131.014 39.9556 130.984 40.0325 130.973 40.0881C130.964 40.1608 130.889 41.0472 131.942 41.6017C132.698 41.9996 134.27 42.2412 135.198 41.1558C135.689 40.5813 135.687 39.9321 135.168 39.4889C135.52 39.3503 135.829 39.1577 136.092 38.8492C136.729 38.1043 136.375 37.3003 135.607 36.8959C135.173 36.6675 134.144 36.2953 133.771 36.7315C133.616 36.9124 133.684 37.1486 133.87 37.2465C133.944 37.2856 134.037 37.3035 134.126 37.3042C134.403 37.2956 134.751 37.3712 135.061 37.5343C135.532 37.7822 135.622 38.1385 135.349 38.4577C134.912 38.9685 133.98 38.9869 133.891 38.9862C133.768 38.9831 133.581 39.0545 133.472 39.1821C133.317 39.363 133.394 39.5886 133.58 39.6864C133.803 39.8039 133.894 39.6974 134.29 39.9062C134.724 40.1345 134.773 40.392 134.455 40.7644C133.982 41.3177 133.07 41.2699 132.488 40.9633C131.869 40.6371 131.891 40.1702 131.896 40.0803C131.897 39.9732 131.816 39.8376 131.692 39.7723C131.469 39.6549 131.196 39.7428 131.06 39.9024Z" fill="#C2000D"/>
<path d="M133.975 46.17C134.306 45.7539 135.168 45.2409 136.16 44.8491C136.079 45.2778 135.9 45.7205 135.551 46.1584C135.159 46.6511 134.499 46.8676 134.093 46.677C133.852 46.5639 133.809 46.378 133.975 46.17ZM140.286 41.3105C140.347 41.2339 140.37 41.1394 140.359 41.0439C140.291 40.6054 139.986 40.2666 139.543 40.0582C138.453 39.5462 137.083 39.8658 136.333 40.8073C135.487 41.8693 136.087 43.0392 136.175 44.0435C134.982 44.4913 133.799 45.0792 133.215 45.8127C132.77 46.3711 132.923 47.0303 133.57 47.3339C134.558 47.7983 135.745 47.2273 136.312 46.5157C136.861 45.8259 137.062 45.1375 137.108 44.512C137.622 44.3474 138.123 44.2215 138.546 44.1495C138.687 44.1255 138.803 44.0448 138.873 43.9573C139.022 43.7711 138.958 43.5455 138.755 43.4502C138.666 43.4085 138.56 43.3887 138.44 43.4077C138.017 43.4798 137.55 43.6065 137.075 43.7443C137.053 43.5533 137.01 43.3674 136.97 43.1984C136.769 42.3364 136.709 41.6463 137.093 41.1646C137.565 40.5734 138.335 40.3936 139.019 40.7151C139.285 40.8401 139.414 41.0061 139.453 41.2199C139.476 41.3213 139.543 41.4127 139.644 41.4603C139.86 41.5615 140.146 41.4857 140.286 41.3105Z" fill="#C2000D"/>
<path d="M142.565 43.0797C142.441 43.0147 142.292 42.9986 142.135 43.0548C141.529 43.2755 141.004 43.6311 140.628 44.0647C139.839 44.9742 140.045 46.0668 141.112 46.6254C142.414 47.3076 144.335 47.0681 145.335 45.9154C146.078 45.0588 145.888 44.0516 144.883 43.5254C144.524 43.337 143.542 42.9921 143.185 43.4045C143.029 43.5843 143.095 43.8192 143.281 43.9167C143.356 43.9557 143.439 43.9841 143.538 43.9742C143.804 43.9594 144.085 44.03 144.333 44.1599C144.941 44.4782 145.041 45.0075 144.591 45.5256C143.94 46.2765 142.592 46.4782 141.662 45.9909C140.993 45.6401 140.877 45.0255 141.372 44.4545C141.638 44.1478 142.003 43.8931 142.443 43.7392C142.526 43.7058 142.606 43.6553 142.661 43.5919C142.799 43.4332 142.775 43.1901 142.565 43.0797Z" fill="#C2000D"/>
<path d="M147.974 48.2931C147.665 48.6182 148.084 48.9886 148.556 49.2637C149.693 49.9266 151.135 49.3163 151.886 48.5239C152.657 47.7111 152.835 46.5528 151.734 45.911C150.549 45.2198 148.727 45.656 146.367 47.2143C147.043 46.3623 147.419 45.808 147.548 45.3153C147.584 45.1785 147.518 45.0298 147.385 44.9522C147.167 44.8253 146.878 44.893 146.733 45.0454C146.695 45.0861 146.659 45.1439 146.644 45.1987C146.472 45.8556 145.194 47.4611 142.304 50.509C142.179 50.6411 142.161 50.8984 142.378 51.0253C142.56 51.1311 142.845 51.108 143.011 50.9525C147.766 46.5312 150.237 45.9846 151.156 46.5205C151.749 46.8661 151.739 47.4911 151.161 48.1007C150.564 48.7306 149.69 48.9785 149.134 48.6541C148.759 48.4355 148.855 48.3339 148.625 48.1999C148.444 48.0941 148.147 48.1102 147.974 48.2931Z" fill="#C2000D"/>
<path d="M153.872 47.9053C153.745 47.8466 153.596 47.8376 153.441 47.9011C152.845 48.15 152.336 48.5294 151.979 48.9794C151.232 49.9233 151.489 51.0019 152.582 51.5074C153.916 52.1246 155.827 51.794 156.774 50.5977C157.478 49.7088 157.242 48.7144 156.212 48.2383C155.844 48.0679 154.846 47.7712 154.507 48.1993C154.359 48.3858 154.437 48.6167 154.628 48.7048C154.704 48.7401 154.789 48.7644 154.887 48.7499C155.152 48.7224 155.437 48.7793 155.691 48.8968C156.313 49.1848 156.438 49.7073 156.012 50.2451C155.395 51.0243 154.056 51.2897 153.103 50.8489C152.417 50.5315 152.272 49.9247 152.742 49.3321C152.994 49.0138 153.348 48.7426 153.781 48.5681C153.863 48.5309 153.94 48.4768 153.992 48.4109C154.123 48.2463 154.088 48.0053 153.872 47.9053Z" fill="#C2000D"/>
<path d="M159.214 51.6595C159.381 51.7316 159.598 51.6917 159.75 51.5795C159.97 51.4224 160.316 51.3934 160.534 51.4876C160.92 51.6539 160.992 52.0112 160.673 52.4367C160.085 53.2206 158.307 53.6397 157.355 53.2294C156.957 53.0576 156.68 52.3156 157.839 50.7703C160.184 47.646 161.61 47.0605 162.021 47.2379C162.24 47.3321 162.368 47.6836 162.031 48.1315C161.536 48.7922 161.122 48.8215 161.101 48.8271C160.922 48.8389 160.761 48.9176 160.677 49.0296C160.526 49.2311 160.618 49.4487 160.811 49.5318C160.862 49.554 160.935 49.5705 161.003 49.5703C161.152 49.5754 162.03 49.4944 162.803 48.4641C163.307 47.7922 163.335 46.9152 162.525 46.566C161.137 45.9673 159.261 47.5149 157.068 50.4377C155.875 52.0278 155.707 53.4079 156.851 53.9013C158.214 54.489 160.52 54.0011 161.444 52.7693C161.965 52.075 161.938 51.2038 161.038 50.8157C160.485 50.5774 159.723 50.6636 159.182 51.0675C159.144 51.0956 159.106 51.1236 159.08 51.1572C158.954 51.3252 158.983 51.5597 159.214 51.6595Z" fill="#C2000D"/>
<path d="M164.012 56.0972C163.169 55.7167 162.969 54.954 163.455 54.1728C163.962 54.2525 164.528 54.3888 165 54.6021C165.689 54.9134 165.934 55.3973 165.633 55.7843C165.281 56.2377 164.611 56.3681 164.012 56.0972ZM162.543 54.0596C161.996 55.097 162.297 56.2188 163.496 56.7606C164.428 57.1814 165.72 57.0037 166.399 56.1302C167.129 55.1903 166.358 54.3191 165.515 53.9387C165.043 53.7254 164.511 53.5895 164.034 53.4935C164.724 52.8492 165.442 52.5462 165.485 52.5357C165.566 52.4977 165.643 52.4428 165.695 52.3765C165.823 52.2106 165.799 51.9756 165.582 51.8776C165.455 51.82 165.297 51.8234 165.16 51.8662C165.066 51.8984 163.985 52.3361 163.067 53.3404C162.462 53.2762 162.143 53.1767 161.894 53.4974C161.74 53.6964 161.828 53.9156 162.019 54.0021C162.223 54.0943 162.219 54.0328 162.543 54.0596Z" fill="#C2000D"/>
<path d="M167.57 58.3032C168.097 58.5934 168.617 58.7708 169.512 58.8595C169.682 58.8753 169.872 58.8088 169.975 58.695C170.145 58.5087 170.074 58.2833 169.89 58.182C169.841 58.155 169.771 58.1316 169.703 58.1253C168.9 58.0564 168.59 57.9321 168.136 57.6824C167.939 57.5744 167.796 57.4488 167.696 57.3161C168.725 57.5407 170.136 57.307 170.843 56.531C171.371 55.9516 171.246 55.1994 170.56 54.8213C169.468 54.2205 168.003 54.5951 167.211 55.4642C166.315 56.4471 166.392 57.6551 167.57 58.3032ZM170.107 56.126C169.635 56.6433 168.26 56.8186 167.585 56.4473C167.644 56.2619 167.767 56.0658 167.947 55.8692C168.475 55.2898 169.368 55.0978 169.994 55.4421C170.288 55.6041 170.333 55.8777 170.107 56.126Z" fill="#C2000D"/>
<path d="M183.421 58.2333C183.433 58.2078 183.451 58.1696 183.449 58.141C183.545 57.6005 183.633 57.114 184.023 56.2612C184.525 55.1666 185.636 53.9593 186.223 54.0944C186.482 54.1542 186.568 54.3288 186.457 54.5706C186.177 55.1815 185.593 55.469 185.173 56.3854C184.846 57.0982 185.225 57.6217 185.761 57.8015C187.121 58.2557 187.208 58.5288 187.085 58.7961C186.788 59.4452 185.134 59.8944 184.124 59.6617C183.893 59.6083 183.696 59.4785 183.578 59.2404C183.532 59.1452 183.454 59.085 183.344 59.0598C183.126 59.0095 182.853 59.1437 182.76 59.3473C182.714 59.4492 182.714 59.5477 182.761 59.6429C182.956 60.0397 183.324 60.3217 183.775 60.4254C184.948 60.6958 187.268 60.3721 187.904 58.9847C188.364 57.9792 187.444 57.4857 186.193 57.0567C185.945 56.9715 185.852 56.8795 185.991 56.5741C186.271 55.9631 186.856 55.6756 187.275 54.7592C187.573 54.1101 187.268 53.4911 186.572 53.3308C184.976 52.9629 183.636 55.1307 183.205 56.0726C182.779 57.0017 182.673 57.5963 182.576 58.1369C182.541 58.3118 182.66 58.4799 182.837 58.5208C183.083 58.5774 183.334 58.4242 183.421 58.2333Z" fill="#C2000D"/>
<path d="M193.231 58.5976C193.244 58.5578 193.244 58.516 193.244 58.4741C193.245 57.875 192.805 57.4175 192.209 57.3266C190.687 57.0941 188.786 58.3928 188.306 59.7968C188.052 60.5386 188.291 61.3278 189.191 61.4652C190.077 61.6004 191.066 61.3055 192.008 60.7663C191.968 61.1366 191.917 61.8815 192.374 61.9512C192.609 61.9872 192.857 61.816 192.925 61.6173C192.952 61.5378 192.952 61.4541 192.933 61.3815C192.816 61.0431 192.846 60.5737 193.054 59.9644C193.118 59.779 193.01 59.5396 192.775 59.5036C192.65 59.4846 192.522 59.5207 192.407 59.6007C191.296 60.4207 190.252 60.7909 189.463 60.6704C189.117 60.6176 188.982 60.374 189.136 59.9236C189.472 58.9435 190.969 57.9734 191.937 58.1213C192.173 58.1573 192.381 58.3564 192.387 58.5942C192.388 58.7616 192.5 58.9041 192.68 58.9315C192.929 58.9696 193.163 58.7963 193.231 58.5976Z" fill="#C2000D"/>
<path d="M205.056 59.9257C204.944 59.9357 204.844 59.9863 204.755 60.0775C204.518 60.3209 204.36 60.4045 204.053 60.4318C203.356 60.4938 203.249 58.8917 203.281 57.2911C203.281 57.0688 203.111 56.9033 202.888 56.9231C202.693 56.9405 202.517 57.0951 202.464 57.2805C202.071 58.6631 201.407 60.3893 200.306 60.4874C199.664 60.5445 199.361 60.0713 199.418 59.177C199.452 58.6321 199.48 58.4073 199.626 57.8525C199.628 57.8246 199.644 57.7954 199.646 57.7674C199.659 57.5578 199.505 57.3631 199.254 57.3855C199.059 57.4029 198.882 57.5714 198.829 57.7428C198.46 58.9705 197.462 61.1572 196.375 61.254C195.817 61.3037 195.556 61.049 195.591 60.4902C195.636 59.7776 195.784 59.1948 196.115 58.3456C196.131 58.3025 196.148 58.2593 196.151 58.2174C196.164 58.0078 196.01 57.8131 195.759 57.8355C195.577 57.8516 195.416 57.991 195.35 58.1636C195.017 59.0407 194.806 59.7403 194.754 60.5646C194.692 61.5427 195.346 62.1792 196.322 62.0924C197.381 61.998 198.134 61.0557 198.648 60.1765C198.826 60.8552 199.346 61.4064 200.253 61.3257C201.34 61.2289 202.048 60.3462 202.505 59.4719C202.619 60.3093 202.926 61.3656 204 61.2701C204.53 61.2229 204.948 60.9774 205.304 60.6122C205.393 60.521 205.441 60.4194 205.448 60.3077C205.462 60.0841 205.279 59.9059 205.056 59.9257Z" fill="#C2000D"/>
<path d="M211.636 58.0298C211.265 58.1026 211.29 58.5236 210.836 58.6125C210.259 58.7257 209.867 57.1707 209.747 55.8462C209.726 55.6231 209.516 55.4656 209.297 55.5087C209.077 55.5518 208.928 55.7654 208.917 55.9521C208.924 56.1779 208.803 59.0113 207.402 59.2862C206.687 59.4263 206.262 59.0556 206.189 58.2469C206.107 57.3406 206.233 57.1882 206.213 56.9651C206.194 56.7559 206.01 56.5791 205.763 56.6277C205.598 56.66 205.455 56.7872 205.403 56.982C205.394 57.0404 205.284 57.5162 205.365 58.4086C205.468 59.5519 206.268 60.3599 207.477 60.1227C208.508 59.9206 209.059 59.0604 209.349 58.2514C209.587 58.8716 210.046 59.6188 210.912 59.4491C211.613 59.3116 211.963 58.7036 212 58.6537C212.049 58.5732 212.081 58.4675 212.073 58.3699C212.054 58.1608 211.856 57.9867 211.636 58.0298Z" fill="#C2000D"/>
<path d="M213.351 56.9919C213.261 56.496 213.67 55.7757 214.505 54.9786C214.555 55.0958 214.596 55.244 214.621 55.3817C214.781 56.2634 214.418 57.1594 213.833 57.3042C213.575 57.3681 213.398 57.2536 213.351 56.9919ZM212.272 54.9561C212.367 54.9325 212.457 54.8814 212.526 54.7923C212.742 54.4942 212.999 54.3442 213.284 54.2735C213.57 54.2028 213.788 54.2349 213.979 54.3461C213.105 55.1671 212.348 56.1607 212.535 57.1939C212.663 57.8965 213.29 58.3024 213.983 58.1307C214.69 57.9556 215.124 57.3731 215.328 56.7756C215.765 57.2286 216.404 57.3869 217.084 57.2186C217.831 57.0334 218.464 56.6894 219.216 55.8987C219.323 55.7857 219.355 55.6483 219.33 55.5105C219.288 55.2763 219.051 55.1478 218.847 55.1983C218.766 55.2185 218.689 55.2662 218.629 55.3244C217.949 56.0398 217.545 56.2406 216.934 56.3921C216.268 56.557 215.769 56.2343 215.647 55.5593C215.57 55.1323 215.659 54.4481 216.331 53.6914C216.472 53.527 216.628 53.373 216.826 53.209C216.936 53.1098 217.017 52.9313 216.987 52.766C216.942 52.518 216.711 52.417 216.507 52.4675C216.466 52.4776 216.414 52.5048 216.376 52.5287C215.818 52.8973 215.211 53.3068 214.654 53.7614C214.256 53.4427 213.719 53.3022 213.135 53.4469C212.686 53.558 212.222 53.817 211.868 54.2933C211.788 54.3995 211.77 54.5336 211.789 54.6438C211.832 54.878 212.055 55.01 212.272 54.9561Z" fill="#C2000D"/>
<path d="M225.537 50.5906C225.452 50.2944 225.825 49.5626 226.601 48.7602C226.62 48.8275 226.653 48.891 226.672 48.9583C226.918 49.8198 226.635 50.7151 226.056 50.8796C225.8 50.9523 225.61 50.8463 225.537 50.5906ZM224.248 48.6281C224.342 48.6013 224.429 48.5476 224.49 48.4573C224.681 48.1558 224.927 47.9986 225.21 47.9182C225.56 47.8188 225.841 47.8845 226.098 48.0733C225.306 48.866 224.455 49.8644 224.729 50.8201C224.925 51.5066 225.6 51.8824 226.287 51.6873C227.593 51.3162 227.772 49.7518 227.48 48.7288C227.422 48.5269 227.337 48.3326 227.243 48.1556C227.576 47.8428 227.94 47.5357 228.221 47.2958C228.559 48.5823 228.813 49.9801 228.805 50.2588C228.803 50.303 228.815 50.3434 228.826 50.3838C228.884 50.5857 229.09 50.7455 229.332 50.6767C229.507 50.627 229.634 50.4599 229.65 50.31C229.663 50.1024 230.046 48.6401 230.879 47.4284C230.858 47.7109 230.897 47.9474 230.962 48.1763C231.274 49.2666 232.295 49.8351 233.386 49.5253C234.127 49.3149 234.737 48.9524 235.423 48.1461C235.522 48.0309 235.541 47.8944 235.502 47.7598C235.437 47.531 235.185 47.4134 234.983 47.4707C234.902 47.4937 234.829 47.5436 234.773 47.6031C234.152 48.3326 233.761 48.5455 233.155 48.7176C232.495 48.905 231.959 48.6063 231.77 47.9467C231.632 47.4621 231.695 46.7164 232.78 45.7242C232.873 45.6397 232.948 45.4438 232.901 45.2822C232.836 45.0534 232.588 44.9492 232.386 45.0066L232.318 45.0257C230.806 45.7464 229.898 47.2559 229.367 48.4546C229.234 47.8374 229.054 47.1029 228.865 46.4433C228.796 46.201 228.548 46.0968 228.346 46.1542C228.292 46.1695 228.242 46.1983 228.196 46.2405C227.842 46.5303 227.272 46.9831 226.718 47.4898C226.256 47.097 225.639 46.9231 224.979 47.1106C224.534 47.2368 224.088 47.5091 223.774 47.9912C223.703 48.0987 223.697 48.2313 223.728 48.339C223.794 48.5678 224.032 48.6893 224.248 48.6281Z" fill="#C2000D"/>
<path d="M241.692 45.2526C241.327 45.3514 241.441 45.7555 240.995 45.8764C240.427 46.0302 239.698 44.561 239.297 43.2929C239.23 43.0793 238.982 42.9437 238.765 43.0023C238.549 43.0609 238.442 43.2784 238.47 43.4592C238.524 43.6764 238.995 46.4183 237.616 46.7918C236.914 46.9822 236.4 46.6575 236.155 45.8833C235.881 45.0157 235.978 44.8589 235.911 44.6454C235.847 44.4451 235.622 44.2889 235.379 44.3548C235.216 44.3987 235.097 44.5324 235.085 44.7243C235.088 44.7813 235.075 45.2487 235.345 46.103C235.691 47.1976 236.681 47.9149 237.87 47.5927C238.883 47.3181 239.267 46.4458 239.395 45.6431C239.769 46.2229 240.397 46.908 241.248 46.6773C241.937 46.4905 242.168 45.8771 242.196 45.8261C242.229 45.7447 242.24 45.6403 242.211 45.5468C242.147 45.3466 241.908 45.194 241.692 45.2526Z" fill="#C2000D"/>
<path d="M244.878 42.638C245.058 42.6095 245.182 42.4625 245.2 42.2899C245.231 42.0446 245.456 41.8391 245.692 41.8019C246.106 41.7362 246.451 41.9927 246.568 42.5116C246.785 43.4674 245.843 44.7481 244.82 44.9102C244.391 44.9781 243.584 44.512 243.157 42.6278C242.294 38.8183 242.846 37.5852 243.288 37.5151C243.523 37.4779 243.903 37.7006 244.027 38.2467C244.209 39.0523 243.935 39.2939 243.924 39.3097C243.804 39.4136 243.752 39.5632 243.783 39.6998C243.839 39.9456 244.083 40.0765 244.291 40.0437C244.346 40.0349 244.412 40.0103 244.461 39.9742C244.573 39.8999 245.141 39.3715 244.856 38.1153C244.671 37.2961 243.974 36.5579 243.103 36.6959C241.609 36.9325 241.52 39.1955 242.327 42.7592C242.767 44.6981 243.775 45.9245 245.006 45.7295C246.471 45.4973 247.738 43.8821 247.398 42.3802C247.206 41.5336 246.474 40.8293 245.506 40.9827C244.911 41.0769 244.431 41.549 244.37 42.1668C244.366 42.2099 244.361 42.2531 244.371 42.2941C244.417 42.4989 244.629 42.6774 244.878 42.638Z" fill="#C2000D"/>
<path d="M248.804 40.7033C248.665 40.7217 248.554 40.7925 248.502 40.9257C248.303 41.443 248.278 42.0214 248.42 42.5777C248.716 43.7446 249.825 44.4952 251.018 44.3368C252.476 44.1435 253.515 42.8695 253.139 41.3905C252.86 40.2914 251.837 39.5995 250.713 39.7486C250.311 39.802 249.363 40.082 249.498 40.6112C249.557 40.8419 249.81 40.9907 250.018 40.963C250.101 40.952 250.181 40.9274 250.236 40.8639C250.396 40.7024 250.643 40.5996 250.92 40.5628C251.6 40.4726 252.137 40.8361 252.306 41.501C252.551 42.4644 251.852 43.3846 250.812 43.5227C250.062 43.6221 249.438 43.1999 249.252 42.4672C249.152 42.0737 249.163 41.6655 249.313 41.295C249.337 41.2216 249.344 41.1365 249.324 41.0551C249.272 40.8516 249.04 40.672 248.804 40.7033Z" fill="#C2000D"/>
<path d="M264.842 42.879C264.731 42.867 264.635 42.8985 264.555 42.9735C264.342 43.1733 264.191 43.2268 263.885 43.1939C263.189 43.1192 262.914 41.4741 262.779 39.858C262.756 39.6326 262.567 39.4314 262.345 39.4074C262.15 39.3865 261.988 39.5084 261.954 39.6858C261.703 41.0098 261.215 42.6286 260.115 42.5104C259.475 42.4416 259.12 41.9022 259.084 41.0069C259.062 40.4614 259.066 40.239 259.155 39.7055C259.154 39.6775 259.167 39.651 259.166 39.623C259.157 39.4132 258.982 39.1854 258.731 39.1585C258.536 39.1376 258.376 39.2735 258.341 39.4369C258.097 40.6085 257.321 42.628 256.235 42.5114C255.678 42.4515 255.388 42.1419 255.365 41.5823C255.336 40.8689 255.424 40.3074 255.669 39.512C255.681 39.4715 255.693 39.431 255.692 39.3891C255.683 39.1792 255.507 38.9515 255.257 38.9246C255.076 38.9051 254.928 39.0146 254.879 39.1764C254.636 39.9998 254.497 40.6673 254.53 41.4926C254.57 42.4718 255.295 43.246 256.269 43.3507C257.327 43.4643 257.987 42.6578 258.412 41.8679C258.663 42.5912 259.245 43.2525 260.15 43.3497C261.235 43.4664 261.856 42.7113 262.225 41.9154C262.427 42.7866 262.848 43.9181 263.919 44.0332C264.448 44.0901 264.843 43.9236 265.164 43.6238C265.244 43.5488 265.282 43.4554 265.277 43.3435C265.268 43.1197 265.065 42.9029 264.842 42.879ZM262.562 34.6757C262.552 34.4379 262.35 34.2351 262.127 34.2112L262.099 34.2082C259.17 34.0885 258.937 34.147 254.761 33.6984C254.538 33.6745 254.351 33.8494 254.36 34.0732C254.37 34.297 254.572 34.5138 254.795 34.5377C258.971 34.9863 259.288 34.9368 262.189 35.0535C262.411 35.0634 262.57 34.8855 262.562 34.6757Z" fill="#C2000D"/>
<path d="M267.48 40.5205C267.311 40.4519 267.114 40.5075 267.002 40.6582C266.724 41.0733 266.357 41.8294 266.112 42.53C265.789 43.4552 265.7 43.7962 265.573 44.4993C265.529 44.7082 265.665 44.9142 265.846 44.9881C266.08 45.0831 266.304 44.9482 266.374 44.75C266.577 44.1684 266.548 43.8697 266.756 43.23C267.527 43.4833 268.356 43.6097 269.075 43.374L268.965 43.6912C268.706 44.4314 268.389 45.7214 269.569 46.2018C269.971 46.3654 270.395 46.2964 270.799 46.1138C270.905 46.0662 270.976 45.9895 271.013 45.8838C271.087 45.6723 270.97 45.4133 270.763 45.3289C270.659 45.2867 270.554 45.2894 270.449 45.337C270.15 45.472 269.963 45.4562 269.846 45.4087C269.47 45.2556 269.447 44.8539 269.743 44.008L270.343 42.2896C270.407 42.1046 270.325 41.8298 270.092 41.7348C269.91 41.6609 269.709 41.7297 269.605 41.8989C269.105 42.737 268.15 42.801 267.046 42.4422C267.257 41.9241 267.523 41.4138 267.681 41.1758C267.707 41.1415 267.721 41.1018 267.73 41.0754C267.8 40.8771 267.713 40.6155 267.48 40.5205Z" fill="#C2000D"/>
<path d="M275.545 46.5144C275.491 46.6588 275.417 46.7797 275.347 46.8875C275.18 46.896 275 46.8993 274.831 46.8317C274.415 46.6654 274.268 46.3354 274.423 45.9152C274.525 45.6394 274.864 45.4887 275.137 45.5978C275.553 45.7642 275.7 46.0941 275.545 46.5144ZM278.921 45.4529C278.791 45.4009 278.637 45.4146 278.533 45.4937C278.528 45.5068 277.457 46.2241 276.385 46.6241C276.565 45.8523 276.17 45.1062 275.429 44.8099C274.714 44.524 273.91 44.881 273.643 45.6033C273.372 46.3387 273.634 47.122 274.297 47.5077C274.068 47.5217 273.828 47.4858 273.581 47.3871C272.645 47.0128 272.283 46.0541 272.652 45.0561C273.001 44.1106 273.619 43.5287 273.979 43.2808C274.043 43.2308 274.098 43.1624 274.127 43.0836C274.2 42.8866 274.104 42.622 273.883 42.5337C273.753 42.4817 273.616 42.4874 273.495 42.5744C273.044 42.9066 272.299 43.5886 271.872 44.7442C271.367 46.1099 271.886 47.6136 273.29 48.175C274.213 48.5441 275.192 48.3176 275.798 47.6859C276.439 47.5655 277.046 47.2958 277.614 47.0104C277.563 47.1103 277.499 47.281 277.446 47.4254C277.106 48.3447 277.262 49.4169 278.213 49.993L278.278 50.019C278.473 50.097 278.726 50.0174 278.814 49.781C278.882 49.5972 278.82 49.3614 278.634 49.2571C278.122 48.9469 277.983 48.3939 278.226 47.7373C278.498 47.0019 278.816 46.5864 279.123 46.0764C279.133 46.0502 279.156 46.0291 279.165 46.0028C279.238 45.8058 279.155 45.5465 278.921 45.4529Z" fill="#C2000D"/>
<path d="M280.631 50.0444C280.875 49.6035 281.62 49.3554 282.721 49.359C282.684 49.4839 282.621 49.626 282.553 49.7485C282.119 50.5323 281.298 50.947 280.785 50.6318C280.558 50.4925 280.502 50.2771 280.631 50.0444ZM281.119 47.7183C281.203 47.7697 281.3 47.7965 281.405 47.7792C281.747 47.7103 282.027 47.7834 282.277 47.9373C282.527 48.0912 282.666 48.2747 282.734 48.4974C281.591 48.484 280.424 48.6861 279.915 49.6047C279.569 50.2293 279.77 50.9928 280.378 51.3666C280.998 51.7478 281.675 51.6221 282.195 51.318C282.229 51.9789 282.593 52.5635 283.189 52.93C283.845 53.3332 284.518 53.5331 285.554 53.4805C285.702 53.473 285.811 53.3921 285.879 53.2696C285.994 53.0614 285.903 52.7922 285.724 52.6823C285.653 52.6383 285.568 52.6188 285.488 52.6189C284.55 52.6665 284.133 52.525 283.596 52.1952C283.012 51.836 282.852 51.2291 283.184 50.629C283.395 50.2493 283.886 49.7959 284.844 49.7115C285.048 49.6893 285.257 49.6866 285.502 49.7059C285.643 49.7106 285.813 49.6345 285.895 49.4875C286.017 49.2671 285.913 49.0224 285.734 48.9125C285.698 48.8905 285.643 48.8734 285.601 48.8637C284.968 48.7371 284.273 48.6057 283.587 48.5453C283.497 48.0142 283.197 47.5176 282.684 47.2025C282.29 46.9606 281.793 46.8192 281.24 46.9226C281.116 46.9448 281.019 47.033 280.965 47.131C280.85 47.3392 280.928 47.6011 281.119 47.7183Z" fill="#C2000D"/>
<path d="M284.911 52.3191C285.874 52.2164 288.176 51.586 289.102 52.1152C290.419 52.8679 290.841 54.4177 291.231 55.7852C291.533 56.8416 291.722 57.8035 291.435 59.0473C291.134 60.3533 290.663 61.5255 289.699 62.4892C288.735 63.453 287.072 64.8498 285.364 66.3872C282.307 69.1388 279.967 74.2948 280.471 78.4163C280.783 80.9664 282.775 83.8718 284.503 85.6656C287.206 88.4709 290.181 91.1977 292.251 94.5232C294.495 98.1284 295.389 102.126 295.015 106.349C294.799 108.777 294.241 111.154 294.131 113.598C294.05 115.392 294.204 117.197 294.29 118.989" stroke="#C2000D" stroke-linecap="round" stroke-linejoin="round"/>
</svg>
