<svg width="781" height="135" viewBox="0 0 781 135" fill="none" xmlns="http://www.w3.org/2000/svg">
<path d="M0.728271 3.52812C2.35189 2.98691 4.74748 2.46221 6.28239 3.52812C7.82657 4.60047 9.12284 5.77068 9.96199 7.49314C10.5775 8.7566 11.1246 10.2001 11.4122 11.5662C11.789 13.3557 12.5016 15.0685 13.0553 16.8117C13.6522 18.6909 14.2703 20.5499 15.1998 22.3041C16.2529 24.2914 17.2975 26.6166 19.2034 27.9508C21.817 29.7803 25.8418 30.0524 28.9154 29.4936C30.8097 29.1492 32.2368 27.9335 33.9604 27.1948C35.8272 26.3947 37.3134 25.5461 39.2831 24.2018C41.3195 22.8119 43.5474 21.3179 44.1584 20.1905C44.7693 19.063 44.7014 19.1445 45.0223 18.6631" stroke="#C2000D" stroke-linecap="round" stroke-linejoin="round"/>
<path d="M412.581 114.868C418.51 113.791 423.337 113.91 429.823 111.723C439.231 108.552 443.108 103.749 451.681 98.7419C467.832 89.3094 479.485 82.639 493.368 75.1621C507.384 67.6139 522.543 63.4837 538.415 62.9881C545.369 62.771 552.001 63.6648 558.761 65.2743C568.897 67.6874 578.898 70.3526 589.085 72.6071C598.991 74.7993 608.142 79.1602 618.085 81.1744C629.678 83.5228 641.253 85.3901 653.015 86.6813C680.836 89.7351 710.176 91.9833 738.086 89.4218C745.329 88.7571 752.563 87.4554 759.569 85.4936C764.316 84.1643 769.256 82.6147 772.659 78.8589C775.402 75.8316 777.306 71.9433 779.435 68.473" stroke="#C2000D" stroke-linecap="round" stroke-linejoin="round"/>
<path d="M45.2507 18.0613C45.3903 18.026 45.4957 17.9438 45.567 17.8147C46.3387 16.4156 46.5908 13.4806 46.5422 10.4921C46.5436 10.3806 46.5458 10.2133 46.5409 10.1405C46.8554 10.9316 47.2362 11.9838 47.7439 13.5411C48.1846 14.8931 48.9504 17.1262 50.6606 16.6939C52.1963 16.3057 52.5174 13.872 52.6158 11.6243C52.6827 11.8296 52.7322 12.0394 52.8047 12.2619C53.4853 14.3498 54.3428 15.7631 56.0704 15.3264C57.0128 15.0882 57.4346 14.2962 57.4583 14.2532C57.5296 14.124 57.5198 13.9783 57.4808 13.8585C57.3915 13.5847 57.0691 13.4068 56.7899 13.4774C56.3187 13.5965 56.4686 14.1143 55.7357 14.2996C55.0202 14.4805 54.5659 14.1878 53.8518 11.9972C53.2604 10.1832 53.1743 8.7601 52.8061 7.63059C52.7224 7.37389 52.4119 7.17453 52.1152 7.24952C51.9407 7.29363 51.8115 7.4189 51.757 7.59939C51.7508 7.63803 51.4964 8.48031 51.5232 10.011C51.5823 13.0896 50.9715 15.5038 50.3258 15.6671C49.9419 15.7641 49.3544 15.0049 48.791 13.2765C47.2959 8.69 46.7593 8.0291 46.5821 7.83309C46.4676 7.71383 46.231 7.62544 46.0216 7.67837C45.8471 7.72249 45.7179 7.84775 45.6634 8.02824C45.6572 8.06688 45.4028 8.90917 45.4296 10.4399C45.4908 13.3512 45.1577 16.2695 44.5997 17.2812C44.5285 17.4103 44.5152 17.5433 44.5598 17.6803C44.6491 17.9541 44.9715 18.1319 45.2507 18.0613Z" fill="#C2000D"/>
<path d="M65.4887 10.8554C65.5078 11.0524 65.4892 11.2343 65.4689 11.3982C65.2801 11.5026 65.0734 11.6084 64.84 11.6259C64.2656 11.6689 63.9114 11.3707 63.8559 10.7973C63.8195 10.4211 64.1276 10.0551 64.5046 10.0268C65.079 9.98376 65.4333 10.282 65.4887 10.8554ZM68.8014 7.71949C68.6219 7.73296 68.451 7.836 68.3751 7.98606C68.3769 8.00398 67.5393 9.43832 66.5217 10.5072C66.299 9.51329 65.4237 8.87513 64.4006 8.95186C63.4134 9.0259 62.6836 9.89271 62.7789 10.8781C62.876 11.8814 63.6181 12.6379 64.6012 12.7085C64.3441 12.8541 64.0459 12.9487 63.7049 12.9742C62.4125 13.0712 61.4573 12.1683 61.3256 10.8066C61.2009 9.51667 61.5902 8.49492 61.8682 8.00486C61.9134 7.91124 61.9389 7.80105 61.9285 7.69355C61.9025 7.4248 61.6432 7.17356 61.3381 7.19644C61.1586 7.20991 61.0039 7.29369 60.9118 7.46301C60.5759 8.10178 60.0962 9.31077 60.2487 10.8874C60.4289 12.7507 61.8703 14.1946 63.8088 14.0492C65.0833 13.9536 66.0892 13.1383 66.4374 12.0655C67.1121 11.5637 67.6634 10.9088 68.161 10.2579C68.1569 10.4026 68.1794 10.6355 68.1985 10.8326C68.3198 12.0867 69.1 13.2373 70.5226 13.3652L70.6124 13.3585C70.8816 13.3383 71.13 13.1031 71.0989 12.7806C71.0746 12.5298 70.8708 12.2924 70.5981 12.2768C69.8321 12.2079 69.3621 11.6476 69.2754 10.7518C69.1784 9.7485 69.3135 9.0887 69.3843 8.32544C69.3808 8.28961 69.3953 8.25243 69.3918 8.2166C69.3658 7.94785 69.1245 7.69526 68.8014 7.71949Z" fill="#C2000D"/>
<path d="M81.9431 13.6388C81.9453 13.7288 81.9839 13.836 82.0216 13.9074C82.0778 13.9963 82.7877 15.0632 84.3175 15.0346C85.4153 15.014 87.1805 14.2969 87.1362 12.4614C87.1127 11.4897 86.5366 10.7444 85.6319 10.5633C85.8568 10.181 85.9908 9.76441 85.9782 9.24256C85.9478 7.98293 84.8866 7.28268 83.7708 7.30356C83.1409 7.31535 81.7959 7.53856 81.8137 8.27634C81.8211 8.58225 82.0967 8.81113 82.3666 8.80608C82.4746 8.80406 82.5817 8.76605 82.6704 8.71038C82.936 8.52538 83.3469 8.39167 83.7968 8.38325C84.4807 8.37045 84.8853 8.72293 84.8984 9.26277C84.9192 10.1265 84.0157 10.7375 83.927 10.7932C83.8028 10.8675 83.6816 11.0678 83.6868 11.2838C83.6942 11.5897 83.9693 11.8006 84.2393 11.7955C84.5632 11.7895 84.5589 11.6095 85.1348 11.5987C85.7647 11.5869 86.0411 11.8518 86.0564 12.4816C86.0789 13.4173 85.1373 13.9391 84.2914 13.9549C83.3916 13.9717 83.0002 13.421 82.9256 13.3143C82.8326 13.1901 82.632 13.0858 82.452 13.0892C82.1281 13.0952 81.9366 13.3689 81.9431 13.6388Z" fill="#C2000D"/>
<path d="M95.4638 8.55618C95.4635 8.50218 95.4453 8.44825 95.427 8.39432C95.1713 7.62126 94.4309 7.12 93.6569 7.12286C91.677 7.13019 89.8868 9.18882 89.8959 11.0968C89.9007 12.1048 90.5353 13.0744 91.7053 13.0701C92.8573 13.0659 93.9525 12.4858 94.8843 11.6003C94.9946 12.0859 95.2513 13.057 95.8453 13.0548C96.1513 13.0537 96.384 12.7828 96.3827 12.5128C96.3822 12.4048 96.3457 12.2969 96.2912 12.2071C96.0013 11.7942 95.8363 11.1828 95.8324 10.3548C95.8312 10.1028 95.5958 9.8157 95.2898 9.81684C95.1278 9.81743 94.9842 9.88997 94.8768 10.0164C93.8569 11.2981 92.7261 11.9863 91.7002 11.9901C91.2502 11.9918 90.9788 11.7048 90.9759 11.0928C90.9695 9.76082 92.4021 8.20751 93.6621 8.20285C93.9681 8.20172 94.3111 8.41645 94.4206 8.72204C94.4936 8.93778 94.6924 9.09904 94.9264 9.09818C95.2504 9.09698 95.4651 8.82618 95.4638 8.55618Z" fill="#C2000D"/>
<path d="M103.578 8.16303C103.646 7.71818 103.203 7.52082 102.738 7.46581C100.825 7.2394 99.04 9.0389 98.771 10.8005C98.5809 12.0461 99.3388 13.0416 100.59 13.1897C102.735 13.4436 104.645 11.6589 104.969 9.54142C105.229 7.83321 104.098 5.70661 104.272 4.56781C104.416 3.62473 105.384 2.88787 106.331 3.00001C107.171 3.09946 107.447 3.67559 108.752 3.83005C109.682 3.94008 110.306 3.30748 110.347 3.27613C110.435 3.17783 110.508 3.05962 110.524 2.95285C110.567 2.66815 110.373 2.39153 110.069 2.35556C109.604 2.30055 109.505 2.83225 108.915 2.76242C108.075 2.66297 107.799 2.08684 106.494 1.93238C104.939 1.74829 103.436 2.89279 103.2 4.44085C102.939 6.14906 104.07 8.27566 103.896 9.41447C103.649 11.0337 102.183 12.2913 100.753 12.122C100.038 12.0374 99.7349 11.6392 99.8436 10.9274C100.036 9.66408 101.449 8.40014 102.575 8.53344C102.664 8.54402 102.835 8.61856 102.96 8.63337C103.228 8.66511 103.529 8.48332 103.578 8.16303Z" fill="#C2000D"/>
<path d="M111.138 9.74121C110.969 9.67868 110.786 9.68737 110.615 9.79602C109.955 10.2206 109.434 10.8115 109.116 11.4774C108.449 12.8741 109.032 14.3138 110.484 14.8516C112.256 15.5082 114.488 14.7867 115.334 13.0164C115.963 11.7009 115.425 10.3737 114.058 9.86716C113.568 9.68581 112.284 9.42047 111.982 10.0539C111.85 10.33 112.002 10.6349 112.255 10.7287C112.357 10.7662 112.466 10.7875 112.581 10.7538C112.895 10.679 113.254 10.7166 113.592 10.8416C114.419 11.1481 114.702 11.8454 114.322 12.6412C113.771 13.7944 112.216 14.3461 110.95 13.8771C110.038 13.5394 109.71 12.7296 110.129 11.8526C110.354 11.3816 110.714 10.9606 111.195 10.6609C111.284 10.5984 111.365 10.5135 111.411 10.4161C111.528 10.1724 111.425 9.84752 111.138 9.74121Z" fill="#C2000D"/>
<path d="M129.773 19.7789C129.635 19.7377 129.495 19.752 129.353 19.8219C128.973 20.0082 128.751 20.0355 128.372 19.9222C127.509 19.6647 128.001 17.6389 128.659 15.6815C128.745 15.4076 128.605 15.1223 128.329 15.0399C128.088 14.9678 127.816 15.0739 127.68 15.2768C126.673 16.7928 125.207 18.6025 123.844 18.1955C123.051 17.9586 122.87 17.2303 123.284 16.1552C123.536 15.5002 123.657 15.2366 124.047 14.6227C124.06 14.5891 124.09 14.5606 124.103 14.527C124.2 14.2751 124.09 13.9613 123.78 13.8686C123.539 13.7965 123.26 13.9194 123.131 14.1056C122.213 15.4419 120.166 17.659 118.821 17.2572C118.131 17.0511 117.916 16.6122 118.174 15.9403C118.504 15.0836 118.907 14.4362 119.634 13.5481C119.671 13.5029 119.707 13.4577 119.727 13.4073C119.824 13.1553 119.714 12.8415 119.404 12.7488C119.179 12.6819 118.931 12.7764 118.785 12.9573C118.045 13.879 117.521 14.6402 117.139 15.6312C116.687 16.807 117.226 17.9044 118.433 18.265C119.744 18.6565 121.014 17.8558 121.971 17.018C121.923 17.9402 122.335 18.8685 123.456 19.2034C124.801 19.6051 125.994 18.8562 126.882 17.9977C126.694 19.0842 126.655 20.5334 127.983 20.9301C128.639 21.1258 129.236 21.0232 129.805 20.7437C129.948 20.6738 130.045 20.5717 130.096 20.4373C130.2 20.1686 130.049 19.8613 129.773 19.7789ZM131.305 8.7908C131.415 8.50524 131.258 8.21477 130.982 8.13235L130.947 8.12205C127.218 7.27036 126.886 7.28358 121.712 5.7383C121.436 5.65588 121.104 5.81893 121 6.08768C120.897 6.35644 121.047 6.66371 121.323 6.74613C126.498 8.29141 126.933 8.3091 130.628 9.15049C130.911 9.2161 131.208 9.04275 131.305 8.7908Z" fill="#C2000D"/>
<path d="M140.801 25.6384C140.368 25.4176 140.055 25.8606 139.526 25.5906C138.853 25.2471 139.702 23.3705 140.642 21.942C140.8 21.7014 140.714 21.3763 140.457 21.2454C140.201 21.1146 139.88 21.2119 139.719 21.3911C139.545 21.6235 137.153 24.3801 135.518 23.5458C134.684 23.1205 134.551 22.4103 135.125 21.5381C135.768 20.5606 136.018 20.5071 136.176 20.2665C136.324 20.0409 136.28 19.7172 135.992 19.57C135.799 19.4718 135.554 19.4871 135.345 19.6417C135.289 19.6937 134.796 20.0849 134.163 21.0473C133.352 22.2804 133.513 23.7283 134.924 24.4481C136.127 25.0615 137.372 24.6326 138.314 24.0483C138.057 24.8614 137.922 25.9776 138.933 26.4929C139.75 26.91 140.591 26.5758 140.669 26.5552C140.783 26.5128 140.9 26.432 140.969 26.3268C141.118 26.1012 141.058 25.7693 140.801 25.6384Z" fill="#C2000D"/>
<path d="M155.1 28.7332C154.901 28.6096 154.631 28.6314 154.435 28.7618C152.423 30.0989 149.878 30.9573 149.114 30.4819C148.778 30.2727 148.739 29.8067 149.404 28.9784C149.911 28.3466 150.62 27.7773 151.204 27.2777C151.226 27.2496 151.264 27.2311 151.287 27.203C151.456 26.9924 151.441 26.6677 151.166 26.4965C150.967 26.3729 150.698 26.3947 150.501 26.5251C148.452 27.8808 146.067 28.7967 145.486 28.4354C145.349 28.3498 145.195 28.1701 145.127 27.7697C145.103 27.6285 145.029 27.5198 144.907 27.4437C144.663 27.2916 144.291 27.355 144.111 27.5797C144.021 27.692 143.988 27.8188 144.012 27.9601C144.104 28.5017 144.337 28.983 144.81 29.2778C145.697 29.8293 146.932 29.461 148.082 28.998C147.664 29.748 147.506 30.7443 148.438 31.3243C149.416 31.9328 150.8 31.636 152.095 31.1364C151.601 32.0082 151.464 33.2069 152.565 33.8915C152.809 34.0436 153.181 33.9802 153.361 33.7556C153.542 33.5309 153.485 33.2013 153.241 33.0491C152.706 32.7163 152.729 31.9732 153.337 31.2151C153.968 30.4288 154.542 30.028 155.137 29.5144C155.16 29.4863 155.198 29.4677 155.22 29.4396C155.389 29.229 155.375 28.9043 155.1 28.7332Z" fill="#C2000D"/>
<path d="M162.58 33.634C162.879 33.0999 162.089 32.6403 161.61 32.4326C159.959 31.7163 157.803 32.6357 156.968 34.1281C156.257 35.4005 156.712 36.75 158.05 37.3302C158.958 37.7241 159.882 37.8709 161.291 37.6623C161.492 37.6325 161.638 37.5198 161.725 37.3627C161.875 37.0957 161.741 36.784 161.494 36.6765C161.395 36.6336 161.278 36.622 161.169 36.6333C159.894 36.822 159.32 36.7099 158.577 36.3876C157.768 36.0366 157.529 35.3276 157.959 34.5578C158.53 33.5367 160.092 32.9454 161.083 33.3752C161.38 33.5041 161.504 33.5771 161.633 33.7502C161.681 33.8102 161.755 33.8618 161.821 33.8904C162.069 33.9978 162.422 33.9168 162.58 33.634Z" fill="#C2000D"/>
<path d="M167.565 37.2183C167.849 36.7803 168.974 36.5248 169.537 36.8077C169.843 36.9613 169.912 37.2163 169.726 37.5033C169.393 38.0169 168.658 38.3283 168.121 38.499L168.041 38.4586C167.43 38.1514 167.262 37.6866 167.565 37.2183ZM164.482 39.6734C164.53 39.6977 164.562 39.7139 164.62 39.723C165.455 39.8823 166.921 39.858 168.039 39.5793C168.765 39.7435 169.524 39.6245 170.171 39.449L170.132 39.5094C169.113 41.0803 168.916 42.0425 168.899 42.1342C168.862 42.3558 168.997 42.5435 169.174 42.6324C169.463 42.7779 169.803 42.6483 169.95 42.4217C170.136 42.1347 170.059 41.5955 171.097 39.9944C171.704 39.0579 172.446 38.57 172.583 38.3586C172.73 38.132 172.71 37.8014 172.404 37.6478C172.227 37.5589 172.008 37.5687 171.83 37.6794C171.83 37.6794 171.253 38.0102 170.453 38.2893C170.538 38.1917 170.623 38.094 170.691 37.9883C171.19 37.218 170.945 36.3136 170.125 35.9014C169.079 35.376 167.296 35.6609 166.6 36.7334C166.14 37.4433 166.238 38.2134 166.693 38.7622C165.988 38.8288 165.327 38.7967 164.931 38.7176C164.682 38.6729 164.42 38.7815 164.293 38.9778C164.117 39.2497 164.24 39.5522 164.482 39.6734Z" fill="#C2000D"/>
<path d="M181.829 44.953C181.687 44.8414 181.509 44.7913 181.308 44.8378C180.534 45.0222 179.838 45.405 179.311 45.9218C178.206 47.0058 178.287 48.5269 179.501 49.4869C180.984 50.659 183.366 50.6985 184.767 49.3246C185.808 48.3036 185.733 46.9014 184.589 45.9972C184.18 45.6735 183.036 45.0196 182.535 45.5111C182.316 45.7254 182.361 46.0567 182.573 46.2242C182.657 46.2911 182.755 46.3455 182.877 46.3509C183.203 46.3811 183.536 46.5302 183.818 46.7534C184.51 47.3004 184.549 48.0372 183.92 48.6548C183.007 49.5497 181.331 49.5678 180.272 48.7306C179.51 48.1278 179.464 47.2722 180.158 46.5916C180.531 46.2261 181.016 45.9498 181.578 45.8245C181.684 45.7949 181.79 45.7416 181.867 45.666C182.059 45.4769 182.069 45.1428 181.829 44.953Z" fill="#C2000D"/>
<path d="M187.8 57.4433C187.723 57.4902 187.654 57.5749 187.615 57.6407C187.571 57.7301 187.074 58.8308 188.022 60.0318C188.702 60.8937 190.389 61.9354 191.955 60.9771C192.784 60.4697 193.084 59.6371 192.695 58.8272C193.162 58.8136 193.605 58.7105 194.05 58.4381C195.125 57.7804 195.092 56.585 194.4 55.709C194.01 55.2144 193.005 54.2581 192.375 54.6433C192.114 54.803 192.082 55.1371 192.249 55.3491C192.316 55.4339 192.414 55.4998 192.516 55.5423C192.837 55.6603 193.201 55.9195 193.479 56.2727C193.903 56.8097 193.841 57.3084 193.381 57.5903C192.644 58.0413 191.568 57.6307 191.467 57.5883C191.327 57.527 191.08 57.5314 190.896 57.6442C190.635 57.8039 190.618 58.1286 190.785 58.3405C190.986 58.5949 191.139 58.5009 191.496 58.953C191.887 59.4476 191.824 59.8005 191.286 60.1293C190.488 60.6179 189.467 60.1321 188.943 59.468C188.385 58.7615 188.627 58.1736 188.675 58.0607C188.726 57.9242 188.696 57.7124 188.584 57.5712C188.383 57.3168 188.031 57.3023 187.8 57.4433Z" fill="#C2000D"/>
<path d="M190.395 67.4149C190.945 67.0082 192.151 66.694 193.461 66.592C193.198 67.1192 192.816 67.624 192.237 68.0521C191.586 68.5337 190.731 68.5436 190.334 68.1267C190.098 67.8792 190.12 67.6182 190.395 67.4149ZM199.66 63.6734C199.762 63.5985 199.826 63.4845 199.85 63.3551C199.943 62.7535 199.721 62.1845 199.286 61.7286C198.218 60.6084 196.497 60.4596 195.252 61.38C193.848 62.4182 194.088 64.1959 193.795 65.5452C192.229 65.637 190.62 65.9163 189.65 66.6333C188.912 67.1791 188.832 68.1045 189.465 68.7689C190.434 69.7849 192.042 69.5293 192.982 68.8337C193.894 68.1595 194.398 67.3424 194.698 66.5435C195.362 66.5412 195.995 66.5839 196.516 66.6648C196.69 66.6918 196.857 66.6345 196.973 66.5489C197.219 66.367 197.233 66.0455 197.035 65.8371C196.948 65.7459 196.832 65.6761 196.685 65.6515C196.164 65.5705 195.57 65.5432 194.962 65.5265C195.011 65.2678 195.034 65.0068 195.054 64.7695C195.159 63.5593 195.361 62.6325 195.997 62.1616C196.779 61.5837 197.747 61.6673 198.418 62.3708C198.679 62.6443 198.764 62.9146 198.725 63.2101C198.713 63.3524 198.754 63.4994 198.853 63.6037C199.065 63.8251 199.429 63.8446 199.66 63.6734Z" fill="#C2000D"/>
<path d="M202.774 66.3674C202.652 66.2348 202.484 66.1573 202.279 66.1718C201.485 66.2325 200.738 66.5017 200.137 66.93C198.876 67.8282 198.718 69.345 199.765 70.4848C201.044 71.8765 203.388 72.2897 204.986 71.1512C206.174 70.3051 206.32 68.9069 205.333 67.8333C204.98 67.4489 203.954 66.6228 203.383 67.0301C203.133 67.2077 203.125 67.5423 203.308 67.7411C203.381 67.8206 203.469 67.8897 203.588 67.9142C203.906 67.9953 204.21 68.1949 204.454 68.46C205.051 69.1095 204.974 69.8441 204.255 70.3559C203.215 71.0975 201.558 70.8522 200.645 69.8581C199.987 69.1424 200.076 68.2892 200.868 67.7252C201.293 67.4223 201.816 67.2255 202.389 67.1897C202.499 67.1772 202.611 67.141 202.699 67.0784C202.919 66.9217 202.981 66.5927 202.774 66.3674Z" fill="#C2000D"/>
<path d="M206.889 77.3873C206.416 77.716 206.791 78.3478 207.259 78.8705C208.389 80.1305 210.301 79.8021 211.454 79.0008C212.636 78.179 213.23 76.7004 212.137 75.4806C210.96 74.167 208.654 74.1376 205.341 75.4183C206.424 74.5129 207.052 73.9024 207.368 73.2913C207.456 73.1215 207.427 72.9022 207.295 72.7547C207.079 72.5135 206.713 72.5067 206.491 72.6608C206.432 72.7019 206.37 72.7666 206.335 72.8345C205.914 73.6493 203.868 75.3541 199.433 78.4359C199.241 78.5694 199.134 78.9049 199.35 79.1462C199.531 79.3472 199.876 79.4116 200.125 79.2607C207.225 74.9786 210.337 75.0783 211.25 76.097C211.839 76.7538 211.62 77.5802 210.733 78.1966C209.817 78.8334 208.699 78.8708 208.146 78.2542C207.774 77.8387 207.921 77.7359 207.693 77.4813C207.513 77.2802 207.155 77.2024 206.889 77.3873Z" fill="#C2000D"/>
<path d="M215.501 80.3634C215.37 80.24 215.197 80.1745 214.993 80.2033C214.205 80.3194 213.478 80.6399 212.908 81.1086C211.712 82.0917 211.661 83.6137 212.787 84.6758C214.162 85.9725 216.532 86.2198 218.048 84.9737C219.174 84.0478 219.222 82.6447 218.161 81.6443C217.781 81.2862 216.698 80.5351 216.156 80.9809C215.92 81.1753 215.935 81.5091 216.132 81.6944C216.21 81.7685 216.303 81.8311 216.424 81.8472C216.746 81.9057 217.065 82.0832 217.327 82.3302C217.968 82.9354 217.943 83.6726 217.262 84.2328C216.275 85.0444 214.603 84.9161 213.621 83.9899C212.914 83.323 212.943 82.4669 213.694 81.8496C214.097 81.5181 214.605 81.2853 215.175 81.2095C215.284 81.1894 215.394 81.1455 215.477 81.0769C215.686 80.9054 215.724 80.5734 215.501 80.3634Z" fill="#C2000D"/>
<path d="M222.38 88.3881C222.551 88.5483 222.82 88.5808 223.039 88.4927C223.354 88.3719 223.77 88.4687 223.993 88.6782C224.386 89.0481 224.343 89.5466 223.816 89.9819C222.844 90.7838 220.605 90.6401 219.634 89.7278C219.228 89.3457 219.168 88.2605 221.084 86.6797C224.958 83.4837 226.843 83.2708 227.263 83.6653C227.486 83.8748 227.51 84.3875 226.955 84.8457C226.135 85.5215 225.639 85.3984 225.612 85.3975C225.398 85.343 225.18 85.3836 225.042 85.4981C224.792 85.7043 224.822 86.0267 225.018 86.2116C225.071 86.2609 225.15 86.3111 225.231 86.3375C225.404 86.4026 226.464 86.6392 227.742 85.5853C228.575 84.898 228.922 83.7546 228.096 82.978C226.68 81.6466 223.921 82.9503 220.297 85.9401C218.326 87.5667 217.634 89.318 218.801 90.4152C220.192 91.7218 223.075 91.9816 224.603 90.7215C225.463 90.0113 225.744 88.8538 224.826 87.9909C224.262 87.4609 223.335 87.2762 222.555 87.5962C222.5 87.6182 222.445 87.6403 222.403 87.6746C222.195 87.8464 222.144 88.1662 222.38 88.3881Z" fill="#C2000D"/>
<path d="M227.39 96.7417C226.461 96.0014 226.394 94.9205 227.159 94.0009C227.753 94.2455 228.405 94.5826 228.926 94.9976C229.686 95.6033 229.871 96.321 229.419 96.7603C228.89 97.275 228.052 97.2689 227.39 96.7417ZM226.085 93.6014C225.187 94.8492 225.293 96.4405 226.616 97.4949C227.644 98.3138 229.245 98.4251 230.264 97.4334C231.36 96.3663 230.629 94.9847 229.7 94.2444C229.179 93.8294 228.568 93.5022 228.014 93.2437C228.995 92.5636 229.931 92.3505 229.985 92.3478C230.091 92.3187 230.197 92.2658 230.274 92.1905C230.468 92.0022 230.493 91.6793 230.253 91.4886C230.112 91.3764 229.921 91.3382 229.746 91.3588C229.626 91.3767 228.221 91.6727 226.882 92.7755C226.167 92.525 225.804 92.3047 225.43 92.6687C225.198 92.8947 225.254 93.2136 225.466 93.3818C225.691 93.5613 225.7 93.4775 226.085 93.6014Z" fill="#C2000D"/>
<path d="M233.254 102.57C233.858 103.054 234.469 103.382 235.55 103.652C235.755 103.702 235.995 103.643 236.138 103.505C236.37 103.28 236.314 102.961 236.104 102.792C236.047 102.747 235.964 102.703 235.882 102.683C234.911 102.456 234.549 102.235 234.029 101.819C233.804 101.639 233.646 101.444 233.542 101.246C234.768 101.724 236.522 101.64 237.491 100.701C238.215 99.9993 238.166 98.9534 237.378 98.3237C236.128 97.3229 234.288 97.589 233.202 98.6413C231.974 99.8314 231.904 101.491 233.254 102.57ZM236.648 100.026C236.002 100.653 234.299 100.662 233.526 100.044C233.622 99.8007 233.8 99.554 234.045 99.316C234.769 98.6145 235.886 98.5018 236.603 99.0753C236.94 99.3452 236.958 99.7255 236.648 100.026Z" fill="#C2000D"/>
<path d="M246.584 108.352C246.603 108.321 246.632 108.276 246.635 108.237C246.86 107.55 247.062 106.932 247.709 105.914C248.539 104.607 250.141 103.322 250.835 103.664C251.142 103.815 251.213 104.07 251.03 104.359C250.566 105.088 249.792 105.305 249.097 106.399C248.556 107.249 248.919 108.046 249.542 108.433C251.125 109.413 251.177 109.798 250.975 110.117C250.482 110.892 248.362 111.024 247.168 110.435C246.893 110.3 246.677 110.073 246.579 109.726C246.54 109.587 246.456 109.486 246.327 109.422C246.069 109.295 245.708 109.396 245.553 109.639C245.476 109.761 245.457 109.891 245.496 110.03C245.658 110.609 246.055 111.084 246.588 111.346C247.977 112.031 250.891 112.25 251.943 110.594C252.706 109.394 251.672 108.486 250.219 107.57C249.931 107.388 249.834 107.241 250.066 106.876C250.529 106.147 251.303 105.93 251.999 104.836C252.491 104.061 252.238 103.159 251.415 102.753C249.526 101.822 247.455 104.312 246.74 105.436C246.035 106.545 245.788 107.301 245.563 107.988C245.486 108.21 245.6 108.465 245.81 108.569C246.1 108.712 246.439 108.579 246.584 108.352Z" fill="#C2000D"/>
<path d="M260.511 112.181C260.536 112.133 260.544 112.078 260.551 112.023C260.668 111.241 260.209 110.521 259.489 110.237C257.647 109.511 255.043 110.681 254.178 112.382C253.722 113.28 253.867 114.378 254.956 114.807C256.028 115.229 257.31 115.118 258.581 114.675C258.461 115.148 258.255 116.107 258.808 116.324C259.092 116.437 259.432 116.282 259.555 116.041C259.604 115.945 259.619 115.835 259.61 115.735C259.529 115.261 259.656 114.656 260.031 113.917C260.145 113.693 260.058 113.35 259.773 113.238C259.622 113.179 259.456 113.19 259.298 113.263C257.765 114.026 256.4 114.22 255.445 113.844C255.027 113.679 254.906 113.323 255.183 112.778C255.787 111.59 257.828 110.738 259 111.2C259.285 111.312 259.505 111.63 259.467 111.942C259.436 112.161 259.547 112.378 259.764 112.464C260.066 112.583 260.389 112.421 260.511 112.181Z" fill="#C2000D"/>
<path d="M274.777 120.264C274.639 120.221 274.499 120.233 274.355 120.301C273.972 120.481 273.749 120.505 273.372 120.387C272.513 120.117 273.04 118.101 273.732 116.155C273.824 115.883 273.688 115.596 273.414 115.51C273.173 115.434 272.899 115.536 272.76 115.737C271.726 117.236 270.227 119.022 268.871 118.595C268.081 118.347 267.912 117.617 268.345 116.549C268.609 115.898 268.735 115.637 269.136 115.03C269.149 114.996 269.18 114.968 269.194 114.935C269.295 114.685 269.191 114.37 268.881 114.273C268.641 114.197 268.361 114.316 268.228 114.5C267.286 115.821 265.199 118.005 263.86 117.583C263.173 117.367 262.965 116.926 263.236 116.259C263.581 115.408 263.995 114.767 264.738 113.891C264.776 113.846 264.813 113.802 264.833 113.752C264.935 113.502 264.83 113.187 264.521 113.089C264.298 113.019 264.048 113.11 263.898 113.288C263.142 114.198 262.605 114.95 262.205 115.935C261.732 117.102 262.252 118.206 263.454 118.584C264.759 118.995 266.044 118.214 267.016 117.391C266.953 118.312 267.349 119.245 268.465 119.596C269.804 120.017 271.01 119.287 271.914 118.442C271.708 119.525 271.644 120.972 272.966 121.387C273.618 121.593 274.218 121.499 274.792 121.228C274.936 121.161 275.035 121.06 275.089 120.927C275.197 120.66 275.051 120.351 274.777 120.264Z" fill="#C2000D"/>
<path d="M287.233 123.306C286.756 123.211 286.604 123.731 286.022 123.615C285.28 123.468 285.476 121.399 285.9 119.743C285.971 119.464 285.787 119.171 285.504 119.114C285.222 119.058 284.952 119.243 284.859 119.463C284.769 119.738 283.409 123.096 281.608 122.738C280.69 122.556 280.338 121.9 280.597 120.889C280.887 119.755 281.104 119.633 281.176 119.354C281.243 119.093 281.098 118.789 280.78 118.726C280.568 118.684 280.343 118.767 280.196 118.977C280.161 119.043 279.824 119.562 279.538 120.678C279.172 122.108 279.786 123.476 281.34 123.785C282.664 124.048 283.695 123.281 284.391 122.448C284.41 123.313 284.641 124.44 285.754 124.661C286.654 124.84 287.336 124.279 287.402 124.237C287.495 124.164 287.579 124.053 287.611 123.93C287.678 123.669 287.515 123.362 287.233 123.306Z" fill="#C2000D"/>
<path d="M293.138 124.531C293.236 123.89 294.031 123.205 295.376 122.621C295.387 122.786 295.375 122.984 295.348 123.162C295.175 124.3 294.361 125.219 293.593 125.128C293.253 125.088 293.086 124.869 293.138 124.531ZM292.678 121.578C292.803 121.593 292.934 121.572 293.055 121.496C293.44 121.233 293.814 121.169 294.19 121.213C294.565 121.258 294.817 121.396 295.002 121.617C293.601 122.212 292.269 123.069 292.065 124.404C291.927 125.311 292.518 126.088 293.43 126.196C294.359 126.305 295.128 125.799 295.625 125.169C295.966 125.916 296.675 126.398 297.568 126.504C298.552 126.62 299.463 126.492 300.703 125.878C300.88 125.79 300.976 125.639 301.003 125.461C301.049 125.158 300.816 124.895 300.548 124.863C300.441 124.851 300.328 124.874 300.231 124.916C299.109 125.472 298.536 125.531 297.731 125.436C296.855 125.332 296.385 124.715 296.518 123.843C296.602 123.292 296.995 122.505 298.125 121.896C298.364 121.761 298.618 121.646 298.926 121.538C299.101 121.468 299.273 121.289 299.306 121.075C299.355 120.755 299.117 120.528 298.848 120.496C298.795 120.49 298.721 120.499 298.664 120.51C297.834 120.702 296.927 120.921 296.063 121.217C295.713 120.651 295.121 120.236 294.352 120.145C293.763 120.076 293.092 120.178 292.464 120.593C292.323 120.684 292.245 120.838 292.223 120.981C292.177 121.283 292.392 121.544 292.678 121.578Z" fill="#C2000D"/>
<path d="M312.431 126.339C312.429 125.943 313.146 125.167 314.386 124.443C314.386 124.533 314.404 124.623 314.405 124.713C314.409 125.865 313.747 126.875 312.973 126.878C312.631 126.879 312.432 126.681 312.431 126.339ZM311.52 123.462C311.646 123.461 311.772 123.425 311.879 123.335C312.22 123.028 312.58 122.919 312.958 122.918C313.426 122.916 313.75 123.095 314.004 123.418C312.746 124.124 311.346 125.064 311.351 126.342C311.354 127.26 312.059 127.96 312.977 127.958C314.723 127.952 315.49 126.078 315.485 124.71C315.484 124.44 315.447 124.17 315.392 123.918C315.913 123.647 316.47 123.393 316.901 123.194C316.871 124.904 316.698 126.722 316.592 127.065C316.574 127.119 316.574 127.173 316.574 127.227C316.575 127.497 316.774 127.766 317.098 127.765C317.332 127.765 317.548 127.602 317.619 127.422C317.708 127.169 318.692 125.493 320.145 124.282C320.02 124.625 319.985 124.931 319.987 125.237C319.992 126.695 321.058 127.754 322.516 127.749C323.506 127.746 324.387 127.51 325.519 126.75C325.68 126.642 325.751 126.48 325.751 126.3C325.75 125.994 325.479 125.76 325.209 125.761C325.101 125.762 324.993 125.798 324.903 125.852C323.88 126.539 323.322 126.667 322.512 126.669C321.63 126.672 321.07 126.115 321.067 125.233C321.064 124.585 321.403 123.684 323.091 122.833C323.235 122.761 323.396 122.545 323.396 122.329C323.394 122.023 323.124 121.807 322.854 121.808L322.764 121.808C320.641 122.175 318.991 123.728 317.916 125.027C317.967 124.217 317.999 123.245 317.996 122.363C317.994 122.039 317.724 121.823 317.454 121.824C317.382 121.824 317.31 121.843 317.238 121.879C316.699 122.114 315.836 122.477 314.974 122.912C314.539 122.265 313.836 121.835 312.954 121.838C312.36 121.839 311.712 122.021 311.156 122.509C311.031 122.617 310.977 122.779 310.978 122.923C310.979 123.229 311.232 123.463 311.52 123.462Z" fill="#C2000D"/>
<path d="M338.814 125.276C338.329 125.313 338.364 125.852 337.772 125.897C337.018 125.955 336.492 123.919 336.324 122.218C336.295 121.931 336.019 121.7 335.732 121.721C335.445 121.743 335.253 121.993 335.24 122.228C335.25 122.516 335.116 126.1 333.285 126.24C332.352 126.312 331.793 125.777 331.69 124.738C331.575 123.574 331.739 123.399 331.71 123.112C331.684 122.844 331.442 122.591 331.119 122.616C330.904 122.633 330.719 122.773 330.652 123.013C330.641 123.086 330.5 123.674 330.613 124.821C330.758 126.29 331.812 127.436 333.391 127.315C334.737 127.212 335.451 126.201 335.824 125.216C336.141 126.04 336.747 127.058 337.878 126.972C338.793 126.902 339.247 126.181 339.295 126.123C339.358 126.028 339.4 125.899 339.387 125.773C339.361 125.505 339.101 125.254 338.814 125.276Z" fill="#C2000D"/>
<path d="M345.902 122.162C346.134 122.133 346.305 121.949 346.343 121.727C346.403 121.412 346.709 121.157 347.012 121.12C347.548 121.054 347.967 121.402 348.074 122.078C348.27 123.322 346.957 124.932 345.635 125.094C345.081 125.161 344.088 124.521 343.702 122.068C342.921 117.107 343.73 115.54 344.302 115.47C344.606 115.433 345.073 115.739 345.185 116.45C345.35 117.499 344.978 117.798 344.963 117.818C344.801 117.946 344.722 118.137 344.75 118.315C344.8 118.635 345.102 118.816 345.37 118.783C345.441 118.774 345.528 118.746 345.594 118.701C345.743 118.611 346.514 117.955 346.257 116.319C346.089 115.252 345.26 114.266 344.134 114.403C342.204 114.639 341.899 117.558 342.63 122.199C343.027 124.723 344.213 126.355 345.803 126.161C347.697 125.929 349.454 123.903 349.146 121.947C348.972 120.844 348.095 119.9 346.844 120.053C346.076 120.147 345.422 120.734 345.292 121.529C345.283 121.585 345.273 121.64 345.282 121.694C345.324 121.96 345.58 122.201 345.902 122.162Z" fill="#C2000D"/>
<path d="M352.662 120.056C352.486 120.096 352.349 120.201 352.289 120.381C352.064 121.077 352.062 121.833 352.27 122.541C352.708 124.026 354.156 124.875 355.666 124.53C357.508 124.109 358.763 122.329 358.208 120.447C357.796 119.049 356.461 118.267 355.039 118.592C354.531 118.708 353.341 119.182 353.539 119.856C353.626 120.149 353.955 120.314 354.218 120.253C354.323 120.229 354.424 120.188 354.491 120.099C354.686 119.87 354.994 119.708 355.345 119.628C356.205 119.431 356.906 119.842 357.156 120.688C357.517 121.914 356.676 123.193 355.36 123.494C354.413 123.71 353.598 123.233 353.323 122.301C353.176 121.8 353.168 121.267 353.339 120.768C353.367 120.669 353.371 120.558 353.341 120.454C353.264 120.195 352.96 119.988 352.662 120.056Z" fill="#C2000D"/>
<path d="M374.143 117.293C374.006 117.335 373.905 117.422 373.841 117.554C373.67 117.906 373.514 118.047 373.135 118.162C372.273 118.423 371.254 116.558 370.413 114.656C370.291 114.393 369.982 114.243 369.706 114.327C369.465 114.4 369.324 114.631 369.357 114.864C369.615 116.605 369.714 118.826 368.353 119.239C367.561 119.479 366.911 119.001 366.491 117.929C366.235 117.275 366.147 117.002 366.029 116.306C366.016 116.273 366.02 116.234 366.007 116.2C365.909 115.949 365.603 115.76 365.293 115.854C365.052 115.928 364.918 116.175 364.945 116.391C365.148 117.943 365.071 120.798 363.727 121.206C363.038 121.415 362.563 121.184 362.3 120.514C361.965 119.659 361.834 118.93 361.791 117.836C361.789 117.781 361.786 117.725 361.767 117.675C361.668 117.424 361.363 117.235 361.053 117.329C360.829 117.397 360.699 117.606 360.709 117.828C360.765 118.955 360.879 119.839 361.267 120.828C361.726 122.001 362.915 122.577 364.121 122.211C365.43 121.814 365.878 120.497 366.052 119.318C366.656 120.073 367.627 120.584 368.747 120.244C370.09 119.836 370.513 118.602 370.618 117.445C371.225 118.404 372.202 119.57 373.528 119.168C374.183 118.969 374.584 118.566 374.84 118.038C374.904 117.906 374.909 117.773 374.857 117.639C374.752 117.371 374.419 117.209 374.143 117.293ZM367.715 107.784C367.603 107.5 367.277 107.355 367.001 107.439L366.967 107.449C363.424 108.787 363.171 108.976 358.004 110.545C357.728 110.629 357.579 110.937 357.684 111.205C357.789 111.473 358.122 111.635 358.398 111.551C363.565 109.982 363.922 109.761 367.429 108.434C367.698 108.333 367.813 108.036 367.715 107.784Z" fill="#C2000D"/>
<path d="M378.88 112.663C378.647 112.685 378.451 112.866 378.407 113.105C378.321 113.746 378.325 114.83 378.44 115.777C378.591 117.028 378.68 117.471 378.932 118.351C379 118.616 379.272 118.771 379.523 118.748C379.846 118.718 380.028 118.429 379.996 118.161C379.901 117.375 379.699 117.051 379.578 116.194C380.608 116.026 381.636 115.677 382.331 114.979L382.382 115.408C382.503 116.409 382.867 118.073 384.498 117.921C385.054 117.869 385.503 117.538 385.866 117.088C385.96 116.971 385.999 116.841 385.982 116.698C385.947 116.412 385.666 116.185 385.379 116.212C385.236 116.225 385.117 116.291 385.022 116.408C384.754 116.74 384.53 116.833 384.369 116.849C383.849 116.897 383.596 116.451 383.458 115.307L383.177 112.984C383.147 112.734 382.898 112.468 382.575 112.498C382.324 112.522 382.131 112.721 382.107 112.976C382.005 114.232 380.941 114.874 379.466 115.121C379.416 114.402 379.435 113.66 379.481 113.294C379.493 113.239 379.486 113.185 379.482 113.149C379.45 112.881 379.202 112.633 378.88 112.663Z" fill="#C2000D"/>
<path d="M393.915 114.587C393.928 114.785 393.903 114.966 393.877 115.13C393.685 115.229 393.475 115.329 393.241 115.34C392.665 115.368 392.322 115.061 392.286 114.486C392.262 114.108 392.583 113.751 392.96 113.732C393.536 113.705 393.879 114.012 393.915 114.587ZM397.332 111.539C397.152 111.548 396.978 111.646 396.897 111.794C396.898 111.812 396.012 113.224 394.959 114.266C394.771 113.266 393.918 112.605 392.893 112.654C391.904 112.702 391.146 113.55 391.207 114.538C391.27 115.544 391.985 116.32 392.965 116.417C392.703 116.556 392.402 116.642 392.061 116.659C390.766 116.721 389.843 115.793 389.758 114.428C389.677 113.134 390.101 112.123 390.395 111.64C390.444 111.547 390.473 111.438 390.466 111.33C390.449 111.061 390.199 110.802 389.893 110.817C389.713 110.826 389.556 110.906 389.458 111.073C389.101 111.702 388.58 112.899 388.679 114.48C388.795 116.348 390.186 117.831 392.128 117.737C393.404 117.675 394.437 116.886 394.822 115.823C395.513 115.339 396.086 114.698 396.605 114.061C396.596 114.205 396.611 114.439 396.623 114.636C396.702 115.894 397.442 117.066 398.859 117.231L398.949 117.227C399.218 117.214 399.475 116.985 399.454 116.662C399.439 116.41 399.243 116.168 398.971 116.145C398.208 116.055 397.758 115.483 397.702 114.584C397.639 113.578 397.797 112.922 397.894 112.16C397.891 112.125 397.907 112.088 397.905 112.052C397.888 111.782 397.655 111.523 397.332 111.539Z" fill="#C2000D"/>
<path d="M404.811 115.496C404.742 114.852 405.341 114.026 406.5 113.189C406.553 113.347 406.592 113.542 406.611 113.721C406.735 114.867 406.179 115.924 405.407 115.989C405.067 116.017 404.848 115.837 404.811 115.496ZM403.607 112.708C403.732 112.697 403.854 112.651 403.952 112.553C404.26 112.22 404.607 112.083 404.984 112.051C405.361 112.02 405.641 112.105 405.878 112.284C404.667 113.143 403.591 114.244 403.735 115.586C403.833 116.499 404.608 117.139 405.523 117.062C406.456 116.985 407.074 116.337 407.395 115.624C407.919 116.285 408.732 116.614 409.629 116.539C410.616 116.457 411.47 116.151 412.519 115.305C412.669 115.185 412.723 115.018 412.704 114.839C412.671 114.534 412.377 114.324 412.108 114.347C412.001 114.355 411.897 114.4 411.813 114.461C410.864 115.227 410.321 115.398 409.514 115.466C408.635 115.539 408.019 115.03 407.925 114.154C407.865 113.599 408.046 112.753 408.989 111.934C409.187 111.755 409.405 111.592 409.677 111.425C409.829 111.322 409.951 111.114 409.928 110.899C409.893 110.577 409.603 110.402 409.334 110.425C409.28 110.429 409.21 110.453 409.158 110.475C408.4 110.827 407.573 111.221 406.809 111.682C406.322 111.199 405.64 110.913 404.869 110.977C404.277 111.027 403.65 111.26 403.146 111.789C403.032 111.907 402.996 112.073 403.011 112.216C403.044 112.52 403.32 112.732 403.607 112.708Z" fill="#C2000D"/>
</svg>
