<svg width="274" height="205" viewBox="0 0 274 205" fill="none" xmlns="http://www.w3.org/2000/svg">
<path d="M100.806 64.286C100.8 64.2586 100.792 64.2174 100.773 64.1937C100.528 63.6824 100.308 63.2223 100.124 62.3025C99.8877 61.1219 100.101 59.5543 100.68 59.3918C100.936 59.3199 101.115 59.4293 101.167 59.6902C101.299 60.3491 100.977 60.8744 101.175 61.8627C101.329 62.6315 101.967 62.902 102.53 62.8019C103.96 62.546 104.198 62.7402 104.256 63.0284C104.396 63.7286 103.264 64.9015 102.266 65.1812C102.037 65.2455 101.792 65.2274 101.548 65.0782C101.451 65.0185 101.348 65.0038 101.24 65.0341C101.025 65.0946 100.874 65.3397 100.918 65.5593C100.94 65.6692 101 65.7539 101.097 65.8136C101.503 66.0623 101.986 66.1297 102.431 66.0049C103.59 65.6797 105.364 64.2979 105.064 62.8016C104.847 61.7171 103.768 61.7299 102.446 61.9556C102.185 62 102.05 61.9654 101.984 61.6359C101.852 60.977 102.174 60.4517 101.976 59.4633C101.836 58.7632 101.203 58.3753 100.515 58.5681C98.9383 59.0105 99.1119 61.5135 99.3153 62.5294C99.5159 63.5315 99.785 64.0939 100.03 64.6052C100.106 64.7723 100.309 64.8604 100.484 64.8113C100.726 64.7432 100.847 64.492 100.806 64.286Z" fill="#C2000D"/>
<path d="M109.348 58.9388C109.292 58.4661 108.582 58.5232 108.184 58.6031C106.811 58.8787 105.869 60.4199 106.026 61.7407C106.159 62.8668 107.066 63.5245 108.178 63.3013C108.933 63.1498 109.584 62.834 110.38 62.0765C110.493 61.9683 110.533 61.8321 110.517 61.6931C110.489 61.4567 110.262 61.3173 110.056 61.3587C109.973 61.3752 109.894 61.4195 109.831 61.475C109.111 62.1604 108.697 62.3431 108.079 62.4671C107.406 62.6022 106.93 62.2566 106.849 61.5754C106.742 60.6717 107.459 59.6027 108.282 59.4373C108.529 59.3877 108.641 59.3796 108.802 59.4327C108.86 59.4495 108.93 59.4496 108.985 59.4386C109.191 59.3972 109.377 59.1891 109.348 58.9388Z" fill="#C2000D"/>
<path d="M112.906 61.3727C113.503 61.2985 114.013 61.1367 114.734 60.6816C114.87 60.5944 114.96 60.4285 114.954 60.2747C114.943 60.0229 114.727 59.8809 114.519 59.9068C114.463 59.9137 114.394 59.9363 114.34 59.9712C113.701 60.388 113.384 60.4696 112.87 60.5334C112.647 60.5611 112.451 60.5432 112.281 60.494C113.199 60.0707 114.063 59.0494 114.017 58.0004C113.983 57.2171 113.345 56.6776 112.567 56.7742C111.331 56.9278 110.529 58.096 110.58 59.2709C110.638 60.5997 111.572 61.5383 112.906 61.3727ZM113.184 58.1039C113.214 58.8033 112.333 59.7563 111.569 59.8512C111.477 59.6658 111.425 59.4332 111.414 59.1674C111.38 58.3841 111.895 57.7014 112.604 57.6134C112.937 57.572 113.169 57.7682 113.184 58.1039Z" fill="#C2000D"/>
<path d="M127.932 59.2029C127.986 58.6736 128.436 57.8331 129.062 57.053C129.228 57.4901 129.319 57.9812 129.262 58.5384C129.199 59.1652 128.758 59.6427 128.31 59.6314C128.044 59.6246 127.906 59.4675 127.932 59.2029ZM130.624 52.0094C130.634 51.9119 130.601 51.8134 130.54 51.728C130.242 51.3434 129.799 51.1506 129.309 51.1382C128.105 51.1077 127.119 51.9764 126.998 53.1743C126.862 54.5254 128.01 55.3785 128.634 56.2881C127.868 57.2043 127.187 58.2483 127.093 59.1816C127.021 59.8919 127.512 60.449 128.226 60.4671C129.317 60.4948 130.011 59.465 130.102 58.5597C130.191 57.6821 129.984 56.9507 129.681 56.3425C130.027 55.9743 130.382 55.6481 130.702 55.4049C130.808 55.3238 130.863 55.1995 130.874 55.088C130.898 54.8512 130.72 54.6652 130.496 54.6595C130.398 54.657 130.298 54.6824 130.207 54.7499C129.887 54.9932 129.561 55.3061 129.233 55.6329C129.11 55.4623 128.972 55.3051 128.846 55.1623C128.204 54.4338 127.776 53.8085 127.838 53.1956C127.914 52.4434 128.468 51.9548 129.224 51.9739C129.518 51.9814 129.718 52.0842 129.868 52.2696C129.943 52.3553 130.05 52.4138 130.162 52.4167C130.4 52.4227 130.601 52.2323 130.624 52.0094Z" fill="#C2000D"/>
<path d="M135.346 48.8603C135.166 48.8908 135.027 49.042 134.988 49.2185C134.582 51.0864 133.741 52.9573 133.23 53.044C133.106 53.0651 132.921 53.0398 132.663 52.8428C132.572 52.7732 132.472 52.7478 132.361 52.7666C132.14 52.8041 131.966 53.0319 131.988 53.2549C131.999 53.3663 132.05 53.4568 132.141 53.5264C132.49 53.7929 132.885 53.9526 133.313 53.88C134.141 53.7394 134.64 52.8189 135.014 51.9196C135.251 52.616 135.825 53.1702 136.681 53.1666L136.75 53.1549C136.957 53.1197 137.147 52.9174 137.123 52.6666C137.103 52.4715 136.946 52.2999 136.736 52.3072C136.147 52.308 135.785 51.9021 135.716 51.2055C135.64 50.4253 135.742 49.8979 135.795 49.294C135.792 49.2661 135.803 49.2359 135.801 49.208C135.78 48.999 135.594 48.8181 135.346 48.8603Z" fill="#C2000D"/>
<path d="M139.242 49.9868C139.219 49.5814 139.813 48.9337 140.299 48.8756C140.563 48.8441 140.725 48.9796 140.74 49.2452C140.766 49.7204 140.445 50.2372 140.184 50.5779L140.115 50.5862C139.587 50.6492 139.266 50.4201 139.242 49.9868ZM138.425 52.8986C138.466 52.8936 138.494 52.8903 138.535 52.8714C139.137 52.6166 140.052 51.9726 140.631 51.3126C141.166 51.1081 141.591 50.7055 141.919 50.3146L141.922 50.3705C142.003 51.8242 142.323 52.5319 142.354 52.5985C142.433 52.7579 142.605 52.8219 142.757 52.8036C143.008 52.7738 143.163 52.5442 143.151 52.3345C143.136 52.0689 142.839 51.7526 142.756 50.271C142.708 49.4043 142.952 48.7701 142.941 48.5744C142.93 48.3647 142.764 48.1593 142.5 48.1908C142.347 48.2091 142.213 48.3095 142.151 48.4576C142.151 48.4576 141.939 48.9191 141.562 49.4425C141.571 49.343 141.579 49.2435 141.574 49.1456C141.534 48.4327 140.961 47.9523 140.253 48.0369C139.349 48.1448 138.352 49.0939 138.408 50.0864C138.444 50.7433 138.862 51.2001 139.402 51.3607C138.988 51.7057 138.555 51.9685 138.267 52.0872C138.09 52.1646 137.974 52.3473 137.984 52.529C137.998 52.7806 138.216 52.9235 138.425 52.8986Z" fill="#C2000D"/>
<path d="M157.721 47.7254C157.802 47.2562 157.107 47.0849 156.704 47.0346C155.315 46.8611 153.98 48.0333 153.756 49.3443C153.564 50.4621 154.245 51.3786 155.37 51.5191C156.134 51.6145 156.846 51.5201 157.82 51.0498C157.959 50.9827 158.036 50.8654 158.059 50.7274C158.1 50.4928 157.922 50.2874 157.714 50.2614C157.63 50.251 157.542 50.2681 157.466 50.3009C156.584 50.7264 156.137 50.7692 155.512 50.6911C154.831 50.6061 154.473 50.1246 154.589 49.4484C154.742 48.5514 155.729 47.7585 156.563 47.8626C156.813 47.8938 156.922 47.9215 157.06 48.0234C157.111 48.0579 157.178 48.0804 157.234 48.0873C157.442 48.1133 157.679 47.9738 157.721 47.7254Z" fill="#C2000D"/>
<path d="M165.673 48.6462C165.683 48.6054 165.679 48.5617 165.675 48.5181C165.626 47.8934 165.157 47.396 164.567 47.2738C163.059 46.9611 161.311 48.2275 160.959 49.6693C160.774 50.431 161.074 51.265 161.965 51.4497C162.843 51.6316 163.785 51.3698 164.66 50.8511C164.653 51.2354 164.666 52.0097 165.118 52.1035C165.351 52.1518 165.579 51.9847 165.629 51.7807C165.649 51.6991 165.641 51.6118 165.617 51.5352C165.474 51.1769 165.463 50.6889 165.616 50.0632C165.662 49.8728 165.537 49.6182 165.304 49.5699C165.18 49.5443 165.057 49.576 164.952 49.6541C163.935 50.4578 162.946 50.7956 162.164 50.6336C161.822 50.5626 161.669 50.3023 161.782 49.8398C162.027 48.8333 163.409 47.8909 164.368 48.0899C164.601 48.1382 164.822 48.3554 164.848 48.6037C164.863 48.7783 164.984 48.932 165.162 48.9689C165.409 49.0201 165.623 48.8502 165.673 48.6462Z" fill="#C2000D"/>
<path d="M175.883 50.4508C175.709 50.3969 175.522 50.4709 175.415 50.6137C174.322 52.0773 172.726 53.2821 172.057 53.0748C171.763 52.9836 171.615 52.63 171.876 51.8464C172.075 51.2488 172.435 50.6569 172.724 50.1455C172.732 50.1189 172.755 50.0965 172.764 50.0699C172.83 49.8707 172.736 49.6217 172.495 49.5471C172.321 49.4932 172.134 49.5671 172.028 49.7099C170.913 51.196 169.445 52.4115 168.937 52.254C168.817 52.2167 168.661 52.1096 168.509 51.8134C168.455 51.7088 168.375 51.6399 168.268 51.6068C168.054 51.5404 167.804 51.6683 167.734 51.8808C167.698 51.9871 167.707 52.0925 167.761 52.197C167.967 52.5979 168.257 52.9223 168.671 53.0509C169.447 53.2913 170.234 52.7441 170.937 52.1413C170.831 52.812 170.976 53.6187 171.791 53.8717C172.647 54.137 173.559 53.6138 174.355 52.9521C174.228 53.7332 174.439 54.6926 175.402 54.9911C175.616 55.0575 175.865 54.9296 175.936 54.7171C176.007 54.5046 175.881 54.2606 175.667 54.1942C175.199 54.0491 175.024 53.4673 175.264 52.7501C175.511 52.0064 175.818 51.5739 176.111 51.0492C176.12 51.0226 176.142 51.0002 176.151 50.9737C176.217 50.7744 176.123 50.5255 175.883 50.4508Z" fill="#C2000D"/>
<path d="M181.121 55.557C181.059 55.6977 180.977 55.8145 180.9 55.9184C180.73 55.9206 180.548 55.9172 180.381 55.8442C179.971 55.6644 179.842 55.3329 180.024 54.9234C180.143 54.6547 180.495 54.5183 180.764 54.6362C181.174 54.816 181.303 55.1474 181.121 55.557ZM184.594 54.6328C184.466 54.5767 184.31 54.5845 184.2 54.6588C184.194 54.6716 183.071 55.3408 181.963 55.6964C182.191 54.9404 181.836 54.1886 181.105 53.8684C180.399 53.5594 179.567 53.8825 179.255 54.5864C178.937 55.303 179.156 56.0868 179.803 56.4925C179.571 56.4978 179.33 56.4535 179.086 56.3468C178.163 55.9423 177.854 54.9816 178.286 54.009C178.694 53.0876 179.353 52.5354 179.731 52.3038C179.798 52.2567 179.858 52.1911 179.892 52.1143C179.977 51.9224 179.895 51.6574 179.677 51.5619C179.549 51.5057 179.411 51.5063 179.283 51.5878C178.808 51.8994 178.016 52.5458 177.516 53.672C176.926 55.0029 177.361 56.5079 178.746 57.1146C179.656 57.5134 180.658 57.3258 181.308 56.724C181.963 56.6287 182.592 56.3846 183.183 56.1236C183.124 56.2204 183.051 56.3868 182.988 56.5275C182.591 57.4234 182.685 58.4886 183.611 59.0931L183.676 59.1212C183.868 59.2055 184.128 59.1362 184.231 58.9058C184.31 58.7267 184.261 58.4913 184.08 58.3815C183.581 58.056 183.474 57.5044 183.758 56.8646C184.076 56.1479 184.421 55.749 184.762 55.2564C184.773 55.2309 184.798 55.2109 184.809 55.1853C184.894 54.9933 184.825 54.734 184.594 54.6328Z" fill="#C2000D"/>
<path d="M186.852 60.0481C187.097 59.6077 187.851 59.3456 188.969 59.3231C188.932 59.4471 188.87 59.5886 188.801 59.7109C188.366 60.4939 187.535 60.922 187.012 60.6234C186.781 60.4915 186.722 60.2806 186.852 60.0481ZM187.333 57.7436C187.418 57.7922 187.517 57.8164 187.624 57.7969C187.97 57.7208 188.254 57.7863 188.51 57.9321C188.765 58.078 188.907 58.2555 188.978 58.4734C187.816 58.4872 186.633 58.714 186.122 59.6315C185.775 60.2554 185.983 61.0033 186.603 61.3574C187.236 61.7185 187.922 61.5787 188.448 61.2666C188.487 61.9172 188.86 62.4849 189.468 62.8321C190.136 63.214 190.82 63.3952 191.872 63.3189C192.022 63.308 192.132 63.2257 192.2 63.1033C192.316 62.8954 192.222 62.6322 192.04 62.528C191.967 62.4864 191.881 62.4692 191.799 62.4711C190.848 62.5402 190.423 62.4106 189.876 62.0981C189.28 61.7579 189.115 61.1634 189.448 60.564C189.659 60.1848 190.155 59.7262 191.127 59.6204C191.334 59.5936 191.546 59.586 191.795 59.5993C191.939 59.6006 192.111 59.5216 192.193 59.3748C192.315 59.1546 192.208 58.9159 192.025 58.8117C191.989 58.7909 191.934 58.7753 191.89 58.7667C191.246 58.657 190.54 58.5439 189.844 58.5005C189.749 57.9791 189.441 57.4967 188.918 57.1981C188.517 56.969 188.011 56.8414 187.451 56.9564C187.325 56.9812 187.227 57.0705 187.172 57.1683C187.057 57.3763 187.138 57.6325 187.333 57.7436Z" fill="#C2000D"/>
<path d="M211.064 71.43C210.687 71.4597 210.72 71.8781 210.26 71.9144C209.674 71.9606 209.241 70.3807 209.09 69.0592C209.065 68.8366 208.847 68.6573 208.624 68.6749C208.401 68.6924 208.254 68.8865 208.247 69.0695C208.258 69.2932 208.194 72.0771 206.771 72.1893C206.045 72.2465 205.603 71.8321 205.512 71.0253C205.409 70.1212 205.534 69.985 205.509 69.7624C205.485 69.5538 205.294 69.3583 205.043 69.3781C204.875 69.3913 204.733 69.5008 204.684 69.6871C204.676 69.7438 204.573 70.2011 204.674 71.0913C204.804 72.232 205.637 73.1207 206.866 73.0239C207.912 72.9414 208.457 72.1547 208.736 71.3889C208.991 72.0284 209.475 72.8183 210.355 72.749C211.067 72.6929 211.411 72.1324 211.448 72.0874C211.496 72.0134 211.527 71.9128 211.516 71.8154C211.492 71.6067 211.287 71.4124 211.064 71.43ZM204.327 63.0787C204.354 63.3152 204.569 63.4806 204.793 63.463L204.821 63.4608C206.19 63.2406 207.443 63.1138 208.406 63.038C208.629 63.0204 208.802 62.8102 208.777 62.5877C208.752 62.3651 208.534 62.1857 208.311 62.2033C207.32 62.2814 206.067 62.4082 204.67 62.6306C204.448 62.6621 204.303 62.87 204.327 63.0787Z" fill="#C2000D"/>
<path d="M215.47 70.3492C215.483 70.797 216.06 70.9184 216.606 70.9273C217.922 70.949 218.528 69.6722 218.496 68.5806C218.462 67.4611 217.743 66.3303 216.47 66.3094C215.098 66.2868 214.087 67.5989 213.506 70.191C213.376 69.0838 213.243 68.3963 212.976 67.8884C212.902 67.7473 212.745 67.6468 212.591 67.6442C212.34 67.6401 212.178 67.8472 212.184 68.0571C212.186 68.1131 212.202 68.1833 212.231 68.2398C212.587 68.917 212.831 71.0051 212.955 75.2032C212.96 75.3852 213.135 75.6258 213.387 75.63C213.597 75.6334 213.788 75.4687 213.796 75.245C214.027 68.8708 215.431 67.1315 216.494 67.149C217.18 67.1603 217.631 67.7272 217.656 68.5668C217.681 69.4344 217.225 70.0983 216.581 70.0877C216.147 70.0806 216.143 69.9406 215.877 69.9363C215.667 69.9328 215.462 70.0973 215.47 70.3492Z" fill="#C2000D"/>
<path d="M222.348 68.7889C222.947 68.85 223.467 68.8047 224.222 68.5164C224.364 68.4606 224.469 68.3168 224.476 68.1629C224.488 67.9112 224.287 67.7221 224.078 67.7008C224.022 67.6951 223.952 67.702 223.895 67.7242C223.225 67.9931 222.902 68.0024 222.387 67.9498C222.164 67.9271 221.971 67.8653 221.807 67.7783C222.755 67.5658 223.702 66.7491 223.751 65.7003C223.788 64.9171 223.203 64.2393 222.423 64.1597C221.184 64.0333 220.285 65.0095 220.23 66.1842C220.168 67.5128 221.011 68.6525 222.348 68.7889ZM222.915 65.615C222.883 66.3143 221.925 67.0596 221.159 66.9815C221.084 66.7772 221.053 66.5352 221.066 66.2694C221.102 65.4863 221.674 64.9264 222.384 64.9988C222.719 65.0329 222.931 65.2794 222.915 65.615Z" fill="#C2000D"/>
<path d="M227.282 70.3678C227.252 69.8366 227.569 68.9862 228.07 68.1928C228.304 68.6274 228.472 69.1175 228.503 69.6766C228.538 70.3056 228.173 70.7925 227.725 70.7897C227.459 70.7881 227.297 70.6334 227.282 70.3678ZM228.835 63.1112C228.83 63.0133 228.782 62.9152 228.708 62.8309C228.35 62.4515 227.878 62.2669 227.388 62.2639C226.184 62.2565 225.338 63.1456 225.406 64.3477C225.482 65.7036 226.76 66.5359 227.524 67.4349C226.904 68.3673 226.39 69.4261 226.442 70.3626C226.482 71.0755 227.058 71.624 227.772 71.6284C228.864 71.6351 229.394 70.5903 229.343 69.6818C229.294 68.8011 228.973 68.0726 228.575 67.4693C228.862 67.0938 229.165 66.7603 229.445 66.5105C229.539 66.4272 229.574 66.3016 229.567 66.1898C229.554 65.9522 229.348 65.7693 229.124 65.7679C229.026 65.7673 228.929 65.7946 228.849 65.864C228.569 66.1138 228.293 66.4335 228.018 66.7672C227.869 66.5986 227.706 66.4439 227.558 66.3032C226.804 65.586 226.28 64.9679 226.246 64.3529C226.203 63.5981 226.679 63.098 227.435 63.1026C227.729 63.1044 227.945 63.2035 228.123 63.3863C228.212 63.4707 228.327 63.5273 228.439 63.528C228.677 63.5294 228.848 63.3348 228.835 63.1112Z" fill="#C2000D"/>
<path d="M235.478 62.6654C235.485 62.6241 235.48 62.5793 235.474 62.5345C235.394 61.8939 234.91 61.3655 234.327 61.2156C232.835 60.832 231.187 62.0523 230.916 63.5113C230.772 64.282 231.109 65.1473 231.99 65.374C232.858 65.5971 233.767 65.3694 234.597 64.8764C234.609 65.2689 234.661 66.0609 235.108 66.176C235.339 66.2353 235.554 66.0742 235.592 65.8677C235.607 65.7851 235.596 65.6956 235.568 65.6163C235.41 65.244 235.375 64.7446 235.493 64.1115C235.529 63.9188 235.393 63.6532 235.163 63.594C235.041 63.5626 234.922 63.5897 234.823 63.6652C233.868 64.4436 232.916 64.7469 232.144 64.5482C231.805 64.461 231.642 64.1885 231.729 63.7205C231.919 62.702 233.224 61.7973 234.173 62.0414C234.404 62.1007 234.631 62.3321 234.668 62.587C234.692 62.7661 234.818 62.9284 234.994 62.9737C235.238 63.0365 235.439 62.8718 235.478 62.6654Z" fill="#C2000D"/>
<path d="M239.175 60.0854C239.003 60.0262 238.812 60.0933 238.712 60.251C238.467 60.6836 238.159 61.4636 237.969 62.1807C237.717 63.128 237.654 63.4754 237.581 64.1884C237.553 64.4005 237.703 64.5996 237.888 64.6634C238.126 64.7454 238.339 64.5972 238.393 64.3942C238.551 63.7988 238.5 63.5007 238.659 62.8466C239.441 63.0568 240.272 63.1362 240.967 62.8586L240.881 63.1833C240.68 63.9411 240.462 65.2541 241.666 65.6688C242.077 65.8101 242.491 65.7166 242.878 65.5102C242.979 65.4564 243.044 65.3753 243.073 65.2671C243.13 65.0506 242.995 64.7973 242.784 64.7244C242.678 64.688 242.574 64.6966 242.473 64.7505C242.187 64.9031 242.001 64.8979 241.882 64.8569C241.498 64.7248 241.445 64.3228 241.675 63.4568L242.142 61.6977C242.192 61.5082 242.091 61.237 241.853 61.155C241.667 61.0912 241.473 61.1718 241.383 61.3476C240.95 62.2175 240.008 62.3363 238.888 62.0393C239.058 61.5071 239.284 60.9796 239.422 60.7318C239.446 60.6958 239.457 60.6552 239.464 60.6281C239.518 60.4251 239.413 60.1675 239.175 60.0854Z" fill="#C2000D"/>
<path d="M246.301 60.5251C246.134 60.452 245.939 60.5034 245.827 60.6526C245.549 61.0642 245.18 61.8172 244.934 62.5171C244.609 63.4415 244.518 63.7829 244.388 64.4882C244.344 64.6975 244.477 64.9083 244.657 64.9871C244.887 65.0883 245.111 64.9577 245.181 64.7596C245.385 64.1786 245.358 63.877 245.568 63.2375C246.331 63.5109 247.152 63.6578 247.866 63.4374L247.754 63.7544C247.494 64.4939 247.173 65.7859 248.339 66.2977C248.737 66.472 249.157 66.4126 249.559 66.2382C249.664 66.1927 249.735 66.1171 249.772 66.0115C249.846 65.8002 249.732 65.5366 249.527 65.4466C249.424 65.4016 249.321 65.4018 249.216 65.4473C248.919 65.5762 248.734 65.5559 248.618 65.5053C248.246 65.3422 248.226 64.937 248.524 64.0918L249.128 62.375C249.193 62.1901 249.113 61.9113 248.883 61.8101C248.703 61.7314 248.503 61.7959 248.399 61.964C247.899 62.7964 246.952 62.8383 245.86 62.4508C246.072 61.9338 246.339 61.4261 246.496 61.1901C246.523 61.1561 246.537 61.1164 246.546 61.09C246.616 60.8919 246.532 60.6264 246.301 60.5251Z" fill="#C2000D"/>
<path d="M255.234 66.6114C255.169 66.7514 255.087 66.8651 255.01 66.9661C254.846 66.9551 254.67 66.9374 254.51 66.8492C254.118 66.6322 254.003 66.281 254.19 65.8738C254.312 65.6065 254.656 65.4936 254.913 65.636C255.305 65.853 255.42 66.2042 255.234 66.6114ZM258.617 65.9315C258.494 65.8637 258.343 65.8595 258.235 65.9274C258.229 65.9401 257.124 66.5411 256.044 66.8206C256.285 66.0605 255.961 65.259 255.263 64.8724C254.589 64.4994 253.776 64.7669 253.455 65.4669C253.128 66.1796 253.319 67.0032 253.933 67.4712C253.709 67.4586 253.477 67.3942 253.245 67.2653C252.363 66.7771 252.09 65.7643 252.533 64.7971C252.953 63.8808 253.605 63.3639 253.977 63.1551C254.043 63.1118 254.102 63.049 254.137 62.9726C254.225 62.7817 254.153 62.5027 253.945 62.3874C253.823 62.3196 253.689 62.3094 253.563 62.3833C253.095 62.6668 252.312 63.2702 251.798 64.3902C251.192 65.7137 251.572 67.2965 252.895 68.0289C253.764 68.5104 254.738 68.3956 255.383 67.827C256.019 67.7801 256.633 67.5779 257.211 67.3555C257.152 67.4505 257.077 67.6159 257.012 67.7559C256.604 68.6468 256.666 69.7504 257.546 70.4448L257.607 70.4787C257.791 70.5805 258.045 70.5295 258.15 70.3004C258.231 70.1222 258.19 69.8762 258.018 69.7491C257.545 69.3751 257.456 68.7992 257.747 68.1628C258.074 67.4502 258.419 67.0666 258.762 66.5863C258.773 66.5609 258.797 66.5422 258.809 66.5168C258.897 66.3259 258.837 66.0536 258.617 65.9315Z" fill="#C2000D"/>
<path d="M260.539 70.6706C260.851 70.2749 261.616 70.1617 262.684 70.3637C262.626 70.4816 262.541 70.612 262.454 70.7219C261.9 71.4254 261.032 71.6909 260.588 71.2842C260.392 71.1044 260.374 70.8795 260.539 70.6706ZM261.41 68.439C261.482 68.5052 261.572 68.5494 261.677 68.5512C262.021 68.5441 262.279 68.6673 262.496 68.8659C262.713 69.0646 262.815 69.2724 262.844 69.5068C261.737 69.2874 260.57 69.2787 259.92 70.1031C259.477 70.6637 259.542 71.4613 260.068 71.9437C260.605 72.4356 261.283 72.4323 261.84 72.2227C261.759 72.8879 262.013 73.5364 262.529 74.0094C263.096 74.5297 263.715 74.8503 264.729 74.9845C264.874 75.0037 264.993 74.9426 265.08 74.8327C265.227 74.6458 265.185 74.3611 265.03 74.2192C264.969 74.1624 264.889 74.1276 264.812 74.1133C263.894 73.9918 263.513 73.7755 263.049 73.3499C262.543 72.8864 262.492 72.2524 262.917 71.7138C263.186 71.373 263.739 71.0093 264.683 71.0978C264.885 71.1124 265.088 71.1474 265.323 71.2108C265.459 71.241 265.637 71.1958 265.741 71.0639C265.897 70.866 265.838 70.6032 265.683 70.4613C265.652 70.4329 265.602 70.4061 265.562 70.3887C264.97 70.1484 264.318 69.8922 263.663 69.7083C263.667 69.1625 263.46 68.6132 263.016 68.2064C262.675 67.8943 262.217 67.6636 261.663 67.6672C261.539 67.6669 261.43 67.7375 261.36 67.8254C261.213 68.0123 261.245 68.2876 261.41 68.439Z" fill="#C2000D"/>
<path d="M7.41895 73.3168C15.6675 70.8394 23.2329 68.5401 31.8239 69.5509C35.5071 69.9842 38.9427 71.5719 42.5958 72.1807C50.1108 73.4332 57.2183 76.5527 64.7075 78.0505C73.8284 79.8747 82.2508 79.8858 90.5431 75.4207C93.0333 74.0798 96.2666 72.3684 97.6332 69.9085C98.2994 68.7094 100.337 65.971 100.5 64.4998" stroke="#C2000D" stroke-linecap="round" stroke-linejoin="round"/>
</svg>
