<svg width="461" height="389" viewBox="0 0 461 389" fill="none" xmlns="http://www.w3.org/2000/svg">
<path d="M38.9409 235.689C40.6475 231.109 41.7254 226.015 44.7151 222.028C48.8056 216.575 54.6935 211.834 63.0002 210.903C65.1973 210.656 68.6617 210.902 68.6617 210.902C68.6617 210.902 91.2334 212.992 102.415 212.522C108.935 212.248 116.182 210.325 122.179 207.78C125.831 206.231 128.116 203.074 130.23 199.847C133.344 195.094 135.713 189.612 137.718 184.308C140.16 177.848 140.729 170.866 143.469 164.474C146.293 157.883 154.519 155.685 159.735 151.587C163.042 148.989 159.615 144.597 158.092 142.058" stroke="#C2000D" stroke-linecap="round" stroke-linejoin="round"/>
<path d="M160.497 144.329C160.483 144.296 160.462 144.246 160.433 144.221C159.997 143.637 159.604 143.111 159.143 141.997C158.551 140.566 158.429 138.536 159.12 138.187C159.425 138.032 159.678 138.126 159.808 138.442C160.139 139.24 159.864 139.983 160.359 141.18C160.745 142.112 161.617 142.294 162.303 142.027C164.042 141.349 164.391 141.534 164.535 141.884C164.886 142.732 163.751 144.493 162.562 145.094C162.289 145.233 161.975 145.271 161.63 145.143C161.493 145.092 161.36 145.099 161.231 145.164C160.974 145.294 160.846 145.641 160.956 145.907C161.011 146.04 161.107 146.132 161.245 146.183C161.819 146.396 162.445 146.36 162.975 146.092C164.356 145.394 166.249 143.209 165.499 141.396C164.955 140.082 163.597 140.367 161.986 140.981C161.667 141.102 161.488 141.092 161.323 140.693C160.992 139.894 161.268 139.152 160.772 137.954C160.421 137.106 159.526 136.774 158.707 137.189C156.828 138.139 157.67 141.253 158.179 142.484C158.682 143.698 159.161 144.341 159.597 144.925C159.735 145.117 160.013 145.177 160.222 145.072C160.511 144.925 160.6 144.578 160.497 144.329Z" fill="#C2000D"/>
<path d="M175.17 134.719C174.982 134.137 174.1 134.385 173.618 134.585C171.955 135.275 171.151 137.453 171.677 139.08C172.126 140.468 173.434 141.071 174.781 140.513C175.695 140.134 176.438 139.573 177.253 138.42C177.369 138.255 177.386 138.073 177.331 137.902C177.236 137.611 176.915 137.492 176.666 137.595C176.566 137.636 176.477 137.712 176.411 137.798C175.673 138.842 175.197 139.175 174.448 139.485C173.634 139.823 172.946 139.506 172.675 138.667C172.315 137.553 172.953 136.027 173.951 135.613C174.25 135.489 174.388 135.451 174.605 135.478C174.682 135.484 174.771 135.467 174.837 135.44C175.087 135.336 175.27 135.027 175.17 134.719Z" fill="#C2000D"/>
<path d="M186.864 135.905C187.599 135.663 188.202 135.332 188.997 134.578C189.147 134.435 189.22 134.203 189.173 134.01C189.097 133.696 188.79 133.57 188.533 133.655C188.465 133.677 188.383 133.723 188.324 133.78C187.622 134.465 187.242 134.647 186.609 134.856C186.336 134.946 186.083 134.972 185.857 134.952C186.909 134.19 187.744 132.687 187.426 131.375C187.188 130.395 186.249 129.874 185.292 130.189C183.77 130.691 183.05 132.364 183.407 133.833C183.81 135.495 185.223 136.446 186.864 135.905ZM186.4 131.713C186.612 132.588 185.739 134.009 184.799 134.319C184.637 134.108 184.513 133.827 184.433 133.495C184.195 132.515 184.675 131.526 185.547 131.239C185.957 131.103 186.298 131.293 186.4 131.713Z" fill="#C2000D"/>
<path d="M210.536 134.37C210.472 133.689 210.83 132.517 211.425 131.377C211.744 131.887 211.981 132.484 212.048 133.201C212.125 134.007 211.687 134.72 211.119 134.817C210.782 134.874 210.568 134.711 210.536 134.37ZM212.14 124.627C212.128 124.501 212.063 124.385 211.964 124.293C211.493 123.882 210.885 123.749 210.264 123.855C208.738 124.116 207.711 125.457 207.857 126.999C208.021 128.737 209.682 129.527 210.695 130.519C209.957 131.865 209.358 133.352 209.472 134.552C209.558 135.466 210.316 136.047 211.221 135.892C212.605 135.655 213.223 134.184 213.113 133.019C213.006 131.89 212.563 131.019 212.029 130.327C212.374 129.776 212.741 129.276 213.084 128.89C213.198 128.761 213.236 128.591 213.222 128.448C213.193 128.143 212.923 127.953 212.639 128.001C212.515 128.022 212.394 128.079 212.296 128.187C211.954 128.574 211.62 129.05 211.288 129.543C211.091 129.359 210.877 129.195 210.682 129.046C209.691 128.287 208.996 127.605 208.921 126.816C208.83 125.849 209.408 125.094 210.366 124.93C210.738 124.867 211.016 124.946 211.251 125.143C211.368 125.232 211.517 125.28 211.659 125.255C211.96 125.204 212.167 124.913 212.14 124.627Z" fill="#C2000D"/>
<path d="M224.154 122.044C223.921 122.065 223.727 122.246 223.66 122.468C222.958 124.823 221.698 127.14 221.035 127.201C220.873 127.216 220.639 127.166 220.327 126.888C220.217 126.79 220.091 126.748 219.947 126.761C219.661 126.787 219.415 127.063 219.422 127.351C219.425 127.494 219.481 127.615 219.591 127.714C220.013 128.089 220.503 128.332 221.058 128.281C222.134 128.181 222.863 127.05 223.431 125.934C223.667 126.849 224.348 127.616 225.446 127.695L225.535 127.686C225.804 127.661 226.068 127.421 226.061 127.097C226.056 126.845 225.871 126.609 225.601 126.598C224.846 126.542 224.42 125.986 224.401 125.087C224.378 124.079 224.561 123.413 224.688 122.644C224.687 122.608 224.704 122.57 224.704 122.534C224.698 122.264 224.477 122.014 224.154 122.044Z" fill="#C2000D"/>
<path d="M234.654 123.793C234.683 123.272 235.534 122.528 236.164 122.523C236.506 122.52 236.693 122.716 236.674 123.058C236.64 123.669 236.157 124.284 235.775 124.682L235.685 124.683C235.001 124.688 234.624 124.35 234.654 123.793ZM233.197 127.398C233.251 127.397 233.287 127.397 233.342 127.378C234.147 127.138 235.408 126.445 236.242 125.684C236.954 125.499 237.554 125.045 238.029 124.592L238.025 124.664C237.922 126.533 238.23 127.482 238.261 127.572C238.339 127.787 238.549 127.893 238.747 127.891C239.071 127.889 239.302 127.617 239.317 127.348C239.336 127.006 239 126.56 239.105 124.655C239.166 123.54 239.569 122.765 239.582 122.513C239.597 122.243 239.415 121.957 239.073 121.96C238.875 121.962 238.689 122.071 238.589 122.252C238.589 122.252 238.253 122.811 237.697 123.427C237.722 123.301 237.747 123.175 237.754 123.049C237.804 122.132 237.141 121.437 236.223 121.445C235.053 121.454 233.645 122.526 233.575 123.802C233.528 124.646 233.997 125.289 234.665 125.571C234.086 125.953 233.495 126.227 233.111 126.338C232.873 126.412 232.699 126.629 232.687 126.863C232.669 127.186 232.927 127.4 233.197 127.398Z" fill="#C2000D"/>
<path d="M263.625 124.206C263.745 123.606 262.86 123.36 262.344 123.28C260.565 123.005 258.804 124.461 258.467 126.138C258.18 127.567 259.02 128.77 260.46 128.993C261.439 129.145 262.357 129.05 263.626 128.482C263.808 128.401 263.911 128.253 263.946 128.077C264.007 127.777 263.786 127.506 263.519 127.465C263.413 127.448 263.299 127.467 263.199 127.506C262.05 128.02 261.474 128.058 260.674 127.935C259.802 127.8 259.361 127.167 259.534 126.303C259.765 125.156 261.063 124.174 262.131 124.339C262.451 124.388 262.59 124.428 262.764 124.564C262.828 124.61 262.913 124.642 262.985 124.653C263.251 124.694 263.561 124.524 263.625 124.206Z" fill="#C2000D"/>
<path d="M276.555 127.624C276.57 127.572 276.566 127.516 276.563 127.46C276.523 126.655 275.939 125.998 275.186 125.819C273.26 125.36 270.965 126.922 270.459 128.762C270.192 129.734 270.547 130.817 271.685 131.088C272.806 131.355 274.027 131.054 275.171 130.42C275.147 130.913 275.135 131.909 275.713 132.047C276.01 132.117 276.309 131.911 276.381 131.651C276.41 131.547 276.403 131.434 276.375 131.335C276.204 130.869 276.209 130.242 276.428 129.443C276.495 129.2 276.344 128.868 276.046 128.797C275.889 128.76 275.729 128.796 275.591 128.893C274.254 129.887 272.97 130.284 271.971 130.047C271.534 129.942 271.347 129.602 271.51 129.012C271.863 127.728 273.674 126.569 274.9 126.86C275.197 126.931 275.473 127.219 275.497 127.539C275.509 127.764 275.659 127.966 275.887 128.02C276.202 128.095 276.484 127.885 276.555 127.624Z" fill="#C2000D"/>
<path d="M292.59 131.083C292.368 131.008 292.125 131.095 291.983 131.275C290.523 133.115 288.426 134.603 287.575 134.312C287.2 134.183 287.023 133.724 287.389 132.726C287.667 131.966 288.152 131.219 288.542 130.572C288.554 130.538 288.583 130.51 288.596 130.477C288.689 130.223 288.577 129.9 288.271 129.795C288.049 129.719 287.806 129.807 287.664 129.986C286.175 131.854 284.243 133.361 283.596 133.14C283.443 133.087 283.246 132.944 283.062 132.557C282.997 132.421 282.896 132.329 282.76 132.283C282.487 132.189 282.162 132.344 282.063 132.615C282.014 132.75 282.022 132.886 282.087 133.022C282.336 133.545 282.697 133.973 283.225 134.154C284.212 134.492 285.245 133.818 286.17 133.07C286.01 133.928 286.165 134.97 287.203 135.326C288.293 135.699 289.485 135.061 290.533 134.24C290.34 135.239 290.575 136.48 291.801 136.9C292.074 136.994 292.399 136.839 292.498 136.568C292.597 136.298 292.445 135.979 292.173 135.886C291.577 135.682 291.374 134.928 291.708 134.015C292.054 133.068 292.465 132.524 292.861 131.861C292.873 131.827 292.903 131.799 292.915 131.765C293.008 131.512 292.896 131.188 292.59 131.083Z" fill="#C2000D"/>
<path d="M303.443 138.83C303.358 139.008 303.247 139.155 303.145 139.286C302.927 139.282 302.693 139.271 302.481 139.171C301.961 138.924 301.808 138.494 302.057 137.974C302.22 137.633 302.677 137.471 303.019 137.633C303.539 137.879 303.692 138.31 303.443 138.83ZM307.941 137.772C307.779 137.695 307.577 137.7 307.433 137.791C307.426 137.807 305.956 138.625 304.52 139.04C304.841 138.077 304.412 137.098 303.485 136.659C302.59 136.235 301.508 136.619 301.081 137.512C300.645 138.421 300.897 139.437 301.713 139.982C301.415 139.98 301.107 139.914 300.798 139.768C299.627 139.214 299.266 137.967 299.857 136.734C300.417 135.565 301.284 134.88 301.779 134.596C301.866 134.538 301.946 134.456 301.992 134.359C302.109 134.116 302.014 133.772 301.737 133.641C301.575 133.564 301.397 133.56 301.23 133.659C300.607 134.042 299.565 134.843 298.881 136.272C298.072 137.96 298.574 139.91 300.332 140.742C301.487 141.289 302.782 141.085 303.639 140.336C304.485 140.239 305.302 139.948 306.071 139.635C305.992 139.757 305.891 139.968 305.806 140.147C305.261 141.283 305.342 142.656 306.51 143.468L306.592 143.506C306.836 143.622 307.173 143.542 307.313 143.25C307.422 143.023 307.368 142.719 307.14 142.571C306.511 142.134 306.393 141.421 306.782 140.609C307.217 139.7 307.676 139.2 308.133 138.58C308.149 138.548 308.181 138.523 308.196 138.49C308.313 138.247 308.234 137.911 307.941 137.772Z" fill="#C2000D"/>
<path d="M314.293 146.352C314.624 145.796 315.604 145.487 317.042 145.5C316.99 145.658 316.904 145.838 316.812 145.992C316.222 146.982 315.138 147.501 314.478 147.098C314.186 146.92 314.118 146.646 314.293 146.352ZM314.998 143.409C315.106 143.474 315.232 143.509 315.37 143.488C315.818 143.403 316.181 143.498 316.504 143.695C316.826 143.892 317.001 144.126 317.084 144.408C315.592 144.383 314.062 144.63 313.371 145.79C312.902 146.578 313.142 147.547 313.925 148.026C314.724 148.513 315.612 148.36 316.299 147.978C316.324 148.816 316.782 149.56 317.55 150.029C318.395 150.544 319.268 150.803 320.623 150.744C320.816 150.736 320.96 150.634 321.052 150.48C321.209 150.217 321.098 149.875 320.868 149.734C320.776 149.678 320.665 149.653 320.561 149.652C319.335 149.705 318.794 149.523 318.103 149.101C317.35 148.641 317.16 147.871 317.611 147.113C317.896 146.633 318.55 146.063 319.804 145.963C320.071 145.937 320.344 145.935 320.664 145.961C320.848 145.968 321.072 145.873 321.183 145.688C321.348 145.409 321.219 145.098 320.989 144.958C320.943 144.93 320.872 144.908 320.817 144.895C319.993 144.73 319.09 144.558 318.196 144.476C318.095 143.802 317.717 143.171 317.056 142.767C316.549 142.458 315.904 142.275 315.179 142.401C315.016 142.429 314.887 142.54 314.814 142.663C314.657 142.926 314.752 143.259 314.998 143.409Z" fill="#C2000D"/>
<path d="M351.839 154.972C351.371 155.103 351.518 155.623 350.946 155.783C350.218 155.987 349.278 154.102 348.76 152.473C348.672 152.198 348.353 152.026 348.076 152.104C347.799 152.182 347.662 152.463 347.698 152.696C347.768 152.975 348.381 156.503 346.613 156.998C345.712 157.251 345.052 156.839 344.735 155.844C344.381 154.729 344.505 154.526 344.417 154.251C344.336 153.994 344.046 153.795 343.734 153.883C343.526 153.941 343.373 154.115 343.358 154.362C343.362 154.435 343.346 155.038 343.695 156.135C344.143 157.542 345.415 158.456 346.941 158.028C348.24 157.663 348.731 156.535 348.892 155.5C349.374 156.243 350.181 157.118 351.273 156.812C352.157 156.564 352.452 155.771 352.488 155.705C352.53 155.6 352.544 155.465 352.506 155.345C352.424 155.088 352.116 154.894 351.839 154.972ZM341.435 146.66C341.528 146.951 341.842 147.106 342.119 147.028L342.154 147.019C343.826 146.4 345.374 145.928 346.57 145.593C346.848 145.515 347.014 145.207 346.927 144.932C346.839 144.658 346.52 144.486 346.243 144.563C345.012 144.909 343.463 145.381 341.757 146.009C341.485 146.104 341.353 146.402 341.435 146.66Z" fill="#C2000D"/>
<path d="M362.859 150.575C362.987 151.136 363.746 151.146 364.437 151.021C366.102 150.721 366.548 148.959 366.236 147.59C365.915 146.187 364.727 144.939 363.115 145.23C361.379 145.543 360.431 147.45 360.343 150.864C359.903 149.5 359.565 148.666 359.102 148.091C358.973 147.932 358.75 147.844 358.555 147.879C358.236 147.937 358.084 148.238 358.144 148.502C358.16 148.572 358.198 148.656 358.249 148.72C358.867 149.486 359.694 152.059 360.896 157.323C360.948 157.552 361.229 157.812 361.547 157.754C361.813 157.706 362.013 157.451 361.967 157.167C360.671 149.069 362.009 146.526 363.355 146.283C364.223 146.126 364.932 146.729 365.173 147.782C365.421 148.87 365.011 149.821 364.196 149.968C363.647 150.067 363.607 149.892 363.271 149.952C363.005 150 362.787 150.259 362.859 150.575Z" fill="#C2000D"/>
<path d="M375.686 147.592C376.456 147.52 377.101 147.333 377.981 146.781C378.147 146.676 378.244 146.468 378.214 146.272C378.166 145.952 377.866 145.763 377.597 145.788C377.525 145.795 377.438 145.821 377.372 145.864C376.593 146.37 376.189 146.461 375.526 146.523C375.239 146.55 374.98 146.52 374.752 146.451C375.894 145.948 376.886 144.681 376.687 143.346C376.538 142.349 375.632 141.64 374.628 141.734C373.033 141.883 372.142 143.338 372.366 144.833C372.619 146.525 373.965 147.753 375.686 147.592ZM375.611 143.447C375.744 144.337 374.721 145.516 373.735 145.608C373.591 145.369 373.492 145.071 373.441 144.733C373.292 143.736 373.874 142.887 374.788 142.802C375.218 142.762 375.547 143.02 375.611 143.447Z" fill="#C2000D"/>
<path d="M387.61 148.388C387.44 147.725 387.627 146.574 388.062 145.448C388.466 145.938 388.799 146.515 388.978 147.212C389.179 147.997 388.84 148.702 388.274 148.81C387.938 148.874 387.695 148.719 387.61 148.388ZM387.763 138.848C387.731 138.726 387.647 138.614 387.532 138.526C386.987 138.136 386.345 138.021 385.726 138.139C384.206 138.43 383.36 139.762 383.744 141.262C384.178 142.953 385.997 143.685 387.185 144.628C386.635 145.959 386.25 147.422 386.549 148.591C386.777 149.48 387.641 150.028 388.542 149.856C389.921 149.593 390.329 148.143 390.039 147.01C389.757 145.911 389.171 145.072 388.52 144.41C388.788 143.865 389.087 143.369 389.378 142.984C389.475 142.856 389.488 142.688 389.452 142.549C389.376 142.253 389.071 142.073 388.788 142.127C388.664 142.151 388.549 142.209 388.466 142.317C388.175 142.702 387.906 143.174 387.642 143.663C387.412 143.487 387.168 143.333 386.947 143.192C385.817 142.475 385.002 141.826 384.805 141.059C384.564 140.117 385.04 139.368 385.994 139.186C386.366 139.115 386.662 139.186 386.932 139.372C387.065 139.457 387.225 139.499 387.366 139.472C387.667 139.415 387.834 139.127 387.763 138.848Z" fill="#C2000D"/>
<path d="M401.786 136.911C401.785 136.857 401.766 136.802 401.748 136.747C401.488 135.958 400.746 135.413 399.973 135.369C397.996 135.256 396.221 137.206 396.242 139.113C396.253 140.121 396.892 141.129 398.06 141.196C399.21 141.261 400.3 140.748 401.225 139.919C401.338 140.411 401.601 141.397 402.194 141.431C402.499 141.448 402.73 141.192 402.727 140.922C402.726 140.814 402.689 140.704 402.634 140.611C402.342 140.18 402.173 139.559 402.164 138.731C402.162 138.479 401.925 138.178 401.619 138.16C401.458 138.151 401.315 138.215 401.208 138.335C400.198 139.555 399.073 140.174 398.049 140.116C397.599 140.09 397.327 139.787 397.32 139.175C397.306 137.843 398.727 136.377 399.985 136.448C400.29 136.466 400.634 136.701 400.745 137.013C400.819 137.233 401.019 137.407 401.252 137.42C401.576 137.438 401.788 137.181 401.786 136.911Z" fill="#C2000D"/>
<path d="M409.762 135.279C409.53 135.247 409.305 135.379 409.219 135.603C409.018 136.21 408.824 137.27 408.762 138.222C408.681 139.48 408.687 139.934 408.772 140.851C408.79 141.126 409.028 141.34 409.278 141.374C409.599 141.418 409.83 141.178 409.848 140.909C409.899 140.118 409.76 139.755 409.798 138.89C410.837 138.961 411.906 138.854 412.713 138.331L412.685 138.762C412.62 139.768 412.671 141.478 414.294 141.701C414.847 141.777 415.347 141.556 415.784 141.2C415.898 141.107 415.959 140.988 415.969 140.844C415.987 140.557 415.754 140.271 415.469 140.232C415.326 140.212 415.198 140.249 415.084 140.342C414.761 140.606 414.524 140.646 414.364 140.624C413.847 140.553 413.681 140.059 413.755 138.909L413.906 136.574C413.922 136.322 413.727 136.006 413.406 135.961C413.156 135.927 412.93 136.077 412.861 136.321C412.531 137.526 411.373 137.911 409.886 137.815C409.968 137.101 410.122 136.38 410.235 136.033C410.256 135.981 410.26 135.927 410.262 135.891C410.279 135.622 410.083 135.323 409.762 135.279Z" fill="#C2000D"/>
<path d="M423.447 137.548C423.218 137.497 422.984 137.611 422.881 137.827C422.632 138.415 422.355 139.457 422.218 140.401C422.038 141.648 422.009 142.101 422.021 143.023C422.017 143.298 422.238 143.531 422.484 143.586C422.8 143.656 423.049 143.436 423.088 143.168C423.201 142.384 423.092 142.011 423.198 141.152C424.228 141.307 425.3 141.288 426.146 140.832L426.084 141.26C425.94 142.257 425.856 143.967 427.455 144.322C428 144.443 428.516 144.263 428.979 143.943C429.1 143.86 429.171 143.747 429.191 143.604C429.232 143.319 429.023 143.015 428.741 142.953C428.601 142.922 428.47 142.948 428.349 143.031C428.007 143.268 427.768 143.288 427.61 143.253C427.1 143.14 426.974 142.634 427.139 141.494L427.473 139.178C427.509 138.928 427.34 138.596 427.023 138.526C426.777 138.472 426.541 138.603 426.452 138.841C426.028 140.015 424.844 140.304 423.37 140.087C423.508 139.382 423.719 138.675 423.859 138.338C423.884 138.289 423.892 138.235 423.897 138.2C423.935 137.932 423.763 137.618 423.447 137.548Z" fill="#C2000D"/>
<path d="M438.645 147.137C438.599 147.33 438.523 147.494 438.451 147.641C438.241 147.668 438.015 147.689 437.792 147.617C437.244 147.441 437.011 147.027 437.145 146.467C437.233 146.099 437.638 145.871 437.998 145.987C438.546 146.163 438.779 146.577 438.645 147.137ZM442.743 145.438C442.572 145.382 442.379 145.415 442.26 145.527C442.256 145.545 441.012 146.578 439.719 147.2C439.834 146.181 439.226 145.25 438.249 144.937C437.307 144.634 436.347 145.174 436.116 146.137C435.882 147.117 436.327 148.108 437.219 148.546C436.933 148.586 436.625 148.562 436.299 148.457C435.065 148.061 434.469 146.852 434.787 145.521C435.089 144.261 435.782 143.447 436.2 143.091C436.272 143.019 436.331 142.925 436.357 142.82C436.419 142.558 436.259 142.224 435.968 142.13C435.797 142.075 435.626 142.096 435.485 142.22C434.966 142.694 434.128 143.65 433.759 145.191C433.323 147.011 434.197 148.913 436.048 149.508C437.264 149.899 438.465 149.511 439.136 148.634C439.926 148.416 440.651 148.008 441.325 147.584C441.274 147.718 441.22 147.946 441.174 148.138C440.881 149.364 441.234 150.74 442.516 151.397L442.602 151.425C442.859 151.507 443.166 151.38 443.242 151.065C443.3 150.82 443.188 150.519 442.939 150.402C442.249 150.048 441.993 149.344 442.202 148.469C442.437 147.488 442.776 146.919 443.089 146.227C443.098 146.192 443.123 146.163 443.132 146.128C443.194 145.865 443.052 145.537 442.743 145.438Z" fill="#C2000D"/>
<path d="M447.198 154.1C447.493 153.523 448.43 153.189 449.827 153.178C449.784 153.341 449.709 153.527 449.627 153.687C449.102 154.713 448.074 155.264 447.413 154.861C447.121 154.683 447.042 154.404 447.198 154.1ZM447.741 151.068C447.849 151.133 447.973 151.167 448.106 151.143C448.537 151.048 448.894 151.139 449.217 151.336C449.54 151.532 449.721 151.769 449.815 152.058C448.364 152.057 446.89 152.336 446.275 153.538C445.857 154.355 446.137 155.345 446.921 155.823C447.72 156.309 448.575 156.136 449.225 155.733C449.29 156.592 449.77 157.347 450.539 157.816C451.384 158.33 452.244 158.581 453.557 158.498C453.745 158.486 453.88 158.379 453.962 158.219C454.102 157.946 453.978 157.598 453.747 157.457C453.655 157.401 453.546 157.377 453.445 157.378C452.257 157.454 451.723 157.275 451.031 156.854C450.278 156.395 450.055 155.608 450.457 154.823C450.711 154.327 451.319 153.73 452.532 153.607C452.79 153.575 453.055 153.568 453.367 153.59C453.546 153.594 453.759 153.493 453.858 153.3C454.005 153.012 453.865 152.695 453.634 152.555C453.588 152.527 453.519 152.505 453.464 152.493C452.657 152.338 451.771 152.177 450.899 152.108C450.768 151.419 450.37 150.777 449.709 150.374C449.202 150.066 448.566 149.889 447.868 150.031C447.711 150.062 447.591 150.178 447.526 150.306C447.386 150.578 447.495 150.918 447.741 151.068Z" fill="#C2000D"/>
</svg>
