<svg width="195" height="193" viewBox="0 0 195 193" fill="none" xmlns="http://www.w3.org/2000/svg">
<path d="M24.7808 98.6951L22.9794 98.7258L22.9515 96.9243L24.753 96.8935L24.7808 98.6951Z" fill="#363636"/>
<path d="M12.3324 86.3859L13.7813 78.154L15.2802 78.409L14.1269 84.9616L18.0433 85.6277L18.5766 82.5981C18.7736 81.4786 19.0369 80.6081 19.3664 79.9866C19.6969 79.3593 20.1947 78.8972 20.8598 78.6002C21.5191 78.3023 22.2415 78.2201 23.0271 78.3537C23.6683 78.4628 24.2436 78.7092 24.7531 79.0931C25.2579 79.4702 25.6367 79.9714 25.8895 80.5969C26.1424 81.2224 26.1489 82.216 25.9092 83.5779L25.0347 88.5465L12.3324 86.3859ZM23.9006 86.624L24.4917 83.2655C24.6512 82.3595 24.5857 81.65 24.2952 81.137C24.0058 80.6182 23.4914 80.296 22.752 80.1702C22.2263 80.0808 21.7645 80.136 21.3664 80.3357C20.9683 80.5355 20.6709 80.8563 20.4741 81.2983C20.2774 81.7403 20.0809 82.5182 19.8849 83.6319L19.4903 85.8739L23.9006 86.624Z" fill="#363636"/>
<path d="M26.3992 70.4844L27.1206 69.0017C27.9432 69.5472 28.4918 70.2331 28.7663 71.0594C29.0407 71.8856 29.0023 72.8115 28.6512 73.837C28.2089 75.1286 27.4602 76.0218 26.4051 76.5166C25.3464 77.004 24.0971 77.008 22.6572 76.5286C21.1673 76.0326 20.1419 75.2652 19.5811 74.2263C19.0203 73.1874 18.9487 72.0581 19.3663 70.8386C19.7706 69.6579 20.504 68.8275 21.5664 68.3475C22.6287 67.8675 23.891 67.8709 25.3531 68.3577C25.4421 68.3873 25.5745 68.4345 25.7505 68.4992L23.4954 75.0847C24.4873 75.3532 25.3262 75.3268 26.0121 75.0056C26.6981 74.6843 27.1673 74.1551 27.4198 73.4178C27.6077 72.869 27.6236 72.3525 27.4674 71.8682C27.3112 71.3839 26.9551 70.9227 26.3992 70.4844ZM22.2897 74.5907L23.9782 69.6599C23.2104 69.4784 22.5872 69.4809 22.1084 69.6673C21.367 69.9516 20.8662 70.4734 20.6062 71.2328C20.3708 71.9202 20.4031 72.5763 20.7032 73.2011C21.0052 73.8204 21.534 74.2836 22.2897 74.5907Z" fill="#363636"/>
<path d="M22.7775 62.6287L26.1631 56.1075L34.4919 60.3212L33.767 61.7175L26.6067 58.095L24.675 61.8158L28.8237 63.9147C29.7909 64.404 30.4126 64.7579 30.6886 64.9764C30.9647 65.1949 31.1449 65.5027 31.2291 65.8999C31.3134 66.2971 31.2178 66.7609 30.9424 67.2913C30.7723 67.619 30.5557 67.9854 30.2925 68.3907L29.1161 67.7955L29.436 67.1793C29.5872 66.8881 29.6665 66.6655 29.6737 66.5116C29.6758 66.355 29.6223 66.2229 29.5132 66.1152C29.4041 66.0074 28.9887 65.7711 28.2672 65.406L22.7775 62.6287Z" fill="#363636"/>
<path d="M31.599 55.9935C30.1862 54.9976 29.421 53.8706 29.3036 52.6122C29.2085 51.5631 29.4988 50.5707 30.1746 49.6349C30.9259 48.5947 31.8848 47.9875 33.0514 47.8133C34.2131 47.6358 35.3998 47.974 36.6115 48.828C37.5933 49.5201 38.2604 50.2125 38.6128 50.9053C38.9639 51.59 39.0927 52.3223 38.9992 53.1022C38.9091 53.8774 38.6257 54.5951 38.1488 55.2554C37.3838 56.3147 36.4221 56.9307 35.2638 57.1035C34.1089 57.2715 32.8874 56.9015 31.599 55.9935ZM32.551 54.6753C33.5281 55.364 34.4135 55.669 35.2073 55.5906C35.9964 55.5088 36.6224 55.1473 37.0856 54.506C37.5453 53.8695 37.6835 53.1677 37.5004 52.4006C37.3172 51.6336 36.7251 50.8973 35.7241 50.1918C34.7807 49.5268 33.9127 49.2375 33.1202 49.3241C32.3264 49.4025 31.7013 49.7576 31.245 50.3894C30.7819 51.0307 30.6395 51.7331 30.8179 52.4968C30.9963 53.2605 31.574 53.9867 32.551 54.6753Z" fill="#363636"/>
<path d="M44.6729 52.1699L35.3084 43.2816L36.3127 42.2477L37.1924 43.0827C37.085 42.5122 37.0953 41.9929 37.2233 41.5247C37.3471 41.0525 37.6213 40.5979 38.0459 40.1608C38.6011 39.5892 39.2398 39.226 39.9619 39.0713C40.684 38.9165 41.4252 38.9859 42.1855 39.2795C42.9417 39.569 43.6427 40.0204 44.2887 40.6335C44.9814 41.291 45.4857 42.0079 45.8016 42.7843C46.1172 43.5525 46.1952 44.3131 46.0354 45.0662C45.8755 45.811 45.5444 46.4419 45.0423 46.9589C44.6748 47.3371 44.2634 47.6009 43.808 47.7503C43.3566 47.8954 42.9138 47.9476 42.4795 47.907L45.7752 51.0352L44.6729 52.1699ZM39.7298 45.5032C40.601 46.3301 41.4143 46.7668 42.1697 46.8133C42.925 46.8597 43.5436 46.635 44.0253 46.139C44.5152 45.6347 44.7191 45.0002 44.6369 44.2355C44.5545 43.4627 44.0607 42.6466 43.1555 41.7874C42.2928 40.9686 41.4753 40.532 40.7031 40.4776C39.935 40.419 39.3142 40.6335 38.8406 41.1211C38.3711 41.6044 38.1842 42.2509 38.2798 43.0606C38.3753 43.8621 38.8586 44.6763 39.7298 45.5032Z" fill="#363636"/>
<path d="M52.784 35.9509L54.2058 35.1149C54.5906 36.0234 54.6691 36.8973 54.4413 37.7367C54.2135 38.576 53.6696 39.3256 52.8095 39.9854C51.7263 40.8164 50.6077 41.1466 49.4538 40.9758C48.3009 40.797 47.2561 40.1104 46.3197 38.9163C45.3506 37.6806 44.9193 36.4755 45.0257 35.3009C45.1321 34.1264 45.6967 33.1468 46.7195 32.3622C47.7097 31.6025 48.7808 31.3162 49.9327 31.5033C51.0846 31.6903 52.136 32.3902 53.0869 33.6028C53.1448 33.6766 53.2292 33.789 53.3403 33.9401L47.8174 38.1771C48.4966 38.9483 49.2113 39.3896 49.9613 39.501C50.7113 39.6123 51.3955 39.4309 52.0138 38.9565C52.474 38.6034 52.7729 38.1822 52.9103 37.6928C53.0477 37.2034 53.0056 36.6227 52.784 35.9509ZM47.0844 37.1L51.2196 33.9276C50.6793 33.3526 50.1579 33.0105 49.6553 32.9013C48.8794 32.7285 48.173 32.8864 47.5361 33.375C46.9597 33.8173 46.6239 34.3813 46.5289 35.0671C46.4385 35.7494 46.6237 36.427 47.0844 37.1Z" fill="#363636"/>
<path d="M52.9502 28.0643L54.3271 27.2852L55.2108 28.8149C55.5919 29.4744 55.9071 29.9322 56.1565 30.1883C56.4081 30.4364 56.7488 30.5869 57.1787 30.6399C57.6056 30.6878 58.0459 30.5833 58.4998 30.3265C59.0199 30.0322 59.6139 29.5143 60.2818 28.7728L58.167 25.1122L59.5439 24.333L64.213 32.4152L62.8362 33.1944L60.9544 29.9372C60.2604 30.68 59.5461 31.2592 58.8118 31.6748C58.1948 32.024 57.5597 32.178 56.9067 32.1369C56.2558 32.0878 55.7158 31.8851 55.2867 31.5288C54.8575 31.1725 54.4861 30.7229 54.1725 30.18L52.9502 28.0643Z" fill="#363636"/>
<path d="M71.4381 26.0497L73.0351 25.6407C73.1494 26.6217 72.9798 27.4843 72.5263 28.2285C72.0728 28.9728 71.3414 29.5427 70.3323 29.9384C69.0612 30.4368 67.8966 30.4434 66.8384 29.9584C65.7835 29.4657 64.9745 28.5148 64.4115 27.1055C63.8289 25.6472 63.7531 24.3679 64.1842 23.2674C64.6153 22.167 65.4309 21.3815 66.631 20.9109C67.7929 20.4553 68.8997 20.4777 69.9513 20.9779C71.003 21.4781 71.8146 22.4437 72.3864 23.8748C72.4211 23.9618 72.4706 24.0935 72.5347 24.2698L66.0541 26.8107C66.4891 27.7415 67.0504 28.3648 67.7381 28.6805C68.4257 28.9961 69.1323 29.0117 69.8578 28.7273C70.3979 28.5155 70.8023 28.1933 71.0711 27.7607C71.34 27.328 71.4623 26.7577 71.4381 26.0497ZM65.6533 25.5707L70.5056 23.6682C70.1488 22.9647 69.7449 22.4906 69.2938 22.2458C68.5986 21.8639 67.8773 21.8194 67.1299 22.1124C66.4535 22.3777 65.9737 22.827 65.6904 23.4604C65.4126 24.0917 65.4003 24.7951 65.6533 25.5707Z" fill="#363636"/>
<path d="M74.4258 18.3427L75.9646 17.9755L76.8791 21.7511L81.1452 20.7335L80.2307 16.9579L81.7695 16.5908L83.9668 25.6624L82.4279 26.0295L81.4534 22.0062L77.1874 23.0239L78.1619 27.0472L76.623 27.4143L74.4258 18.3427Z" fill="#363636"/>
<path d="M91.5857 21.2439L93.1543 21.2703C93.1064 22.3548 92.7675 23.2392 92.1376 23.9235C91.5128 24.6014 90.6939 24.9975 89.6808 25.1119C88.4115 25.2552 87.3427 24.9572 86.4745 24.2179C85.6114 23.4721 85.092 22.3249 84.9161 20.7763C84.8025 19.7749 84.8689 18.8799 85.1155 18.0914C85.3621 17.3029 85.802 16.6843 86.4351 16.2354C87.0733 15.7801 87.7913 15.5074 88.589 15.4173C89.5963 15.3036 90.4492 15.4668 91.1478 15.9068C91.8458 16.341 92.3382 17.0166 92.6251 17.9336L91.1235 18.3419C90.9073 17.7354 90.595 17.296 90.1866 17.0236C89.7841 16.7507 89.3209 16.6438 88.7968 16.7029C88.005 16.7923 87.394 17.1502 86.9639 17.7766C86.5331 18.3972 86.3874 19.3218 86.5269 20.5502C86.6683 21.7961 87.0098 22.6745 87.5514 23.1853C88.0929 23.6961 88.748 23.9082 89.5166 23.8214C90.1337 23.7517 90.6275 23.5043 90.998 23.0793C91.3684 22.6542 91.5643 22.0424 91.5857 21.2439Z" fill="#363636"/>
<path d="M94.9428 15.1143L96.5248 15.1174L96.5086 19.1516C97.0125 19.1526 97.3644 19.0566 97.5644 18.8636C97.7703 18.6706 98.0714 18.1087 98.4677 17.1779C98.7812 16.4402 99.0351 15.9544 99.2294 15.7204C99.4237 15.4864 99.647 15.3286 99.8993 15.2471C100.152 15.1656 100.556 15.1253 101.113 15.1264L101.429 15.1271L101.424 16.4366L100.984 16.427C100.568 16.4261 100.302 16.4871 100.184 16.61C100.06 16.7386 99.8712 17.122 99.6167 17.7602C99.374 18.3691 99.1526 18.7906 98.9524 19.0245C98.7523 19.2585 98.4438 19.4718 98.027 19.6643C98.706 19.8473 99.3714 20.4814 100.023 21.5667L101.743 24.4617L100.003 24.4582L98.327 21.5633C97.9836 20.9826 97.6834 20.6011 97.4263 20.419C97.1693 20.231 96.862 20.1366 96.5046 20.1359L96.4872 24.4513L94.9052 24.4482L94.9428 15.1143Z" fill="#363636"/>
<path d="M107.998 25.1374L108.296 23.3605L110.075 23.6493L109.776 25.4261L107.998 25.1374Z" fill="#363636"/>
<path d="M122.506 15.0166L130.365 17.8609L129.835 19.286L123.579 17.0219L122.193 20.7452L125.086 21.792C126.155 22.1788 126.966 22.5875 127.518 23.018C128.076 23.4505 128.44 24.0183 128.61 24.7215C128.781 25.4192 128.728 26.1415 128.451 26.8884C128.224 27.498 127.873 28.0192 127.4 28.4522C126.934 28.8817 126.368 29.1662 125.704 29.3058C125.039 29.4454 124.057 29.2799 122.756 28.8093L118.013 27.0926L122.506 15.0166ZM120.122 26.3136L123.328 27.4741C124.193 27.7871 124.906 27.8457 125.467 27.6498C126.033 27.4558 126.446 27.0074 126.708 26.3045C126.894 25.8047 126.925 25.3425 126.802 24.9178C126.679 24.4931 126.417 24.1461 126.017 23.8767C125.617 23.6074 124.886 23.2803 123.822 22.8954L121.682 22.1208L120.122 26.3136Z" fill="#363636"/>
<path d="M135.865 31.5782L137.2 32.5399C136.506 33.2486 135.724 33.6653 134.854 33.79C133.984 33.9147 133.074 33.7166 132.123 33.1958C130.926 32.5398 130.18 31.6537 129.887 30.5376C129.601 29.4192 129.83 28.1985 130.574 26.8755C131.343 25.5066 132.295 24.6384 133.429 24.271C134.563 23.9035 135.695 24.0295 136.826 24.6489C137.92 25.2485 138.606 26.1087 138.884 27.2295C139.161 28.3502 138.922 29.5822 138.167 30.9256C138.122 31.0074 138.05 31.1285 137.953 31.2892L131.848 27.9445C131.397 28.8665 131.267 29.6904 131.457 30.416C131.648 31.1416 132.085 31.6916 132.768 32.066C133.277 32.3448 133.786 32.4499 134.295 32.3813C134.804 32.3128 135.327 32.0451 135.865 31.5782ZM132.563 26.8528L137.134 29.3571C137.457 28.6388 137.57 28.0297 137.475 27.5299C137.332 26.7565 136.908 26.177 136.204 25.7913C135.567 25.4422 134.911 25.3599 134.236 25.5446C133.566 25.7321 133.008 26.1681 132.563 26.8528Z" fill="#363636"/>
<path d="M144.385 29.3706L150.249 33.7976L144.539 41.1813L143.284 40.2335L148.192 33.8857L144.846 31.3598L142.002 35.0377C141.339 35.8952 140.874 36.4395 140.606 36.6706C140.338 36.9017 140 37.0239 139.589 37.0372C139.179 37.0505 138.735 36.8771 138.258 36.517C137.964 36.2946 137.639 36.0201 137.284 35.6936L138.091 34.6507L138.645 35.069C138.907 35.2667 139.114 35.3824 139.265 35.4162C139.421 35.4453 139.562 35.416 139.689 35.3284C139.816 35.2408 140.127 34.8771 140.621 34.2375L144.385 29.3706Z" fill="#363636"/>
<path d="M149.399 39.0493C150.643 37.8494 151.902 37.3028 153.176 37.4092C154.238 37.5007 155.174 37.9573 155.984 38.779C156.886 39.6924 157.319 40.7319 157.283 41.8973C157.252 43.0587 156.703 44.1539 155.636 45.1829C154.771 46.0167 153.962 46.5442 153.21 46.7656C152.465 46.987 151.713 46.9838 150.953 46.756C150.198 46.5324 149.534 46.1307 148.962 45.5509C148.044 44.6208 147.603 43.5771 147.638 42.4199C147.677 41.2669 148.264 40.1433 149.399 39.0493ZM150.541 40.2067C149.68 41.0364 149.218 41.8443 149.154 42.6304C149.095 43.4124 149.342 44.0849 149.898 44.648C150.449 45.2069 151.123 45.4645 151.92 45.4209C152.716 45.3773 153.555 44.9304 154.437 44.0804C155.268 43.2791 155.711 42.4854 155.767 41.6992C155.831 40.9132 155.589 40.2428 155.042 39.688C154.486 39.1249 153.812 38.8632 153.02 38.9028C152.228 38.9423 151.401 39.377 150.541 40.2067Z" fill="#363636"/>
<path d="M150.945 52.3871L161.442 44.8694L162.293 46.0325L161.307 46.7387C161.894 46.7366 162.409 46.8399 162.852 47.0486C163.3 47.2539 163.704 47.6024 164.064 48.0941C164.534 48.7372 164.783 49.424 164.809 50.1545C164.836 50.8851 164.636 51.594 164.209 52.2813C163.788 52.9652 163.215 53.5664 162.491 54.085C161.714 54.6411 160.912 55.0032 160.084 55.1711C159.264 55.3404 158.493 55.2797 157.772 54.989C157.06 54.6995 156.49 54.264 156.065 53.6825C155.753 53.2569 155.563 52.8091 155.495 52.339C155.431 51.8737 155.457 51.4333 155.574 51.0179L151.88 53.6637L150.945 52.3871ZM158.451 48.7736C157.474 49.473 156.896 50.1861 156.717 50.9129C156.537 51.6397 156.651 52.282 157.06 52.8399C157.475 53.4073 158.07 53.7197 158.846 53.777C159.629 53.8356 160.528 53.5016 161.543 52.7749C162.51 52.0823 163.089 51.3652 163.279 50.6234C163.473 49.8864 163.369 49.2436 162.968 48.6952C162.57 48.1514 161.96 47.8534 161.137 47.801C160.323 47.75 159.428 48.0742 158.451 48.7736Z" fill="#363636"/>
<path d="M165.765 63.3121L166.343 64.8526C165.374 65.0604 164.493 64.9758 163.7 64.599C162.908 64.2222 162.26 63.5537 161.757 62.5935C161.123 61.3841 160.993 60.2326 161.366 59.1388C161.747 58.0476 162.612 57.1554 163.962 56.4624C165.359 55.7452 166.631 55.5468 167.778 55.867C168.925 56.1872 169.797 56.9183 170.395 58.0602C170.974 59.1657 171.07 60.2629 170.681 61.3516C170.292 62.4403 169.412 63.3365 168.041 64.0403C167.958 64.0831 167.831 64.1447 167.662 64.2252L164.432 58.059C163.547 58.5792 162.983 59.1947 162.74 59.9055C162.497 60.6163 162.557 61.3169 162.918 62.0072C163.187 62.521 163.553 62.8901 164.014 63.1142C164.475 63.3384 165.059 63.4044 165.765 63.3121ZM165.63 57.5428L168.048 62.1597C168.714 61.7388 169.145 61.2934 169.342 60.8234C169.651 60.0988 169.619 59.3809 169.246 58.6698C168.909 58.0262 168.409 57.5949 167.745 57.3758C167.084 57.1619 166.379 57.2176 165.63 57.5428Z" fill="#363636"/>
<path d="M173.469 64.633L173.999 66.1235L172.331 66.7062C171.612 66.9574 171.104 67.1815 170.807 67.3783C170.518 67.5787 170.309 67.8843 170.182 68.2951C170.06 68.7039 170.086 69.1539 170.261 69.6452C170.462 70.2083 170.87 70.8848 171.487 71.6748L175.478 70.2803L176.008 71.7708L167.197 74.8496L166.666 73.3591L170.218 72.1183C169.604 71.3025 169.156 70.497 168.873 69.7021C168.635 69.0341 168.594 68.3845 168.748 67.7532C168.911 67.1255 169.206 66.6346 169.633 66.2804C170.061 65.9262 170.57 65.6457 171.162 65.4389L173.469 64.633Z" fill="#363636"/>
<path d="M172.263 83.1036L172.388 84.7456C171.4 84.6791 170.579 84.3554 169.924 83.7747C169.269 83.194 168.835 82.3723 168.62 81.3097C168.351 79.9713 168.548 78.827 169.211 77.8768C169.881 76.9311 170.96 76.3103 172.449 76.0145C173.989 75.7083 175.264 75.8671 176.275 76.4907C177.285 77.1143 177.917 78.0579 178.172 79.3216C178.418 80.5451 178.203 81.6273 177.526 82.5684C176.849 83.5095 175.754 84.1302 174.243 84.4306C174.151 84.4489 174.013 84.4735 173.828 84.5043L172.453 77.6804C171.459 77.9378 170.746 78.3752 170.314 78.9926C169.883 79.6101 169.744 80.3008 169.898 81.0647C170.013 81.6334 170.26 82.089 170.64 82.4317C171.019 82.7744 171.561 82.9984 172.263 83.1036ZM173.746 77.513L174.775 82.6223C175.531 82.4003 176.07 82.0902 176.39 81.692C176.888 81.0792 177.058 80.3793 176.899 79.5924C176.756 78.8802 176.396 78.3273 175.821 77.9339C175.247 77.5462 174.555 77.4059 173.746 77.513Z" fill="#363636"/>
<path d="M96.4535 171.156L94.8102 171.046C95.015 170.078 95.451 169.311 96.1181 168.745C96.7852 168.18 97.66 167.867 98.7422 167.807C100.105 167.73 101.211 168.088 102.058 168.88C102.9 169.678 103.363 170.835 103.447 172.35C103.533 173.918 103.197 175.157 102.437 176.068C101.678 176.979 100.654 177.471 99.3673 177.543C98.1212 177.612 97.0798 177.245 96.2433 176.441C95.4067 175.637 94.946 174.465 94.8611 172.926C94.8559 172.833 94.8511 172.692 94.8466 172.505L101.797 172.117C101.682 171.096 101.349 170.328 100.798 169.813C100.248 169.298 99.5832 169.062 98.8051 169.106C98.2259 169.138 97.74 169.318 97.3472 169.645C96.9545 169.972 96.6566 170.476 96.4535 171.156ZM101.781 173.42L96.5768 173.711C96.6903 174.491 96.9216 175.068 97.2708 175.442C97.8075 176.022 98.4766 176.29 99.2781 176.245C100.004 176.204 100.601 175.927 101.072 175.414C101.537 174.901 101.773 174.236 101.781 173.42Z" fill="#363636"/>
<path d="M179.377 87.7153L179.463 89.295L175.584 89.5106L175.821 93.8899L179.7 93.6744L179.786 95.2541L170.466 95.772L170.381 94.1922L174.514 93.9626L174.277 89.5832L170.143 89.8129L170.058 88.2332L179.377 87.7153Z" fill="#363636"/>
<path d="M90.7595 177.555L89.1832 177.421L89.5293 173.551L85.1594 173.178L84.8134 177.047L83.2371 176.913L84.0686 167.616L85.6449 167.75L85.2761 171.874L89.6459 172.247L90.0147 168.124L91.591 168.259L90.7595 177.555Z" fill="#363636"/>
<path d="M173.454 103.735L173.143 105.273C172.085 105.032 171.277 104.541 170.718 103.799C170.165 103.063 169.924 102.187 169.995 101.17C170.085 99.8955 170.572 98.8974 171.457 98.1753C172.347 97.4595 173.569 97.1534 175.125 97.2571C176.13 97.3241 176.998 97.5493 177.729 97.9328C178.46 98.3162 178.989 98.8594 179.315 99.5623C179.647 100.272 179.785 101.027 179.729 101.827C179.658 102.838 179.343 103.648 178.783 104.257C178.229 104.866 177.475 105.23 176.521 105.348L176.392 103.798C177.028 103.694 177.517 103.465 177.859 103.112C178.201 102.765 178.39 102.328 178.427 101.802C178.483 101.007 178.241 100.342 177.703 99.8072C177.171 99.2726 176.288 98.9642 175.055 98.882C173.803 98.7986 172.878 98.9777 172.277 99.4192C171.676 99.8606 171.349 100.467 171.294 101.239C171.251 101.858 171.405 102.388 171.755 102.829C172.106 103.269 172.673 103.571 173.454 103.735Z" fill="#363636"/>
<path d="M75.649 169.485L74.1695 168.968C74.5631 167.955 75.1685 167.223 75.9858 166.772C76.7961 166.326 77.7002 166.207 78.6979 166.417C79.948 166.68 80.8661 167.298 81.4523 168.271C82.0316 169.249 82.156 170.499 81.8256 172.023C81.6119 173.007 81.2616 173.835 80.7745 174.505C80.2874 175.175 79.6715 175.623 78.9268 175.85C78.1752 176.081 77.4066 176.114 76.621 175.949C75.629 175.741 74.8723 175.318 74.3508 174.682C73.8282 174.051 73.5779 173.256 73.6002 172.297L75.1557 172.381C75.1661 173.024 75.3213 173.539 75.6212 173.925C75.9154 174.31 76.3205 174.557 76.8366 174.665C77.6164 174.829 78.3109 174.682 78.9201 174.223C79.528 173.77 79.963 172.939 80.2251 171.731C80.4909 170.506 80.449 169.566 80.0993 168.912C79.7496 168.257 79.1962 167.851 78.4393 167.692C77.8315 167.564 77.2837 167.644 76.7958 167.93C76.3079 168.217 75.9257 168.735 75.649 169.485Z" fill="#363636"/>
<path d="M178.93 107.809L178.638 109.364L174.669 108.643C174.576 109.138 174.606 109.501 174.759 109.731C174.912 109.968 175.41 110.362 176.254 110.914C176.923 111.351 177.355 111.686 177.55 111.918C177.745 112.15 177.859 112.397 177.894 112.659C177.928 112.921 177.893 113.326 177.791 113.873L177.732 114.184L176.444 113.95L176.534 113.52C176.61 113.111 176.599 112.838 176.5 112.701C176.396 112.557 176.053 112.304 175.471 111.942C174.915 111.597 174.541 111.306 174.347 111.068C174.153 110.83 174 110.49 173.886 110.046C173.582 110.682 172.836 111.225 171.648 111.676L168.484 112.861L168.805 111.151L171.962 110.009C172.596 109.773 173.027 109.545 173.253 109.324C173.485 109.104 173.634 108.818 173.7 108.467L169.454 107.695L169.746 106.141L178.93 107.809Z" fill="#363636"/>
<path d="M70.7103 174.335L69.2088 173.837L70.5125 170.019C70.0342 169.86 69.6693 169.841 69.4178 169.961C69.1606 170.079 68.6953 170.518 68.0216 171.275C67.4883 171.876 67.092 172.257 66.8328 172.418C66.5735 172.579 66.3111 172.659 66.0455 172.657C65.7798 172.655 65.3829 172.566 64.8546 172.391L64.5543 172.291L64.9775 171.052L65.3917 171.199C65.7865 171.33 66.0594 171.356 66.2104 171.276C66.3689 171.193 66.6708 170.889 67.1163 170.364C67.5413 169.863 67.8861 169.533 68.1509 169.374C68.4157 169.215 68.7768 169.109 69.2341 169.057C68.6477 168.671 68.2183 167.862 67.9457 166.629L67.2369 163.347L68.8885 163.896L69.5556 167.164C69.6963 167.822 69.8596 168.277 70.0456 168.53C70.2297 168.789 70.4913 168.975 70.8306 169.087L72.2251 165.003L73.7265 165.502L70.7103 174.335Z" fill="#363636"/>
<path d="M166.659 118.841L168.358 119.442L167.742 121.135L166.044 120.534L166.659 118.841Z" fill="#363636"/>
<path d="M61.451 160.761L60.6005 162.35L59.0032 161.516L59.8537 159.928L61.451 160.761Z" fill="#363636"/>
<path d="M173.898 134.897L169.617 142.076L168.303 141.312L171.711 135.598L168.276 133.6L166.701 136.243C166.118 137.219 165.563 137.939 165.033 138.404C164.5 138.874 163.87 139.131 163.141 139.174C162.417 139.221 161.711 139.044 161.022 138.644C160.46 138.317 160.008 137.885 159.667 137.347C159.328 136.818 159.151 136.217 159.136 135.544C159.121 134.871 159.468 133.941 160.176 132.753L162.76 128.42L173.898 134.897ZM163.14 130.614L161.393 133.543C160.922 134.333 160.732 135.018 160.822 135.599C160.909 136.185 161.277 136.667 161.925 137.044C162.386 137.312 162.838 137.423 163.282 137.376C163.726 137.329 164.119 137.134 164.461 136.79C164.802 136.446 165.262 135.789 165.842 134.818L167.007 132.863L163.14 130.614Z" fill="#363636"/>
<path d="M155.048 144.917L153.849 146.05C153.27 145.251 152.998 144.418 153.032 143.549C153.066 142.68 153.428 141.828 154.119 140.993C154.989 139.941 156.006 139.369 157.17 139.277C158.334 139.193 159.506 139.627 160.687 140.581C161.909 141.567 162.599 142.645 162.759 143.813C162.918 144.98 162.587 146.061 161.765 147.054C160.97 148.016 159.99 148.535 158.825 148.611C157.659 148.687 156.477 148.24 155.279 147.272C155.206 147.213 155.098 147.123 154.956 147L159.392 141.636C158.557 141.037 157.761 140.767 157.005 140.827C156.249 140.886 155.622 141.216 155.126 141.817C154.756 142.264 154.559 142.741 154.535 143.249C154.51 143.756 154.681 144.312 155.048 144.917ZM160.348 142.521L157.027 146.538C157.682 146.977 158.267 147.193 158.782 147.187C159.577 147.181 160.23 146.869 160.742 146.251C161.205 145.691 161.406 145.066 161.345 144.377C161.281 143.692 160.948 143.073 160.348 142.521Z" fill="#363636"/>
<path d="M155.701 153.555L150.248 158.479L143.914 151.623L145.082 150.569L150.527 156.463L153.638 153.653L150.483 150.238C149.748 149.442 149.289 148.893 149.106 148.592C148.924 148.291 148.863 147.94 148.923 147.538C148.983 147.137 149.234 146.736 149.678 146.335C149.952 146.088 150.283 145.82 150.671 145.533L151.566 146.501L151.051 146.966C150.807 147.186 150.655 147.367 150.594 147.509C150.538 147.655 150.542 147.797 150.606 147.936C150.671 148.075 150.978 148.442 151.526 149.035L155.701 153.555Z" fill="#363636"/>
<path d="M145.063 156.759C146.037 158.187 146.358 159.511 146.028 160.732C145.75 161.749 145.131 162.578 144.171 163.219C143.103 163.931 141.993 164.165 140.841 163.92C139.691 163.68 138.699 162.947 137.864 161.722C137.187 160.73 136.805 159.847 136.717 159.074C136.629 158.31 136.764 157.578 137.125 156.879C137.48 156.184 137.997 155.61 138.674 155.158C139.761 154.433 140.877 154.192 142.021 154.435C143.161 154.682 144.175 155.456 145.063 156.759ZM143.711 157.661C143.037 156.674 142.315 156.078 141.545 155.873C140.778 155.674 140.065 155.794 139.407 156.233C138.754 156.669 138.379 157.278 138.282 158.062C138.185 158.845 138.481 159.743 139.171 160.754C139.822 161.708 140.533 162.283 141.305 162.479C142.075 162.683 142.785 162.569 143.433 162.137C144.091 161.697 144.47 161.089 144.57 160.31C144.671 159.532 144.384 158.649 143.711 157.661Z" fill="#363636"/>
<path d="M131.659 155.712L137.302 167.325L136.001 167.945L135.471 166.854C135.371 167.427 135.18 167.911 134.896 168.305C134.615 168.705 134.199 169.036 133.649 169.299C132.93 169.641 132.205 169.759 131.476 169.652C130.746 169.546 130.078 169.222 129.469 168.681C128.864 168.145 128.366 167.476 127.977 166.675C127.56 165.816 127.339 164.967 127.316 164.128C127.29 163.297 127.483 162.556 127.897 161.905C128.307 161.261 128.838 160.785 129.488 160.475C129.964 160.248 130.442 160.144 130.92 160.163C131.393 160.184 131.825 160.29 132.217 160.479L130.231 156.392L131.659 155.712ZM133.946 163.696C133.421 162.615 132.813 161.921 132.123 161.614C131.433 161.307 130.776 161.302 130.152 161.599C129.517 161.902 129.104 162.426 128.913 163.173C128.72 163.927 128.896 164.865 129.441 165.988C129.961 167.058 130.572 167.753 131.275 168.073C131.973 168.397 132.629 168.412 133.242 168.12C133.851 167.83 134.252 167.288 134.446 166.495C134.638 165.709 134.471 164.776 133.946 163.696Z" fill="#363636"/>
<path d="M118.004 168.255L116.38 168.537C116.345 167.549 116.583 166.703 117.095 165.996C117.606 165.29 118.381 164.779 119.418 164.464C120.724 164.068 121.885 164.153 122.901 164.721C123.912 165.295 124.642 166.308 125.089 167.758C125.553 169.258 125.525 170.54 125.008 171.603C124.49 172.667 123.614 173.386 122.381 173.76C121.186 174.123 120.085 174.013 119.078 173.431C118.07 172.849 117.339 171.822 116.884 170.349C116.857 170.26 116.818 170.125 116.768 169.944L123.429 167.922C123.071 166.959 122.561 166.293 121.902 165.924C121.242 165.555 120.539 165.483 119.793 165.71C119.238 165.878 118.81 166.168 118.507 166.578C118.204 166.988 118.037 167.547 118.004 168.255ZM123.729 169.19L118.742 170.704C119.041 171.434 119.405 171.939 119.835 172.218C120.497 172.654 121.212 172.756 121.98 172.523C122.675 172.311 123.189 171.901 123.522 171.292C123.85 170.684 123.919 169.984 123.729 169.19Z" fill="#363636"/>
<path d="M115.163 175.581L113.6 175.83L113.319 174.086C113.198 173.334 113.066 172.794 112.925 172.467C112.778 172.146 112.513 171.885 112.131 171.685C111.75 171.491 111.301 171.435 110.786 171.517C110.196 171.611 109.457 171.889 108.57 172.351L109.243 176.525L107.681 176.774L106.195 167.559L107.758 167.31L108.356 171.024C109.268 170.57 110.141 170.276 110.974 170.143C111.674 170.032 112.322 170.109 112.917 170.376C113.507 170.65 113.939 171.029 114.213 171.513C114.487 171.998 114.674 172.55 114.774 173.169L115.163 175.581Z" fill="#363636"/>
</svg>
