<svg width="276" height="179" viewBox="0 0 276 179" fill="none" xmlns="http://www.w3.org/2000/svg">
<path d="M112.05 69.297C112.523 69.2426 113.032 69.2545 113.502 69.299C113.171 70.098 112.614 70.6414 111.793 70.7359C111.223 70.8016 110.781 70.5142 110.739 70.1526C110.693 69.7493 111.202 69.3947 112.05 69.297ZM110.413 65.1169C110.747 65.0784 110.757 64.7955 111.521 64.7074C112.704 64.5712 113.608 65.6931 113.773 67.1257C113.824 67.5707 113.806 68.0238 113.73 68.4694C113.174 68.4067 112.566 68.3921 111.954 68.4626C111.133 68.5571 109.759 68.9831 109.905 70.2487C110.023 71.2779 111.069 71.6649 111.889 71.5704C113.155 71.4246 113.977 70.4844 114.36 69.4115C115.44 69.6112 115.764 69.8558 116.056 69.8221C116.265 69.7981 116.454 69.6072 116.426 69.3568C116.41 69.2177 116.31 69.0883 116.161 69.0208C116.117 68.9978 115.485 68.7746 114.563 68.599C114.644 68.0823 114.667 67.5442 114.607 67.0296C114.42 65.4023 113.303 63.6567 111.425 63.8729C110.619 63.9658 110.167 64.3278 110.102 64.3776C110.001 64.4738 109.933 64.6225 109.949 64.7616C109.978 65.0119 110.204 65.1409 110.413 65.1169Z" fill="#C2000D"/>
<path d="M117.634 64.4859C117.494 64.4879 117.369 64.5457 117.287 64.6729C116.972 65.1675 116.812 65.7439 116.82 66.3178C116.838 67.5217 117.747 68.4047 118.951 68.3873C120.42 68.366 121.734 67.2129 121.712 65.6871C121.695 64.5532 120.858 63.7392 119.724 63.7556C119.318 63.7615 118.326 63.9298 118.334 64.4758C118.337 64.7137 118.55 64.8927 118.76 64.8897C118.844 64.8884 118.928 64.8732 118.997 64.8162C119.191 64.6734 119.456 64.5996 119.736 64.5955C120.422 64.5856 120.862 65.0133 120.872 65.6992C120.886 66.6931 119.988 67.5322 118.938 67.5474C118.183 67.5583 117.671 67.0616 117.66 66.3057C117.655 65.8997 117.761 65.4921 117.994 65.1387C118.035 65.0681 118.061 64.9838 118.06 64.8998C118.057 64.6898 117.872 64.4824 117.634 64.4859Z" fill="#C2000D"/>
<path d="M126.468 62.0635C126.466 61.5875 125.752 61.5063 125.346 61.5079C123.946 61.5133 122.831 62.8476 122.836 64.1776C122.841 65.3116 123.67 66.1344 124.804 66.13C125.574 66.127 126.259 65.9423 127.139 65.3509C127.264 65.2664 127.32 65.1402 127.319 65.0002C127.319 64.7622 127.108 64.581 126.898 64.5818C126.814 64.5822 126.73 64.6105 126.66 64.6528C125.864 65.1879 125.431 65.2876 124.801 65.29C124.115 65.2927 123.679 64.8604 123.676 64.1744C123.673 63.2644 124.509 62.3511 125.349 62.3478C125.601 62.3469 125.713 62.3604 125.868 62.4438C125.924 62.4716 125.994 62.4853 126.05 62.4851C126.26 62.4843 126.469 62.3155 126.468 62.0635Z" fill="#C2000D"/>
<path d="M138.461 62.9597C138.349 62.9693 138.255 63.0195 138.179 63.1103C137.975 63.3526 137.827 63.4355 137.52 63.4618C136.823 63.5215 136.475 61.9213 136.268 60.3231C136.235 60.1011 136.038 59.9353 135.815 59.9544C135.62 59.9711 135.464 60.125 135.438 60.3099C135.247 61.6892 134.832 63.4108 133.73 63.5052C133.089 63.5601 132.711 63.0866 132.634 62.1938C132.588 61.6498 132.583 61.4255 132.648 60.8719C132.645 60.844 132.657 60.8149 132.655 60.787C132.637 60.5778 132.451 60.3829 132.2 60.4044C132.005 60.4211 131.851 60.5888 131.823 60.7598C131.633 61.9845 130.948 64.1648 129.86 64.258C129.302 64.3057 129 64.0506 128.952 63.4926C128.891 62.7813 128.954 62.1998 129.162 61.3529C129.172 61.3099 129.183 61.2668 129.179 61.225C129.161 61.0158 128.976 60.8208 128.725 60.8423C128.544 60.8579 128.401 60.9965 128.359 61.1687C128.153 62.0435 128.044 62.7413 128.115 63.5643C128.198 64.5407 128.956 65.1785 129.932 65.0949C130.992 65.0041 131.614 64.0657 132.003 63.1893C132.286 63.8677 132.895 64.4197 133.802 64.3421C134.89 64.249 135.475 63.3699 135.808 62.4983C136.048 63.3349 136.518 64.3907 137.592 64.2987C138.122 64.2533 138.509 64.0095 138.815 63.6461C138.891 63.5552 138.925 63.454 138.915 63.3424C138.896 63.1192 138.684 62.9406 138.461 62.9597ZM135.735 54.1601C135.715 53.923 135.504 53.7584 135.281 53.7775L135.253 53.7799C132.326 54.2271 132.096 54.3311 127.912 54.6893C127.689 54.7084 127.51 54.9204 127.529 55.1436C127.548 55.3667 127.76 55.5453 127.983 55.5262C132.168 55.168 132.482 55.0569 135.38 54.612C135.602 54.579 135.753 54.3694 135.735 54.1601Z" fill="#C2000D"/>
<path d="M143.402 60.2234C143.399 60.1815 143.382 60.1405 143.365 60.0996C143.129 59.5125 142.529 59.1608 141.929 59.2021C140.392 59.3077 139.105 60.996 139.207 62.4765C139.261 63.2587 139.801 63.9793 140.709 63.9168C141.603 63.8554 142.424 63.3498 143.103 62.6155C143.213 62.9869 143.461 63.7276 143.922 63.6959C144.159 63.6796 144.326 63.4576 144.312 63.2481C144.306 63.1643 144.272 63.0824 144.226 63.0155C143.98 62.7096 143.822 62.2434 143.777 61.6009C143.764 61.4053 143.567 61.1944 143.33 61.2107C143.204 61.2193 143.096 61.2829 143.019 61.3864C142.291 62.4328 141.448 63.0241 140.652 63.0788C140.302 63.1028 140.077 62.8938 140.045 62.4189C139.974 61.3853 141.008 60.1073 141.986 60.0401C142.224 60.0238 142.501 60.1731 142.601 60.4048C142.668 60.5686 142.83 60.6837 143.012 60.6712C143.263 60.6539 143.416 60.4329 143.402 60.2234Z" fill="#C2000D"/>
<path d="M163.502 59.393C163.502 59.351 163.487 59.3092 163.472 59.2674C163.268 58.6681 162.689 58.284 162.087 58.2922C160.547 58.3131 159.169 59.928 159.189 61.4118C159.2 62.1958 159.7 62.945 160.61 62.9327C161.506 62.9205 162.354 62.4609 163.072 61.7651C163.161 62.1419 163.368 62.8952 163.83 62.8889C164.068 62.8857 164.247 62.6732 164.244 62.4632C164.243 62.3792 164.214 62.2956 164.171 62.2262C163.942 61.9073 163.81 61.433 163.801 60.7891C163.798 60.5931 163.613 60.3716 163.375 60.3748C163.249 60.3766 163.138 60.4341 163.056 60.5332C162.271 61.538 161.396 62.0819 160.599 62.0927C160.249 62.0975 160.036 61.8764 160.029 61.4004C160.015 60.3645 161.119 59.1454 162.098 59.1321C162.336 59.1289 162.605 59.2932 162.692 59.5301C162.75 59.6973 162.906 59.8212 163.088 59.8187C163.34 59.8153 163.505 59.603 163.502 59.393Z" fill="#C2000D"/>
<path d="M147.89 60.5822C148.072 60.576 148.222 60.4447 148.272 60.2749C148.348 60.0342 148.608 59.8571 148.846 59.8489C149.265 59.8345 149.556 60.1327 149.574 60.6644C149.608 61.6438 148.443 62.8045 147.408 62.8401C146.974 62.8551 146.268 62.291 146.202 60.3601C146.067 56.4564 146.84 55.2952 147.288 55.2798C147.526 55.2716 147.857 55.5404 147.876 56.1C147.905 56.9256 147.59 57.1325 147.576 57.147C147.439 57.2357 147.36 57.3786 147.365 57.5185C147.373 57.7703 147.589 57.931 147.799 57.9238C147.855 57.9219 147.924 57.9055 147.979 57.8755C148.103 57.8153 148.76 57.3584 148.716 56.0712C148.687 55.2317 148.14 54.41 147.259 54.4403C145.748 54.4923 145.237 56.7372 145.362 60.389C145.431 62.3758 146.191 63.7225 147.437 63.6796C148.92 63.6286 150.467 62.1746 150.414 60.6355C150.384 59.768 149.796 58.9757 148.817 59.0094C148.215 59.0301 147.655 59.4416 147.48 60.05C147.467 60.0925 147.455 60.1349 147.456 60.1769C147.463 60.3868 147.638 60.5909 147.89 60.5822Z" fill="#C2000D"/>
<path d="M158.042 61.8423C157.959 61.8456 157.876 61.877 157.807 61.9217C157.031 62.4849 156.601 62.6001 155.972 62.6251C155.286 62.6523 154.836 62.2358 154.808 61.5504C154.788 61.0468 155.026 60.3368 156.315 59.6271C156.452 59.5516 156.544 59.3938 156.538 59.2399C156.528 58.9881 156.312 58.8286 156.102 58.8369L156.032 58.8397C154.392 59.185 153.126 60.4542 152.354 61.4797C152.37 60.8205 152.369 60.092 152.341 59.4065C152.333 59.1827 152.129 58.9946 151.905 59.0035C151.681 59.0124 151.493 59.216 151.502 59.4398C151.561 60.9366 151.466 62.7759 151.381 63.1015C151.369 63.144 151.371 63.186 151.372 63.228C151.381 63.4378 151.543 63.6415 151.809 63.631C151.976 63.6243 152.126 63.5203 152.19 63.3496C152.252 63.151 152.943 61.8486 154.066 60.8373C153.991 61.0784 153.96 61.3459 153.969 61.5837C154.014 62.7168 154.872 63.5094 156.005 63.4644C156.775 63.4339 157.453 63.2248 158.311 62.6023C158.433 62.5133 158.484 62.3852 158.479 62.2453C158.469 62.0075 158.252 61.834 158.042 61.8423Z" fill="#C2000D"/>
<path d="M182.576 63.0905C182.465 63.0815 182.364 63.1154 182.273 63.1924C182.032 63.3975 181.873 63.4548 181.566 63.43C180.868 63.3734 180.79 61.7377 180.85 60.1273C180.854 59.9029 180.688 59.7068 180.464 59.6887C180.269 59.6729 180.09 59.7989 180.034 59.9769C179.617 61.3055 178.923 62.9348 177.821 62.8454C177.179 62.7934 176.885 62.2639 176.957 61.3708C177.001 60.8266 177.033 60.6045 177.189 60.0693C177.191 60.0414 177.207 60.0146 177.21 59.9867C177.227 59.7774 177.076 59.5545 176.825 59.5341C176.63 59.5183 176.45 59.6582 176.394 59.8223C176.004 60.9986 174.968 63.0355 173.879 62.9473C173.321 62.902 173.065 62.6003 173.11 62.0422C173.168 61.3305 173.326 60.7674 173.672 59.9667C173.689 59.926 173.706 59.8853 173.71 59.8434C173.727 59.6341 173.576 59.4112 173.325 59.3909C173.144 59.3762 172.98 59.4893 172.911 59.6522C172.562 60.4808 172.34 61.151 172.273 61.9743C172.194 62.9511 172.835 63.7054 173.812 63.7845C174.872 63.8705 175.641 63.048 176.169 62.248C176.336 62.9639 176.846 63.6091 177.753 63.6827C178.841 63.7709 179.564 63.0008 180.036 62.1963C180.135 63.0611 180.423 64.1801 181.498 64.2672C182.028 64.3102 182.45 64.1337 182.812 63.8259C182.902 63.749 182.952 63.6547 182.961 63.5431C182.979 63.3198 182.8 63.1086 182.576 63.0905ZM181.345 53.9611C181.364 53.7239 181.183 53.5267 180.96 53.5086L180.932 53.5063C177.972 53.463 177.728 53.5275 173.542 53.1881C173.318 53.17 173.107 53.3495 173.089 53.5728C173.071 53.796 173.25 54.0072 173.474 54.0253C177.66 54.3647 177.988 54.307 180.92 54.3481C181.144 54.3522 181.328 54.1704 181.345 53.9611Z" fill="#C2000D"/>
<path d="M185.745 60.9033C185.606 60.8833 185.473 60.9207 185.372 61.0333C184.983 61.4721 184.735 62.0162 184.653 62.5842C184.48 63.7758 185.239 64.7909 186.43 64.9634C187.885 65.174 189.364 64.2422 189.582 62.7319C189.745 61.6096 189.046 60.6738 187.923 60.5114C187.522 60.4532 186.516 60.4632 186.437 61.0036C186.403 61.2392 186.585 61.4494 186.793 61.4794C186.876 61.4915 186.961 61.4896 187.039 61.4443C187.253 61.3338 187.526 61.3026 187.803 61.3427C188.482 61.441 188.849 61.9327 188.751 62.6116C188.609 63.5953 187.59 64.2825 186.551 64.1321C185.802 64.0238 185.376 63.4528 185.484 62.7046C185.542 62.3028 185.711 61.917 185.997 61.6047C186.048 61.5414 186.088 61.4623 186.1 61.3792C186.13 61.1713 185.98 60.9374 185.745 60.9033Z" fill="#C2000D"/>
<path d="M193.607 62.6473C193.786 62.6783 193.959 62.5804 194.043 62.4244C194.166 62.2042 194.457 62.084 194.692 62.1245C195.106 62.1961 195.329 62.5473 195.238 63.0716C195.071 64.0372 193.694 64.9356 192.673 64.759C192.245 64.6851 191.67 63.9887 191.999 62.085C192.665 58.2362 193.658 57.2572 194.1 57.3335C194.334 57.3741 194.604 57.7049 194.508 58.2567C194.367 59.0706 194.017 59.2088 194.001 59.2202C193.848 59.2792 193.742 59.4028 193.718 59.5407C193.675 59.7891 193.853 59.9904 194.06 60.0262C194.115 60.0357 194.187 60.0339 194.247 60.0158C194.38 59.9821 195.116 59.669 195.336 58.3999C195.479 57.5721 195.112 56.6561 194.243 56.5058C192.753 56.2481 191.794 58.3413 191.171 61.9418C190.832 63.9007 191.302 65.3744 192.53 65.5867C193.992 65.8397 195.803 64.7322 196.066 63.2147C196.214 62.3594 195.801 61.4639 194.835 61.2968C194.242 61.1942 193.609 61.4827 193.314 62.0424C193.293 62.0814 193.272 62.1204 193.264 62.1618C193.229 62.3687 193.358 62.6043 193.607 62.6473Z" fill="#C2000D"/>
<path d="M201.234 64.3367C201.242 64.2955 201.237 64.2515 201.231 64.2076C201.155 63.5791 200.667 63.0839 200.076 62.9678C198.565 62.6711 196.884 63.9673 196.598 65.4235C196.447 66.1928 196.782 67.0291 197.675 67.2044C198.554 67.3771 199.479 67.1021 200.325 66.5693C200.335 66.9564 200.381 67.736 200.835 67.825C201.068 67.8709 201.287 67.6999 201.328 67.4938C201.344 67.4114 201.333 67.3236 201.305 67.2468C201.147 66.8877 201.115 66.3963 201.239 65.7644C201.277 65.5721 201.142 65.3172 200.908 65.2713C200.785 65.247 200.664 65.2804 200.563 65.3604C199.588 66.1819 198.62 66.534 197.837 66.3802C197.493 66.3127 197.331 66.0525 197.422 65.5854C197.622 64.5688 198.953 63.6032 199.915 63.7921C200.148 63.838 200.377 64.0541 200.413 64.3038C200.436 64.4795 200.563 64.6328 200.741 64.6678C200.989 64.7164 201.194 64.5427 201.234 64.3367Z" fill="#C2000D"/>
<path d="M205.187 68.3721C205.093 68.81 205.631 69.0405 206.164 69.1555C207.451 69.4329 208.352 68.3096 208.582 67.2422C208.818 66.1473 208.383 64.9079 207.138 64.6393C205.797 64.3502 204.49 65.4289 203.298 67.8357C203.435 66.7339 203.471 66.0397 203.33 65.4939C203.292 65.3423 203.162 65.2141 203.011 65.1816C202.765 65.1285 202.556 65.2984 202.512 65.5037C202.5 65.5584 202.499 65.6298 202.515 65.6904C202.701 66.4181 202.44 68.4956 201.554 72.6013C201.516 72.7792 201.63 73.0473 201.876 73.1004C202.082 73.1446 202.309 73.0217 202.37 72.8057C204.126 66.6537 205.921 65.2362 206.961 65.4605C207.632 65.6051 207.938 66.244 207.761 67.0651C207.578 67.9136 206.971 68.4702 206.341 68.3344C205.917 68.2429 205.947 68.1061 205.687 68.05C205.481 68.0058 205.241 68.1257 205.187 68.3721Z" fill="#C2000D"/>
<path d="M210.496 66.4649C210.36 66.4338 210.224 66.4603 210.115 66.5645C209.692 66.9707 209.4 67.493 209.273 68.0527C209.005 69.2265 209.68 70.2993 210.853 70.5669C212.287 70.8936 213.835 70.0835 214.175 68.5957C214.427 67.49 213.805 66.5011 212.699 66.2491C212.303 66.1589 211.3 66.0881 211.179 66.6204C211.126 66.8525 211.29 67.0766 211.495 67.1233C211.577 67.142 211.662 67.147 211.742 67.1079C211.965 67.015 212.24 67.0059 212.513 67.0681C213.181 67.2206 213.508 67.7402 213.356 68.409C213.135 69.3781 212.064 69.9812 211.04 69.7479C210.303 69.5799 209.924 68.9764 210.092 68.2393C210.182 67.8435 210.381 67.4725 210.691 67.1842C210.748 67.1253 210.794 67.0496 210.812 66.9677C210.859 66.763 210.728 66.5178 210.496 66.4649Z" fill="#C2000D"/>
<path d="M217.64 69.2346C217.817 69.2759 217.996 69.188 218.088 69.0371C218.224 68.8243 218.521 68.7209 218.753 68.7749C219.162 68.87 219.365 69.2335 219.244 69.7516C219.022 70.7061 217.596 71.5242 216.587 71.2895C216.164 71.1911 215.629 70.463 216.067 68.5812C216.952 64.7768 218 63.8563 218.436 63.9578C218.668 64.0117 218.918 64.3574 218.791 64.9029C218.604 65.7074 218.246 65.8253 218.229 65.8358C218.074 65.8859 217.96 66.0032 217.929 66.1396C217.872 66.385 218.038 66.5962 218.243 66.6438C218.297 66.6565 218.368 66.6587 218.429 66.6441C218.565 66.6181 219.318 66.3477 219.609 65.0932C219.8 64.275 219.486 63.3395 218.627 63.1397C217.154 62.7971 216.077 64.8319 215.249 68.3909C214.798 70.3272 215.183 71.8253 216.397 72.1076C217.842 72.4439 219.714 71.4419 220.063 69.942C220.259 69.0965 219.898 68.1788 218.943 67.9567C218.357 67.8203 217.709 68.0721 217.382 68.614C217.359 68.6517 217.335 68.6895 217.326 68.7304C217.278 68.9349 217.394 69.1775 217.64 69.2346Z" fill="#C2000D"/>
<path d="M231.991 70.7181C231.814 70.678 231.622 70.7638 231.527 70.9289C231.296 71.379 231.015 72.1766 230.851 72.9003C230.635 73.8561 230.585 74.2037 230.54 74.9111C230.52 75.1221 230.681 75.302 230.872 75.3452C231.118 75.4009 231.328 75.2331 231.374 75.0283C231.51 74.4275 231.446 74.1403 231.581 73.4818C232.385 73.6064 233.234 73.5976 233.929 73.2526L233.855 73.5803C233.682 74.345 233.514 75.6563 234.757 75.9376C235.18 76.0334 235.598 75.8984 235.984 75.6554C236.084 75.592 236.147 75.5057 236.171 75.3965C236.221 75.178 236.073 74.9436 235.854 74.8941C235.745 74.8694 235.64 74.8887 235.54 74.9521C235.255 75.1317 235.065 75.1461 234.942 75.1183C234.546 75.0287 234.477 74.6396 234.674 73.7658L235.076 71.9907C235.12 71.7995 235.005 71.5439 234.759 71.4883C234.568 71.445 234.373 71.5445 234.289 71.7264C233.885 72.6253 232.932 72.8402 231.78 72.6656C231.931 72.1256 232.14 71.5843 232.27 71.3266C232.293 71.2888 232.302 71.2478 232.308 71.2205C232.354 71.0157 232.237 70.7738 231.991 70.7181Z" fill="#C2000D"/>
<path d="M241.846 74.3358C241.855 74.2948 241.851 74.2508 241.847 74.2067C241.787 73.5764 241.314 73.0679 240.726 72.9357C239.224 72.5976 237.508 73.8472 237.182 75.295C237.01 76.0599 237.322 76.905 238.209 77.1048C239.084 77.3016 240.015 77.052 240.876 76.5426C240.875 76.9298 240.9 77.7104 241.351 77.8119C241.583 77.8641 241.807 77.6992 241.853 77.4943C241.871 77.4124 241.862 77.3243 241.837 77.2468C241.689 76.8834 241.671 76.3914 241.812 75.7631C241.855 75.5719 241.727 75.3134 241.494 75.2611C241.371 75.2335 241.25 75.2635 241.146 75.3407C240.15 76.1352 239.172 76.4606 238.394 76.2853C238.052 76.2085 237.897 75.9438 238.001 75.4795C238.229 74.4687 239.586 73.54 240.542 73.7552C240.774 73.8075 240.997 74.0298 241.026 74.2804C241.044 74.4566 241.167 74.6134 241.344 74.6533C241.59 74.7087 241.8 74.5407 241.846 74.3358Z" fill="#C2000D"/>
<path d="M253.245 83.8604C253.366 83.3423 253.915 82.5935 254.628 81.9405C254.734 82.4109 254.759 82.9199 254.631 83.4652C254.488 84.0787 253.995 84.4667 253.559 84.3649C253.3 84.3044 253.185 84.1194 253.245 83.8604ZM256.809 77.2167C256.831 77.1212 256.813 77.0162 256.764 76.9185C256.522 76.474 256.114 76.1918 255.637 76.0804C254.464 75.8066 253.388 76.4755 253.114 77.6479C252.805 78.9704 253.817 80.0548 254.309 81.0897C253.441 81.8503 252.64 82.756 252.427 83.6694C252.265 84.3647 252.672 85.0206 253.368 85.1829C254.431 85.4312 255.242 84.5423 255.449 83.6562C255.65 82.7973 255.543 82.0247 255.325 81.3557C255.711 81.0576 256.101 80.8036 256.445 80.6251C256.559 80.5655 256.629 80.4524 256.654 80.3433C256.708 80.1116 256.559 79.8898 256.341 79.8388C256.245 79.8166 256.143 79.8215 256.046 79.8706C255.702 80.0492 255.343 80.2959 254.98 80.5562C254.882 80.3608 254.767 80.1758 254.662 80.0077C254.129 79.15 253.792 78.4388 253.932 77.8389C254.104 77.1027 254.709 76.7265 255.446 76.8984C255.732 76.9652 255.914 77.1084 256.036 77.3238C256.099 77.4247 256.195 77.5047 256.305 77.5302C256.536 77.5843 256.758 77.4348 256.809 77.2167Z" fill="#C2000D"/>
<path d="M258.151 77.8015C258.015 77.769 257.879 77.7943 257.768 77.8973C257.341 78.2993 257.045 78.8186 256.912 79.377C256.632 80.5481 257.296 81.6275 258.467 81.9068C259.897 82.2479 261.454 81.4533 261.808 79.969C262.071 78.8659 261.459 77.8708 260.356 77.6077C259.961 77.5136 258.958 77.4328 258.832 77.9639C258.776 78.1954 258.939 78.4211 259.143 78.4699C259.225 78.4893 259.309 78.4952 259.391 78.457C259.614 78.3663 259.889 78.3599 260.161 78.4248C260.828 78.584 261.15 79.1068 260.991 79.7741C260.76 80.741 259.683 81.3333 258.662 81.0898C257.927 80.9144 257.553 80.3072 257.729 79.5718C257.823 79.1769 258.026 78.808 258.339 78.5227C258.396 78.4644 258.442 78.3892 258.462 78.3075C258.511 78.1032 258.382 77.8567 258.151 77.8015Z" fill="#C2000D"/>
<path d="M269.596 80.5478C269.424 80.4891 269.237 80.5587 269.13 80.6996C268.031 82.1443 266.434 83.3156 265.771 83.0897C265.48 82.9903 265.336 82.6307 265.603 81.8489C265.806 81.2526 266.168 80.6662 266.46 80.1591C266.469 80.1326 266.491 80.1106 266.5 80.0841C266.568 79.8853 266.476 79.6323 266.238 79.551C266.066 79.4923 265.879 79.5619 265.772 79.7028C264.651 81.1695 263.182 82.3549 262.678 82.1833C262.559 82.1426 262.405 82.0309 262.256 81.7288C262.204 81.6222 262.125 81.5508 262.019 81.5147C261.807 81.4424 261.558 81.5647 261.486 81.7767C261.45 81.8827 261.458 81.989 261.51 82.0956C261.711 82.5043 261.996 82.8383 262.407 82.9783C263.176 83.2403 263.963 82.71 264.667 82.1215C264.556 82.7937 264.692 83.6092 265.5 83.8848C266.348 84.1739 267.259 83.6709 268.056 83.0255C267.922 83.8082 268.124 84.7792 269.078 85.1044C269.29 85.1767 269.539 85.0544 269.611 84.8424C269.683 84.6304 269.561 84.3816 269.349 84.3093C268.885 84.1512 268.717 83.5613 268.961 82.8457C269.213 82.1036 269.522 81.6763 269.818 81.1559C269.827 81.1294 269.849 81.1074 269.858 81.0809C269.926 80.8821 269.834 80.6291 269.596 80.5478Z" fill="#C2000D"/>
<path d="M109.851 65.1824C107.606 65.9274 105.917 67.8662 103.987 69.2474C101.134 71.2893 97.8562 73.3489 94.6411 74.6103C90.6272 76.185 86.1358 77.5698 81.6377 76.4793C79.8202 76.0387 77.9513 75.7178 76.151 75.1004C73.5969 74.2246 71.128 73.3724 68.5252 72.9335C65.164 72.3668 61.8836 72.4202 58.5543 72.3496C56.4681 72.3054 54.8966 72.167 52.5002 72.3496C50.7291 72.4846 49.6089 72.7272 47.8812 73.1398C46.1535 73.5525 42.8206 75.9763 40.2799 77.6284C36.9363 79.8025 29.6721 82.554 29.6721 82.554C29.6721 82.554 19.3799 87.1164 13.4499 85.7662C8.32474 84.5992 2.97196 83.2029 -2.04689 81.1672C-2.92422 80.8114 -3.88997 80.3948 -4.67898 79.8907" stroke="#C2000D" stroke-linecap="round" stroke-linejoin="round"/>
</svg>
