<svg width="499" height="211" viewBox="0 0 499 211" fill="none" xmlns="http://www.w3.org/2000/svg">
<path d="M209.831 80.4296L215.018 84.735L209.513 87.1954L209.831 80.4296ZM217.901 86.9414C218.06 87.3045 218.324 87.5551 218.692 87.6933C219.055 87.8339 219.414 87.8248 219.769 87.6659C220.125 87.507 220.373 87.2448 220.514 86.8793C220.66 86.5113 220.653 86.1458 220.494 85.7827L219.784 84.1652C219.624 83.8021 219.361 83.5514 218.992 83.4132C218.63 83.2726 218.271 83.2817 217.915 83.4406L217.907 83.4443L209.46 76.43C209.254 76.2588 209.018 76.1536 208.752 76.1145C208.488 76.0808 208.234 76.119 207.987 76.229C207.741 76.339 207.542 76.5037 207.39 76.7232C207.24 76.9481 207.158 77.195 207.146 77.464L206.616 88.4897L206.608 88.4934C206.247 88.6547 205.996 88.9182 205.855 89.2837C205.715 89.6492 205.724 90.0135 205.884 90.3767L206.594 91.9942C206.753 92.3573 207.014 92.6091 207.377 92.7498C207.739 92.8904 208.101 92.88 208.462 92.7187C208.818 92.5598 209.066 92.2976 209.206 91.9321C209.347 91.5666 209.338 91.2022 209.178 90.8391L209.037 90.5173L217.759 86.6195L217.901 86.9414Z" fill="#C2000D"/>
<path d="M236.305 79.6524C236.673 79.5236 236.944 79.282 237.12 78.9275C237.29 78.5751 237.311 78.2114 237.182 77.8364C237.055 77.4672 236.816 77.1975 236.466 77.0274C236.111 76.8592 235.749 76.8395 235.381 76.9684L228.366 79.4267L227.557 77.075L232.901 75.2022C233.268 75.0734 233.54 74.8318 233.716 74.4773C233.886 74.1249 233.908 73.764 233.781 73.3948C233.652 73.0199 233.412 72.7473 233.062 72.5772C232.706 72.409 232.345 72.3893 231.977 72.5182L226.633 74.3909L225.823 72.0392L232.839 69.5808C233.206 69.452 233.478 69.2104 233.654 68.8559C233.824 68.5035 233.846 68.1426 233.719 67.7734C233.591 67.4041 233.353 67.1345 233.003 66.9643C232.645 66.7905 232.282 66.768 231.915 66.8968L223.568 69.8218C223.195 69.9526 222.924 70.1971 222.756 70.5552C222.585 70.9077 222.564 71.2685 222.691 71.6378L226.154 81.7008C226.283 82.0757 226.523 82.3483 226.873 82.5184C227.223 82.6886 227.585 82.7082 227.958 82.5774L236.305 79.6524Z" fill="#C2000D"/>
<path d="M245.88 76.72C245.718 76.7625 245.555 76.7772 245.39 76.7643C245.093 76.7367 244.832 76.6249 244.608 76.4288C244.379 76.2343 244.227 75.9916 244.152 75.7007L241.504 65.3946C241.407 65.0164 241.457 64.6586 241.655 64.3212C241.851 63.978 242.141 63.7564 242.524 63.6563C242.901 63.5577 243.257 63.6102 243.594 63.8139C243.93 64.0117 244.146 64.2997 244.243 64.6779L245.916 71.1879L250.157 62.1902C250.286 61.9205 250.48 61.7115 250.738 61.5631C250.997 61.4146 251.276 61.3542 251.574 61.3818C251.872 61.4094 252.132 61.5184 252.354 61.7086C252.583 61.9031 252.735 62.1459 252.81 62.4367L255.458 72.7429C255.557 73.1268 255.507 73.4875 255.309 73.8249C255.105 74.1638 254.815 74.3825 254.438 74.4811C254.061 74.5797 253.705 74.5301 253.37 74.3323C253.034 74.1344 252.817 73.8435 252.719 73.4596L251.046 66.9495L246.805 75.9473C246.612 76.3517 246.304 76.6093 245.88 76.72ZM244.737 61.615C244.36 61.7136 244.004 61.664 243.669 61.4661C243.327 61.2698 243.107 60.9797 243.009 60.5957C242.912 60.2175 242.965 59.859 243.169 59.5201C243.367 59.1827 243.654 58.9647 244.031 58.8661L247.458 57.9697C247.835 57.8711 248.191 57.9207 248.526 58.1185C248.862 58.3164 249.078 58.6044 249.175 58.9825C249.274 59.3665 249.224 59.7272 249.026 60.0646C248.828 60.402 248.541 60.62 248.164 60.7186L244.737 61.615Z" fill="#C2000D"/>
<path d="M269.713 71.326C271.543 71.0032 272.992 70.0797 274.061 68.5557C274.285 68.2356 274.363 67.8803 274.296 67.4897C274.229 67.1051 274.036 66.8006 273.718 66.5763C273.399 66.352 273.048 66.2737 272.664 66.3414C272.274 66.4102 271.967 66.6046 271.743 66.9247C271.124 67.8085 270.286 68.3436 269.229 68.53C268.172 68.7164 267.204 68.5 266.324 67.8808C265.444 67.2615 264.912 66.4223 264.729 65.3631C264.544 64.2979 264.762 63.3234 265.381 62.4397C266.001 61.5559 266.839 61.0208 267.895 60.8343C268.952 60.6479 269.92 60.8643 270.8 61.4836C271.12 61.7138 271.475 61.7945 271.864 61.7258C272.248 61.6581 272.551 61.4612 272.775 61.1352C272.999 60.8151 273.078 60.4627 273.011 60.0781C272.945 59.6934 272.752 59.389 272.433 59.1647C270.915 58.0909 269.241 57.7155 267.411 58.0383C265.581 58.3612 264.132 59.2876 263.065 60.8175C261.996 62.3356 261.621 64.0148 261.94 65.8552C262.258 67.6896 263.175 69.1407 264.692 70.2085C266.21 71.2764 267.883 71.6489 269.713 71.326Z" fill="#C2000D"/>
<path d="M284.727 58.4784L285.609 67.6591C285.647 68.0536 285.816 68.3748 286.117 68.6229C286.424 68.8704 286.771 68.9752 287.159 68.9373C287.547 68.8993 287.865 68.7295 288.113 68.4277C288.361 68.1259 288.466 67.7777 288.428 67.3832L287.546 58.2026L290.545 57.9092C290.932 57.8713 291.253 57.7011 291.507 57.3987C291.755 57.0969 291.861 56.7518 291.823 56.3633C291.786 55.9748 291.617 55.6565 291.316 55.4084C291.009 55.1549 290.661 55.0471 290.273 55.0851L281.466 55.9467C281.072 55.9852 280.752 56.1584 280.504 56.4662C280.256 56.768 280.151 57.1131 280.188 57.5016C280.225 57.8901 280.394 58.2084 280.695 58.4565C280.996 58.7046 281.344 58.8094 281.737 58.7709L284.727 58.4784Z" fill="#C2000D"/>
<path d="M302.923 62.5582L307.708 62.4607C308.049 62.4537 308.343 62.5708 308.587 62.812C308.838 63.0471 308.967 63.3357 308.974 63.6778C308.98 64.0199 308.863 64.3165 308.622 64.5676C308.387 64.8126 308.099 64.9386 307.757 64.9455L302.973 65.0431L302.923 62.5582ZM302.817 57.2374L305.829 57.1759C306.171 57.169 306.464 57.2861 306.709 57.5273C306.96 57.7623 307.088 58.0509 307.095 58.3931C307.102 58.7352 306.985 59.0318 306.744 59.2829C306.509 59.5279 306.221 59.6538 305.879 59.6608L302.866 59.7222L302.817 57.2374ZM307.814 67.7815C308.935 67.7587 309.887 67.34 310.668 66.5254C311.449 65.7109 311.829 64.7424 311.806 63.62C311.791 62.8578 311.576 62.1536 311.161 61.5076C310.765 60.8852 310.237 60.4066 309.576 60.0718C309.823 59.5203 309.94 58.9415 309.928 58.3353C309.906 57.2129 309.488 56.2607 308.674 55.4787C307.861 54.6966 306.894 54.3171 305.773 54.3399L301.348 54.4302C300.952 54.4382 300.619 54.5861 300.349 54.8739C300.079 55.1556 299.948 55.4915 299.956 55.8816L300.169 66.5144C300.176 66.9105 300.321 67.2438 300.602 67.5143C300.884 67.7848 301.222 67.916 301.618 67.9079L307.814 67.7815Z" fill="#C2000D"/>
<path d="M329.615 55.1203C329.277 54.9267 328.919 54.8794 328.541 54.9781C328.163 55.0829 327.877 55.3041 327.684 55.6418L324.17 61.7815L321.369 55.3011C321.215 54.9377 320.955 54.6855 320.591 54.5445C320.227 54.3976 319.863 54.401 319.5 54.5547C319.143 54.7088 318.894 54.9682 318.754 55.3329C318.607 55.6973 318.611 56.0612 318.765 56.4247L322.412 64.8648L321.783 65.9653C321.59 66.303 321.543 66.661 321.642 67.0394C321.747 67.4181 321.968 67.7042 322.306 67.8977C322.504 68.0112 322.713 68.0742 322.935 68.0868C323.198 68.1017 323.448 68.0468 323.683 67.9218C323.918 67.7969 324.106 67.6152 324.245 67.3767L330.147 57.0532C330.34 56.7155 330.384 56.3573 330.279 55.9786C330.174 55.5999 329.952 55.3138 329.615 55.1203Z" fill="#C2000D"/>
<path d="M347.034 70.5251C347.42 70.5771 347.771 70.4851 348.087 70.2491C348.397 70.0123 348.578 69.6976 348.629 69.305C348.681 68.9183 348.588 68.5697 348.35 68.2592C348.107 67.948 347.792 67.7663 347.406 67.7142L340.03 66.7209L340.356 64.2581L345.974 65.0148C346.361 65.0669 346.712 64.9749 347.028 64.7389C347.337 64.502 347.518 64.1903 347.569 63.8036C347.621 63.411 347.528 63.0595 347.291 62.749C347.048 62.4377 346.733 62.256 346.346 62.204L340.728 61.4473L341.053 58.9845L348.429 59.9778C348.815 60.0298 349.167 59.9378 349.482 59.7018C349.792 59.465 349.972 59.1533 350.023 58.7666C350.075 58.3799 349.981 58.0313 349.744 57.7209C349.502 57.4036 349.187 57.219 348.801 57.1669L340.025 55.9851C339.633 55.9322 339.281 56.0272 338.971 56.2699C338.661 56.5067 338.481 56.8185 338.429 57.2052L337.035 67.7435C336.984 68.1362 337.076 68.4877 337.314 68.7982C337.551 69.1087 337.866 69.2904 338.258 69.3432L347.034 70.5251Z" fill="#C2000D"/>
<path d="M360.96 62.2763L359.064 71.2939C358.982 71.6814 359.048 72.0391 359.261 72.367C359.48 72.6961 359.78 72.9015 360.161 72.9831C360.543 73.0648 360.897 72.9995 361.224 72.7873C361.55 72.575 361.754 72.2752 361.836 71.8877L363.733 62.8701L366.681 63.5015C367.063 63.5832 367.42 63.5185 367.752 63.3075C368.079 63.0953 368.282 62.7983 368.363 62.4167C368.443 62.0351 368.376 61.6804 368.163 61.3525C367.946 61.0175 367.646 60.8092 367.265 60.7275L358.604 58.8728C358.217 58.7899 357.859 58.8575 357.531 59.0756C357.204 59.2879 357.001 59.5848 356.921 59.9664C356.84 60.348 356.907 60.7027 357.12 61.0306C357.333 61.3585 357.633 61.5639 358.02 61.6468L360.96 62.2763Z" fill="#C2000D"/>
<path d="M393.537 73.2332L394.007 76.9948L390.82 75.8523L393.537 73.2332ZM385.036 79.4551C385.306 79.7366 385.637 79.8808 386.029 79.8876C386.419 79.9001 386.755 79.7688 387.036 79.4938L388.539 78.045L394.397 80.1447L394.665 82.2286C394.697 82.501 394.799 82.7446 394.971 82.9594C395.14 83.1665 395.349 83.3146 395.597 83.4037C395.807 83.4787 396.021 83.5015 396.242 83.4722C396.627 83.4256 396.941 83.2483 397.183 82.9401C397.425 82.6319 397.519 82.2834 397.465 81.8946L395.995 70.0726C395.962 69.8058 395.862 69.566 395.695 69.3533C395.526 69.1462 395.314 68.9971 395.06 68.9059C394.806 68.8148 394.548 68.7958 394.288 68.8489C394.025 68.9077 393.798 69.0299 393.605 69.2157L385.064 77.449C384.785 77.7184 384.643 78.0497 384.638 78.4429C384.628 78.8341 384.76 79.1715 385.036 79.4551Z" fill="#C2000D"/>
<path d="M419.293 79.2033C419.08 78.8699 418.784 78.6567 418.405 78.5639C418.023 78.4766 417.667 78.5389 417.336 78.751L412.588 81.7344L409.725 80.4375L411.308 76.8795C411.466 76.5234 411.476 76.1624 411.336 75.7964C411.199 75.425 410.953 75.1588 410.597 74.9977C410.236 74.8342 409.873 74.8242 409.507 74.9677C409.143 75.1058 408.882 75.3528 408.723 75.7089L404.406 85.4132C404.245 85.7748 404.235 86.1385 404.374 86.5045C404.514 86.8704 404.764 87.1352 405.125 87.2987C405.48 87.4597 405.84 87.4712 406.204 87.3332C406.567 87.1952 406.83 86.9454 406.99 86.5838L408.573 83.0258L411.437 84.3228L412.379 89.8934C412.465 90.3933 412.738 90.7473 413.198 90.9554C413.46 91.0743 413.733 91.1121 414.015 91.0688C414.4 90.9999 414.706 90.8062 414.934 90.4878C415.155 90.167 415.233 89.814 415.168 89.429L414.258 84.0509L418.849 81.1544C419.178 80.9478 419.387 80.6543 419.477 80.274C419.562 79.8912 419.501 79.5343 419.293 79.2033Z" fill="#C2000D"/>
<path d="M436.899 89.8653C437.085 89.5231 437.123 89.1639 437.014 88.7878C436.901 88.4035 436.675 88.1167 436.333 87.9274C435.992 87.738 435.633 87.7001 435.257 87.8136C434.883 87.9217 434.603 88.1469 434.417 88.4891L430.013 96.5751L424.735 93.648L429.139 85.562C429.325 85.2198 429.363 84.8607 429.254 84.4845C429.147 84.1031 428.923 83.8178 428.581 83.6285C428.235 83.4362 427.873 83.3969 427.497 83.5103C427.123 83.6185 426.843 83.8437 426.657 84.1858L421.573 93.5194C421.387 93.8616 421.349 94.2208 421.458 94.5969C421.568 94.973 421.796 95.2572 422.143 95.4495L429.43 99.4906L429.262 99.7985C429.073 100.146 429.033 100.508 429.143 100.884C429.253 101.26 429.481 101.544 429.828 101.736C430.169 101.926 430.527 101.966 430.9 101.858C431.273 101.75 431.555 101.522 431.744 101.175L432.587 99.627C432.728 99.369 432.784 99.0955 432.757 98.8063C432.73 98.517 432.625 98.2636 432.443 98.046L436.899 89.8653Z" fill="#C2000D"/>
<path d="M439.302 105.483C439.162 105.39 439.042 105.277 438.942 105.145C438.763 104.903 438.671 104.632 438.666 104.334C438.656 104.031 438.734 103.755 438.898 103.505L444.726 94.6295C444.94 94.3039 445.237 94.1026 445.618 94.0257C446.002 93.9438 446.359 94.0131 446.689 94.2334C447.013 94.4504 447.213 94.7534 447.288 95.1424C447.367 95.5265 447.299 95.8813 447.085 96.2069L443.404 101.813L452.872 98.9834C453.156 98.8998 453.44 98.9056 453.722 99.0007C454.005 99.0959 454.236 99.2645 454.414 99.5065C454.593 99.7486 454.687 100.017 454.695 100.31C454.705 100.613 454.627 100.889 454.463 101.14L448.635 110.015C448.418 110.345 448.119 110.549 447.738 110.626C447.352 110.699 446.997 110.628 446.672 110.411C446.348 110.194 446.146 109.893 446.068 109.509C445.989 109.125 446.059 108.768 446.276 108.437L449.957 102.831L440.489 105.661C440.062 105.786 439.666 105.727 439.302 105.483Z" fill="#C2000D"/>
<path d="M461.351 110.647C461.712 110.184 462.181 109.918 462.76 109.849C463.347 109.779 463.869 109.925 464.326 110.287L467.391 112.716L464.78 116.071L461.715 113.642C461.258 113.28 460.992 112.806 460.916 112.218C460.849 111.63 460.994 111.106 461.351 110.647ZM463.041 118.306L461.738 119.98C461.495 120.292 461.397 120.643 461.444 121.032C461.492 121.421 461.668 121.737 461.974 121.979C462.28 122.222 462.629 122.322 463.019 122.28C463.405 122.234 463.72 122.055 463.963 121.743L470.483 113.365C470.722 113.058 470.818 112.71 470.771 112.321C470.722 111.923 470.545 111.603 470.239 111.36L466.065 108.053C464.992 107.202 463.778 106.859 462.423 107.025C461.064 107.186 459.965 107.806 459.126 108.884C458.596 109.565 458.268 110.334 458.142 111.19C458.017 112.016 458.094 112.826 458.374 113.621L455.719 113.937C455.333 113.983 455.02 114.16 454.781 114.467C454.538 114.779 454.44 115.13 454.488 115.519C454.535 115.908 454.714 116.226 455.025 116.472C455.331 116.715 455.677 116.813 456.063 116.767L460.442 116.246L463.041 118.306Z" fill="#C2000D"/>
<path d="M10.698 100.219C11.0248 100.432 11.3691 100.492 11.7307 100.399C12.0924 100.306 12.3667 100.085 12.5537 99.7363L14.3941 96.3011L19.4478 99.5911L17.6075 103.026C17.4205 103.375 17.3775 103.747 17.4784 104.141C17.5794 104.535 17.7933 104.838 18.1202 105.051C18.4471 105.264 18.7938 105.325 19.1605 105.236C19.5222 105.143 19.7965 104.922 19.9835 104.573L25.003 95.2037C25.1872 94.86 25.2287 94.4911 25.1278 94.0973C25.0246 93.6948 24.8096 93.3872 24.4827 93.1744C24.1559 92.9616 23.8102 92.9042 23.4457 93.0022C23.084 93.0949 22.8111 93.3132 22.627 93.6569L20.7866 97.0921L15.7329 93.8021L17.5732 90.3669C17.7574 90.0231 17.799 89.6543 17.698 89.2604C17.5998 88.8612 17.3873 88.5552 17.0605 88.3424C16.7286 88.1264 16.3804 88.0673 16.0159 88.1653C15.6543 88.258 15.3813 88.4763 15.1972 88.8201L10.1777 98.1894C9.99069 98.5385 9.94768 98.91 10.0487 99.3039C10.1496 99.6978 10.3661 100.003 10.698 100.219Z" fill="#C2000D"/>
<path d="M34.1009 103.614L34.324 107.499L31.2967 105.987L34.1009 103.614ZM25.4497 109.028C25.6946 109.344 26.0075 109.527 26.3884 109.577C26.7669 109.632 27.1015 109.535 27.3922 109.285L28.9434 107.973L34.507 110.751L34.6385 112.904C34.652 113.185 34.736 113.444 34.8904 113.682C35.0417 113.912 35.2355 114.085 35.4717 114.203C35.6703 114.302 35.8776 114.349 36.0936 114.343C36.4713 114.338 36.7874 114.191 37.042 113.904C37.2966 113.616 37.4097 113.271 37.3814 112.869L36.6879 100.661C36.6721 100.386 36.5897 100.13 36.4406 99.8955C36.2893 99.666 36.0928 99.491 35.8513 99.3704C35.6098 99.2497 35.3607 99.2023 35.1041 99.228C34.8452 99.2593 34.6163 99.3591 34.4174 99.5274L25.6022 106.987C25.3138 107.231 25.1551 107.553 25.1259 107.953C25.0914 108.351 25.1993 108.709 25.4497 109.028Z" fill="#C2000D"/>
<path d="M62.3438 114.324L63.907 121.012L58.0854 119.412L62.3438 114.324ZM64.8856 124.583C64.7969 124.969 64.8576 125.334 65.0677 125.678C65.272 126.02 65.5621 126.243 65.9381 126.347C66.314 126.45 66.6659 126.404 66.9938 126.208C67.3274 126.013 67.5386 125.723 67.6272 125.337L68.0221 123.617C68.1108 123.231 68.0501 122.866 67.84 122.523C67.6357 122.18 67.3456 121.958 66.9697 121.854L66.961 121.852L64.4174 110.957C64.3555 110.692 64.2307 110.458 64.0432 110.257C63.8543 110.062 63.6297 109.929 63.3694 109.858C63.1091 109.786 62.8536 109.787 62.6029 109.862C62.3509 109.942 62.1402 110.083 61.9708 110.285L55.0228 118.57L55.0141 118.568C54.6323 118.463 54.2775 118.508 53.9497 118.704C53.6218 118.9 53.4136 119.191 53.3249 119.577L52.93 121.297C52.8414 121.683 52.8992 122.047 53.1034 122.39C53.3077 122.732 53.6007 122.955 53.9825 123.06C54.3584 123.164 54.7104 123.117 55.0382 122.921C55.3661 122.725 55.5743 122.434 55.663 122.048L55.7415 121.706L64.9642 124.241L64.8856 124.583Z" fill="#C2000D"/>
<path d="M83.5837 120.652C83.449 121.718 82.9571 122.573 82.108 123.217C81.253 123.861 80.2945 124.104 79.2325 123.947C78.1705 123.789 77.3105 123.276 76.6526 122.408C75.9946 121.54 75.733 120.573 75.8677 119.508C76.0024 118.442 76.4942 117.586 77.3433 116.942C78.1931 116.292 79.149 116.045 80.2111 116.203C81.2731 116.36 82.1357 116.876 82.7988 117.751C83.4567 118.619 83.7183 119.586 83.5837 120.652ZM73.0643 119.092C72.8318 120.932 73.2824 122.603 74.4162 124.106C75.5567 125.604 77.0436 126.488 78.877 126.76C80.7162 127.033 82.3679 126.614 83.832 125.502C85.3029 124.386 86.1545 122.908 86.387 121.068C86.6203 119.222 86.1667 117.55 85.0262 116.052C83.8924 114.549 82.4059 113.662 80.5666 113.389C78.7333 113.117 77.0812 113.539 75.6104 114.656C74.1463 115.767 73.2976 117.246 73.0643 119.092Z" fill="#C2000D"/>
<path d="M97.2543 128.298C99.1126 128.357 100.718 127.75 102.072 126.477C102.356 126.21 102.505 125.879 102.517 125.483C102.529 125.093 102.401 124.755 102.134 124.471C101.867 124.186 101.538 124.037 101.149 124.025C100.753 124.013 100.413 124.14 100.129 124.407C99.344 125.145 98.4151 125.497 97.342 125.464C96.269 125.43 95.3636 125.02 94.6259 124.234C93.8882 123.448 93.536 122.518 93.5692 121.444C93.6027 120.364 94.0118 119.455 94.7967 118.717C95.5816 117.979 96.5106 117.627 97.5836 117.661C98.6566 117.695 99.562 118.105 100.3 118.891C100.567 119.181 100.898 119.333 101.294 119.345C101.683 119.358 102.02 119.227 102.305 118.954C102.589 118.687 102.737 118.358 102.749 117.968C102.762 117.578 102.634 117.241 102.367 116.956C101.095 115.595 99.5297 114.885 97.6714 114.826C95.8131 114.768 94.2071 115.378 92.8534 116.656C91.5001 117.923 90.7946 119.489 90.7368 121.355C90.6792 123.215 91.2865 124.822 92.5586 126.178C93.8307 127.533 95.396 128.24 97.2543 128.298Z" fill="#C2000D"/>
<path d="M111.469 117.345L112.011 126.549C112.035 126.945 112.192 127.269 112.483 127.523C112.781 127.777 113.124 127.889 113.512 127.858C113.901 127.828 114.225 127.664 114.483 127.367C114.742 127.069 114.86 126.723 114.836 126.327L114.294 117.123L117.298 116.888C117.686 116.857 118.013 116.693 118.278 116.395C118.537 116.098 118.655 115.755 118.632 115.365C118.609 114.976 118.452 114.654 118.16 114.4C117.863 114.14 117.519 114.026 117.131 114.056L108.306 114.749C107.911 114.78 107.585 114.947 107.327 115.25C107.068 115.547 106.95 115.89 106.973 116.28C106.996 116.669 107.153 116.991 107.444 117.245C107.736 117.499 108.079 117.611 108.473 117.58L111.469 117.345Z" fill="#C2000D"/>
<path d="M129.523 116.736L131.695 119.762L128.374 120.403L129.523 116.736ZM125.004 126.496C125.371 126.602 125.728 126.558 126.074 126.363C126.421 126.174 126.653 125.888 126.771 125.505L127.407 123.476L133.51 122.298L134.72 123.971C134.875 124.192 135.078 124.351 135.33 124.449C135.574 124.542 135.826 124.564 136.085 124.514C136.303 124.472 136.501 124.382 136.68 124.243C136.996 124.005 137.187 123.691 137.254 123.299C137.322 122.907 137.241 122.556 137.012 122.246L130.194 112.73C130.04 112.516 129.84 112.359 129.594 112.259C129.35 112.166 129.095 112.145 128.83 112.196C128.565 112.247 128.331 112.363 128.128 112.542C127.926 112.728 127.784 112.951 127.703 113.211L124.09 124.739C123.971 125.116 124.002 125.477 124.182 125.821C124.356 126.166 124.63 126.391 125.004 126.496Z" fill="#C2000D"/>
<path d="M144.818 116.684L149.383 115.248C149.709 115.145 150.017 115.177 150.306 115.344C150.599 115.503 150.788 115.748 150.871 116.08C150.955 116.412 150.91 116.734 150.736 117.046C150.566 117.351 150.317 117.555 149.991 117.658L145.426 119.094L144.818 116.684ZM143.515 111.524L146.39 110.62C146.716 110.517 147.023 110.55 147.313 110.716C147.606 110.875 147.794 111.121 147.878 111.452C147.962 111.784 147.917 112.106 147.742 112.419C147.572 112.723 147.324 112.927 146.998 113.03L144.124 113.934L143.515 111.524ZM150.686 120.408C151.756 120.071 152.573 119.396 153.138 118.383C153.704 117.369 153.849 116.318 153.574 115.23C153.388 114.491 153.023 113.864 152.479 113.35C151.959 112.854 151.344 112.536 150.635 112.394C150.748 111.787 150.73 111.19 150.581 110.602C150.306 109.514 149.691 108.702 148.735 108.167C147.778 107.633 146.765 107.533 145.695 107.87L141.474 109.198C141.096 109.317 140.81 109.555 140.616 109.911C140.421 110.261 140.371 110.626 140.466 111.004L143.07 121.315C143.166 121.699 143.38 121.983 143.711 122.168C144.042 122.353 144.396 122.386 144.774 122.268L150.686 120.408Z" fill="#C2000D"/>
<path d="M165.908 100.128C165.534 100.057 165.183 100.133 164.856 100.356C164.531 100.584 164.325 100.897 164.238 101.295L162.95 106.964L160.076 108.229L158.77 104.556C158.639 104.188 158.401 103.93 158.056 103.781C157.709 103.626 157.357 103.627 157.001 103.784C156.638 103.944 156.378 104.212 156.22 104.589C156.06 104.96 156.046 105.33 156.176 105.697L159.739 115.717C159.872 116.09 160.111 116.351 160.456 116.5C160.801 116.649 161.155 116.644 161.517 116.485C161.874 116.328 162.132 116.063 162.292 115.692C162.452 115.321 162.465 114.948 162.333 114.575L161.026 110.902L163.9 109.637L168.329 112.799C168.727 113.082 169.157 113.121 169.618 112.918C169.882 112.802 170.097 112.622 170.264 112.379C170.486 112.039 170.569 111.672 170.511 111.279C170.448 110.888 170.264 110.583 169.958 110.365L165.682 107.312L166.92 101.822C167.009 101.429 166.956 101.066 166.761 100.733C166.561 100.403 166.277 100.201 165.908 100.128Z" fill="#C2000D"/>
<path d="M179.348 92.5889C178.973 92.6039 178.649 92.7582 178.377 93.0518C178.107 93.3509 177.97 93.7015 177.966 94.1037L177.884 101.418L172.485 97.2625C172.185 97.0277 171.849 96.9482 171.475 97.0241C171.1 97.0946 170.795 97.2966 170.561 97.6303C170.333 97.9611 170.245 98.325 170.297 98.7221C170.345 99.1223 170.519 99.4397 170.819 99.6745L177.849 105.088L177.835 106.398C177.831 106.801 177.959 107.141 178.22 107.419C178.486 107.694 178.807 107.824 179.182 107.809C179.402 107.8 179.608 107.74 179.801 107.63C180.03 107.499 180.214 107.314 180.353 107.076C180.493 106.837 180.566 106.575 180.571 106.289L180.702 93.9947C180.707 93.5925 180.576 93.2539 180.31 92.9789C180.044 92.704 179.723 92.574 179.348 92.5889Z" fill="#C2000D"/>
</svg>
