<svg width="215" height="189" viewBox="0 0 215 189" fill="none" xmlns="http://www.w3.org/2000/svg">
<path d="M30.9009 74.1837L31.7865 68.1507L40.5316 69.4345L40.6627 68.5417L44.1459 69.053L43.9741 70.2231L41.661 69.8835L40.699 76.4373L43.0121 76.7769L42.8403 77.947L39.3571 77.4356L39.4703 76.6646C38.3836 75.6898 36.0095 74.9337 32.3483 74.3962L30.9009 74.1837ZM32.764 69.6346L32.2566 73.0907L32.7639 73.1652C33.6071 73.289 34.7501 73.5351 36.193 73.9035C37.6321 74.2667 38.7904 74.7385 39.6679 75.3187L40.339 70.7466L32.764 69.6346Z" fill="#363636"/>
<path d="M39.5175 60.9686C38.2536 60.5103 37.4449 59.8194 37.0914 58.8962C36.7987 58.1259 36.8054 57.3188 37.1115 56.4748C37.4518 55.5365 38.0384 54.8815 38.8713 54.5098C39.7 54.1365 40.6562 54.1464 41.7401 54.5395C42.6184 54.858 43.2621 55.2418 43.6713 55.6907C44.0778 56.1339 44.3286 56.6587 44.4237 57.2652C44.5204 57.8675 44.4608 58.4664 44.2448 59.0619C43.8983 60.0173 43.3115 60.6795 42.4844 61.0485C41.6589 61.4132 40.6699 61.3866 39.5175 60.9686ZM39.9486 59.7798C40.8226 60.0967 41.5473 60.1438 42.1225 59.921C42.6935 59.6967 43.0839 59.2953 43.2937 58.7169C43.5019 58.1428 43.4566 57.5859 43.1579 57.0461C42.8592 56.5063 42.2622 56.0741 41.3668 55.7493C40.5228 55.4432 39.8145 55.4045 39.242 55.6331C38.6667 55.8559 38.2757 56.2522 38.0691 56.8221C37.8593 57.4004 37.9016 57.9587 38.196 58.497C38.4905 59.0352 39.0747 59.4628 39.9486 59.7798Z" fill="#363636"/>
<path d="M47.6476 44.4353L48.3815 43.4606C49.0416 43.9872 49.4428 44.6052 49.5851 45.3148C49.7257 46.0181 49.6003 46.7146 49.2089 47.4043C48.7186 48.2683 48.0424 48.8042 47.1804 49.012C46.3167 49.2135 45.3578 49.0151 44.3035 48.4168C43.6217 48.0299 43.0893 47.5784 42.7062 47.0624C42.3231 46.5463 42.1352 45.9864 42.1425 45.3827C42.148 44.7727 42.3049 44.1963 42.613 43.6532C43.0021 42.9676 43.4948 42.5057 44.091 42.2676C44.6833 42.0273 45.3333 42.0268 46.0412 42.2661L45.6113 43.3976C45.1309 43.256 44.7118 43.2513 44.3538 43.3835C43.9981 43.5118 43.719 43.7543 43.5165 44.111C43.2106 44.65 43.1563 45.1982 43.3535 45.7555C43.5468 46.3106 44.0616 46.8255 44.8979 47.3001C45.7461 47.7814 46.4547 47.9687 47.0236 47.8618C47.5925 47.755 48.0254 47.44 48.3223 46.9168C48.5607 46.4967 48.6309 46.0728 48.533 45.6452C48.4351 45.2176 48.14 44.8143 47.6476 44.4353Z" fill="#363636"/>
<path d="M46.7064 36.9298L50.3555 32.2944L51.1558 32.9244L49.7097 34.7614L54.6137 38.6219L53.8568 39.5834L48.9528 35.7229L47.5067 37.5599L46.7064 36.9298Z" fill="#363636"/>
<path d="M62.0521 28.9928C61.9768 29.5862 61.8365 30.0847 61.6311 30.4883C61.4291 30.8888 61.1497 31.2519 60.793 31.5777C60.2041 32.1155 59.6209 32.3859 59.0434 32.3887C58.4627 32.3882 57.9681 32.1642 57.5593 31.7166C57.3196 31.4541 57.1603 31.1614 57.0814 30.8385C57.0028 30.5091 56.9994 30.1912 57.0714 29.8848C57.1467 29.5753 57.2748 29.2763 57.4556 28.9877C57.5909 28.7777 57.8186 28.4864 58.1387 28.1138C58.7924 27.3564 59.2372 26.7588 59.4732 26.3211C59.3629 26.1935 59.2923 26.1129 59.2616 26.0793C58.9235 25.7091 58.5995 25.5267 58.2896 25.532C57.87 25.5388 57.4313 25.7511 56.9737 26.1691C56.5463 26.5594 56.2991 26.924 56.2321 27.2629C56.1655 27.5954 56.257 27.9963 56.5067 28.4657L55.5076 29.1559C55.2411 28.7019 55.0944 28.2743 55.0674 27.873C55.0373 27.4684 55.1405 27.0441 55.3767 26.6C55.6099 26.1525 55.957 25.7182 56.418 25.2972C56.8757 24.8792 57.2967 24.5934 57.6811 24.4399C58.0654 24.2863 58.4002 24.2305 58.6854 24.2725C58.9675 24.3111 59.2492 24.4303 59.5305 24.6302C59.7022 24.7573 59.9724 25.0228 60.3412 25.4266L61.4476 26.638C62.2189 27.4827 62.7261 28.0008 62.969 28.1925C63.2122 28.3777 63.4848 28.5207 63.7867 28.6215L62.8377 29.4881C62.5714 29.3857 62.3095 29.2206 62.0521 28.9928ZM60.1232 27.0328C59.9164 27.4686 59.5262 28.0348 58.9527 28.7314C58.6283 29.1264 58.4195 29.4282 58.3262 29.6369C58.2328 29.8455 58.204 30.0539 58.2398 30.262C58.2724 30.4667 58.361 30.6481 58.5054 30.8063C58.7267 31.0486 59.0019 31.1675 59.3312 31.1631C59.6638 31.1555 60.0067 30.9904 60.3601 30.6678C60.71 30.3481 60.9522 29.9881 61.0864 29.5878C61.2176 29.184 61.2258 28.7909 61.1109 28.4082C61.021 28.1138 60.7932 27.7664 60.4275 27.366L60.1232 27.0328Z" fill="#363636"/>
<path d="M64.7678 18.2724L67.1634 16.7528C67.7522 16.3792 68.2207 16.1522 68.5689 16.0716C68.9186 15.9847 69.2784 16.0074 69.6484 16.1397C70.0222 16.2696 70.325 16.5173 70.557 16.8829C70.7425 17.1754 70.8433 17.4703 70.8593 17.7678C70.8767 18.059 70.8105 18.3546 70.6609 18.6546C71.0105 18.5678 71.3638 18.5973 71.7208 18.7432C72.0793 18.8828 72.3732 19.1335 72.6027 19.4952C72.9328 20.1007 72.9984 20.6636 72.7995 21.1837C72.6006 21.7039 72.1413 22.1922 71.4217 22.6487L68.6567 24.4027L64.7678 18.2724ZM67.4437 20.1936L68.552 19.4905C68.9946 19.2098 69.2839 18.9938 69.4201 18.8427C69.5563 18.6915 69.6459 18.5052 69.6888 18.2836C69.7293 18.0582 69.6873 17.8474 69.5628 17.6511C69.3578 17.3279 69.0995 17.176 68.7881 17.1955C68.4805 17.2125 68.0496 17.3968 67.4954 17.7483L66.3525 18.4734L67.4437 20.1936ZM69.1538 22.8893L70.5218 22.0215C71.1106 21.6479 71.472 21.3243 71.6059 21.0504C71.7373 20.7727 71.7027 20.4628 71.5018 20.1207C71.3773 19.9245 71.1991 19.7839 70.9671 19.6989C70.7327 19.6102 70.5001 19.6093 70.2693 19.6964C70.036 19.7796 69.6943 19.964 69.244 20.2496L67.9856 21.0479L69.1538 22.8893Z" fill="#363636"/>
<path d="M75.5933 11.7296L76.7197 11.2342L77.9828 14.1064C78.3416 13.9486 78.5616 13.7697 78.6429 13.5697C78.7284 13.3678 78.765 12.8738 78.7528 12.0875C78.7427 11.4647 78.7698 11.0395 78.8341 10.8121C78.8984 10.5847 79.0074 10.4024 79.1611 10.2651C79.3148 10.1278 79.5898 9.97198 79.9861 9.79769L80.2114 9.69862L80.6214 10.631L80.3058 10.7623C80.0096 10.8926 79.8391 11.0199 79.7941 11.1442C79.7469 11.2745 79.7336 11.6064 79.7542 12.14C79.7739 12.6491 79.7496 13.0183 79.6811 13.2475C79.6127 13.4768 79.4606 13.7253 79.225 13.9933C79.7658 13.9098 80.4395 14.1512 81.2461 14.7175L83.3842 16.2341L82.1452 16.7789L80.0384 15.2486C79.6107 14.9438 79.2766 14.7672 79.0361 14.7186C78.7939 14.6658 78.5455 14.6954 78.291 14.8073L79.6422 17.8797L78.5159 18.3751L75.5933 11.7296Z" fill="#363636"/>
<path d="M87.6173 17.4452L87.175 16.3692C87.4536 16.3671 87.6895 16.3392 87.8826 16.2853C88.146 16.2118 88.3444 16.1091 88.478 15.9772C88.6115 15.8453 88.7067 15.6862 88.7635 15.5C88.8051 15.3607 88.8437 15.0329 88.8794 14.5167C88.883 14.4447 88.8912 14.3383 88.9039 14.1975L84.2953 7.93235L85.5726 7.57587L88.1579 11.2191C88.49 11.68 88.8096 12.1728 89.1169 12.6974C89.1011 12.1151 89.1153 11.5386 89.1595 10.968L89.5167 6.47517L90.7018 6.14441L90.0263 13.9979C89.9554 14.8457 89.8813 15.4365 89.8042 15.7703C89.7025 16.2198 89.5407 16.5725 89.3188 16.8284C89.0981 17.0887 88.799 17.2715 88.4215 17.3769C88.1932 17.4406 87.9251 17.4633 87.6173 17.4452Z" fill="#363636"/>
<path d="M101.646 4.00825L107.541 3.77624L107.581 4.79401L105.245 4.88595L105.491 11.1223L104.268 11.1705L104.022 4.93407L101.686 5.02602L101.646 4.00825Z" fill="#363636"/>
<path d="M113.152 7.20034C113.327 5.86734 113.827 4.9286 114.652 4.38411C115.341 3.93208 116.131 3.76441 117.021 3.88111C118.01 4.01085 118.777 4.44223 119.319 5.17526C119.863 5.90377 120.06 6.83963 119.91 7.98284C119.788 8.90916 119.552 9.62055 119.202 10.117C118.857 10.6096 118.399 10.9677 117.827 11.1915C117.26 11.4159 116.663 11.487 116.034 11.4046C115.027 11.2725 114.254 10.8425 113.715 10.1146C113.18 9.38726 112.993 8.41585 113.152 7.20034ZM114.406 7.36473C114.285 8.28653 114.396 9.00424 114.738 9.51787C115.08 10.027 115.556 10.3215 116.166 10.4015C116.772 10.4809 117.306 10.3165 117.768 9.9083C118.231 9.50012 118.524 8.82384 118.648 7.87945C118.764 6.98928 118.649 6.28934 118.303 5.77965C117.961 5.26602 117.489 4.96982 116.888 4.89103C116.278 4.81105 115.742 4.97289 115.28 5.37655C114.818 5.7802 114.527 6.44293 114.406 7.36473Z" fill="#363636"/>
<path d="M127.871 5.74302L130.576 6.59844C131.241 6.80868 131.716 7.02114 132.002 7.2358C132.293 7.44749 132.508 7.73749 132.644 8.10579C132.786 8.47547 132.791 8.86671 132.66 9.2795C132.556 9.60973 132.395 9.8767 132.178 10.0804C131.966 10.2811 131.697 10.4208 131.371 10.4993C131.663 10.711 131.868 11.0004 131.986 11.3676C132.109 11.7318 132.107 12.1181 131.978 12.5265C131.727 13.1689 131.338 13.5814 130.812 13.7639C130.286 13.9464 129.617 13.9092 128.804 13.6522L125.682 12.6649L127.871 5.74302ZM128.123 9.02748L129.374 9.42324C129.874 9.58127 130.225 9.66376 130.429 9.67071C130.632 9.67766 130.832 9.62628 131.03 9.51657C131.228 9.40252 131.363 9.2347 131.433 9.01309C131.548 8.6481 131.498 8.35268 131.283 8.12684C131.072 7.90237 130.653 7.6912 130.028 7.49332L128.737 7.08519L128.123 9.02748ZM127.16 12.0713L128.705 12.5598C129.37 12.77 129.85 12.8383 130.146 12.7645C130.443 12.6864 130.658 12.4604 130.79 12.0865C130.86 11.8649 130.853 11.638 130.769 11.4058C130.686 11.1693 130.537 10.9907 130.322 10.8701C130.108 10.7451 129.747 10.6022 129.239 10.4415L127.818 9.99211L127.16 12.0713Z" fill="#363636"/>
<path d="M141.188 17.5677C140.604 17.6992 140.088 17.7372 139.639 17.6818C139.193 17.6284 138.757 17.4896 138.329 17.2653C137.622 16.895 137.169 16.4389 136.97 15.897C136.772 15.351 136.814 14.8095 137.096 14.2727C137.261 13.9578 137.481 13.7083 137.758 13.524C138.041 13.3378 138.339 13.2263 138.651 13.1895C138.968 13.1548 139.293 13.1732 139.626 13.2448C139.869 13.3004 140.221 13.4152 140.68 13.5891C141.615 13.9454 142.328 14.1598 142.82 14.2324C142.903 14.0852 142.954 13.9914 142.976 13.951C143.208 13.507 143.269 13.1403 143.159 12.8507C143.009 12.4585 142.66 12.1185 142.111 11.8308C141.598 11.5621 141.171 11.4541 140.83 11.5066C140.495 11.5573 140.149 11.78 139.793 12.1748L138.803 11.4709C139.139 11.0656 139.491 10.7818 139.859 10.6197C140.229 10.4535 140.664 10.4057 141.162 10.4764C141.662 10.5431 142.188 10.7213 142.741 11.0112C143.29 11.2989 143.702 11.5973 143.978 11.9063C144.253 12.2153 144.42 12.511 144.478 12.7934C144.538 13.0718 144.522 13.3773 144.43 13.7098C144.369 13.9145 144.211 14.2591 143.957 14.7434L143.196 16.1965C142.664 17.2097 142.35 17.8631 142.253 18.1568C142.162 18.4486 142.12 18.7536 142.128 19.0717L140.99 18.4751C140.996 18.1898 141.062 17.8874 141.188 17.5677ZM142.373 15.0861C141.893 15.0403 141.227 14.8665 140.377 14.5648C139.895 14.3946 139.54 14.3011 139.312 14.2845C139.084 14.2679 138.878 14.3119 138.695 14.4164C138.514 14.5169 138.373 14.662 138.274 14.8517C138.122 15.1424 138.104 15.4417 138.22 15.7497C138.341 16.0598 138.613 16.3259 139.036 16.5481C139.456 16.7681 139.877 16.873 140.299 16.8627C140.724 16.8484 141.096 16.722 141.417 16.4835C141.663 16.2987 141.912 15.9661 142.163 15.4857L142.373 15.0861Z" fill="#363636"/>
<path d="M146.009 24.3068L152.221 16.4163L153.101 17.1098L152.518 17.851C152.954 17.7245 153.359 17.6925 153.733 17.755C154.11 17.814 154.485 17.9901 154.857 18.2832C155.344 18.6666 155.675 19.1302 155.85 19.674C156.026 20.2179 156.028 20.7937 155.857 21.4014C155.688 22.0056 155.39 22.5798 154.961 23.1241C154.502 23.7078 153.982 24.151 153.401 24.4538C152.827 24.7558 152.241 24.8743 151.643 24.8092C151.051 24.7434 150.534 24.5371 150.094 24.1904C149.772 23.9367 149.535 23.6403 149.385 23.3013C149.237 22.9651 149.163 22.6283 149.162 22.2909L146.976 25.0679L146.009 24.3068ZM150.825 19.99C150.248 20.724 149.969 21.3835 149.99 21.9684C150.011 22.5533 150.233 23.0121 150.655 23.3447C151.085 23.683 151.594 23.7911 152.184 23.669C152.779 23.5462 153.377 23.1034 153.977 22.3407C154.55 21.6138 154.828 20.9511 154.812 20.3527C154.799 19.757 154.585 19.2957 154.17 18.9687C153.758 18.6445 153.241 18.5504 152.617 18.6862C152.001 18.8213 151.403 19.2559 150.825 19.99Z" fill="#363636"/>
<path d="M160.026 27.2719C161.035 26.3835 162.029 26.0059 163.009 26.1392C163.825 26.2524 164.53 26.6459 165.123 27.3197C165.783 28.0688 166.075 28.8979 166.001 29.807C165.931 30.7131 165.463 31.5471 164.598 32.309C163.897 32.9264 163.251 33.3068 162.66 33.4501C162.077 33.5938 161.496 33.5617 160.918 33.3539C160.343 33.1495 159.847 32.8095 159.428 32.3341C158.757 31.5714 158.457 30.7386 158.531 29.836C158.607 28.9367 159.106 28.082 160.026 27.2719ZM160.862 28.221C160.164 28.8354 159.775 29.4484 159.694 30.06C159.616 30.6686 159.781 31.2038 160.187 31.6655C160.591 32.1238 161.101 32.3516 161.718 32.3488C162.335 32.3461 163.001 32.03 163.716 31.4005C164.39 30.8072 164.764 30.2046 164.838 29.5926C164.919 28.981 164.759 28.4477 164.359 27.9928C163.952 27.5311 163.442 27.3001 162.828 27.2998C162.215 27.2996 161.559 27.6067 160.862 28.221Z" fill="#363636"/>
<path d="M172.003 35.7696L173.487 38.1872C173.852 38.7814 174.072 39.2532 174.147 39.6026C174.229 39.9535 174.201 40.3129 174.064 40.6809C173.928 41.0527 173.676 41.3519 173.307 41.5785C173.012 41.7597 172.716 41.8562 172.418 41.8678C172.127 41.8809 171.832 41.8105 171.534 41.6564C171.616 42.0073 171.581 42.3602 171.43 42.715C171.285 43.0714 171.03 43.3616 170.665 43.5858C170.055 43.907 169.491 43.9644 168.974 43.7578C168.457 43.5513 167.975 43.0849 167.529 42.3587L165.816 39.5683L172.003 35.7696ZM170.042 38.4171L170.729 39.5356C171.003 39.9822 171.215 40.2747 171.364 40.4131C171.513 40.5515 171.698 40.6437 171.919 40.6899C172.144 40.7338 172.355 40.6949 172.554 40.5732C172.88 40.3729 173.035 40.1169 173.021 39.8052C173.008 39.4974 172.83 39.0639 172.487 38.5046L171.778 37.3512L170.042 38.4171ZM167.322 40.0875L168.17 41.4681C168.535 42.0623 168.853 42.4284 169.125 42.5663C169.4 42.7018 169.711 42.6717 170.056 42.4759C170.254 42.3542 170.397 42.1781 170.485 41.9474C170.578 41.7143 170.582 41.4817 170.498 41.2497C170.418 41.0152 170.239 40.6708 169.96 40.2164L169.18 38.9465L167.322 40.0875Z" fill="#363636"/>
<path d="M180.995 52.5369L181.357 53.713L178.469 54.6016L179.472 57.8619L182.36 56.9733L182.722 58.1493L175.783 60.2845L175.422 59.1084L178.499 58.1615L177.496 54.9012L174.418 55.8482L174.056 54.6721L180.995 52.5369Z" fill="#363636"/>
<path d="M178.828 70.1068C178.387 69.7024 178.062 69.2998 177.851 68.8989C177.641 68.5026 177.506 68.0647 177.446 67.5853C177.348 66.7939 177.464 66.1617 177.796 65.6888C178.132 65.2153 178.601 64.9411 179.202 64.8662C179.555 64.8223 179.886 64.8614 180.195 64.9837C180.509 65.1099 180.77 65.2909 180.979 65.5267C181.188 65.7671 181.358 66.0444 181.489 66.3588C181.582 66.5906 181.688 66.9448 181.807 67.4213C182.047 68.3926 182.278 69.101 182.499 69.5465C182.667 69.5302 182.773 69.5192 182.818 69.5136C183.316 69.4517 183.652 69.2927 183.827 69.0367C184.064 68.6904 184.144 68.2096 184.068 67.5946C183.996 67.0203 183.841 66.6078 183.604 66.3573C183.371 66.1107 182.991 65.9537 182.463 65.8861L182.478 64.672C183.002 64.7169 183.436 64.8443 183.779 65.0542C184.126 65.2635 184.413 65.5929 184.639 66.0424C184.869 66.4913 185.023 67.0256 185.1 67.6451C185.177 68.2602 185.167 68.7689 185.07 69.1713C184.973 69.5737 184.825 69.8792 184.626 70.0877C184.431 70.2956 184.171 70.4566 183.846 70.5706C183.643 70.6372 183.27 70.7043 182.727 70.7718L181.099 70.9745C179.964 71.1158 179.248 71.2302 178.951 71.3177C178.659 71.4091 178.385 71.5489 178.129 71.737L177.97 70.4617C178.207 70.3035 178.493 70.1852 178.828 70.1068ZM181.542 69.6656C181.306 69.2449 181.07 68.5993 180.833 67.7286C180.698 67.2357 180.572 66.8908 180.456 66.694C180.34 66.4973 180.186 66.3533 179.996 66.2622C179.81 66.1705 179.611 66.1379 179.398 66.1644C179.072 66.2049 178.816 66.3608 178.63 66.6321C178.444 66.9078 178.38 67.2831 178.439 67.758C178.498 68.2283 178.652 68.6339 178.901 68.9749C179.154 69.3153 179.47 69.5492 179.849 69.6766C180.141 69.7734 180.556 69.7883 181.095 69.7213L181.542 69.6656Z" fill="#363636"/>
<path d="M185.746 86.1657L185.011 91.1706L178.829 90.2632L178.715 91.041L175.678 90.5952L175.825 89.5942L177.861 89.893L178.691 84.2388L176.655 83.9399L176.802 82.939L179.839 83.3847L179.745 84.0273C180.782 85.0547 182.783 85.7675 185.746 86.1657ZM184.589 87.0323C182.271 86.5999 180.6 85.986 179.574 85.1906L179.007 89.0525L184.181 89.812L184.589 87.0323Z" fill="#363636"/>
<path d="M180.392 97.2865C181.664 97.721 182.486 98.3964 182.857 99.3128C183.164 100.077 183.173 100.885 182.882 101.734C182.56 102.679 181.986 103.345 181.16 103.732C180.339 104.121 179.382 104.129 178.291 103.757C177.407 103.455 176.756 103.083 176.339 102.642C175.924 102.207 175.663 101.687 175.557 101.082C175.449 100.482 175.497 99.8818 175.702 99.2823C176.03 98.3205 176.604 97.6474 177.424 97.2628C178.243 96.8825 179.232 96.8904 180.392 97.2865ZM179.983 98.4834C179.104 98.1829 178.378 98.1496 177.807 98.3832C177.241 98.6183 176.858 99.027 176.659 99.6092C176.462 100.187 176.517 100.743 176.826 101.277C177.135 101.811 177.74 102.232 178.642 102.54C179.491 102.83 180.2 102.855 180.768 102.616C181.339 102.382 181.723 101.979 181.919 101.405C182.117 100.823 182.064 100.265 181.76 99.7328C181.455 99.2002 180.863 98.7838 179.983 98.4834Z" fill="#363636"/>
<path d="M179.011 112.206L178.042 113.856L172.065 112.559L176.003 117.328L175.106 118.855L168.846 115.179L169.469 114.118L174.509 117.078L170.556 112.267L171.113 111.318L177.423 112.669L172.141 109.567L172.751 108.53L179.011 112.206Z" fill="#363636"/>
</svg>
