<svg width="175" height="182" viewBox="0 0 175 182" fill="none" xmlns="http://www.w3.org/2000/svg">
<path d="M115.739 130.328L116.604 131.431L115.501 132.296L114.636 131.193L115.739 130.328Z" fill="#363636"/>
<path d="M114.561 143.401L108.787 146.387L108.243 145.337L112.84 142.96L111.42 140.216L109.295 141.315C108.509 141.721 107.847 141.968 107.308 142.057C106.765 142.148 106.246 142.058 105.751 141.785C105.258 141.517 104.869 141.107 104.585 140.557C104.352 140.108 104.235 139.634 104.235 139.137C104.232 138.646 104.365 138.174 104.634 137.722C104.903 137.27 105.515 136.797 106.471 136.303L109.956 134.501L114.561 143.401ZM109.296 136.112L106.94 137.33C106.305 137.659 105.896 138.034 105.714 138.456C105.529 138.881 105.57 139.352 105.838 139.87C106.029 140.239 106.279 140.499 106.589 140.652C106.899 140.804 107.236 140.838 107.602 140.751C107.968 140.664 108.541 140.419 109.323 140.015L110.895 139.202L109.296 136.112Z" fill="#363636"/>
<path d="M98.8578 141.837L97.6021 142.092C97.5563 141.324 97.7254 140.659 98.1094 140.098C98.4934 139.537 99.0851 139.123 99.8847 138.855C100.892 138.519 101.795 138.56 102.594 138.98C103.39 139.405 103.976 140.178 104.351 141.297C104.739 142.455 104.742 143.454 104.359 144.293C103.977 145.132 103.311 145.71 102.36 146.029C101.439 146.337 100.582 146.275 99.7891 145.844C98.9958 145.412 98.4087 144.628 98.028 143.492C98.0048 143.423 97.9722 143.318 97.9302 143.179L103.064 141.461C102.768 140.719 102.36 140.211 101.841 139.938C101.321 139.665 100.774 139.625 100.2 139.817C99.7717 139.96 99.4442 140.195 99.2169 140.521C98.9897 140.847 98.87 141.285 98.8578 141.837ZM103.321 142.442L99.4768 143.728C99.7227 144.29 100.015 144.675 100.354 144.883C100.876 145.208 101.434 145.272 102.026 145.074C102.562 144.894 102.953 144.564 103.2 144.082C103.443 143.602 103.483 143.055 103.321 142.442Z" fill="#363636"/>
<path d="M96.3891 147.578L90.7614 148.572L89.4949 141.424L90.6999 141.211L91.7887 147.357L94.9997 146.789L94.3688 143.228C94.2218 142.398 94.1517 141.846 94.1587 141.572C94.1656 141.298 94.2728 141.04 94.4801 140.8C94.6875 140.56 95.02 140.399 95.4778 140.318C95.7605 140.268 96.0891 140.229 96.4634 140.2L96.6423 141.209L96.1105 141.303C95.8592 141.348 95.684 141.404 95.5851 141.473C95.4869 141.545 95.4298 141.641 95.4138 141.76C95.3978 141.878 95.4446 142.247 95.5543 142.866L96.3891 147.578Z" fill="#363636"/>
<path d="M88.9048 145.152C88.9441 146.496 88.5997 147.502 87.8716 148.171C87.2632 148.726 86.5103 149.017 85.6129 149.043C84.6153 149.071 83.7902 148.767 83.1378 148.129C82.4856 147.496 82.1426 146.603 82.1089 145.45C82.0815 144.516 82.2012 143.777 82.4679 143.231C82.7302 142.69 83.1258 142.264 83.6547 141.952C84.179 141.641 84.7577 141.476 85.3909 141.458C86.4068 141.429 87.2386 141.731 87.8863 142.364C88.5294 142.998 88.8689 143.927 88.9048 145.152ZM87.6407 145.189C87.6135 144.259 87.3904 143.568 86.9713 143.115C86.5524 142.667 86.0355 142.451 85.4205 142.469C84.8101 142.487 84.309 142.734 83.9171 143.21C83.5253 143.686 83.3433 144.4 83.3712 145.352C83.3974 146.25 83.6223 146.923 84.0458 147.371C84.4648 147.824 84.9772 148.042 85.5831 148.024C86.1981 148.007 86.7016 147.762 87.0935 147.29C87.4855 146.819 87.6679 146.118 87.6407 145.189Z" fill="#363636"/>
<path d="M81.1953 138.9L80.0317 148.874L78.9183 148.743L79.0276 147.806C78.7223 148.142 78.3938 148.381 78.0423 148.524C77.6902 148.671 77.2788 148.716 76.8081 148.661C76.1925 148.589 75.6678 148.367 75.2341 147.995C74.8003 147.623 74.4972 147.133 74.3249 146.526C74.1521 145.923 74.1058 145.277 74.1861 144.589C74.2722 143.851 74.4833 143.202 74.8195 142.64C75.1507 142.082 75.5882 141.675 76.1322 141.417C76.671 141.164 77.2188 141.07 77.7755 141.135C78.1829 141.183 78.5395 141.312 78.8453 141.522C79.1466 141.731 79.3861 141.98 79.5637 142.267L79.9732 138.756L81.1953 138.9ZM79.3504 145.098C79.4586 144.17 79.3508 143.462 79.0269 142.975C78.7029 142.487 78.2739 142.212 77.7398 142.149C77.1966 142.086 76.706 142.26 76.268 142.672C75.8248 143.088 75.547 143.778 75.4346 144.742C75.3274 145.661 75.4372 146.372 75.7641 146.873C76.0864 147.375 76.5101 147.656 77.0352 147.717C77.5557 147.778 78.0459 147.588 78.5058 147.146C78.9606 146.709 79.2421 146.026 79.3504 145.098Z" fill="#363636"/>
<path d="M68.0627 141.675L66.8755 141.193C67.2617 140.527 67.7697 140.067 68.3997 139.811C69.0298 139.556 69.7519 139.538 70.5661 139.757C71.5915 140.032 72.3213 140.566 72.7553 141.358C73.1838 142.152 73.2451 143.12 72.9392 144.26C72.6227 145.439 72.0734 146.273 71.2913 146.761C70.5092 147.25 69.634 147.363 68.6657 147.103C67.7283 146.851 67.0482 146.326 66.6253 145.528C66.2024 144.73 66.1462 143.753 66.4568 142.595C66.4757 142.524 66.5062 142.419 66.5484 142.28L71.7769 143.685C71.9395 142.903 71.8799 142.255 71.5981 141.74C71.3162 141.225 70.8826 140.889 70.2973 140.732C69.8616 140.615 69.459 140.629 69.0895 140.776C68.72 140.922 68.3777 141.221 68.0627 141.675ZM71.4487 144.645L67.534 143.592C67.4285 144.196 67.4595 144.679 67.6268 145.04C67.8825 145.6 68.3118 145.96 68.9147 146.122C69.4605 146.269 69.9694 146.21 70.4415 145.945C70.9092 145.679 71.2449 145.246 71.4487 144.645Z" fill="#363636"/>
<path d="M63.8282 145.51L62.6963 145.028L63.2345 143.763C63.4665 143.218 63.6038 142.809 63.6462 142.534C63.6827 142.263 63.6165 141.982 63.4477 141.692C63.2771 141.406 63.0052 141.184 62.6321 141.025C62.2045 140.843 61.6029 140.72 60.8273 140.657L59.5394 143.682L58.4074 143.2L61.2511 136.52L62.383 137.003L61.237 139.695C62.0258 139.773 62.722 139.941 63.3257 140.198C63.833 140.415 64.2271 140.734 64.5081 141.156C64.7832 141.58 64.9104 142.008 64.8899 142.44C64.8694 142.872 64.7636 143.313 64.5726 143.762L63.8282 145.51Z" fill="#363636"/>
<path d="M54.5626 135.352L53.557 134.558C54.1136 134.027 54.7301 133.727 55.4064 133.658C56.0827 133.588 56.7812 133.772 57.502 134.209C58.4098 134.76 58.9617 135.476 59.1576 136.357C59.3472 137.24 59.136 138.186 58.5241 139.195C57.8908 140.24 57.1305 140.887 56.2431 141.138C55.3557 141.388 54.4835 141.253 53.6263 140.733C52.7964 140.23 52.2898 139.536 52.1064 138.652C51.923 137.767 52.1421 136.813 52.7635 135.788C52.8013 135.726 52.86 135.633 52.9395 135.511L57.5682 138.319C57.9427 137.614 58.0665 136.975 57.9394 136.402C57.8124 135.829 57.4898 135.385 56.9716 135.071C56.5859 134.837 56.1952 134.739 55.7996 134.776C55.404 134.813 54.9917 135.005 54.5626 135.352ZM56.9852 139.149L53.5195 137.046C53.2496 137.597 53.1446 138.069 53.2045 138.462C53.2938 139.071 53.6054 139.537 54.1392 139.861C54.6223 140.154 55.1275 140.239 55.6548 140.117C56.1782 139.992 56.6217 139.669 56.9852 139.149Z" fill="#363636"/>
<path d="M49.0541 137.556L48.1022 136.777L50.0164 134.439L47.3775 132.278L45.4633 134.615L44.5113 133.836L49.1106 128.219L50.0625 128.998L48.0227 131.489L50.6617 133.651L52.7015 131.16L53.6534 131.939L49.0541 137.556Z" fill="#363636"/>
<path d="M43.3403 126.035L42.6194 125.051C43.3142 124.571 44.0218 124.366 44.7421 124.434C45.456 124.503 46.0865 124.825 46.6336 125.399C47.319 126.118 47.6367 126.92 47.5864 127.805C47.5298 128.69 47.0627 129.551 46.1853 130.388C45.618 130.928 45.0319 131.308 44.4272 131.525C43.8224 131.743 43.2322 131.761 42.6563 131.58C42.0741 131.398 41.5675 131.081 41.1368 130.629C40.5928 130.059 40.2931 129.453 40.2375 128.814C40.1786 128.177 40.366 127.555 40.7996 126.946L41.7585 127.685C41.4842 128.104 41.3585 128.504 41.3816 128.885C41.4016 129.262 41.5531 129.6 41.8361 129.897C42.2637 130.345 42.7727 130.556 43.3632 130.528C43.9505 130.503 44.5921 130.159 45.2881 129.496C45.994 128.823 46.378 128.199 46.4401 127.623C46.5022 127.047 46.3258 126.542 45.9108 126.107C45.5775 125.757 45.192 125.567 44.7544 125.537C44.3167 125.507 43.8454 125.673 43.3403 126.035Z" fill="#363636"/>
<path d="M38.4381 127.34L37.6974 126.357L40.2038 124.469C39.9679 124.156 39.7432 123.983 39.5298 123.95C39.3137 123.913 38.8243 123.991 38.0617 124.183C37.4576 124.336 37.0375 124.407 36.8014 124.396C36.5653 124.386 36.3627 124.321 36.1938 124.203C36.0249 124.085 35.8101 123.853 35.5495 123.508L35.4014 123.311L36.215 122.698L36.4153 122.975C36.61 123.234 36.7731 123.371 36.9044 123.386C37.0421 123.402 37.3683 123.339 37.883 123.196C38.3741 123.06 38.7391 123 38.978 123.014C39.2168 123.028 39.4937 123.119 39.8086 123.287C39.6033 122.779 39.6837 122.068 40.0499 121.154L41.0358 118.725L41.8505 119.806L40.844 122.207C40.6455 122.693 40.5502 123.059 40.558 123.304C40.5622 123.552 40.648 123.787 40.8153 124.009L43.4964 121.989L44.2371 122.972L38.4381 127.34Z" fill="#363636"/>
<path d="M39.0748 115.304L37.835 115.957L37.1815 114.717L38.4214 114.064L39.0748 115.304Z" fill="#363636"/>
<path d="M26.4026 111.829L24.4987 105.613L25.6296 105.267L27.1451 110.215L30.0999 109.312L29.3992 107.024C29.1402 106.179 29.0153 105.483 29.0244 104.937C29.0322 104.386 29.2145 103.892 29.5712 103.454C29.9237 103.018 30.3962 102.709 30.9889 102.527C31.4727 102.38 31.9593 102.35 32.4487 102.438C32.9325 102.524 33.3727 102.74 33.7693 103.085C34.166 103.431 34.5218 104.118 34.8367 105.146L35.9859 108.898L26.4026 111.829ZM34.5189 107.96L33.7421 105.424C33.5326 104.74 33.2363 104.271 32.8533 104.016C32.4689 103.757 31.9978 103.713 31.44 103.884C31.0434 104.005 30.7423 104.204 30.5365 104.482C30.3307 104.759 30.2376 105.085 30.2572 105.461C30.2768 105.836 30.4154 106.444 30.673 107.285L31.1915 108.978L34.5189 107.96Z" fill="#363636"/>
<path d="M30.7112 96.5648L30.6865 95.284C31.4503 95.3774 32.0737 95.6636 32.5567 96.1424C33.0397 96.6213 33.3409 97.278 33.4606 98.1126C33.6112 99.1637 33.4082 100.044 32.8517 100.754C32.2899 101.461 31.4248 101.897 30.2563 102.064C29.0473 102.237 28.0643 102.06 27.3073 101.533C26.5504 101.005 26.1008 100.246 25.9586 99.253C25.8209 98.2922 26.0355 97.4605 26.6024 96.7581C27.1692 96.0556 28.0459 95.6197 29.2325 95.4502C29.3047 95.4399 29.4133 95.4267 29.5583 95.4106L30.3264 100.77C31.1094 100.612 31.6819 100.302 32.044 99.8409C32.406 99.3795 32.544 98.8488 32.458 98.2488C32.394 97.8022 32.2221 97.4378 31.9422 97.1555C31.6624 96.8732 31.252 96.6763 30.7112 96.5648ZM29.3151 100.845L28.74 96.8325C28.1432 96.973 27.7118 97.1912 27.4457 97.487C27.0321 97.9419 26.8696 98.4784 26.9582 99.0965C27.0384 99.6559 27.2932 100.101 27.7226 100.431C28.1513 100.756 28.6822 100.894 29.3151 100.845Z" fill="#363636"/>
<path d="M25.4867 93.1306L25.5065 87.4158L32.7662 87.4448L32.762 88.6684L26.5208 88.6435L26.5095 91.9042L30.1257 91.9187C30.9688 91.922 31.5247 91.9516 31.7934 92.0073C32.062 92.0631 32.2962 92.2144 32.4959 92.4613C32.6956 92.7082 32.7946 93.0641 32.793 93.5289C32.792 93.816 32.7726 94.1464 32.7348 94.5199L31.7095 94.5158L31.7113 93.9758C31.7122 93.7206 31.6878 93.5382 31.638 93.4286C31.5837 93.319 31.4997 93.2458 31.3859 93.2089C31.2721 93.1719 30.9007 93.1522 30.2718 93.1497L25.4867 93.1306Z" fill="#363636"/>
<path d="M29.1804 86.235C27.851 86.0349 26.9217 85.5171 26.3927 84.6817C25.9535 83.9842 25.8005 83.1915 25.9337 82.3037C26.0817 81.3167 26.5272 80.5588 27.2701 80.03C28.0085 79.5005 28.9478 79.3216 30.0879 79.4932C31.0117 79.6323 31.7186 79.8815 32.2085 80.241C32.6945 80.5953 33.0441 81.0604 33.2572 81.6363C33.4711 82.2077 33.531 82.8066 33.437 83.4331C33.2863 84.4381 32.8421 85.2031 32.1043 85.728C31.3673 86.2485 30.3927 86.4175 29.1804 86.235ZM29.368 84.9843C30.2873 85.1227 31.0069 85.0259 31.5267 84.694C32.042 84.3614 32.3453 83.8909 32.4366 83.2825C32.5272 82.6786 32.3727 82.1414 31.9732 81.6711C31.5737 81.2008 30.903 80.8948 29.9612 80.753C29.0734 80.6194 28.3715 80.7212 27.8555 81.0583C27.3357 81.3902 27.0308 81.8559 26.9409 82.4553C26.8496 83.0637 27.0015 83.6027 27.3965 84.0723C27.7915 84.542 28.4487 84.846 29.368 84.9843Z" fill="#363636"/>
<path d="M36.6755 79.7519L27.0692 76.826L27.3954 75.7534L28.2978 76.0282C28.0216 75.6678 27.8447 75.3019 27.7671 74.9305C27.6851 74.5577 27.7131 74.1446 27.851 73.6912C28.0313 73.0982 28.343 72.6214 28.786 72.2609C29.2291 71.9004 29.7647 71.6896 30.393 71.6285C31.017 71.566 31.6603 71.6357 32.3229 71.8376C33.0335 72.054 33.6353 72.3778 34.1281 72.809C34.618 73.2345 34.9412 73.7379 35.0979 74.3192C35.2516 74.8948 35.2468 75.4508 35.0838 75.9871C34.9644 76.3795 34.7742 76.7074 34.5131 76.9709C34.2533 77.23 33.9665 77.4214 33.6526 77.5449L37.0335 78.5747L36.6755 79.7519ZM30.905 76.8295C31.7987 77.1017 32.5142 77.1219 33.0515 76.8902C33.5888 76.6584 33.9356 76.2853 34.0921 75.7708C34.2512 75.2476 34.1669 74.7336 33.8393 74.2289C33.5086 73.7184 32.879 73.3218 31.9504 73.039C31.0655 72.7694 30.3471 72.7507 29.7954 72.9829C29.2451 73.2106 28.893 73.5774 28.7392 74.0832C28.5867 74.5846 28.6869 75.1011 29.0397 75.6325C29.3895 76.1583 30.0113 76.5573 30.905 76.8295Z" fill="#363636"/>
<path d="M36.3166 66.22L37.0042 65.139C37.589 65.6392 37.9503 66.2222 38.088 66.8882C38.2257 67.5542 38.1136 68.268 37.7518 69.0295C37.2962 69.9886 36.6401 70.6102 35.7837 70.8943C34.925 71.1723 33.9628 71.0578 32.8968 70.5509C31.7938 70.0264 31.0727 69.3353 30.7335 68.4776C30.3942 67.6199 30.4397 66.7382 30.8699 65.8326C31.2865 64.9558 31.9251 64.3815 32.7859 64.1096C33.6467 63.8376 34.6183 63.959 35.7007 64.4738C35.7665 64.5051 35.8643 64.5541 35.9941 64.6208L33.6708 69.5111C34.4106 69.8124 35.0589 69.8709 35.6157 69.6866C36.1725 69.5022 36.581 69.1363 36.8411 68.5888C37.0347 68.1813 37.0929 67.7826 37.0158 67.3927C36.9387 67.0028 36.7056 66.6119 36.3166 66.22ZM32.7865 69.0149L34.526 65.3534C33.951 65.1405 33.4709 65.0838 33.0857 65.1831C32.4895 65.3336 32.0574 65.6908 31.7895 66.2548C31.547 66.7652 31.5134 67.2766 31.6888 67.7889C31.8661 68.2971 32.232 68.7058 32.7865 69.0149Z" fill="#363636"/>
<path d="M33.2082 61.5044L33.8856 60.4772L35.0324 61.2339C35.5269 61.5602 35.9052 61.7688 36.1673 61.8599C36.428 61.9446 36.7161 61.9299 37.0315 61.8159C37.3431 61.6993 37.6105 61.4717 37.8338 61.1331C38.0897 60.7451 38.3182 60.1751 38.5192 59.4233L35.7748 57.6124L36.4522 56.5852L42.5117 60.5834L41.8343 61.6106L39.3922 59.9993C39.1736 60.7613 38.8836 61.4163 38.5223 61.9641C38.2187 62.4245 37.8343 62.755 37.3689 62.9557C36.9022 63.1501 36.4582 63.1984 36.0369 63.1006C35.6156 63.0028 35.2014 62.8196 34.7944 62.551L33.2082 61.5044Z" fill="#363636"/>
<path d="M44.8749 54.1549L45.8354 53.307C46.2586 53.9496 46.4441 54.6098 46.3918 55.2878C46.3394 55.9658 46.0339 56.6204 45.4751 57.2517C44.7713 58.0469 43.9686 58.4622 43.0668 58.4977C42.1647 58.5268 41.2717 58.1502 40.3879 57.3678C39.4735 56.5582 38.9721 55.6944 38.884 54.7763C38.7958 53.8583 39.0839 53.0239 39.7485 52.2732C40.3918 51.5463 41.1648 51.1715 42.0673 51.1488C42.9698 51.1262 43.8698 51.5121 44.7672 52.3066C44.8218 52.3549 44.9022 52.4291 45.0084 52.5292L41.42 56.5833C42.0474 57.0779 42.6541 57.3137 43.2403 57.291C43.8264 57.2682 44.3204 57.0299 44.7221 56.576C45.0211 56.2381 45.1877 55.8712 45.2217 55.4753C45.2557 55.0793 45.1401 54.6392 44.8749 54.1549ZM40.7078 55.8615L43.3946 52.826C42.9011 52.4622 42.4554 52.2746 42.0577 52.2633C41.4431 52.2426 40.9288 52.466 40.515 52.9336C40.1405 53.3567 39.9665 53.8387 39.9929 54.3795C40.0224 54.9169 40.2607 55.4109 40.7078 55.8615Z" fill="#363636"/>
<path d="M126.987 59.4811L127.69 60.552C126.994 60.8801 126.314 60.9702 125.65 60.8224C124.987 60.6746 124.382 60.2795 123.836 59.6369C123.149 58.8276 122.851 57.9741 122.944 57.0764C123.043 56.1792 123.542 55.3485 124.441 54.5843C125.372 53.7936 126.298 53.4196 127.219 53.4623C128.141 53.505 128.926 53.9083 129.575 54.6725C130.203 55.4123 130.465 56.2305 130.36 57.1272C130.254 58.0239 129.745 58.8602 128.831 59.6362C128.776 59.6834 128.691 59.7525 128.577 59.8434L125.072 55.7171C124.493 56.2682 124.174 56.8354 124.114 57.4189C124.053 58.0025 124.219 58.5252 124.612 58.9871C124.904 59.331 125.243 59.5478 125.63 59.6375C126.018 59.7272 126.47 59.6751 126.987 59.4811ZM125.887 55.1143L128.512 58.2037C128.942 57.7667 129.19 57.3521 129.258 56.9599C129.365 56.3544 129.217 55.8137 128.813 55.3379C128.447 54.9072 127.994 54.6667 127.455 54.6163C126.919 54.5694 126.396 54.7354 125.887 55.1143Z" fill="#363636"/>
<path d="M43.8865 48.143L44.8253 47.3476L46.7815 49.6504L49.384 47.4453L47.4279 45.1425L48.3667 44.3471L53.0667 49.8801L52.1279 50.6755L50.0434 48.2216L47.4409 50.4267L49.5253 52.8806L48.5865 53.676L43.8865 48.143Z" fill="#363636"/>
<path d="M133.079 59.3527L133.735 60.3942L131.177 62.0028L132.993 64.89L135.551 63.2814L136.206 64.3228L130.061 68.1878L129.406 67.1464L132.131 65.4322L130.315 62.545L127.589 64.2592L126.934 63.2177L133.079 59.3527Z" fill="#363636"/>
<path d="M56.0971 44.6885L57.1952 44.1566C57.5421 44.9264 57.6168 45.6594 57.4194 46.3556C57.2233 47.0455 56.7936 47.6078 56.1305 48.0426C55.2997 48.5873 54.4533 48.7553 53.5915 48.5465C52.7311 48.3314 51.9684 47.717 51.3036 46.7033C50.8737 46.0478 50.6062 45.4031 50.501 44.7691C50.3958 44.1351 50.4843 43.5512 50.7664 43.0174C51.0499 42.4774 51.4527 42.0362 51.9748 41.6939C52.6341 41.2616 53.2834 41.0757 53.9226 41.1362C54.5592 41.1928 55.1378 41.4892 55.6584 42.0253L54.7592 42.8355C54.3965 42.4903 54.0257 42.2947 53.6468 42.2488C53.2717 42.2005 52.9127 42.2887 52.5697 42.5136C52.0513 42.8534 51.7527 43.3163 51.6737 43.9021C51.5921 44.4842 51.8151 45.1772 52.3424 45.9813C52.8773 46.7968 53.4222 47.2869 53.9772 47.4517C54.5321 47.6164 55.0611 47.5339 55.5642 47.2041C55.9682 46.9392 56.2243 46.5942 56.3324 46.1691C56.4405 45.744 56.3621 45.2505 56.0971 44.6885Z" fill="#363636"/>
<path d="M134.776 71.9341L135.147 73.0963C134.336 73.3305 133.6 73.3006 132.938 73.0066C132.283 72.7148 131.787 72.2099 131.45 71.492C131.028 70.5925 130.982 69.7311 131.31 68.9077C131.645 68.0865 132.361 67.4187 133.459 66.9043C134.169 66.5717 134.845 66.3983 135.488 66.384C136.13 66.3698 136.696 66.5401 137.184 66.8949C137.679 67.252 138.059 67.7132 138.324 68.2784C138.659 68.9922 138.751 69.6612 138.601 70.2852C138.455 70.9073 138.079 71.438 137.475 71.8773L136.8 70.8725C137.193 70.5624 137.439 70.2231 137.538 69.8546C137.639 69.4903 137.602 69.1224 137.428 68.751C137.165 68.1899 136.749 67.8287 136.18 67.6675C135.615 67.5044 134.898 67.6268 134.027 68.0348C133.144 68.4487 132.581 68.9185 132.34 69.4445C132.098 69.9704 132.105 70.5057 132.361 71.0503C132.566 71.4877 132.871 71.79 133.277 71.9572C133.682 72.1245 134.182 72.1168 134.776 71.9341Z" fill="#363636"/>
<path d="M55.5477 39.6941L56.647 39.1414L58.0572 41.9444C58.4074 41.7683 58.6179 41.5783 58.6887 41.3744C58.7636 41.1684 58.7746 40.6732 58.7218 39.8887C58.6795 39.2672 58.6846 38.8413 58.737 38.6109C58.7895 38.3805 58.8889 38.1928 59.0353 38.0478C59.1817 37.9028 59.4483 37.733 59.8351 37.5386L60.055 37.428L60.5127 38.3379L60.2043 38.4853C59.9152 38.6307 59.7515 38.7666 59.713 38.893C59.6726 39.0255 59.6765 39.3577 59.7246 39.8895C59.7707 40.3968 59.7655 40.7667 59.709 40.9991C59.6525 41.2316 59.5135 41.4876 59.292 41.7673C59.8278 41.6561 60.5132 41.8624 61.3481 42.3863L63.5621 43.7904L62.3528 44.3984L60.1694 42.9789C59.7264 42.6966 59.3835 42.5374 59.1409 42.5013C58.8962 42.4611 58.6497 42.5034 58.4013 42.6283L59.9098 45.6267L58.8104 46.1794L55.5477 39.6941Z" fill="#363636"/>
<path d="M139.8 72.0998L140.192 73.2661L137.217 74.2644C137.342 74.6359 137.5 74.8711 137.692 74.9702C137.886 75.0735 138.374 75.1547 139.159 75.2136C139.78 75.2599 140.201 75.3253 140.422 75.4098C140.642 75.4944 140.814 75.6194 140.937 75.7849C141.06 75.9503 141.19 76.2383 141.328 76.6487L141.407 76.8819L140.441 77.206L140.339 76.8798C140.236 76.5731 140.124 76.3918 140.005 76.3358C139.879 76.277 139.55 76.2337 139.016 76.206C138.507 76.1797 138.142 76.122 137.92 76.0332C137.697 75.9443 137.464 75.7704 137.218 75.5115C137.252 76.0576 136.951 76.7066 136.315 77.4587L134.611 79.4507L134.18 78.1677L135.894 76.2081C136.236 75.8096 136.442 75.4929 136.513 75.2579C136.587 75.0214 136.58 74.7714 136.491 74.5079L133.309 75.5757L132.917 74.4093L139.8 72.0998Z" fill="#363636"/>
<path d="M67.3109 42.4438L66.8905 41.1069L68.2275 40.6871L68.6479 42.0239L67.3109 42.4438Z" fill="#363636"/>
<path d="M135.417 83.355L136.8 83.1287L137.027 84.5116L135.644 84.7378L135.417 83.355Z" fill="#363636"/>
<path d="M73.1439 30.5644L79.601 29.8103L79.7388 30.9849L74.5989 31.5851L74.9588 34.6539L77.3352 34.3764C78.2134 34.2739 78.9203 34.2762 79.4559 34.3834C79.9961 34.4901 80.4497 34.7583 80.8167 35.1881C81.1832 35.6133 81.4025 36.1337 81.4747 36.7492C81.5337 37.2516 81.4757 37.7356 81.3009 38.2011C81.13 38.6615 80.839 39.0557 80.4278 39.3836C80.0166 39.7115 79.2768 39.9378 78.2086 40.0625L74.3112 40.5176L73.1439 30.5644ZM75.497 39.2436L78.1315 38.9359C78.8422 38.8529 79.357 38.646 79.6761 38.3151C79.9998 37.9836 80.1276 37.5282 80.0597 36.9489C80.0113 36.537 79.8692 36.2049 79.6331 35.9526C79.397 35.7003 79.0926 35.55 78.7199 35.5017C78.3471 35.4535 77.7239 35.4804 76.8503 35.5824L75.0918 35.7878L75.497 39.2436Z" fill="#363636"/>
<path d="M87.3379 37.5388L88.6029 37.7426C88.3756 38.4776 87.9836 39.0401 87.4268 39.4301C86.87 39.8201 86.1704 39.9996 85.3279 39.9687C84.2667 39.9297 83.436 39.5731 82.8356 38.899C82.24 38.2204 81.9635 37.2913 82.0062 36.1118C82.0504 34.8912 82.3989 33.9554 83.0518 33.3045C83.7046 32.6535 84.532 32.3464 85.534 32.3832C86.504 32.4189 87.2845 32.7781 87.8754 33.4611C88.4663 34.144 88.7401 35.0844 88.6968 36.2822C88.6941 36.3551 88.6879 36.4643 88.6781 36.6098L83.2677 36.4112C83.2844 37.2099 83.4877 37.8284 83.8777 38.2668C84.2677 38.7053 84.7656 38.9356 85.3713 38.9579C85.8221 38.9744 86.2113 38.8701 86.5386 38.645C86.866 38.4199 87.1324 38.0512 87.3379 37.5388ZM83.3726 35.4026L87.4236 35.5514C87.391 34.9391 87.2527 34.4757 87.0087 34.1612C86.6342 33.6732 86.135 33.4177 85.511 33.3948C84.9463 33.3741 84.4636 33.5456 84.0628 33.9094C83.6665 34.2733 83.4365 34.7711 83.3726 35.4026Z" fill="#363636"/>
<path d="M91.6427 33.0072L97.263 34.0426L95.9513 41.1829L94.7479 40.9612L95.8756 34.8227L92.6688 34.2319L92.0154 37.7886C91.8631 38.6178 91.7357 39.1597 91.6334 39.4142C91.531 39.6688 91.3407 39.8724 91.0624 40.025C90.7842 40.1776 90.4165 40.2118 89.9593 40.1276C89.677 40.0756 89.3553 39.9978 88.9944 39.8943L89.1797 38.8857L89.7108 38.9836C89.9618 39.0298 90.1456 39.0382 90.2622 39.0087C90.3796 38.9747 90.4666 38.905 90.523 38.7996C90.5795 38.6941 90.6645 38.3321 90.7781 37.7136L91.6427 33.0072Z" fill="#363636"/>
<path d="M97.843 37.8892C98.2765 36.6167 98.9513 35.7948 99.8674 35.4235C100.632 35.1161 101.439 35.1074 102.288 35.3973C103.233 35.7196 103.899 36.2936 104.287 37.1193C104.676 37.9408 104.685 38.8972 104.313 39.9886C104.012 40.8729 103.641 41.5239 103.2 41.9417C102.765 42.3567 102.245 42.6175 101.641 42.7243C101.041 42.8325 100.441 42.7843 99.8414 42.5798C98.8795 42.2516 98.2061 41.6775 97.821 40.8576C97.4403 40.0391 97.4476 39.0496 97.843 37.8892ZM99.0399 38.2976C98.74 39.1776 98.7071 39.9031 98.9411 40.4741C99.1765 41.0408 99.5854 41.4234 100.168 41.6221C100.746 41.8193 101.301 41.7634 101.835 41.4543C102.369 41.1453 102.79 40.54 103.097 39.6384C103.386 38.7886 103.411 38.0796 103.171 37.5115C102.937 36.9405 102.534 36.5571 101.96 36.3614C101.378 36.1628 100.82 36.2158 100.288 36.5205C99.7557 36.8252 99.3397 37.4176 99.0399 38.2976Z" fill="#363636"/>
<path d="M102.75 46.3714L107.329 37.4341L108.326 37.9457L107.896 38.7853C108.3 38.5773 108.691 38.4682 109.07 38.4577C109.451 38.4432 109.853 38.5441 110.275 38.7604C110.826 39.0432 111.24 39.4347 111.516 39.9349C111.793 40.435 111.905 40.9998 111.854 41.6292C111.805 42.2545 111.623 42.8754 111.307 43.4919C110.968 44.153 110.543 44.6879 110.032 45.0965C109.526 45.5032 108.974 45.7321 108.374 45.7831C107.781 45.8321 107.234 45.7287 106.736 45.473C106.371 45.2858 106.082 45.0403 105.869 44.7365C105.66 44.4347 105.522 44.1184 105.456 43.7875L103.845 46.9328L102.75 46.3714ZM106.646 41.2096C106.22 42.0411 106.074 42.7419 106.207 43.3119C106.34 43.882 106.645 44.2897 107.124 44.5351C107.611 44.7847 108.131 44.793 108.686 44.5601C109.246 44.3252 109.748 43.7758 110.191 42.9119C110.613 42.0885 110.758 41.3847 110.627 40.8004C110.501 40.2181 110.202 39.8064 109.732 39.5652C109.265 39.326 108.74 39.333 108.154 39.5859C107.575 39.8369 107.072 40.3781 106.646 41.2096Z" fill="#363636"/>
<path d="M116.245 48.5181L117.184 49.3897C116.587 49.8748 115.949 50.125 115.269 50.1403C114.589 50.1556 113.907 49.9166 113.224 49.4232C112.363 48.8019 111.87 48.0442 111.745 47.1503C111.626 46.2554 111.912 45.3293 112.602 44.372C113.317 43.3814 114.126 42.7967 115.031 42.6177C115.935 42.4386 116.794 42.6425 117.607 43.2292C118.394 43.7972 118.844 44.5292 118.956 45.4252C119.069 46.3211 118.774 47.2551 118.073 48.2272C118.031 48.2864 117.965 48.3737 117.876 48.4893L113.485 45.3212C113.056 45.9947 112.882 46.622 112.962 47.203C113.043 47.7841 113.33 48.252 113.821 48.6067C114.187 48.8707 114.569 49 114.966 48.9944C115.363 48.9889 115.79 48.8301 116.245 48.5181ZM114.133 44.5406L117.42 46.9128C117.733 46.3855 117.875 45.9234 117.847 45.5264C117.806 44.9126 117.533 44.4231 117.027 44.0577C116.568 43.727 116.071 43.6018 115.536 43.6819C115.004 43.7646 114.537 44.0509 114.133 44.5406Z" fill="#363636"/>
<path d="M121.485 46.3587L122.374 47.2092L121.425 48.2023C121.015 48.6305 120.742 48.9653 120.606 49.2069C120.476 49.4484 120.439 49.7345 120.494 50.0652C120.553 50.3927 120.729 50.6966 121.022 50.9769C121.358 51.2982 121.878 51.6251 122.582 51.9575L124.854 49.5811L125.743 50.4315L120.726 55.6785L119.837 54.828L121.859 52.7134C121.148 52.3618 120.556 51.9592 120.082 51.5056C119.683 51.1245 119.427 50.687 119.313 50.1931C119.205 49.6991 119.237 49.2536 119.409 48.8565C119.58 48.4594 119.835 48.0847 120.172 47.7322L121.485 46.3587Z" fill="#363636"/>
</svg>
