<svg width="123" height="92" viewBox="0 0 123 92" fill="none" xmlns="http://www.w3.org/2000/svg">
<path d="M97.0378 35.9292C98.5278 37.2625 99.577 38.8824 100.847 40.4006C102.033 41.8191 103.856 42.6803 105.271 43.8069C107.204 45.347 108.911 47.2519 110.725 48.9338C112.812 50.8684 115.409 52.1136 117.843 53.53" stroke="#C2000D" stroke-linecap="round" stroke-linejoin="round"/>
<path d="M28.467 66.1631C28.3354 66.2865 28.221 66.4759 28.1896 66.6694C27.9257 68.0654 27.5588 69.0659 26.1555 70.3822C24.4453 71.9865 21.9367 71.4684 20.1773 69.4272C17.5578 66.3881 16.5875 61.72 19.0651 59.3958C19.5255 58.9639 19.9984 58.6844 20.4789 58.6439C20.6668 58.6317 20.8593 58.5331 20.9909 58.4097C21.3417 58.0806 21.3945 57.4979 21.0622 57.1123C20.2607 56.1824 18.5061 57.4592 17.8922 58.0351C14.2305 61.4698 16.0077 67.35 18.8618 70.6613C21.0122 73.1561 24.6535 74.2523 27.3285 71.743C28.9948 70.1799 29.6 68.6278 29.9173 67.0176C29.9754 66.717 29.8872 66.4306 29.7112 66.2265C29.3789 65.8409 28.8178 65.834 28.467 66.1631Z" fill="#C2000D"/>
<path d="M39.9333 49.8618C39.797 49.98 39.6987 50.1445 39.642 50.3126C39.0675 52.3167 38.4963 53.0896 37.4745 53.976C36.362 54.9411 35.071 54.8326 34.1429 53.696C33.4611 52.861 32.9454 51.327 34.1895 48.3854C34.3219 48.0724 34.2725 47.6794 34.0641 47.4243C33.7232 47.0067 33.1553 47.0238 32.8148 47.3193L32.7012 47.4178C30.4009 50.2058 29.9144 54.0752 29.9422 56.8645C29.1202 55.7152 28.1807 54.4697 27.2526 53.3331C26.9496 52.962 26.3665 52.913 26.0033 53.2281C25.64 53.5432 25.5873 54.1437 25.8903 54.5148C27.9169 56.9968 30.1256 60.2717 30.4023 60.9431C30.4364 61.0324 30.4933 61.1019 30.5501 61.1715C30.8342 61.5195 31.368 61.6507 31.7994 61.2765C32.0719 61.0402 32.1891 60.6611 32.0753 60.2843C31.9237 59.8611 31.4035 56.7064 31.9811 53.4712C32.1669 53.9837 32.4586 54.4835 32.7806 54.8778C34.3148 56.7566 36.7718 56.9631 38.6109 55.3677C39.8597 54.2844 40.7261 53.0178 41.361 50.8027C41.4517 50.4863 41.372 50.1987 41.1826 49.9668C40.8607 49.5724 40.2739 49.5663 39.9333 49.8618Z" fill="#C2000D"/>
<path d="M52.2389 41.0879C51.5035 41.4282 51.8437 42.262 50.9449 42.6779C49.8009 43.2072 47.9023 40.2859 46.7388 37.6852C46.5429 37.2472 45.9901 37.0404 45.5543 37.242C45.1185 37.4437 44.9509 37.9508 45.0556 38.3319C45.2243 38.7825 46.9138 44.543 44.1356 45.8285C42.7192 46.4838 41.5647 45.9606 40.8544 44.3729C40.0584 42.5935 40.2205 42.2211 40.0246 41.7831C39.8409 41.3724 39.3303 41.113 38.84 41.3399C38.5132 41.4911 38.2993 41.8214 38.3223 42.2402C38.3441 42.3624 38.4364 43.377 39.2201 45.129C40.2244 47.3738 42.4735 48.58 44.8704 47.471C46.9131 46.5258 47.4898 44.5078 47.5488 42.7293C48.4785 43.8521 49.9637 45.1144 51.6797 44.3204C53.0688 43.6777 53.3933 42.272 53.4382 42.1521C53.486 41.9648 53.4819 41.7353 53.3962 41.5437C53.2125 41.1331 52.6747 40.8863 52.2389 41.0879Z" fill="#C2000D"/>
<path d="M62.1999 47.7783C61.8724 46.6859 62.0939 44.7103 62.7235 42.7388C63.4219 43.502 64.0111 44.4228 64.356 45.5728C64.7439 46.8664 64.2408 48.1116 63.3209 48.3847C62.7748 48.5469 62.3637 48.3245 62.1999 47.7783ZM61.7414 31.6342C61.6811 31.433 61.5345 31.2574 61.3391 31.1276C60.4164 30.5562 59.3558 30.4641 58.3497 30.7628C55.8776 31.4968 54.5897 33.883 55.3311 36.3553C56.1673 39.1439 59.2055 40.089 61.2232 41.4936C60.421 43.8295 59.8977 46.3643 60.4752 48.2904C60.9149 49.7566 62.3722 50.5449 63.8382 50.1096C66.0803 49.4439 66.641 46.9293 66.0806 45.0607C65.5375 43.2495 64.5144 41.9253 63.3963 40.911C63.7959 39.947 64.2502 39.0608 64.6986 38.3641C64.8481 38.1318 64.8568 37.8475 64.7878 37.6175C64.6413 37.1288 64.1268 36.8745 63.6668 37.0111C63.4656 37.0708 63.2816 37.1881 63.1523 37.383C62.7038 38.0797 62.2984 38.9202 61.9017 39.7894C61.5108 39.5298 61.0998 39.3074 60.7261 39.1053C58.8205 38.0744 57.4351 37.1082 57.0558 35.8432C56.5903 34.2908 57.3147 32.9486 58.867 32.4877C59.4706 32.3085 59.9621 32.3817 60.4191 32.653C60.6433 32.7743 60.9078 32.821 61.1377 32.7527C61.6264 32.6077 61.8794 32.0942 61.7414 31.6342Z" fill="#C2000D"/>
<path d="M83.4102 32.7922C83.2322 32.8174 83.0637 32.9018 82.9296 33.0118C81.4189 34.3777 80.5325 34.7152 79.1976 34.9037C77.744 35.109 76.6773 34.3195 76.4448 32.8662C76.2741 31.7985 76.6005 30.2359 79.1661 28.448C79.439 28.2578 79.5945 27.9023 79.5423 27.576C79.4569 27.0421 78.955 26.7491 78.51 26.8119L78.3617 26.8329C74.9561 27.9205 72.5802 30.8947 71.1965 33.2436C71.0625 31.837 70.8752 30.2863 70.6427 28.833C70.5668 28.3585 70.0851 28.0019 69.6104 28.069C69.1358 28.136 68.7869 28.6099 68.8628 29.0844C69.3704 32.258 69.6358 36.1936 69.5373 36.9051C69.5219 36.9983 69.5361 37.0873 69.5503 37.1762C69.6215 37.6211 70.0189 38.0199 70.5826 37.9403C70.9386 37.89 71.2317 37.6363 71.3231 37.2595C71.405 36.8233 72.5456 33.9022 74.6805 31.508C74.5831 32.0373 74.5843 32.6134 74.6649 33.1176C75.0492 35.52 77.0793 37.0227 79.4822 36.6833C81.1138 36.4528 82.5057 35.8619 84.1754 34.3523C84.4139 34.1366 84.4899 33.8529 84.4425 33.5563C84.3618 33.0521 83.8552 32.7294 83.4102 32.7922Z" fill="#C2000D"/>
<path d="M96.8298 29.8587C96.8281 29.7685 96.7965 29.6779 96.7649 29.5873C96.3219 28.289 95.079 27.4296 93.7918 27.4109C90.4991 27.363 87.5692 30.7455 87.6282 33.9311C87.6594 35.614 88.7372 37.2521 90.6829 37.2804C92.5987 37.3082 94.4068 36.3731 95.9361 34.9232C96.1307 35.7372 96.5799 37.3661 97.5677 37.3805C98.0766 37.3879 98.4574 36.9428 98.449 36.492C98.4457 36.3117 98.3825 36.1305 98.2899 35.9789C97.7981 35.2808 97.5098 34.255 97.4842 32.8726C97.4764 32.4519 97.0783 31.9654 96.5694 31.958C96.3 31.9541 96.0628 32.0708 95.8871 32.2786C94.2204 34.3875 92.3557 35.502 90.6495 35.4772C89.9011 35.4663 89.4432 34.979 89.4243 33.9572C89.3831 31.7333 91.7299 29.1836 93.8253 29.2141C94.3341 29.2215 94.9096 29.5904 95.0986 30.1039C95.2251 30.4663 95.5593 30.7415 95.9485 30.7472C96.4873 30.755 96.8381 30.3094 96.8298 29.8587Z" fill="#C2000D"/>
</svg>
