<svg width="377" height="370" viewBox="0 0 377 370" fill="none" xmlns="http://www.w3.org/2000/svg">
<path d="M21.7782 185.176L23.3258 177.491L34.4664 179.734L34.6954 178.597L39.1327 179.49L38.8326 180.981L35.8859 180.387L34.2046 188.736L37.1514 189.33L36.8512 190.82L32.4139 189.927L32.6117 188.945C31.2828 187.619 28.2862 186.487 23.622 185.547L21.7782 185.176ZM24.4798 179.462L23.5932 183.865L24.2394 183.995C25.3135 184.212 26.7644 184.605 28.5919 185.177C30.4148 185.741 31.8698 186.425 32.957 187.23L34.1298 181.405L24.4798 179.462Z" fill="#363636"/>
<path d="M27.8015 174.852L29.8166 167.786L38.7927 170.346L38.3612 171.859L30.6445 169.658L29.4947 173.69L33.9658 174.965C35.0083 175.262 35.686 175.492 35.9992 175.654C36.3124 175.817 36.5495 176.086 36.7107 176.461C36.8718 176.836 36.8705 177.31 36.7065 177.885C36.6053 178.24 36.4663 178.642 36.2894 179.091L35.0216 178.73L35.212 178.062C35.302 177.747 35.3353 177.512 35.3119 177.359C35.2828 177.205 35.2043 177.085 35.0763 177C34.9483 176.915 34.4955 176.761 33.7179 176.539L27.8015 174.852Z" fill="#363636"/>
<path d="M33.2249 158.569L41.9932 161.769L41.4538 163.247L38.0357 162L37.7223 162.858C37.5315 163.381 37.4577 163.797 37.5008 164.106C37.5405 164.408 37.837 164.937 38.3903 165.694L39.8327 167.689L39.1607 169.53L37.384 167.067C36.8417 166.314 36.6122 165.678 36.6954 165.16C36.2704 165.965 35.7349 166.484 35.0889 166.716C34.4449 166.942 33.8008 166.938 33.1568 166.703C32.3973 166.426 31.8782 165.934 31.5997 165.227C31.3232 164.515 31.3708 163.65 31.7424 162.631L33.2249 158.569ZM33.9158 160.496L33.1444 162.61C32.8209 163.496 32.7496 164.119 32.9304 164.478C33.1132 164.831 33.389 165.076 33.7578 165.21C34.2807 165.401 34.7343 165.354 35.1186 165.071C35.4994 164.779 35.8646 164.155 36.2141 163.197L36.8138 161.554L33.9158 160.496Z" fill="#363636"/>
<path d="M40.8022 135.274L41.5172 134.073C42.0276 134.442 42.335 134.783 42.4395 135.094C42.5469 135.399 42.546 135.717 42.4366 136.046C42.3303 136.371 42.0306 136.959 41.5377 137.811C40.8835 138.942 40.5465 139.776 40.527 140.313C40.5074 140.85 40.6858 141.349 41.062 141.811C41.436 142.264 41.9951 142.719 42.739 143.177C42.4263 142.535 42.2766 141.911 42.29 141.302C42.2983 140.691 42.4697 140.097 42.8042 139.518C43.4174 138.458 44.2901 137.792 45.4224 137.52C46.5497 137.245 47.7346 137.466 48.9772 138.185C49.9206 138.731 50.5928 139.353 50.9939 140.052C51.3951 140.751 51.6211 141.437 51.672 142.11C51.7259 142.777 51.5137 143.524 51.0355 144.351C50.481 145.31 49.8316 145.929 49.0874 146.209C48.338 146.487 47.5389 146.569 46.6899 146.457C45.8409 146.345 44.5668 145.798 42.8677 144.815C40.7325 143.58 39.5029 142.388 39.179 141.239C38.8581 140.085 39.1318 138.758 40.0003 137.257C40.5401 136.323 40.8315 135.785 40.8744 135.64C40.9173 135.496 40.8933 135.374 40.8022 135.274ZM48.1118 139.593C47.2699 139.106 46.4642 138.908 45.6948 138.997C44.9283 139.082 44.3353 139.487 43.9158 140.212C43.4786 140.968 43.4252 141.715 43.7556 142.455C44.086 143.194 44.7254 143.838 45.6739 144.387C46.6122 144.93 47.4604 145.119 48.2186 144.955C48.9797 144.786 49.5524 144.37 49.9368 143.705C50.3299 143.026 50.3617 142.31 50.0321 141.557C49.7003 140.797 49.0602 140.142 48.1118 139.593Z" fill="#363636"/>
<path d="M55.0385 132.35L56.127 131.114C56.7705 131.866 57.1136 132.678 57.1561 133.551C57.1985 134.424 56.9143 135.308 56.3032 136.204C55.5336 137.331 54.5765 137.991 53.4319 138.181C52.2858 138.364 51.086 138.027 49.8325 137.172C48.5355 136.287 47.7568 135.266 47.4963 134.109C47.2359 132.952 47.469 131.841 48.1957 130.777C48.8992 129.746 49.8249 129.143 50.9725 128.969C52.1202 128.794 53.3304 129.142 54.6032 130.01C54.6807 130.063 54.7952 130.145 54.9467 130.255L51.0227 136.005C51.9026 136.535 52.7146 136.738 53.4587 136.614C54.2028 136.491 54.7944 136.107 55.2337 135.463C55.5608 134.984 55.714 134.489 55.6936 133.979C55.6731 133.468 55.4548 132.925 55.0385 132.35ZM49.9978 135.199L52.9359 130.894C52.2478 130.51 51.6491 130.342 51.1399 130.392C50.3525 130.465 49.7325 130.832 49.28 131.496C48.8704 132.096 48.7261 132.738 48.847 133.424C48.9712 134.105 49.3548 134.696 49.9978 135.199Z" fill="#363636"/>
<path d="M57.657 126.994L56.6846 126.226C57.0941 125.698 57.355 125.326 57.4671 125.108C57.5829 124.886 57.6161 124.617 57.5666 124.302C57.5171 123.986 57.3544 123.72 57.0786 123.502C56.7429 123.237 56.3873 123.138 56.0116 123.208C55.635 123.268 55.3068 123.476 55.0271 123.83C54.4749 124.529 54.4995 125.343 55.1009 126.274L53.976 127.301C52.892 125.847 52.9058 124.416 54.0173 123.01C54.6349 122.228 55.3318 121.785 56.1081 121.682C56.888 121.574 57.5745 121.754 58.1676 122.223C58.7652 122.695 59.0122 123.361 58.9085 124.22C59.3968 124.008 59.8676 123.932 60.321 123.991C60.7697 124.047 61.2033 124.24 61.6216 124.571C62.2791 125.09 62.6235 125.751 62.6549 126.552C62.6862 127.354 62.3623 128.184 61.683 129.044C60.3644 130.713 58.8572 131.094 57.1616 130.187L57.8342 128.826C58.3866 129.091 58.9188 129.164 59.4305 129.045C59.9459 128.922 60.3688 128.652 60.6994 128.233C61.03 127.815 61.187 127.375 61.1705 126.914C61.153 126.445 60.9604 126.065 60.5926 125.774C60.3075 125.549 59.9902 125.44 59.6407 125.448C59.2912 125.455 59.013 125.538 58.8063 125.696C58.5949 125.85 58.284 126.187 57.8735 126.706C57.8408 126.748 57.7686 126.844 57.657 126.994Z" fill="#363636"/>
<path d="M61.3115 121.85C60.0333 120.686 59.41 119.469 59.4416 118.198C59.4706 117.139 59.8737 116.183 60.6508 115.329C61.5146 114.38 62.5326 113.889 63.7048 113.854C64.8727 113.816 66.0047 114.296 67.101 115.294C67.9892 116.102 68.5667 116.874 68.8334 117.608C69.0998 118.334 69.1411 119.08 68.9573 119.848C68.7774 120.611 68.4133 121.294 67.8651 121.897C66.9855 122.863 65.9637 123.363 64.7998 123.397C63.6398 123.426 62.477 122.911 61.3115 121.85ZM62.406 120.647C63.29 121.452 64.1284 121.862 64.9214 121.879C65.7101 121.892 66.3707 121.606 66.9032 121.021C67.4317 120.44 67.6505 119.756 67.5596 118.968C67.4687 118.18 66.9705 117.374 66.0649 116.55C65.2113 115.772 64.3882 115.38 63.5956 115.371C62.8026 115.355 62.1438 115.634 61.6192 116.211C61.0867 116.796 60.8637 117.48 60.9503 118.264C61.0369 119.048 61.5221 119.842 62.406 120.647Z" fill="#363636"/>
<path d="M65.5553 110.583L70.893 105.508L77.3246 112.272L76.178 113.363L70.6488 107.547L67.6042 110.442L73.1334 116.257L71.9869 117.348L65.5553 110.583Z" fill="#363636"/>
<path d="M82.7881 106.337C82.6518 107.094 82.4382 107.724 82.1475 108.229C81.8614 108.729 81.4784 109.177 80.9986 109.571C80.2065 110.223 79.4396 110.531 78.6978 110.496C77.9524 110.456 77.3322 110.135 76.8373 109.533C76.5471 109.18 76.3621 108.794 76.2824 108.374C76.2035 107.946 76.2204 107.537 76.3333 107.149C76.4507 106.757 76.6352 106.381 76.8866 106.023C77.0744 105.762 77.3863 105.403 77.8222 104.946C78.7122 104.018 79.3233 103.28 79.6556 102.734C79.5225 102.563 79.4373 102.454 79.4001 102.409C78.9908 101.911 78.587 101.655 78.1887 101.641C77.6494 101.622 77.072 101.865 76.4564 102.371C75.8816 102.844 75.5398 103.296 75.4312 103.726C75.3233 104.149 75.414 104.67 75.7032 105.289L74.3743 106.108C74.0625 105.508 73.9026 104.949 73.8948 104.432C73.8833 103.91 74.0441 103.372 74.3772 102.818C74.7065 102.259 75.1812 101.724 75.8013 101.215C76.4169 100.709 76.9766 100.37 77.4804 100.199C77.9842 100.027 78.4178 99.9778 78.7811 100.051C79.1408 100.119 79.4945 100.291 79.8423 100.567C80.0542 100.741 80.3834 101.1 80.8299 101.643L82.1694 103.273C83.1034 104.409 83.7199 105.108 84.019 105.37C84.3189 105.624 84.6592 105.826 85.0401 105.976L83.7637 107.025C83.4286 106.876 83.1034 106.646 82.7881 106.337ZM80.4426 103.691C80.1478 104.237 79.609 104.938 78.826 105.794C78.3831 106.279 78.0948 106.653 77.961 106.914C77.8272 107.176 77.7763 107.442 77.8083 107.711C77.8365 107.976 77.9381 108.215 78.113 108.428C78.3809 108.754 78.7263 108.925 79.1493 108.941C79.5769 108.954 80.0283 108.765 80.5036 108.374C80.9743 107.987 81.3092 107.541 81.5084 107.036C81.7039 106.526 81.7407 106.022 81.6187 105.523C81.523 105.139 81.2537 104.678 80.8109 104.139L80.4426 103.691Z" fill="#363636"/>
<path d="M89.5982 98.6244L90.983 97.8874C91.4661 98.8597 91.5977 99.7979 91.3779 100.702C91.1595 101.598 90.6349 102.341 89.8041 102.932C88.7632 103.673 87.6841 103.93 86.5668 103.703C85.4509 103.469 84.4413 102.717 83.5379 101.447C82.9537 100.625 82.5787 99.8099 82.4128 99.0004C82.2468 98.1908 82.3321 97.4363 82.6686 96.7368C83.0065 96.0291 83.5025 95.4426 84.1567 94.9773C84.9827 94.3898 85.8077 94.1193 86.6318 94.1659C87.4525 94.2077 88.2103 94.5603 88.9051 95.2238L87.7892 96.3087C87.3065 95.8827 86.8206 95.6494 86.3316 95.609C85.8474 95.5651 85.3905 95.696 84.9607 96.0016C84.3114 96.4635 83.9502 97.0727 83.8772 97.8293C83.8007 98.5812 84.1208 99.4608 84.8374 100.468C85.5642 101.49 86.2881 102.093 87.009 102.278C87.73 102.463 88.4056 102.331 89.0359 101.883C89.542 101.523 89.8542 101.067 89.9724 100.515C90.0907 99.9638 89.9659 99.3335 89.5982 98.6244Z" fill="#363636"/>
<path d="M88.8792 92.103L90.2273 91.2751L92.2604 94.5853L95.9976 92.29L93.9645 88.9798L95.3125 88.1518L100.198 96.1054L98.8494 96.9334L96.6829 93.4059L92.9458 95.7012L95.1123 99.2287L93.7642 100.057L88.8792 92.103Z" fill="#363636"/>
<path d="M99.0703 91.4881C98.2742 89.9538 98.111 88.5961 98.5807 87.415C98.9747 86.4316 99.6841 85.674 100.709 85.1424C101.848 84.5514 102.973 84.4427 104.084 84.8165C105.193 85.1851 106.089 86.0273 106.772 87.3432C107.325 88.4093 107.6 89.3329 107.596 90.114C107.594 90.8871 107.374 91.6019 106.936 92.2584C106.503 92.9122 105.925 93.4267 105.202 93.8018C104.042 94.4036 102.911 94.5189 101.807 94.1476C100.708 93.7736 99.7963 92.8871 99.0703 91.4881ZM100.514 90.7392C101.064 91.8001 101.708 92.4758 102.447 92.7661C103.182 93.0512 103.901 93.0116 104.603 92.6472C105.3 92.2856 105.742 91.7194 105.93 90.9488C106.117 90.1781 105.929 89.2493 105.365 88.1623C104.833 87.1377 104.197 86.4842 103.457 86.2018C102.718 85.9115 102.004 85.9458 101.312 86.3048C100.61 86.6691 100.163 87.234 99.9732 87.9995C99.7829 88.765 99.963 89.6782 100.514 90.7392Z" fill="#363636"/>
<path d="M114.883 85.4034L116.391 84.9704C116.662 86.0218 116.595 86.9669 116.192 87.8056C115.793 88.6366 115.125 89.2547 114.189 89.66C113.017 90.1679 111.908 90.195 110.863 89.7413C109.82 89.28 108.989 88.3343 108.369 86.9041C107.968 85.9794 107.771 85.1039 107.777 84.2775C107.783 83.4512 108.023 82.7309 108.498 82.1165C108.975 81.4945 109.582 81.024 110.319 80.7048C111.249 80.3018 112.112 80.2088 112.909 80.4256C113.703 80.6372 114.371 81.1396 114.912 81.933L113.595 82.7622C113.212 82.2452 112.785 81.916 112.315 81.7748C111.851 81.6312 111.376 81.6643 110.893 81.8739C110.161 82.1907 109.681 82.7116 109.453 83.4365C109.222 84.156 109.352 85.083 109.843 86.2174C110.342 87.3679 110.925 88.1085 111.591 88.439C112.258 88.7695 112.946 88.781 113.656 88.4735C114.226 88.2265 114.626 87.8457 114.856 87.3308C115.087 86.8159 115.096 86.1735 114.883 85.4034Z" fill="#363636"/>
<path d="M114.722 79.171L121.864 76.615L122.305 77.8479L119.475 78.8609L122.179 86.4159L120.698 86.9461L117.994 79.391L115.164 80.404L114.722 79.171Z" fill="#363636"/>
<path d="M124.323 75.924L125.846 75.4961L127.772 82.3498L130.068 74.3097L131.71 73.8485L134.235 82.8345L132.712 83.2624L130.798 76.451L128.49 84.4488L126.848 84.91L124.323 75.924Z" fill="#363636"/>
<path d="M141.717 71.9005L143.28 71.6558L143.903 75.6415C144.401 75.5636 144.734 75.4137 144.901 75.1919C145.073 74.9691 145.282 74.3672 145.525 73.386C145.718 72.6086 145.892 72.0892 146.047 71.8277C146.201 71.5663 146.397 71.3755 146.633 71.2555C146.869 71.1355 147.262 71.0325 147.812 70.9464L148.125 70.8975L148.327 72.1913L147.892 72.2506C147.481 72.3149 147.227 72.4169 147.13 72.5566C147.029 72.703 146.903 73.1111 146.753 73.7811C146.61 74.4203 146.458 74.8711 146.297 75.1334C146.136 75.3958 145.866 75.6547 145.485 75.91C146.184 75.9844 146.942 76.5063 147.758 77.4757L149.916 80.0648L148.196 80.3339L146.082 77.738C145.651 77.2184 145.294 76.8888 145.011 76.7492C144.727 76.6038 144.409 76.5588 144.056 76.614L144.723 80.8776L143.16 81.1222L141.717 71.9005Z" fill="#363636"/>
<path d="M151.04 70.657L158.359 70.0129L159.178 79.3109L157.611 79.4488L156.907 71.4553L152.731 71.8229L153.138 76.4544C153.233 77.5342 153.261 78.2494 153.221 78.5999C153.182 78.9504 153.015 79.268 152.723 79.5526C152.43 79.8371 151.986 80.0056 151.391 80.058C151.023 80.0904 150.598 80.1042 150.115 80.0997L150 78.7864L150.691 78.7255C151.018 78.6968 151.249 78.6441 151.383 78.5676C151.517 78.4852 151.601 78.369 151.635 78.219C151.669 78.0689 151.65 77.5912 151.579 76.7857L151.04 70.657Z" fill="#363636"/>
<path d="M160.844 70.0108L162.425 69.9898L162.52 77.1083L166.811 69.9313L168.516 69.9086L168.64 79.2417L167.058 79.2628L166.964 72.1882L162.673 79.3213L160.968 79.344L160.844 70.0108Z" fill="#363636"/>
<path d="M177.432 76.7911L179.051 77.0928C178.736 78.0303 178.214 78.741 177.485 79.2247C176.757 79.7085 175.852 79.9173 174.77 79.8511C173.408 79.7677 172.351 79.2833 171.601 78.3979C170.857 77.5071 170.532 76.3043 170.624 74.7895C170.72 73.2222 171.198 72.0304 172.058 71.2142C172.918 70.398 173.992 70.0293 175.278 70.1081C176.524 70.1843 177.516 70.6706 178.253 71.5669C178.991 72.4633 179.313 73.6805 179.219 75.2186C179.213 75.3122 179.201 75.4524 179.184 75.6392L172.236 75.214C172.232 76.241 172.474 77.0425 172.961 77.6182C173.448 78.194 174.081 78.5056 174.858 78.5533C175.437 78.5887 175.941 78.4669 176.369 78.1878C176.797 77.9087 177.151 77.4432 177.432 76.7911ZM172.403 73.921L177.606 74.2394C177.583 73.4514 177.421 72.8514 177.117 72.4396C176.651 71.8005 176.018 71.4565 175.217 71.4075C174.491 71.3631 173.865 71.5684 173.338 72.0234C172.817 72.4788 172.506 73.1113 172.403 73.921Z" fill="#363636"/>
<path d="M182.008 70.9527L183.576 71.1628L183.059 75.0132L187.406 75.5958L187.922 71.7455L189.49 71.9557L188.25 81.2069L186.682 80.9967L187.232 76.8938L182.886 76.3111L182.336 80.4141L180.768 80.2039L182.008 70.9527Z" fill="#363636"/>
<path d="M190.976 72.3043L198.409 73.8165L198.148 75.0998L195.202 74.5005L193.602 82.3638L192.061 82.0502L193.661 74.1869L190.715 73.5876L190.976 72.3043Z" fill="#363636"/>
<path d="M199.056 78.8396C199.518 77.174 200.323 76.0686 201.471 75.5237C202.43 75.0719 203.465 75.0003 204.577 75.3087C205.814 75.6516 206.712 76.3385 207.271 77.3692C207.832 78.3942 207.915 79.621 207.518 81.0495C207.197 82.207 206.769 83.0704 206.235 83.6395C205.707 84.2046 205.059 84.5783 204.291 84.7606C203.529 84.9444 202.755 84.9274 201.97 84.7098C200.711 84.3606 199.804 83.6743 199.249 82.6508C198.699 81.6289 198.635 80.3585 199.056 78.8396ZM200.623 79.2741C200.303 80.426 200.315 81.3595 200.658 82.0748C201.002 82.7844 201.556 83.2449 202.318 83.4563C203.075 83.6661 203.784 83.5528 204.446 83.1162C205.108 82.6796 205.603 81.8713 205.93 80.6912C206.239 79.5789 206.218 78.6672 205.868 77.956C205.525 77.2407 204.978 76.7789 204.227 76.5707C203.465 76.3593 202.754 76.4691 202.093 76.9C201.432 77.3309 200.942 78.1223 200.623 79.2741Z" fill="#363636"/>
<path d="M211.026 77.5453L214.461 78.7708C215.306 79.072 215.907 79.3672 216.264 79.6563C216.629 79.942 216.89 80.3246 217.049 80.8042C217.213 81.2858 217.202 81.7887 217.015 82.313C216.865 82.7324 216.646 83.0679 216.357 83.3195C216.076 83.5675 215.724 83.7344 215.301 83.8201C215.666 84.1057 215.915 84.4871 216.05 84.9644C216.192 85.4381 216.171 85.9343 215.986 86.4531C215.633 87.2667 215.115 87.7785 214.43 87.9885C213.746 88.1984 212.887 88.1193 211.855 87.7512L207.89 86.3367L211.026 77.5453ZM211.196 81.7772L212.786 82.3442C213.42 82.5705 213.868 82.693 214.129 82.7114C214.39 82.7298 214.65 82.6731 214.908 82.5414C215.169 82.4041 215.349 82.1948 215.449 81.9133C215.615 81.4497 215.564 81.0678 215.298 80.7676C215.038 80.4693 214.51 80.1785 213.715 79.895L212.076 79.3103L211.196 81.7772ZM209.817 85.6431L211.779 86.3429C212.623 86.6441 213.237 86.7543 213.621 86.6733C214.006 86.5868 214.293 86.3065 214.481 85.8323C214.581 85.5508 214.583 85.259 214.485 84.9567C214.39 84.6489 214.206 84.4125 213.936 84.2474C213.667 84.0769 213.209 83.8764 212.564 83.6461L210.759 83.0024L209.817 85.6431Z" fill="#363636"/>
<path d="M227.008 84.0732L229.202 85.1891L228 92.9595L233.816 87.5364L235.845 88.5685L231.612 96.8878L230.202 96.1705L233.61 89.4728L227.743 94.9191L226.481 94.2775L227.726 86.075L224.155 93.0939L222.776 92.3925L227.008 84.0732Z" fill="#363636"/>
<path d="M245.039 94.3527L246.384 95.1855L241.47 103.122L240.125 102.289L245.039 94.3527ZM237.514 89.6937L238.859 90.5265L236.939 93.6277L238.642 94.6826C239.753 95.3704 240.474 96.1161 240.803 96.9196C241.141 97.7213 241.075 98.5007 240.606 99.258C240.196 99.9205 239.593 100.333 238.796 100.494C238.008 100.654 237.064 100.393 235.963 99.7118L232.6 97.6298L237.514 89.6937ZM234.63 97.3566L236.042 98.231C236.894 98.7585 237.567 99.0302 238.06 99.0461C238.553 99.062 238.937 98.8483 239.212 98.4049C239.424 98.0611 239.48 97.6715 239.377 97.2359C239.275 96.8003 238.763 96.2972 237.841 95.7266L236.249 94.7411L234.63 97.3566Z" fill="#363636"/>
<path d="M249.904 103.769C250.997 102.43 252.179 101.742 253.449 101.705C254.508 101.677 255.485 102.028 256.379 102.758C257.373 103.57 257.919 104.56 258.016 105.729C258.117 106.893 257.699 108.049 256.761 109.197C256.002 110.128 255.263 110.746 254.544 111.052C253.833 111.357 253.09 111.438 252.314 111.296C251.542 111.157 250.84 110.831 250.209 110.316C249.197 109.489 248.643 108.496 248.546 107.335C248.454 106.179 248.907 104.99 249.904 103.769ZM251.163 104.797C250.407 105.723 250.042 106.583 250.068 107.375C250.098 108.163 250.419 108.808 251.032 109.308C251.64 109.804 252.335 109.986 253.117 109.853C253.899 109.72 254.677 109.179 255.452 108.23C256.182 107.336 256.53 106.493 256.495 105.701C256.469 104.908 256.155 104.266 255.551 103.773C254.938 103.273 254.243 103.087 253.464 103.215C252.686 103.344 251.919 103.871 251.163 104.797Z" fill="#363636"/>
<path d="M260.749 106.811L266.276 112.006L265.379 112.96L263.188 110.901L257.693 116.748L256.546 115.67L262.042 109.824L259.852 107.765L260.749 106.811Z" fill="#363636"/>
<path d="M267.985 113.874L269.067 115.027L266.125 117.788C266.47 118.155 266.781 118.345 267.058 118.358C267.34 118.376 267.954 118.209 268.902 117.857C269.653 117.579 270.18 117.43 270.484 117.41C270.787 117.391 271.055 117.445 271.287 117.573C271.519 117.7 271.826 117.967 272.206 118.373L272.423 118.604L271.468 119.5L271.174 119.174C270.889 118.87 270.662 118.718 270.492 118.717C270.314 118.715 269.905 118.841 269.267 119.094C268.658 119.336 268.2 119.464 267.893 119.479C267.586 119.494 267.219 119.416 266.794 119.245C267.126 119.865 267.122 120.785 266.78 122.006L265.856 125.247L264.666 123.978L265.62 120.769C265.806 120.12 265.878 119.639 265.834 119.327C265.794 119.01 265.652 118.722 265.407 118.461L262.26 121.414L261.178 120.26L267.985 113.874Z" fill="#363636"/>
<path d="M263.783 128.459L273.773 120.28L274.686 121.395L273.748 122.163C274.33 122.126 274.847 122.198 275.3 122.381C275.757 122.559 276.178 122.884 276.564 123.356C277.069 123.973 277.356 124.647 277.424 125.378C277.493 126.109 277.336 126.833 276.952 127.548C276.573 128.26 276.039 128.898 275.35 129.462C274.611 130.067 273.835 130.479 273.022 130.697C272.217 130.917 271.448 130.903 270.715 130.655C269.99 130.408 269.4 130.005 268.943 129.448C268.609 129.04 268.394 128.602 268.3 128.135C268.208 127.672 268.209 127.228 268.301 126.804L264.785 129.683L263.783 128.459ZM271.029 124.378C270.099 125.139 269.566 125.89 269.43 126.63C269.294 127.37 269.445 128.007 269.883 128.542C270.328 129.086 270.938 129.363 271.711 129.374C272.493 129.385 273.366 128.996 274.332 128.205C275.252 127.451 275.786 126.697 275.932 125.941C276.081 125.19 275.941 124.551 275.511 124.025C275.084 123.504 274.46 123.242 273.64 123.239C272.829 123.238 271.958 123.617 271.029 124.378Z" fill="#363636"/>
<path d="M285.402 135.914L286.304 137.213L278.637 142.537L277.735 141.237L285.402 135.914ZM280.354 128.644L281.256 129.943L278.26 132.024L279.403 133.67C280.149 134.743 280.512 135.714 280.495 136.582C280.485 137.452 280.115 138.141 279.383 138.649C278.743 139.093 278.025 139.231 277.231 139.063C276.444 138.895 275.682 138.28 274.943 137.216L272.687 133.968L280.354 128.644ZM274.658 134.525L275.605 135.89C276.177 136.713 276.686 137.23 277.132 137.441C277.578 137.652 278.015 137.608 278.443 137.311C278.776 137.08 278.981 136.745 279.061 136.305C279.14 135.864 278.871 135.199 278.252 134.308L277.185 132.771L274.658 134.525Z" fill="#363636"/>
<path d="M287.307 139.212L291.008 145.559L282.944 150.26L282.152 148.901L289.084 144.86L286.973 141.238L282.956 143.58C282.02 144.126 281.384 144.455 281.05 144.569C280.716 144.682 280.358 144.667 279.976 144.523C279.594 144.38 279.252 144.05 278.951 143.534C278.765 143.215 278.572 142.836 278.37 142.397L279.509 141.733L279.859 142.333C280.024 142.617 280.17 142.803 280.296 142.892C280.428 142.978 280.569 143.004 280.719 142.971C280.869 142.938 281.294 142.718 281.992 142.31L287.307 139.212Z" fill="#363636"/>
<path d="M292.068 147.805L292.761 149.227L286.361 152.345L294.682 153.17L295.429 154.702L287.038 158.791L286.345 157.369L292.706 154.27L284.424 153.426L283.677 151.893L292.068 147.805Z" fill="#363636"/>
<path d="M299.554 165.4L301.648 171.557L294.042 174.143L294.368 175.1L290.631 176.371L290.213 175.139L292.717 174.288L290.352 167.331L287.847 168.183L287.429 166.951L291.165 165.681L291.434 166.471C293.223 167.039 295.93 166.681 299.554 165.4ZM298.739 167.069C295.833 167.934 293.56 168.211 291.92 167.902L293.536 172.654L299.901 170.489L298.739 167.069Z" fill="#363636"/>
<path d="M297.694 174.919C299.367 174.486 300.727 174.63 301.773 175.352C302.644 175.955 303.224 176.816 303.513 177.934C303.835 179.176 303.689 180.297 303.076 181.297C302.469 182.295 301.448 182.98 300.013 183.352C298.85 183.653 297.889 183.714 297.128 183.536C296.375 183.361 295.727 182.987 295.185 182.413C294.645 181.845 294.273 181.167 294.068 180.378C293.741 179.113 293.882 177.985 294.49 176.992C295.1 176.005 296.168 175.314 297.694 174.919ZM298.101 176.493C296.944 176.792 296.142 177.269 295.694 177.924C295.252 178.577 295.13 179.287 295.328 180.052C295.525 180.812 295.978 181.37 296.687 181.725C297.396 182.08 298.343 182.104 299.529 181.797C300.646 181.508 301.426 181.034 301.866 180.375C302.314 179.721 302.441 179.016 302.245 178.262C302.047 177.496 301.596 176.935 300.893 176.578C300.189 176.222 299.259 176.193 298.101 176.493Z" fill="#363636"/>
<path d="M300.091 191.691L300.176 193.258C299.091 193.286 298.185 193.011 297.457 192.43C296.736 191.855 296.283 191.066 296.097 190.064C295.864 188.808 296.085 187.721 296.761 186.803C297.444 185.889 298.552 185.291 300.084 185.006C301.075 184.822 301.972 184.826 302.776 185.016C303.581 185.207 304.229 185.602 304.722 186.202C305.221 186.806 305.544 187.503 305.691 188.292C305.876 189.289 305.774 190.151 305.384 190.879C305.001 191.606 304.362 192.144 303.467 192.495L302.953 191.026C303.543 190.768 303.959 190.425 304.202 189.999C304.446 189.578 304.519 189.109 304.423 188.59C304.278 187.807 303.877 187.222 303.222 186.837C302.572 186.451 301.639 186.371 300.424 186.597C299.191 186.826 298.339 187.228 297.868 187.804C297.397 188.38 297.232 189.049 297.373 189.809C297.486 190.42 297.768 190.895 298.218 191.234C298.669 191.574 299.293 191.726 300.091 191.691Z" fill="#363636"/>
<path d="M306.202 192.926L307.098 200.458L305.797 200.613L305.442 197.628L297.474 198.575L297.288 197.013L305.256 196.066L304.902 193.081L306.202 192.926Z" fill="#363636"/>
<path d="M299.344 209.491C298.818 208.93 298.439 208.382 298.208 207.848C297.977 207.319 297.846 206.745 297.816 206.125C297.766 205.101 297.977 204.301 298.448 203.727C298.924 203.152 299.552 202.846 300.33 202.808C300.786 202.786 301.207 202.868 301.591 203.055C301.982 203.247 302.3 203.505 302.544 203.827C302.789 204.155 302.98 204.527 303.117 204.943C303.215 205.249 303.316 205.714 303.423 206.336C303.637 207.605 303.864 208.535 304.104 209.128C304.321 209.123 304.458 209.119 304.517 209.116C305.161 209.085 305.607 208.914 305.856 208.603C306.193 208.181 306.343 207.573 306.304 206.777C306.268 206.034 306.109 205.49 305.829 205.146C305.554 204.807 305.082 204.569 304.413 204.431L304.548 202.876C305.216 202.984 305.76 203.19 306.18 203.492C306.605 203.794 306.941 204.244 307.187 204.842C307.439 205.44 307.584 206.14 307.623 206.942C307.662 207.738 307.6 208.389 307.436 208.895C307.273 209.402 307.054 209.779 306.779 210.027C306.509 210.275 306.16 210.456 305.732 210.571C305.465 210.637 304.98 210.687 304.278 210.721L302.171 210.823C300.702 210.895 299.773 210.972 299.384 211.055C299.001 211.144 298.636 211.297 298.289 211.513L298.209 209.863C298.529 209.683 298.907 209.559 299.344 209.491ZM302.866 209.188C302.604 208.626 302.363 207.775 302.144 206.636C302.019 205.991 301.891 205.537 301.761 205.273C301.631 205.01 301.448 204.81 301.213 204.675C300.983 204.539 300.731 204.478 300.456 204.492C300.034 204.512 299.691 204.687 299.425 205.017C299.16 205.352 299.042 205.828 299.072 206.442C299.102 207.051 299.26 207.586 299.546 208.047C299.838 208.508 300.221 208.838 300.694 209.038C301.059 209.191 301.59 209.25 302.287 209.216L302.866 209.188Z" fill="#363636"/>
<path d="M307.515 213.608L307.429 217.254C307.408 218.15 307.316 218.813 307.153 219.243C306.996 219.679 306.715 220.048 306.31 220.349C305.904 220.655 305.423 220.802 304.866 220.789C304.421 220.779 304.034 220.676 303.704 220.481C303.38 220.291 303.112 220.009 302.898 219.635C302.741 220.071 302.457 220.428 302.046 220.705C301.641 220.989 301.163 221.124 300.612 221.111C299.729 221.032 299.081 220.7 298.666 220.116C298.252 219.531 298.058 218.692 298.084 217.596L298.183 213.387L307.515 213.608ZM303.55 215.097L303.51 216.784C303.494 217.457 303.518 217.921 303.583 218.174C303.647 218.428 303.782 218.657 303.989 218.861C304.201 219.065 304.456 219.171 304.755 219.178C305.247 219.189 305.594 219.022 305.795 218.675C305.997 218.334 306.107 217.742 306.127 216.898L306.168 215.158L303.55 215.097ZM299.446 215L299.397 217.082C299.376 217.978 299.464 218.596 299.661 218.935C299.864 219.273 300.22 219.458 300.73 219.487C301.028 219.494 301.306 219.404 301.562 219.217C301.825 219.03 301.992 218.782 302.064 218.473C302.141 218.164 302.188 217.667 302.204 216.981L302.249 215.066L299.446 215Z" fill="#363636"/>
<path d="M307.073 223.507L306.933 225.082L302.915 224.725C302.87 225.227 302.935 225.586 303.11 225.801C303.284 226.023 303.818 226.37 304.711 226.844C305.419 227.218 305.881 227.512 306.098 227.726C306.314 227.939 306.452 228.175 306.511 228.433C306.571 228.691 306.576 229.098 306.526 229.652L306.498 229.967L305.194 229.851L305.242 229.414C305.278 229 305.241 228.729 305.129 228.601C305.011 228.467 304.645 228.247 304.032 227.939C303.446 227.646 303.045 227.39 302.829 227.17C302.614 226.951 302.428 226.626 302.272 226.194C302.031 226.855 301.341 227.464 300.204 228.022L297.17 229.491L297.324 227.757L300.354 226.332C300.962 226.04 301.368 225.773 301.572 225.532C301.782 225.292 301.902 224.994 301.934 224.638L297.636 224.255L297.776 222.68L307.073 223.507Z" fill="#363636"/>
<path d="M293.368 230.058L294.863 230.109C294.718 230.436 294.626 230.728 294.587 230.983C294.534 231.33 294.55 231.617 294.634 231.843C294.718 232.069 294.854 232.265 295.042 232.43C295.184 232.552 295.547 232.771 296.133 233.086C296.216 233.128 296.336 233.194 296.494 233.283L306.274 231.193L306.016 232.879L300.38 233.983C299.664 234.129 298.917 234.243 298.14 234.326C298.831 234.615 299.499 234.936 300.145 235.29L305.221 238.083L304.983 239.647L296.135 234.704C295.179 234.173 294.526 233.774 294.175 233.507C293.702 233.15 293.374 232.774 293.192 232.379C293.003 231.982 292.947 231.535 293.023 231.037C293.069 230.736 293.184 230.41 293.368 230.058Z" fill="#363636"/>
<path d="M303.118 247.489L301.111 254.803L299.848 254.457L300.643 251.558L292.905 249.434L293.321 247.917L301.06 250.041L301.855 247.142L303.118 247.489Z" fill="#363636"/>
<path d="M296.055 255.111C297.686 255.684 298.735 256.562 299.202 257.744C299.588 258.73 299.59 259.768 299.208 260.857C298.783 262.068 298.037 262.918 296.971 263.407C295.911 263.898 294.681 263.897 293.283 263.406C292.149 263.008 291.317 262.524 290.785 261.952C290.256 261.387 289.927 260.716 289.796 259.937C289.664 259.164 289.733 258.394 290.003 257.625C290.436 256.392 291.181 255.533 292.24 255.048C293.296 254.568 294.568 254.589 296.055 255.111ZM295.517 256.646C294.389 256.25 293.457 256.199 292.72 256.493C291.989 256.789 291.492 257.31 291.23 258.056C290.97 258.797 291.036 259.512 291.427 260.202C291.818 260.892 292.591 261.44 293.747 261.846C294.836 262.228 295.747 262.269 296.48 261.967C297.217 261.673 297.714 261.159 297.972 260.423C298.234 259.677 298.172 258.96 297.787 258.272C297.401 257.584 296.644 257.042 295.517 256.646Z" fill="#363636"/>
<path d="M296.544 267.142L295.091 270.487C294.733 271.309 294.399 271.889 294.086 272.226C293.777 272.571 293.377 272.806 292.888 272.932C292.397 273.064 291.896 273.018 291.385 272.797C290.977 272.619 290.657 272.378 290.425 272.073C290.196 271.776 290.053 271.413 289.996 270.986C289.687 271.331 289.29 271.554 288.804 271.657C288.322 271.766 287.828 271.712 287.323 271.492C286.535 271.086 286.059 270.534 285.896 269.837C285.732 269.14 285.869 268.289 286.305 267.284L287.983 263.423L296.544 267.142ZM292.31 267.027L291.638 268.575C291.369 269.193 291.217 269.632 291.181 269.891C291.145 270.15 291.184 270.413 291.298 270.68C291.418 270.949 291.615 271.143 291.889 271.262C292.34 271.458 292.725 271.433 293.042 271.188C293.357 270.948 293.683 270.441 294.019 269.667L294.712 268.071L292.31 267.027ZM288.545 265.392L287.715 267.303C287.358 268.125 287.207 268.73 287.262 269.118C287.323 269.508 287.583 269.813 288.044 270.032C288.318 270.152 288.609 270.173 288.917 270.096C289.23 270.021 289.479 269.854 289.662 269.595C289.85 269.338 290.08 268.895 290.354 268.267L291.117 266.509L288.545 265.392Z" fill="#363636"/>
<path d="M282.334 277.775C282.164 277.025 282.114 276.361 282.185 275.783C282.253 275.21 282.431 274.649 282.719 274.098C283.194 273.19 283.78 272.607 284.477 272.35C285.179 272.095 285.875 272.148 286.565 272.51C286.97 272.721 287.291 273.005 287.529 273.361C287.768 273.724 287.912 274.107 287.96 274.509C288.005 274.916 287.981 275.333 287.89 275.761C287.819 276.075 287.671 276.527 287.448 277.117C286.991 278.32 286.716 279.237 286.624 279.87C286.813 279.976 286.934 280.042 286.985 280.069C287.557 280.368 288.028 280.446 288.4 280.303C288.904 280.111 289.341 279.661 289.711 278.955C290.055 278.296 290.194 277.747 290.126 277.308C290.06 276.877 289.774 276.433 289.266 275.975L290.17 274.702C290.691 275.134 291.056 275.586 291.265 276.059C291.479 276.535 291.541 277.093 291.451 277.733C291.366 278.376 291.137 279.053 290.765 279.765C290.396 280.471 290.013 281.001 289.616 281.356C289.219 281.71 288.839 281.925 288.476 281.999C288.118 282.076 287.725 282.056 287.297 281.938C287.034 281.86 286.591 281.658 285.968 281.332L284.099 280.355C282.795 279.673 281.955 279.27 281.577 279.145C281.202 279.028 280.81 278.975 280.401 278.986L281.167 277.522C281.533 277.528 281.922 277.613 282.334 277.775ZM285.525 279.296C285.584 278.678 285.807 277.823 286.193 276.729C286.412 276.109 286.532 275.653 286.553 275.359C286.574 275.066 286.517 274.802 286.382 274.566C286.253 274.333 286.066 274.153 285.822 274.025C285.448 273.83 285.064 273.807 284.668 273.957C284.269 274.112 283.927 274.462 283.642 275.008C283.36 275.547 283.225 276.089 283.239 276.632C283.258 277.177 283.421 277.656 283.728 278.068C283.966 278.384 284.394 278.704 285.011 279.027L285.525 279.296Z" fill="#363636"/>
<path d="M276.342 278.641L287.305 285.46L286.544 286.684L285.514 286.043C285.738 286.582 285.836 287.095 285.809 287.582C285.787 288.072 285.616 288.576 285.294 289.094C284.873 289.77 284.327 290.259 283.657 290.56C282.987 290.861 282.252 290.945 281.451 290.813C280.655 290.683 279.879 290.384 279.123 289.913C278.312 289.409 277.671 288.807 277.202 288.108C276.735 287.417 276.5 286.685 276.499 285.911C276.499 285.145 276.689 284.457 277.07 283.844C277.348 283.397 277.693 283.052 278.105 282.812C278.514 282.576 278.934 282.434 279.365 282.384L275.506 279.984L276.342 278.641ZM282.541 284.184C281.521 283.549 280.639 283.287 279.894 283.397C279.15 283.506 278.595 283.855 278.23 284.442C277.859 285.039 277.793 285.705 278.032 286.441C278.274 287.184 278.924 287.886 279.984 288.545C280.994 289.173 281.88 289.434 282.643 289.329C283.402 289.228 283.961 288.89 284.32 288.312C284.676 287.74 284.723 287.066 284.461 286.289C284.201 285.52 283.561 284.818 282.541 284.184Z" fill="#363636"/>
<path d="M278.106 291.115C279.501 292.135 280.252 293.278 280.357 294.545C280.442 295.601 280.144 296.595 279.463 297.527C278.706 298.563 277.747 299.161 276.585 299.321C275.428 299.485 274.251 299.129 273.054 298.255C272.084 297.547 271.427 296.842 271.083 296.141C270.74 295.448 270.619 294.71 270.719 293.927C270.816 293.148 271.104 292.43 271.585 291.773C272.356 290.718 273.318 290.111 274.471 289.952C275.621 289.798 276.833 290.186 278.106 291.115ZM277.147 292.428C276.181 291.723 275.304 291.405 274.513 291.474C273.728 291.546 273.102 291.901 272.635 292.54C272.172 293.174 272.028 293.878 272.203 294.651C272.378 295.425 272.96 296.173 273.949 296.895C274.881 297.576 275.742 297.878 276.531 297.801C277.321 297.733 277.946 297.384 278.406 296.754C278.872 296.116 279.02 295.411 278.85 294.641C278.68 293.871 278.112 293.133 277.147 292.428Z" fill="#363636"/>
<path d="M275.097 302.772L272.739 305.555C272.16 306.239 271.672 306.697 271.275 306.93C270.879 307.17 270.429 307.28 269.924 307.26C269.416 307.243 268.949 307.055 268.524 306.696C268.185 306.408 267.948 306.084 267.814 305.725C267.682 305.375 267.649 304.986 267.718 304.561C267.322 304.801 266.877 304.901 266.383 304.858C265.89 304.824 265.433 304.629 265.013 304.273C264.376 303.656 264.08 302.991 264.125 302.276C264.17 301.561 264.546 300.786 265.254 299.95L267.976 296.738L275.097 302.772ZM271.077 301.44L269.986 302.727C269.551 303.241 269.278 303.617 269.169 303.855C269.06 304.092 269.021 304.355 269.053 304.644C269.09 304.936 269.222 305.179 269.45 305.372C269.826 305.69 270.201 305.777 270.576 305.634C270.947 305.496 271.405 305.104 271.95 304.461L273.075 303.133L271.077 301.44ZM267.946 298.786L266.599 300.375C266.02 301.059 265.7 301.595 265.641 301.982C265.586 302.374 265.747 302.741 266.125 303.084C266.352 303.277 266.625 303.381 266.942 303.396C267.264 303.416 267.55 303.328 267.8 303.132C268.054 302.941 268.403 302.584 268.846 302.061L270.085 300.599L267.946 298.786Z" fill="#363636"/>
<path d="M263.377 315.381L262.216 316.456L259.577 313.605L256.359 316.585L258.998 319.435L257.837 320.51L251.496 313.661L252.657 312.586L255.469 315.624L258.687 312.644L255.875 309.607L257.036 308.532L263.377 315.381Z" fill="#363636"/>
<path d="M246.089 319.397C246.236 318.642 246.458 318.015 246.755 317.514C247.048 317.017 247.437 316.575 247.922 316.187C248.722 315.546 249.493 315.248 250.235 315.293C250.979 315.343 251.595 315.672 252.082 316.28C252.368 316.637 252.547 317.026 252.622 317.447C252.695 317.876 252.672 318.284 252.554 318.671C252.432 319.062 252.242 319.435 251.986 319.79C251.795 320.048 251.478 320.403 251.036 320.854C250.134 321.771 249.513 322.5 249.173 323.042C249.304 323.215 249.388 323.324 249.425 323.37C249.827 323.873 250.228 324.134 250.626 324.154C251.165 324.18 251.745 323.944 252.368 323.447C252.949 322.982 253.296 322.535 253.411 322.106C253.524 321.685 253.44 321.163 253.16 320.539L254.499 319.738C254.803 320.343 254.955 320.904 254.956 321.421C254.961 321.942 254.793 322.478 254.453 323.028C254.116 323.583 253.634 324.111 253.007 324.612C252.385 325.11 251.821 325.441 251.315 325.606C250.809 325.77 250.374 325.814 250.012 325.736C249.653 325.663 249.302 325.486 248.958 325.206C248.748 325.029 248.424 324.665 247.985 324.116L246.667 322.469C245.748 321.321 245.141 320.613 244.846 320.347C244.549 320.089 244.211 319.883 243.833 319.728L245.123 318.696C245.456 318.85 245.778 319.083 246.089 319.397ZM248.399 322.074C248.701 321.532 249.249 320.839 250.044 319.993C250.493 319.514 250.786 319.144 250.924 318.884C251.061 318.624 251.115 318.359 251.087 318.089C251.062 317.824 250.964 317.584 250.792 317.369C250.528 317.039 250.185 316.864 249.762 316.842C249.335 316.823 248.881 317.006 248.401 317.391C247.925 317.771 247.584 318.213 247.378 318.715C247.176 319.222 247.132 319.726 247.248 320.226C247.338 320.612 247.601 321.077 248.037 321.621L248.399 322.074Z" fill="#363636"/>
<path d="M240.435 333.149L234.887 336.543L230.695 329.691L229.832 330.218L227.773 326.852L228.882 326.173L230.263 328.43L236.531 324.595L235.15 322.338L236.259 321.659L238.319 325.026L237.607 325.461C237.446 327.332 238.389 329.894 240.435 333.149ZM238.627 332.72C237.146 330.074 236.376 327.918 236.317 326.25L232.037 328.87L235.546 334.605L238.627 332.72Z" fill="#363636"/>
<path d="M230.741 333.423C231.531 334.961 231.688 336.319 231.214 337.498C230.816 338.48 230.104 339.235 229.077 339.762C227.936 340.349 226.81 340.453 225.7 340.074C224.592 339.701 223.7 338.856 223.023 337.537C222.474 336.469 222.203 335.544 222.21 334.763C222.214 333.99 222.437 333.276 222.878 332.621C223.314 331.969 223.894 331.457 224.618 331.085C225.78 330.488 226.913 330.377 228.015 330.753C229.112 331.131 230.02 332.021 230.741 333.423ZM229.294 334.166C228.748 333.103 228.107 332.425 227.37 332.132C226.635 331.844 225.916 331.88 225.213 332.242C224.514 332.601 224.07 333.165 223.879 333.935C223.688 334.705 223.873 335.634 224.433 336.724C224.96 337.75 225.594 338.406 226.333 338.692C227.07 338.985 227.785 338.954 228.478 338.597C229.182 338.236 229.63 337.673 229.824 336.908C230.017 336.143 229.841 335.229 229.294 334.166Z" fill="#363636"/>
<path d="M222.782 342.527L220.511 343.475L215.37 337.526L215.734 345.47L213.634 346.347L210.037 337.734L211.497 337.124L214.393 344.058L214.044 336.061L215.35 335.515L220.793 341.777L217.759 334.51L219.186 333.914L222.782 342.527Z" fill="#363636"/>
</svg>
