<svg width="183" height="185" viewBox="0 0 183 185" fill="none" xmlns="http://www.w3.org/2000/svg">
<path d="M160.003 109.774L172.135 114.113L171.271 116.529L161.654 116.329C160.759 116.308 160.091 116.287 159.651 116.266C160.043 116.562 160.614 117.009 161.365 117.607L168.767 123.531L167.995 125.69L155.862 121.352L156.416 119.804L166.57 123.436L157.677 116.279L158.195 114.83L169.778 115.015L159.449 111.322L160.003 109.774Z" fill="#363636"/>
<path d="M152.834 129.106C152.693 128.35 152.668 127.684 152.761 127.11C152.85 126.54 153.049 125.985 153.357 125.446C153.866 124.556 154.473 123.995 155.179 123.764C155.89 123.536 156.583 123.615 157.26 124.002C157.657 124.229 157.967 124.524 158.191 124.888C158.417 125.261 158.546 125.648 158.579 126.052C158.609 126.46 158.57 126.877 158.462 127.301C158.379 127.611 158.215 128.058 157.97 128.64C157.469 129.824 157.16 130.731 157.043 131.359C157.229 131.472 157.347 131.543 157.398 131.572C157.957 131.892 158.425 131.988 158.803 131.859C159.314 131.685 159.767 131.253 160.162 130.561C160.532 129.915 160.69 129.371 160.639 128.93C160.589 128.497 160.32 128.042 159.829 127.566L160.78 126.328C161.285 126.778 161.633 127.244 161.824 127.724C162.02 128.208 162.061 128.768 161.947 129.404C161.838 130.044 161.584 130.712 161.186 131.409C160.79 132.101 160.388 132.616 159.978 132.956C159.568 133.295 159.18 133.495 158.814 133.556C158.454 133.62 158.062 133.585 157.639 133.452C157.379 133.364 156.944 133.145 156.333 132.796L154.502 131.749C153.225 131.02 152.4 130.585 152.028 130.446C151.657 130.316 151.267 130.248 150.858 130.244L151.678 128.809C152.044 128.829 152.43 128.928 152.834 129.106ZM155.967 130.745C156.049 130.13 156.303 129.283 156.731 128.205C156.972 127.593 157.109 127.142 157.141 126.85C157.173 126.557 157.126 126.291 157 126.05C156.88 125.813 156.7 125.626 156.461 125.489C156.094 125.28 155.711 125.242 155.31 125.378C154.905 125.518 154.551 125.855 154.245 126.389C153.943 126.918 153.789 127.454 153.782 127.997C153.78 128.543 153.925 129.027 154.217 129.45C154.443 129.775 154.858 130.111 155.464 130.457L155.967 130.745Z" fill="#363636"/>
<path d="M156.924 138.015L155.947 139.259L150.349 134.861L153.238 142.708L152.185 144.048L144.844 138.283L145.822 137.039L151.386 141.409L148.531 133.59L149.584 132.249L156.924 138.015ZM156.31 144.517L155.642 145.367C155.12 144.845 154.844 144.286 154.814 143.689C154.781 143.096 154.994 142.507 155.453 141.922C155.917 141.332 156.44 140.979 157.022 140.863C157.606 140.756 158.216 140.895 158.85 141.282L158.183 142.132C157.819 141.951 157.484 141.893 157.179 141.959C156.875 142.033 156.596 142.231 156.343 142.554C156.05 142.927 155.903 143.266 155.902 143.571C155.902 143.884 156.038 144.199 156.31 144.517Z" fill="#363636"/>
<path d="M149.46 147.063L148.335 148.175L145.5 145.305C145.141 145.659 144.959 145.975 144.953 146.252C144.943 146.534 145.126 147.144 145.501 148.083C145.799 148.826 145.961 149.349 145.988 149.652C146.016 149.955 145.968 150.224 145.847 150.459C145.725 150.694 145.466 151.008 145.07 151.399L144.845 151.621L143.925 150.689L144.244 150.387C144.54 150.094 144.686 149.863 144.683 149.693C144.68 149.515 144.544 149.11 144.274 148.479C144.017 147.877 143.877 147.422 143.854 147.115C143.831 146.809 143.9 146.44 144.06 146.01C143.449 146.359 142.529 146.378 141.3 146.068L138.036 145.227L139.274 144.004L142.507 144.876C143.161 145.046 143.643 145.104 143.954 145.053C144.269 145.005 144.554 144.855 144.808 144.604L141.776 141.534L142.902 140.422L149.46 147.063Z" fill="#363636"/>
<path d="M140.795 149.086C141.842 150.461 142.236 151.771 141.976 153.015C141.756 154.052 141.187 154.92 140.269 155.619C139.249 156.397 138.159 156.697 136.999 156.519C135.844 156.346 134.817 155.67 133.918 154.491C133.19 153.536 132.761 152.673 132.631 151.903C132.5 151.141 132.594 150.399 132.913 149.677C133.228 148.959 133.709 148.353 134.357 147.859C135.396 147.067 136.491 146.759 137.642 146.936C138.789 147.116 139.839 147.833 140.795 149.086ZM139.501 150.072C138.777 149.121 138.026 148.566 137.249 148.407C136.476 148.252 135.774 148.414 135.145 148.894C134.521 149.37 134.182 150.003 134.129 150.795C134.077 151.586 134.422 152.469 135.164 153.443C135.863 154.361 136.602 154.896 137.38 155.047C138.157 155.206 138.856 155.05 139.476 154.577C140.105 154.098 140.447 153.465 140.504 152.678C140.56 151.891 140.226 151.023 139.501 150.072Z" fill="#363636"/>
<path d="M133.614 160.118L127.197 163.732L122.616 155.599L123.995 154.823L127.933 161.815L131.593 159.753L127.655 152.761L129.034 151.985L133.614 160.118Z" fill="#363636"/>
<path d="M171.652 84.6905L172.137 92.0398L162.823 92.6536L162.719 91.075L170.726 90.5473L170.45 86.3552L162.443 86.8829L162.339 85.3043L171.652 84.6905Z" fill="#363636"/>
<path d="M132.689 148.572L133.726 150.046L132.252 151.082L131.216 149.609L132.689 148.572Z" fill="#363636"/>
<path d="M162.479 100.179L164.271 100.368L164.082 102.16L162.29 101.97L162.479 100.179Z" fill="#363636"/>
<path d="M106.139 163.202L107.757 175.984L105.211 176.307L101.04 167.639C100.654 166.831 100.371 166.226 100.19 165.824C100.103 166.307 99.9631 167.019 99.7691 167.959L97.8344 177.24L95.5586 177.529L93.9404 164.746L95.571 164.539L96.9254 175.238L99.2855 164.069L100.811 163.876L105.886 174.29L104.508 163.408L106.139 163.202Z" fill="#363636"/>
<path d="M85.7839 165.507C86.3948 165.04 86.9777 164.719 87.5325 164.542C88.0814 164.365 88.666 164.293 89.2863 164.325C90.3103 164.378 91.0845 164.667 91.6087 165.193C92.1327 165.725 92.3745 166.38 92.3342 167.158C92.3105 167.615 92.1866 168.025 91.9624 168.389C91.732 168.758 91.4441 169.048 91.0988 169.259C90.7476 169.47 90.3583 169.623 89.9309 169.718C89.6165 169.784 89.1443 169.838 88.5142 169.882C87.2307 169.968 86.2822 170.101 85.6685 170.28C85.6515 170.496 85.6414 170.634 85.6384 170.692C85.605 171.336 85.7307 171.797 86.0155 172.076C86.4008 172.454 86.9913 172.663 87.7871 172.705C88.5302 172.743 89.0871 172.64 89.4577 172.395C89.8221 172.156 90.1063 171.71 90.3103 171.058L91.8442 171.348C91.6695 172.002 91.4107 172.523 91.068 172.91C90.7249 173.303 90.2435 173.592 89.6237 173.777C89.0036 173.968 88.2928 174.042 87.4911 174.001C86.6953 173.959 86.0536 173.832 85.5659 173.619C85.0782 173.406 84.7248 173.15 84.5056 172.851C84.2861 172.558 84.1407 172.193 84.0695 171.755C84.0308 171.483 84.0297 170.996 84.0661 170.294L84.1752 168.187C84.2513 166.719 84.2674 165.787 84.2233 165.391C84.1731 165.001 84.0578 164.623 83.8774 164.256L85.5275 164.341C85.6743 164.677 85.7598 165.066 85.7839 165.507ZM85.7327 169.043C86.3182 168.838 87.1887 168.684 88.3441 168.58C88.9985 168.52 89.4633 168.438 89.7385 168.335C90.0138 168.232 90.2304 168.07 90.3886 167.849C90.5464 167.635 90.6324 167.39 90.6467 167.115C90.6685 166.693 90.5287 166.334 90.2273 166.037C89.92 165.739 89.4591 165.575 88.8447 165.543C88.2362 165.511 87.6881 165.615 87.2005 165.854C86.7125 166.098 86.3454 166.446 86.0991 166.897C85.9109 167.245 85.7988 167.767 85.7627 168.463L85.7327 169.043Z" fill="#363636"/>
<path d="M79.6298 173.163L78.0786 172.852L79.4766 165.871L73.7782 171.991L72.1063 171.656L73.9392 162.504L75.4905 162.814L74.1011 169.752L79.7908 163.676L81.4627 164.01L79.6298 173.163ZM73.5498 175.548L72.4898 175.336C72.7198 174.635 73.0945 174.137 73.614 173.84C74.1277 173.543 74.7494 173.467 75.4791 173.613C76.2145 173.76 76.7654 174.068 77.1318 174.536C77.4914 175.008 77.6418 175.615 77.583 176.356L76.523 176.144C76.5208 175.737 76.4214 175.412 76.225 175.17C76.0217 174.932 75.7189 174.773 75.3168 174.692C74.8514 174.599 74.4825 174.621 74.2101 174.757C73.9309 174.899 73.7107 175.162 73.5498 175.548Z" fill="#363636"/>
<path d="M67.8591 170.488L66.3599 169.983L67.6479 166.16C67.1704 165.999 66.8064 165.978 66.5558 166.098C66.2998 166.216 65.837 166.653 65.1675 167.411C64.6375 168.011 64.2434 168.392 63.9854 168.552C63.7273 168.712 63.4658 168.791 63.2008 168.789C62.9359 168.786 62.5396 168.696 62.0121 168.518L61.7123 168.417L62.1304 167.176L62.544 167.325C62.9383 167.457 63.2106 167.484 63.3609 167.405C63.5187 167.322 63.8189 167.018 64.2616 166.493C64.6838 165.993 65.0267 165.663 65.2904 165.505C65.554 165.346 65.9138 165.242 66.3698 165.191C65.7836 164.802 65.3527 163.989 65.0769 162.752L64.3593 159.459L66.0084 160.015L66.6844 163.294C66.8268 163.954 66.9911 164.411 67.1775 164.666C67.3619 164.926 67.6235 165.113 67.9622 165.227L69.3401 161.137L70.8393 161.642L67.8591 170.488Z" fill="#363636"/>
<path d="M62.2263 163.678C61.4719 165.233 60.4809 166.175 59.2531 166.504C58.2291 166.776 57.1978 166.66 56.1593 166.156C55.0048 165.596 54.2452 164.759 53.8807 163.644C53.5136 162.535 53.6535 161.313 54.3005 159.98C54.8248 158.899 55.4012 158.127 56.0298 157.663C56.6506 157.202 57.3552 156.951 58.1435 156.911C58.9265 156.867 59.6844 157.023 60.4172 157.379C61.5928 157.949 62.3616 158.787 62.7234 159.894C63.0799 160.998 62.9142 162.26 62.2263 163.678ZM60.7634 162.968C61.2851 161.893 61.4417 160.972 61.2334 160.207C61.0225 159.447 60.5612 158.894 59.8495 158.549C59.1431 158.206 58.4248 158.19 57.6948 158.5C56.9647 158.81 56.3325 159.516 55.798 160.618C55.2942 161.657 55.1504 162.557 55.3666 163.32C55.5749 164.085 56.0297 164.638 56.7308 164.978C57.4425 165.323 58.1621 165.343 58.8896 165.039C59.6171 164.734 60.2417 164.043 60.7634 162.968Z" fill="#363636"/>
<path d="M49.1435 162.226L43.0314 158.116L48.2396 150.37L49.5525 151.253L45.075 157.912L48.5613 160.256L53.0388 153.597L54.3517 154.48L49.1435 162.226Z" fill="#363636"/>
<path d="M42.7123 147.087L41.5313 148.448L40.1706 147.267L41.3515 145.906L42.7123 147.087Z" fill="#363636"/>
<path d="M116.268 159.003L116.901 160.689L115.214 161.323L114.581 159.636L116.268 159.003Z" fill="#363636"/>
<path d="M19.2643 91.5645L17.4627 91.5461L17.4811 89.7445L19.2827 89.7629L19.2643 91.5645Z" fill="#363636"/>
<path d="M19.5539 81.7362L6.97226 78.9581L7.52562 76.452L17.0917 75.441C17.9819 75.3496 18.6469 75.2864 19.0867 75.2515C18.6605 75.0074 18.0375 74.6358 17.2177 74.1367L9.12886 69.1914L9.62348 66.9514L22.2052 69.7296L21.8508 71.3345L11.3203 69.0092L21.0435 74.9905L20.7118 76.4924L9.19759 77.7663L19.9083 80.1313L19.5539 81.7362Z" fill="#363636"/>
<path d="M24.2563 61.5929C24.491 62.3252 24.5984 62.9823 24.5784 63.5642C24.5607 64.1407 24.4326 64.7156 24.194 65.2891C23.8001 66.2358 23.2674 66.8678 22.596 67.185C21.9192 67.4999 21.221 67.5077 20.5015 67.2084C20.0796 67.0328 19.7349 66.7783 19.4674 66.4449C19.1968 66.1039 19.0202 65.7353 18.9375 65.3391C18.857 64.9376 18.8437 64.5195 18.8976 64.085C18.9412 63.7668 19.0482 63.3036 19.2187 62.6955C19.5687 61.4576 19.7623 60.5196 19.7993 59.8814C19.6014 59.7927 19.4754 59.7371 19.4213 59.7146C18.8262 59.467 18.3496 59.4305 17.9914 59.6051C17.5061 59.8411 17.1103 60.3269 16.8042 61.0627C16.5184 61.7497 16.4285 62.3089 16.5347 62.7402C16.6377 63.1638 16.9622 63.5812 17.5082 63.9924L16.7192 65.3396C16.162 64.9554 15.7586 64.5369 15.5091 64.0841C15.2542 63.629 15.1437 63.0785 15.1776 62.4326C15.2061 61.7844 15.3746 61.0898 15.6829 60.3486C15.989 59.6129 16.3243 59.0511 16.6887 58.6633C17.0532 58.2755 17.4129 58.0286 17.7681 57.9224C18.1178 57.8141 18.5108 57.7999 18.9471 57.8799C19.2162 57.9348 19.6754 58.0972 20.3245 58.3673L22.2721 59.1776C23.6299 59.7426 24.5025 60.0707 24.8897 60.162C25.2738 60.2456 25.6691 60.2641 26.0756 60.2175L25.4409 61.7431C25.0749 61.7685 24.68 61.7184 24.2563 61.5929ZM20.9435 60.3574C20.9393 60.9776 20.7924 61.8494 20.5027 62.9727C20.3394 63.6092 20.2601 64.0744 20.2648 64.3683C20.2694 64.6621 20.3491 64.9206 20.5038 65.1436C20.6532 65.3644 20.8549 65.5277 21.1092 65.6335C21.4987 65.7955 21.8841 65.7845 22.2653 65.6004C22.6487 65.4109 22.9586 65.0321 23.195 64.4641C23.4291 63.9015 23.5155 63.3504 23.4544 62.8109C23.3879 62.2692 23.1837 61.8067 22.8418 61.4233C22.5771 61.1291 22.1229 60.8481 21.4791 60.5802L20.9435 60.3574Z" fill="#363636"/>
<path d="M19.1475 53.1343L19.9638 51.7792L26.0621 55.4524L22.2267 48.0223L23.1064 46.5617L31.102 51.3777L30.2857 52.7329L24.225 49.0823L28.0228 56.4898L27.1431 57.9504L19.1475 53.1343ZM18.9552 46.6058L19.513 45.6798C20.095 46.133 20.4378 46.6541 20.5413 47.2431C20.6478 47.8271 20.5091 48.4379 20.1252 49.0753C19.7382 49.7178 19.2627 50.1325 18.6986 50.3194C18.1326 50.4983 17.5107 50.4349 16.8329 50.1293L17.3907 49.2033C17.7743 49.3386 18.1134 49.3547 18.408 49.2517C18.7006 49.1407 18.9528 48.9095 19.1644 48.5582C19.4093 48.1516 19.5134 47.7971 19.4767 47.4945C19.4381 47.184 19.2642 46.8877 18.9552 46.6058Z" fill="#363636"/>
<path d="M25.2873 43.4152L26.2652 42.1716L29.4364 44.6652C29.7479 44.2691 29.8892 43.933 29.8603 43.6569C29.8351 43.3762 29.5776 42.7936 29.088 41.9091C28.6996 41.2086 28.473 40.71 28.4083 40.4131C28.3436 40.1162 28.3568 39.8434 28.4481 39.5947C28.5393 39.3459 28.757 39.0027 29.1011 38.5652L29.2966 38.3164L30.3261 39.1259L30.0475 39.4659C29.7904 39.793 29.674 40.0406 29.6982 40.2087C29.7235 40.3851 29.9093 40.7698 30.2556 41.3626C30.5862 41.9281 30.782 42.3616 30.8431 42.6631C30.9042 42.9645 30.8821 43.3385 30.777 43.7851C31.3399 43.3631 32.2502 43.2291 33.508 43.3833L36.8513 43.8096L35.7756 45.1776L32.4595 44.7167C31.7898 44.6299 31.3039 44.6317 31.0017 44.7221C30.695 44.8089 30.4311 44.9927 30.2102 45.2737L33.6025 47.9412L32.6246 49.1848L25.2873 43.4152Z" fill="#363636"/>
<path d="M33.6763 40.2445C32.4641 39.0123 31.9087 37.7626 32.0102 36.4956C32.0976 35.4398 32.5527 34.5071 33.3756 33.6976C34.2903 32.7977 35.3338 32.3629 36.5062 32.3932C37.6744 32.4193 38.7783 32.9607 39.8179 34.0175C40.6603 34.8738 41.1944 35.6757 41.4204 36.4234C41.6463 37.1627 41.6464 37.9106 41.4207 38.667C41.1991 39.4193 40.798 40.081 40.2174 40.6522C39.2859 41.5685 38.2382 42.0116 37.0741 41.9814C35.9143 41.947 34.7817 41.368 33.6763 40.2445ZM34.8354 39.1042C35.6737 39.9562 36.4882 40.4125 37.2791 40.4728C38.0659 40.5289 38.7412 40.2797 39.3051 39.7249C39.8648 39.1743 40.121 38.5031 40.0736 37.7113C40.0262 36.9195 39.5731 36.0872 38.7143 35.2142C37.9048 34.3913 37.1045 33.9539 36.3136 33.9018C35.5227 33.8415 34.8495 34.0846 34.294 34.6311C33.7301 35.1859 33.4698 35.857 33.5131 36.6446C33.5563 37.4322 33.9971 38.2521 34.8354 39.1042Z" fill="#363636"/>
<path d="M39.3045 28.4578L45.2174 24.0664L50.7826 31.5598L49.5126 32.5031L44.7281 26.061L41.3554 28.5659L46.1398 35.008L44.8697 35.9512L39.3045 28.4578Z" fill="#363636"/>
<path d="M57.2051 27.7712L56.3961 26.1612L58.0061 25.3522L58.8151 26.9622L57.2051 27.7712Z" fill="#363636"/>
<path d="M65.8796 23.5697L62.5825 11.1139L65.0635 10.4572L70.3463 18.4961C70.8355 19.2454 71.1965 19.8075 71.429 20.1824C71.4507 19.6918 71.4954 18.9677 71.5632 18.0103L72.2515 8.55452L74.4691 7.96752L77.7661 20.4233L76.1773 20.8439L73.4177 10.4187L72.5578 21.802L71.0709 22.1955L64.6617 12.5456L67.4684 23.1491L65.8796 23.5697Z" fill="#363636"/>
<path d="M86.1765 18.4586C85.6336 19.0031 85.099 19.4001 84.5728 19.6493C84.0524 19.898 83.4828 20.048 82.8638 20.0991C81.8419 20.1835 81.036 20.0002 80.4461 19.5492C79.8557 19.0923 79.5284 18.4755 79.4643 17.6989C79.4266 17.2434 79.4946 16.8204 79.6681 16.4298C79.847 16.0328 80.0934 15.7068 80.4075 15.4515C80.7274 15.1958 81.0927 14.9922 81.5035 14.8407C81.8062 14.7334 82.2669 14.616 82.8854 14.4884C84.1459 14.2315 85.0682 13.973 85.6523 13.7131C85.6403 13.4966 85.6319 13.3591 85.6271 13.3007C85.574 12.6584 85.3877 12.2181 85.0682 11.98C84.6359 11.657 84.0226 11.5283 83.2284 11.5939C82.4868 11.6552 81.9488 11.8319 81.6143 12.1241C81.2851 12.41 81.0631 12.8898 80.9483 13.5637L79.3893 13.4808C79.4749 12.8094 79.6617 12.2589 79.9496 11.8295C80.237 11.3942 80.6754 11.0434 81.2649 10.7772C81.8539 10.5051 82.5484 10.3361 83.3484 10.27C84.1426 10.2044 84.7956 10.2446 85.3073 10.3904C85.8191 10.5363 86.2036 10.7427 86.4608 11.0095C86.7176 11.2705 86.9105 11.6132 87.0396 12.0376C87.1144 12.3019 87.1807 12.7844 87.2385 13.4851L87.4122 15.5874C87.5332 17.0531 87.642 17.9789 87.7386 18.3648C87.8405 18.7445 88.0054 19.1042 88.2334 19.444L86.5866 19.58C86.3961 19.2665 86.2594 18.8927 86.1765 18.4586ZM85.7543 14.9482C85.2013 15.229 84.3593 15.4985 83.2283 15.7565C82.5878 15.9035 82.1381 16.0464 81.8791 16.1854C81.6202 16.3244 81.4271 16.5138 81.2999 16.7536C81.1722 16.9875 81.1197 17.2417 81.1424 17.5162C81.1771 17.9366 81.3637 18.274 81.7022 18.5282C82.0465 18.782 82.5253 18.8836 83.1384 18.8329C83.7457 18.7828 84.275 18.6068 84.7263 18.3049C85.1771 17.9973 85.4945 17.6036 85.6783 17.124C85.8182 16.7538 85.8595 16.2212 85.8021 15.5263L85.7543 14.9482Z" fill="#363636"/>
<path d="M91.2545 10.0225L92.8332 10.1239L92.3767 17.2284L97.21 10.4052L98.9115 10.5145L98.3129 19.8293L96.7342 19.7278L97.1879 12.6672L92.3574 19.4466L90.6559 19.3372L91.2545 10.0225ZM96.9629 6.84882L98.0417 6.91815C97.9071 7.64343 97.602 8.18748 97.1266 8.55032C96.657 8.91353 96.0509 9.07128 95.3083 9.02355C94.5599 8.97546 93.9729 8.74398 93.5475 8.32912C93.1283 7.90879 92.8985 7.32743 92.8581 6.58503L93.9369 6.65436C93.9932 7.05724 94.1349 7.36579 94.3618 7.58C94.595 7.78874 94.9163 7.90627 95.3256 7.93257C95.7992 7.96301 96.1619 7.89237 96.4137 7.72067C96.6717 7.54349 96.8547 7.25287 96.9629 6.84882Z" fill="#363636"/>
<path d="M102.928 11.0179L104.482 11.3177L103.717 15.2788C104.212 15.3743 104.575 15.346 104.808 15.1939C105.046 15.0429 105.446 14.5472 106.008 13.7068C106.452 13.0408 106.792 12.611 107.026 12.4175C107.26 12.2241 107.509 12.1109 107.772 12.0781C108.035 12.0453 108.44 12.0817 108.986 12.1872L109.297 12.2471L109.049 13.533L108.619 13.4411C108.21 13.3622 107.937 13.3721 107.799 13.4707C107.653 13.574 107.397 13.9153 107.028 14.4946C106.677 15.0474 106.381 15.42 106.141 15.6124C105.901 15.8047 105.558 15.9564 105.113 16.0675C105.746 16.3746 106.282 17.1225 106.721 18.3113L107.873 21.4786L106.164 21.1488L105.056 17.9898C104.826 17.3547 104.602 16.9236 104.383 16.6963C104.166 16.4634 103.881 16.313 103.53 16.2453L102.713 20.4825L101.159 20.1827L102.928 11.0179Z" fill="#363636"/>
<path d="M109.602 17.016C110.145 15.3749 111.003 14.3103 112.176 13.8221C113.156 13.4177 114.193 13.3968 115.289 13.7592C116.508 14.1622 117.371 14.8921 117.879 15.9489C118.389 17.0001 118.412 18.2295 117.946 19.6369C117.569 20.7773 117.099 21.6187 116.537 22.1611C115.983 22.6997 115.317 23.0413 114.541 23.1858C113.771 23.3321 112.999 23.2774 112.226 23.0216C110.985 22.6113 110.113 21.8815 109.608 20.832C109.109 19.7845 109.107 18.5124 109.602 17.016ZM111.146 17.5266C110.77 18.6614 110.736 19.5944 111.044 20.3256C111.353 21.0512 111.883 21.5382 112.634 21.7866C113.38 22.0332 114.094 21.9546 114.777 21.5509C115.459 21.1473 115.993 20.3641 116.378 19.2014C116.74 18.1055 116.764 17.1938 116.449 16.4664C116.142 15.7352 115.618 15.2473 114.878 15.0026C114.127 14.7542 113.411 14.829 112.73 15.2271C112.049 15.6252 111.521 16.3917 111.146 17.5266Z" fill="#363636"/>
<path d="M122.916 16.7549L129.512 20.0319L125.359 28.3911L123.942 27.6872L127.513 20.5008L123.75 18.6316L120.18 25.818L118.763 25.1141L122.916 16.7549Z" fill="#363636"/>
<path d="M131.621 32.3909L132.688 30.9389L134.14 32.0055L133.073 33.4576L131.621 32.3909Z" fill="#363636"/>
<path d="M139.292 38.2173L148.862 29.5904L150.581 31.4967L145.846 39.8702C145.403 40.648 145.068 41.226 144.841 41.6042C145.288 41.3991 145.952 41.1079 146.835 40.7305L155.559 37.0196L157.095 38.7235L147.524 47.3504L146.424 46.1296L154.434 38.9091L143.917 43.3485L142.887 42.2061L148.539 32.094L140.392 39.4381L139.292 38.2173Z" fill="#363636"/>
<path d="M153.057 53.8458C152.324 53.6125 151.726 53.3191 151.264 52.9654C150.804 52.6168 150.41 52.179 150.081 51.6522C149.538 50.7824 149.332 49.982 149.463 49.251C149.599 48.517 149.997 47.9436 150.658 47.5309C151.046 47.2889 151.453 47.1555 151.88 47.1309C152.314 47.1081 152.717 47.1779 153.088 47.3402C153.462 47.5074 153.81 47.7389 154.133 48.0347C154.367 48.2547 154.682 48.6105 155.079 49.1019C155.885 50.1048 156.537 50.8063 157.035 51.2065C157.222 51.0967 157.341 51.0263 157.39 50.9952C157.937 50.6539 158.243 50.2867 158.308 49.8935C158.398 49.3613 158.231 48.7572 157.809 48.0813C157.415 47.45 157.011 47.0527 156.598 46.8891C156.194 46.7274 155.665 46.7498 155.014 46.9563L154.373 45.5325C155.01 45.3011 155.584 45.2151 156.098 45.2743C156.617 45.3305 157.129 45.5596 157.636 45.9617C158.147 46.3607 158.616 46.9007 159.041 47.5816C159.463 48.2575 159.726 48.8564 159.831 49.3782C159.936 49.8999 159.928 50.3362 159.809 50.6871C159.694 51.0349 159.478 51.3633 159.16 51.6725C158.959 51.8599 158.561 52.1398 157.964 52.5122L156.175 53.6293C154.927 54.4082 154.154 54.9289 153.855 55.1915C153.565 55.4559 153.32 55.7673 153.123 56.1255L152.248 54.7239C152.439 54.411 152.709 54.1183 153.057 53.8458ZM155.984 51.8628C155.481 51.4999 154.856 50.8747 154.109 49.9874C153.685 49.4854 153.352 49.1511 153.109 48.9845C152.867 48.8179 152.61 48.733 152.339 48.7298C152.073 48.7235 151.823 48.7932 151.589 48.9391C151.231 49.1625 151.017 49.4828 150.946 49.9002C150.878 50.3225 151.007 50.7946 151.333 51.3165C151.655 51.8334 152.054 52.2233 152.529 52.4863C153.009 52.7461 153.504 52.8479 154.015 52.7916C154.408 52.7465 154.9 52.5393 155.492 52.17L155.984 51.8628Z" fill="#363636"/>
<path d="M162.749 54.2538L163.384 55.7025L156.865 58.5628L165.146 59.7187L165.831 61.2801L157.284 65.0303L156.648 63.5815L163.127 60.7389L154.886 59.5654L154.201 58.004L162.749 54.2538ZM168.191 57.8645L168.626 58.8544C167.92 59.0682 167.296 59.0474 166.755 58.792C166.217 58.5419 165.798 58.0762 165.499 57.3947C165.198 56.7079 165.134 56.0803 165.307 55.5117C165.487 54.9462 165.898 54.4749 166.539 54.0978L166.973 55.0878C166.641 55.323 166.432 55.5906 166.346 55.8906C166.268 56.1937 166.311 56.533 166.476 56.9086C166.667 57.3432 166.896 57.6328 167.164 57.7775C167.44 57.9251 167.783 57.9541 168.191 57.8645Z" fill="#363636"/>
<path d="M167.257 65.2049L167.702 66.723L163.831 67.8586C163.973 68.3422 164.164 68.6523 164.406 68.789C164.649 68.9314 165.273 69.0598 166.278 69.1742C167.074 69.2644 167.611 69.3692 167.891 69.4888C168.17 69.6083 168.384 69.7775 168.534 69.9961C168.684 70.2148 168.837 70.5912 168.993 71.1253L169.083 71.4289L167.826 71.7976L167.711 71.3734C167.594 70.9742 167.459 70.7357 167.308 70.6579C167.15 70.5762 166.729 70.5043 166.045 70.4423C165.393 70.3833 164.926 70.2913 164.645 70.1661C164.364 70.0409 164.072 69.8059 163.77 69.4612C163.787 70.1645 163.368 70.9836 162.512 71.9185L160.225 74.3939L159.735 72.724L162.035 70.2908C162.494 69.7958 162.775 69.399 162.876 69.1005C162.984 68.8003 162.987 68.4787 162.886 68.1358L158.745 69.3506L158.3 67.8326L167.257 65.2049Z" fill="#363636"/>
<path d="M164.983 73.9627C166.691 73.695 168.03 73.9713 169.001 74.7918C169.809 75.4777 170.302 76.3909 170.48 77.5313C170.679 78.799 170.425 79.9005 169.717 80.8358C169.016 81.7702 167.933 82.3522 166.468 82.5819C165.282 82.7679 164.319 82.7351 163.579 82.4833C162.847 82.2363 162.239 81.8008 161.755 81.1768C161.273 80.5585 160.968 79.847 160.842 79.0424C160.64 77.7516 160.89 76.6418 161.592 75.7132C162.296 74.7903 163.426 74.2069 164.983 73.9627ZM165.235 75.5691C164.054 75.7542 163.209 76.1507 162.699 76.7584C162.196 77.3653 162.005 78.0595 162.127 78.8409C162.249 79.6166 162.645 80.2158 163.317 80.6384C163.988 81.061 164.928 81.1775 166.138 80.9878C167.279 80.809 168.1 80.4132 168.603 79.8006C169.113 79.1928 169.307 78.504 169.187 77.7341C169.064 76.9526 168.67 76.3501 168.005 75.9266C167.339 75.5031 166.416 75.3839 165.235 75.5691Z" fill="#363636"/>
</svg>
