<svg width="674" height="289" viewBox="0 0 674 289" fill="none" xmlns="http://www.w3.org/2000/svg">
<path d="M120.161 114.944C120.76 114.816 121.412 114.769 122.019 114.768C121.694 115.831 121.048 116.595 120.009 116.817C119.287 116.971 118.687 116.657 118.589 116.2C118.48 115.689 119.087 115.173 120.161 114.944ZM117.552 109.795C117.975 109.705 117.952 109.342 118.92 109.135C120.417 108.815 121.712 110.14 122.099 111.953C122.219 112.516 122.252 113.098 122.21 113.678C121.49 113.666 120.71 113.722 119.936 113.888C118.897 114.109 117.191 114.824 117.533 116.425C117.811 117.728 119.196 118.095 120.235 117.873C121.836 117.531 122.773 116.226 123.132 114.806C124.539 114.929 124.983 115.202 125.353 115.123C125.617 115.067 125.836 114.799 125.768 114.482C125.731 114.306 125.588 114.153 125.389 114.085C125.329 114.061 124.493 113.853 123.291 113.741C123.332 113.07 123.294 112.379 123.155 111.727C122.715 109.668 121.071 107.571 118.695 108.079C117.674 108.297 117.14 108.815 117.064 108.887C116.945 109.023 116.877 109.221 116.915 109.397C116.983 109.714 117.288 109.851 117.552 109.795Z" fill="#C2000D"/>
<path d="M130.944 109.372C130.717 109.426 130.562 109.63 130.541 109.857C130.335 112.255 129.565 114.696 128.917 114.85C128.759 114.888 128.515 114.872 128.147 114.645C128.017 114.565 127.881 114.541 127.741 114.575C127.461 114.641 127.274 114.945 127.341 115.225C127.374 115.365 127.456 115.475 127.586 115.555C128.085 115.862 128.624 116.03 129.167 115.901C130.218 115.651 130.707 114.443 131.039 113.272C131.466 114.133 132.306 114.784 133.416 114.705L133.503 114.684C133.766 114.622 133.979 114.349 133.904 114.034C133.845 113.789 133.612 113.585 133.341 113.613C132.576 113.665 132.036 113.183 131.828 112.307C131.594 111.327 131.637 110.651 131.602 109.882C131.594 109.847 131.603 109.808 131.595 109.773C131.532 109.51 131.259 109.297 130.944 109.372Z" fill="#C2000D"/>
<path d="M137.376 110.21C137.249 109.704 137.855 108.791 138.466 108.638C138.798 108.555 139.038 108.699 139.121 109.031C139.27 109.624 138.982 110.327 138.729 110.799L138.642 110.821C137.979 110.987 137.511 110.751 137.376 110.21ZM137.028 114.008C137.081 113.995 137.116 113.987 137.164 113.956C137.875 113.537 138.896 112.576 139.481 111.65C140.118 111.305 140.567 110.728 140.894 110.182L140.912 110.252C141.367 112.068 141.948 112.906 142.005 112.984C142.144 113.172 142.38 113.224 142.572 113.176C142.887 113.098 143.03 112.783 142.965 112.521C142.882 112.19 142.423 111.84 141.96 109.99C141.688 108.907 141.85 108.069 141.788 107.824C141.723 107.562 141.461 107.331 141.129 107.414C140.937 107.462 140.788 107.611 140.745 107.807C140.745 107.807 140.584 108.423 140.226 109.144C140.213 109.017 140.2 108.89 140.169 108.768C139.946 107.878 139.094 107.367 138.204 107.59C137.069 107.875 136.018 109.233 136.328 110.473C136.534 111.293 137.18 111.799 137.914 111.912C137.464 112.415 136.971 112.817 136.631 113.013C136.421 113.14 136.316 113.389 136.373 113.616C136.452 113.93 136.766 114.074 137.028 114.008Z" fill="#C2000D"/>
<path d="M160.062 102.781C159.958 102.343 159.47 102.31 159.014 102.417C157.14 102.859 156.143 105.146 156.551 106.88C156.84 108.107 157.922 108.777 159.149 108.488C161.251 107.993 162.371 105.677 161.88 103.592C161.484 101.91 159.628 100.313 159.365 99.1913C159.146 98.2626 159.776 97.2453 160.704 97.0267C161.528 96.8329 162.002 97.276 163.281 96.975C164.192 96.7605 164.539 95.9576 164.566 95.9143C164.611 95.7927 164.635 95.6577 164.61 95.5525C164.544 95.2722 164.259 95.0805 163.961 95.1506C163.505 95.2579 163.612 95.7876 163.033 95.9237C162.21 96.1175 161.736 95.6744 160.457 95.9755C158.932 96.3343 157.954 97.9144 158.313 99.4387C158.709 101.121 160.565 102.718 160.828 103.839C161.204 105.434 160.303 107.107 158.901 107.437C158.201 107.602 157.768 107.334 157.603 106.633C157.31 105.389 158.158 103.728 159.262 103.469C159.349 103.448 159.537 103.459 159.66 103.43C159.922 103.369 160.136 103.096 160.062 102.781Z" fill="#C2000D"/>
<path d="M168.301 106.41C169.058 106.25 169.684 105.989 170.52 105.334C170.678 105.209 170.76 104.989 170.719 104.795C170.652 104.478 170.343 104.323 170.079 104.378C170.008 104.393 169.924 104.43 169.861 104.48C169.123 105.077 168.729 105.216 168.077 105.354C167.796 105.413 167.538 105.412 167.308 105.369C168.406 104.732 169.309 103.345 169.029 102.025C168.821 101.038 167.882 100.427 166.896 100.636C165.329 100.967 164.537 102.533 164.85 104.012C165.204 105.685 166.61 106.768 168.301 106.41ZM167.973 102.248C168.159 103.129 167.22 104.431 166.251 104.636C166.094 104.412 165.977 104.123 165.907 103.789C165.698 102.803 166.221 101.883 167.119 101.693C167.542 101.603 167.883 101.825 167.973 102.248Z" fill="#C2000D"/>
<path d="M173.366 105.725C173.382 105.814 173.436 105.914 173.485 105.978C173.554 106.057 174.419 106.998 175.925 106.725C177.005 106.53 178.637 105.539 178.31 103.733C178.137 102.776 177.453 102.132 176.532 102.097C176.695 101.684 176.763 101.25 176.67 100.737C176.445 99.497 175.29 98.9745 174.192 99.1733C173.572 99.2856 172.279 99.7209 172.41 100.447C172.465 100.748 172.772 100.93 173.038 100.882C173.144 100.863 173.244 100.808 173.323 100.739C173.556 100.514 173.941 100.316 174.384 100.236C175.057 100.114 175.511 100.398 175.607 100.929C175.761 101.779 174.964 102.527 174.885 102.597C174.774 102.69 174.685 102.907 174.723 103.12C174.778 103.421 175.082 103.585 175.348 103.537C175.666 103.479 175.634 103.302 176.201 103.2C176.821 103.088 177.135 103.305 177.247 103.925C177.414 104.846 176.565 105.512 175.732 105.663C174.847 105.823 174.376 105.341 174.285 105.248C174.174 105.14 173.96 105.069 173.783 105.101C173.464 105.159 173.318 105.46 173.366 105.725Z" fill="#C2000D"/>
<path d="M180.463 99.0025C180.285 99.0279 180.135 99.122 180.051 99.2977C179.73 99.9798 179.62 100.741 179.724 101.472C179.943 103.004 181.246 103.982 182.778 103.763C184.649 103.497 186.136 101.812 185.859 99.8696C185.654 98.4262 184.452 97.5247 183.009 97.7304C182.492 97.8041 181.255 98.1805 181.354 98.8755C181.397 99.1784 181.698 99.372 181.965 99.3339C182.072 99.3186 182.176 99.2856 182.255 99.2016C182.479 98.9878 182.805 98.8504 183.161 98.7996C184.035 98.6752 184.666 99.1488 184.79 100.022C184.971 101.287 183.962 102.504 182.626 102.694C181.663 102.831 180.931 102.281 180.793 101.319C180.72 100.802 180.789 100.265 181.028 99.7765C181.069 99.6798 181.089 99.5678 181.074 99.4609C181.036 99.1936 180.766 98.9593 180.463 99.0025Z" fill="#C2000D"/>
<path d="M195.946 100.72C195.462 100.76 195.488 101.299 194.896 101.348C194.143 101.41 193.65 99.3734 193.51 97.6692C193.487 97.3821 193.215 97.1516 192.928 97.1752C192.641 97.1988 192.445 97.4497 192.428 97.6859C192.434 97.9744 192.241 101.566 190.412 101.717C189.479 101.793 188.929 101.261 188.844 100.22C188.748 99.054 188.914 98.8778 188.89 98.5908C188.868 98.3217 188.631 98.0703 188.308 98.0968C188.093 98.1145 187.906 98.2563 187.835 98.4969C187.823 98.5701 187.673 99.1604 187.767 100.309C187.888 101.78 188.921 102.923 190.5 102.793C191.845 102.682 192.575 101.665 192.963 100.676C193.265 101.5 193.855 102.517 194.985 102.424C195.9 102.349 196.364 101.625 196.413 101.566C196.478 101.471 196.521 101.341 196.511 101.215C196.489 100.946 196.233 100.696 195.946 100.72ZM187.687 90.5423C187.712 90.8473 187.982 91.0598 188.269 91.0363L188.305 91.0333C190.069 90.7438 191.681 90.5752 192.919 90.4734C193.206 90.4498 193.436 90.178 193.413 89.891C193.389 89.604 193.117 89.3735 192.83 89.3971C191.557 89.5018 189.945 89.6704 188.145 89.9628C187.859 90.0044 187.665 90.2732 187.687 90.5423Z" fill="#C2000D"/>
<path d="M204.486 97.6356C204.485 97.5816 204.467 97.5278 204.448 97.474C204.189 96.7025 203.446 96.2059 202.672 96.2136C200.692 96.2334 198.912 98.3032 198.931 100.211C198.941 101.219 199.581 102.185 200.751 102.173C201.903 102.162 202.995 101.575 203.922 100.683C204.035 101.168 204.297 102.138 204.891 102.132C205.197 102.129 205.428 101.856 205.425 101.586C205.424 101.478 205.387 101.371 205.332 101.281C205.04 100.87 204.872 100.26 204.864 99.4319C204.861 99.18 204.625 98.8943 204.319 98.8974C204.157 98.899 204.013 98.9724 203.907 99.0995C202.893 100.388 201.766 101.083 200.74 101.093C200.29 101.098 200.017 100.812 200.011 100.2C199.998 98.8684 201.423 97.3062 202.682 97.2936C202.988 97.2905 203.333 97.5031 203.444 97.808C203.518 98.0233 203.717 98.1833 203.951 98.181C204.275 98.1777 204.489 97.9056 204.486 97.6356Z" fill="#C2000D"/>
<path d="M211.445 97.1908C211.479 96.5798 210.569 96.42 210.048 96.3905C208.251 96.2887 206.716 97.9146 206.62 99.6218C206.537 101.078 207.537 102.198 208.993 102.28C209.982 102.336 210.875 102.153 212.05 101.462C212.218 101.363 212.299 101.206 212.309 101.026C212.327 100.72 212.07 100.471 211.801 100.456C211.693 100.45 211.583 100.48 211.49 100.529C210.427 101.154 209.863 101.248 209.054 101.202C208.174 101.152 207.648 100.563 207.698 99.6829C207.764 98.5148 208.909 97.4077 209.987 97.4688C210.31 97.4871 210.453 97.5132 210.645 97.6322C210.714 97.6722 210.803 97.6953 210.875 97.6994C211.145 97.7146 211.427 97.5143 211.445 97.1908Z" fill="#C2000D"/>
<path d="M215.869 96.8136C215.637 96.7823 215.401 96.914 215.299 97.1362C215.054 97.7389 214.785 98.7924 214.657 99.7378C214.489 100.987 214.464 101.437 214.487 102.348C214.486 102.621 214.712 102.833 214.962 102.867C215.283 102.91 215.533 102.671 215.569 102.404C215.675 101.619 215.56 101.258 215.658 100.4C216.702 100.468 217.788 100.36 218.639 99.8391L218.582 100.267C218.447 101.266 218.381 102.965 220.005 103.184C220.558 103.258 221.078 103.038 221.543 102.683C221.665 102.59 221.735 102.473 221.754 102.33C221.793 102.044 221.577 101.761 221.291 101.723C221.149 101.703 221.017 101.74 220.895 101.833C220.551 102.095 220.31 102.135 220.149 102.113C219.632 102.044 219.498 101.553 219.652 100.412L219.965 98.0926C219.999 97.8429 219.823 97.5286 219.502 97.4853C219.252 97.4516 219.014 97.6011 218.927 97.8436C218.511 99.0408 217.315 99.4243 215.82 99.3316C215.952 98.6229 216.158 97.906 216.295 97.5612C216.32 97.5101 216.327 97.4566 216.332 97.4209C216.368 97.1533 216.19 96.8569 215.869 96.8136Z" fill="#C2000D"/>
<path d="M225.532 99.2256C225.356 99.1883 225.182 99.2251 225.043 99.3612C224.507 99.8916 224.143 100.569 223.99 101.291C223.669 102.805 224.557 104.171 226.071 104.492C227.92 104.884 229.895 103.813 230.302 101.893C230.605 100.467 229.786 99.2077 228.36 98.9053C227.849 98.797 226.558 98.7256 226.412 99.4123C226.349 99.7117 226.564 99.9966 226.828 100.053C226.934 100.075 227.043 100.08 227.146 100.028C227.43 99.9042 227.783 99.8871 228.136 99.9618C228.998 100.145 229.429 100.806 229.246 101.669C228.981 102.919 227.616 103.716 226.295 103.436C225.344 103.234 224.845 102.466 225.046 101.515C225.155 101.004 225.404 100.523 225.796 100.147C225.868 100.07 225.926 99.9715 225.948 99.8659C226.004 99.6018 225.831 99.2891 225.532 99.2256Z" fill="#C2000D"/>
<path d="M237.084 101.677C237.232 101.083 236.367 100.757 235.86 100.631C234.113 100.198 232.304 101.511 231.892 103.171C231.541 104.586 232.316 105.872 233.731 106.223C234.692 106.461 235.604 106.447 236.887 105.986C237.07 105.92 237.179 105.78 237.223 105.605C237.296 105.308 237.09 105.016 236.828 104.951C236.724 104.925 236.61 104.934 236.51 104.965C235.349 105.382 234.777 105.37 233.991 105.175C233.135 104.963 232.728 104.287 232.94 103.431C233.222 102.295 234.552 101.419 235.6 101.679C235.914 101.757 236.05 101.81 236.216 101.962C236.277 102.014 236.36 102.053 236.43 102.071C236.692 102.136 237.006 101.991 237.084 101.677Z" fill="#C2000D"/>
<path d="M252.127 109.695C251.99 109.652 251.854 109.665 251.718 109.736C251.357 109.924 251.141 109.95 250.763 109.83C249.905 109.559 250.277 107.487 250.815 105.486C250.885 105.206 250.733 104.912 250.458 104.825C250.218 104.749 249.958 104.856 249.835 105.063C248.931 106.608 247.594 108.45 246.238 108.022C245.448 107.772 245.232 107.024 245.579 105.925C245.791 105.256 245.895 104.987 246.244 104.361C246.255 104.327 246.283 104.298 246.294 104.264C246.375 104.006 246.25 103.684 245.942 103.586C245.701 103.51 245.436 103.633 245.319 103.823C244.492 105.185 242.608 107.44 241.27 107.017C240.583 106.8 240.348 106.348 240.565 105.661C240.842 104.786 241.202 104.126 241.866 103.222C241.899 103.176 241.932 103.13 241.949 103.078C242.03 102.821 241.906 102.498 241.597 102.401C241.374 102.33 241.136 102.425 241.002 102.609C240.328 103.547 239.856 104.323 239.536 105.336C239.156 106.537 239.743 107.667 240.944 108.046C242.248 108.459 243.448 107.649 244.34 106.799C244.344 107.743 244.797 108.699 245.912 109.051C247.251 109.475 248.378 108.717 249.201 107.845C249.076 108.957 249.116 110.442 250.437 110.86C251.09 111.066 251.669 110.966 252.211 110.685C252.346 110.614 252.436 110.51 252.479 110.373C252.566 110.098 252.402 109.782 252.127 109.695ZM253.035 98.4454C253.127 98.1536 252.957 97.8545 252.683 97.7677L252.648 97.7568C248.951 96.8519 248.627 96.8626 243.478 95.2343C243.204 95.1474 242.887 95.3117 242.8 95.5863C242.714 95.8609 242.878 96.1772 243.152 96.264C248.301 97.8923 248.728 97.9142 252.391 98.8083C252.671 98.8779 252.953 98.7028 253.035 98.4454Z" fill="#C2000D"/>
<path d="M262.107 113.908C261.657 113.723 261.436 114.216 260.886 113.99C260.187 113.703 260.673 111.665 261.322 110.083C261.431 109.817 261.293 109.488 261.027 109.379C260.761 109.269 260.472 109.404 260.35 109.607C260.224 109.866 258.422 112.979 256.723 112.282C255.857 111.927 255.609 111.203 256.006 110.237C256.45 109.155 256.678 109.073 256.787 108.807C256.889 108.557 256.792 108.225 256.492 108.102C256.292 108.02 256.061 108.062 255.889 108.244C255.845 108.304 255.444 108.761 255.006 109.827C254.446 111.193 254.848 112.68 256.313 113.282C257.562 113.794 258.673 113.219 259.469 112.514C259.364 113.385 259.427 114.559 260.476 114.99C261.326 115.338 262.068 114.903 262.139 114.874C262.239 114.818 262.337 114.722 262.385 114.605C262.487 114.355 262.373 114.017 262.107 113.908Z" fill="#C2000D"/>
<path d="M278.106 121.17C278.008 121.123 277.895 121.109 277.791 121.118C276.57 121.291 276.012 121.164 275.282 120.813C274.487 120.432 274.225 119.687 274.606 118.892C274.887 118.308 275.584 117.644 277.476 117.613C277.677 117.61 277.876 117.486 277.962 117.307C278.102 117.015 277.952 116.704 277.709 116.587L277.627 116.548C275.557 115.954 273.354 116.634 271.86 117.335C272.274 116.596 272.712 115.767 273.093 114.972C273.218 114.712 273.099 114.376 272.84 114.252C272.58 114.127 272.244 114.245 272.119 114.505C271.286 116.241 270.072 118.274 269.779 118.593C269.739 118.634 269.716 118.682 269.693 118.731C269.576 118.975 269.638 119.304 269.946 119.452C270.141 119.545 270.374 119.517 270.548 119.361C270.739 119.173 272.307 118.109 274.191 117.635C273.962 117.864 273.765 118.149 273.633 118.425C273.002 119.74 273.5 121.156 274.815 121.787C275.708 122.215 276.604 122.386 277.953 122.194C278.146 122.167 278.281 122.052 278.359 121.89C278.491 121.614 278.349 121.286 278.106 121.17Z" fill="#C2000D"/>
<path d="M286.347 120.81C286.138 120.704 285.889 120.759 285.727 120.919C284.02 122.617 281.856 123.983 281.261 123.682C281.117 123.609 280.941 123.439 280.806 123.028C280.758 122.883 280.67 122.778 280.542 122.713C280.285 122.582 279.946 122.693 279.816 122.95C279.751 123.079 279.742 123.216 279.79 123.361C279.972 123.917 280.276 124.394 280.774 124.646C281.737 125.134 282.891 124.527 283.901 123.848C283.671 124.781 283.891 125.82 284.789 126.477L284.87 126.518C285.111 126.64 285.449 126.569 285.595 126.28C285.709 126.055 285.662 125.749 285.438 125.595C284.82 125.141 284.719 124.424 285.126 123.621C285.581 122.722 286.05 122.233 286.52 121.623C286.536 121.591 286.569 121.567 286.585 121.535C286.707 121.294 286.636 120.956 286.347 120.81Z" fill="#C2000D"/>
<path d="M294.844 130.789C294.435 130.527 294.128 130.972 293.628 130.652C292.991 130.245 293.834 128.326 294.756 126.886C294.911 126.643 294.834 126.295 294.592 126.14C294.349 125.985 294.041 126.065 293.885 126.243C293.714 126.476 291.384 129.216 289.838 128.227C289.049 127.722 288.935 126.965 289.498 126.086C290.128 125.101 290.367 125.061 290.522 124.818C290.668 124.591 290.631 124.247 290.358 124.073C290.177 123.956 289.942 123.956 289.74 124.104C289.686 124.155 289.209 124.534 288.588 125.504C287.792 126.747 287.921 128.283 289.255 129.136C290.393 129.864 291.589 129.497 292.497 128.946C292.239 129.784 292.091 130.951 293.046 131.562C293.819 132.056 294.628 131.762 294.702 131.745C294.811 131.708 294.925 131.631 294.993 131.525C295.138 131.298 295.087 130.944 294.844 130.789Z" fill="#C2000D"/>
<path d="M299.133 135.47C299.833 135.801 300.489 135.971 301.551 135.956C301.753 135.951 301.951 135.826 302.036 135.647C302.174 135.354 302.022 135.044 301.778 134.928C301.713 134.898 301.624 134.875 301.544 134.877C300.594 134.906 300.197 134.778 299.595 134.493C299.334 134.37 299.13 134.214 298.973 134.04C300.232 134.198 301.79 133.64 302.367 132.419C302.798 131.508 302.42 130.453 301.509 130.023C300.061 129.338 298.483 130.106 297.837 131.472C297.106 133.018 297.571 134.731 299.133 135.47ZM301.391 131.958C301.006 132.771 299.47 133.24 298.575 132.817C298.585 132.543 298.667 132.243 298.814 131.934C299.244 131.023 300.217 130.607 301.047 130.999C301.438 131.184 301.575 131.567 301.391 131.958Z" fill="#C2000D"/>
<path d="M306.627 132.154C306.401 132.092 306.15 132.191 306.019 132.397C305.695 132.961 305.286 133.969 305.033 134.889C304.698 136.103 304.613 136.547 304.513 137.453C304.476 137.723 304.671 137.963 304.914 138.03C305.226 138.116 305.506 137.913 305.578 137.653C305.788 136.889 305.723 136.517 305.935 135.679C306.961 135.887 308.052 135.926 308.965 135.525L308.85 135.941C308.583 136.913 308.289 138.587 309.868 139.022C310.406 139.171 310.951 139.022 311.46 138.733C311.593 138.658 311.679 138.551 311.717 138.412C311.794 138.134 311.618 137.824 311.34 137.748C311.201 137.709 311.065 137.728 310.932 137.803C310.556 138.017 310.311 138.024 310.155 137.981C309.652 137.842 309.586 137.339 309.892 136.228L310.514 133.972C310.581 133.729 310.449 133.394 310.136 133.308C309.894 133.241 309.637 133.357 309.518 133.586C308.945 134.716 307.709 134.935 306.24 134.643C306.466 133.958 306.766 133.275 306.948 132.952C306.98 132.905 306.995 132.853 307.004 132.818C307.076 132.558 306.939 132.24 306.627 132.154Z" fill="#C2000D"/>
<path d="M326.652 140.807C326.511 140.779 326.377 140.808 326.25 140.894C325.912 141.121 325.701 141.171 325.312 141.096C324.429 140.923 324.564 138.822 324.872 136.773C324.909 136.487 324.725 136.213 324.442 136.157C324.195 136.109 323.948 136.244 323.85 136.464C323.127 138.101 322.007 140.083 320.611 139.811C319.798 139.652 319.498 138.934 319.719 137.803C319.854 137.114 319.927 136.835 320.202 136.173C320.209 136.138 320.234 136.106 320.241 136.071C320.292 135.806 320.132 135.499 319.814 135.437C319.567 135.389 319.317 135.542 319.223 135.744C318.555 137.191 316.939 139.644 315.561 139.375C314.854 139.237 314.57 138.815 314.708 138.108C314.884 137.207 315.166 136.511 315.723 135.537C315.751 135.488 315.779 135.438 315.79 135.385C315.841 135.12 315.681 134.814 315.363 134.752C315.133 134.707 314.908 134.828 314.796 135.026C314.232 136.035 313.851 136.859 313.648 137.901C313.406 139.138 314.117 140.194 315.354 140.435C316.697 140.697 317.797 139.757 318.587 138.811C318.697 139.749 319.256 140.647 320.404 140.871C321.782 141.14 322.816 140.26 323.535 139.3C323.537 140.419 323.745 141.89 325.105 142.156C325.776 142.287 326.34 142.122 326.847 141.78C326.974 141.695 327.051 141.582 327.079 141.44C327.134 141.158 326.935 140.862 326.652 140.807ZM326.279 129.527C326.338 129.226 326.136 128.948 325.853 128.893L325.818 128.886C322.042 128.406 321.721 128.453 316.421 127.419C316.138 127.363 315.842 127.562 315.787 127.845C315.732 128.128 315.931 128.423 316.214 128.479C321.514 129.513 321.941 129.487 325.681 129.96C325.967 129.998 326.228 129.792 326.279 129.527Z" fill="#C2000D"/>
<path d="M330.902 138.464C330.725 138.428 330.552 138.465 330.413 138.602C329.879 139.134 329.517 139.812 329.367 140.534C329.05 142.05 329.943 143.413 331.458 143.729C333.308 144.115 335.28 143.037 335.681 141.116C335.979 139.689 335.156 138.433 333.729 138.135C333.218 138.028 331.926 137.961 331.783 138.648C331.72 138.948 331.937 139.232 332.201 139.287C332.307 139.309 332.416 139.314 332.519 139.261C332.802 139.137 333.156 139.118 333.508 139.192C334.371 139.372 334.804 140.032 334.624 140.896C334.363 142.147 333 142.947 331.679 142.672C330.727 142.473 330.225 141.707 330.424 140.755C330.53 140.244 330.778 139.762 331.169 139.384C331.241 139.307 331.298 139.209 331.32 139.103C331.375 138.839 331.201 138.527 330.902 138.464Z" fill="#C2000D"/>
<path d="M340.752 141.603C340.982 141.65 341.208 141.531 341.322 141.334C341.489 141.055 341.867 140.912 342.167 140.973C342.696 141.081 342.97 141.542 342.833 142.212C342.581 143.446 340.776 144.547 339.471 144.281C338.924 144.169 338.211 143.252 338.708 140.818C339.713 135.898 341.027 134.678 341.592 134.793C341.891 134.855 342.225 135.29 342.081 135.996C341.869 137.036 341.413 137.2 341.391 137.214C341.193 137.284 341.052 137.439 341.015 137.615C340.951 137.933 341.172 138.198 341.437 138.252C341.507 138.267 341.599 138.267 341.677 138.246C341.85 138.208 342.808 137.834 343.139 136.212C343.355 135.154 342.919 133.962 341.808 133.735C339.903 133.346 338.59 135.999 337.65 140.602C337.139 143.107 337.685 145.019 339.255 145.339C341.124 145.721 343.495 144.368 343.891 142.428C344.114 141.334 343.618 140.167 342.383 139.915C341.625 139.76 340.801 140.107 340.399 140.815C340.371 140.864 340.342 140.913 340.331 140.966C340.277 141.231 340.435 141.538 340.752 141.603Z" fill="#C2000D"/>
<path d="M360.787 143.664C360.558 143.617 360.331 143.736 360.217 143.934C359.05 145.954 357.202 147.707 356.321 147.526C355.933 147.447 355.691 147.011 355.904 145.971C356.067 145.177 356.435 144.371 356.724 143.677C356.731 143.642 356.756 143.61 356.763 143.575C356.817 143.31 356.66 143.002 356.343 142.937C356.113 142.89 355.887 143.009 355.773 143.206C354.581 145.259 352.899 147.009 352.229 146.871C352.07 146.839 351.855 146.721 351.617 146.36C351.533 146.232 351.42 146.154 351.279 146.125C350.997 146.068 350.7 146.264 350.642 146.546C350.613 146.687 350.64 146.821 350.725 146.949C351.047 147.437 351.465 147.817 352.012 147.929C353.035 148.139 353.953 147.335 354.755 146.47C354.722 147.346 355.028 148.364 356.104 148.584C357.232 148.816 358.313 148.026 359.225 147.074C359.181 148.094 359.595 149.3 360.865 149.56C361.147 149.618 361.444 149.422 361.502 149.14C361.56 148.857 361.364 148.56 361.082 148.502C360.464 148.376 360.154 147.65 360.349 146.698C360.551 145.711 360.875 145.116 361.168 144.404C361.176 144.369 361.2 144.337 361.208 144.302C361.262 144.037 361.104 143.73 360.787 143.664Z" fill="#C2000D"/>
<path d="M368.87 147.954C368.843 148.15 368.783 148.323 368.725 148.479C368.516 148.541 368.29 148.6 368.058 148.568C367.488 148.489 367.211 148.123 367.29 147.553C367.342 147.178 367.728 146.887 368.103 146.939C368.673 147.018 368.95 147.383 368.87 147.954ZM372.832 145.596C372.654 145.571 372.463 145.636 372.354 145.766C372.352 145.784 371.201 147.005 369.959 147.832C369.973 146.817 369.267 146.01 368.251 145.869C367.27 145.733 366.357 146.424 366.221 147.404C366.082 148.403 366.63 149.297 367.573 149.573C367.289 149.661 366.976 149.69 366.637 149.643C365.353 149.465 364.631 148.383 364.819 147.028C364.997 145.744 365.615 144.831 366 144.412C366.066 144.33 366.116 144.228 366.131 144.121C366.168 143.853 365.974 143.554 365.671 143.512C365.492 143.487 365.322 143.536 365.193 143.682C364.716 144.233 363.967 145.311 363.749 146.88C363.492 148.734 364.563 150.445 366.488 150.713C367.754 150.888 368.926 150.306 369.515 149.333C370.29 148.987 370.98 148.465 371.617 147.935C371.579 148.075 371.547 148.307 371.52 148.503C371.347 149.751 371.841 151.037 373.199 151.462L373.288 151.475C373.556 151.512 373.853 151.335 373.897 151.014C373.932 150.764 373.788 150.49 373.526 150.417C372.794 150.188 372.466 149.543 372.59 148.652C372.728 147.653 373.013 147.039 373.26 146.31C373.265 146.274 373.288 146.241 373.293 146.205C373.33 145.938 373.153 145.641 372.832 145.596Z" fill="#C2000D"/>
<path d="M383.894 147.526C383.714 147.515 383.548 147.577 383.43 147.733C382.979 148.336 382.718 149.06 382.673 149.796C382.579 151.341 383.659 152.561 385.204 152.656C387.091 152.771 388.886 151.419 389.005 149.461C389.094 148.006 388.099 146.881 386.643 146.792C386.122 146.761 384.835 146.88 384.792 147.581C384.773 147.887 385.029 148.137 385.298 148.153C385.406 148.16 385.515 148.148 385.609 148.082C385.872 147.917 386.218 147.848 386.578 147.87C387.458 147.924 387.981 148.515 387.927 149.395C387.85 150.671 386.617 151.66 385.27 151.578C384.3 151.518 383.692 150.832 383.751 149.862C383.783 149.341 383.959 148.829 384.291 148.398C384.351 148.312 384.393 148.206 384.4 148.098C384.416 147.829 384.199 147.545 383.894 147.526Z" fill="#C2000D"/>
<path d="M403.763 151.588C403.619 151.583 403.492 151.634 403.381 151.738C403.084 152.018 402.884 152.102 402.488 152.09C401.588 152.064 401.38 149.969 401.351 147.897C401.341 147.609 401.114 147.368 400.826 147.359C400.575 147.352 400.353 147.525 400.292 147.758C399.845 149.491 399.062 151.629 397.64 151.587C396.813 151.563 396.4 150.902 396.434 149.751C396.455 149.049 396.481 148.762 396.646 148.064C396.647 148.028 396.666 147.993 396.667 147.957C396.675 147.687 396.467 147.411 396.143 147.401C395.891 147.394 395.67 147.585 395.609 147.8C395.186 149.336 393.99 152.02 392.587 151.979C391.867 151.957 391.518 151.587 391.539 150.867C391.566 149.95 391.732 149.216 392.123 148.165C392.143 148.112 392.162 148.058 392.164 148.004C392.172 147.734 391.964 147.458 391.64 147.449C391.406 147.442 391.203 147.598 391.125 147.812C390.733 148.899 390.491 149.774 390.46 150.835C390.422 152.095 391.295 153.021 392.555 153.058C393.922 153.098 394.855 151.991 395.481 150.929C395.742 151.837 396.439 152.632 397.609 152.667C399.012 152.708 399.889 151.672 400.443 150.607C400.626 151.711 401.071 153.129 402.456 153.17C403.14 153.19 403.669 152.936 404.114 152.516C404.225 152.412 404.283 152.287 404.287 152.143C404.295 151.855 404.051 151.596 403.763 151.588ZM401.561 140.518C401.57 140.212 401.325 139.971 401.037 139.962L401.001 139.961C397.198 140.101 396.889 140.2 391.491 140.041C391.203 140.033 390.944 140.277 390.935 140.565C390.927 140.853 391.171 141.112 391.459 141.121C396.857 141.28 397.274 141.184 401.042 141.043C401.33 141.033 401.553 140.788 401.561 140.518Z" fill="#C2000D"/>
<path d="M415.213 151.609C415.105 151.607 414.996 151.641 414.905 151.693C413.866 152.357 413.305 152.472 412.495 152.457C411.614 152.439 411.067 151.87 411.084 150.989C411.097 150.341 411.456 149.448 413.164 148.635C413.346 148.548 413.476 148.353 413.48 148.155C413.486 147.831 413.22 147.61 412.95 147.604L412.86 147.603C410.73 147.921 409.007 149.454 407.939 150.711C408.009 149.866 408.064 148.931 408.081 148.049C408.086 147.761 407.839 147.505 407.551 147.499C407.263 147.493 407.007 147.74 407.001 148.028C406.963 149.954 406.701 152.307 406.567 152.719C406.548 152.772 406.547 152.826 406.546 152.88C406.541 153.15 406.733 153.424 407.075 153.431C407.291 153.435 407.492 153.313 407.586 153.099C407.681 152.848 408.667 151.229 410.185 150.017C410.071 150.321 410.01 150.662 410.004 150.968C409.976 152.425 411.017 153.508 412.474 153.536C413.464 153.556 414.351 153.339 415.499 152.605C415.663 152.5 415.738 152.34 415.742 152.16C415.748 151.854 415.482 151.615 415.213 151.609Z" fill="#C2000D"/>
<path d="M421.784 152.751C421.815 153.326 422.56 153.43 423.261 153.393C424.95 153.301 425.688 151.603 425.613 150.201C425.535 148.763 424.577 147.373 422.941 147.461C421.18 147.556 419.924 149.336 419.259 152.725C419.057 151.312 418.866 150.439 418.507 149.809C418.408 149.634 418.203 149.519 418.005 149.53C417.682 149.547 417.481 149.829 417.495 150.098C417.499 150.17 417.522 150.259 417.562 150.329C418.04 151.168 418.418 153.834 418.708 159.226C418.721 159.46 418.953 159.754 419.277 159.736C419.546 159.722 419.786 159.492 419.789 159.204C419.886 150.979 421.633 148.613 422.999 148.54C423.88 148.492 424.476 149.181 424.534 150.259C424.594 151.374 424.03 152.27 423.203 152.314C422.646 152.344 422.636 152.164 422.294 152.183C422.025 152.197 421.767 152.428 421.784 152.751Z" fill="#C2000D"/>
<path d="M432.641 149.34C432.669 149.536 432.659 149.719 432.646 149.884C432.463 150.001 432.262 150.121 432.03 150.154C431.46 150.235 431.093 149.96 431.012 149.39C430.959 149.016 431.249 148.629 431.623 148.575C432.194 148.494 432.56 148.769 432.641 149.34ZM435.799 145.981C435.621 146.006 435.456 146.121 435.387 146.276C435.389 146.294 434.62 147.785 433.655 148.923C433.388 147.943 432.487 147.362 431.471 147.506C430.491 147.646 429.803 148.562 429.943 149.542C430.085 150.54 430.858 151.248 431.841 151.254C431.591 151.416 431.299 151.531 430.96 151.579C429.677 151.762 428.685 150.921 428.492 149.567C428.309 148.284 428.651 147.235 428.906 146.726C428.946 146.629 428.967 146.517 428.952 146.41C428.914 146.143 428.644 145.909 428.341 145.952C428.163 145.977 428.012 146.071 427.928 146.247C427.623 146.909 427.199 148.151 427.423 149.719C427.686 151.572 429.188 152.922 431.112 152.648C432.378 152.468 433.343 151.585 433.641 150.488C434.291 149.941 434.81 149.249 435.276 148.565C435.279 148.71 435.312 148.941 435.34 149.137C435.517 150.385 436.347 151.485 437.77 151.519L437.859 151.506C438.126 151.468 438.363 151.216 438.317 150.895C438.282 150.646 438.068 150.422 437.796 150.424C437.029 150.406 436.536 149.876 436.409 148.985C436.267 147.987 436.372 147.318 436.408 146.549C436.403 146.513 436.415 146.475 436.41 146.44C436.372 146.172 436.12 145.935 435.799 145.981Z" fill="#C2000D"/>
<path d="M444.785 144.373C444.555 144.416 444.39 144.612 444.359 144.837C444.038 147.224 443.151 149.624 442.496 149.747C442.337 149.777 442.094 149.749 441.737 149.505C441.611 149.419 441.477 149.389 441.335 149.415C441.052 149.469 440.851 149.763 440.904 150.046C440.931 150.187 441.007 150.301 441.133 150.387C441.616 150.718 442.147 150.911 442.696 150.809C443.757 150.609 444.304 149.426 444.692 148.273C445.077 149.153 445.884 149.844 446.997 149.818L447.085 149.802C447.351 149.752 447.576 149.49 447.516 149.171C447.47 148.924 447.247 148.709 446.975 148.724C446.208 148.739 445.692 148.232 445.526 147.347C445.34 146.357 445.415 145.683 445.417 144.914C445.411 144.878 445.422 144.839 445.415 144.804C445.365 144.539 445.103 144.313 444.785 144.373Z" fill="#C2000D"/>
<path d="M457.458 146.313C456.981 146.405 457.067 146.939 456.483 147.052C455.741 147.196 455.029 145.226 454.703 143.547C454.648 143.264 454.353 143.065 454.07 143.12C453.787 143.175 453.62 143.445 453.629 143.682C453.666 143.968 453.868 147.56 452.066 147.909C451.147 148.088 450.543 147.618 450.344 146.593C450.121 145.445 450.267 145.251 450.212 144.969C450.16 144.704 449.897 144.48 449.579 144.541C449.367 144.583 449.196 144.744 449.152 144.991C449.149 145.065 449.064 145.668 449.283 146.799C449.565 148.248 450.717 149.271 452.272 148.97C453.597 148.712 454.21 147.621 454.488 146.596C454.879 147.382 455.576 148.328 456.689 148.112C457.59 147.937 457.973 147.166 458.015 147.103C458.069 147.001 458.098 146.867 458.074 146.743C458.022 146.478 457.741 146.258 457.458 146.313Z" fill="#C2000D"/>
<path d="M468.997 150.541C468.9 149.864 469.207 148.71 469.757 147.595C470.103 148.109 470.371 148.707 470.473 149.42C470.588 150.222 470.178 150.917 469.608 150.999C469.269 151.047 469.045 150.879 468.997 150.541ZM470.163 140.918C470.145 140.793 470.074 140.676 469.97 140.582C469.473 140.162 468.852 140.015 468.228 140.104C466.696 140.324 465.719 141.628 465.939 143.16C466.186 144.888 467.905 145.715 468.977 146.725C468.293 148.041 467.757 149.5 467.928 150.694C468.058 151.603 468.852 152.198 469.761 152.068C471.151 151.868 471.708 150.425 471.542 149.267C471.381 148.144 470.892 147.269 470.319 146.569C470.642 146.032 470.99 145.545 471.318 145.171C471.428 145.046 471.458 144.878 471.438 144.736C471.394 144.433 471.112 144.237 470.827 144.278C470.702 144.296 470.582 144.349 470.488 144.453C470.16 144.828 469.845 145.291 469.532 145.773C469.323 145.584 469.099 145.416 468.895 145.264C467.856 144.485 467.12 143.791 467.008 143.007C466.87 142.045 467.419 141.311 468.381 141.173C468.756 141.12 469.041 141.206 469.288 141.407C469.41 141.499 469.563 141.549 469.705 141.529C470.008 141.486 470.204 141.203 470.163 140.918Z" fill="#C2000D"/>
<path d="M474.065 140.256C473.886 140.276 473.733 140.365 473.643 140.538C473.301 141.21 473.168 141.967 473.249 142.701C473.419 144.239 474.691 145.258 476.23 145.088C478.108 144.88 479.647 143.242 479.432 141.292C479.271 139.843 478.099 138.904 476.65 139.065C476.131 139.122 474.882 139.46 474.96 140.157C474.993 140.461 475.287 140.664 475.556 140.635C475.663 140.623 475.768 140.593 475.85 140.511C476.081 140.305 476.411 140.178 476.768 140.138C477.645 140.041 478.261 140.534 478.358 141.411C478.499 142.681 477.453 143.866 476.111 144.014C475.145 144.121 474.429 143.548 474.322 142.582C474.265 142.063 474.351 141.529 474.605 141.048C474.649 140.952 474.673 140.841 474.661 140.734C474.631 140.465 474.369 140.223 474.065 140.256Z" fill="#C2000D"/>
<path d="M485.43 138.884C485.37 138.275 484.445 138.259 483.926 138.311C482.135 138.49 480.872 140.335 481.042 142.036C481.187 143.487 482.35 144.438 483.801 144.293C484.786 144.194 485.64 143.874 486.693 143.009C486.844 142.885 486.899 142.717 486.881 142.538C486.851 142.233 486.559 142.027 486.29 142.054C486.183 142.065 486.079 142.111 485.995 142.174C485.042 142.957 484.499 143.138 483.693 143.218C482.815 143.306 482.205 142.806 482.117 141.929C482.001 140.764 482.959 139.493 484.033 139.385C484.356 139.353 484.501 139.357 484.709 139.445C484.784 139.473 484.875 139.482 484.947 139.475C485.216 139.448 485.463 139.206 485.43 138.884Z" fill="#C2000D"/>
<path d="M502.405 140.49C502.262 140.506 502.143 140.574 502.048 140.694C501.795 141.012 501.608 141.124 501.215 141.169C500.321 141.271 499.815 139.228 499.491 137.181C499.44 136.897 499.181 136.691 498.895 136.724C498.645 136.753 498.451 136.956 498.424 137.195C498.228 138.974 497.758 141.202 496.345 141.364C495.523 141.458 495.02 140.863 494.889 139.718C494.81 139.021 494.795 138.733 494.858 138.019C494.854 137.983 494.868 137.945 494.864 137.909C494.833 137.641 494.588 137.397 494.266 137.434C494.015 137.463 493.823 137.684 493.794 137.905C493.594 139.486 492.794 142.313 491.399 142.472C490.684 142.554 490.286 142.237 490.204 141.522C490.1 140.61 490.159 139.86 490.396 138.764C490.408 138.709 490.419 138.653 490.413 138.599C490.383 138.331 490.137 138.087 489.815 138.124C489.583 138.151 489.405 138.334 489.358 138.557C489.125 139.689 489.01 140.59 489.131 141.645C489.274 142.897 490.27 143.688 491.522 143.545C492.881 143.39 493.647 142.161 494.114 141.021C494.502 141.882 495.306 142.569 496.468 142.437C497.863 142.277 498.583 141.126 498.979 139.994C499.318 141.06 499.961 142.4 501.338 142.242C502.017 142.165 502.505 141.837 502.885 141.359C502.98 141.239 503.02 141.108 503.003 140.965C502.971 140.679 502.692 140.457 502.405 140.49ZM498.646 129.848C498.611 129.544 498.334 129.34 498.048 129.373L498.012 129.377C494.267 130.058 493.975 130.2 488.61 130.814C488.324 130.846 488.102 131.125 488.135 131.412C488.168 131.698 488.447 131.919 488.733 131.887C494.098 131.273 494.497 131.119 498.206 130.442C498.49 130.391 498.676 130.116 498.646 129.848Z" fill="#C2000D"/>
<path d="M510.25 136.491C510.241 136.438 510.215 136.387 510.188 136.337C509.813 135.615 509.002 135.238 508.239 135.365C506.286 135.689 504.846 138.008 505.158 139.89C505.323 140.885 506.104 141.74 507.258 141.549C508.394 141.36 509.383 140.612 510.162 139.589C510.348 140.051 510.756 140.968 511.342 140.871C511.644 140.821 511.831 140.517 511.786 140.25C511.769 140.144 511.715 140.043 511.647 139.963C511.296 139.602 511.036 139.025 510.9 138.208C510.859 137.959 510.581 137.713 510.279 137.763C510.119 137.79 509.989 137.884 509.903 138.026C509.1 139.455 508.093 140.316 507.081 140.484C506.637 140.557 506.324 140.317 506.223 139.714C506.005 138.4 507.173 136.637 508.416 136.43C508.717 136.38 509.09 136.537 509.247 136.822C509.353 137.023 509.575 137.15 509.806 137.112C510.126 137.059 510.294 136.757 510.25 136.491Z" fill="#C2000D"/>
<path d="M515.788 135.924C516.017 135.875 516.177 135.676 516.202 135.449C516.244 135.128 516.533 134.845 516.833 134.781C517.361 134.669 517.796 134.981 517.938 135.65C518.2 136.883 516.986 138.613 515.684 138.891C515.138 139.007 514.118 138.451 513.6 136.022C512.554 131.11 513.272 129.467 513.835 129.347C514.134 129.283 514.614 129.549 514.764 130.253C514.985 131.292 514.633 131.624 514.619 131.646C514.465 131.789 514.397 131.987 514.435 132.163C514.502 132.48 514.811 132.635 515.075 132.579C515.146 132.564 515.23 132.528 515.293 132.478C515.437 132.373 516.165 131.648 515.82 130.028C515.595 128.972 514.719 128.054 513.61 128.29C511.709 128.695 511.565 131.652 512.544 136.247C513.076 138.747 514.342 140.281 515.909 139.947C517.775 139.55 519.407 137.362 518.994 135.425C518.762 134.334 517.84 133.463 516.608 133.725C515.851 133.886 515.234 134.533 515.149 135.342C515.142 135.399 515.136 135.456 515.147 135.508C515.203 135.772 515.471 135.992 515.788 135.924Z" fill="#C2000D"/>
<path d="M529.308 135.149C529.202 135.171 529.103 135.227 529.026 135.298C528.155 136.171 527.633 136.404 526.839 136.564C525.974 136.738 525.317 136.301 525.143 135.436C525.015 134.801 525.173 133.851 526.665 132.688C526.824 132.565 526.908 132.346 526.869 132.152C526.805 131.834 526.498 131.675 526.233 131.729L526.145 131.746C524.134 132.518 522.784 134.387 522.012 135.846C521.898 135.006 521.749 134.081 521.575 133.217C521.518 132.934 521.221 132.737 520.939 132.794C520.657 132.851 520.459 133.147 520.516 133.43C520.896 135.318 521.149 137.672 521.108 138.103C521.101 138.159 521.111 138.212 521.122 138.265C521.175 138.53 521.422 138.755 521.758 138.688C521.97 138.645 522.139 138.483 522.184 138.253C522.223 137.989 522.835 136.195 524.055 134.682C524.009 135.004 524.024 135.349 524.084 135.649C524.372 137.079 525.622 137.911 527.052 137.623C528.022 137.428 528.841 137.024 529.803 136.059C529.941 135.922 529.98 135.749 529.944 135.572C529.884 135.272 529.573 135.096 529.308 135.149Z" fill="#C2000D"/>
<path d="M537.305 140.356C537.162 139.431 537.504 138.23 538.136 137.021C538.304 137.633 538.43 138.214 538.507 138.713C538.714 140.047 538.152 140.771 537.743 140.835C537.619 140.854 537.36 140.712 537.305 140.356ZM536.238 140.521C536.348 141.233 536.966 142.048 537.909 141.902C539.278 141.69 539.809 140.059 539.575 138.547C539.445 137.711 539.176 136.678 538.905 135.755C539.541 134.8 540.312 133.898 540.898 133.333C541.024 133.204 541.088 133.03 541.06 132.853C541.014 132.55 540.711 132.36 540.444 132.402C540.337 132.418 540.233 132.452 540.155 132.537C539.647 133.017 539.077 133.688 538.503 134.451C537.954 132.787 537.342 131.188 537 130.276C536.908 130.035 536.667 129.89 536.418 129.929C536.116 129.976 535.941 130.258 535.964 130.527C536.16 132.264 535.283 134.476 534.233 134.639C533.308 134.782 532.722 134.29 532.562 133.258C532.482 132.743 532.456 132.455 532.491 131.739C532.485 131.704 532.498 131.666 532.492 131.63C532.451 131.363 532.196 131.129 531.876 131.179C531.2 131.284 531.371 132.623 531.47 133.264L531.495 133.424C531.721 134.882 532.833 135.949 534.399 135.706C535.733 135.499 536.476 134.182 536.825 132.908C537.115 133.719 537.447 134.687 537.732 135.59C536.816 137.08 535.987 138.903 536.238 140.521Z" fill="#C2000D"/>
<path d="M561.656 132.335C561.512 132.337 561.387 132.393 561.28 132.503C560.997 132.795 560.8 132.888 560.404 132.894C559.504 132.907 559.203 130.823 559.082 128.755C559.06 128.467 558.823 128.237 558.535 128.241C558.283 128.245 558.069 128.428 558.019 128.663C557.649 130.415 556.961 132.585 555.539 132.606C554.711 132.618 554.27 131.977 554.253 130.825C554.242 130.123 554.256 129.835 554.389 129.131C554.389 129.095 554.406 129.059 554.406 129.023C554.402 128.753 554.182 128.486 553.858 128.491C553.606 128.494 553.393 128.696 553.342 128.912C552.987 130.466 551.912 133.2 550.508 133.221C549.788 133.232 549.423 132.877 549.412 132.157C549.398 131.239 549.531 130.499 549.875 129.432C549.893 129.378 549.91 129.324 549.909 129.27C549.905 129 549.685 128.733 549.361 128.738C549.127 128.741 548.932 128.906 548.863 129.123C548.519 130.226 548.316 131.111 548.332 132.173C548.351 133.433 549.264 134.32 550.524 134.301C551.892 134.281 552.775 133.133 553.353 132.045C553.654 132.94 554.386 133.703 555.555 133.686C556.959 133.665 557.789 132.591 558.295 131.503C558.528 132.598 559.034 133.994 560.42 133.974C561.104 133.964 561.622 133.686 562.048 133.247C562.154 133.138 562.206 133.011 562.204 132.867C562.2 132.579 561.944 132.331 561.656 132.335ZM558.966 121.374C558.961 121.068 558.706 120.838 558.418 120.842L558.382 120.843C554.588 121.151 554.283 121.264 548.884 121.344C548.596 121.348 548.348 121.604 548.352 121.892C548.356 122.18 548.612 122.428 548.9 122.424C554.299 122.343 554.712 122.229 558.47 121.921C558.757 121.899 558.97 121.644 558.966 121.374Z" fill="#C2000D"/>
<path d="M565.69 129.335C565.511 129.326 565.345 129.39 565.23 129.547C564.786 130.156 564.535 130.883 564.5 131.62C564.425 133.166 565.521 134.372 567.067 134.447C568.955 134.537 570.733 133.163 570.827 131.203C570.897 129.747 569.887 128.635 568.431 128.565C567.909 128.54 566.623 128.677 566.589 129.378C566.575 129.683 566.833 129.93 567.103 129.943C567.211 129.948 567.32 129.935 567.413 129.868C567.673 129.7 568.019 129.627 568.379 129.644C569.26 129.686 569.79 130.27 569.748 131.151C569.687 132.428 568.467 133.433 567.119 133.368C566.148 133.321 565.532 132.643 565.578 131.672C565.603 131.151 565.772 130.636 566.099 130.201C566.158 130.114 566.199 130.008 566.204 129.9C566.217 129.63 565.996 129.349 565.69 129.335Z" fill="#C2000D"/>
<path d="M575.725 131.007C575.958 131.024 576.167 130.878 576.256 130.668C576.386 130.371 576.744 130.181 577.049 130.204C577.587 130.245 577.916 130.667 577.865 131.349C577.77 132.606 576.117 133.925 574.789 133.824C574.233 133.782 573.41 132.962 573.598 130.485C573.977 125.477 575.128 124.102 575.702 124.145C576.007 124.169 576.393 124.559 576.339 125.277C576.258 126.336 575.827 126.556 575.807 126.572C575.62 126.666 575.498 126.838 575.485 127.017C575.46 127.34 575.713 127.576 575.983 127.596C576.054 127.602 576.145 127.591 576.22 127.56C576.387 127.501 577.291 127.009 577.415 125.358C577.497 124.281 576.914 123.154 575.784 123.069C573.845 122.922 572.875 125.719 572.521 130.403C572.328 132.952 573.11 134.78 574.708 134.901C576.61 135.045 578.792 133.405 578.942 131.431C579.026 130.318 578.387 129.222 577.13 129.127C576.358 129.069 575.585 129.516 575.275 130.269C575.253 130.321 575.231 130.374 575.227 130.428C575.206 130.697 575.401 130.982 575.725 131.007Z" fill="#C2000D"/>
<path d="M586.304 131.413C586.309 131.359 586.296 131.304 586.284 131.248C586.109 130.453 585.424 129.879 584.653 129.804C582.683 129.61 580.69 131.475 580.503 133.374C580.405 134.377 580.936 135.406 582.101 135.521C583.247 135.634 584.396 135.168 585.414 134.382C585.474 134.876 585.63 135.868 586.221 135.927C586.525 135.957 586.785 135.711 586.811 135.442C586.822 135.335 586.796 135.224 586.752 135.129C586.506 134.689 586.404 134.064 586.485 133.24C586.51 132.989 586.305 132.679 586.001 132.649C585.84 132.633 585.689 132.691 585.57 132.806C584.423 133.977 583.228 134.547 582.207 134.446C581.759 134.402 581.518 134.089 581.578 133.48C581.709 132.154 583.294 130.755 584.548 130.878C584.852 130.908 585.171 131.157 585.249 131.472C585.299 131.694 585.48 131.875 585.713 131.898C586.036 131.929 586.277 131.682 586.304 131.413Z" fill="#C2000D"/>
<path d="M592.225 135.877C592.157 136.449 592.874 136.678 593.571 136.759C595.251 136.956 596.267 135.408 596.43 134.013C596.597 132.583 595.889 131.05 594.262 130.86C592.51 130.654 590.97 132.196 589.74 135.423C589.781 133.996 589.74 133.103 589.494 132.421C589.425 132.232 589.243 132.084 589.047 132.061C588.725 132.023 588.479 132.266 588.448 132.535C588.439 132.606 588.447 132.698 588.474 132.773C588.803 133.682 588.723 136.373 588.095 141.736C588.068 141.968 588.247 142.297 588.568 142.335C588.836 142.367 589.112 142.181 589.163 141.897C590.655 133.808 592.778 131.773 594.136 131.932C595.012 132.035 595.483 132.815 595.357 133.888C595.227 134.996 594.519 135.783 593.697 135.687C593.142 135.622 593.163 135.443 592.824 135.403C592.555 135.372 592.262 135.555 592.225 135.877Z" fill="#C2000D"/>
<path d="M599.776 132.444C599.597 132.421 599.428 132.472 599.3 132.619C598.809 133.19 598.5 133.895 598.405 134.627C598.207 136.162 599.202 137.452 600.738 137.65C602.612 137.892 604.495 136.665 604.746 134.719C604.932 133.273 604.015 132.084 602.569 131.897C602.051 131.83 600.758 131.863 600.669 132.559C600.629 132.863 600.867 133.129 601.135 133.164C601.242 133.178 601.352 133.174 601.45 133.114C601.723 132.968 602.074 132.922 602.431 132.968C603.305 133.081 603.787 133.706 603.675 134.581C603.511 135.848 602.215 136.752 600.876 136.579C599.912 136.455 599.352 135.729 599.476 134.765C599.543 134.247 599.753 133.748 600.114 133.341C600.179 133.258 600.229 133.156 600.242 133.049C600.277 132.781 600.079 132.483 599.776 132.444Z" fill="#C2000D"/>
<path d="M609.6 134.822C609.832 134.853 610.05 134.718 610.15 134.514C610.298 134.225 610.665 134.056 610.968 134.097C611.504 134.168 611.808 134.608 611.718 135.286C611.551 136.535 609.826 137.758 608.505 137.581C607.952 137.507 607.178 136.641 607.507 134.179C608.172 129.201 609.4 127.894 609.971 127.971C610.274 128.011 610.637 128.423 610.541 129.136C610.401 130.189 609.957 130.384 609.937 130.399C609.744 130.483 609.613 130.647 609.589 130.825C609.547 131.146 609.786 131.396 610.053 131.432C610.125 131.441 610.216 131.436 610.292 131.409C610.462 131.36 611.393 130.921 611.612 129.279C611.755 128.209 611.238 127.05 610.114 126.9C608.187 126.643 607.059 129.379 606.437 134.036C606.098 136.57 606.774 138.44 608.362 138.652C610.254 138.904 612.526 137.392 612.788 135.429C612.936 134.323 612.36 133.193 611.111 133.026C610.344 132.924 609.546 133.325 609.194 134.059C609.169 134.11 609.144 134.162 609.137 134.215C609.101 134.483 609.279 134.779 609.6 134.822Z" fill="#C2000D"/>
<path d="M621.543 134.416C621.311 134.386 621.076 134.519 620.975 134.742C620.735 135.347 620.473 136.402 620.352 137.349C620.193 138.598 620.172 139.049 620.201 139.96C620.202 140.233 620.43 140.443 620.68 140.475C621.001 140.516 621.249 140.276 621.284 140.008C621.384 139.222 621.266 138.862 621.358 138.003C622.402 138.064 623.488 137.948 624.335 137.421L624.281 137.85C624.153 138.849 624.1 140.548 625.725 140.756C626.278 140.826 626.797 140.602 627.26 140.244C627.381 140.15 627.45 140.032 627.468 139.889C627.505 139.603 627.287 139.322 627.001 139.285C626.858 139.267 626.726 139.305 626.605 139.398C626.263 139.663 626.022 139.705 625.861 139.684C625.343 139.618 625.206 139.129 625.352 137.986L625.648 135.665C625.68 135.415 625.502 135.102 625.181 135.061C624.931 135.029 624.694 135.18 624.608 135.423C624.201 136.624 623.008 137.016 621.512 136.934C621.639 136.224 621.84 135.506 621.974 135.16C621.999 135.109 622.006 135.055 622.01 135.02C622.045 134.752 621.864 134.457 621.543 134.416Z" fill="#C2000D"/>
<path d="M634.709 137.524C634.715 137.47 634.704 137.414 634.693 137.359C634.54 136.559 633.871 135.967 633.103 135.87C631.139 135.622 629.096 137.432 628.857 139.325C628.731 140.325 629.234 141.368 630.395 141.515C631.538 141.659 632.699 141.225 633.738 140.468C633.785 140.963 633.913 141.959 634.502 142.034C634.806 142.072 635.072 141.833 635.106 141.565C635.119 141.458 635.097 141.347 635.055 141.251C634.821 140.804 634.737 140.176 634.84 139.355C634.872 139.105 634.676 138.79 634.372 138.751C634.212 138.731 634.06 138.785 633.937 138.896C632.759 140.035 631.548 140.572 630.53 140.443C630.084 140.387 629.852 140.067 629.928 139.46C630.095 138.139 631.718 136.783 632.968 136.941C633.272 136.98 633.584 137.237 633.653 137.554C633.697 137.777 633.873 137.963 634.105 137.992C634.427 138.033 634.675 137.792 634.709 137.524Z" fill="#C2000D"/>
<path d="M643.913 147.803C644.005 147.125 644.615 146.099 645.447 145.175C645.64 145.764 645.735 146.413 645.639 147.126C645.531 147.929 644.948 148.486 644.377 148.41C644.038 148.364 643.868 148.142 643.913 147.803ZM647.658 138.862C647.674 138.737 647.638 138.605 647.563 138.486C647.199 137.946 646.642 137.635 646.018 137.551C644.483 137.345 643.188 138.334 642.982 139.868C642.749 141.598 644.178 142.862 644.934 144.126C643.917 145.206 643.004 146.463 642.843 147.659C642.721 148.569 643.323 149.358 644.233 149.48C645.624 149.667 646.553 148.43 646.709 147.27C646.86 146.146 646.628 145.171 646.267 144.341C646.725 143.912 647.192 143.539 647.61 143.269C647.75 143.178 647.825 143.025 647.844 142.882C647.885 142.579 647.666 142.313 647.381 142.275C647.256 142.258 647.126 142.277 647.007 142.352C646.589 142.623 646.159 142.983 645.727 143.361C645.578 143.123 645.408 142.9 645.253 142.698C644.466 141.665 643.947 140.797 644.052 140.012C644.182 139.048 644.91 138.492 645.874 138.622C646.248 138.672 646.499 138.833 646.682 139.094C646.775 139.215 646.908 139.306 647.051 139.325C647.354 139.366 647.619 139.147 647.658 138.862Z" fill="#C2000D"/>
<path d="M651.307 139.177C651.128 139.152 650.958 139.201 650.829 139.347C650.332 139.914 650.016 140.615 649.914 141.346C649.701 142.879 650.683 144.179 652.216 144.393C654.088 144.653 655.983 143.445 656.253 141.502C656.454 140.058 655.549 138.859 654.105 138.658C653.588 138.586 652.295 138.606 652.198 139.301C652.156 139.604 652.391 139.873 652.658 139.911C652.765 139.926 652.875 139.923 652.974 139.864C653.248 139.72 653.599 139.678 653.956 139.728C654.829 139.85 655.305 140.479 655.184 141.353C655.007 142.619 653.702 143.509 652.365 143.323C651.402 143.189 650.85 142.458 650.984 141.495C651.056 140.978 651.27 140.481 651.636 140.077C651.701 139.996 651.752 139.894 651.767 139.787C651.804 139.519 651.61 139.219 651.307 139.177Z" fill="#C2000D"/>
<path d="M667.684 140.611C667.452 140.577 667.233 140.708 667.13 140.912C666.079 142.995 664.334 144.85 663.444 144.72C663.052 144.662 662.786 144.241 662.94 143.191C663.057 142.389 663.378 141.563 663.628 140.854C663.633 140.818 663.656 140.785 663.661 140.749C663.7 140.482 663.526 140.184 663.205 140.137C662.974 140.103 662.754 140.234 662.652 140.438C661.578 142.554 659.998 144.397 659.321 144.298C659.161 144.274 658.94 144.169 658.681 143.822C658.59 143.7 658.473 143.628 658.331 143.607C658.046 143.565 657.76 143.778 657.718 144.063C657.698 144.206 657.733 144.338 657.824 144.461C658.174 144.93 658.613 145.286 659.165 145.367C660.198 145.518 661.069 144.663 661.82 143.754C661.838 144.63 662.201 145.629 663.287 145.788C664.427 145.955 665.461 145.106 666.317 144.103C666.332 145.124 666.814 146.305 668.096 146.492C668.381 146.534 668.667 146.321 668.708 146.036C668.75 145.751 668.537 145.465 668.252 145.424C667.629 145.332 667.278 144.626 667.419 143.664C667.565 142.667 667.854 142.055 668.106 141.327C668.112 141.292 668.135 141.259 668.14 141.223C668.179 140.956 668.004 140.658 667.684 140.611Z" fill="#C2000D"/>
<path d="M116.93 109.851C114.766 110.807 113.271 112.899 111.482 114.458C108.837 116.764 105.771 119.127 102.691 120.69C98.8465 122.642 94.5081 124.45 89.9263 123.794C88.075 123.53 86.184 123.389 84.3329 122.946C81.7068 122.319 79.1676 121.707 76.5348 121.519C73.1348 121.276 69.8746 121.643 66.5538 121.891C64.4729 122.046 62.4979 122.478 60.4819 122.893C59.0055 123.197 57.4544 123.304 56.0052 123.698C52.9909 124.517 51.239 127.005 48.8679 128.893C45.7475 131.377 42.3236 133.072 38.7797 134.81C33.7056 137.3 28.9711 140.336 22.9391 139.559C17.7258 138.888 12.264 138.01 7.07352 136.463C6.16618 136.193 5.16501 135.87 4.33141 135.444" stroke="#C2000D" stroke-linecap="round" stroke-linejoin="round"/>
</svg>
