<svg width="435" height="93" viewBox="0 0 435 93" fill="none" xmlns="http://www.w3.org/2000/svg">
<path d="M9.86621 15.3018C30.8944 23.2586 49.2871 36.2178 71.698 40.6927C88.9682 44.1411 105.862 40.908 123.102 39.3202C137.711 37.9747 154.043 36.5763 168.3 40.8642C180.464 44.5228 190.885 53.4422 201.057 60.7652C216.254 71.7048 232.305 79.6021 250.449 84.412C277.619 91.6144 304.643 93.2132 332.542 90.5881C366.629 87.3808 400.475 81.5811 434.244 76.0341" stroke="#C2000D" stroke-linecap="round" stroke-linejoin="round"/>
<path d="M1 2.81494C5.02056 5.51298 8.41179 8.18924 13.2941 8.28219C14.3231 8.30178 15.3542 8.28219 16.3835 8.28219C17.6245 8.28219 18.8655 8.28219 20.1065 8.28219" stroke="#C2000D" stroke-linecap="round" stroke-linejoin="round"/>
<path d="M1.93799 0.54248C6.70765 5.2855 13.6196 7.24083 20.1934 7.24083" stroke="#C2000D" stroke-linecap="round" stroke-linejoin="round"/>
</svg>
