<svg width="122" height="118" viewBox="0 0 122 118" fill="none" xmlns="http://www.w3.org/2000/svg">
<path d="M101.732 19.1676C101.691 19.0991 101.647 19.0314 101.6 18.9646C101.069 18.5733 100.544 18.2159 100.041 17.9055C97.1838 16.1397 93.1525 13.2362 89.8713 12.8064C87.4337 12.4871 85.6214 10.6877 83.3316 9.82767C81.8004 9.25249 80.5325 8.45182 79.0796 7.75773C76.8779 6.70592 74.046 4.76481 71.5453 4.62759L71.2324 4.61041C64.8607 4.26036 57.1928 3.8391 51.0064 4.98099C46.6147 5.79159 41.742 5.99072 37.2805 5.99072C35.6591 5.99072 33.4402 7.78597 31.9593 8.56551C31.0636 9.03701 30.2055 9.54587 29.3533 10.0507C27.5521 11.1176 25.7772 12.1665 23.7288 12.8064C23.2569 12.9537 22.7948 13.2017 22.3548 13.5159C21.7225 15.8371 19.9754 17.9816 19.0292 20.1773C18.2735 21.9307 15.9848 24.6955 14.429 25.7813C12.5787 27.0727 11.1872 29.0224 9.38131 30.426C8.52 31.0955 7.59693 31.8573 6.74494 32.6736C3.10812 38.0989 1.47404 42.8992 1.47404 49.6108C1.47404 51.2315 1.48746 52.842 1.5256 54.4439C1.75203 58.6187 2.447 62.7318 4.40818 66.2712C5.122 67.5595 5.18935 69.1633 5.94985 70.4868C6.79459 71.9569 7.72962 73.4255 8.36181 75.0053C9.89992 78.8489 11.7482 82.6876 13.7577 86.3142C15.4135 89.3026 16.1916 92.5572 17.7859 95.6037C20.2991 100.406 21.9084 104.602 25.4196 108.856C27.4317 111.294 32.1763 114.352 35.6775 115.268C36.2181 115.367 36.7563 115.46 37.2889 115.549C41.4652 116.019 46.6613 116.085 50.6831 115.268C55.704 114.249 61.369 115.091 66.4728 115.041C66.9945 115.036 67.5136 114.997 68.0309 114.937C68.9492 114.697 69.8686 114.454 70.7994 114.233C71.7382 114.01 73.7327 114.017 74.5789 113.476C76.1703 112.459 77.841 112.488 79.4526 111.355C82.2028 109.423 85.2348 108.148 88.2864 106.857C89.1209 106.125 89.966 105.408 90.8908 104.792C94.8151 102.178 98.5799 98.6414 101.956 95.3008C106.488 90.8167 111.175 86.3185 114.264 80.6598C116.313 76.9082 117.59 72.4828 118.804 68.2184C118.806 66.902 118.773 65.5638 118.84 64.2013C119.046 60.0129 119.188 55.8698 119.188 51.6807C119.188 44.6758 115.947 38.5793 112.449 32.6727C111.641 31.3073 110.804 29.6263 109.867 27.9597C108.828 26.5929 107.831 25.1938 106.855 23.9386C106.311 23.2391 105.646 22.5086 104.917 21.7918C103.802 21.0323 102.446 20.341 101.732 19.1676Z" fill="white"/>
<path d="M22.9579 15.5326C25.1609 13.7931 27.1901 11.8349 29.3533 10.0507M71.5453 4.62759C74.046 4.76481 76.8779 6.70592 79.0796 7.75773C80.5325 8.45182 81.8004 9.25249 83.3317 9.82767C85.6214 10.6877 87.4337 12.4871 89.8713 12.8064C93.1525 13.2362 97.1838 16.1397 100.041 17.9055C100.544 18.2159 101.069 18.5733 101.6 18.9646M71.5453 4.62759L71.2324 4.61041M71.5453 4.62759C71.4414 4.62189 71.3371 4.61616 71.2324 4.61041M22.5104 12.8064C22.4712 13.0448 22.4187 13.2812 22.3548 13.5159M101.6 18.9646C101.647 19.0314 101.691 19.0991 101.732 19.1676C102.446 20.341 103.802 21.0323 104.917 21.7918M101.6 18.9646C102.73 19.796 103.888 20.7803 104.917 21.7918M101.6 18.9646C100.283 17.057 97.2225 15.8541 95.5158 14.2452C93.2943 12.1511 89.8585 10.0443 87.1858 8.76746C85.2702 7.85231 83.0921 6.50836 80.9943 6.09169C75.4271 4.98592 70.1638 2.5285 64.583 1.54793C57.6355 0.327233 51.6906 0.645508 44.8397 2.45668C40.7626 3.53454 37.1055 4.96827 33.4761 7.10141C32.0083 7.96409 30.6565 8.9758 29.3533 10.0507M71.2324 4.61041C64.8607 4.26036 57.1928 3.8391 51.0064 4.98099C46.6147 5.79159 41.742 5.99072 37.2805 5.99072C35.6591 5.99072 33.4402 7.78597 31.9593 8.56551C31.0636 9.03701 30.2055 9.54586 29.3533 10.0507M29.3533 10.0507C27.5521 11.1176 25.7772 12.1665 23.7288 12.8064C23.2569 12.9537 22.7948 13.2017 22.3548 13.5159M22.3548 13.5159C21.7225 15.8371 19.9754 17.9816 19.0292 20.1773C18.2735 21.9307 15.9848 24.6955 14.429 25.7813C12.5787 27.0727 11.1872 29.0224 9.38131 30.426C8.52 31.0955 7.59693 31.8573 6.74494 32.6736M22.3548 13.5159C21.2331 14.3168 20.2551 15.5484 19.6259 16.6433C18.8079 18.0669 17.3143 18.8946 16.2442 20.1016C15.2191 21.2579 14.9169 23.0709 13.8074 24.0648C12.7174 25.0411 12.2049 25.8944 11.4949 27.1697C10.4222 29.0963 8.43922 30.2187 7.19313 32.0164C7.04048 32.2366 6.89109 32.4556 6.74494 32.6736M6.74494 32.6736C3.10812 38.0989 1.47404 42.8992 1.47404 49.6108C1.47404 51.2315 1.48746 52.842 1.5256 54.4439M6.74494 32.6736C6.0637 33.3264 5.42791 34.0141 4.90549 34.7174C2.63324 37.7763 1.47404 40.263 1.47404 44.1583C1.47404 47.4315 1.3366 50.9592 1.5256 54.4439M1.5256 54.4439C1.75203 58.6187 2.447 62.7318 4.40818 66.2712C5.122 67.5595 5.18935 69.1633 5.94985 70.4868C6.79459 71.9569 7.72962 73.4255 8.36182 75.0053C9.89992 78.8489 11.7482 82.6876 13.7577 86.3142C15.4135 89.3026 16.1916 92.5572 17.7859 95.6037C20.2991 100.406 21.9084 104.602 25.4196 108.856C27.4317 111.294 32.1763 114.352 35.6775 115.268M1.5256 54.4439C1.66072 60.1188 2.10605 65.6858 3.36383 71.2189C4.80431 77.5557 7.78224 84.1497 10.5251 90.0502C12.7836 94.9086 13.7261 100.286 16.6918 104.843C18.7811 108.053 22.1316 109.487 25.1958 111.608C28.0707 113.598 31.9299 114.582 35.6775 115.268M35.6775 115.268C36.2181 115.367 36.7563 115.46 37.2889 115.549M35.6775 115.268C36.0812 115.374 36.4684 115.451 36.8329 115.495C36.9835 115.514 37.1355 115.531 37.2889 115.549M37.2889 115.549C41.4652 116.019 46.6613 116.085 50.6831 115.268C55.704 114.249 61.369 115.091 66.4728 115.041C66.9945 115.036 67.5137 114.997 68.0309 114.937M37.2889 115.549C38.6874 115.782 40.0472 115.987 41.3088 116.202C43.8607 116.638 46.3401 116.858 48.9176 116.858C53.92 116.858 58.5112 116.786 63.4392 115.975C64.9982 115.718 66.5131 115.333 68.0309 114.937M68.0309 114.937C68.9492 114.697 69.8686 114.454 70.7994 114.233C71.7382 114.01 73.7327 114.017 74.5789 113.476C76.1703 112.459 77.841 112.488 79.4526 111.355C82.2028 109.423 85.2348 108.148 88.2864 106.857M68.0309 114.937C69.9774 114.708 71.8975 114.163 73.833 113.88C77.0516 113.409 79.2533 113.28 82.0138 111.179C83.3166 110.187 84.8602 109.729 86.1663 108.68C86.8928 108.096 87.5859 107.471 88.2864 106.857M88.2864 106.857C89.1209 106.125 89.9661 105.408 90.8908 104.792C94.8151 102.178 98.5799 98.6414 101.956 95.3008C106.488 90.8167 111.175 86.3185 114.264 80.6598C116.313 76.9082 117.59 72.4828 118.804 68.2184M88.2864 106.857C89.1051 106.511 89.9252 106.163 90.7416 105.802C93.1719 104.726 96.4081 103.732 98.3505 101.864C103.373 97.0337 107.212 91.3514 112.027 86.2133C113.7 84.4277 114.718 82.2079 116.005 80.1549C116.929 78.6811 116.87 76.7625 117.621 75.1568C118.675 72.9059 118.799 70.5979 118.804 68.2184M118.804 68.2184C118.806 66.902 118.773 65.5638 118.84 64.2013C119.046 60.0129 119.188 55.8698 119.188 51.6807C119.188 44.6758 115.947 38.5793 112.449 32.6727C111.641 31.3073 110.804 29.6263 109.867 27.9597M118.804 68.2184C119.212 66.7832 119.613 65.3663 120.033 63.9994C120.493 62.5046 121.426 60.1177 121.426 58.3449C121.426 56.0701 120.83 54.0341 120.555 51.8069C120.274 49.5234 120.065 47.1597 119.536 44.9156C119.251 43.7039 118.2 42.6617 117.746 41.4825C116.772 38.9565 115.762 34.1892 113.717 32.3445C112.356 31.1161 111.083 29.5601 109.867 27.9597M109.867 27.9597C108.828 26.5929 107.831 25.1938 106.855 23.9386C106.311 23.2391 105.646 22.5086 104.917 21.7918M109.867 27.9597C108.537 25.5942 107.005 23.2577 105.064 21.8939C105.016 21.8597 104.966 21.8257 104.917 21.7918" stroke="#C2000D" stroke-linecap="round" stroke-linejoin="round"/>
</svg>
