<svg width="142" height="188" viewBox="0 0 142 188" fill="none" xmlns="http://www.w3.org/2000/svg">
<path d="M0.5 0.5C5.5 16.6325 18.2317 28.6042 38.5324 40.1325C48.5175 45.8029 55.1035 48.0661 63.0661 56.3397C80.5649 74.5218 74.5109 94.0715 79.9424 118.715C85.0864 142.054 71.1912 164.823 90.425 179.008C105.278 189.963 134.673 188.201 137.559 182.428" stroke="#C2000D" stroke-linecap="round" stroke-linejoin="round"/>
<path d="M122.667 183.42C128.404 181.823 133.8 179.709 139.198 177.91" stroke="#C2000D" stroke-linecap="round" stroke-linejoin="round"/>
<path d="M125.181 177.886C129.377 177.235 133.794 176.872 137.947 175.949C138.341 175.862 138.615 175.506 139.03 175.431C139.539 175.338 140.237 175.184 140.555 174.866" stroke="#C2000D" stroke-linecap="round" stroke-linejoin="round"/>
</svg>
