<svg width="30" height="30" viewBox="0 0 30 30" fill="none" xmlns="http://www.w3.org/2000/svg">
<path d="M25 0C26.3261 0 27.5979 0.526784 28.5355 1.46447C29.4732 2.40215 30 3.67392 30 5V25C30 26.3261 29.4732 27.5979 28.5355 28.5355C27.5979 29.4732 26.3261 30 25 30H5C3.67392 30 2.40215 29.4732 1.46447 28.5355C0.526784 27.5979 0 26.3261 0 25V5C0 3.67392 0.526784 2.40215 1.46447 1.46447C2.40215 0.526784 3.67392 0 5 0L25 0ZM18.8875 5.625H11.125C7.9125 5.625 5.75 7.6875 5.625 10.825V18.8625C5.625 20.4875 6.15 21.875 7.2125 22.9C8.19076 23.8153 9.47308 24.3362 10.8125 24.3625L11.15 24.375H18.85C20.475 24.375 21.85 23.85 22.825 22.9C23.7978 21.9177 24.3493 20.5949 24.3625 19.2125L24.375 18.8875V11.125C24.375 9.525 23.85 8.175 22.8625 7.1875C21.8902 6.22258 20.5821 5.67156 19.2125 5.65L18.8875 5.6375V5.625ZM11.1375 7.375H18.9375C20.0625 7.375 21.0125 7.7 21.6875 8.375C22.275 9 22.65 9.85 22.7 10.8375V18.875C22.7 20.05 22.3 21 21.6125 21.6375C20.9875 22.225 20.15 22.5625 19.1375 22.6125H11.15C10.0125 22.6125 9.0625 22.2875 8.3875 21.6375C7.7625 21.0125 7.425 20.175 7.375 19.1375V11.1C7.375 9.975 7.7 9.025 8.375 8.35C9.05827 7.72571 9.94948 7.37813 10.875 7.375H18.9375H11.15H11.1375ZM15 10.125C13.7771 10.213 12.6329 10.7608 11.7976 11.6584C10.9623 12.5559 10.498 13.7364 10.498 14.9625C10.498 16.1886 10.9623 17.3691 11.7976 18.2666C12.6329 19.1642 13.7771 19.712 15 19.8C16.2229 19.712 17.3671 19.1642 18.2024 18.2666C19.0377 17.3691 19.502 16.1886 19.502 14.9625C19.502 13.7364 19.0377 12.5559 18.2024 11.6584C17.3671 10.7608 16.2229 10.213 15 10.125ZM15 11.8625C15.8202 11.869 16.6049 12.1977 17.1848 12.7777C17.7648 13.3576 18.0935 14.1424 18.1 14.9625C18.0935 15.7827 17.7648 16.5674 17.1848 17.1473C16.6049 17.7273 15.8202 18.056 15 18.0625C14.1798 18.056 13.3951 17.7273 12.8152 17.1473C12.2352 16.5674 11.9065 15.7827 11.9 14.9625C11.9065 14.1424 12.2352 13.3576 12.8152 12.7777C13.3951 12.1977 14.1798 11.869 15 11.8625ZM20.025 8.9125C19.7333 8.9125 19.4535 9.02839 19.2472 9.23468C19.0409 9.44097 18.925 9.72076 18.925 10.0125C18.925 10.3042 19.0409 10.584 19.2472 10.7903C19.4535 10.9966 19.7333 11.1125 20.025 11.1125C20.3167 11.1125 20.5965 10.9966 20.8028 10.7903C21.0091 10.584 21.125 10.3042 21.125 10.0125C21.125 9.72076 21.0091 9.44097 20.8028 9.23468C20.5965 9.02839 20.3167 8.9125 20.025 8.9125Z" fill="#363636"/>
</svg>
