<svg width="482" height="135" viewBox="0 0 482 135" fill="none" xmlns="http://www.w3.org/2000/svg">
<path d="M0.5 12.4999C9.05898 5.5 18.0935 -2.00008 28.5544 2.00008C39.0154 6.00023 51.7178 20.5415 65.3051 23.5269C85.142 27.8855 107.137 26.7744 127.29 25.5547C142.897 24.6102 158.533 24.1227 174.123 22.8993C186.416 21.9347 196.761 21.8774 208.651 25.6513C228.941 32.0909 245.846 40.7968 257.321 59.7375" stroke="#C2000D" stroke-linecap="round" stroke-linejoin="round"/>
<path d="M257.417 60.1372C262.173 67.1372 269.299 77.4012 275.397 81.8973C279.604 84.9994 283.632 88.2441 288.405 90.4058C297.804 94.6621 306.787 96.9626 316.919 97.9178C337.254 99.835 357.068 103.003 377.537 100.108C387.203 98.7404 396.939 95.784 405.533 90.8267C410.191 88.1395 413.929 85.0167 417.01 79.5246C420.034 74.1341 420.169 69.3306 420.713 64.1035C421.36 57.8793 422.221 51.9438 419.365 46.2582C416.133 39.8244 407.866 35.0525 400.929 35.8929C398.064 36.2401 395.112 37.515 392.39 38.4274C388.719 39.6578 384.951 40.8917 381.544 42.8317C377.03 45.4021 373.398 49.197 369.436 52.5437C367.918 53.826 365.118 56.8249 363.181 57.3112C362.057 57.5935 358.196 44.0305 357.505 42.6989C352.918 33.849 345.163 26.2754 335.524 25.3667C330.476 24.8907 325.263 26.7307 320.773 29.0781C316.371 31.3796 314.082 35.0003 311.683 39.3529C309.234 43.7975 308.413 48.5421 307.494 53.5454C306.379 59.6226 305.617 65.5522 307.422 71.6047C309.083 77.1739 312.082 82.3681 315.305 87.0512C319.656 93.3747 324.494 97.5529 330.333 102.174C345.444 114.133 365.494 118.85 383.472 122.977C403.315 127.532 423.362 130.503 443.638 131.757C449.449 132.117 455.456 132.798 461.279 132.423C466.48 132.089 470.131 130.028 474.479 127.383" stroke="#C2000D" stroke-linecap="round" stroke-linejoin="round"/>
</svg>
