<svg width="30" height="30" viewBox="0 0 30 30" fill="none" xmlns="http://www.w3.org/2000/svg">
<path d="M3.2491 0C1.4491 0 0 1.4491 0 3.2491V26.7509C0 28.5509 1.4491 30 3.2491 30H26.7509C28.5509 30 30 28.5509 30 26.7509V3.2491C30 1.4491 28.5509 0 26.7509 0H3.2491ZM15.8326 7.98059C16.1058 7.97929 16.461 8.02797 16.6855 8.18366C16.851 8.29844 17.0686 8.43127 17.0713 8.94855C17.0801 10.6409 17.0596 12.115 17.0848 13.8425C17.1178 14.2021 17.3515 14.3513 17.5722 14.3502C17.7929 14.3491 18.0462 14.2111 18.2356 14.0253C19.2611 13.0184 20.4426 10.5967 21.1665 9.00947C21.4367 8.41714 21.8726 8.45514 22.3646 8.45442C24.0118 8.452 24.6788 8.47283 26.2229 8.48149C26.5057 8.48301 26.7521 8.72187 26.8321 8.8944C26.9012 9.04339 26.9508 9.47498 26.5749 10.0857C25.4186 11.9646 24.3556 13.4777 23.0686 15.264C22.9874 15.3767 22.9103 15.511 22.9129 15.6498C22.9153 15.7768 22.9811 15.903 23.0686 15.995C24.2161 17.2021 25.4139 18.4168 26.5884 19.745C26.9345 20.1364 26.7172 20.7401 26.6223 20.9093C26.5504 21.0375 26.2255 21.3678 26.0063 21.3696C25.2081 21.376 25.2061 21.3696 21.8637 21.3696C21.3687 21.3696 21.1712 21.225 20.9093 20.9499C19.7504 19.7325 19.8932 19.8795 18.6214 18.5199C18.4562 18.3432 18.1287 18.1212 17.8159 18.2626C17.5504 18.3826 17.0645 18.5597 17.0645 19.0478C17.0645 19.5686 17.0645 20.2372 17.0645 20.7536C17.0645 21.0634 16.5784 21.2951 16.2861 21.2951C15.5961 21.2951 15.0453 21.2951 14.0117 21.2951C12.941 21.2951 12.0142 21.0369 11.5005 20.7875C9.28695 19.7126 7.97098 18.2156 6.53204 15.7243C5.30331 13.5969 4.23414 11.5024 3.18141 9.30731C3.06379 9.06207 2.98022 8.52211 3.8583 8.52211C4.78597 8.52211 5.65596 8.50181 7.06679 8.50181C7.48096 8.50181 7.73856 8.58521 7.91291 8.71165C8.08725 8.8381 8.17299 9.00665 8.25812 9.16517C10.0134 12.4335 10.0173 12.6335 11.2703 14.2554C11.3879 14.4077 11.5576 14.4307 11.6832 14.4314C11.8385 14.4323 11.9821 14.4071 12.1029 14.3096C12.3566 14.1049 12.4278 13.8857 12.4278 13.5718C12.4278 12.4715 12.4278 11.6495 12.4278 10.2685C12.4278 9.88976 12.1712 9.32828 11.8863 9.15163C11.5911 8.9817 11.1059 8.81334 11.1214 8.60335C11.1384 8.37367 11.6729 7.98737 12.6241 7.98737C13.7614 7.98737 14.5674 7.98651 15.8326 7.98062V7.98059Z" fill="#363636"/>
</svg>
