<svg width="30" height="30" viewBox="0 0 30 30" fill="none" xmlns="http://www.w3.org/2000/svg">
<path d="M25 0C26.3261 0 27.5979 0.526784 28.5355 1.46447C29.4732 2.40215 30 3.67392 30 5V25C30 26.3261 29.4732 27.5979 28.5355 28.5355C27.5979 29.4732 26.3261 30 25 30H5C3.67392 30 2.40215 29.4732 1.46447 28.5355C0.526784 27.5979 0 26.3261 0 25V5C0 3.67392 0.526784 2.40215 1.46447 1.46447C2.40215 0.526784 3.67392 0 5 0L25 0ZM20 9.1V5.625H17.1375C14.5125 5.625 12.8625 7.625 12.8625 10.4875V12.575H10V16.0375H12.8625V24.375H16.425V16.0375H19.2875L20 12.575H16.425V11.175C16.425 9.8 17.15 9.1 18.575 9.1H20Z" fill="#363636"/>
</svg>
