<svg width="533" height="125" viewBox="0 0 533 125" fill="none" xmlns="http://www.w3.org/2000/svg">
<path d="M6.06305 65.5009C5.9187 65.2517 5.57434 65.1599 5.32512 65.3043C5.07591 65.4486 4.98415 65.793 5.1285 66.0422C8.25003 71.4315 7.00242 72.6533 7.00242 72.6533C6.7647 72.8534 6.7418 73.1371 6.8681 73.3552C7.02147 73.62 7.35682 73.6961 7.62161 73.5428C8.02658 73.3082 9.60861 71.6222 6.06305 65.5009ZM8.71944 65.4184C8.51695 65.5357 8.40222 65.7685 8.4572 66.0071C8.69516 66.9926 9.18565 68.0189 9.65478 68.8289C10.3585 70.0438 11.4688 71.3144 12.7461 70.5746C13.2601 70.2769 13.4633 69.9096 13.4986 69.8267C13.5846 69.6521 13.5567 69.4602 13.4755 69.3201C13.3221 69.0553 12.9868 68.9791 12.7532 69.1144C12.4572 69.2858 12.6409 69.3875 12.2048 69.6401C11.9244 69.8025 11.3472 69.596 10.5893 68.2876C10.1563 67.5399 9.71993 66.607 9.52299 65.7642C9.5115 65.7085 9.48443 65.6617 9.45737 65.615C9.32204 65.3814 8.9998 65.256 8.71944 65.4184ZM3.45602 66.3869C3.48717 66.3689 3.5093 66.3352 3.54045 66.3172C4.8799 65.1461 6.62763 63.9258 8.79268 62.6718C9.04189 62.5274 9.13365 62.1831 8.9893 61.9339C8.84495 61.6846 8.50059 61.5929 8.25137 61.7372C6.05518 63.0093 4.24514 64.2657 2.83028 65.5221C2.63928 65.6951 2.59178 65.9722 2.71809 66.1903C2.88048 66.4706 3.22238 66.5222 3.45602 66.3869Z" fill="#C2000D"/>
<path d="M14.2363 63.8529C14.0813 63.9446 13.9785 64.089 13.968 64.2834C13.9323 65.0364 14.1219 65.7816 14.4975 66.4169C15.2853 67.7494 16.8633 68.1548 18.1958 67.3669C19.8227 66.4051 20.5527 64.2797 19.5542 62.5908C18.8121 61.3358 17.3575 60.9621 16.1024 61.7041C15.6531 61.9698 14.6537 62.7906 15.011 63.3949C15.1667 63.6583 15.5182 63.7223 15.7507 63.5849C15.8436 63.53 15.9274 63.4595 15.9683 63.3517C16.0936 63.0685 16.3422 62.817 16.6521 62.6338C17.4113 62.1849 18.1756 62.3813 18.6245 63.1405C19.2749 64.2406 18.8082 65.7502 17.6462 66.4373C16.8095 66.932 15.9219 66.7039 15.4272 65.8672C15.1615 65.4179 15.0198 64.8953 15.0542 64.3522C15.0549 64.2472 15.0309 64.1359 14.9759 64.043C14.8385 63.8105 14.4997 63.6972 14.2363 63.8529Z" fill="#C2000D"/>
<path d="M27.6074 67.0343C27.2615 66.4442 27.1099 65.2603 27.1966 64.0201C27.7118 64.365 28.1857 64.8174 28.5498 65.4385C28.9594 66.1373 28.8433 66.9357 28.3464 67.227C28.0513 67.4 27.7804 67.3293 27.6074 67.0343ZM25.0477 57.6851C24.9839 57.5764 24.8736 57.495 24.7414 57.4473C24.1229 57.2465 23.4921 57.3451 22.9486 57.6637C21.6132 58.4466 21.202 60.023 21.9849 61.3584C22.8679 62.8647 24.7715 62.9798 26.146 63.5093C26.0106 64.9867 26.0658 66.5401 26.6757 67.5805C27.14 68.3724 28.1006 68.623 28.8926 68.1587C30.1038 67.4487 30.0732 65.9017 29.4815 64.8923C28.908 63.9141 28.1241 63.2887 27.3289 62.8576C27.4247 62.2381 27.5634 61.656 27.7256 61.1853C27.7797 61.0285 27.7444 60.8614 27.6715 60.7372C27.5168 60.4732 27.181 60.3988 26.9326 60.5444C26.8239 60.6081 26.7334 60.7029 26.6857 60.8352C26.5235 61.3059 26.4068 61.8542 26.2992 62.418C26.0346 62.3227 25.7637 62.252 25.5174 62.1878C24.2612 61.8601 23.3171 61.4955 22.9166 60.8122C22.425 59.9737 22.6563 59.087 23.4948 58.5954C23.8209 58.4042 24.1176 58.3764 24.4223 58.469C24.5701 58.5075 24.7307 58.4968 24.8549 58.424C25.1189 58.2692 25.1933 57.9335 25.0477 57.6851Z" fill="#C2000D"/>
<path d="M36.639 54.7864C36.2155 55.0249 36.4648 55.5042 35.9472 55.7957C35.2885 56.1666 33.9905 54.5219 33.1515 53.0319C33.0101 52.781 32.6669 52.685 32.416 52.8264C32.165 52.9677 32.0916 53.2776 32.1751 53.4991C32.3007 53.7589 33.626 57.1028 32.0262 58.0037C31.2106 58.463 30.4888 58.2084 29.9766 57.2987C29.4025 56.2792 29.4798 56.0497 29.3385 55.7988C29.206 55.5635 28.8854 55.4342 28.603 55.5932C28.4148 55.6992 28.3041 55.9061 28.3405 56.1542C28.3602 56.2258 28.4703 56.8248 29.0355 57.8286C29.7597 59.1147 31.1759 59.722 32.5561 58.9448C33.7324 58.2823 33.9701 57.0536 33.9098 55.9927C34.5288 56.6151 35.4891 57.2932 36.4772 56.7367C37.2771 56.2863 37.3963 55.4342 37.4168 55.3606C37.4354 55.2469 37.4207 55.1106 37.3588 55.0008C37.2263 54.7655 36.89 54.6451 36.639 54.7864ZM25.3543 48.7235C25.5044 48.9901 25.8388 49.0703 26.0898 48.929L26.1211 48.9114C27.6032 47.9115 28.9971 47.0853 30.0794 46.4758C30.3303 46.3345 30.4262 45.9913 30.2849 45.7404C30.1436 45.4894 29.8004 45.3935 29.5494 45.5348C28.4358 46.1619 27.0419 46.9881 25.5285 48.0056C25.2864 48.1626 25.2218 48.4882 25.3543 48.7235Z" fill="#C2000D"/>
<path d="M47.3212 49.1486C46.8888 49.3706 47.1194 49.8592 46.591 50.1305C45.9185 50.4758 44.6848 48.7823 43.9038 47.2611C43.7723 47.0049 43.433 46.8958 43.1768 47.0273C42.9206 47.1589 42.8353 47.4657 42.9101 47.6903C43.0257 47.9547 44.2211 51.3472 42.5878 52.1858C41.7551 52.6133 41.0437 52.3311 40.5669 51.4023C40.0325 50.3615 40.1186 50.1352 39.9871 49.879C39.8638 49.6388 39.5483 49.4972 39.2601 49.6452C39.0679 49.7439 38.9493 49.9464 38.9761 50.1957C38.993 50.2679 39.0799 50.8708 39.6061 51.8956C40.2802 53.2087 41.6719 53.87 43.0811 53.1466C44.282 52.53 44.5669 51.3113 44.5475 50.2489C45.1421 50.8946 46.0755 51.6092 47.0843 51.0913C47.9009 50.672 48.0529 49.8251 48.0763 49.7524C48.0992 49.6394 48.0897 49.5027 48.0322 49.3906C47.9089 49.1504 47.5774 49.0171 47.3212 49.1486Z" fill="#C2000D"/>
<path d="M52.6454 42.6885C52.3925 42.1312 51.5119 42.4123 51.0366 42.628C49.3975 43.372 48.793 45.5243 49.4998 47.0814C50.1024 48.409 51.5083 48.9371 52.836 48.3345C53.7375 47.9254 54.4439 47.3478 55.164 46.1907C55.2669 46.0254 55.2655 45.8481 55.1911 45.6842C55.0647 45.4055 54.7221 45.3041 54.4762 45.4156C54.3779 45.4603 54.2944 45.5377 54.2348 45.6241C53.5832 46.671 53.1272 47.0163 52.3896 47.3511C51.5865 47.7156 50.8477 47.4381 50.4832 46.635C49.9996 45.5696 50.4995 44.0578 51.4829 43.6115C51.778 43.4776 51.9165 43.4344 52.1415 43.451C52.2219 43.454 52.3113 43.4332 52.3769 43.4034C52.6227 43.2918 52.7793 42.9835 52.6454 42.6885Z" fill="#C2000D"/>
<path d="M61.6203 41.3236C61.6969 41.5062 61.7333 41.6861 61.7627 41.8494C61.6149 42.009 61.4505 42.1755 61.2347 42.266C60.7035 42.4887 60.2795 42.3152 60.0567 41.784C59.9106 41.4354 60.0937 40.9878 60.4423 40.8416C60.9735 40.6189 61.3976 40.7924 61.6203 41.3236ZM63.8267 37.2756C63.6607 37.3452 63.5295 37.4978 63.5022 37.6654C63.5091 37.682 63.1417 39.3194 62.4953 40.664C61.9894 39.7831 60.9709 39.4489 60.0247 39.8456C59.1117 40.2284 58.6779 41.2886 59.0607 42.2016C59.4505 43.1312 60.3779 43.6207 61.33 43.3776C61.1297 43.5982 60.8754 43.783 60.56 43.9152C59.3648 44.4163 58.1921 43.854 57.6632 42.5924C57.162 41.3972 57.2274 40.2963 57.3452 39.7394C57.3602 39.6356 57.3517 39.522 57.3099 39.4224C57.2055 39.1734 56.8853 39.0149 56.6031 39.1333C56.4371 39.2029 56.3156 39.3319 56.2786 39.5231C56.1501 40.2406 56.0547 41.5493 56.6672 43.01C57.391 44.7364 59.1848 45.6629 60.9776 44.9112C62.1562 44.417 62.8668 43.3188 62.8781 42.182C63.3681 41.4886 63.6958 40.6876 63.9738 39.9074C64.0129 40.0472 64.1034 40.263 64.1799 40.4456C64.6671 41.6076 65.7477 42.4622 67.1329 42.1351L67.2159 42.1003C67.4649 41.9959 67.6304 41.6923 67.5051 41.3935C67.4077 41.1611 67.1442 40.9984 66.8813 41.0696C66.1354 41.2457 65.5239 40.858 65.1759 40.028C64.7861 39.0984 64.7182 38.4242 64.5587 37.6713C64.5447 37.6381 64.5474 37.598 64.5335 37.5648C64.4291 37.3158 64.1255 37.1503 63.8267 37.2756Z" fill="#C2000D"/>
<path d="M71.3033 35.9935C71.5149 35.8937 71.6249 35.6627 71.5979 35.4367C71.5651 35.1138 71.7823 34.7726 72.0591 34.6421C72.5475 34.4118 73.042 34.6164 73.3337 35.2351C73.8711 36.3748 73.0851 38.3374 71.8803 38.9055C71.3756 39.1435 70.2555 38.8359 69.196 36.5891C67.0542 32.0468 67.3766 30.2828 67.8976 30.0371C68.1744 29.9066 68.7024 30.0557 69.0095 30.7069C69.4624 31.6675 69.1954 32.072 69.1868 32.0959C69.0701 32.2704 69.0492 32.4792 69.1259 32.642C69.2641 32.9351 69.6004 33.0153 69.8447 32.9002C69.9098 32.8695 69.9835 32.8148 70.0333 32.7515C70.1491 32.6173 70.6926 31.7441 69.9863 30.2463C69.5257 29.2694 68.4627 28.5766 67.437 29.0603C65.6787 29.8894 66.2155 32.8005 68.2192 37.0498C69.3093 39.3616 70.892 40.5656 72.341 39.8824C74.0667 39.0686 75.155 36.5654 74.3106 34.7745C73.8346 33.7651 72.7381 33.1279 71.5985 33.6652C70.8984 33.9954 70.4458 34.766 70.548 35.5735C70.5548 35.63 70.5615 35.6866 70.5845 35.7354C70.6997 35.9796 71.0102 36.1317 71.3033 35.9935Z" fill="#C2000D"/>
<path d="M81.2558 30.5926C81.232 30.5441 81.1921 30.5035 81.1521 30.463C80.5849 29.8792 79.7003 29.752 79.0055 30.093C77.2281 30.9655 76.5164 33.6007 77.3572 35.3135C77.8013 36.2184 78.7952 36.8133 79.8455 36.2978C80.8796 35.7901 81.6115 34.7892 82.063 33.585C82.3741 33.9737 83.0287 34.7352 83.5619 34.4735C83.8366 34.3387 83.9277 33.9932 83.8087 33.7508C83.7611 33.6539 83.6812 33.5728 83.5931 33.5158C83.1521 33.271 82.737 32.793 82.3722 32.0498C82.2611 31.8235 81.9241 31.6681 81.6495 31.803C81.504 31.8743 81.4065 32.0024 81.3651 32.1631C81.0072 33.7625 80.2906 34.8762 79.3696 35.3283C78.9656 35.5265 78.5963 35.387 78.3267 34.8376C77.7397 33.6419 78.3503 31.6177 79.4814 31.0625C79.7561 30.9277 80.1582 30.9709 80.39 31.198C80.5498 31.3602 80.799 31.4184 81.009 31.3152C81.2999 31.1725 81.3748 30.8349 81.2558 30.5926Z" fill="#C2000D"/>
<path d="M93.2645 29.416C92.8064 29.5782 92.9697 30.0933 92.4097 30.2915C91.6971 30.5438 90.7008 28.7007 90.1301 27.0887C90.034 26.8172 89.7123 26.6638 89.4408 26.7599C89.1693 26.856 89.0438 27.1487 89.088 27.3813C89.1671 27.6588 89.8985 31.1806 88.1677 31.7934C87.2854 32.1058 86.6181 31.731 86.2696 30.7469C85.8791 29.644 85.9948 29.4312 85.8986 29.1597C85.8085 28.9052 85.5148 28.7227 85.2094 28.8309C85.0058 28.903 84.8612 29.0878 84.8544 29.3384C84.8615 29.4123 84.8671 30.0214 85.2516 31.1073C85.7442 32.4987 87.035 33.3401 88.5282 32.8115C89.8008 32.3609 90.2459 31.1913 90.3687 30.1358C90.8716 30.8552 91.7012 31.6881 92.7702 31.3096C93.6355 31.0032 93.8993 30.1842 93.9322 30.1153C93.97 30.0064 93.9789 29.8696 93.9368 29.7509C93.8467 29.4963 93.536 29.3199 93.2645 29.416ZM83.2877 20.7064C83.3297 20.8252 83.4227 20.9259 83.5206 20.9867C84.4537 21.5729 85.3463 21.5051 85.9741 21.2829C86.9583 20.9344 87.7982 20.1788 88.2914 19.1449C88.3572 19.007 88.3661 18.8702 88.318 18.7345C88.2219 18.463 87.9002 18.3096 87.6287 18.4057C87.493 18.4537 87.3922 18.5467 87.3265 18.6845C86.9429 19.4887 86.3263 20.0125 85.6137 20.2648C85.2234 20.403 84.7062 20.4524 84.0728 20.0656C83.929 19.9829 83.7692 19.9631 83.6165 20.0171C83.328 20.1193 83.1916 20.4349 83.2877 20.7064Z" fill="#C2000D"/>
<path d="M109.073 22.6033C108.939 22.6556 108.841 22.7516 108.78 22.8915C108.616 23.2644 108.464 23.4202 108.095 23.564C107.257 23.8909 106.247 22.0435 105.411 20.1475C105.29 19.8857 104.987 19.7527 104.719 19.8573C104.484 19.9488 104.348 20.195 104.383 20.4326C104.648 22.2032 104.761 24.4772 103.437 24.9936C102.665 25.2944 102.027 24.8475 101.609 23.7742C101.354 23.1201 101.266 22.8452 101.145 22.1389C101.132 22.1053 101.136 22.0652 101.123 22.0317C101.025 21.7801 100.725 21.607 100.424 21.7247C100.189 21.8162 100.059 22.0791 100.088 22.3C100.298 23.8796 100.245 26.8173 98.9368 27.3272C98.266 27.5887 97.7998 27.384 97.5383 26.7132C97.2049 25.8579 97.071 25.118 97.0208 23.9977C97.0179 23.9409 97.0151 23.884 96.9955 23.8337C96.8974 23.5822 96.5981 23.409 96.2962 23.5267C96.0782 23.6117 95.9526 23.8345 95.9639 24.0619C96.0273 25.2157 96.1463 26.1159 96.532 27.1054C96.9897 28.2794 98.1551 28.7911 99.329 28.3335C100.604 27.8366 101.03 26.4532 101.192 25.2312C101.787 25.9652 102.739 26.4248 103.829 25.9999C105.137 25.49 105.539 24.1933 105.634 22.9974C106.234 23.942 107.196 25.0736 108.488 24.5703C109.125 24.3218 109.513 23.8807 109.759 23.3213C109.82 23.1814 109.825 23.0444 109.773 22.9103C109.668 22.6419 109.342 22.4987 109.073 22.6033ZM103.227 13.076C103.116 12.7909 102.796 12.6644 102.528 12.769L102.494 12.7821C99.047 14.3962 98.8011 14.608 93.7698 16.5692C93.5015 16.6738 93.3582 17.0001 93.4628 17.2684C93.5674 17.5368 93.8937 17.68 94.1621 17.5754C99.1933 15.6143 99.5399 15.3633 102.953 13.7622C103.215 13.6408 103.325 13.3276 103.227 13.076Z" fill="#C2000D"/>
<path d="M115.749 22.4822C116.492 22.2646 117.095 21.9564 117.879 21.239C118.027 21.102 118.092 20.8766 118.036 20.6866C117.945 20.3756 117.625 20.2443 117.366 20.3202C117.297 20.3404 117.216 20.383 117.157 20.4378C116.466 21.0903 116.084 21.2585 115.445 21.4458C115.169 21.5268 114.912 21.5458 114.679 21.5202C115.725 20.801 116.519 19.3493 116.139 18.0537C115.856 17.0864 114.873 16.5491 113.906 16.8325C112.369 17.283 111.7 18.9045 112.125 20.3555C112.606 21.9965 114.091 22.9681 115.749 22.4822ZM115.103 18.3574C115.356 19.2211 114.52 20.5916 113.57 20.87C113.395 20.6585 113.257 20.38 113.161 20.0518C112.878 19.0845 113.329 18.1271 114.21 17.8689C114.624 17.7474 114.982 17.9428 115.103 18.3574Z" fill="#C2000D"/>
<path d="M123.984 14.873C123.836 14.2792 122.919 14.3961 122.412 14.5222C120.666 14.9571 119.681 16.9643 120.095 18.6236C120.447 20.0384 121.734 20.8124 123.149 20.4602C124.109 20.2211 124.909 19.781 125.827 18.7734C125.958 18.6295 125.988 18.4549 125.945 18.2802C125.871 17.9833 125.552 17.8214 125.29 17.8866C125.186 17.9127 125.09 17.9738 125.015 18.0479C124.185 18.9595 123.674 19.2166 122.888 19.4122C122.032 19.6253 121.356 19.2186 121.143 18.3627C120.86 17.2274 121.625 15.8311 122.673 15.5702C122.988 15.492 123.132 15.4747 123.35 15.5316C123.429 15.5492 123.52 15.5449 123.59 15.5275C123.852 15.4623 124.062 15.1875 123.984 14.873Z" fill="#C2000D"/>
<path d="M132.337 17.377C131.17 17.5973 130.206 16.955 129.859 15.7933C130.409 15.5062 131.072 15.2345 131.726 15.111C132.682 14.9307 133.402 15.2527 133.519 15.8717C133.655 16.5969 133.169 17.2201 132.337 17.377ZM128.899 16.3407C129.452 17.8117 130.875 18.7521 132.538 18.4382C133.829 18.1945 134.844 17.0688 134.58 15.6714C134.296 14.168 132.693 13.8294 131.526 14.0497C130.872 14.1732 130.241 14.4206 129.701 14.6689C129.682 13.5002 130.037 12.6638 130.066 12.6218C130.102 12.5233 130.118 12.4105 130.098 12.3044C130.047 12.0391 129.785 11.8138 129.484 11.8706C129.308 11.904 129.165 12.0224 129.082 12.1663C129.028 12.2681 128.475 13.5083 128.65 15.2153C128.025 15.5898 127.628 15.7197 127.725 16.2326C127.785 16.551 128.09 16.7132 128.356 16.6631C128.639 16.6097 128.572 16.5489 128.899 16.3407Z" fill="#C2000D"/>
<path d="M150.695 13.1679C150.216 13.2506 150.291 13.7858 149.705 13.8868C148.96 14.0154 148.289 12.0308 147.998 10.3457C147.949 10.0619 147.658 9.85644 147.374 9.90544C147.09 9.95444 146.917 10.2218 146.921 10.4585C146.953 10.7454 147.08 14.3401 145.271 14.6525C144.349 14.8117 143.754 14.3299 143.576 13.3011C143.377 12.1481 143.527 11.9579 143.478 11.6741C143.432 11.408 143.173 11.1787 142.854 11.2338C142.641 11.2706 142.467 11.4284 142.419 11.6743C142.413 11.7483 142.316 12.3496 142.512 13.4848C142.763 14.9393 143.894 15.9862 145.455 15.7167C146.785 15.487 147.421 14.4091 147.72 13.3894C148.094 14.1832 148.772 15.144 149.889 14.9511C150.794 14.7949 151.192 14.032 151.236 13.9696C151.291 13.8687 151.323 13.7354 151.302 13.6112C151.256 13.3451 150.979 13.1189 150.695 13.1679Z" fill="#C2000D"/>
<path d="M164.083 18.5091C164.081 17.5731 164.601 16.4383 165.409 15.339C165.482 15.9688 165.519 16.5628 165.52 17.0668C165.522 18.4168 164.858 19.0479 164.444 19.0486C164.318 19.0488 164.083 18.8691 164.083 18.5091ZM163.003 18.5109C163.004 19.2309 163.491 20.1301 164.445 20.1286C165.831 20.1263 166.603 18.595 166.6 17.065C166.599 16.219 166.489 15.1572 166.362 14.2034C167.134 13.3561 168.033 12.5806 168.698 12.1115C168.842 12.0033 168.932 11.8412 168.931 11.6612C168.931 11.3552 168.66 11.1216 168.39 11.122C168.282 11.1222 168.174 11.1404 168.085 11.2125C167.509 11.6095 166.844 12.1866 166.161 12.8537C165.87 11.1262 165.508 9.45279 165.308 8.49912C165.254 8.24721 165.037 8.06756 164.785 8.06798C164.479 8.06848 164.264 8.32084 164.246 8.59086C164.177 10.337 162.975 12.391 161.913 12.3927C160.977 12.3943 160.472 11.8191 160.47 10.7751C160.469 10.2531 160.487 9.96506 160.629 9.26282C160.629 9.22682 160.647 9.19079 160.647 9.15479C160.647 8.88479 160.43 8.61515 160.106 8.61568C159.422 8.61681 159.389 9.96687 159.39 10.6149L159.39 10.7769C159.392 12.2529 160.33 13.4753 161.914 13.4727C163.264 13.4705 164.198 12.2809 164.736 11.0741C164.9 11.9198 165.081 12.9275 165.227 13.8633C164.095 15.1971 163 16.8729 163.003 18.5109Z" fill="#C2000D"/>
<path d="M172.331 7.52781C172.169 7.52781 172.007 7.59981 171.899 7.72581C171.845 7.79781 171.413 8.31981 171.413 9.14781C171.413 10.0658 172.115 10.7678 173.033 10.7678C173.555 10.7678 174.041 10.6418 174.419 10.4798C174.185 11.1998 174.113 11.7578 174.113 12.2078C174.113 13.0358 174.707 14.0078 175.733 14.0078C176.291 14.0078 176.777 13.7198 177.191 13.3058C177.299 13.1978 177.353 13.0718 177.353 12.9278C177.353 12.6398 177.101 12.3878 176.813 12.3878C176.669 12.3878 176.543 12.4418 176.435 12.5498C176.129 12.8558 175.895 12.9278 175.733 12.9278C175.499 12.9278 175.193 12.6398 175.193 12.2078C175.193 11.5958 175.337 10.6238 176.381 8.87781C176.435 8.80581 176.453 8.69781 176.453 8.60781C176.453 8.33781 176.237 8.06781 175.913 8.06781C175.751 8.06781 175.607 8.13981 175.481 8.28381C175.427 8.35581 174.473 9.68781 173.033 9.68781C172.691 9.68781 172.493 9.48981 172.493 9.14781C172.493 8.49981 172.853 8.49981 172.853 8.06781C172.853 7.79781 172.637 7.52781 172.331 7.52781Z" fill="#C2000D"/>
<path d="M184.962 9.50781C184.962 9.45381 184.944 9.39981 184.926 9.34581C184.674 8.57181 183.936 8.06781 183.162 8.06781C181.182 8.06781 179.382 10.1198 179.382 12.0278C179.382 13.0358 180.012 14.0078 181.182 14.0078C182.334 14.0078 183.432 13.4318 184.368 12.5498C184.476 13.0358 184.728 14.0078 185.322 14.0078C185.628 14.0078 185.862 13.7378 185.862 13.4678C185.862 13.3598 185.826 13.2518 185.772 13.1618C185.484 12.7478 185.322 12.1358 185.322 11.3078C185.322 11.0558 185.088 10.7678 184.782 10.7678C184.62 10.7678 184.476 10.8398 184.368 10.9658C183.342 12.2438 182.208 12.9278 181.182 12.9278C180.732 12.9278 180.462 12.6398 180.462 12.0278C180.462 10.6958 181.902 9.14781 183.162 9.14781C183.468 9.14781 183.81 9.36381 183.918 9.66981C183.99 9.88581 184.188 10.0478 184.422 10.0478C184.746 10.0478 184.962 9.77781 184.962 9.50781Z" fill="#C2000D"/>
<path d="M193.127 8.78781C193.127 8.17581 192.209 8.06781 191.687 8.06781C189.887 8.06781 188.447 9.77781 188.447 11.4878C188.447 12.9458 189.509 14.0078 190.967 14.0078C191.957 14.0078 192.839 13.7738 193.973 13.0178C194.135 12.9098 194.207 12.7478 194.207 12.5678C194.207 12.2618 193.937 12.0278 193.667 12.0278C193.559 12.0278 193.451 12.0638 193.361 12.1178C192.335 12.8018 191.777 12.9278 190.967 12.9278C190.085 12.9278 189.527 12.3698 189.527 11.4878C189.527 10.3178 190.607 9.14781 191.687 9.14781C192.011 9.14781 192.155 9.16581 192.353 9.27381C192.425 9.30981 192.515 9.32781 192.587 9.32781C192.857 9.32781 193.127 9.11181 193.127 8.78781Z" fill="#C2000D"/>
<path d="M209.801 12.2078C209.657 12.2078 209.531 12.2618 209.423 12.3698C209.135 12.6578 208.937 12.7478 208.541 12.7478C207.641 12.7478 207.371 10.6598 207.281 8.58981C207.263 8.30181 207.029 8.06781 206.741 8.06781C206.489 8.06781 206.273 8.24781 206.219 8.48181C205.823 10.2278 205.103 12.3878 203.681 12.3878C202.853 12.3878 202.421 11.7398 202.421 10.5878C202.421 9.88581 202.439 9.59781 202.583 8.89581C202.583 8.85981 202.601 8.82381 202.601 8.78781C202.601 8.51781 202.385 8.24781 202.061 8.24781C201.809 8.24781 201.593 8.44581 201.539 8.66181C201.161 10.2098 200.045 12.9278 198.641 12.9278C197.921 12.9278 197.561 12.5678 197.561 11.8478C197.561 10.9298 197.705 10.1918 198.065 9.12981C198.083 9.07581 198.101 9.02181 198.101 8.96781C198.101 8.69781 197.885 8.42781 197.561 8.42781C197.327 8.42781 197.129 8.58981 197.057 8.80581C196.697 9.90381 196.481 10.7858 196.481 11.8478C196.481 13.1078 197.381 14.0078 198.641 14.0078C200.009 14.0078 200.909 12.8738 201.503 11.7938C201.791 12.6938 202.511 13.4678 203.681 13.4678C205.085 13.4678 205.931 12.4058 206.453 11.3258C206.669 12.4238 207.155 13.8278 208.541 13.8278C209.225 13.8278 209.747 13.5578 210.179 13.1258C210.287 13.0178 210.341 12.8918 210.341 12.7478C210.341 12.4598 210.089 12.2078 209.801 12.2078ZM207.814 1.20781C207.814 0.901812 207.562 0.667812 207.274 0.667812H207.238C203.44 0.919811 203.134 1.02781 197.734 1.02781C197.446 1.02781 197.194 1.27981 197.194 1.56781C197.194 1.85581 197.446 2.10781 197.734 2.10781C203.134 2.10781 203.548 1.99981 207.31 1.74781C207.598 1.72981 207.814 1.47781 207.814 1.20781Z" fill="#C2000D"/>
<path d="M216.826 10.5024C217.059 10.5269 217.272 10.3865 217.367 10.1793C217.506 9.88627 217.869 9.70729 218.173 9.73936C218.71 9.79595 219.027 10.2275 218.955 10.9077C218.823 12.1608 217.133 13.4306 215.808 13.2911C215.253 13.2326 214.455 12.3883 214.715 9.918C215.242 4.92365 216.433 3.58308 217.006 3.64344C217.31 3.67551 217.684 4.07691 217.608 4.79294C217.497 5.8491 217.059 6.05633 217.039 6.07234C216.849 6.16088 216.723 6.32858 216.704 6.50758C216.67 6.8298 216.916 7.0729 217.184 7.1012C217.256 7.10874 217.347 7.10027 217.423 7.07202C217.591 7.01739 218.509 6.553 218.683 4.90612C218.796 3.83206 218.247 2.68822 217.119 2.56939C215.185 2.36567 214.134 5.13269 213.641 9.80483C213.374 12.3468 214.102 14.1972 215.695 14.3651C217.592 14.5651 219.822 12.99 220.029 11.0209C220.146 9.91105 219.539 8.79734 218.286 8.66531C217.517 8.5842 216.73 9.00809 216.398 9.75142C216.375 9.80324 216.351 9.85505 216.345 9.90875C216.317 10.1773 216.504 10.4684 216.826 10.5024Z" fill="#C2000D"/>
<path d="M225.29 20.4453C225.508 19.5351 226.28 18.5541 227.324 17.6753C227.247 18.3047 227.143 18.8907 227.026 19.3808C226.711 20.6936 225.916 21.1509 225.514 21.0544C225.391 21.025 225.206 20.7954 225.29 20.4453ZM224.239 20.1934C224.071 20.8935 224.334 21.8821 225.262 22.1046C226.61 22.4278 227.719 21.1205 228.076 19.6327C228.273 18.8101 228.416 17.7522 228.516 16.7951C229.466 16.1529 230.522 15.6102 231.278 15.3104C231.444 15.239 231.569 15.1025 231.611 14.9274C231.682 14.6299 231.474 14.3393 231.212 14.2764C231.107 14.2512 230.997 14.2435 230.893 14.2925C230.241 14.5433 229.459 14.948 228.638 15.4361C228.761 13.6886 228.802 11.9768 228.832 11.003C228.838 10.7453 228.67 10.5199 228.425 10.4611C228.127 10.3898 227.858 10.5844 227.778 10.8428C227.301 12.5238 225.649 14.238 224.617 13.9903C223.706 13.772 223.351 13.0943 223.594 12.0791C223.716 11.5715 223.801 11.2956 224.104 10.6466C224.113 10.6116 224.139 10.5808 224.147 10.5458C224.21 10.2832 224.063 9.97028 223.748 9.89471C223.083 9.73518 222.733 11.0396 222.582 11.6697L222.544 11.8272C222.2 13.2625 222.824 14.6711 224.365 15.0405C225.677 15.3554 226.865 14.4184 227.671 13.3716C227.631 14.2321 227.571 15.2543 227.493 16.198C226.08 17.2288 224.621 18.6006 224.239 20.1934Z" fill="#C2000D"/>
<path d="M241.411 18.9199C240.951 18.7626 240.759 19.2678 240.197 19.0756C239.482 18.831 239.845 16.7675 240.398 15.1495C240.491 14.877 240.334 14.557 240.062 14.4638C239.789 14.3706 239.509 14.5221 239.399 14.7319C239.289 14.9986 237.676 18.2137 235.939 17.6196C235.053 17.3168 234.763 16.6087 235.101 15.6209C235.479 14.5138 235.702 14.4187 235.795 14.1462C235.882 13.8907 235.765 13.5654 235.459 13.4606C235.254 13.3907 235.026 13.4458 234.866 13.6381C234.825 13.7004 234.451 14.1814 234.079 15.2714C233.601 16.668 234.091 18.129 235.59 18.6415C236.867 19.0783 237.942 18.4377 238.694 17.6864C238.641 18.5626 238.775 19.7306 239.848 20.0975C240.716 20.3945 241.431 19.9162 241.5 19.8826C241.597 19.8207 241.689 19.7189 241.73 19.5997C241.817 19.3442 241.683 19.0131 241.411 18.9199ZM238.996 5.89818C238.955 6.0174 238.965 6.1541 239.004 6.26255C239.372 7.30138 240.114 7.80234 240.744 8.01782C241.732 8.3556 242.86 8.28462 243.888 7.78026C244.025 7.71301 244.117 7.61126 244.164 7.475C244.257 7.2025 244.1 6.88252 243.827 6.78934C243.691 6.74275 243.554 6.75307 243.417 6.82032C242.617 7.2126 241.809 7.24051 241.094 6.99591C240.702 6.86197 240.266 6.57968 240.009 5.88324C239.948 5.72907 239.835 5.61435 239.682 5.56194C239.392 5.46294 239.089 5.62567 238.996 5.89818Z" fill="#C2000D"/>
<path d="M258.085 23.5182C257.946 23.4804 257.81 23.4995 257.677 23.5754C257.324 23.7779 257.109 23.8128 256.727 23.709C255.859 23.4731 256.145 21.3873 256.601 19.3661C256.659 19.0835 256.495 18.7963 256.217 18.7208C255.974 18.6547 255.718 18.7718 255.605 18.9835C254.765 20.5646 253.504 22.4603 252.131 22.0875C251.332 21.8705 251.085 21.1319 251.387 20.0202C251.571 19.3427 251.664 19.0695 251.987 18.4298C251.997 18.3951 252.023 18.3651 252.033 18.3303C252.104 18.0698 251.966 17.7526 251.653 17.6676C251.41 17.6016 251.15 17.736 251.041 17.9303C250.271 19.3251 248.481 21.6555 247.126 21.2874C246.431 21.0987 246.178 20.6569 246.367 19.9621C246.608 19.0762 246.94 18.4017 247.566 17.4712C247.597 17.4238 247.629 17.3765 247.643 17.3243C247.714 17.0638 247.576 16.7466 247.264 16.6617C247.038 16.6003 246.804 16.7048 246.678 16.8943C246.043 17.8595 245.603 18.6541 245.325 19.6789C244.994 20.8949 245.627 21.9993 246.843 22.3296C248.163 22.6883 249.329 21.8299 250.185 20.9433C250.227 21.8874 250.719 22.8231 251.848 23.1298C253.203 23.4978 254.298 22.6947 255.085 21.7894C255.005 22.9056 255.106 24.3879 256.444 24.7512C257.104 24.9305 257.679 24.8068 258.209 24.5032C258.341 24.4273 258.426 24.3198 258.464 24.1809C258.54 23.9029 258.362 23.5937 258.085 23.5182ZM259.051 12.382C259.131 12.0867 258.949 11.7948 258.671 11.7193L258.636 11.7099C254.905 10.9574 254.582 10.9814 249.37 9.56581C249.092 9.49031 248.783 9.66744 248.708 9.94536C248.632 10.2233 248.809 10.5325 249.087 10.608C254.298 12.0237 254.726 12.028 258.423 12.771C258.705 12.8291 258.98 12.6426 259.051 12.382Z" fill="#C2000D"/>
<path d="M263.887 27.0142C264.625 27.2482 265.298 27.3296 266.349 27.172C266.548 27.1407 266.728 26.99 266.788 26.8013C266.886 26.4925 266.694 26.2049 266.436 26.1233C266.368 26.1015 266.276 26.0915 266.197 26.104C265.26 26.2599 264.849 26.1862 264.214 25.9847C263.94 25.8976 263.716 25.7699 263.537 25.6188C264.806 25.6061 266.275 24.8448 266.684 23.558C266.988 22.5972 266.473 21.6028 265.512 21.2979C263.985 20.8134 262.525 21.7852 262.068 23.2264C261.551 24.8563 262.24 26.4915 263.887 27.0142ZM265.654 23.2314C265.382 24.0892 263.923 24.7593 262.979 24.4599C262.953 24.1871 262.994 23.879 263.097 23.5531C263.402 22.5923 264.311 22.0497 265.186 22.3273C265.597 22.458 265.785 22.8196 265.654 23.2314Z" fill="#C2000D"/>
<path d="M278.581 28.4945C278.795 28.5901 279.042 28.5231 279.196 28.3554C279.419 28.1202 279.82 28.0628 280.099 28.1878C280.592 28.4085 280.758 28.917 280.479 29.5413C279.964 30.6913 277.963 31.3732 276.747 30.829C276.238 30.601 275.742 29.5506 276.757 27.2834C278.809 22.6997 280.357 21.7955 280.883 22.0308C281.162 22.1558 281.393 22.6536 281.099 23.3107C280.665 24.28 280.184 24.3409 280.16 24.35C279.952 24.375 279.78 24.4952 279.706 24.6595C279.574 24.9552 279.732 25.2626 279.978 25.373C280.044 25.4024 280.134 25.4227 280.214 25.4193C280.391 25.4197 281.408 25.2634 282.084 23.752C282.526 22.7662 282.359 21.5084 281.324 21.0451C279.55 20.2508 277.69 22.5541 275.771 26.8421C274.727 29.1751 274.844 31.1602 276.306 31.8147C278.047 32.5943 280.656 31.7897 281.465 29.9825C281.921 28.9639 281.69 27.7169 280.54 27.2021C279.834 26.8858 278.954 27.0443 278.408 27.6478C278.369 27.6898 278.331 27.7317 278.309 27.781C278.199 28.0274 278.285 28.3621 278.581 28.4945Z" fill="#C2000D"/>
<path d="M290.934 32.6173C290.738 32.4895 290.469 32.5071 290.281 32.6638C289.801 33.103 289.105 33.9387 288.584 34.7377C287.896 35.7931 287.68 36.1896 287.309 37.0221C287.191 37.2679 287.304 37.5564 287.515 37.6941C287.787 37.8711 288.115 37.7629 288.263 37.5368C288.695 36.8734 288.746 36.4985 289.203 35.765C290.117 36.275 291.144 36.6442 292.137 36.5394L291.901 36.9012C291.35 37.7455 290.561 39.2511 291.933 40.146C292.401 40.4509 292.965 40.4752 293.538 40.3546C293.687 40.3232 293.802 40.2471 293.88 40.1265C294.038 39.8853 293.964 39.5365 293.723 39.3792C293.602 39.3005 293.467 39.2769 293.318 39.3084C292.894 39.3975 292.659 39.33 292.523 39.2415C292.086 38.9563 292.176 38.4561 292.805 37.4912L294.084 35.5313C294.221 35.3203 294.198 34.961 293.926 34.784C293.715 34.6463 293.436 34.6791 293.253 34.8607C292.364 35.7632 291.119 35.596 289.808 34.8702C290.232 34.2869 290.726 33.7277 290.998 33.4754C291.042 33.44 291.072 33.3948 291.091 33.3646C291.239 33.1385 291.206 32.7943 290.934 32.6173Z" fill="#C2000D"/>
<path d="M302.448 42.0406C302.478 41.9958 302.493 41.9409 302.509 41.8861C302.732 41.1033 302.401 40.2731 301.759 39.8407C300.117 38.7347 297.478 39.4314 296.412 41.014C295.849 41.85 295.829 43.0082 296.799 43.6617C297.755 44.3052 298.987 44.4407 300.256 44.232C300.074 44.6954 299.74 45.6424 300.233 45.9742C300.487 46.1451 300.832 46.0519 300.982 45.8279C301.043 45.7383 301.073 45.6287 301.079 45.5238C301.071 45.0196 301.279 44.4215 301.741 43.7347C301.882 43.5257 301.849 43.1561 301.595 42.9851C301.46 42.8947 301.301 42.8739 301.141 42.9181C299.576 43.4051 298.253 43.339 297.402 42.7659C297.029 42.5145 296.966 42.1248 297.308 41.6172C298.052 40.5124 300.111 40.0327 301.156 40.7365C301.41 40.9075 301.573 41.2777 301.491 41.5918C301.431 41.8112 301.504 42.0561 301.698 42.1868C301.967 42.3678 302.297 42.2645 302.448 42.0406Z" fill="#C2000D"/>
<path d="M515.74 105.349C515.722 105.298 515.686 105.254 515.651 105.209C515.153 104.565 514.289 104.339 513.56 104.6C511.696 105.267 510.692 107.805 511.335 109.602C511.675 110.551 512.595 111.254 513.697 110.86C514.781 110.472 515.621 109.559 516.205 108.414C516.471 108.835 517.036 109.665 517.595 109.465C517.883 109.362 518.012 109.029 517.921 108.775C517.885 108.673 517.815 108.583 517.733 108.517C517.323 108.224 516.964 107.702 516.685 106.923C516.6 106.685 516.283 106.493 515.995 106.596C515.842 106.651 515.731 106.767 515.672 106.922C515.136 108.471 514.299 109.497 513.333 109.843C512.909 109.994 512.558 109.814 512.352 109.238C511.903 107.984 512.737 106.041 513.924 105.617C514.212 105.514 514.607 105.602 514.811 105.854C514.952 106.033 515.193 106.118 515.413 106.04C515.718 105.93 515.831 105.603 515.74 105.349Z" fill="#C2000D"/>
<path d="M314.999 53.6171C314.88 53.5353 314.746 53.5082 314.596 53.5357C314.195 53.6091 313.981 53.5707 313.655 53.3457C312.914 52.8344 313.878 50.9627 314.98 49.2081C315.129 48.9608 315.069 48.6353 314.832 48.4717C314.625 48.3285 314.345 48.354 314.168 48.5159C312.85 49.7278 311.03 51.0963 309.86 50.2885C309.178 49.8181 309.191 49.0394 309.846 48.0913C310.244 47.5136 310.423 47.2868 310.94 46.7909C310.961 46.7613 310.996 46.7419 311.016 46.7123C311.17 46.4901 311.145 46.1452 310.879 45.9611C310.671 45.8179 310.381 45.8582 310.214 46.0052C309.023 47.0644 306.561 48.6672 305.405 47.8696C304.813 47.4606 304.721 46.9598 305.13 46.3673C305.652 45.6118 306.189 45.0862 307.089 44.4168C307.135 44.3826 307.18 44.3484 307.211 44.3039C307.364 44.0817 307.34 43.7368 307.073 43.5527C306.881 43.4198 306.626 43.4406 306.444 43.5775C305.524 44.2766 304.845 44.8797 304.241 45.7537C303.526 46.7906 303.755 48.0426 304.792 48.7584C305.918 49.5356 307.303 49.1136 308.405 48.5623C308.131 49.4666 308.283 50.5126 309.246 51.1773C310.402 51.9749 311.701 51.5815 312.744 50.9893C312.298 52.0156 311.901 53.4471 313.041 54.2345C313.604 54.6231 314.187 54.6975 314.788 54.5874C314.938 54.5598 315.054 54.4868 315.136 54.3683C315.3 54.1313 315.236 53.7808 314.999 53.6171Z" fill="#C2000D"/>
<path d="M324.052 59.7001C323.635 59.4513 323.343 59.906 322.832 59.6019C322.183 59.2148 322.964 57.2708 323.84 55.8019C323.987 55.5545 323.9 55.209 323.652 55.0616C323.405 54.9141 323.1 55.0045 322.949 55.1871C322.786 55.4253 320.544 58.238 318.967 57.2981C318.163 56.8189 318.025 56.0661 318.559 55.1693C319.158 54.1642 319.396 54.1172 319.543 53.8698C319.681 53.6379 319.634 53.2954 319.356 53.1295C319.17 53.0189 318.936 53.0258 318.739 53.1807C318.686 53.2333 318.221 53.6268 317.632 54.6164C316.876 55.8843 317.053 57.4149 318.414 58.2258C319.574 58.9169 320.758 58.5121 321.648 57.9322C321.416 58.7787 321.305 59.949 322.28 60.5296C323.068 60.9996 323.867 60.6792 323.941 60.6605C324.049 60.62 324.16 60.5395 324.224 60.4312C324.362 60.1993 324.299 59.8476 324.052 59.7001Z" fill="#C2000D"/>
<path d="M327.579 62.2066C327.928 61.6603 328.921 61.3758 330.365 61.4218C330.308 61.5778 330.217 61.7544 330.12 61.9061C329.5 62.8772 328.396 63.3686 327.744 62.9523C327.456 62.7683 327.395 62.4949 327.579 62.2066ZM328.37 59.2946C328.476 59.3624 328.602 59.3999 328.741 59.3821C329.194 59.3081 329.555 59.4107 329.874 59.6141C330.193 59.8174 330.362 60.0537 330.438 60.3368C328.939 60.2769 327.395 60.4876 326.669 61.6256C326.175 62.3994 326.389 63.3688 327.163 63.8627C327.952 64.3662 328.848 64.2334 329.55 63.8699C329.551 64.7037 329.991 65.4539 330.75 65.9381C331.584 66.4706 332.454 66.7479 333.816 66.7206C334.011 66.7167 334.159 66.6189 334.255 66.4672C334.42 66.2092 334.318 65.8667 334.091 65.7215C334 65.6634 333.889 65.6356 333.784 65.6327C332.552 65.6574 332.013 65.4634 331.331 65.0277C330.587 64.5532 330.417 63.7826 330.891 63.0391C331.192 62.5687 331.865 62.016 333.126 61.9458C333.396 61.9255 333.67 61.93 333.991 61.9635C334.176 61.9748 334.404 61.8853 334.52 61.7033C334.694 61.4301 334.573 61.118 334.345 60.9727C334.3 60.9437 334.229 60.9201 334.174 60.9063C333.352 60.723 332.449 60.5313 331.553 60.4294C331.47 59.7569 331.108 59.1201 330.455 58.7037C329.954 58.3841 329.311 58.1873 328.579 58.2968C328.415 58.32 328.283 58.4275 328.205 58.5489C328.04 58.8069 328.127 59.1397 328.37 59.2946Z" fill="#C2000D"/>
<path d="M348.026 71.4015C348.054 71.3551 348.066 71.2994 348.078 71.2438C348.255 70.4493 347.877 69.6397 347.211 69.2455C345.507 68.2371 342.912 69.0863 341.941 70.7283C341.427 71.5958 341.474 72.7531 342.481 73.349C343.473 73.9357 344.711 73.9992 345.966 73.7169C345.811 74.1902 345.533 75.155 346.044 75.4575C346.308 75.6134 346.646 75.5002 346.784 75.2678C346.839 75.1749 346.863 75.0636 346.862 74.9587C346.825 74.4557 346.998 73.8465 347.419 73.1339C347.548 72.9171 347.493 72.55 347.23 72.3942C347.09 72.3117 346.93 72.3003 346.772 72.3537C345.239 72.931 343.914 72.9421 343.031 72.4196C342.644 72.1904 342.558 71.805 342.87 71.2783C343.549 70.132 345.576 69.5333 346.661 70.175C346.924 70.3308 347.108 70.6909 347.045 71.0092C346.997 71.2318 347.085 71.472 347.286 71.5912C347.565 71.7562 347.889 71.6339 348.026 71.4015Z" fill="#C2000D"/>
<path d="M357.151 79.5627C357.058 79.508 356.946 79.4844 356.841 79.4854C355.61 79.5556 355.065 79.3817 354.367 78.9715C353.606 78.5249 353.408 77.7612 353.854 77.0006C354.183 76.4418 354.933 75.839 356.821 75.9663C357.021 75.9798 357.23 75.8729 357.331 75.7021C357.495 75.4228 357.371 75.0998 357.138 74.963L357.061 74.9175C355.047 74.1523 352.795 74.6459 351.248 75.2192C351.722 74.5171 352.228 73.7282 352.674 72.9676C352.82 72.7193 352.73 72.3744 352.482 72.2285C352.234 72.0827 351.889 72.1724 351.743 72.4207C350.768 74.0815 349.387 76.0054 349.069 76.2986C349.026 76.3361 348.999 76.3826 348.971 76.4292C348.835 76.662 348.869 76.9951 349.164 77.1683C349.35 77.2777 349.584 77.2693 349.771 77.1286C349.977 76.9569 351.629 76.0275 353.546 75.7131C353.298 75.9223 353.078 76.1898 352.923 76.4537C352.185 77.711 352.563 79.1645 353.82 79.9028C354.674 80.4042 355.553 80.649 356.913 80.5714C357.108 80.5603 357.252 80.457 357.343 80.3018C357.498 80.038 357.384 79.6995 357.151 79.5627Z" fill="#C2000D"/>
<path d="M362.982 90.6307C363.421 89.8862 364.551 89.173 365.911 88.6371C365.653 89.2165 365.383 89.7466 365.109 90.2119C364.461 91.3131 363.422 91.5161 363.019 91.2787C362.91 91.2147 362.8 90.9409 362.982 90.6307ZM362.422 78.8118C362.205 78.6839 361.928 78.7294 361.753 78.9191C361.246 79.4975 360.898 79.9819 360.523 80.6178C359.774 81.8897 359.96 83.4194 361.325 84.2232C362.457 84.8899 363.688 84.4662 364.643 83.8378C364.324 84.8407 364.18 86.1137 365.266 86.7531C365.7 87.0088 366.186 87.1067 366.559 87.0759C366.547 87.1315 366.501 87.2091 366.48 87.2803C364.756 87.8316 362.856 88.7177 362.052 90.0826C361.686 90.7031 361.649 91.7252 362.471 92.2093C363.618 92.8852 365.227 92.1404 366.04 90.7599C366.487 89.9999 366.918 89.0209 367.284 88.1504C368.396 87.8233 369.58 87.6222 370.366 87.5633C370.545 87.5433 370.705 87.4493 370.796 87.2942C370.951 87.0306 370.838 86.6919 370.605 86.5549C370.512 86.5001 370.41 86.4608 370.296 86.4772C369.614 86.5353 368.707 86.6909 367.78 86.9177C367.956 86.4779 368.223 85.9879 367.758 85.7139C367.587 85.6134 367.353 85.6215 367.184 85.731C366.754 86 366.357 86.1422 365.814 85.8225C365.054 85.3749 365.948 83.29 366.929 81.4451C367.06 81.1878 366.977 80.8674 366.729 80.7213C366.481 80.5751 366.161 80.658 365.999 80.8971C365.005 82.4426 363.067 83.9958 361.873 83.2925C361.066 82.8176 360.924 82.0655 361.454 81.1659C361.81 80.561 362.072 80.1513 362.543 79.635C362.562 79.604 362.595 79.5821 362.614 79.5511C362.751 79.3184 362.702 78.9762 362.422 78.8118Z" fill="#C2000D"/>
<path d="M380.226 92.7672C379.786 92.5599 379.54 93.0406 379.002 92.7873C378.319 92.4648 378.908 90.4543 379.638 88.9077C379.761 88.6472 379.64 88.3118 379.38 88.189C379.119 88.0661 378.824 88.1856 378.692 88.3819C378.553 88.6347 376.593 91.651 374.932 90.8679C374.086 90.4686 373.875 89.7327 374.321 88.7884C374.82 87.7302 375.052 87.6604 375.174 87.3999C375.29 87.1557 375.209 86.8194 374.916 86.6812C374.721 86.5891 374.488 86.6186 374.307 86.7918C374.26 86.8493 373.835 87.2858 373.344 88.3278C372.714 89.6628 373.039 91.1691 374.472 91.8447C375.693 92.4205 376.832 91.9031 377.662 91.2399C377.513 92.1049 377.516 93.2804 378.542 93.7641C379.372 94.1556 380.136 93.7596 380.208 93.7338C380.311 93.6831 380.414 93.5922 380.468 93.4782C380.583 93.234 380.486 92.89 380.226 92.7672Z" fill="#C2000D"/>
<path d="M385.312 92.8944C385.524 92.4174 386.564 92.0721 387.139 92.328C387.452 92.467 387.552 92.7283 387.413 93.0408C387.165 93.6 386.505 93.9765 386.015 94.1921L385.933 94.1555C385.308 93.8776 385.085 93.4043 385.312 92.8944ZM382.698 95.6721C382.747 95.694 382.78 95.7086 382.837 95.7141C383.656 95.822 385.052 95.6943 386.083 95.3252C386.797 95.4459 387.506 95.2687 388.1 95.0403L388.071 95.1061C387.311 96.8167 387.252 97.8347 387.248 97.9315C387.243 98.1655 387.396 98.3519 387.577 98.4323C387.873 98.564 388.18 98.405 388.29 98.1583C388.429 97.8458 388.283 97.2883 389.058 95.5449C389.511 94.5251 390.155 93.9641 390.257 93.7338C390.367 93.4871 390.303 93.1435 389.99 93.0046C389.809 92.9241 389.601 92.9497 389.446 93.0776C389.446 93.0776 388.939 93.4632 388.214 93.8103C388.281 93.7025 388.349 93.5947 388.4 93.4796C388.773 92.6407 388.417 91.7141 387.578 91.3412C386.509 90.8658 384.844 91.2878 384.325 92.4556C383.981 93.2287 384.178 94.0255 384.686 94.5666C384.023 94.6853 383.387 94.698 382.998 94.6432C382.755 94.6139 382.519 94.7454 382.424 94.9593C382.292 95.2553 382.451 95.5624 382.698 95.6721Z" fill="#C2000D"/>
<path d="M392.444 98.3949C392.706 97.8021 393.644 97.3703 395.078 97.1968C395.046 97.3595 394.982 97.5479 394.91 97.7126C394.444 98.7664 393.428 99.4196 392.72 99.107C392.407 98.9689 392.306 98.7078 392.444 98.3949ZM392.784 95.3968C392.899 95.4477 393.029 95.4656 393.164 95.4269C393.601 95.2851 393.974 95.3317 394.319 95.4843C394.665 95.637 394.868 95.8448 394.986 96.1132C393.495 96.2814 392.001 96.7238 391.456 97.9588C391.085 98.7986 391.444 99.7243 392.284 100.095C393.14 100.473 394.006 100.206 394.644 99.7401C394.772 100.564 395.321 101.239 396.144 101.602C397.05 102.002 397.951 102.144 399.294 101.911C399.485 101.877 399.617 101.758 399.689 101.594C399.813 101.314 399.661 100.99 399.414 100.881C399.315 100.838 399.201 100.827 399.097 100.84C397.882 101.052 397.321 100.941 396.58 100.614C395.773 100.258 395.488 99.5223 395.844 98.7154C396.07 98.205 396.651 97.5565 397.888 97.2958C398.151 97.2348 398.423 97.1976 398.745 97.1821C398.929 97.1652 399.141 97.0423 399.228 96.8447C399.359 96.5482 399.192 96.2581 398.945 96.149C398.895 96.1272 398.822 96.1146 398.766 96.1093C397.925 96.0529 397.004 96.0003 396.103 96.0355C395.918 95.3835 395.464 94.8089 394.755 94.4963C394.212 94.2564 393.547 94.1594 392.84 94.3786C392.681 94.4266 392.566 94.5529 392.508 94.6847C392.384 94.9646 392.52 95.2805 392.784 95.3968Z" fill="#C2000D"/>
<path d="M521.24 106.928C521.013 106.321 521.384 105.357 522.289 104.231C522.38 104.37 522.466 104.55 522.529 104.718C522.931 105.798 522.659 106.975 521.934 107.245C521.614 107.365 521.359 107.248 521.24 106.928ZM519.39 104.544C519.508 104.5 519.613 104.422 519.683 104.3C519.897 103.894 520.196 103.667 520.55 103.535C520.905 103.403 521.195 103.41 521.467 103.52C520.517 104.681 519.756 106.041 520.228 107.305C520.548 108.166 521.451 108.578 522.312 108.257C523.189 107.93 523.622 107.135 523.754 106.355C524.421 106.856 525.284 106.956 526.128 106.642C527.055 106.296 527.8 105.769 528.598 104.664C528.712 104.506 528.723 104.329 528.66 104.161C528.553 103.874 528.219 103.749 527.966 103.843C527.864 103.881 527.776 103.952 527.71 104.035C526.988 105.034 526.509 105.347 525.75 105.63C524.924 105.938 524.206 105.61 523.898 104.784C523.703 104.261 523.667 103.391 524.37 102.341C524.516 102.114 524.685 101.897 524.904 101.661C525.025 101.521 525.09 101.285 525.015 101.082C524.902 100.779 524.579 100.688 524.327 100.782C524.276 100.801 524.215 100.843 524.17 100.879C523.529 101.425 522.833 102.031 522.212 102.685C521.625 102.347 520.898 102.253 520.173 102.523C519.617 102.731 519.072 103.126 518.719 103.776C518.639 103.921 518.645 104.092 518.695 104.227C518.802 104.514 519.12 104.645 519.39 104.544Z" fill="#C2000D"/>
<path d="M414.849 108.659C414.411 108.448 414.16 108.927 413.625 108.669C412.944 108.34 413.552 106.335 414.294 104.795C414.419 104.535 414.302 104.199 414.042 104.074C413.783 103.949 413.487 104.066 413.353 104.261C413.211 104.512 411.226 107.511 409.572 106.714C408.729 106.307 408.525 105.57 408.979 104.629C409.487 103.575 409.719 103.508 409.844 103.248C409.962 103.005 409.884 102.668 409.592 102.527C409.398 102.434 409.165 102.461 408.982 102.633C408.935 102.69 408.506 103.123 408.006 104.16C407.365 105.49 407.676 106.999 409.103 107.687C410.319 108.273 411.463 107.766 412.299 107.11C412.142 107.973 412.135 109.149 413.156 109.641C413.983 110.04 414.75 109.651 414.822 109.626C414.926 109.576 415.03 109.486 415.084 109.372C415.202 109.129 415.108 108.784 414.849 108.659Z" fill="#C2000D"/>
<path d="M427.14 114.002C426.999 114.56 427.679 114.881 428.36 115.053C430 115.468 431.209 114.065 431.553 112.704C431.906 111.308 431.404 109.696 429.816 109.294C428.106 108.862 426.378 110.189 424.737 113.227C424.963 111.818 425.04 110.927 424.885 110.22C424.841 110.023 424.68 109.852 424.488 109.804C424.174 109.724 423.899 109.933 423.833 110.195C423.815 110.265 423.81 110.356 423.827 110.435C424.034 111.379 423.604 114.036 422.28 119.271C422.223 119.498 422.357 119.848 422.671 119.927C422.933 119.993 423.23 119.846 423.318 119.571C425.854 111.746 428.225 110.006 429.551 110.341C430.406 110.558 430.771 111.392 430.506 112.439C430.232 113.521 429.427 114.209 428.624 114.006C428.083 113.869 428.128 113.695 427.796 113.611C427.534 113.545 427.22 113.688 427.14 114.002Z" fill="#C2000D"/>
<path d="M435.835 111.456C435.656 111.435 435.487 111.487 435.361 111.635C434.876 112.213 434.575 112.92 434.489 113.653C434.308 115.191 435.317 116.47 436.855 116.651C438.732 116.872 440.6 115.623 440.83 113.675C441 112.227 440.07 111.048 438.622 110.878C438.103 110.817 436.811 110.864 436.729 111.561C436.693 111.865 436.934 112.129 437.202 112.16C437.309 112.173 437.419 112.168 437.516 112.107C437.788 111.957 438.138 111.908 438.495 111.95C439.371 112.053 439.86 112.673 439.757 113.549C439.608 114.818 438.322 115.736 436.981 115.578C436.016 115.464 435.448 114.745 435.561 113.78C435.622 113.261 435.826 112.76 436.183 112.349C436.247 112.265 436.296 112.162 436.308 112.055C436.34 111.787 436.139 111.491 435.835 111.456Z" fill="#C2000D"/>
<path d="M443.257 117.677C443.252 117.767 443.281 117.877 443.312 117.951C443.361 118.044 443.976 119.165 445.504 119.259C446.599 119.327 448.42 118.755 448.534 116.922C448.594 115.952 448.084 115.163 447.198 114.91C447.455 114.547 447.624 114.143 447.657 113.622C447.734 112.364 446.737 111.581 445.623 111.512C444.994 111.473 443.635 111.587 443.589 112.324C443.57 112.629 443.825 112.879 444.095 112.896C444.202 112.903 444.312 112.873 444.406 112.825C444.686 112.662 445.107 112.562 445.556 112.59C446.239 112.632 446.612 113.016 446.579 113.555C446.525 114.417 445.572 114.953 445.479 115.002C445.349 115.066 445.211 115.256 445.197 115.471C445.178 115.777 445.435 116.009 445.704 116.026C446.027 116.046 446.039 115.866 446.613 115.902C447.242 115.941 447.495 116.227 447.456 116.856C447.398 117.79 446.415 118.234 445.57 118.181C444.672 118.126 444.329 117.545 444.264 117.433C444.182 117.302 443.991 117.182 443.812 117.171C443.488 117.151 443.274 117.408 443.257 117.677Z" fill="#C2000D"/>
<path d="M456.584 114.663C456.588 114.861 456.555 115.042 456.522 115.204C456.326 115.298 456.111 115.392 455.878 115.397C455.302 115.407 454.972 115.089 454.961 114.514C454.954 114.136 455.289 113.787 455.667 113.78C456.243 113.769 456.573 114.087 456.584 114.663ZM460.129 111.716C459.949 111.719 459.771 111.813 459.684 111.958C459.684 111.976 458.738 113.362 457.641 114.373C457.496 113.368 456.673 112.681 455.647 112.7C454.657 112.719 453.862 113.544 453.881 114.534C453.9 115.542 454.581 116.339 455.556 116.465C455.288 116.596 454.983 116.674 454.641 116.68C453.346 116.704 452.464 115.749 452.438 114.381C452.414 113.085 452.881 112.086 453.196 111.612C453.248 111.521 453.282 111.413 453.28 111.305C453.275 111.035 453.036 110.769 452.73 110.775C452.55 110.778 452.39 110.853 452.285 111.017C451.9 111.637 451.328 112.817 451.358 114.401C451.393 116.273 452.718 117.796 454.662 117.76C455.939 117.736 457.005 116.978 457.436 115.925C458.147 115.462 458.748 114.839 459.294 114.216C459.279 114.36 459.283 114.594 459.287 114.792C459.31 116.052 459.999 117.245 461.407 117.453L461.497 117.451C461.767 117.446 462.033 117.225 462.027 116.901C462.022 116.649 461.837 116.401 461.567 116.37C460.809 116.258 460.383 115.672 460.367 114.772C460.348 113.764 460.533 113.113 460.663 112.354C460.663 112.318 460.68 112.282 460.679 112.246C460.674 111.976 460.453 111.71 460.129 111.716Z" fill="#C2000D"/>
<path d="M464.922 111.217C464.958 111.216 464.993 111.196 465.029 111.195C465.653 111.042 466.91 110.953 468.151 110.901C468.439 110.889 468.68 110.627 468.668 110.339C468.656 110.051 468.394 109.81 468.106 109.822C466.829 109.876 465.572 109.965 464.769 110.161C464.52 110.225 464.349 110.449 464.359 110.7C464.373 111.024 464.652 111.228 464.922 111.217ZM469.254 115.719C469.111 115.725 468.987 115.785 468.884 115.897C468.591 116.216 468.36 116.297 468.198 116.304C467.856 116.318 467.65 116.129 467.636 115.787C467.625 115.535 467.705 115.298 467.89 114.966C468.107 114.56 468.287 114.138 468.265 113.599C468.226 112.682 467.495 112.01 466.578 112.048C464.744 112.125 464.325 114.179 464.331 114.305C464.343 114.592 464.569 114.835 464.893 114.822C465.109 114.812 465.3 114.66 465.381 114.441C465.429 114.295 465.868 113.159 466.623 113.127C466.965 113.113 467.171 113.303 467.185 113.644C467.196 113.896 467.116 114.134 466.932 114.466C466.715 114.871 466.534 115.293 466.557 115.833C466.595 116.75 467.326 117.422 468.243 117.383C468.801 117.36 469.274 117.052 469.671 116.621C469.774 116.508 469.823 116.38 469.817 116.236C469.804 115.948 469.542 115.707 469.254 115.719Z" fill="#C2000D"/>
<path d="M476.703 116.145C476.757 116.718 477.506 116.792 478.204 116.726C479.889 116.567 480.558 114.841 480.426 113.443C480.291 112.009 479.277 110.658 477.646 110.812C475.89 110.978 474.707 112.807 474.179 116.22C473.92 114.816 473.694 113.952 473.31 113.337C473.204 113.166 472.995 113.059 472.798 113.078C472.475 113.108 472.286 113.397 472.311 113.666C472.318 113.738 472.344 113.826 472.387 113.894C472.898 114.714 473.383 117.362 473.89 122.738C473.912 122.971 474.156 123.255 474.479 123.225C474.747 123.2 474.978 122.961 474.969 122.672C474.735 114.45 476.386 112.016 477.748 111.888C478.626 111.805 479.249 112.469 479.351 113.544C479.455 114.655 478.927 115.573 478.103 115.651C477.547 115.703 477.531 115.524 477.19 115.556C476.921 115.582 476.673 115.822 476.703 116.145Z" fill="#C2000D"/>
<path d="M488.686 112.731C488.706 112.927 488.689 113.11 488.669 113.275C488.482 113.385 488.276 113.496 488.043 113.52C487.47 113.579 487.115 113.289 487.056 112.716C487.018 112.34 487.323 111.965 487.699 111.927C488.272 111.868 488.628 112.157 488.686 112.731ZM491.975 109.499C491.796 109.518 491.626 109.626 491.551 109.778C491.553 109.796 490.725 111.256 489.715 112.354C489.487 111.364 488.61 110.748 487.59 110.852C486.605 110.953 485.881 111.841 485.982 112.826C486.084 113.829 486.829 114.567 487.811 114.611C487.555 114.764 487.258 114.867 486.918 114.902C485.628 115.033 484.67 114.154 484.531 112.793C484.399 111.504 484.782 110.47 485.057 109.971C485.102 109.876 485.126 109.765 485.115 109.658C485.088 109.389 484.828 109.144 484.523 109.175C484.344 109.194 484.19 109.282 484.099 109.454C483.768 110.103 483.296 111.327 483.457 112.903C483.647 114.765 485.094 116.174 487.028 115.976C488.299 115.846 489.298 115.002 489.64 113.918C490.31 113.397 490.857 112.726 491.35 112.06C491.347 112.205 491.37 112.438 491.391 112.635C491.519 113.889 492.304 115.021 493.724 115.111L493.814 115.102C494.082 115.074 494.329 114.832 494.296 114.509C494.271 114.259 494.066 114.026 493.794 114.018C493.029 113.97 492.556 113.421 492.465 112.525C492.362 111.523 492.494 110.858 492.56 110.091C492.556 110.055 492.571 110.018 492.567 109.982C492.539 109.713 492.297 109.467 491.975 109.499Z" fill="#C2000D"/>
<path d="M509.773 110.739C509.631 110.765 509.517 110.841 509.431 110.967C509.199 111.302 509.021 111.426 508.632 111.498C507.746 111.661 507.103 109.656 506.639 107.637C506.57 107.357 506.297 107.169 506.014 107.221C505.766 107.267 505.586 107.483 505.575 107.723C505.502 109.512 505.185 111.766 503.787 112.024C502.972 112.174 502.43 111.615 502.222 110.482C502.094 109.791 502.06 109.505 502.075 108.788C502.068 108.753 502.079 108.714 502.073 108.679C502.024 108.413 501.762 108.187 501.444 108.246C501.196 108.291 501.019 108.525 501.005 108.747C500.914 110.338 500.309 113.213 498.928 113.468C498.22 113.598 497.8 113.309 497.67 112.601C497.504 111.698 497.512 110.946 497.674 109.837C497.682 109.78 497.689 109.724 497.68 109.671C497.631 109.405 497.369 109.179 497.051 109.238C496.821 109.28 496.655 109.475 496.624 109.701C496.468 110.846 496.416 111.752 496.608 112.797C496.836 114.036 497.884 114.758 499.123 114.53C500.469 114.282 501.149 113.004 501.537 111.834C501.983 112.667 502.832 113.298 503.982 113.086C505.363 112.832 506.003 111.634 506.321 110.478C506.732 111.518 507.464 112.811 508.827 112.56C509.5 112.436 509.964 112.076 510.311 111.573C510.398 111.447 510.428 111.314 510.402 111.172C510.35 110.889 510.056 110.687 509.773 110.739Z" fill="#C2000D"/>
</svg>
