<svg width="298" height="107" viewBox="0 0 298 107" fill="none" xmlns="http://www.w3.org/2000/svg">
<path d="M4.62544 23.8308C4.51172 23.6378 4.24645 23.5735 4.05701 23.6931C3.86756 23.8126 3.80131 24.086 3.91503 24.279C6.37429 28.4523 5.4319 29.444 5.4319 29.444C5.25194 29.6072 5.23778 29.8313 5.33729 30.0001C5.45812 30.2052 5.71628 30.2574 5.91757 30.1304C6.22541 29.9361 7.41876 28.571 4.62544 23.8308ZM6.66219 23.7039C6.50827 23.801 6.42305 23.9872 6.46809 24.1738C6.66246 24.9447 7.05105 25.7419 7.42065 26.3691C7.97505 27.3099 8.84208 28.2851 9.81297 27.6725C10.2037 27.426 10.3552 27.1318 10.3812 27.0658C10.4452 26.9262 10.4214 26.7757 10.3575 26.6671C10.2366 26.4621 9.97848 26.4098 9.80087 26.5219C9.57591 26.6639 9.71803 26.7396 9.3865 26.9488C9.17338 27.0833 8.7281 26.9341 8.13106 25.9209C7.78989 25.3419 7.44395 24.6171 7.28276 23.9576C7.27327 23.914 7.25195 23.8778 7.23063 23.8416C7.12401 23.6607 6.87532 23.5694 6.66219 23.7039ZM2.63619 24.5895C2.65987 24.5746 2.67644 24.5476 2.70012 24.5327C3.71357 23.5788 5.03963 22.5767 6.68541 21.5382C6.87485 21.4187 6.9411 21.1453 6.82738 20.9523C6.71366 20.7593 6.44839 20.695 6.25894 20.8145C4.58949 21.8679 3.21607 22.9 2.1458 23.9227C2.00136 24.0635 1.96825 24.283 2.06776 24.4518C2.19569 24.6689 2.45859 24.7016 2.63619 24.5895Z" fill="#C2000D"/>
<path d="M10.9448 22.3677C10.8226 22.4359 10.7384 22.5469 10.7232 22.6996C10.6683 23.291 10.7866 23.8819 11.0517 24.3911C11.6078 25.459 12.8042 25.8174 13.8558 25.2311C15.1397 24.5152 15.7776 22.8618 15.0729 21.5083C14.5491 20.5024 13.4462 20.172 12.4557 20.7242C12.1011 20.922 11.3041 21.5426 11.5562 22.0269C11.6662 22.238 11.9336 22.2971 12.1171 22.1949C12.1904 22.154 12.2573 22.1006 12.2926 22.0169C12.3991 21.7973 12.5991 21.6056 12.8437 21.4693C13.4429 21.1352 14.0224 21.3088 14.3392 21.9173C14.7983 22.7989 14.3849 23.9747 13.4678 24.486C12.8075 24.8542 12.1345 24.6526 11.7854 23.982C11.5979 23.6219 11.5082 23.2073 11.5544 22.7809C11.5588 22.6984 11.5444 22.6102 11.5057 22.5357C11.4087 22.3495 11.1527 22.2518 10.9448 22.3677Z" fill="#C2000D"/>
<path d="M20.4945 25.7117C20.3 25.2165 20.3233 24.2805 20.5349 23.3261C20.8871 23.6486 21.1953 24.0504 21.4001 24.5716C21.6304 25.158 21.4482 25.7661 21.0352 25.9398C20.79 26.0429 20.5918 25.9593 20.4945 25.7117ZM19.6396 18.1758C19.6038 18.0846 19.5292 18.0096 19.434 17.9586C18.9861 17.737 18.4937 17.7468 18.042 17.9367C16.9321 18.4035 16.4338 19.5848 16.874 20.7055C17.3705 21.9695 18.8081 22.2607 19.7939 22.8178C19.5174 23.9514 19.3773 25.1643 19.7202 26.0373C19.9813 26.7019 20.6842 26.9984 21.3423 26.7216C22.3489 26.2982 22.5071 25.093 22.1744 24.246C21.8519 23.425 21.3276 22.856 20.772 22.4368C20.9177 21.9656 21.0917 21.528 21.2706 21.1794C21.3302 21.0633 21.3228 20.9297 21.2819 20.8255C21.1949 20.6039 20.9477 20.5105 20.7412 20.5974C20.6508 20.6354 20.5707 20.6994 20.5189 20.7971C20.34 21.1457 20.1867 21.5594 20.0386 21.9861C19.8481 21.884 19.6499 21.8004 19.4696 21.7243C18.5504 21.3366 17.8735 20.9532 17.6483 20.3798C17.3719 19.6762 17.6522 19.0117 18.3491 18.7186C18.6201 18.6046 18.8495 18.6144 19.0709 18.7187C19.179 18.7643 19.3028 18.773 19.406 18.7296C19.6254 18.6373 19.7215 18.3843 19.6396 18.1758Z" fill="#C2000D"/>
<path d="M28.5939 17.7262C28.2364 17.8491 28.3514 18.2535 27.9145 18.4036C27.3584 18.5946 26.6282 17.1435 26.222 15.877C26.1535 15.6638 25.9083 15.5408 25.6964 15.6136C25.4846 15.6863 25.3813 15.9142 25.4104 16.0966C25.4656 16.3145 25.9549 19.0768 24.6043 19.5407C23.9158 19.7772 23.4082 19.4779 23.1602 18.7048C22.8822 17.8383 22.9761 17.6728 22.9077 17.4595C22.8435 17.2595 22.6205 17.1142 22.3822 17.196C22.2233 17.2506 22.1076 17.394 22.097 17.59C22.1008 17.6479 22.092 18.1245 22.3658 18.9776C22.7164 20.0708 23.6958 20.7408 24.8609 20.3405C25.854 19.9994 26.2232 19.0882 26.3407 18.2634C26.7139 18.8308 27.3369 19.49 28.1711 19.2035C28.8464 18.9715 29.0678 18.333 29.0947 18.2794C29.1263 18.1946 29.1361 18.0876 29.1062 17.9943C29.042 17.7943 28.8057 17.6535 28.5939 17.7262ZM20.8427 11.0226C20.9154 11.2493 21.1563 11.3589 21.3682 11.2861L21.3947 11.277C22.6713 10.7201 23.8544 10.2841 24.768 9.97027C24.9798 9.8975 25.1053 9.64719 25.0369 9.4339C24.9685 9.22061 24.7232 9.09765 24.5114 9.17042C23.5713 9.49335 22.3882 9.92935 21.0851 10.4954C20.8775 10.5815 20.7785 10.8227 20.8427 11.0226Z" fill="#C2000D"/>
<path d="M36.9591 15.0432C36.598 15.1549 36.7012 15.5626 36.2598 15.6991C35.6981 15.8729 35.0104 14.4007 34.6412 13.123C34.579 12.9078 34.3373 12.7775 34.1233 12.8437C33.9093 12.9099 33.7994 13.1344 33.8232 13.3175C33.872 13.5368 34.2804 16.3116 32.9162 16.7337C32.2208 16.9489 31.7219 16.6344 31.4965 15.8543C31.2439 14.9801 31.3426 14.8177 31.2804 14.6025C31.2221 14.4007 31.0033 14.2486 30.7626 14.3231C30.6021 14.3728 30.4822 14.5125 30.4658 14.708C30.468 14.7659 30.4453 15.2418 30.694 16.1026C31.0127 17.2055 31.9725 17.9049 33.1495 17.5407C34.1525 17.2303 34.5484 16.3313 34.6901 15.5108C35.0467 16.0892 35.6505 16.7668 36.493 16.5061C37.1751 16.2951 37.4153 15.664 37.4438 15.6112C37.4778 15.5274 37.4907 15.4208 37.4635 15.3267C37.4052 15.1249 37.1731 14.977 36.9591 15.0432Z" fill="#C2000D"/>
<path d="M42.0159 10.8048C41.909 10.341 41.197 10.4301 40.8028 10.5274C39.4435 10.8627 38.6548 12.427 38.9534 13.7231C39.208 14.8281 40.1954 15.4352 41.2964 15.1635C42.044 14.9791 42.6691 14.6374 43.3934 13.8532C43.4969 13.7412 43.523 13.605 43.4916 13.4685C43.4381 13.2366 43.1934 13.1096 42.9895 13.1599C42.9079 13.18 42.8327 13.2274 42.7741 13.2851C42.1188 13.9946 41.7194 14.1941 41.1078 14.345C40.4418 14.5093 39.9229 14.1903 39.7689 13.5219C39.5646 12.6351 40.1758 11.5471 40.9914 11.3459C41.236 11.2856 41.3479 11.2724 41.5163 11.3173C41.577 11.3312 41.6481 11.3281 41.7024 11.3147C41.9063 11.2644 42.0725 11.0504 42.0159 10.8048Z" fill="#C2000D"/>
<path d="M49.5323 11.0507C49.5522 11.2034 49.5426 11.3461 49.5311 11.4749C49.3877 11.5656 49.2303 11.6583 49.0501 11.6834C48.6064 11.7454 48.3242 11.5303 48.2663 11.0861C48.2283 10.7945 48.4574 10.494 48.7485 10.4534C49.1922 10.3914 49.4744 10.6065 49.5323 11.0507ZM52.0159 8.44245C51.8772 8.4618 51.7476 8.55057 51.6928 8.67131C51.6946 8.68519 51.0834 9.84477 50.3232 10.7283C50.1248 9.96442 49.4303 9.51009 48.64 9.6204C47.8774 9.72685 47.3348 10.4387 47.4344 11.2022C47.5357 11.9796 48.1302 12.5327 48.8934 12.5393C48.6981 12.6655 48.4696 12.7539 48.2062 12.7907C47.2078 12.93 46.4446 12.2733 46.307 11.2182C46.1767 10.2186 46.4516 9.40285 46.6541 9.00707C46.6866 8.93185 46.7035 8.84469 46.6927 8.76139C46.6655 8.55315 46.4581 8.37007 46.2224 8.40297C46.0837 8.42233 45.9662 8.49528 45.8993 8.63183C45.6558 9.14641 45.3158 10.1126 45.4751 11.3343C45.6633 12.7781 46.8173 13.8326 48.3147 13.6236C49.2992 13.4862 50.0569 12.8009 50.2986 11.9474C50.808 11.5229 51.2179 10.9851 51.5862 10.4531C51.5868 10.5661 51.6103 10.7465 51.6302 10.8992C51.7569 11.871 52.3912 12.7296 53.4962 12.7591L53.5656 12.7494C53.7735 12.7204 53.9598 12.5247 53.9272 12.2749C53.9019 12.0805 53.7379 11.9055 53.5263 11.9068C52.9313 11.8909 52.5527 11.4773 52.4622 10.7831C52.3608 10.0057 52.4482 9.48465 52.4831 8.8861C52.4795 8.85833 52.4898 8.82863 52.4861 8.80087C52.459 8.59263 52.2655 8.40761 52.0159 8.44245Z" fill="#C2000D"/>
<path d="M57.5165 9.52607C57.6981 9.51275 57.843 9.37577 57.8874 9.20407C57.9549 8.96048 58.2087 8.7734 58.4461 8.75599C58.8649 8.72525 59.1652 9.01204 59.2016 9.5428C59.2686 10.5205 58.1444 11.726 57.1112 11.8018C56.6784 11.8336 55.954 11.2971 55.8219 9.36967C55.5548 5.4728 56.2871 4.28204 56.7339 4.24925C56.9713 4.23183 57.3116 4.48761 57.3499 5.0463C57.4063 5.87037 57.0986 6.08948 57.0856 6.10447C56.9517 6.19852 56.8775 6.34434 56.8871 6.48401C56.9043 6.73542 57.1252 6.88766 57.3347 6.87229C57.3905 6.86819 57.4594 6.8491 57.5133 6.81707C57.6352 6.75198 58.2757 6.26982 58.1876 4.98483C58.1302 4.1468 57.5561 3.34667 56.6765 3.41122C55.1686 3.52187 54.7343 5.78569 54.9842 9.43114C55.1201 11.4145 55.926 12.731 57.1686 12.6398C58.6486 12.5312 60.1446 11.0177 60.0394 9.48132C59.98 8.61535 59.366 7.84624 58.3886 7.91795C57.7882 7.96201 57.2426 8.3951 57.0883 9.01003C57.0772 9.05296 57.0661 9.09588 57.069 9.13779C57.0833 9.34729 57.2652 9.54451 57.5165 9.52607Z" fill="#C2000D"/>
<path d="M66.0932 8.65025C66.0917 8.60827 66.0762 8.56683 66.0607 8.52538C65.8436 7.93118 65.2561 7.56116 64.6546 7.58396C63.1157 7.64227 61.7731 9.29028 61.8256 10.7733C61.8533 11.5569 62.3697 12.2938 63.279 12.2594C64.1744 12.2254 65.0119 11.7454 65.7152 11.0323C65.8125 11.4068 66.0351 12.1549 66.4967 12.1375C66.7346 12.1284 66.909 11.9117 66.9016 11.7018C66.8986 11.6179 66.8677 11.535 66.8232 11.4666C66.588 11.1533 66.4452 10.6824 66.4225 10.0388C66.4155 9.84289 66.2257 9.62592 65.9879 9.63493C65.862 9.6397 65.7521 9.69991 65.6716 9.80103C64.9093 10.8246 64.0468 11.3897 63.2493 11.4199C62.8996 11.4332 62.6818 11.2172 62.665 10.7415C62.6283 9.70619 63.705 8.46054 64.6843 8.42343C64.9221 8.41442 65.1938 8.57224 65.2862 8.80691C65.3481 8.97269 65.5064 9.09278 65.6883 9.08589C65.9401 9.07634 66.1006 8.86011 66.0932 8.65025Z" fill="#C2000D"/>
<path d="M74.9935 10.7703C74.6155 10.7721 74.6035 11.1922 74.1415 11.1945C73.5535 11.1974 73.294 9.58867 73.2879 8.25868C73.2868 8.03469 73.0899 7.83966 72.8659 7.84077C72.6419 7.84188 72.4748 8.02472 72.4476 8.20685C72.4347 8.43092 72.0695 11.2048 70.6415 11.2119C69.9135 11.2155 69.5195 10.7694 69.5157 9.95742C69.5115 9.04743 69.6509 8.92074 69.6499 8.69674C69.6489 8.48674 69.4799 8.27758 69.2279 8.27883C69.0599 8.27966 68.9064 8.37843 68.8372 8.56077C68.8235 8.61684 68.6716 9.0656 68.6757 9.96159C68.681 11.1096 69.4134 12.058 70.6454 12.0518C71.6954 12.0466 72.322 11.3015 72.6825 10.5577C72.8676 11.2148 73.2634 12.0389 74.1454 12.0345C74.8594 12.0309 75.2629 11.4969 75.3047 11.4547C75.3604 11.3844 75.4019 11.2862 75.4015 11.1882C75.4005 10.9782 75.2175 10.7691 74.9935 10.7703ZM69.8959 1.37543C69.8964 1.47343 69.9388 1.57122 69.9952 1.64094C70.5303 2.31029 71.2031 2.48896 71.7211 2.48639C72.5331 2.48236 73.3435 2.14233 73.9706 1.50921C74.0542 1.4248 74.0957 1.32659 74.0952 1.21459C74.0942 0.990594 73.8973 0.795569 73.6733 0.796681C73.5613 0.797236 73.4635 0.839722 73.3799 0.924138C72.8922 1.41656 72.3052 1.64348 71.7172 1.6464C71.3952 1.64799 71.0028 1.55194 70.6367 1.10575C70.5522 1.00817 70.44 0.952725 70.314 0.95335C70.076 0.954531 69.8949 1.15143 69.8959 1.37543Z" fill="#C2000D"/>
<path d="M87.556 10.9028C87.4441 10.8997 87.345 10.9389 87.2589 11.0206C87.0291 11.2382 86.8733 11.3039 86.5654 11.2953C85.8657 11.2757 85.6983 9.64633 85.6704 8.03492C85.6623 7.81061 85.4851 7.62357 85.2612 7.6173C85.0653 7.61181 84.8937 7.74706 84.8469 7.92782C84.5035 9.27673 83.8998 10.9405 82.7942 10.9095C82.1505 10.8915 81.8278 10.3782 81.8512 9.48254C81.8655 8.93673 81.8854 8.7132 82.0116 8.17052C82.0123 8.14253 82.0271 8.11493 82.0278 8.08694C82.0333 7.87701 81.8708 7.66238 81.6189 7.65532C81.423 7.64983 81.2511 7.79908 81.2047 7.96584C80.8793 9.1612 79.9564 11.2502 78.8648 11.2196C78.305 11.2039 78.0324 10.9162 78.0471 10.3564C78.0658 9.6426 78.1927 9.07193 78.4942 8.25406C78.5093 8.21246 78.5244 8.17087 78.5255 8.12888C78.531 7.91896 78.3686 7.70432 78.1167 7.69727C77.9347 7.69217 77.7775 7.81382 77.7171 7.98019C77.4149 8.82606 77.229 9.50712 77.2074 10.3328C77.1818 11.3125 77.8632 12.0319 78.8428 12.0593C79.9064 12.0891 80.6292 11.227 81.113 10.4002C81.3186 11.1063 81.8626 11.7237 82.7723 11.7492C83.8638 11.7798 84.5432 10.9725 84.971 10.1442C85.1166 11.0026 85.4659 12.1048 86.5435 12.135C87.0753 12.1499 87.4866 11.9513 87.8312 11.6248C87.9174 11.5432 87.962 11.4464 87.9649 11.3345C87.9707 11.1105 87.7799 10.9091 87.556 10.9028ZM86.2466 1.86264C86.2528 1.62472 86.0616 1.4373 85.8377 1.43103L85.8097 1.43024C82.8517 1.54346 82.6116 1.62076 78.4133 1.50315C78.1894 1.49688 77.9883 1.68733 77.9825 1.91125C77.9766 2.13517 78.1674 2.33659 78.3913 2.34287C82.5897 2.46048 82.9137 2.38552 85.8437 2.27152C86.068 2.2638 86.2411 2.07257 86.2466 1.86264Z" fill="#C2000D"/>
<path d="M91.9279 12.6444C92.525 12.7205 93.0505 12.6887 93.8295 12.4212C93.9767 12.3694 94.0921 12.2288 94.1103 12.0759C94.1401 11.8257 93.9517 11.6323 93.7434 11.6057C93.6878 11.5987 93.6167 11.6037 93.5579 11.6244C92.8654 11.8748 92.541 11.8758 92.0272 11.8103C91.805 11.7819 91.6155 11.7154 91.4572 11.6247C92.4241 11.4375 93.4344 10.649 93.5586 9.60636C93.6513 8.82786 93.1131 8.13826 92.3354 8.03909C91.0994 7.88147 90.1264 8.82997 89.9873 9.99772C89.83 11.3184 90.5947 12.4744 91.9279 12.6444ZM92.7253 9.5001C92.6425 10.1952 91.6266 10.9124 90.8628 10.815C90.8026 10.6098 90.7891 10.3681 90.8206 10.104C90.9133 9.32548 91.5278 8.78287 92.236 8.87319C92.5693 8.9157 92.765 9.16646 92.7253 9.5001Z" fill="#C2000D"/>
<path d="M99.5339 10.0962C99.6514 9.63495 98.9833 9.36567 98.5917 9.25884C97.241 8.89044 95.8322 9.88457 95.5038 11.1734C95.2239 12.2723 95.8169 13.2901 96.9109 13.5885C97.6538 13.7911 98.3606 13.7953 99.3566 13.4576C99.4989 13.4093 99.5841 13.3019 99.6186 13.1663C99.6774 12.9356 99.5197 12.704 99.3171 12.6488C99.236 12.6267 99.1481 12.6317 99.0702 12.654C98.169 12.9595 97.7261 12.9403 97.1183 12.7745C96.4565 12.594 96.1449 12.0592 96.3142 11.3945C96.5389 10.5126 97.5739 9.85181 98.3843 10.0728C98.6274 10.1392 98.732 10.1822 98.8599 10.3041C98.907 10.346 98.971 10.378 99.0251 10.3927C99.2277 10.448 99.4717 10.3404 99.5339 10.0962Z" fill="#C2000D"/>
<path d="M104.803 15.4064C103.949 15.0554 103.578 14.2226 103.824 13.3095C104.301 13.3543 104.846 13.4571 105.325 13.6539C106.025 13.9411 106.366 14.4593 106.19 14.9168C105.985 15.4527 105.412 15.6563 104.803 15.4064ZM102.972 13.2625C102.735 14.4665 103.285 15.6908 104.502 16.1907C105.448 16.5789 106.571 16.2685 106.967 15.2359C107.393 14.1248 106.481 13.2206 105.626 12.8696C105.147 12.6728 104.633 12.5676 104.178 12.502C104.642 11.7239 105.215 11.3238 105.251 11.3083C105.315 11.2589 105.371 11.1911 105.401 11.1126C105.476 10.9166 105.396 10.6567 105.175 10.5663C105.046 10.5131 104.904 10.5306 104.792 10.5902C104.715 10.6343 103.847 11.216 103.267 12.4153C102.705 12.3962 102.392 12.3131 102.247 12.6922C102.156 12.9275 102.29 13.1641 102.485 13.2439C102.692 13.329 102.673 13.2607 102.972 13.2625Z" fill="#C2000D"/>
<path d="M117.684 21.6107C117.356 21.4236 117.147 21.7875 116.745 21.5588C116.234 21.2677 116.772 19.7216 117.396 18.5475C117.502 18.3497 117.423 18.0797 117.229 17.9688C117.034 17.8579 116.803 17.9354 116.693 18.0822C116.575 18.273 114.945 20.5331 113.704 19.8261C113.072 19.4658 112.941 18.8762 113.323 18.1594C113.75 17.356 113.931 17.3141 114.036 17.1164C114.135 16.931 114.088 16.6624 113.869 16.5377C113.723 16.4545 113.543 16.4648 113.397 16.5908C113.358 16.6333 113.014 16.9526 112.593 17.7436C112.054 18.757 112.239 19.9578 113.31 20.5677C114.222 21.0875 115.118 20.7443 115.783 20.2695C115.632 20.9404 115.584 21.8637 116.351 22.3003C116.971 22.6538 117.574 22.3851 117.63 22.3688C117.711 22.3347 117.794 22.269 117.84 22.1825C117.939 21.9971 117.879 21.7216 117.684 21.6107Z" fill="#C2000D"/>
<path d="M124.354 31.4125C124.753 30.8037 125.569 30.2992 126.553 29.9469C126.33 30.3889 126.099 30.7913 125.885 31.1192C125.309 31.9974 124.616 32.1096 124.353 31.9247C124.273 31.8684 124.2 31.6467 124.354 31.4125ZM123.666 30.93C123.359 31.3984 123.285 32.201 123.892 32.6272C124.775 33.2465 125.92 32.597 126.572 31.6017C126.933 31.0514 127.317 30.3123 127.643 29.6354C128.497 29.4309 129.4 29.3296 130.023 29.3227C130.161 29.3168 130.288 29.2516 130.364 29.1345C130.495 28.9354 130.423 28.6626 130.251 28.542C130.182 28.4937 130.106 28.4572 130.018 28.4638C129.482 28.464 128.812 28.5412 128.093 28.6688C128.646 27.416 129.131 26.1663 129.412 25.4572C129.485 25.2692 129.424 25.0556 129.263 24.943C129.069 24.8063 128.824 24.8737 128.697 25.0413C127.907 26.1449 126.264 26.9409 125.588 26.4664C124.992 26.0482 124.917 25.4483 125.362 24.7692C125.585 24.4296 125.719 24.2503 126.11 23.858C126.125 23.8346 126.152 23.8192 126.167 23.7958C126.282 23.6202 126.26 23.348 126.054 23.2033C125.618 22.8977 125.02 23.7598 124.743 24.1813L124.674 24.2867C124.045 25.2468 124.119 26.4612 125.128 27.1689C125.987 27.7721 127.089 27.4175 127.947 26.8743C127.69 27.497 127.375 28.2331 127.067 28.9063C125.777 29.2661 124.365 29.8645 123.666 30.93Z" fill="#C2000D"/>
<path d="M133.915 27.8845C133.817 27.8048 133.686 27.7697 133.561 27.7946C133.495 27.8126 132.988 27.9231 132.598 28.4354C132.165 29.0033 132.257 29.7827 132.811 30.2341C133.125 30.4907 133.478 30.6517 133.782 30.7373C133.301 31.0677 132.995 31.3776 132.783 31.656C132.392 32.1682 132.292 33.0616 132.911 33.566C133.247 33.8404 133.676 33.9012 134.12 33.8486C134.236 33.8349 134.328 33.7835 134.396 33.6944C134.532 33.5162 134.499 33.2364 134.325 33.0948C134.238 33.024 134.137 32.9955 134.021 33.0092C133.692 33.048 133.517 32.9775 133.42 32.8979C133.279 32.7828 133.23 32.4542 133.434 32.1869C133.722 31.8083 134.267 31.2778 135.719 30.7109C135.786 30.6929 135.847 30.6349 135.89 30.5792C136.017 30.4122 136.014 30.139 135.819 29.9797C135.721 29.9 135.601 29.8738 135.457 29.9009C135.39 29.9189 134.188 30.2739 133.32 29.5659C133.114 29.3978 133.088 29.1779 133.249 28.9663C133.554 28.5654 133.771 28.7424 133.975 28.4752C134.102 28.3081 134.099 28.0349 133.915 27.8845Z" fill="#C2000D"/>
<path d="M140.982 35.9674C141.009 35.9353 141.026 35.8937 141.042 35.8522C141.284 35.2603 141.11 34.5762 140.662 34.1734C139.518 33.1429 137.45 33.4275 136.495 34.5632C135.991 35.1632 135.868 36.0697 136.544 36.6787C137.21 37.2782 138.133 37.5068 139.116 37.469C138.935 37.8145 138.594 38.5242 138.937 38.8334C139.114 38.9927 139.385 38.9537 139.52 38.793C139.574 38.7287 139.607 38.6457 139.621 38.564C139.662 38.1677 139.874 37.7191 140.289 37.2262C140.415 37.0762 140.424 36.783 140.247 36.6237C140.153 36.5394 140.034 36.5073 139.909 36.5261C138.676 36.7528 137.678 36.5698 137.085 36.0358C136.825 35.8016 136.813 35.4896 137.12 35.1253C137.786 34.3325 139.394 34.1605 140.122 34.8163C140.299 34.9755 140.388 35.2821 140.297 35.5205C140.231 35.6865 140.264 35.886 140.399 36.0078C140.587 36.1764 140.847 36.1281 140.982 35.9674Z" fill="#C2000D"/>
<path d="M145.842 39.8166C146.162 39.4637 145.706 38.9046 145.414 38.622C144.409 37.6477 142.712 37.8543 141.819 38.8404C141.058 39.6812 141.097 40.8684 141.912 41.6576C142.465 42.1935 143.079 42.5359 144.107 42.7138C144.254 42.7392 144.379 42.6848 144.473 42.581C144.633 42.4045 144.604 42.1234 144.453 41.9773C144.393 41.9188 144.314 41.8811 144.235 41.8636C143.305 41.7026 142.928 41.4732 142.475 41.0348C141.983 40.5574 141.962 39.9336 142.423 39.425C143.033 38.7503 144.247 38.6602 144.85 39.2448C145.031 39.4202 145.102 39.5085 145.157 39.6779C145.178 39.7377 145.219 39.7968 145.259 39.8357C145.41 39.9819 145.673 40.0035 145.842 39.8166Z" fill="#C2000D"/>
<path d="M153.571 51.6173C153.494 51.5356 153.398 51.4937 153.281 51.4919C152.97 51.487 152.815 51.4241 152.604 51.1992C152.126 50.6882 153.13 49.3852 154.219 48.1943C154.367 48.0255 154.372 47.7638 154.218 47.6003C154.085 47.4572 153.871 47.4337 153.714 47.5318C152.544 48.2684 150.975 49.049 150.219 48.2416C149.779 47.7714 149.905 47.1693 150.538 46.535C150.923 46.1485 151.091 46.0001 151.553 45.6953C151.573 45.6755 151.603 45.6659 151.622 45.6461C151.771 45.4974 151.804 45.2261 151.632 45.0421C151.498 44.899 151.274 44.8854 151.127 44.9737C150.076 45.6114 147.99 46.4744 147.243 45.6772C146.86 45.2684 146.867 44.8658 147.262 44.4693C147.767 43.9639 148.249 43.6393 149.023 43.2589C149.063 43.2394 149.102 43.2199 149.131 43.1901C149.28 43.0415 149.313 42.7701 149.141 42.5862C149.017 42.4533 148.822 42.4301 148.665 42.5081C147.871 42.9083 147.272 43.2714 146.688 43.8561C145.996 44.5499 145.98 45.5565 146.65 46.2719C147.377 47.0486 148.478 46.9352 149.387 46.6778C149.046 47.3369 149.004 48.1719 149.626 48.8362C150.372 49.6334 151.405 49.529 152.276 49.2307C151.787 49.9579 151.274 51.007 152.011 51.7939C152.375 52.1823 152.801 52.33 153.268 52.3374C153.384 52.3393 153.482 52.3006 153.561 52.2213C153.719 52.0627 153.724 51.7808 153.571 51.6173ZM158.871 44.1175C159.039 43.949 159.034 43.6771 158.881 43.5136L158.861 43.4931C156.704 41.4754 156.482 41.3611 153.612 38.2951C153.459 38.1315 153.186 38.1272 153.028 38.2858C152.87 38.4444 152.865 38.7262 153.019 38.8897C155.889 41.9558 156.168 42.1314 158.306 44.1287C158.469 44.2823 158.723 44.2662 158.871 44.1175Z" fill="#C2000D"/>
<path d="M158.036 54.1189C158.16 54.2524 158.354 54.2767 158.511 54.1995C158.737 54.0936 159.037 54.1705 159.199 54.3451C159.484 54.6533 159.456 55.0756 159.078 55.4502C158.382 56.1401 156.769 56.0453 156.065 55.2851C155.77 54.9667 155.721 54.0493 157.093 52.6891C159.867 49.939 161.224 49.7364 161.528 50.0651C161.69 50.2397 161.71 50.6731 161.312 51.0674C160.726 51.649 160.368 51.5507 160.348 51.5503C160.194 51.5067 160.037 51.5436 159.938 51.6422C159.759 51.8196 159.782 52.092 159.925 52.2461C159.963 52.2872 160.02 52.3287 160.078 52.3501C160.204 52.4031 160.968 52.5906 161.883 51.6838C162.48 51.0923 162.724 50.1208 162.125 49.4737C161.098 48.3642 159.117 49.5001 156.523 52.0727C155.111 53.4724 154.622 54.9623 155.468 55.8765C156.476 56.9654 158.555 57.1508 159.649 56.0665C160.265 55.4554 160.461 54.4728 159.795 53.7537C159.386 53.312 158.718 53.1668 158.157 53.4468C158.118 53.4661 158.079 53.4854 158.049 53.515C157.9 53.6629 157.865 53.934 158.036 54.1189Z" fill="#C2000D"/>
<path d="M159.356 64.7466C159.827 64.1919 160.698 63.793 161.717 63.5662C161.442 63.9773 161.163 64.3482 160.909 64.6469C160.229 65.447 159.529 65.4718 159.291 65.2551C159.218 65.1891 159.174 64.96 159.356 64.7466ZM158.734 64.1813C158.372 64.608 158.198 65.3958 158.747 65.8952C159.544 66.6207 160.76 66.119 161.531 65.2122C161.957 64.7108 162.429 64.0249 162.837 63.3935C163.709 63.2973 164.616 63.3096 165.235 63.3809C165.372 63.3922 165.506 63.3433 165.596 63.2367C165.751 63.0553 165.713 62.7753 165.558 62.634C165.496 62.5774 165.424 62.5316 165.336 62.5271C164.806 62.4603 164.132 62.4531 163.403 62.4898C164.108 61.3149 164.744 60.1343 165.111 59.4652C165.207 59.2876 165.173 59.0679 165.028 58.9359C164.852 58.7758 164.601 58.8121 164.454 58.9627C163.534 59.9598 161.806 60.5447 161.195 59.9888C160.657 59.4988 160.657 58.8936 161.183 58.2749C161.446 57.9655 161.601 57.8042 162.038 57.4635C162.056 57.4422 162.084 57.4303 162.102 57.409C162.238 57.2489 162.25 56.9758 162.064 56.8062C161.67 56.4482 160.97 57.2295 160.643 57.6135L160.562 57.7095C159.818 58.5843 159.74 59.7997 160.651 60.6289C161.428 61.3355 162.565 61.1214 163.483 60.6893C163.15 61.2755 162.746 61.9671 162.357 62.5972C161.034 62.7931 159.559 63.2105 158.734 64.1813Z" fill="#C2000D"/>
<path d="M171.154 68.7738C170.868 68.526 170.593 68.8431 170.244 68.5402C169.8 68.1548 170.624 66.7389 171.462 65.7058C171.603 65.5318 171.578 65.2511 171.409 65.1042C171.24 64.9574 170.998 64.9886 170.862 65.1117C170.711 65.2765 168.68 67.182 167.601 66.2459C167.052 65.7687 167.038 65.1637 167.549 64.5329C168.122 63.8261 168.307 63.82 168.448 63.646C168.58 63.4828 168.586 63.2096 168.396 63.0444C168.269 62.9343 168.091 62.9094 167.923 63.0049C167.877 63.0392 167.479 63.2863 166.915 63.9823C166.192 64.8741 166.142 66.0908 167.072 66.8984C167.865 67.5867 168.808 67.4233 169.55 67.0855C169.274 67.716 169.049 68.6146 169.715 69.1927C170.255 69.6608 170.896 69.5137 170.954 69.5086C171.041 69.4909 171.134 69.4423 171.196 69.3662C171.328 69.2031 171.323 68.9206 171.154 68.7738ZM173.269 58.1433C173.208 58.2195 173.178 58.3231 173.176 58.4142C173.154 59.285 173.547 59.8669 173.939 60.2064C174.552 60.7387 175.377 61.01 176.249 60.9336C176.365 60.9234 176.459 60.8748 176.529 60.7878C176.67 60.6138 176.646 60.3331 176.477 60.1862C176.392 60.1128 176.292 60.0812 176.175 60.0914C175.497 60.1508 174.912 59.9394 174.468 59.5539C174.224 59.3428 173.99 59.0097 173.997 58.4231C173.996 58.2919 173.946 58.175 173.851 58.0924C173.671 57.9364 173.411 57.9693 173.269 58.1433Z" fill="#C2000D"/>
<path d="M181.219 76.8729C181.131 76.8025 181.03 76.7744 180.914 76.7887C180.605 76.8268 180.443 76.786 180.203 76.5925C179.659 76.1527 180.473 74.7242 181.388 73.3948C181.512 73.2072 181.48 72.9475 181.306 72.8068C181.153 72.6836 180.938 72.6898 180.796 72.8088C179.739 73.6995 178.291 74.6889 177.431 73.994C176.93 73.5894 176.972 72.9759 177.512 72.2606C177.84 71.8247 177.986 71.6546 178.402 71.2891C178.419 71.2667 178.447 71.2532 178.463 71.2308C178.59 71.0632 178.586 70.7899 178.39 70.6316C178.237 70.5085 178.014 70.5259 177.88 70.6336C176.926 71.4102 174.978 72.5526 174.128 71.8665C173.693 71.5147 173.643 71.1152 173.981 70.6681C174.411 70.0981 174.843 69.7102 175.559 69.2266C175.595 69.2019 175.631 69.1771 175.656 69.1436C175.783 68.976 175.778 68.7027 175.582 68.5444C175.441 68.4301 175.245 68.4339 175.1 68.5329C174.368 69.0388 173.825 69.4809 173.327 70.1404C172.737 70.9228 172.86 71.9214 173.623 72.5371C174.45 73.2056 175.526 72.9413 176.391 72.5609C176.144 73.2605 176.217 74.0929 176.925 74.6647C177.775 75.3507 178.784 75.1047 179.606 74.6891C179.222 75.4765 178.859 76.5858 179.697 77.2631C180.111 77.5973 180.554 77.6848 181.017 77.6276C181.133 77.6133 181.225 77.5615 181.292 77.4721C181.427 77.2932 181.393 77.0136 181.219 76.8729ZM185.436 68.7164C185.579 68.5264 185.536 68.258 185.362 68.1172L185.34 68.0997C182.924 66.4002 182.688 66.3177 179.42 63.679C179.246 63.5382 178.976 63.5716 178.841 63.7504C178.706 63.9293 178.74 64.2089 178.915 64.3496C182.182 66.9884 182.483 67.1236 184.878 68.8055C185.06 68.935 185.309 68.8841 185.436 68.7164Z" fill="#C2000D"/>
<path d="M184.147 80.7459C184.633 81.1005 185.107 81.3246 185.911 81.4607C186.064 81.4853 186.23 81.4157 186.316 81.2884C186.458 81.0801 186.383 80.8175 186.213 80.6938C186.168 80.6608 186.104 80.6312 186.043 80.6213C185.322 80.5116 185.038 80.3566 184.619 80.0515C184.438 79.9196 184.304 79.7694 184.207 79.6126C185.139 79.9105 186.386 79.6942 186.977 78.8262C187.418 78.1781 187.267 77.306 186.633 76.8443C185.626 76.1104 184.337 76.487 183.676 77.4591C182.927 78.5586 183.061 79.9543 184.147 80.7459ZM186.298 78.3314C185.904 78.9101 184.685 79.0603 184.062 78.6068C184.105 78.3953 184.205 78.1738 184.354 77.9539C184.796 77.3058 185.583 77.1181 186.16 77.5387C186.432 77.7366 186.487 78.0537 186.298 78.3314Z" fill="#C2000D"/>
<path d="M195.08 84.3293C195.237 84.4214 195.43 84.3889 195.559 84.2699C195.746 84.1038 196.056 84.0911 196.261 84.2116C196.623 84.4242 196.717 84.836 196.461 85.3025C195.99 86.1619 194.413 86.5344 193.52 86.01C193.146 85.7903 192.837 84.9274 193.765 83.2333C195.643 79.8082 196.888 79.2249 197.275 79.4517C197.48 79.5722 197.623 79.9807 197.354 80.4718C196.957 81.1961 196.585 81.2049 196.566 81.2101C196.405 81.2129 196.265 81.2931 196.198 81.4159C196.077 81.6369 196.177 81.8905 196.358 81.9968C196.407 82.0252 196.474 82.0483 196.535 82.0521C196.671 82.0668 197.459 82.0264 198.078 80.897C198.482 80.1604 198.439 79.1616 197.679 78.7151C196.375 77.9497 194.797 79.604 193.041 82.8081C192.085 84.5513 192.041 86.1158 193.116 86.7466C194.396 87.4978 196.445 87.0781 197.186 85.7278C197.603 84.9666 197.51 83.9711 196.665 83.475C196.146 83.1703 195.462 83.2234 195.004 83.6521C194.972 83.6818 194.939 83.7116 194.919 83.7484C194.818 83.9325 194.862 84.2017 195.08 84.3293Z" fill="#C2000D"/>
<path d="M202.011 84.985C201.83 84.9647 201.652 85.0715 201.581 85.2465C201.413 85.7207 201.243 86.5466 201.178 87.2858C201.093 88.2621 201.091 88.6138 201.141 89.3237C201.151 89.536 201.333 89.6973 201.528 89.7192C201.779 89.7472 201.964 89.5568 201.982 89.3476C202.036 88.7339 201.933 88.4548 201.978 87.7838C202.79 87.8185 203.628 87.7153 204.268 87.2942L204.239 87.629C204.171 88.41 204.182 89.7351 205.448 89.8771C205.879 89.9254 206.275 89.7444 206.622 89.4595C206.713 89.3852 206.764 89.2922 206.773 89.1806C206.793 88.9575 206.615 88.7404 206.392 88.7154C206.281 88.7029 206.18 88.7339 206.089 88.8082C205.832 89.0188 205.646 89.0543 205.521 89.0402C205.118 88.995 204.996 88.6152 205.074 87.7226L205.232 85.9095C205.249 85.7142 205.102 85.4723 204.851 85.4442C204.656 85.4224 204.477 85.5432 204.419 85.7337C204.14 86.6742 203.227 86.9944 202.065 86.9486C202.141 86.3938 202.275 85.8313 202.368 85.5602C202.386 85.5199 202.39 85.4781 202.392 85.4502C202.41 85.241 202.262 85.013 202.011 84.985Z" fill="#C2000D"/>
<path d="M213.307 87.0941C213.308 87.0521 213.296 87.0093 213.283 86.9665C213.11 86.3534 212.551 85.9277 211.95 85.8922C210.413 85.8012 208.957 87.3134 208.902 88.7964C208.873 89.5799 209.334 90.3643 210.242 90.418C211.137 90.471 212.006 90.0737 212.758 89.4312C212.828 89.8139 212.996 90.581 213.457 90.6083C213.694 90.6223 213.884 90.4232 213.892 90.2134C213.895 90.1294 213.87 90.0438 213.831 89.9714C213.619 89.6364 213.511 89.1532 213.534 88.5097C213.542 88.3138 213.368 88.0792 213.131 88.0652C213.005 88.0577 212.891 88.1071 212.804 88.2C211.97 89.1462 211.07 89.6258 210.273 89.5786C209.924 89.5579 209.723 89.3217 209.74 88.846C209.779 87.8107 210.941 86.6737 211.919 86.7316C212.157 86.7457 212.416 86.9292 212.491 87.172C212.541 87.3432 212.69 87.4783 212.872 87.489C213.123 87.5039 213.299 87.304 213.307 87.0941Z" fill="#C2000D"/>
<path d="M226.152 89.1199C226.041 89.1247 225.945 89.1708 225.866 89.2582C225.656 89.4913 225.506 89.5678 225.198 89.5809C224.499 89.6107 224.193 87.9985 224.028 86.3943C224 86.1713 223.808 85.9973 223.584 86.0069C223.388 86.0152 223.229 86.1621 223.197 86.3456C222.97 87.7143 222.51 89.4153 221.405 89.4624C220.762 89.4898 220.396 89.001 220.343 88.1065C220.311 87.5615 220.311 87.3373 220.391 86.7875C220.389 86.7595 220.402 86.731 220.4 86.703C220.388 86.4934 220.207 86.2909 219.956 86.3017C219.76 86.31 219.601 86.4709 219.569 86.6404C219.347 87.8548 218.604 90.002 217.513 90.0486C216.954 90.0724 216.658 89.8048 216.625 89.2458C216.582 88.533 216.66 87.9553 216.891 87.1188C216.903 87.0763 216.914 87.0338 216.912 86.9918C216.899 86.7822 216.719 86.5797 216.467 86.5905C216.285 86.5982 216.139 86.7305 216.093 86.9006C215.864 87.7651 215.736 88.457 215.785 89.2816C215.843 90.2599 216.584 90.9288 217.563 90.8871C218.626 90.8418 219.273 89.9315 219.685 89.0733C219.95 89.7625 220.546 90.3396 221.455 90.3009C222.546 90.2544 223.154 89.4018 223.51 88.546C223.729 89.3913 224.171 90.4653 225.248 90.4194C225.779 90.3968 226.173 90.1698 226.488 89.8201C226.567 89.7327 226.604 89.6331 226.597 89.5213C226.584 89.2977 226.376 89.1103 226.152 89.1199Z" fill="#C2000D"/>
<path d="M233.665 87.8042C233.289 87.8394 233.316 88.2586 232.856 88.3016C232.271 88.3564 231.861 86.7777 231.73 85.4542C231.708 85.2313 231.493 85.0545 231.27 85.0754C231.047 85.0963 230.898 85.293 230.888 85.4767C230.896 85.701 230.793 88.4946 229.372 88.6276C228.647 88.6954 228.212 88.2861 228.132 87.4781C228.042 86.5725 228.169 86.4341 228.147 86.2112C228.126 86.0022 227.938 85.8089 227.687 85.8324C227.52 85.848 227.376 85.9599 227.325 86.1475C227.316 86.2045 227.207 86.6647 227.296 87.5563C227.409 88.6987 228.228 89.5782 229.455 89.4635C230.5 89.3657 231.054 88.5687 231.343 87.7964C231.589 88.4342 232.061 89.2197 232.939 89.1375C233.65 89.071 234.002 88.5038 234.04 88.4581C234.088 88.3832 234.121 88.2818 234.111 88.1843C234.09 87.9753 233.888 87.7833 233.665 87.8042Z" fill="#C2000D"/>
<path d="M236.133 87.3367C236.035 86.8422 236.441 86.1491 237.278 85.4001C237.33 85.5183 237.374 85.6667 237.401 85.8041C237.574 86.6833 237.216 87.5522 236.626 87.668C236.365 87.7192 236.184 87.5977 236.133 87.3367ZM235.013 85.2735C235.11 85.2546 235.2 85.2083 235.269 85.1234C235.484 84.8387 235.743 84.7024 236.031 84.6459C236.32 84.5893 236.542 84.6313 236.737 84.7501C235.861 85.521 235.106 86.468 235.308 87.4983C235.446 88.1989 236.087 88.6296 236.788 88.4922C237.502 88.3522 237.935 87.7965 238.135 87.2152C238.584 87.6836 239.234 87.87 239.921 87.7354C240.676 87.5872 241.314 87.2767 242.066 86.53C242.174 86.4234 242.204 86.289 242.177 86.1516C242.132 85.9181 241.89 85.7799 241.684 85.8203C241.602 85.8365 241.525 85.8801 241.464 85.9348C240.784 86.6103 240.377 86.79 239.759 86.9112C239.085 87.0431 238.576 86.7008 238.443 86.0277C238.36 85.6018 238.441 84.9295 239.114 84.2128C239.254 84.0568 239.411 83.9119 239.61 83.7589C239.72 83.666 239.8 83.4934 239.767 83.3285C239.719 83.0813 239.483 82.9705 239.277 83.011C239.236 83.019 239.183 83.0435 239.145 83.0654C238.584 83.4037 237.973 83.7802 237.414 84.2036C237.006 83.8699 236.46 83.7059 235.869 83.8217C235.416 83.9106 234.948 84.1449 234.595 84.5993C234.515 84.7006 234.499 84.8323 234.52 84.9422C234.566 85.1757 234.794 85.3166 235.013 85.2735Z" fill="#C2000D"/>
<path d="M249.666 78.2553C249.641 78.2213 249.605 78.1956 249.569 78.1698C249.057 77.798 248.363 77.8187 247.877 78.1733C246.632 79.0802 246.438 81.1965 247.309 82.3976C247.77 83.0322 248.61 83.3555 249.345 82.8196C250.069 82.292 250.497 81.4264 250.682 80.4424C250.972 80.6989 251.574 81.1954 251.948 80.9233C252.14 80.7832 252.164 80.506 252.04 80.336C251.991 80.268 251.919 80.2165 251.844 80.1846C251.474 80.0559 251.093 79.7448 250.714 79.2236C250.599 79.0649 250.321 78.9908 250.128 79.131C250.027 79.2052 249.969 79.3165 249.959 79.4452C249.897 80.7197 249.497 81.6698 248.852 82.1397C248.569 82.3459 248.268 82.2882 247.988 81.9029C247.38 81.0644 247.578 79.4303 248.37 78.8532C248.562 78.713 248.876 78.6923 249.084 78.8355C249.228 78.9385 249.426 78.9498 249.573 78.8426C249.777 78.6942 249.789 78.4253 249.666 78.2553Z" fill="#C2000D"/>
<path d="M257.706 73.9092C257.642 73.9638 257.596 74.0398 257.57 74.1174C257.306 75.0429 257.04 75.3999 256.561 75.8093C256.039 76.2551 255.43 76.2052 254.988 75.6805C254.663 75.295 254.414 74.5867 254.991 73.2282C255.052 73.0837 255.027 72.9022 254.928 72.7845C254.766 72.5917 254.498 72.5997 254.338 72.7362L254.285 72.7816C253.21 74.0694 252.994 75.8562 253.018 77.1441C252.626 76.6135 252.178 76.0385 251.736 75.5138C251.592 75.3425 251.316 75.32 251.146 75.4655C250.976 75.6111 250.953 75.8884 251.097 76.0597C252.063 77.2055 253.116 78.7174 253.249 79.0274C253.266 79.0686 253.293 79.1007 253.32 79.1328C253.455 79.2934 253.707 79.354 253.91 79.1811C254.037 79.0719 254.091 78.8969 254.036 78.7229C253.963 78.5275 253.706 77.0709 253.967 75.5769C254.057 75.8136 254.196 76.0443 254.349 76.2263C255.08 77.0937 256.24 77.1887 257.102 76.4517C257.687 75.9514 258.091 75.3664 258.383 74.3434C258.424 74.1973 258.386 74.0646 258.296 73.9575C258.142 73.7754 257.865 73.7727 257.706 73.9092Z" fill="#C2000D"/>
<path d="M264.476 74.5191C264.036 73.9391 263.824 72.9874 263.805 71.9207C264.146 72.2767 264.447 72.6277 264.684 72.94C265.318 73.7766 265.205 74.4846 264.951 74.682C264.874 74.7421 264.645 74.7422 264.476 74.5191ZM263.813 75.0342C264.151 75.4803 264.873 75.8063 265.459 75.3513C266.31 74.6903 266.067 73.373 265.348 72.4249C264.95 71.9007 264.384 71.294 263.859 70.763C263.936 69.8696 264.126 68.9607 264.315 68.3531C264.353 68.2175 264.332 68.0742 264.247 67.9626C264.103 67.773 263.827 67.7567 263.662 67.8855C263.595 67.937 263.537 67.9997 263.516 68.0872C263.348 68.6073 263.21 69.2819 263.102 70.0208C262.113 69.0873 261.105 68.2217 260.535 67.7249C260.384 67.5945 260.166 67.586 260.011 67.7061C259.823 67.8521 259.809 68.1113 259.925 68.2872C260.701 69.4035 260.925 71.2502 260.272 71.7567C259.697 72.2031 259.117 72.0865 258.626 71.4396C258.381 71.1161 258.257 70.929 258.015 70.4253C257.998 70.403 257.992 70.3721 257.975 70.3498C257.848 70.1825 257.589 70.1182 257.39 70.2727C256.97 70.5989 257.582 71.4527 257.887 71.8543L257.963 71.9546C258.656 72.8693 259.807 73.1814 260.78 72.426C261.609 71.7822 261.626 70.5996 261.391 69.5947C261.888 70.0417 262.473 70.5805 263.001 71.0918C262.93 72.4581 263.043 74.0191 263.813 75.0342Z" fill="#C2000D"/>
<path d="M267.969 62.8442C267.703 63.1127 267.988 63.422 267.663 63.7502C267.249 64.168 265.942 63.1997 265.009 62.2519C264.852 62.0922 264.576 62.0918 264.419 62.251C264.261 62.4101 264.271 62.6592 264.378 62.8087C264.526 62.9783 266.204 65.2223 265.2 66.2368C264.687 66.754 264.097 66.7133 263.527 66.1346C262.889 65.4861 262.899 65.2969 262.742 65.1373C262.595 64.9876 262.329 64.9573 262.152 65.1363C262.034 65.2557 261.994 65.435 262.072 65.6144C262.102 65.6642 262.308 66.0929 262.936 66.7314C263.742 67.5495 264.922 67.7107 265.789 66.8354C266.528 66.0895 266.451 65.1131 266.186 64.3257C266.776 64.6653 267.631 64.9754 268.252 64.3488C268.754 63.8415 268.667 63.174 268.667 63.1142C268.657 63.0245 268.618 62.9249 268.549 62.855C268.402 62.7054 268.127 62.685 267.969 62.8442Z" fill="#C2000D"/>
<path d="M267.395 60.1421C267.017 59.993 266.707 59.1934 266.882 58.7356C266.977 58.487 267.175 58.3997 267.422 58.4974C267.865 58.6723 268.183 59.1742 268.37 59.549L268.345 59.6144C268.155 60.1115 267.798 60.3016 267.395 60.1421ZM269.65 62.0865C269.665 62.0473 269.675 62.0211 269.677 61.9767C269.727 61.3342 269.571 60.2492 269.243 59.4576C269.308 58.896 269.142 58.3488 268.941 57.8931L268.993 57.9137C270.347 58.4486 271.137 58.4595 271.212 58.4591C271.393 58.4554 271.531 58.3293 271.586 58.1853C271.676 57.9499 271.54 57.7157 271.345 57.6386C271.098 57.5409 270.672 57.6739 269.292 57.1288C268.485 56.8099 268.025 56.3271 267.842 56.2551C267.647 56.1779 267.384 56.2396 267.289 56.4881C267.234 56.632 267.262 56.7937 267.368 56.9105C267.368 56.9105 267.687 57.2924 267.985 57.8466C267.899 57.7975 267.812 57.7485 267.721 57.7125C267.057 57.4502 266.355 57.7598 266.101 58.427C265.777 59.2773 266.171 60.5619 267.095 60.9271C267.707 61.1688 268.316 60.9876 268.714 60.5728C268.832 61.0864 268.868 61.5821 268.842 61.8877C268.829 62.0784 268.94 62.2578 269.11 62.3247C269.344 62.4173 269.575 62.2827 269.65 62.0865Z" fill="#C2000D"/>
<path d="M271.736 55.1633C271.28 54.9489 270.957 54.2092 270.84 53.0868C270.966 53.115 271.111 53.1677 271.238 53.2273C272.048 53.6084 272.542 54.4129 272.291 54.9602C272.181 55.202 271.977 55.2765 271.736 55.1633ZM269.417 54.8468C269.458 54.7577 269.474 54.6567 269.445 54.5506C269.341 54.2075 269.381 53.9172 269.504 53.6499C269.626 53.3827 269.79 53.2275 269.999 53.1403C270.112 54.3068 270.436 55.4803 271.386 55.927C272.033 56.2307 272.754 55.9666 273.052 55.3175C273.355 54.6557 273.158 53.9755 272.805 53.4692C273.445 53.3832 273.975 52.967 274.266 52.3306C274.587 51.6306 274.708 50.9295 274.543 49.8776C274.52 49.7273 274.429 49.6228 274.302 49.5632C274.087 49.462 273.835 49.5755 273.747 49.7664C273.712 49.8428 273.703 49.931 273.712 50.0125C273.861 50.9643 273.768 51.4006 273.506 51.9733C273.22 52.5969 272.647 52.8069 272.026 52.515C271.633 52.3304 271.138 51.8655 270.951 50.8959C270.907 50.6896 270.881 50.4765 270.873 50.2252C270.862 50.0809 270.769 49.9135 270.617 49.8421C270.389 49.7349 270.163 49.8603 270.075 50.0512C270.058 50.0894 270.047 50.1462 270.042 50.1904C269.988 50.8457 269.936 51.5638 269.953 52.2675C269.445 52.4003 268.995 52.7453 268.744 53.2926C268.551 53.7126 268.468 54.2303 268.629 54.7857C268.665 54.9105 268.761 55.0023 268.862 55.0499C269.078 55.1512 269.324 55.0504 269.417 54.8468Z" fill="#C2000D"/>
</svg>
