<svg width="362" height="382" viewBox="0 0 362 382" fill="none" xmlns="http://www.w3.org/2000/svg">
<path d="M31.6847 155.742L20.048 150.21L22.1235 145.844C22.5462 144.955 23.0036 144.3 23.4958 143.879C23.9853 143.45 24.5478 143.201 25.1833 143.133C25.8161 143.058 26.3997 143.147 26.9341 143.401C27.4316 143.638 27.8358 143.995 28.1467 144.474C28.4576 144.953 28.6184 145.529 28.6292 146.202C29.1702 145.597 29.7787 145.224 30.4547 145.085C31.1333 144.94 31.8112 145.029 32.4886 145.351C33.0337 145.61 33.4863 145.968 33.8466 146.425C34.2041 146.874 34.4294 147.328 34.5224 147.787C34.6154 148.247 34.606 148.765 34.4943 149.341C34.3798 149.909 34.1464 150.564 33.7942 151.305L31.6847 155.742ZM25.6698 150.994L26.866 148.478C27.1905 147.795 27.3783 147.285 27.4292 146.946C27.4989 146.499 27.4454 146.113 27.2686 145.789C27.0943 145.46 26.8034 145.198 26.396 145.004C26.0097 144.821 25.627 144.752 25.2479 144.799C24.8635 144.843 24.5366 145.012 24.2672 145.306C23.9926 145.597 23.6565 146.161 23.259 146.997L22.1533 149.323L25.6698 150.994ZM31.0436 153.549L32.421 150.652C32.6574 150.154 32.805 149.796 32.8635 149.578C32.9686 149.193 33.0036 148.846 32.9687 148.538C32.9337 148.229 32.8125 147.931 32.6049 147.645C32.3921 147.355 32.1005 147.123 31.7301 146.947C31.2962 146.74 30.8676 146.673 30.4445 146.744C30.016 146.813 29.6439 147.016 29.3282 147.352C29.0098 147.681 28.6744 148.215 28.3222 148.956L27.043 151.647L31.0436 153.549Z" fill="#C2000D"/>
<path d="M45.8918 124.109L46.9818 122.981C47.7412 123.756 48.1558 124.608 48.2256 125.536C48.2942 126.456 48.0245 127.325 47.4165 128.143C46.6547 129.168 45.7075 129.746 44.5749 129.875C43.441 129.996 42.2485 129.592 40.9975 128.663C40.1885 128.061 39.5802 127.402 39.1727 126.683C38.7651 125.964 38.6135 125.22 38.7178 124.451C38.821 123.673 39.1119 122.962 39.5906 122.318C40.1952 121.504 40.8966 120.992 41.6948 120.783C42.4884 120.569 43.318 120.671 44.1836 121.088L43.4568 122.464C42.8661 122.208 42.332 122.136 41.8544 122.248C41.3803 122.355 40.986 122.621 40.6715 123.044C40.1962 123.684 40.0406 124.375 40.2045 125.117C40.3637 125.856 40.9395 126.594 41.9319 127.331C42.9384 128.079 43.813 128.429 44.5558 128.383C45.2986 128.336 45.9006 128.002 46.3618 127.381C46.7322 126.883 46.8886 126.353 46.831 125.792C46.7734 125.231 46.4603 124.67 45.8918 124.109Z" fill="#C2000D"/>
<path d="M62.534 106.201L63.8748 105.244C64.3309 106.122 64.4806 106.991 64.3238 107.851C64.167 108.711 63.6894 109.508 62.891 110.241C61.8855 111.165 60.8038 111.589 59.6458 111.515C58.4881 111.433 57.396 110.833 56.3695 109.715C55.3073 108.558 54.7806 107.387 54.7896 106.202C54.7985 105.016 55.2777 103.987 56.2271 103.115C57.1463 102.271 58.1845 101.894 59.3418 101.985C60.4991 102.076 61.5989 102.688 62.6413 103.823C62.7048 103.892 62.7977 103.998 62.9202 104.14L57.7935 108.849C58.5302 109.564 59.275 109.946 60.0276 109.995C60.7803 110.043 61.4436 109.804 62.0176 109.277C62.4448 108.885 62.7064 108.438 62.8024 107.936C62.8984 107.434 62.8089 106.856 62.534 106.201ZM56.9783 107.831L60.8169 104.306C60.234 103.775 59.689 103.476 59.1817 103.409C58.3984 103.301 57.7111 103.518 57.1199 104.061C56.5848 104.553 56.2983 105.146 56.2605 105.841C56.227 106.532 56.4662 107.196 56.9783 107.831Z" fill="#C2000D"/>
<path d="M92.1935 78.0265L98.144 75.4014L101.386 82.7512L102.311 82.3433L103.904 85.9538L102.714 86.4788L101.646 84.0584L94.9235 87.0241L95.9913 89.4445L94.8012 89.9695L93.2084 86.359L93.9723 86.022C94.3807 84.1895 93.7878 81.5244 92.1935 78.0265ZM93.9282 78.6926C95.0437 81.5115 95.5194 83.7512 95.3554 85.4118L99.947 83.3862L97.2332 77.2346L93.9282 78.6926Z" fill="#C2000D"/>
<path d="M118.556 68.1368L125.736 66.5766L127.718 75.6977L126.181 76.0317L124.477 68.1903L120.38 69.0805L121.367 73.6239C121.598 74.6832 121.715 75.3892 121.72 75.742C121.724 76.0947 121.599 76.4306 121.345 76.7498C121.091 77.0689 120.671 77.2919 120.087 77.4188C119.727 77.4972 119.306 77.5645 118.827 77.6207L118.547 76.3324L119.226 76.185C119.546 76.1153 119.768 76.034 119.892 75.9412C120.015 75.8426 120.083 75.7168 120.098 75.5637C120.113 75.4106 120.034 74.939 119.862 74.1488L118.556 68.1368Z" fill="#C2000D"/>
<path d="M153.401 63.5385L153.518 72.8717L151.945 72.8914L151.899 69.253L150.985 69.2644C150.429 69.2713 150.014 69.3497 149.74 69.4996C149.472 69.6436 149.083 70.1085 148.571 70.8942L147.216 72.9503L145.257 72.9748L146.93 70.44C147.442 69.666 147.955 69.226 148.47 69.1199C147.566 69.0082 146.891 68.6914 146.445 68.1695C146.005 67.6476 145.78 67.044 145.772 66.3585C145.762 65.5499 146.038 64.8902 146.6 64.3792C147.168 63.8682 147.994 63.6059 149.077 63.5924L153.401 63.5385ZM151.845 64.8676L149.595 64.8956C148.651 64.9074 148.044 65.0615 147.772 65.3578C147.506 65.6542 147.376 65.9986 147.381 66.3911C147.388 66.9477 147.592 67.3554 147.994 67.614C148.401 67.8668 149.115 67.9868 150.134 67.9741L151.883 67.9523L151.845 64.8676Z" fill="#C2000D"/>
<path d="M196.001 75.7521L197.426 76.4084C196.945 77.3814 196.278 78.0541 195.425 78.4264C194.58 78.7949 193.67 78.8274 192.697 78.5238C191.478 78.1434 190.62 77.44 190.124 76.4137C189.635 75.3835 189.622 74.1244 190.087 72.6366C190.387 71.6745 190.809 70.8824 191.353 70.2602C191.897 69.6381 192.549 69.2493 193.309 69.0937C194.077 68.9343 194.844 68.9741 195.611 69.2131C196.578 69.515 197.293 70.008 197.755 70.6921C198.218 71.3707 198.396 72.1873 198.289 73.142L196.75 72.9105C196.797 72.2684 196.688 71.7404 196.424 71.3267C196.166 70.9147 195.785 70.6302 195.282 70.4732C194.521 70.2359 193.818 70.3172 193.171 70.717C192.526 71.1113 192.02 71.8986 191.652 73.0788C191.278 74.2758 191.236 75.2171 191.526 75.9028C191.815 76.5885 192.329 77.0464 193.068 77.2768C193.66 77.4617 194.212 77.4343 194.723 77.1946C195.233 76.9549 195.66 76.4741 196.001 75.7521Z" fill="#C2000D"/>
<path d="M217.262 87.0379C216.511 87.2007 215.846 87.2439 215.269 87.1677C214.697 87.0942 214.137 86.9109 213.59 86.6179C212.685 86.1342 212.108 85.5429 211.857 84.8439C211.609 84.1397 211.669 83.4441 212.037 82.757C212.252 82.354 212.539 82.0356 212.897 81.8017C213.263 81.5653 213.647 81.4252 214.049 81.3813C214.456 81.3401 214.874 81.3674 215.301 81.4631C215.613 81.5373 216.064 81.6886 216.653 81.9173C217.851 82.3855 218.766 82.669 219.397 82.7677C219.505 82.5793 219.572 82.4593 219.6 82.4076C219.904 81.8393 219.987 81.3685 219.848 80.995C219.66 80.4891 219.214 80.0482 218.512 79.6723C217.856 79.3212 217.308 79.1777 216.868 79.2415C216.437 79.303 215.99 79.5855 215.528 80.0892L214.263 79.1735C214.7 78.656 215.155 78.295 215.63 78.0906C216.108 77.881 216.666 77.8243 217.306 77.9206C217.948 78.0118 218.623 78.2467 219.331 78.6254C220.034 79.0013 220.56 79.3894 220.911 79.7897C221.262 80.19 221.473 80.572 221.544 80.9357C221.618 81.2943 221.594 81.6868 221.472 82.1134C221.391 82.3759 221.185 82.8171 220.853 83.4371L219.858 85.297C219.165 86.5938 218.753 87.4304 218.625 87.807C218.505 88.1811 218.448 88.5728 218.455 88.9819L216.998 88.2024C217.008 87.8357 217.096 87.4475 217.262 87.0379ZM218.813 83.8604C218.196 83.7962 217.343 83.5655 216.253 83.1684C215.635 82.9442 215.179 82.8202 214.887 82.7964C214.594 82.7726 214.329 82.8269 214.092 82.9593C213.858 83.0865 213.675 83.2715 213.546 83.5143C213.347 83.8863 213.32 84.2709 213.466 84.6682C213.618 85.0682 213.965 85.4133 214.507 85.7035C215.045 85.991 215.585 86.1305 216.128 86.1219C216.673 86.1081 217.153 85.9497 217.568 85.6466C217.887 85.4116 218.21 84.9867 218.539 84.3719L218.813 83.8604Z" fill="#C2000D"/>
<path d="M240.733 91.8752L242.597 93.4825L239.574 100.741L246.517 96.8634L248.241 98.3501L242.145 105.418L240.947 104.385L245.854 98.6946L238.857 102.583L237.785 101.659L240.952 93.9903L235.808 99.9539L234.637 98.9436L240.733 91.8752Z" fill="#C2000D"/>
<path d="M270.489 122.734L271.4 124.028L263.768 129.402L262.857 128.108L270.489 122.734ZM265.393 115.498L266.304 116.791L263.322 118.891L264.476 120.53C265.228 121.598 265.598 122.566 265.586 123.435C265.582 124.305 265.216 124.996 264.488 125.509C263.851 125.957 263.135 126.1 262.339 125.937C261.551 125.775 260.784 125.164 260.039 124.106L257.762 120.872L265.393 115.498ZM259.736 121.416L260.692 122.775C261.269 123.594 261.782 124.107 262.229 124.315C262.676 124.524 263.113 124.477 263.54 124.177C263.87 123.944 264.074 123.608 264.15 123.167C264.227 122.726 263.953 122.062 263.329 121.176L262.251 119.645L259.736 121.416Z" fill="#C2000D"/>
<path d="M274.866 147.898L280.653 149.189L283.585 144.557L284.343 146.384L282.87 148.545C282.589 148.954 282.35 149.288 282.153 149.547C282.609 149.637 283.017 149.725 283.376 149.811L286.016 150.419L286.74 152.164L281.445 150.868L278.213 155.967L277.468 154.173L279.413 151.292L279.941 150.522L275.6 149.667L274.866 147.898Z" fill="#C2000D"/>
<path d="M296.375 188.439L296.859 195.788L287.545 196.401L287.441 194.823L295.448 194.296L295.172 190.104L287.165 190.631L287.061 189.052L296.375 188.439Z" fill="#C2000D"/>
<path d="M284.05 216.949L296.819 218.857L296.606 220.283L295.407 220.104C295.826 220.51 296.12 220.942 296.288 221.4C296.463 221.858 296.505 222.389 296.415 222.991C296.297 223.78 295.99 224.445 295.494 224.987C294.999 225.529 294.357 225.898 293.569 226.094C292.787 226.291 291.956 226.324 291.075 226.192C290.131 226.051 289.304 225.753 288.596 225.297C287.893 224.849 287.387 224.27 287.079 223.56C286.775 222.857 286.676 222.149 286.783 221.436C286.861 220.915 287.041 220.462 287.324 220.077C287.605 219.699 287.934 219.401 288.31 219.185L283.816 218.513L284.05 216.949ZM291.94 219.577C290.752 219.399 289.838 219.508 289.198 219.904C288.558 220.3 288.187 220.84 288.085 221.524C287.981 222.22 288.185 222.857 288.696 223.437C289.213 224.024 290.089 224.41 291.323 224.594C292.499 224.77 293.416 224.658 294.075 224.259C294.732 223.866 295.111 223.333 295.211 222.66C295.311 221.994 295.086 221.356 294.537 220.747C293.993 220.144 293.128 219.754 291.94 219.577Z" fill="#C2000D"/>
<path d="M282.632 252.324L281.872 253.785C281.067 253.211 280.539 252.505 280.288 251.667C280.036 250.83 280.1 249.903 280.478 248.887C280.954 247.608 281.725 246.738 282.79 246.278C283.858 245.825 285.104 245.863 286.526 246.392C287.998 246.94 288.999 247.744 289.53 248.804C290.061 249.864 290.102 250.998 289.652 252.207C289.217 253.376 288.463 254.184 287.391 254.629C286.319 255.074 285.061 255.028 283.617 254.491C283.529 254.458 283.398 254.406 283.224 254.335L285.651 247.811C284.67 247.509 283.833 247.507 283.14 247.805C282.448 248.104 281.966 248.619 281.694 249.349C281.492 249.893 281.462 250.41 281.604 250.901C281.747 251.391 282.089 251.866 282.632 252.324ZM286.84 248.347L285.023 253.232C285.783 253.44 286.404 253.458 286.887 253.288C287.634 253.028 288.147 252.522 288.427 251.77C288.68 251.089 288.666 250.43 288.384 249.794C288.099 249.163 287.585 248.681 286.84 248.347Z" fill="#C2000D"/>
<path d="M278.811 275.906L275.369 281.425L268.553 277.173L268.018 278.031L264.67 275.943L265.358 274.839L267.603 276.239L271.492 270.005L269.247 268.605L269.935 267.501L273.284 269.589L272.842 270.298C273.535 272.042 275.525 273.912 278.811 275.906ZM277.002 276.332C274.494 274.629 272.841 273.045 272.042 271.58L269.386 275.839L275.091 279.397L277.002 276.332Z" fill="#C2000D"/>
<path d="M252.989 297.142C253.031 296.374 253.165 295.722 253.391 295.185C253.614 294.653 253.938 294.162 254.366 293.711C255.072 292.967 255.795 292.567 256.535 292.51C257.28 292.458 257.935 292.7 258.5 293.236C258.832 293.551 259.063 293.911 259.194 294.318C259.325 294.733 259.358 295.141 259.294 295.54C259.226 295.944 259.089 296.339 258.884 296.726C258.73 297.008 258.464 297.402 258.088 297.909C257.319 298.941 256.804 299.748 256.542 300.331C256.695 300.485 256.793 300.582 256.835 300.622C257.303 301.066 257.735 301.27 258.132 301.234C258.669 301.187 259.212 300.875 259.761 300.296C260.273 299.757 260.557 299.266 260.611 298.826C260.666 298.393 260.512 297.887 260.149 297.308L261.367 296.331C261.75 296.889 261.978 297.424 262.049 297.936C262.125 298.452 262.032 299.006 261.769 299.597C261.511 300.193 261.106 300.781 260.554 301.364C260.005 301.942 259.491 302.347 259.013 302.579C258.534 302.811 258.11 302.914 257.74 302.886C257.375 302.862 257.002 302.735 256.623 302.505C256.392 302.358 256.021 302.042 255.511 301.558L253.98 300.106C252.914 299.094 252.216 298.476 251.886 298.252C251.558 298.037 251.195 297.879 250.798 297.777L251.936 296.579C252.287 296.686 252.638 296.873 252.989 297.142ZM255.643 299.478C255.868 298.9 256.316 298.138 256.988 297.192C257.367 296.656 257.607 296.25 257.708 295.974C257.808 295.697 257.826 295.428 257.761 295.164C257.701 294.904 257.57 294.68 257.371 294.49C257.065 294.2 256.701 294.073 256.279 294.109C255.853 294.149 255.428 294.392 255.005 294.838C254.585 295.28 254.308 295.764 254.173 296.29C254.041 296.82 254.067 297.325 254.25 297.805C254.392 298.174 254.716 298.599 255.222 299.079L255.643 299.478Z" fill="#C2000D"/>
<path d="M242.299 318.235L240.996 319.133L238.791 315.935L235.18 318.426L237.386 321.623L236.084 322.522L230.784 314.838L232.086 313.94L234.437 317.348L238.047 314.857L235.696 311.45L236.999 310.552L242.299 318.235Z" fill="#C2000D"/>
<path d="M216.399 334.208L214.935 334.809L213.459 331.216L209.402 332.882L210.878 336.476L209.415 337.077L205.869 328.443L207.332 327.842L208.905 331.671L212.962 330.004L211.389 326.175L212.852 325.574L216.399 334.208Z" fill="#C2000D"/>
<path d="M178.563 345.935L177 346.182L175.543 336.962L177.105 336.715L178.563 345.935ZM187.305 344.553L185.742 344.8L185.173 341.197L183.193 341.51C181.903 341.714 180.87 341.619 180.096 341.226C179.317 340.839 178.858 340.205 178.719 339.326C178.598 338.556 178.786 337.85 179.283 337.208C179.776 336.572 180.662 336.153 181.941 335.951L185.847 335.334L187.305 344.553ZM184.488 336.866L182.847 337.125C181.857 337.281 181.171 337.514 180.787 337.824C180.402 338.134 180.251 338.547 180.333 339.062C180.396 339.461 180.608 339.792 180.97 340.055C181.332 340.318 182.048 340.365 183.119 340.196L184.968 339.904L184.488 336.866Z" fill="#C2000D"/>
<path d="M154.049 338.765L150.338 343.39L153.201 348.064L151.228 347.938L149.937 345.663C149.695 345.23 149.501 344.869 149.355 344.578C149.073 344.947 148.814 345.274 148.579 345.559L146.869 347.66L144.983 347.54L148.481 343.359L145.331 338.209L147.269 338.333L148.997 341.349L149.456 342.162L152.137 338.643L154.049 338.765Z" fill="#C2000D"/>
</svg>
