<svg width="167" height="179" viewBox="0 0 167 179" fill="none" xmlns="http://www.w3.org/2000/svg">
<path d="M12.7641 72.9928C13.1775 71.8124 13.6652 70.9844 14.2273 70.5088C14.7837 70.0213 15.4935 69.9287 16.3568 70.231C16.9118 70.4253 17.3203 70.7414 17.5823 71.1793C17.8355 71.6141 17.9131 72.1407 17.8152 72.7591L17.8813 72.7822C18.0818 72.4074 18.3212 72.0907 18.5996 71.8322C18.8811 71.5649 19.2084 71.3927 19.5815 71.3157C19.9546 71.2387 20.3878 71.2866 20.8811 71.4593C21.7356 71.7585 22.2929 72.285 22.5531 73.0386C22.8164 73.7835 22.7706 74.6625 22.4159 75.6755L21.2545 78.992L11.8202 75.6883L12.7641 72.9928ZM16.8643 74.1616C17.1481 73.3512 17.2147 72.7515 17.0641 72.3625C16.9047 71.9705 16.5695 71.685 16.0586 71.5061C15.5389 71.3241 15.1042 71.3795 14.7544 71.6724C14.3989 71.9533 14.0808 72.4946 13.8001 73.2962L13.2541 74.8554L16.2535 75.9057L16.8643 74.1616ZM17.2445 76.2528L20.6667 77.4512L21.333 75.5485C21.6261 74.7116 21.6667 74.0732 21.4549 73.6331C21.2431 73.193 20.8729 72.8805 20.3444 72.6954C19.8511 72.5226 19.3946 72.5556 18.9748 72.7943C18.5492 73.021 18.1838 73.5705 17.8784 74.4425L17.2445 76.2528Z" fill="#C2000D"/>
<path d="M27.6058 65.2115C27.2696 65.7825 26.8523 66.2246 26.354 66.5377C25.8603 66.8428 25.2924 66.9796 24.6502 66.9482C24.0128 66.9087 23.3121 66.6641 22.548 66.2143C21.7517 65.7455 21.1823 65.2317 20.8399 64.6727C20.4974 64.1137 20.3422 63.5404 20.3741 62.9526C20.4107 62.3569 20.5995 61.7694 20.9404 61.1903C21.1345 60.8605 21.3577 60.5641 21.61 60.3011C21.8543 60.0333 22.0815 59.8313 22.2916 59.6951L22.9806 60.5393C22.7946 60.6898 22.5936 60.8747 22.3778 61.0942C22.1619 61.3137 21.9877 61.5361 21.8551 61.7613C21.1071 63.0321 21.5494 64.1481 23.1822 65.1093C23.9624 65.5685 24.6516 65.7684 25.2497 65.709C25.8446 65.6368 26.3219 65.295 26.6818 64.6838C26.8901 64.3299 27.0362 63.9989 27.12 63.6908C27.2086 63.3748 27.2669 63.0733 27.2949 62.7866L28.236 63.3405C28.2208 63.624 28.1632 63.915 28.0632 64.2136C27.9761 64.5088 27.8236 64.8415 27.6058 65.2115Z" fill="#C2000D"/>
<path d="M27.7819 51.9543C28.207 51.4705 28.6757 51.1493 29.1879 50.9905C29.7063 50.8248 30.2384 50.8202 30.7842 50.9768C31.3291 51.1202 31.8575 51.4168 32.3693 51.8665L32.9267 52.3563L29.5351 56.2159C30.1854 56.7625 30.8144 57.0294 31.422 57.0166C32.0287 56.9907 32.5786 56.6973 33.0714 56.1364C33.3856 55.7789 33.6313 55.4356 33.8085 55.1068C33.9848 54.7647 34.1393 54.391 34.2718 53.9856L35.0816 54.6972C34.9552 55.0956 34.7968 55.4596 34.6065 55.7893C34.4231 56.1252 34.1621 56.486 33.8232 56.8716C33.355 57.4044 32.8305 57.7822 32.2496 58.0048C31.6749 58.2205 31.0721 58.2561 30.4411 58.1116C29.8093 57.954 29.1814 57.6011 28.5574 57.0527C27.9404 56.5106 27.5004 55.9438 27.2374 55.3523C26.9805 54.7538 26.8962 54.1641 26.9843 53.583C27.0786 52.995 27.3445 52.452 27.7819 51.9543ZM28.5299 52.6301C28.1418 53.0718 27.9774 53.5487 28.0369 54.0607C28.0956 54.5595 28.3557 55.0553 28.8174 55.5479L31.3403 52.6769C30.8574 52.265 30.3732 52.0383 29.8877 51.9969C29.3953 51.9493 28.9427 52.1604 28.5299 52.6301Z" fill="#C2000D"/>
<path d="M46.7812 37.2338L50.0086 42.839L50.9549 42.2942L52.7712 45.4486L51.7399 46.0424L50.4406 43.7858L45.9151 46.3914L47.2145 48.6481L46.1953 49.2349L44.379 46.0804L44.9008 45.78C45.0164 44.6903 44.93 43.5769 44.6415 42.4398C44.3565 41.29 43.9292 40.2113 43.3598 39.2037L46.7812 37.2338ZM44.7882 39.496C45.0725 40.0646 45.3159 40.6838 45.5184 41.3534C45.7162 42.0149 45.8596 42.6755 45.9486 43.3351C46.0456 43.99 46.0644 44.5931 46.0048 45.1443L48.9773 43.4328L46.232 38.6647L44.7882 39.496Z" fill="#C2000D"/>
<path d="M61.5477 39.4478L60.3653 39.8409L58.3207 33.6898L56.2216 34.3875C56.604 35.9226 56.8465 37.1845 56.9489 38.1734C57.0485 39.1533 56.9991 39.9074 56.801 40.4355C56.6028 40.9637 56.2468 41.3131 55.7331 41.4839C55.618 41.5222 55.4999 41.5516 55.3789 41.5721C55.2696 41.5986 55.1737 41.6059 55.0911 41.594L54.7996 40.7172C54.8587 40.7173 54.9206 40.7114 54.9856 40.6997C55.0505 40.6879 55.114 40.6717 55.176 40.6511C55.6543 40.4921 55.8658 39.8563 55.8107 38.7435C55.7644 37.6278 55.4574 35.9644 54.8896 33.7533L59.1807 32.3269L61.5477 39.4478Z" fill="#C2000D"/>
<path d="M67.8608 38.1206L66.443 38.2907L68.1945 34.908C67.8983 34.8683 67.6064 34.7858 67.3188 34.6606C67.03 34.526 66.785 34.3251 66.5837 34.0578C66.3813 33.7813 66.254 33.4253 66.2018 32.9897C66.1161 32.2762 66.292 31.7052 66.7294 31.2767C67.1657 30.8389 67.7824 30.5722 68.5793 30.4766L71.9154 30.0763L72.8093 37.5269L71.5861 37.6736L71.2309 34.7129L69.4238 34.9297L67.8608 38.1206ZM67.385 32.8619C67.4361 33.2881 67.632 33.5889 67.9726 33.7643C68.3214 33.9292 68.7831 33.9772 69.3577 33.9083L71.1091 33.6982L70.8139 31.2378L68.8262 31.4763C68.2609 31.5441 67.8665 31.7042 67.643 31.9567C67.4287 32.208 67.3427 32.5097 67.385 32.8619Z" fill="#C2000D"/>
<path d="M89.2312 38.8881C88.5811 38.7594 88.026 38.5115 87.5659 38.1445C87.1149 37.7793 86.7982 37.2885 86.6157 36.672C86.4425 36.0573 86.4419 35.3151 86.6141 34.4453C86.7935 33.5389 87.0905 32.8317 87.505 32.3239C87.9195 31.8161 88.4094 31.4801 88.9747 31.3161C89.5491 31.1539 90.166 31.1381 90.8252 31.2686C91.2005 31.3429 91.554 31.4557 91.8856 31.6069C92.2191 31.749 92.4848 31.8968 92.6827 32.0502L92.1135 32.9793C91.9101 32.8534 91.6691 32.7248 91.3906 32.5936C91.1121 32.4623 90.8447 32.3713 90.5884 32.3206C89.1418 32.0342 88.2345 32.8203 87.8666 34.6789C87.6908 35.567 87.7297 36.2836 87.9834 36.8285C88.248 37.3662 88.7283 37.7039 89.4241 37.8416C89.8269 37.9213 90.1876 37.9499 90.506 37.9273C90.8336 37.9066 91.1374 37.862 91.4173 37.7938L91.2053 38.865C90.9327 38.9442 90.639 38.986 90.3242 38.9903C90.0167 39.0055 89.6524 38.9714 89.2312 38.8881Z" fill="#C2000D"/>
<path d="M101.746 34.6669C102.594 35.0099 103.146 35.4496 103.402 35.9862C103.658 36.5227 103.622 37.1976 103.293 38.0109L101.377 42.7482L100.546 42.4122L100.725 41.3366L100.673 41.3156C100.216 41.5738 99.7819 41.7255 99.371 41.7708C98.9687 41.8195 98.4734 41.7249 97.885 41.4869C97.2534 41.2314 96.7964 40.8553 96.5141 40.3585C96.2352 39.8531 96.2393 39.2457 96.5262 38.5362C96.8062 37.844 97.294 37.4221 97.9896 37.2705C98.6886 37.1103 99.6119 37.242 100.759 37.6659L101.956 38.1046L102.124 37.6893C102.359 37.1096 102.396 36.6565 102.236 36.3301C102.076 36.0036 101.767 35.7476 101.308 35.5622C100.945 35.4152 100.576 35.3315 100.202 35.311C99.8309 35.2818 99.4747 35.2787 99.1332 35.3017L99.1292 34.3033C99.4985 34.2614 99.9136 34.2682 100.374 34.3237C100.839 34.3706 101.296 34.485 101.746 34.6669ZM100.582 38.5153C99.7027 38.2 99.0454 38.0952 98.6099 38.201C98.1832 38.3103 97.8805 38.5856 97.7021 39.0268C97.5446 39.4162 97.5459 39.749 97.706 40.0251C97.8748 40.3048 98.1452 40.5199 98.5173 40.6704C99.1056 40.9084 99.6592 40.946 100.178 40.7833C100.7 40.612 101.098 40.1889 101.371 39.514L101.623 38.8911L100.582 38.5153Z" fill="#C2000D"/>
<path d="M117.787 44.0199L113.52 50.1931L112.61 49.5643L115.333 45.6255C115.444 45.4642 115.565 45.298 115.694 45.1267C115.832 44.9607 115.966 44.7985 116.099 44.6402L116.064 44.6163L110.618 48.1873L109.766 47.5983L111.238 41.2813L111.204 41.2574C110.988 41.6189 110.755 41.98 110.506 42.3409L107.808 46.2452L106.898 45.6164L111.164 39.4432L112.512 40.3745L111.028 46.6835L116.439 43.0887L117.787 44.0199Z" fill="#C2000D"/>
<path d="M117.89 54.1249L123.529 49.1741L124.342 50.1L122.027 52.132L123.311 53.5944C123.952 54.3238 124.292 54.9809 124.334 55.5656C124.375 56.1503 124.129 56.6766 123.596 57.1446C123.07 57.6064 122.499 57.804 121.881 57.7375C121.271 57.6647 120.627 57.2426 119.95 56.4711L117.89 54.1249ZM122.693 59.5957L128.332 54.6449L129.145 55.5708L123.506 60.5216L122.693 59.5957ZM120.623 55.7311C120.974 56.1309 121.327 56.3985 121.682 56.534C122.044 56.6634 122.396 56.5772 122.74 56.2755C123.084 55.9737 123.214 55.6548 123.13 55.3187C123.053 54.9764 122.823 54.5878 122.442 54.1529L121.259 52.8063L119.45 54.395L120.623 55.7311Z" fill="#C2000D"/>
<path d="M131.001 65.3327L132.978 61.3011L133.649 62.5296L132.094 65.5811L135.495 65.9081L136.16 67.1244L131.699 66.6104L129.642 70.8455L128.97 69.6169L130.619 66.3866L126.997 66.005L126.332 64.7887L131.001 65.3327Z" fill="#C2000D"/>
<path d="M142.101 87.4855L134.709 88.7747L134.497 87.561L140.855 86.4522L140.189 82.6319L133.831 83.7407L133.619 82.527L141.011 81.2378L142.101 87.4855Z" fill="#C2000D"/>
<path d="M142.567 98.7426C142.529 99.6658 142.176 100.394 141.51 100.927C140.842 101.469 139.861 101.713 138.565 101.659C137.287 101.606 136.329 101.282 135.691 100.685C135.052 100.099 134.752 99.3388 134.79 98.4062C134.814 97.8281 134.941 97.3523 135.172 96.9788C135.411 96.6151 135.68 96.332 135.977 96.1295L135.981 96.0455C135.822 96.0576 135.62 96.0679 135.377 96.0765C135.134 96.0851 134.924 96.0858 134.747 96.0784L131.669 95.9508L131.72 94.7199L142.575 95.1699L142.533 96.177L141.505 96.3026L141.503 96.3585C141.82 96.5959 142.083 96.901 142.292 97.274C142.5 97.6469 142.592 98.1365 142.567 98.7426ZM141.541 98.4759C141.573 97.7112 141.381 97.1615 140.965 96.8266C140.549 96.5011 139.903 96.3109 139.027 96.2559L138.789 96.246C137.866 96.2077 137.146 96.3274 136.63 96.6049C136.123 96.8922 135.853 97.4461 135.819 98.2667C135.8 98.7237 135.91 99.1019 136.15 99.4014C136.39 99.7103 136.721 99.9435 137.144 100.101C137.576 100.269 138.072 100.364 138.631 100.387C139.489 100.423 140.182 100.283 140.709 99.9687C141.235 99.6636 141.512 99.166 141.541 98.4759Z" fill="#C2000D"/>
<path d="M140.561 111.895C140.402 112.519 140.13 113.018 139.746 113.392C139.36 113.775 138.888 114.021 138.33 114.13C137.78 114.25 137.174 114.225 136.514 114.057L135.795 113.874L137.062 108.895C136.235 108.704 135.553 108.752 135.018 109.039C134.489 109.338 134.133 109.849 133.948 110.573C133.831 111.034 133.768 111.452 133.76 111.825C133.758 112.21 133.79 112.613 133.856 113.034L132.812 112.768C132.743 112.356 132.719 111.96 132.739 111.58C132.749 111.197 132.818 110.757 132.945 110.26C133.12 109.572 133.415 108.997 133.831 108.535C134.245 108.082 134.766 107.776 135.394 107.618C136.028 107.471 136.748 107.5 137.553 107.705C138.349 107.908 138.999 108.213 139.502 108.62C140.002 109.037 140.345 109.524 140.531 110.081C140.714 110.648 140.724 111.252 140.561 111.895ZM139.587 111.632C139.732 111.063 139.662 110.563 139.376 110.134C139.097 109.716 138.64 109.393 138.005 109.164L137.063 112.868C137.68 113.015 138.214 112.997 138.665 112.814C139.126 112.632 139.433 112.238 139.587 111.632Z" fill="#C2000D"/>
<path d="M134.698 126.635L128.875 123.817L128.4 124.8L125.123 123.215L125.642 122.144L127.986 123.278L130.26 118.577L127.917 117.443L128.429 116.385L131.705 117.97L131.443 118.512C131.961 119.478 132.659 120.35 133.537 121.127C134.419 121.917 135.38 122.569 136.417 123.081L134.698 126.635ZM135.072 123.643C134.517 123.333 133.968 122.959 133.423 122.519C132.888 122.083 132.397 121.618 131.953 121.123C131.504 120.636 131.149 120.148 130.888 119.659L129.394 122.746L134.346 125.143L135.072 123.643Z" fill="#C2000D"/>
<path d="M129.05 135.466C128.495 136.193 127.925 136.609 127.34 136.714C126.755 136.819 126.113 136.605 125.416 136.072L121.355 132.971L121.899 132.259L122.889 132.715L122.923 132.671C122.795 132.162 122.763 131.704 122.828 131.295C122.888 130.894 123.11 130.442 123.496 129.937C123.909 129.396 124.393 129.055 124.947 128.914C125.508 128.779 126.092 128.944 126.701 129.408C127.294 129.861 127.572 130.443 127.534 131.154C127.503 131.871 127.132 132.726 126.419 133.721L125.68 134.759L126.036 135.031C126.533 135.41 126.96 135.566 127.317 135.498C127.674 135.43 128.003 135.2 128.303 134.807C128.541 134.495 128.719 134.162 128.838 133.806C128.964 133.456 129.061 133.114 129.13 132.778L130.093 133.039C130.036 133.406 129.92 133.805 129.744 134.234C129.576 134.67 129.345 135.08 129.05 135.466ZM125.647 133.325C126.184 132.56 126.459 131.954 126.472 131.506C126.48 131.066 126.295 130.701 125.916 130.412C125.582 130.157 125.261 130.071 124.953 130.152C124.638 130.241 124.359 130.444 124.116 130.763C123.73 131.268 123.547 131.792 123.567 132.335C123.594 132.884 123.897 133.38 124.475 133.821L125.009 134.229L125.647 133.325Z" fill="#C2000D"/>
<path d="M121.084 143.975L119.047 141.609L115.959 144.267L117.996 146.633L117.063 147.436L112.167 141.749L113.101 140.946L115.284 143.481L118.371 140.823L116.188 138.288L117.122 137.484L122.017 143.171L121.084 143.975Z" fill="#C2000D"/>
<path d="M109.772 152.241L108.285 149.496L104.703 151.437L106.19 154.182L105.107 154.769L101.532 148.172L102.615 147.585L104.209 150.526L107.791 148.585L106.196 145.643L107.28 145.056L110.855 151.654L109.772 152.241Z" fill="#C2000D"/>
<path d="M96.0309 150.44L97.9868 157.685L96.7974 158.006L95.9946 155.032L94.1159 155.539C93.1787 155.792 92.4387 155.808 91.8957 155.588C91.3527 155.367 90.9888 154.914 90.8039 154.229C90.6215 153.553 90.6963 152.953 91.0283 152.429C91.3628 151.913 92.0256 151.521 93.0168 151.254L96.0309 150.44ZM89.0025 152.337L90.9584 159.582L89.769 159.903L87.8131 152.659L89.0025 152.337ZM93.384 152.184C92.8704 152.323 92.4745 152.521 92.1964 152.78C91.9206 153.048 91.8424 153.403 91.9616 153.844C92.0808 154.286 92.3097 154.543 92.6484 154.616C92.9896 154.698 93.4395 154.663 93.9982 154.512L95.7282 154.045L95.1006 151.721L93.384 152.184Z" fill="#C2000D"/>
<path d="M80.1895 157.264L82.9359 160.816L81.5372 160.877L79.4846 158.135L77.6908 161.044L76.3061 161.104L78.7349 157.327L75.8414 153.613L77.2401 153.552L79.4119 156.457L81.3522 153.374L82.7369 153.314L80.1895 157.264Z" fill="#C2000D"/>
</svg>
