<svg width="162" height="167" viewBox="0 0 162 167" fill="none" xmlns="http://www.w3.org/2000/svg">
<path d="M93.8905 11.2159C93.9891 11.2942 94.1214 11.3303 94.2619 11.327C96.5666 11.2033 98.822 10.6498 100.548 9.95194C99.9687 10.595 99.4003 11.2239 98.8407 11.9288C98.2362 12.69 97.6824 13.4454 97.2467 14.2256C97.1322 14.4566 97.1924 14.7571 97.3897 14.9139C97.6435 15.1153 97.9805 15.0382 98.1484 14.8268L98.2044 14.7563C98.5729 14.0606 99.1044 13.3334 99.6865 12.6004C101.242 10.641 103.147 8.82084 103.774 8.03144C103.942 7.81999 103.927 7.46303 103.687 7.27275C103.476 7.10485 103.144 7.1173 102.962 7.31755C101.954 8.35572 98.1507 10.0478 94.1906 10.259C94.0247 10.2652 93.8929 10.3444 93.8034 10.4572C93.6131 10.6968 93.6649 11.0368 93.8905 11.2159Z" fill="#C2000D"/>
<path d="M99.7857 15.4968C99.6702 15.6103 99.605 15.7752 99.6162 15.9407C99.6281 16.0299 99.7314 17.2655 100.639 18.1903C101.573 19.1407 103.207 19.9576 104.453 18.7343C105.326 17.8768 105.314 16.4511 105.35 15.2549C105.388 13.957 105.499 12.9143 105.91 12.5107C106.411 12.0189 106.601 12.0843 106.807 11.8825C106.999 11.6933 107.041 11.35 106.814 11.1189C106.675 10.9776 106.447 10.8991 106.229 10.9862C106.165 11.0238 105.68 11.223 105.153 11.7401C104.28 12.5976 104.292 14.0233 104.256 15.2195C104.219 16.5174 104.107 17.5601 103.696 17.9637C103.144 18.506 102.242 18.2813 101.41 17.4336C100.578 16.5859 100.89 15.876 100.537 15.5164C100.347 15.3237 100.004 15.2824 99.7857 15.4968ZM106.946 13.3094C107.236 13.6048 107.987 13.6498 109.77 14.9008C109.985 15.0428 110.291 15.0201 110.471 14.8436C110.702 14.6166 110.667 14.2726 110.478 14.0799L110.415 14.0157C108.72 12.8292 107.565 12.4495 107.489 12.4233C107.311 12.3708 107.082 12.4196 106.941 12.5583C106.709 12.7853 106.757 13.1167 106.946 13.3094Z" fill="#C2000D"/>
<path d="M109.3 28.5043C108.994 28.6942 109.126 29.2479 109.316 29.5537C109.478 29.8136 109.8 29.8889 110.06 29.7275C110.366 29.5375 110.234 28.9839 110.044 28.678C109.882 28.4181 109.56 28.3428 109.3 28.5043Z" fill="#C2000D"/>
<path d="M116.441 40.2327C116.832 40.0964 117.157 40.0977 117.87 40.2303C118.703 40.3783 120.236 40.8926 121.201 41.147C121.956 41.3416 122.624 41.509 123.287 41.2779C124.239 40.9462 124.726 39.9376 124.394 38.9858C124.086 38.1019 123.079 37.3471 122.043 37.7085C121.38 37.9396 121.076 38.217 121.23 38.6589C121.337 38.9648 121.663 39.0799 121.918 38.9911C122.156 38.9081 122.058 38.8468 122.398 38.7284C122.721 38.6158 123.208 38.8653 123.374 39.3412C123.516 39.7492 123.339 40.1159 122.931 40.2581C122.676 40.347 122.237 40.2903 121.483 40.0957C120.563 39.8634 119.065 39.3374 118.072 39.1687C117.325 39.048 116.715 38.9937 116.086 39.2129C114.318 39.829 115.14 42.5161 115.697 44.1138C115.792 44.3858 116.113 44.5408 116.385 44.446C116.657 44.3512 116.812 44.0303 116.717 43.7584C116.35 42.7046 115.642 40.5111 116.441 40.2327Z" fill="#C2000D"/>
<path d="M117.47 46.0568C117.311 46.0909 117.168 46.1954 117.089 46.3413C117.051 46.423 116.478 47.5223 116.75 48.7893C117.031 50.0915 117.975 51.6559 119.682 51.2886C120.878 51.0311 121.63 49.8198 122.301 48.8286C123.027 47.7519 123.678 46.9304 124.242 46.8092C124.928 46.6616 125.054 46.8186 125.335 46.758C125.599 46.7012 125.818 46.4333 125.75 46.1165C125.708 45.9229 125.557 45.7345 125.327 45.6919C125.253 45.6895 124.736 45.5981 124.014 45.7534C122.818 46.0109 122.066 47.2222 121.395 48.2134C120.67 49.2901 120.018 50.1116 119.455 50.2328C118.698 50.3956 118.056 49.7235 117.806 48.5621C117.556 47.4007 118.2 46.9677 118.094 46.475C118.037 46.211 117.769 45.9925 117.47 46.0568ZM124.69 48.0384C124.777 48.4431 125.387 48.8826 126.225 50.8934C126.331 51.1284 126.601 51.2727 126.848 51.2197C127.164 51.1516 127.319 50.8422 127.262 50.5782L127.243 50.4902C126.446 48.5812 125.673 47.6428 125.623 47.58C125.501 47.4405 125.28 47.359 125.087 47.4006C124.77 47.4688 124.633 47.7744 124.69 48.0384Z" fill="#C2000D"/>
<path d="M118.552 62.1359C118.192 62.1329 118.007 62.6713 118.004 63.0313C118.002 63.3373 118.234 63.5733 118.54 63.5759C118.9 63.5789 119.084 63.0405 119.087 62.6805C119.09 62.3745 118.858 62.1385 118.552 62.1359Z" fill="#C2000D"/>
<path d="M117.413 74.1776C117.385 74.3003 117.409 74.4353 117.472 74.5609C118.57 76.591 120.035 78.3926 121.404 79.6543C120.575 79.4056 119.764 79.161 118.887 78.9568C117.94 78.7362 117.021 78.5588 116.129 78.4989C115.871 78.4943 115.625 78.6773 115.568 78.9227C115.495 79.2383 115.709 79.5099 115.972 79.5712L116.059 79.5916C116.846 79.627 117.73 79.7962 118.642 80.0086C121.079 80.5764 123.539 81.5193 124.521 81.7481C124.784 81.8094 125.1 81.6427 125.169 81.3447C125.23 81.0818 125.077 80.7873 124.818 80.7085C123.448 80.2415 120.292 77.5283 118.406 74.0394C118.33 73.8922 118.202 73.8069 118.062 73.7742C117.764 73.7048 117.479 73.8971 117.413 74.1776Z" fill="#C2000D"/>
<path d="M116.067 81.3362C115.915 81.2803 115.738 81.2919 115.593 81.3729C115.518 81.4219 114.445 82.0439 113.998 83.2603C113.538 84.5104 113.499 86.3373 115.138 86.9399C116.287 87.3623 117.57 86.741 118.667 86.2621C119.856 85.7404 120.846 85.3949 121.386 85.5937C122.045 85.836 122.068 86.036 122.338 86.1354C122.591 86.2286 122.919 86.119 123.031 85.8149C123.099 85.6291 123.073 85.3891 122.901 85.2301C122.84 85.1883 122.452 84.8348 121.759 84.5801C120.61 84.1576 119.327 84.7789 118.23 85.2578C117.041 85.7795 116.051 86.125 115.511 85.9262C114.784 85.6591 114.601 84.748 115.011 83.633C115.421 82.518 116.197 82.4962 116.37 82.0232C116.464 81.7698 116.354 81.4418 116.067 81.3362ZM121.108 86.8722C120.965 87.2608 121.246 87.9584 120.878 90.1055C120.842 90.3606 120.993 90.6272 121.229 90.7142C121.534 90.826 121.829 90.6472 121.923 90.3937L121.954 90.3093C122.301 88.2698 122.15 87.0636 122.141 86.9836C122.112 86.8005 121.97 86.6139 121.784 86.5455C121.48 86.4337 121.201 86.6188 121.108 86.8722Z" fill="#C2000D"/>
<path d="M108.381 95.5021C108.079 95.3069 107.635 95.6632 107.44 95.9657C107.274 96.2229 107.344 96.5464 107.601 96.7122C107.903 96.9073 108.347 96.5511 108.542 96.2486C108.708 95.9914 108.638 95.6679 108.381 95.5021Z" fill="#C2000D"/>
<path d="M100.837 106.976C101.127 107.271 101.265 107.565 101.45 108.267C101.673 109.083 101.864 110.688 102.047 111.67C102.194 112.435 102.329 113.11 102.821 113.611C103.529 114.329 104.649 114.338 105.367 113.631C106.034 112.974 106.285 111.741 105.515 110.959C105.023 110.459 104.642 110.303 104.309 110.631C104.078 110.859 104.113 111.203 104.303 111.395C104.479 111.575 104.493 111.46 104.745 111.717C104.985 111.96 104.968 112.508 104.609 112.861C104.301 113.164 103.894 113.161 103.591 112.853C103.402 112.661 103.265 112.24 103.118 111.475C102.935 110.544 102.769 108.965 102.496 107.995C102.286 107.268 102.074 106.693 101.607 106.219C100.293 104.885 98.2164 106.778 97.0107 107.965C96.8054 108.167 96.8026 108.523 97.0047 108.728C97.2067 108.934 97.5631 108.936 97.7683 108.734C98.5636 107.951 100.243 106.374 100.837 106.976Z" fill="#C2000D"/>
<path d="M96.0132 110.397C95.9146 110.269 95.7589 110.184 95.5932 110.175C95.5032 110.176 94.2642 110.128 93.2357 110.916C92.1786 111.727 91.1687 113.25 92.2311 114.635C92.9758 115.607 94.3924 115.768 95.5752 115.95C96.859 116.145 97.8803 116.383 98.2308 116.84C98.6579 117.397 98.5699 117.578 98.7451 117.806C98.9094 118.021 99.2451 118.103 99.5022 117.906C99.6593 117.786 99.765 117.569 99.705 117.343C99.6755 117.274 99.5369 116.768 99.0879 116.183C98.3431 115.211 96.9266 115.05 95.7438 114.868C94.46 114.673 93.4386 114.435 93.0882 113.978C92.6172 113.364 92.95 112.496 93.8928 111.773C94.8356 111.051 95.5023 111.447 95.9022 111.14C96.1165 110.976 96.1993 110.64 96.0132 110.397ZM97.3118 117.771C96.9833 118.023 96.8471 118.763 95.3882 120.38C95.2211 120.576 95.2063 120.882 95.3596 121.082C95.5568 121.34 95.9025 121.347 96.1167 121.182L96.1882 121.128C97.5723 119.59 98.0899 118.49 98.1251 118.418C98.1989 118.248 98.1785 118.014 98.058 117.857C97.8608 117.6 97.5261 117.607 97.3118 117.771Z" fill="#C2000D"/>
<path d="M81.9426 118.255C81.7914 117.928 81.2257 117.992 80.899 118.143C80.6214 118.272 80.5074 118.582 80.6359 118.86C80.7872 119.187 81.3529 119.123 81.6795 118.972C81.9572 118.843 82.0712 118.533 81.9426 118.255Z" fill="#C2000D"/>
<path d="M70.5724 122.379C70.4492 122.406 70.3375 122.485 70.251 122.596C68.8859 124.457 67.8847 126.552 67.3303 128.33C67.2002 127.474 67.074 126.636 66.8835 125.756C66.6778 124.806 66.4446 123.899 66.1172 123.067C66.0111 122.833 65.7405 122.689 65.4942 122.742C65.1775 122.81 65.0235 123.12 65.0807 123.384L65.0997 123.472C65.4043 124.198 65.6299 125.07 65.828 125.985C66.3575 128.43 66.558 131.057 66.7713 132.042C66.8284 132.306 67.1142 132.521 67.4133 132.456C67.6772 132.399 67.8778 132.134 67.8382 131.867C67.6742 130.429 68.7757 126.415 71.1223 123.218C71.2226 123.085 71.2449 122.933 71.2144 122.793C71.1497 122.493 70.8539 122.318 70.5724 122.379Z" fill="#C2000D"/>
<path d="M63.526 124.225C63.5114 124.064 63.4252 123.909 63.29 123.813C63.2135 123.765 62.1923 123.062 60.9015 123.178C59.5749 123.298 57.9071 124.044 58.0637 125.783C58.1734 127.002 59.2841 127.896 60.1862 128.683C61.1665 129.534 61.9025 130.281 61.9541 130.855C62.0171 131.554 61.8459 131.66 61.8717 131.947C61.8959 132.216 62.1352 132.465 62.4579 132.436C62.6551 132.418 62.8606 132.291 62.9309 132.068C62.9423 131.995 63.0959 131.493 63.0298 130.758C62.92 129.539 61.8094 128.645 60.9072 127.859C59.9269 127.007 59.191 126.26 59.1393 125.686C59.0699 124.916 59.8151 124.361 60.9984 124.254C62.1816 124.147 62.533 124.839 63.0349 124.794C63.3039 124.769 63.5534 124.53 63.526 124.225ZM60.6795 131.15C60.2671 131.188 59.7566 131.74 57.6587 132.326C57.4126 132.402 57.2364 132.653 57.259 132.904C57.288 133.227 57.5763 133.418 57.8452 133.394L57.9348 133.386C59.9268 132.827 60.9524 132.174 61.0209 132.132C61.1741 132.028 61.2819 131.819 61.2641 131.622C61.2351 131.299 60.9484 131.126 60.6795 131.15Z" fill="#C2000D"/>
<path d="M47.4332 123.34C47.4801 122.983 46.9682 122.734 46.6113 122.687C46.3079 122.647 46.0454 122.849 46.0055 123.152C45.9586 123.509 46.4706 123.758 46.8275 123.805C47.1309 123.845 47.3934 123.643 47.4332 123.34Z" fill="#C2000D"/>
<path d="M17.8234 112.668C17.8703 112.311 17.3583 112.062 17.0014 112.015C16.698 111.976 16.4355 112.177 16.3956 112.48C16.3488 112.837 16.8607 113.086 17.2176 113.133C17.521 113.173 17.7835 112.971 17.8234 112.668Z" fill="#C2000D"/>
<path d="M33.8351 121.431C33.6928 121.819 33.4861 122.07 32.9314 122.537C32.2889 123.088 30.9197 123.948 30.111 124.533C29.4825 124.993 28.9295 125.404 28.688 126.063C28.3414 127.01 28.8127 128.026 29.7592 128.372C30.6381 128.694 31.8599 128.394 32.2375 127.363C32.4789 126.704 32.4568 126.293 32.0173 126.132C31.7131 126.021 31.4174 126.2 31.3246 126.454C31.2379 126.69 31.3472 126.654 31.2234 126.992C31.1057 127.313 30.6039 127.532 30.1306 127.358C29.725 127.21 29.5536 126.84 29.7022 126.435C29.795 126.181 30.1171 125.877 30.7456 125.417C31.5082 124.853 32.8649 124.027 33.6246 123.366C34.1917 122.865 34.6202 122.427 34.8493 121.802C35.4931 120.044 32.8935 118.977 31.3047 118.395C31.0343 118.296 30.711 118.446 30.6119 118.717C30.5129 118.987 30.6628 119.31 30.9333 119.409C31.9812 119.793 34.1261 120.636 33.8351 121.431Z" fill="#C2000D"/>
<path d="M28.6789 118.535C28.7529 118.391 28.7628 118.214 28.7001 118.06C28.6607 117.979 28.174 116.839 27.0212 116.246C25.8364 115.638 24.0279 115.377 23.2301 116.93C22.6709 118.019 23.1312 119.368 23.4729 120.515C23.8458 121.759 24.0681 122.783 23.8049 123.296C23.4842 123.92 23.283 123.918 23.1514 124.174C23.028 124.414 23.0968 124.753 23.385 124.901C23.5611 124.992 23.8026 124.994 23.9813 124.843C24.0302 124.788 24.4284 124.446 24.7656 123.789C25.3249 122.7 24.8646 121.351 24.5228 120.204C24.1499 118.96 23.9276 117.936 24.1908 117.423C24.5445 116.735 25.471 116.664 26.5278 117.207C27.5845 117.75 27.5117 118.522 27.96 118.752C28.2002 118.876 28.539 118.807 28.6789 118.535ZM22.5699 122.864C22.2016 122.675 21.475 122.868 19.3887 122.241C19.1399 122.174 18.8569 122.292 18.7417 122.516C18.5937 122.804 18.7352 123.12 18.9753 123.243L19.0554 123.284C21.0374 123.878 22.253 123.875 22.3335 123.876C22.5187 123.869 22.7212 123.751 22.8117 123.575C22.9598 123.287 22.8101 122.987 22.5699 122.864Z" fill="#C2000D"/>
</svg>
