<svg width="190" height="181" viewBox="0 0 190 181" fill="none" xmlns="http://www.w3.org/2000/svg">
<path d="M74.0543 164.72C73.7705 165.262 74.5337 165.783 74.9962 166.025C76.5909 166.86 78.6597 166.013 79.4528 164.498C80.129 163.206 79.6806 161.773 78.3889 161.097C77.5118 160.638 76.6219 160.436 75.2666 160.58C75.073 160.6 74.9341 160.71 74.8506 160.87C74.7087 161.141 74.8393 161.473 75.0785 161.599C75.1742 161.649 75.2866 161.667 75.3914 161.661C76.6176 161.531 77.1704 161.678 77.888 162.054C78.6694 162.463 78.905 163.216 78.4959 163.997C77.9533 165.034 76.4539 165.569 75.497 165.068C75.21 164.918 75.0908 164.835 74.9654 164.648C74.9183 164.583 74.8469 164.525 74.7832 164.492C74.544 164.366 74.2046 164.433 74.0543 164.72Z" fill="#C2000D"/>
<path d="M68.5511 155.626C68.8964 155.165 68.3921 154.607 67.8302 154.186C66.476 153.172 64.8205 154.001 63.9788 155.125C63.1155 156.277 62.9581 157.959 64.2691 158.941C65.681 159.998 67.7866 159.439 70.4709 157.266C69.7192 158.48 69.3057 159.272 69.1766 159.985C69.1407 160.183 69.2236 160.403 69.3821 160.522C69.6414 160.716 69.9761 160.629 70.138 160.413C70.1812 160.355 70.2207 160.273 70.2351 160.193C70.4073 159.243 71.8279 156.956 75.0653 152.634C75.2056 152.447 75.2161 152.072 74.9568 151.878C74.7407 151.716 74.4095 151.738 74.2225 151.958C68.8695 158.203 66.0115 158.896 64.9166 158.076C64.2107 157.547 64.1957 156.637 64.8432 155.772C65.5122 154.879 66.52 154.554 67.1828 155.051C67.6294 155.385 67.5214 155.529 67.7952 155.735C68.0113 155.896 68.3569 155.885 68.5511 155.626Z" fill="#C2000D"/>
<path d="M61.691 148.445C61.1537 147.888 60.6007 147.496 59.6016 147.134C59.4119 147.067 59.1819 147.114 59.0394 147.251C58.8061 147.476 58.8381 147.82 59.0255 148.015C59.0755 148.067 59.1509 148.119 59.2268 148.146C60.125 148.455 60.4513 148.715 60.9136 149.195C61.1135 149.402 61.2496 149.621 61.3348 149.839C60.2125 149.246 58.5582 149.216 57.5864 150.153C56.8609 150.853 56.8406 151.972 57.5403 152.698C58.6524 153.851 60.3993 153.692 61.4876 152.642C62.7185 151.455 62.8905 149.689 61.691 148.445ZM58.3362 150.93C58.984 150.305 60.5861 150.411 61.2733 151.123C61.1669 151.376 60.9841 151.627 60.7379 151.865C60.0123 152.565 58.9549 152.609 58.3177 151.948C58.0178 151.637 58.0252 151.23 58.3362 150.93Z" fill="#C2000D"/>
<path d="M59.7929 139.104C59.2378 139.504 58.0732 139.765 56.8304 139.795C57.1256 139.25 57.5317 138.736 58.1161 138.315C58.7736 137.842 59.5793 137.883 59.9158 138.351C60.1156 138.628 60.0705 138.905 59.7929 139.104ZM50.7239 142.527C50.6217 142.6 50.5509 142.718 50.5159 142.854C50.3738 143.488 50.5308 144.107 50.8988 144.619C51.8031 145.875 53.4111 146.137 54.6675 145.233C56.0846 144.213 56.0213 142.307 56.42 140.889C57.9036 140.886 59.445 140.685 60.4238 139.981C61.1689 139.445 61.3286 138.465 60.7923 137.72C59.9722 136.58 58.4348 136.755 57.4852 137.439C56.5648 138.101 56.0154 138.94 55.6606 139.772C55.0348 139.735 54.4424 139.651 53.9586 139.533C53.7973 139.494 53.6343 139.545 53.5174 139.629C53.2691 139.808 53.2263 140.149 53.3946 140.383C53.4682 140.485 53.571 140.566 53.7071 140.601C54.1909 140.719 54.7478 140.784 55.3192 140.838C55.249 141.111 55.204 141.387 55.163 141.638C54.9542 142.92 54.6794 143.894 54.0366 144.356C53.2477 144.924 52.3432 144.777 51.7754 143.988C51.5546 143.681 51.4991 143.388 51.5629 143.076C51.5875 142.925 51.5618 142.766 51.4777 142.65C51.2989 142.401 50.9577 142.358 50.7239 142.527Z" fill="#C2000D"/>
<path d="M45.8286 133.103C45.7807 133.127 45.7412 133.168 45.7016 133.209C45.1317 133.791 45.0258 134.678 45.3835 135.364C46.2986 137.12 48.9502 137.768 50.6422 136.886C51.5361 136.42 52.1069 135.413 51.5662 134.375C51.0338 133.353 50.0155 132.646 48.8008 132.223C49.1819 131.903 49.9274 131.23 49.6529 130.704C49.5114 130.432 49.1639 130.35 48.9244 130.474C48.8286 130.524 48.7495 130.606 48.6947 130.696C48.4606 131.142 47.9928 131.569 47.2585 131.951C47.035 132.068 46.8878 132.408 47.0292 132.68C47.1041 132.824 47.2345 132.918 47.3961 132.955C49.0036 133.275 50.1343 133.964 50.6084 134.874C50.8164 135.273 50.6858 135.646 50.1431 135.929C48.9618 136.544 46.9236 135.983 46.3413 134.865C46.1998 134.594 46.2333 134.191 46.4548 133.953C46.6131 133.79 46.6652 133.539 46.5571 133.332C46.4073 133.045 46.0681 132.978 45.8286 133.103Z" fill="#C2000D"/>
<path d="M44.7942 117.109C45.1471 117.038 45.2166 116.473 45.1453 116.12C45.0847 115.82 44.809 115.637 44.5091 115.697C44.1562 115.769 44.0867 116.334 44.158 116.687C44.2186 116.987 44.4943 117.17 44.7942 117.109Z" fill="#C2000D"/>
<path d="M39.2323 96.1263C38.6224 96.0763 38.4397 96.9824 38.3971 97.5027C38.25 99.2966 39.8366 100.872 41.5409 101.011C42.994 101.13 44.1392 100.159 44.2584 98.7056C44.3393 97.7189 44.1781 96.8208 43.5173 95.6288C43.4229 95.4585 43.2673 95.3735 43.0879 95.3588C42.783 95.3338 42.5277 95.5838 42.5056 95.8529C42.4968 95.9605 42.5238 96.0711 42.5703 96.1652C43.1682 97.2436 43.2482 97.8101 43.182 98.6174C43.1099 99.4964 42.5082 100.007 41.6291 99.9349C40.4631 99.8393 39.3852 98.6673 39.4735 97.5909C39.4999 97.268 39.5296 97.1259 39.6535 96.9374C39.6952 96.8686 39.7205 96.7804 39.7264 96.7086C39.7485 96.4395 39.5552 96.1528 39.2323 96.1263Z" fill="#C2000D"/>
<path d="M45.4602 87.5124C46.0193 87.6507 46.3363 86.9688 46.5048 86.2873C46.911 84.6448 45.5022 83.4435 44.1393 83.1064C42.7414 82.7607 41.1318 83.2712 40.7385 84.8613C40.315 86.5738 41.6509 88.2948 44.6979 89.9198C43.2873 89.7007 42.3965 89.6288 41.6897 89.7877C41.4933 89.8319 41.3235 89.9939 41.2759 90.1861C41.1982 90.5006 41.4084 90.7751 41.6705 90.8399C41.7404 90.8572 41.8321 90.8613 41.9106 90.8437C42.8531 90.6317 45.5128 91.0484 50.7549 92.3448C50.9821 92.401 51.331 92.2647 51.4088 91.9502C51.4736 91.6881 51.3244 91.3916 51.0491 91.305C43.2108 88.8103 41.4585 86.4486 41.7869 85.1206C41.9987 84.2644 42.8316 83.8956 43.88 84.1548C44.9634 84.4228 45.6552 85.2243 45.4564 86.0281C45.3224 86.5697 45.1477 86.5265 45.0656 86.8585C45.0008 87.1206 45.1456 87.4346 45.4602 87.5124Z" fill="#C2000D"/>
<path d="M49.3998 78.3956C49.7034 77.6836 49.8487 77.0216 49.7925 75.9604C49.7803 75.7596 49.6476 75.566 49.4654 75.4883C49.1674 75.3612 48.8628 75.5249 48.7569 75.7732C48.7286 75.8395 48.7099 75.9293 48.7148 76.0097C48.7803 76.9573 48.6676 77.3593 48.4064 77.972C48.2934 78.2369 48.1449 78.4475 47.9774 78.6109C48.0862 77.3462 47.4688 75.811 46.227 75.2815C45.2998 74.8861 44.2606 75.304 43.8652 76.2312C43.2369 77.7048 44.0645 79.2514 45.4554 79.8445C47.0283 80.5153 48.722 79.9851 49.3998 78.3956ZM45.8034 76.275C46.6313 76.628 47.1587 78.1444 46.7704 79.0551C46.4963 79.0556 46.1936 78.9852 45.879 78.8511C44.9518 78.4557 44.4986 77.4993 44.8587 76.6549C45.0281 76.2575 45.406 76.1055 45.8034 76.275Z" fill="#C2000D"/>
<path d="M57.2606 73.0072C56.6762 72.6517 55.9813 71.6812 55.4696 70.5483C56.0867 70.6076 56.7184 70.7812 57.3336 71.1554C58.0256 71.5763 58.3019 72.3343 58.0026 72.8264C57.8248 73.1186 57.5528 73.1849 57.2606 73.0072ZM50.5735 65.9898C50.4658 65.9244 50.3301 65.905 50.1911 65.9258C49.5514 66.0423 49.0427 66.4282 48.7153 66.9664C47.9108 68.2889 48.2964 69.8718 49.6189 70.6763C51.1106 71.5837 52.8411 70.7823 54.3024 70.5967C54.8837 71.9616 55.669 73.3031 56.6993 73.9299C57.4836 74.4069 58.4482 74.172 58.9253 73.3877C59.6549 72.1882 58.8944 70.8407 57.8948 70.2327C56.926 69.6433 55.9392 69.4645 55.0348 69.4621C54.8253 68.8712 54.6714 68.293 54.5911 67.8016C54.5643 67.6379 54.4539 67.5075 54.3309 67.4327C54.0695 67.2737 53.7386 67.3674 53.5889 67.6134C53.5234 67.7211 53.4887 67.8474 53.5095 67.9865C53.5898 68.4778 53.7471 69.0159 53.9197 69.5633C53.6416 69.6049 53.3696 69.6711 53.1223 69.7314C51.8609 70.0386 50.8568 70.1652 50.1802 69.7536C49.3497 69.2485 49.1329 68.3581 49.638 67.5277C49.8345 67.2047 50.0824 67.0395 50.3946 66.9766C50.543 66.9405 50.6794 66.8549 50.7542 66.7318C50.9132 66.4704 50.8195 66.1395 50.5735 65.9898Z" fill="#C2000D"/>
<path d="M57.3419 57.8077C57.3003 57.7733 57.2472 57.7528 57.1941 57.7323C56.4367 57.4341 55.5783 57.6825 55.0856 58.2795C53.8254 59.8067 54.2625 62.5011 55.7341 63.7154C56.5116 64.357 57.6622 64.4897 58.4069 63.5873C59.1401 62.6988 59.3947 61.4853 59.3102 60.202C59.7538 60.428 60.6639 60.8523 61.0419 60.3941C61.2367 60.1581 61.1774 59.8058 60.9691 59.634C60.8858 59.5652 60.7796 59.5242 60.6758 59.5086C60.1732 59.4672 59.598 59.2027 58.9594 58.6757C58.765 58.5153 58.394 58.5125 58.1992 58.7485C58.0961 58.8734 58.06 59.0303 58.0884 59.1938C58.4211 60.7986 58.2269 62.1086 57.5739 62.8999C57.2875 63.247 56.8935 63.272 56.4215 62.8824C55.3941 62.0347 55.1167 59.9387 55.9186 58.9669C56.1134 58.7309 56.4977 58.6046 56.8024 58.716C57.0148 58.798 57.2658 58.7484 57.4148 58.5679C57.621 58.318 57.5502 57.9795 57.3419 57.8077Z" fill="#C2000D"/>
<path d="M71.67 50.6214C71.8732 50.9185 72.4206 50.7623 72.7177 50.5591C72.9703 50.3864 73.0314 50.0611 72.8587 49.8085C72.6555 49.5114 72.1081 49.6676 71.811 49.8708C71.5584 50.0435 71.4973 50.3688 71.67 50.6214Z" fill="#C2000D"/>
<path d="M138.997 43.7045C138.841 44.0287 139.249 44.4256 139.573 44.5822C139.848 44.7152 140.161 44.6063 140.294 44.3307C140.45 44.0066 140.042 43.6096 139.718 43.4531C139.443 43.32 139.13 43.429 138.997 43.7045Z" fill="#C2000D"/>
<path d="M88.8246 37.3177C88.6329 36.7365 87.7272 36.9215 87.2315 37.085C85.5221 37.649 84.6904 39.724 85.2261 41.3479C85.6829 42.7325 87.0241 43.4084 88.4087 42.9516C89.3489 42.6414 90.1132 42.1429 90.9532 41.0697C91.0732 40.9163 91.0909 40.7399 91.0345 40.569C90.9386 40.2784 90.6089 40.1408 90.3525 40.2254C90.2499 40.2592 90.1586 40.3272 90.0901 40.4067C89.33 41.3777 88.8396 41.6722 88.0704 41.9259C87.2328 42.2023 86.528 41.8472 86.2517 41.0096C85.8852 39.8985 86.5442 38.449 87.5699 38.1107C87.8776 38.0092 88.0199 37.9811 88.2418 38.0217C88.3215 38.0333 88.4126 38.0222 88.481 37.9996C88.7374 37.9151 88.9261 37.6253 88.8246 37.3177Z" fill="#C2000D"/>
<path d="M99.1838 39.6957C99.2744 40.2645 100.026 40.2906 100.719 40.1801C102.39 39.9139 102.947 38.1482 102.726 36.7617C102.5 35.3396 101.402 34.0564 99.7844 34.3141C98.0424 34.5917 96.9783 36.4929 96.6697 39.9323C96.3215 38.5478 96.0405 37.6995 95.6186 37.1105C95.5014 36.9469 95.286 36.8537 95.0905 36.8848C94.7705 36.9358 94.5997 37.2364 94.6422 37.5031C94.6535 37.5742 94.6854 37.6602 94.7323 37.7257C95.2949 38.5109 95.948 41.1227 96.7978 46.4554C96.8346 46.6865 97.0961 46.9547 97.4161 46.9037C97.6827 46.8612 97.8976 46.6082 97.87 46.321C97.1116 38.1303 98.6034 35.596 99.9544 35.3807C100.825 35.2419 101.49 35.8651 101.66 36.9316C101.835 38.0337 101.367 38.9833 100.549 39.1136C99.9982 39.2014 99.9698 39.0236 99.6321 39.0775C99.3655 39.1199 99.1328 39.3757 99.1838 39.6957Z" fill="#C2000D"/>
<path d="M109.114 39.7691C109.888 39.7712 110.555 39.6469 111.51 39.1814C111.69 39.0919 111.817 38.8942 111.817 38.6962C111.818 38.3722 111.549 38.1555 111.279 38.1548C111.207 38.1546 111.117 38.1724 111.044 38.2082C110.197 38.638 109.783 38.6909 109.117 38.6891C108.829 38.6884 108.577 38.6337 108.362 38.5432C109.569 38.1503 110.742 36.9834 110.745 35.6334C110.748 34.6254 109.958 33.8313 108.95 33.8287C107.348 33.8245 106.246 35.1896 106.242 36.7016C106.238 38.4116 107.386 39.7646 109.114 39.7691ZM109.665 35.6306C109.663 36.5305 108.472 37.6074 107.482 37.6049C107.375 37.3526 107.321 37.0464 107.322 36.7044C107.325 35.6964 108.029 34.9063 108.947 34.9087C109.379 34.9098 109.666 35.1986 109.665 35.6306Z" fill="#C2000D"/>
<path d="M116.864 42.9273C116.963 42.2506 117.586 41.2324 118.43 40.3195C118.616 40.9108 118.702 41.5603 118.598 42.2726C118.48 43.074 117.889 43.624 117.32 43.5402C116.981 43.4904 116.814 43.2657 116.864 42.9273ZM120.719 34.0337C120.738 33.909 120.702 33.7765 120.629 33.6565C120.272 33.1128 119.719 32.7949 119.095 32.7032C117.564 32.478 116.257 33.4501 116.031 34.9816C115.777 36.709 117.19 37.9902 117.93 39.2635C116.9 40.331 115.971 41.577 115.795 42.7702C115.662 43.6784 116.254 44.4751 117.162 44.6087C118.552 44.813 119.496 43.5874 119.666 42.4298C119.831 41.3079 119.611 40.3295 119.261 39.4956C119.723 39.0724 120.196 38.7052 120.617 38.4397C120.757 38.3512 120.834 38.1988 120.855 38.0563C120.9 37.7535 120.685 37.4854 120.4 37.4435C120.275 37.4251 120.145 37.4424 120.025 37.5157C119.604 37.7813 119.17 38.1359 118.733 38.5083C118.586 38.2684 118.419 38.0437 118.267 37.8394C117.493 36.7976 116.985 35.9223 117.1 35.1387C117.241 34.1771 117.977 33.6303 118.938 33.7717C119.312 33.8267 119.561 33.9907 119.741 34.2536C119.832 34.3762 119.964 34.4684 120.106 34.4893C120.409 34.5339 120.677 34.3186 120.719 34.0337Z" fill="#C2000D"/>
<path d="M130.894 37.0779C130.91 37.0262 130.908 36.9693 130.906 36.9124C130.886 36.0987 130.322 35.405 129.58 35.184C127.683 34.6189 125.372 36.0717 124.827 37.9004C124.54 38.8664 124.866 39.9778 125.987 40.3118C127.091 40.6406 128.308 40.402 129.457 39.8238C129.422 40.3204 129.386 41.3239 129.955 41.4935C130.248 41.5808 130.55 41.3888 130.627 41.1301C130.657 41.0266 130.654 40.9128 130.628 40.8111C130.47 40.3321 130.489 39.6994 130.726 38.9058C130.798 38.6643 130.656 38.3215 130.362 38.2341C130.207 38.1879 130.048 38.2158 129.909 38.3057C128.561 39.2377 127.279 39.5696 126.295 39.2767C125.864 39.1483 125.688 38.7952 125.862 38.2086C126.243 36.932 128.064 35.8595 129.272 36.2191C129.565 36.3065 129.831 36.6111 129.848 36.9352C129.855 37.1628 129.998 37.3745 130.223 37.4413C130.533 37.5338 130.817 37.3367 130.894 37.0779Z" fill="#C2000D"/>
</svg>
