<svg width="191" height="183" viewBox="0 0 191 183" fill="none" xmlns="http://www.w3.org/2000/svg">
<path d="M114.893 16.0258C115.171 15.4808 114.403 14.9671 113.938 14.7297C112.335 13.9111 110.275 14.7791 109.497 16.302C108.834 17.6005 109.297 19.0293 110.595 19.6924C111.477 20.1426 112.369 20.3354 113.722 20.1778C113.916 20.1553 114.054 20.0438 114.135 19.8835C114.275 19.611 114.141 19.2798 113.9 19.157C113.804 19.1078 113.691 19.0908 113.587 19.098C112.362 19.2405 111.808 19.0989 111.086 18.7306C110.301 18.3294 110.058 17.5787 110.459 16.7932C110.991 15.7512 112.485 15.2004 113.447 15.6916C113.735 15.8389 113.855 15.9204 113.982 16.1067C114.03 16.1715 114.102 16.2284 114.166 16.2612C114.407 16.384 114.745 16.3144 114.893 16.0258Z" fill="#C2000D"/>
<path d="M120.489 25.0627C120.148 25.5272 120.658 26.0798 121.224 26.4949C122.588 27.4955 124.235 26.6498 125.066 25.5177C125.917 24.3565 126.058 22.6737 124.737 21.705C123.314 20.6618 121.214 21.2423 118.552 23.4418C119.292 22.2206 119.697 21.4242 119.819 20.7101C119.853 20.5117 119.768 20.293 119.608 20.1759C119.347 19.9843 119.013 20.0743 118.853 20.292C118.811 20.3501 118.772 20.4333 118.759 20.5126C118.596 21.4648 117.199 23.7659 114.005 28.1204C113.867 28.3091 113.86 28.6836 114.121 28.8752C114.339 29.0349 114.67 29.0098 114.855 28.7882C120.144 22.4887 122.995 21.7669 124.098 22.5759C124.809 23.0975 124.834 24.0081 124.195 24.879C123.535 25.7789 122.53 26.1137 121.863 25.624C121.413 25.294 121.519 25.1489 121.243 24.9466C121.026 24.787 120.68 24.8015 120.489 25.0627Z" fill="#C2000D"/>
<path d="M128.419 33.1751C128.962 33.7267 129.519 34.113 130.522 34.4647C130.712 34.5299 130.942 34.4808 131.083 34.342C131.314 34.1147 131.278 33.7707 131.089 33.5783C131.038 33.527 130.963 33.4755 130.886 33.4494C129.985 33.1494 129.656 32.8922 129.189 32.4175C128.987 32.2123 128.849 31.9948 128.761 31.7777C129.89 32.3595 131.544 32.3728 132.506 31.4258C133.225 30.7188 133.234 29.5988 132.527 28.8803C131.403 27.7385 129.658 27.9155 128.58 28.976C127.361 30.1754 127.207 31.9434 128.419 33.1751ZM131.749 30.6561C131.107 31.2874 129.504 31.1981 128.81 30.4925C128.914 30.2388 129.094 29.9857 129.338 29.7458C130.056 29.0387 131.113 28.9836 131.757 29.6379C132.06 29.9458 132.057 30.3531 131.749 30.6561Z" fill="#C2000D"/>
<path d="M130.413 42.495C130.964 42.0898 132.126 41.8165 133.368 41.7743C133.079 42.3224 132.678 42.8406 132.098 43.2671C131.445 43.7469 130.639 43.714 130.298 43.2499C130.095 42.9743 130.137 42.6975 130.413 42.495ZM139.447 38.981C139.548 38.9063 139.618 38.7882 139.652 38.6517C139.787 38.0158 139.624 37.3986 139.251 36.891C138.334 35.6438 136.723 35.398 135.476 36.315C134.069 37.3492 134.152 39.2545 133.768 40.6765C132.284 40.6947 130.745 40.9104 129.773 41.6248C129.034 42.1686 128.884 43.15 129.428 43.8896C130.259 45.0208 131.795 44.8302 132.737 44.1372C133.651 43.4655 134.192 42.621 134.538 41.7855C135.164 41.8166 135.758 41.8943 136.243 42.0069C136.404 42.0445 136.567 41.992 136.683 41.9067C136.929 41.7255 136.969 41.3838 136.798 41.1518C136.723 41.0503 136.62 40.9701 136.483 40.9364C135.998 40.8238 135.441 40.7644 134.869 40.7158C134.936 40.4428 134.979 40.166 135.017 39.9144C135.213 38.631 135.478 37.6542 136.116 37.1851C136.899 36.6094 137.805 36.7476 138.381 37.5307C138.605 37.8353 138.663 38.1274 138.602 38.4401C138.579 38.5911 138.607 38.7497 138.692 38.8658C138.873 39.1123 139.215 39.1516 139.447 38.981Z" fill="#C2000D"/>
<path d="M143.437 49.3559C143.485 49.3305 143.524 49.2891 143.563 49.2478C144.127 48.6609 144.224 47.7725 143.859 47.0898C142.926 45.3432 140.268 44.7222 138.585 45.6211C137.696 46.0959 137.136 47.1096 137.687 48.1416C138.23 49.1577 139.255 49.8549 140.474 50.265C140.096 50.5892 139.357 51.2694 139.637 51.7934C139.781 52.0633 140.13 52.1425 140.368 52.0153C140.463 51.9644 140.542 51.8818 140.596 51.7918C140.825 51.3427 141.289 50.9115 142.019 50.5214C142.241 50.4027 142.385 50.0606 142.241 49.7907C142.165 49.6478 142.033 49.5547 141.871 49.5188C140.261 49.2159 139.123 48.5378 138.64 47.6328C138.428 47.2359 138.554 46.862 139.094 46.5737C140.269 45.9462 142.313 46.4871 142.907 47.5986C143.051 47.8685 143.021 48.2719 142.802 48.5113C142.646 48.6766 142.596 48.9276 142.706 49.134C142.859 49.4198 143.199 49.4831 143.437 49.3559Z" fill="#C2000D"/>
<path d="M144.632 65.3384C144.28 65.4133 144.216 65.9789 144.291 66.331C144.354 66.6303 144.632 66.8106 144.931 66.7469C145.283 66.6721 145.347 66.1065 145.272 65.7543C145.209 65.455 144.931 65.2748 144.632 65.3384Z" fill="#C2000D"/>
<path d="M150.406 86.2635C151.017 86.3073 151.19 85.3994 151.227 84.8788C151.356 83.0834 149.754 81.5246 148.048 81.4021C146.594 81.2977 145.459 82.2809 145.354 83.7352C145.283 84.7226 145.454 85.6191 146.126 86.8044C146.223 86.9737 146.379 87.0571 146.559 87.07C146.864 87.0919 147.117 86.8394 147.136 86.57C147.144 86.4623 147.115 86.352 147.068 86.2584C146.459 85.186 146.374 84.6204 146.432 83.8125C146.495 82.9328 147.091 82.4162 147.971 82.4794C149.138 82.5631 150.228 83.7242 150.15 84.8014C150.127 85.1246 150.099 85.2669 149.977 85.4567C149.936 85.5259 149.911 85.6144 149.906 85.6862C149.887 85.9555 150.083 86.2403 150.406 86.2635Z" fill="#C2000D"/>
<path d="M144.266 94.9403C143.705 94.8076 143.395 95.4927 143.233 96.1758C142.844 97.8223 144.265 99.0094 145.631 99.3326C147.032 99.6642 148.637 99.1374 149.014 97.5434C149.42 95.8268 148.067 94.1193 145.004 92.5253C146.416 92.73 147.308 92.793 148.013 92.6269C148.209 92.5807 148.377 92.417 148.423 92.2244C148.497 91.9091 148.284 91.6367 148.021 91.5745C147.951 91.558 147.86 91.5548 147.781 91.5732C146.841 91.7947 144.177 91.4049 138.922 90.1617C138.695 90.1078 138.347 90.2475 138.273 90.5628C138.21 90.8256 138.363 91.1205 138.639 91.2044C146.502 93.6196 148.278 95.9635 147.963 97.2947C147.76 98.153 146.931 98.5303 145.88 98.2816C144.794 98.0247 144.094 97.2302 144.284 96.4245C144.413 95.8814 144.588 95.9229 144.667 95.5901C144.729 95.3273 144.581 95.0149 144.266 94.9403Z" fill="#C2000D"/>
<path d="M140.42 104.096C140.123 104.811 139.985 105.474 140.052 106.535C140.066 106.735 140.201 106.928 140.384 107.003C140.683 107.128 140.986 106.961 141.089 106.711C141.117 106.645 141.135 106.555 141.129 106.475C141.054 105.528 141.162 105.125 141.417 104.509C141.528 104.243 141.674 104.031 141.84 103.866C141.744 105.132 142.377 106.661 143.624 107.178C144.555 107.564 145.59 107.135 145.976 106.204C146.589 104.724 145.746 103.186 144.349 102.607C142.77 101.952 141.081 102.499 140.42 104.096ZM144.037 106.18C143.206 105.835 142.663 104.324 143.042 103.41C143.316 103.406 143.62 103.474 143.936 103.605C144.867 103.991 145.33 104.942 144.978 105.79C144.813 106.19 144.436 106.345 144.037 106.18Z" fill="#C2000D"/>
<path d="M132.613 109.564C133.201 109.913 133.906 110.877 134.429 112.005C133.812 111.952 133.178 111.784 132.559 111.416C131.863 111.002 131.579 110.247 131.873 109.752C132.048 109.458 132.32 109.389 132.613 109.564ZM139.371 116.513C139.48 116.578 139.615 116.596 139.754 116.573C140.393 116.45 140.897 116.059 141.219 115.518C142.01 114.187 141.609 112.608 140.278 111.817C138.778 110.925 137.055 111.744 135.596 111.944C135.001 110.585 134.202 109.252 133.165 108.636C132.376 108.166 131.414 108.411 130.945 109.2C130.228 110.407 131.002 111.747 132.007 112.345C132.982 112.924 133.971 113.093 134.875 113.086C135.09 113.675 135.25 114.252 135.336 114.742C135.364 114.906 135.476 115.035 135.599 115.108C135.862 115.265 136.192 115.168 136.34 114.92C136.404 114.812 136.437 114.685 136.415 114.546C136.33 114.056 136.167 113.519 135.989 112.974C136.267 112.929 136.538 112.86 136.785 112.798C138.043 112.478 139.046 112.341 139.726 112.746C140.562 113.242 140.788 114.131 140.291 114.966C140.098 115.291 139.852 115.459 139.54 115.525C139.392 115.562 139.257 115.649 139.183 115.773C139.027 116.036 139.124 116.366 139.371 116.513Z" fill="#C2000D"/>
<path d="M132.685 124.764C132.727 124.798 132.781 124.818 132.834 124.838C133.594 125.129 134.45 124.871 134.937 124.269C136.181 122.73 135.717 120.04 134.233 118.84C133.449 118.207 132.297 118.086 131.562 118.996C130.838 119.891 130.595 121.107 130.693 122.39C130.247 122.168 129.333 121.753 128.959 122.215C128.767 122.453 128.83 122.805 129.04 122.975C129.124 123.043 129.23 123.082 129.334 123.097C129.837 123.133 130.415 123.392 131.059 123.913C131.255 124.071 131.626 124.07 131.819 123.832C131.92 123.706 131.955 123.549 131.925 123.386C131.576 121.784 131.757 120.472 132.402 119.674C132.685 119.324 133.078 119.296 133.554 119.68C134.59 120.518 134.889 122.611 134.097 123.591C133.904 123.829 133.521 123.959 133.216 123.85C133.002 123.771 132.752 123.823 132.605 124.005C132.401 124.257 132.475 124.594 132.685 124.764Z" fill="#C2000D"/>
<path d="M118.22 132.436C118.014 132.14 117.468 132.302 117.173 132.508C116.922 132.684 116.864 133.009 117.039 133.26C117.246 133.555 117.791 133.394 118.086 133.187C118.337 133.012 118.395 132.686 118.22 132.436Z" fill="#C2000D"/>
<path d="M51.3496 137.994C51.5201 137.677 51.1296 137.262 50.8125 137.092C50.5429 136.947 50.226 137.042 50.0812 137.312C49.9108 137.629 50.3012 138.043 50.6184 138.214C50.8879 138.359 51.2048 138.263 51.3496 137.994Z" fill="#C2000D"/>
<path d="M101.413 145.571C101.611 146.15 102.515 145.956 103.009 145.787C104.712 145.206 105.523 143.123 104.971 141.504C104.5 140.124 103.152 139.462 101.772 139.933C100.835 140.253 100.076 140.759 99.2468 141.84C99.1284 141.995 99.1126 142.172 99.1707 142.342C99.2695 142.631 99.6006 142.766 99.8561 142.679C99.9583 142.644 100.049 142.575 100.117 142.495C100.867 141.516 101.354 141.217 102.121 140.955C102.956 140.67 103.664 141.018 103.949 141.853C104.327 142.96 103.682 144.416 102.66 144.765C102.353 144.87 102.211 144.899 101.989 144.861C101.909 144.85 101.818 144.862 101.75 144.885C101.495 144.972 101.309 145.264 101.413 145.571Z" fill="#C2000D"/>
<path d="M91.0285 143.298C90.9321 142.73 90.1804 142.712 89.4883 142.829C87.8202 143.113 87.281 144.884 87.5159 146.268C87.7569 147.688 88.8675 148.96 90.4824 148.686C92.2215 148.39 93.2663 146.479 93.5401 143.036C93.9023 144.417 94.1918 145.263 94.6197 145.847C94.7386 146.01 94.9549 146.101 95.1501 146.068C95.4695 146.013 95.6373 145.711 95.5921 145.445C95.58 145.374 95.5472 145.288 95.4997 145.223C94.9292 144.444 94.2497 141.839 93.346 136.515C93.3068 136.284 93.0427 136.019 92.7232 136.073C92.457 136.118 92.2447 136.373 92.2752 136.66C93.1164 144.843 91.6503 147.392 90.3016 147.621C89.4321 147.768 88.7614 147.152 88.5807 146.087C88.3939 144.987 88.8527 144.033 89.6691 143.894C90.2192 143.801 90.2493 143.978 90.5865 143.921C90.8527 143.876 91.0827 143.618 91.0285 143.298Z" fill="#C2000D"/>
<path d="M81.0994 143.324C80.3254 143.33 79.6604 143.461 78.7099 143.936C78.5306 144.028 78.4061 144.226 78.4076 144.424C78.41 144.748 78.6816 144.962 78.9516 144.96C79.0236 144.96 79.1135 144.941 79.1852 144.905C80.028 144.466 80.4415 144.409 81.1075 144.404C81.3955 144.402 81.6479 144.454 81.8646 144.543C80.6616 144.948 79.5004 146.126 79.5105 147.476C79.5181 148.484 80.316 149.27 81.324 149.263C82.9259 149.251 84.0136 147.875 84.0023 146.363C83.9895 144.653 82.8274 143.311 81.0994 143.324ZM80.5905 147.468C80.5837 146.568 81.7636 145.479 82.7536 145.472C82.8635 145.723 82.9198 146.029 82.9223 146.371C82.9299 147.379 82.2339 148.176 81.3159 148.183C80.8839 148.186 80.5937 147.9 80.5905 147.468Z" fill="#C2000D"/>
<path d="M73.0201 138.267C72.9275 138.945 72.315 139.969 71.4805 140.891C71.2886 140.301 71.1956 139.653 71.2931 138.939C71.4029 138.137 71.9876 137.581 72.5583 137.659C72.8971 137.705 73.0665 137.928 73.0201 138.267ZM69.2551 147.199C69.238 147.324 69.2745 147.456 69.349 147.576C69.7112 148.116 70.268 148.428 70.8922 148.513C72.4259 148.723 73.7234 147.738 73.9331 146.204C74.1697 144.474 72.7442 143.207 71.9908 141.942C73.0102 140.864 73.9268 139.608 74.0902 138.414C74.2146 137.504 73.6142 136.713 72.7046 136.589C71.3136 136.399 70.3816 137.634 70.2231 138.793C70.0694 139.917 70.2993 140.893 70.6581 141.723C70.1999 142.151 69.7312 142.523 69.3128 142.793C69.1733 142.883 69.0978 143.036 69.0783 143.178C69.0369 143.482 69.2548 143.748 69.5402 143.787C69.665 143.804 69.7947 143.785 69.9139 143.711C70.3323 143.441 70.763 143.082 71.196 142.705C71.3451 142.943 71.5144 143.166 71.6684 143.369C72.4535 144.403 72.9704 145.273 72.8631 146.058C72.7314 147.021 72.0015 147.575 71.0385 147.443C70.664 147.392 70.4135 147.231 70.2312 146.97C70.1389 146.848 70.006 146.757 69.8633 146.738C69.5601 146.696 69.2941 146.914 69.2551 147.199Z" fill="#C2000D"/>
<path d="M59.0508 144.258C59.0359 144.31 59.0383 144.367 59.0407 144.424C59.0696 145.238 59.64 145.926 60.384 146.139C62.2872 146.685 64.5832 145.209 65.1093 143.375C65.3873 142.406 65.0497 141.298 63.925 140.975C62.8177 140.657 61.6034 140.908 60.4605 141.498C60.4907 141.001 60.5165 139.997 59.9455 139.834C59.6514 139.749 59.352 139.944 59.2776 140.204C59.2478 140.308 59.2526 140.421 59.2797 140.523C59.4424 141 59.4294 141.633 59.2011 142.429C59.1316 142.671 59.2771 143.013 59.5712 143.097C59.727 143.142 59.8852 143.112 60.0238 143.021C61.3624 142.075 62.641 141.73 63.6273 142.013C64.0598 142.137 64.2399 142.489 64.0712 143.077C63.7039 144.357 61.8929 145.448 60.6818 145.101C60.3876 145.016 60.1184 144.714 60.099 144.391C60.0894 144.163 59.9437 143.953 59.7188 143.888C59.4073 143.799 59.1253 143.999 59.0508 144.258Z" fill="#C2000D"/>
</svg>
