<svg width="162" height="167" viewBox="0 0 162 167" fill="none" xmlns="http://www.w3.org/2000/svg">
<path d="M68.0494 155.468C67.9508 155.389 67.8186 155.353 67.6781 155.356C65.3732 155.477 63.1171 156.027 61.3899 156.723C61.9703 156.081 62.5395 155.452 63.1002 154.748C63.7056 153.988 64.2605 153.233 64.6973 152.454C64.812 152.223 64.7523 151.922 64.5551 151.765C64.3017 151.563 63.9645 151.64 63.7963 151.851L63.7403 151.922C63.3708 152.617 62.8383 153.343 62.2553 154.076C60.6968 156.033 58.7893 157.85 58.1614 158.639C57.9933 158.85 58.0081 159.207 58.2475 159.398C58.4587 159.566 58.7904 159.554 58.9727 159.354C59.9823 158.317 63.7876 156.63 67.748 156.424C67.9138 156.418 68.0458 156.339 68.1355 156.227C68.3261 155.987 68.2747 155.647 68.0494 155.468Z" fill="#C2000D"/>
<path d="M62.1604 151.179C62.2761 151.066 62.3415 150.901 62.3305 150.735C62.3187 150.646 62.2172 149.41 61.3104 148.484C60.3785 147.533 58.7451 146.713 57.4976 147.935C56.6231 148.791 56.6335 150.217 56.5955 151.413C56.5564 152.711 56.4436 153.754 56.0321 154.157C55.5305 154.648 55.3403 154.582 55.1345 154.784C54.9416 154.973 54.8998 155.316 55.1265 155.547C55.265 155.689 55.4933 155.768 55.7106 155.681C55.7746 155.643 56.2604 155.445 56.7877 154.928C57.6623 154.072 57.6518 152.646 57.6898 151.45C57.7289 150.152 57.8417 149.11 58.2532 148.707C58.8062 148.165 59.7076 148.391 60.5388 149.24C61.3699 150.089 61.057 150.798 61.4096 151.158C61.5985 151.351 61.9418 151.393 62.1604 151.179ZM54.9968 153.357C54.7071 153.061 53.9566 153.015 52.175 151.761C51.9601 151.619 51.6544 151.641 51.4744 151.818C51.2429 152.044 51.2774 152.388 51.4663 152.581L51.5293 152.646C53.2225 153.834 54.3768 154.216 54.4529 154.242C54.6305 154.295 54.8601 154.246 55.0016 154.108C55.2331 153.881 55.1857 153.55 54.9968 153.357Z" fill="#C2000D"/>
<path d="M52.6637 138.158C52.9698 137.969 52.8385 137.415 52.649 137.109C52.4879 136.849 52.1657 136.773 51.9056 136.934C51.5995 137.123 51.7308 137.677 51.9203 137.983C52.0814 138.244 52.4035 138.319 52.6637 138.158Z" fill="#C2000D"/>
<path d="M45.5372 126.421C45.1461 126.557 44.8216 126.555 44.1084 126.421C43.2755 126.272 41.7435 125.756 40.7783 125.5C40.0245 125.304 39.3564 125.136 38.6932 125.366C37.7409 125.697 37.2524 126.705 37.5828 127.657C37.8897 128.541 38.8952 129.297 39.9325 128.937C40.5957 128.707 40.8997 128.43 40.7463 127.988C40.64 127.682 40.3142 127.567 40.0591 127.655C39.821 127.738 39.9185 127.799 39.5784 127.917C39.2553 128.029 38.7684 127.779 38.6032 127.303C38.4615 126.895 38.6392 126.528 39.0473 126.387C39.3024 126.298 39.7414 126.355 40.4952 126.551C41.4146 126.785 42.9125 127.313 43.9051 127.483C44.6523 127.604 45.2621 127.659 45.8913 127.441C47.6598 126.827 46.8413 124.139 46.2865 122.541C46.1921 122.269 45.8714 122.113 45.5994 122.208C45.3273 122.302 45.1718 122.623 45.2662 122.895C45.6321 123.949 46.3365 126.143 45.5372 126.421Z" fill="#C2000D"/>
<path d="M44.5171 120.595C44.6756 120.561 44.8189 120.457 44.8982 120.311C44.936 120.23 45.5111 119.131 45.2402 117.864C44.9617 116.561 44.0197 114.995 42.3122 115.36C41.1153 115.616 40.3616 116.827 39.6898 117.817C38.9626 118.893 38.3097 119.713 37.7464 119.834C37.0599 119.98 36.9343 119.823 36.6526 119.883C36.3886 119.94 36.1697 120.207 36.2374 120.524C36.2788 120.718 36.4296 120.907 36.6596 120.949C36.7338 120.952 37.2504 121.044 37.9721 120.89C39.1691 120.634 39.9228 119.424 40.5946 118.433C41.3218 117.358 41.9747 116.537 42.538 116.417C43.2949 116.255 43.9357 116.928 44.184 118.089C44.4323 119.251 43.7885 119.683 43.8938 120.176C43.9502 120.44 44.2179 120.659 44.5171 120.595ZM37.2995 118.604C37.2129 118.199 36.6034 117.759 35.7684 115.747C35.663 115.512 35.3927 115.367 35.1463 115.42C34.8295 115.487 34.6747 115.797 34.7311 116.061L34.7499 116.149C35.5447 118.059 36.3162 118.998 36.3664 119.061C36.4883 119.201 36.7082 119.282 36.9019 119.241C37.2187 119.173 37.3559 118.868 37.2995 118.604Z" fill="#C2000D"/>
<path d="M43.4576 104.514C43.8176 104.518 44.0029 103.98 44.0064 103.62C44.0095 103.314 43.7778 103.077 43.4718 103.074C43.1118 103.071 42.9265 103.609 42.9229 103.969C42.9199 104.275 43.1516 104.511 43.4576 104.514Z" fill="#C2000D"/>
<path d="M44.6118 92.4742C44.6406 92.3516 44.6168 92.2166 44.5538 92.0909C43.4586 90.0592 41.9957 88.2557 40.628 86.9922C41.4569 87.2419 42.2682 87.4876 43.1444 87.6931C44.0908 87.9149 45.0103 88.0935 45.9019 88.1547C46.1595 88.1596 46.4057 87.977 46.4632 87.7316C46.5372 87.4162 46.3236 87.1443 46.0608 87.0826L45.9731 87.0621C45.1867 87.0256 44.3022 86.8552 43.391 86.6416C40.955 86.0705 38.4961 85.1242 37.5147 84.8941C37.2518 84.8325 36.9355 84.9987 36.8657 85.2966C36.8041 85.5595 36.9568 85.8541 37.2156 85.9333C38.5847 86.4022 41.7377 89.1196 43.6184 92.6111C43.6948 92.7584 43.8226 92.8438 43.9628 92.8767C44.2607 92.9466 44.5461 92.7546 44.6118 92.4742Z" fill="#C2000D"/>
<path d="M45.9669 85.3177C46.1188 85.3738 46.2957 85.3624 46.4407 85.2816C46.5163 85.2328 47.5897 84.6122 48.0387 83.3964C48.5001 82.1469 48.5414 80.3201 46.9035 79.7153C45.7553 79.2913 44.4712 79.9109 43.3739 80.3883C42.1841 80.9083 41.1935 81.2525 40.6532 81.053C39.9946 80.8098 39.9725 80.6098 39.7024 80.51C39.4491 80.4165 39.121 80.5256 39.0088 80.8295C38.9402 81.0153 38.9667 81.2553 39.1381 81.4146C39.1994 81.4564 39.5867 81.8105 40.279 82.0661C41.4273 82.4901 42.7114 81.8706 43.8087 81.3931C44.9985 80.8731 45.9891 80.5289 46.5294 80.7284C47.2555 80.9966 47.437 81.9079 47.0255 83.0223C46.614 84.1368 45.8388 84.1575 45.6642 84.6303C45.5707 84.8836 45.6798 85.2117 45.9669 85.3177ZM40.9332 79.7749C41.0767 79.3865 40.7971 78.6885 41.1677 76.5419C41.2043 76.2868 41.0534 76.02 40.817 75.9327C40.513 75.8205 40.2169 75.999 40.1233 76.2522L40.0922 76.3367C39.7422 78.3757 39.8915 79.5821 39.9004 79.6621C39.9287 79.8453 40.0708 80.032 40.2565 80.1006C40.5604 80.2129 40.8397 80.0282 40.9332 79.7749Z" fill="#C2000D"/>
<path d="M53.6735 71.1628C53.9758 71.3584 54.4202 71.0027 54.6157 70.7005C54.7819 70.4435 54.7126 70.12 54.4556 69.9538C54.1534 69.7582 53.7089 70.1139 53.5134 70.4161C53.3472 70.6731 53.4166 70.9966 53.6735 71.1628Z" fill="#C2000D"/>
<path d="M61.2329 59.6982C60.9429 59.4028 60.8055 59.1088 60.6211 58.407C60.3995 57.5904 60.2106 55.9848 60.0287 55.0031C59.883 54.238 59.7492 53.5622 59.2574 53.0613C58.5512 52.342 57.4312 52.3317 56.7119 53.0378C56.044 53.6936 55.7908 54.9259 56.5601 55.7094C57.0519 56.2103 57.4323 56.3666 57.7662 56.0387C57.9974 55.8117 57.9624 55.4677 57.7733 55.2751C57.5967 55.0953 57.5829 55.2097 57.3307 54.9528C57.0911 54.7087 57.1089 54.1616 57.4686 53.8085C57.7768 53.5059 58.1841 53.5096 58.4867 53.8179C58.6759 54.0105 58.812 54.4318 58.9577 55.1969C59.1401 56.1277 59.3038 57.7076 59.5749 58.6774C59.7845 59.4049 59.9956 59.9796 60.4622 60.4549C61.7737 61.7907 63.8531 59.9006 65.0605 58.7152C65.266 58.5134 65.2693 58.1571 65.0675 57.9515C64.8657 57.746 64.5094 57.7428 64.3039 57.9445C63.5075 58.7264 61.8256 60.3019 61.2329 59.6982Z" fill="#C2000D"/>
<path d="M66.0615 56.284C66.1599 56.4127 66.3155 56.4977 66.4812 56.5069C66.5712 56.5061 67.8101 56.5558 68.8396 55.7687C69.8978 54.9597 70.9098 53.4382 69.8493 52.0512C69.1059 51.0788 67.6895 50.9155 66.507 50.7321C65.2235 50.5351 64.2024 50.2962 63.8526 49.8386C63.4262 49.2809 63.5145 49.1001 63.3396 48.8713C63.1756 48.6568 62.84 48.5735 62.5826 48.7703C62.4253 48.8905 62.3194 49.1075 62.379 49.3338C62.4085 49.4019 62.5464 49.9083 62.9946 50.4945C63.738 51.4669 65.1544 51.6302 66.337 51.8137C67.6204 52.0106 68.6415 52.2496 68.9913 52.7072C69.4614 53.322 69.1274 54.1892 68.1837 54.9107C67.2399 55.6323 66.5738 55.2352 66.1734 55.5413C65.9589 55.7053 65.8756 56.0409 66.0615 56.284ZM64.7728 48.9084C65.1017 48.657 65.2389 47.9177 66.7 46.3021C66.8674 46.1061 66.8826 45.8 66.7295 45.5998C66.5327 45.3424 66.187 45.3348 65.9725 45.4988L65.901 45.5534C64.5148 47.0891 63.9957 48.1884 63.9604 48.2607C63.8864 48.4306 63.9065 48.6644 64.0268 48.8217C64.2236 49.0791 64.5583 49.0724 64.7728 48.9084Z" fill="#C2000D"/>
<path d="M80.1422 48.4452C80.293 48.7721 80.8587 48.7093 81.1856 48.5585C81.4635 48.4303 81.5779 48.1198 81.4497 47.8419C81.2989 47.515 80.7331 47.5778 80.4063 47.7287C80.1284 47.8569 80.014 48.1674 80.1422 48.4452Z" fill="#C2000D"/>
<path d="M91.5182 44.3366C91.6413 44.3101 91.7532 44.2308 91.8398 44.1201C93.2074 42.2609 94.2115 40.1669 94.7683 38.3901C94.8972 39.2461 95.0223 40.0846 95.2116 40.9645C95.416 41.9147 95.648 42.8222 95.9743 43.6542C96.0801 43.8892 96.3505 44.0336 96.5969 43.9806C96.9136 43.9124 97.068 43.6031 97.0112 43.3391L96.9923 43.2511C96.6888 42.5247 96.4643 41.6524 96.2674 40.7373C95.7413 38.2913 95.5443 35.6639 95.3324 34.6785C95.2756 34.4145 94.99 34.1998 94.6909 34.2641C94.4269 34.3209 94.226 34.5851 94.2652 34.8528C94.4272 36.2909 93.3203 40.3034 90.9694 43.4972C90.8689 43.6293 90.8464 43.7815 90.8767 43.9222C90.941 44.2214 91.2366 44.3972 91.5182 44.3366Z" fill="#C2000D"/>
<path d="M98.5672 42.4998C98.5815 42.6612 98.6675 42.8162 98.8026 42.9126C98.8791 42.9601 99.8993 43.6647 101.19 43.5502C102.517 43.4326 104.186 42.6883 104.032 40.9491C103.923 39.7299 102.814 38.8344 101.913 38.0469C100.934 37.194 100.199 36.446 100.148 35.8723C100.086 35.173 100.257 35.0675 100.232 34.7806C100.208 34.5117 99.9691 34.2618 99.6463 34.2904C99.4491 34.3079 99.2435 34.4346 99.1729 34.6577C99.1614 34.731 99.0071 35.2326 99.0722 35.9677C99.1803 37.1869 100.29 38.0824 101.191 38.8699C102.17 39.7227 102.905 40.4708 102.956 41.0445C103.024 41.8155 102.278 42.3695 101.095 42.4745C99.9115 42.5794 99.561 41.8876 99.059 41.9321C98.79 41.956 98.5402 42.195 98.5672 42.4998ZM101.423 35.5785C101.835 35.542 102.347 34.9906 104.445 34.407C104.692 34.3309 104.868 34.0804 104.846 33.8294C104.817 33.5066 104.529 33.3153 104.26 33.3392L104.171 33.3471C102.178 33.9033 101.152 34.5545 101.083 34.5967C100.93 34.7007 100.822 34.909 100.839 35.1063C100.868 35.429 101.154 35.6024 101.423 35.5785Z" fill="#C2000D"/>
<path d="M114.659 43.4069C114.611 43.7637 115.123 44.0132 115.48 44.0606C115.783 44.1009 116.046 43.8997 116.086 43.5964C116.133 43.2395 115.622 42.99 115.265 42.9426C114.962 42.9024 114.699 43.1035 114.659 43.4069Z" fill="#C2000D"/>
<path d="M144.836 55.1076C144.789 55.4644 145.301 55.7139 145.657 55.7613C145.961 55.8016 146.224 55.6004 146.264 55.2971C146.311 54.9402 145.8 54.6907 145.443 54.6433C145.139 54.6031 144.877 54.8042 144.836 55.1076Z" fill="#C2000D"/>
<path d="M128.253 45.3342C128.396 44.9457 128.603 44.6958 129.159 44.2287C129.802 43.679 131.172 42.8213 131.982 42.2368C132.611 41.7777 133.164 41.3676 133.407 40.7088C133.755 39.7627 133.285 38.746 132.339 38.3981C131.46 38.075 130.238 38.3735 129.859 39.404C129.617 40.0628 129.638 40.4735 130.078 40.6351C130.382 40.7469 130.678 40.5681 130.771 40.3147C130.858 40.0781 130.748 40.1147 130.873 39.7768C130.991 39.4558 131.493 39.2377 131.966 39.4117C132.371 39.5608 132.542 39.9305 132.393 40.336C132.3 40.5894 131.977 40.8927 131.348 41.3517C130.585 41.9149 129.227 42.7388 128.467 43.3988C127.899 43.8997 127.47 44.3364 127.24 44.9614C126.594 46.7184 129.192 47.789 130.78 48.373C131.05 48.4725 131.373 48.3229 131.473 48.0526C131.572 47.7823 131.423 47.4588 131.152 47.3594C130.105 46.9742 127.961 46.1282 128.253 45.3342Z" fill="#C2000D"/>
<path d="M133.407 48.2372C133.332 48.3812 133.322 48.5582 133.385 48.7119C133.424 48.7929 133.909 49.934 135.061 50.5277C136.245 51.1379 138.053 51.4015 138.853 49.8495C139.414 48.7615 138.955 47.4115 138.615 46.2642C138.244 45.0199 138.023 43.9947 138.287 43.4827C138.609 42.8587 138.81 42.8612 138.942 42.6052C139.065 42.3652 138.997 42.0262 138.709 41.8778C138.533 41.7871 138.292 41.7842 138.113 41.9349C138.064 41.9907 137.665 42.332 137.327 42.988C136.766 44.076 137.225 45.426 137.565 46.5733C137.936 47.8176 138.157 48.8427 137.893 49.3548C137.539 50.0428 136.612 50.1119 135.556 49.5677C134.5 49.0234 134.574 48.2515 134.126 48.0206C133.886 47.8969 133.547 47.9652 133.407 48.2372ZM139.522 43.9165C139.89 44.1061 140.616 43.9137 142.702 44.543C142.951 44.6105 143.234 44.4932 143.349 44.2692C143.498 43.9812 143.357 43.6655 143.117 43.5418L143.037 43.5006C141.055 42.9048 139.84 42.906 139.759 42.905C139.574 42.9108 139.371 43.0291 139.281 43.2051C139.132 43.4931 139.282 43.7928 139.522 43.9165Z" fill="#C2000D"/>
</svg>
