<svg width="201" height="202" viewBox="0 0 201 202" fill="none" xmlns="http://www.w3.org/2000/svg">
<path d="M19.054 85.5999C19.098 85.3701 18.976 85.1452 18.7774 85.0339C18.4971 84.8704 18.3492 84.4939 18.4067 84.1933C18.5081 83.663 18.9646 83.3837 19.6365 83.5122C20.8741 83.7488 21.9977 85.5397 21.7476 86.848C21.6428 87.3961 20.7346 88.1204 18.2948 87.6539C13.3622 86.7108 12.1262 85.4116 12.2343 84.8458C12.2918 84.5453 12.7231 84.2063 13.4303 84.3415C14.4734 84.5409 14.6432 84.9949 14.6575 85.0159C14.7298 85.213 14.8863 85.3529 15.0631 85.3867C15.3813 85.4475 15.6442 85.2229 15.6949 84.9577C15.7084 84.887 15.7076 84.7952 15.6858 84.7177C15.6455 84.5451 15.2597 83.5917 13.6331 83.2807C12.5724 83.0779 11.3865 83.5292 11.1735 84.643C10.8085 86.5524 13.4776 87.8324 18.092 88.7147C20.6025 89.1947 22.5075 88.6243 22.8084 87.0508C23.1667 85.1767 21.7841 82.8232 19.8393 82.4514C18.7431 82.2418 17.5825 82.753 17.3459 83.9905C17.2005 84.7508 17.557 85.5703 18.2699 85.9631C18.3195 85.991 18.3692 86.0188 18.4222 86.0289C18.6874 86.0796 18.9932 85.9182 19.054 85.5999Z" fill="#C2000D"/>
<path d="M22.7265 70.8867C22.8785 70.5016 22.57 70.3025 22.854 69.5825C23.0455 69.0969 23.6187 68.7231 24.4224 69.0401C25.6112 69.5091 26.2713 71.2206 25.7759 72.4765C25.4192 73.3807 23.9935 73.7084 22.7712 73.2262C20.6614 72.394 19.7405 70.657 19.7203 70.6103C19.6528 70.4869 19.5656 70.4138 19.4483 70.3676C19.1804 70.2619 18.8535 70.4039 18.7479 70.6718C18.695 70.8057 18.6924 70.9595 18.77 71.1062C18.7903 71.1529 19.8297 73.227 22.3749 74.2309C23.8317 74.8055 26.0805 74.6477 26.7806 72.8728C27.4741 71.1146 26.6438 68.7554 24.8187 68.0355C23.5126 67.5203 22.2654 68.1313 21.8493 69.1862C21.5257 70.0067 21.6695 70.7213 21.6933 70.8081C21.7409 70.9817 21.8754 71.1314 22.0428 71.1975C22.3275 71.3098 22.6275 71.1378 22.7265 70.8867ZM19.9228 64.7498C19.6549 64.6442 19.328 64.7861 19.2223 65.054C18.4958 66.8959 17.7494 68.788 16.9242 72.3518C16.8586 72.6162 17.0037 72.8862 17.2548 72.9853C17.5562 73.1042 17.8562 72.9323 17.9553 72.6811L17.9817 72.6141C18.7805 69.1173 19.4938 67.3089 20.2138 65.4838L20.227 65.4503C20.3326 65.1824 20.1907 64.8555 19.9228 64.7498Z" fill="#C2000D"/>
<path d="M30.4381 64.7724C30.7986 64.0875 30.9973 63.4395 31.0276 62.3773C31.0318 62.1761 30.9152 61.9724 30.74 61.8801C30.4533 61.7292 30.1364 61.8675 30.0107 62.1065C29.9771 62.1702 29.9511 62.2582 29.9495 62.3387C29.9377 63.2885 29.7926 63.68 29.4824 64.2694C29.3483 64.5242 29.1831 64.7221 29.0029 64.8713C29.2142 63.6197 28.7238 62.0394 27.5292 61.4106C26.6372 60.9411 25.5675 61.273 25.098 62.165C24.3518 63.5826 25.0509 65.1914 26.3889 65.8957C27.9021 66.6921 29.6333 66.3015 30.4381 64.7724ZM27.0261 62.3663C27.8226 62.7855 28.2249 64.3398 27.7638 65.2158C27.4905 65.194 27.1946 65.0993 26.8919 64.94C25.9999 64.4705 25.6261 63.4804 26.0537 62.668C26.2549 62.2858 26.6439 62.165 27.0261 62.3663Z" fill="#C2000D"/>
<path d="M30.4934 53.1644C30.3635 53.359 30.3884 53.6137 30.5281 53.7934C32.0103 55.6909 33.1079 58.0027 32.7383 58.5567C32.6484 58.6915 32.4587 58.8462 32.0343 58.9309C31.8845 58.9608 31.7697 59.0357 31.6898 59.1555C31.53 59.3951 31.5997 59.7445 31.8393 59.9044C31.9591 59.9843 32.0939 60.0093 32.2437 59.9794C32.8178 59.8647 33.3271 59.6202 33.6368 59.156C34.2361 58.2576 33.7722 57.0393 33.2183 55.9559C34.1169 56.2956 35.1753 56.201 35.9343 55.3875L35.9843 55.3126C36.1341 55.088 36.1042 54.7436 35.8347 54.5638C35.6251 54.4239 35.3156 54.4338 35.1358 54.6384C34.6114 55.1974 33.8875 55.2122 33.1388 54.7128C32.3003 54.1534 31.8711 53.6291 31.3221 53.0897C31.2922 53.0698 31.2722 53.0348 31.2422 53.0148C31.0176 52.865 30.6732 52.8948 30.4934 53.1644Z" fill="#C2000D"/>
<path d="M34.5487 49.1555C34.4335 49.2938 34.3851 49.4644 34.4404 49.651C34.6594 50.3724 35.0881 51.0107 35.6551 51.4832C36.8444 52.4741 38.4668 52.3265 39.4578 51.1372C40.6676 49.6852 40.6422 47.4382 39.1348 46.1822C38.0147 45.2489 36.519 45.385 35.5857 46.5051C35.2515 46.9061 34.5855 48.0147 35.1249 48.4641C35.3599 48.66 35.7126 48.6023 35.8854 48.3949C35.9545 48.3119 36.0098 48.2174 36.0121 48.1022C36.0352 47.7934 36.1849 47.473 36.4154 47.1965C36.98 46.5188 37.7659 46.4474 38.4435 47.012C39.4253 47.8301 39.4923 49.4087 38.6281 50.4459C38.0058 51.1926 37.0932 51.2757 36.3465 50.6535C35.9454 50.3193 35.6366 49.8745 35.4867 49.3514C35.4522 49.2523 35.3922 49.1555 35.3093 49.0863C35.1018 48.9135 34.7446 48.9204 34.5487 49.1555Z" fill="#C2000D"/>
<path d="M45.1707 43.8964C45.5704 44.3112 46.2017 43.9028 46.7073 43.4157C47.9257 42.2417 47.3729 40.4747 46.3987 39.4637C45.3996 38.4267 43.7653 38.0017 42.5858 39.1383C41.3155 40.3622 41.5298 42.5303 43.2436 45.5283C42.1662 44.5917 41.4506 44.0565 40.7676 43.8146C40.5779 43.7475 40.3479 43.7941 40.2053 43.9315C39.972 44.1563 40.0038 44.5006 40.1912 44.6951C40.2411 44.7469 40.3165 44.7992 40.3924 44.8261C41.303 45.1485 43.3324 46.9175 47.0792 50.8061C47.2416 50.9746 47.6095 51.0451 47.8428 50.8203C48.0372 50.6329 48.0688 50.3025 47.8819 50.0827C42.5756 43.7973 42.35 40.8652 43.3351 39.916C43.9703 39.304 44.8717 39.4353 45.621 40.213C46.3954 41.0167 46.5542 42.0635 45.9579 42.638C45.5561 43.0252 45.4312 42.8956 45.1849 43.1329C44.9905 43.3202 44.9459 43.6631 45.1707 43.8964Z" fill="#C2000D"/>
<path d="M52.0635 38.8743C52.676 38.4011 53.126 37.8942 53.5948 36.9406C53.6822 36.7593 53.6609 36.5256 53.5398 36.3689C53.3417 36.1125 52.996 36.1067 52.7824 36.2718C52.7254 36.3158 52.6652 36.385 52.6302 36.4576C52.2249 37.3166 51.9303 37.6125 51.4032 38.0197C51.1753 38.1958 50.9429 38.3071 50.717 38.3679C51.4292 37.3172 51.6397 35.676 50.8144 34.6077C50.1981 33.8101 49.0871 33.6676 48.2895 34.2838C47.0217 35.2633 46.9892 37.0171 47.9137 38.2136C48.9591 39.5668 50.6961 39.9308 52.0635 38.8743ZM49.9597 35.268C50.51 35.9802 50.2302 37.5612 49.4467 38.1665C49.2072 38.0331 48.9774 37.824 48.7683 37.5533C48.152 36.7557 48.2233 35.6997 48.9498 35.1385C49.2916 34.8744 49.6956 34.9262 49.9597 35.268Z" fill="#C2000D"/>
<path d="M53.3256 29.9572C53.1883 30.0432 53.0892 30.1902 53.0645 30.3543C53.0569 30.444 52.9678 31.1157 53.4073 31.8175C53.8945 32.5955 54.862 32.8179 55.6401 32.3307C56.0825 32.0537 56.4275 31.689 56.6619 31.351C56.8457 32.0855 57.0808 32.5966 57.3197 32.978C57.7591 33.6798 58.7784 34.1883 59.648 33.6438C60.1209 33.3477 60.38 32.8457 60.5111 32.2751C60.5454 32.1262 60.5243 31.9908 60.4478 31.8687C60.295 31.6246 59.9477 31.5448 59.7036 31.6976C59.5815 31.774 59.5034 31.8867 59.4692 32.0355C59.3722 32.4573 59.2121 32.6425 59.0748 32.7285C58.8765 32.8527 58.4643 32.771 58.235 32.4048C57.9102 31.8861 57.5164 30.9859 57.4746 28.952C57.4821 28.8623 57.4401 28.7612 57.3923 28.685C57.249 28.4561 56.9227 28.3419 56.6481 28.5139C56.5108 28.5998 56.4269 28.7373 56.3966 28.9262C56.389 29.0159 56.2874 30.6511 55.0669 31.4154C54.777 31.5969 54.5041 31.5341 54.3226 31.2443C53.9787 30.6951 54.2838 30.504 54.0546 30.1379C53.9113 29.909 53.5849 29.7948 53.3256 29.9572Z" fill="#C2000D"/>
<path d="M65.1927 30.5895C65.8861 30.2455 66.4268 29.8367 67.0734 28.9935C67.1947 28.8329 67.2196 28.5996 67.1316 28.4222C66.9876 28.1319 66.6498 28.0584 66.4079 28.1784C66.3434 28.2104 66.2708 28.2665 66.2223 28.3307C65.6563 29.0937 65.3095 29.326 64.7128 29.622C64.4548 29.7499 64.2051 29.8135 63.9716 29.8289C64.876 28.9382 65.4042 27.3702 64.8043 26.1608C64.3564 25.2578 63.295 24.9002 62.392 25.3481C60.9568 26.06 60.5811 27.7734 61.2529 29.1279C62.0128 30.6598 63.6447 31.3573 65.1927 30.5895ZM63.8368 26.6407C64.2368 27.447 63.6524 28.9424 62.7655 29.3823C62.5568 29.2045 62.3724 28.9544 62.2205 28.648C61.7725 27.745 62.0495 26.7236 62.8719 26.3156C63.2589 26.1237 63.6449 26.2537 63.8368 26.6407Z" fill="#C2000D"/>
<path d="M68.2539 22.6215C68.0346 22.7032 67.8888 22.9304 67.9031 23.1749C67.9714 23.8218 68.2305 24.8778 68.5637 25.7717C69.0038 26.9523 69.1947 27.3614 69.644 28.1544C69.7721 28.3948 70.0711 28.4755 70.3072 28.3875C70.6108 28.2743 70.7189 27.9458 70.6246 27.6929C70.3479 26.9507 70.0767 26.6869 69.758 25.8836C70.7111 25.4514 71.6182 24.8444 72.1234 23.9837L72.2743 24.3885C72.6264 25.333 73.3692 26.8619 74.904 26.2897C75.4269 26.0948 75.7817 25.6552 76.025 25.1227C76.0885 24.9838 76.0951 24.8469 76.0448 24.7119C75.9442 24.4421 75.62 24.294 75.3502 24.3945C75.2152 24.4448 75.116 24.5395 75.0525 24.6784C74.8727 25.072 74.6786 25.2212 74.5268 25.2778C74.0377 25.4601 73.6887 25.0907 73.2863 24.0113L72.469 21.8187C72.381 21.5825 72.078 21.3881 71.7744 21.5013C71.5382 21.5893 71.3987 21.8334 71.4361 22.0884C71.6338 23.3402 70.7599 24.2423 69.3977 24.8653C69.1799 24.1781 69.0233 23.4488 68.9819 23.0801C68.9799 23.0232 68.9611 22.9726 68.9485 22.9389C68.8542 22.6859 68.5575 22.5083 68.2539 22.6215Z" fill="#C2000D"/>
<path d="M81.0316 19.2918C80.879 18.6991 79.9631 18.8233 79.4576 18.9535C77.7144 19.4021 76.7461 21.4171 77.1723 23.0731C77.5357 24.4851 78.8289 25.2489 80.2409 24.8854C81.1997 24.6387 81.9955 24.1922 82.9053 23.1774C83.0352 23.0324 83.0646 22.8576 83.0197 22.6833C82.9434 22.3869 82.6236 22.2276 82.3621 22.2949C82.2576 22.3219 82.1619 22.3836 82.0882 22.4584C81.2651 23.3765 80.7561 23.6376 79.9717 23.8395C79.1175 24.0594 78.4381 23.6581 78.2182 22.8039C77.9266 21.6708 78.6809 20.2686 79.7268 19.9994C80.0405 19.9186 80.1845 19.9002 80.4032 19.9554C80.4819 19.9723 80.5735 19.9673 80.6432 19.9494C80.9047 19.8821 81.1123 19.6056 81.0316 19.2918Z" fill="#C2000D"/>
<path d="M93.5753 20.468C93.4683 20.4824 93.3661 20.5326 93.2841 20.5981C92.359 21.4134 91.8229 21.6129 91.0202 21.7214C90.1461 21.8395 89.5184 21.3613 89.4003 20.4872C89.3135 19.845 89.5319 18.9074 91.0954 17.8424C91.2617 17.7291 91.3601 17.516 91.3336 17.3198C91.2902 16.9987 90.9937 16.8208 90.7261 16.857L90.6369 16.869C88.5803 17.5102 87.1132 19.2887 86.2498 20.695C86.19 19.8494 86.1003 18.917 85.9822 18.0429C85.9436 17.7575 85.6602 17.5415 85.3748 17.5801C85.0894 17.6186 84.8734 17.9021 84.9119 18.1875C85.1698 20.0962 85.2715 22.4619 85.2021 22.889C85.1915 22.9449 85.1987 22.9984 85.206 23.052C85.2421 23.3195 85.4745 23.5606 85.8134 23.5148C86.0275 23.4859 86.2068 23.3345 86.2671 23.1084C86.3225 22.8466 87.0486 21.0956 88.3628 19.6647C88.2968 19.9824 88.2891 20.3286 88.33 20.6318C88.5253 22.0767 89.7199 22.9869 91.1648 22.7917C92.1459 22.6591 92.9886 22.3091 94.0111 21.4081C94.1572 21.2794 94.2069 21.1092 94.1828 20.9308C94.1418 20.6275 93.8429 20.4318 93.5753 20.468Z" fill="#C2000D"/>
<path d="M98.7993 22.2746C99.5732 22.2597 100.237 22.1209 101.181 21.6346C101.36 21.5411 101.482 21.3407 101.478 21.1428C101.472 20.8188 101.198 20.6081 100.928 20.6133C100.856 20.6147 100.766 20.6344 100.695 20.6718C99.8573 21.12 99.4444 21.1819 98.7785 21.1948C98.4906 21.2003 98.2376 21.1512 98.0199 21.0654C99.2181 20.6462 100.365 19.4539 100.339 18.1041C100.32 17.0963 99.5128 16.3197 98.505 16.3391C96.9033 16.37 95.8318 17.7589 95.8609 19.2706C95.8939 20.9803 97.0717 22.3078 98.7993 22.2746ZM99.2595 18.1249C99.2768 19.0248 98.1099 20.1274 97.12 20.1465C97.0072 19.8966 96.9473 19.5917 96.9407 19.2498C96.9213 18.242 97.6079 17.4366 98.5258 17.4189C98.9577 17.4106 99.2512 17.693 99.2595 18.1249Z" fill="#C2000D"/>
<path d="M110.972 22.4035C110.922 22.76 111.432 23.013 111.789 23.0628C112.092 23.1052 112.356 22.9059 112.398 22.6028C112.448 22.2463 111.938 21.9932 111.582 21.9434C111.279 21.901 111.015 22.1004 110.972 22.4035Z" fill="#C2000D"/>
<path d="M124.516 21.8244C124.74 21.8918 124.976 21.7937 125.107 21.6076C125.299 21.3457 125.688 21.2374 125.981 21.3256C126.499 21.4811 126.729 21.9641 126.532 22.6191C126.169 23.8256 124.272 24.7586 122.996 24.3748C122.462 24.214 121.835 23.236 122.551 20.8573C123.998 16.0483 125.418 14.9529 125.969 15.1188C126.262 15.207 126.555 15.671 126.347 16.3605C126.042 17.3774 125.572 17.4995 125.55 17.5115C125.347 17.5631 125.191 17.7043 125.139 17.8767C125.046 18.187 125.242 18.4716 125.501 18.5494C125.57 18.5701 125.661 18.5788 125.741 18.5651C125.916 18.5428 126.905 18.2574 127.382 16.6716C127.693 15.6374 127.366 14.4114 126.28 14.0846C124.419 13.5245 122.87 16.0474 121.517 20.5461C120.78 22.9937 121.151 24.9474 122.685 25.409C124.512 25.9587 126.996 24.8263 127.566 22.9302C127.888 21.8616 127.499 20.6544 126.293 20.2914C125.551 20.0684 124.7 20.3384 124.235 21.0069C124.202 21.0534 124.17 21.1 124.154 21.1517C124.076 21.4102 124.205 21.731 124.516 21.8244Z" fill="#C2000D"/>
<path d="M138.64 26.9407C139.008 27.1308 139.237 26.844 139.925 27.1994C140.388 27.4391 140.702 28.0471 140.306 28.8146C139.719 29.95 137.949 30.4334 136.75 29.8136C135.886 29.3673 135.705 27.9157 136.308 26.7484C137.349 24.7336 139.171 23.9932 139.219 23.9778C139.349 23.9232 139.43 23.8438 139.488 23.7318C139.62 23.476 139.512 23.1364 139.256 23.0042C139.128 22.9381 138.976 22.9199 138.822 22.9822C138.773 22.9977 136.605 23.822 135.348 26.2525C134.629 27.6437 134.559 29.8969 136.254 30.773C137.933 31.6408 140.364 31.0535 141.265 29.3105C141.91 28.0633 141.428 26.7607 140.421 26.24C139.637 25.835 138.911 25.9058 138.823 25.9207C138.645 25.9505 138.483 26.0691 138.4 26.229C138.259 26.5009 138.4 26.8167 138.64 26.9407ZM145.029 24.7722C145.161 24.5163 145.053 24.1768 144.797 24.0445C143.038 23.1354 141.231 22.2014 137.769 21.0199C137.513 20.9279 137.23 21.0449 137.106 21.2847C136.957 21.5726 137.098 21.8884 137.337 22.0124L137.401 22.0454C140.799 23.1939 142.526 24.0865 144.269 24.9874L144.301 25.0039C144.557 25.1362 144.897 25.028 145.029 24.7722Z" fill="#C2000D"/>
<path d="M144.031 35.2967C144.674 35.7262 145.298 35.991 146.352 36.1311C146.551 36.1561 146.766 36.0613 146.876 35.8966C147.056 35.6271 146.951 35.2975 146.726 35.1477C146.667 35.1077 146.582 35.0728 146.502 35.0628C145.558 34.9527 145.184 34.7678 144.63 34.3983C144.39 34.2384 144.211 34.0537 144.081 33.8589C145.304 34.1988 146.927 33.8747 147.676 32.7517C148.235 31.9131 148.016 30.8148 147.177 30.2554C145.844 29.3664 144.172 29.8951 143.333 31.1529C142.384 32.5754 142.593 34.3378 144.031 35.2967ZM146.777 32.1523C146.278 32.901 144.69 33.1402 143.867 32.5908C143.917 32.3212 144.041 32.0367 144.231 31.7522C144.791 30.9137 145.814 30.6444 146.578 31.1538C146.937 31.3936 147.017 31.793 146.777 32.1523Z" fill="#C2000D"/>
<path d="M155.564 36.5415C155.384 36.3924 155.128 36.391 154.935 36.5116C152.895 37.7913 150.483 38.6461 149.97 38.2217C149.845 38.1184 149.711 37.9138 149.67 37.483C149.656 37.3309 149.593 37.209 149.482 37.1172C149.26 36.9337 148.905 36.9673 148.722 37.1892C148.63 37.3001 148.591 37.4317 148.606 37.5837C148.661 38.1666 148.852 38.6983 149.282 39.0539C150.114 39.7422 151.373 39.4057 152.508 38.9659C152.078 39.8248 152.063 40.8873 152.795 41.7258L152.864 41.7832C153.072 41.9552 153.418 41.9609 153.624 41.7112C153.785 41.517 153.807 41.2081 153.622 41.0083C153.12 40.4294 153.179 39.7078 153.753 39.0143C154.395 38.2375 154.961 37.8643 155.554 37.3736C155.576 37.3458 155.613 37.3295 155.636 37.3018C155.808 37.0937 155.814 36.748 155.564 36.5415Z" fill="#C2000D"/>
<path d="M159.083 40.933C158.957 40.8043 158.792 40.7388 158.601 40.7748C157.861 40.9192 157.182 41.2806 156.655 41.7966C155.548 42.8787 155.529 44.5078 156.611 45.6147C157.933 46.9661 160.171 47.1696 161.574 45.798C162.616 44.7788 162.633 43.277 161.614 42.2344C161.249 41.8612 160.214 41.0858 159.712 41.5765C159.493 41.7904 159.515 42.1471 159.703 42.3402C159.779 42.4174 159.867 42.482 159.982 42.496C160.286 42.5504 160.59 42.732 160.842 42.9894C161.458 43.6201 161.449 44.4092 160.819 45.0258C159.905 45.9192 158.327 45.825 157.384 44.8597C156.704 44.1647 156.715 43.2483 157.41 42.5688C157.783 42.2039 158.257 41.9419 158.792 41.8462C158.895 41.8219 158.997 41.7721 159.074 41.6966C159.267 41.5079 159.297 41.1518 159.083 40.933Z" fill="#C2000D"/>
<path d="M163.228 52.0217C162.775 52.3772 163.117 53.0467 163.55 53.5991C164.594 54.9305 166.408 54.5601 167.513 53.6936C168.646 52.805 169.235 51.2223 168.224 49.9334C167.136 48.5454 164.957 48.5384 161.8 49.9388C162.842 48.9621 163.447 48.3045 163.757 47.6497C163.843 47.4678 163.82 47.2342 163.698 47.0784C163.498 46.8235 163.152 46.8201 162.939 46.9868C162.883 47.0312 162.823 47.1009 162.789 47.1737C162.375 48.0468 160.409 49.886 156.16 53.2185C155.976 53.3629 155.869 53.7217 156.069 53.9767C156.235 54.1891 156.561 54.2541 156.798 54.0905C163.59 49.4501 166.53 49.5235 167.374 50.5999C167.919 51.2939 167.697 52.1773 166.847 52.8438C165.969 53.5325 164.911 53.5842 164.4 52.9326C164.056 52.4936 164.197 52.3825 163.986 52.1134C163.82 51.9009 163.483 51.8218 163.228 52.0217Z" fill="#C2000D"/>
<path d="M167.514 59.3641C167.922 60.0216 168.381 60.5208 169.281 61.0843C169.453 61.1897 169.688 61.1923 169.856 61.0878C170.131 60.9169 170.172 60.5735 170.03 60.3442C169.992 60.283 169.929 60.2161 169.86 60.1739C169.047 59.6832 168.783 59.36 168.431 58.7942C168.279 58.5496 168.192 58.307 168.155 58.076C169.127 58.8916 170.738 59.2681 171.885 58.5559C172.742 58.024 172.996 56.9334 172.465 56.0771C171.619 54.7162 169.878 54.5053 168.594 55.303C167.141 56.2053 166.602 57.8962 167.514 59.3641ZM171.315 57.6384C170.551 58.1133 169.007 57.6739 168.484 56.8329C168.641 56.6082 168.873 56.4009 169.163 56.2205C170.02 55.6886 171.063 55.8671 171.547 56.6469C171.775 57.0139 171.682 57.4105 171.315 57.6384Z" fill="#C2000D"/>
<path d="M176.265 61.5301C176.194 61.3848 176.058 61.2711 175.897 61.2298C175.809 61.2131 175.15 61.0556 174.407 61.4208C173.583 61.8257 173.262 62.7653 173.667 63.5892C173.897 64.0577 174.225 64.4383 174.537 64.7061C173.788 64.8136 173.255 64.9951 172.851 65.1936C172.108 65.5588 171.498 66.5206 171.95 67.4414C172.196 67.9422 172.669 68.2514 173.223 68.4403C173.368 68.4896 173.505 68.4825 173.634 68.419C173.892 68.292 174.008 67.9547 173.88 67.6962C173.817 67.567 173.713 67.4777 173.568 67.4284C173.159 67.2887 172.991 67.1105 172.92 66.9651C172.816 66.7551 172.94 66.3534 173.328 66.1629C173.877 65.893 174.813 65.5935 176.84 65.7604C176.929 65.7771 177.033 65.7456 177.114 65.7059C177.356 65.5868 177.504 65.2739 177.361 64.9831C177.289 64.8377 177.161 64.7402 176.976 64.6906C176.888 64.6739 175.272 64.4052 174.636 63.1129C174.486 62.8059 174.576 62.5409 174.883 62.3901C175.465 62.1042 175.623 62.4273 176.011 62.2368C176.253 62.1177 176.4 61.8048 176.265 61.5301Z" fill="#C2000D"/>
<path d="M174.383 73.1528C174.656 73.877 175.009 74.4557 175.783 75.1833C175.931 75.32 176.161 75.368 176.346 75.2982C176.649 75.1839 176.756 74.8551 176.661 74.6024C176.635 74.535 176.587 74.4572 176.528 74.4025C175.825 73.7633 175.628 73.395 175.393 72.7718C175.292 72.5023 175.253 72.2474 175.261 72.0136C176.057 73.0024 177.565 73.6844 178.828 73.2082C179.771 72.8526 180.233 71.8321 179.877 70.8889C179.312 69.3899 177.645 68.8451 176.23 69.3784C174.63 69.9817 173.773 71.5359 174.383 73.1528ZM178.447 72.1976C177.605 72.5151 176.175 71.7844 175.826 70.8581C176.024 70.6681 176.291 70.5097 176.611 70.389C177.554 70.0334 178.543 70.4109 178.867 71.2699C179.019 71.6741 178.851 72.0452 178.447 72.1976Z" fill="#C2000D"/>
<path d="M181.998 76.9696C181.939 76.7432 181.727 76.5752 181.483 76.5647C180.832 76.5673 179.756 76.7186 178.833 76.9598C177.614 77.2785 177.187 77.4271 176.353 77.7941C176.101 77.8972 175.99 78.1865 176.054 78.4303C176.136 78.7438 176.452 78.8845 176.713 78.8162C177.479 78.6159 177.769 78.3727 178.601 78.1368C178.934 79.1286 179.447 80.0923 180.252 80.6818L179.834 80.7911C178.859 81.046 177.263 81.6307 177.677 83.2154C177.818 83.7553 178.22 84.1527 178.725 84.4485C178.857 84.5257 178.992 84.5461 179.132 84.5096C179.41 84.4368 179.59 84.1293 179.518 83.8506C179.481 83.7113 179.397 83.6031 179.265 83.5259C178.892 83.3072 178.763 83.099 178.722 82.9423C178.59 82.4373 178.993 82.1273 180.107 81.836L182.371 81.2442C182.615 81.1805 182.839 80.8986 182.757 80.5852C182.693 80.3414 182.465 80.1779 182.207 80.1894C180.942 80.2597 180.132 79.2991 179.65 77.881C180.356 77.7338 181.097 77.6516 181.468 77.6476C181.525 77.6514 181.577 77.6377 181.612 77.6286C181.873 77.5603 182.08 77.2831 181.998 76.9696Z" fill="#C2000D"/>
<path d="M184.03 90.0541C184.635 89.9629 184.606 89.0391 184.528 88.5229C184.259 86.743 182.354 85.5739 180.663 85.8287C179.221 86.046 178.329 87.2543 178.547 88.6961C178.694 89.675 179.057 90.5123 179.974 91.521C180.105 91.6651 180.275 91.7121 180.453 91.6853C180.756 91.6397 180.947 91.3379 180.907 91.0709C180.891 90.9641 180.839 90.8627 180.772 90.7817C179.943 89.8691 179.735 89.3361 179.615 88.5351C179.483 87.663 179.952 87.0281 180.824 86.8966C181.981 86.7223 183.299 87.6159 183.46 88.6838C183.508 89.0042 183.512 89.1493 183.434 89.3612C183.41 89.4377 183.405 89.5294 183.416 89.6006C183.456 89.8676 183.71 90.1024 184.03 90.0541Z" fill="#C2000D"/>
<path d="M181.594 102.527C181.591 102.419 181.552 102.313 181.495 102.224C180.78 101.22 180.637 100.666 180.612 99.8563C180.584 98.9748 181.125 98.3998 182.007 98.3727C182.654 98.3527 183.564 98.6668 184.462 100.332C184.558 100.509 184.759 100.629 184.957 100.623C185.281 100.613 185.489 100.336 185.48 100.066L185.478 99.9765C185.052 97.8646 183.435 96.2217 182.125 95.2175C182.973 95.2454 183.909 95.2526 184.791 95.2254C185.079 95.2165 185.323 94.9569 185.314 94.669C185.305 94.3812 185.046 94.1371 184.758 94.1459C182.833 94.2053 180.469 94.062 180.051 93.9488C179.997 93.9325 179.943 93.9341 179.889 93.9358C179.619 93.9441 179.355 94.1503 179.366 94.4922C179.372 94.7081 179.504 94.9021 179.723 94.9854C179.978 95.0676 181.644 95.9707 182.932 97.4257C182.623 97.3272 182.279 97.2838 181.973 97.2932C180.516 97.3381 179.487 98.4323 179.532 99.8896C179.563 100.879 179.824 101.754 180.614 102.864C180.727 103.022 180.891 103.089 181.071 103.084C181.377 103.074 181.603 102.797 181.594 102.527Z" fill="#C2000D"/>
<path d="M179.279 107.58C179.213 108.351 179.282 109.026 179.667 110.016C179.742 110.203 179.929 110.345 180.126 110.362C180.449 110.389 180.687 110.139 180.71 109.87C180.716 109.798 180.705 109.707 180.676 109.632C180.317 108.752 180.298 108.335 180.355 107.672C180.379 107.385 180.454 107.138 180.562 106.93C180.855 108.166 181.921 109.431 183.266 109.545C184.271 109.631 185.127 108.909 185.212 107.904C185.348 106.308 184.078 105.098 182.572 104.97C180.868 104.825 179.425 105.858 179.279 107.58ZM183.358 108.469C182.461 108.393 181.486 107.117 181.57 106.131C181.83 106.045 182.139 106.017 182.48 106.046C183.485 106.131 184.214 106.898 184.136 107.813C184.1 108.243 183.788 108.506 183.358 108.469Z" fill="#C2000D"/>
<path d="M177.976 119.463C177.626 119.378 177.323 119.86 177.238 120.21C177.166 120.507 177.338 120.79 177.635 120.862C177.985 120.947 178.288 120.465 178.373 120.115C178.445 119.818 178.273 119.535 177.976 119.463Z" fill="#C2000D"/>
<path d="M177.156 133.114C177.066 133.33 177.139 133.575 177.311 133.725C177.552 133.942 177.62 134.341 177.502 134.623C177.295 135.122 176.791 135.302 176.159 135.039C174.996 134.554 174.262 132.572 174.774 131.342C174.988 130.827 176.025 130.303 178.318 131.258C182.954 133.189 183.899 134.713 183.678 135.245C183.56 135.527 183.069 135.771 182.404 135.494C181.423 135.086 181.35 134.607 181.34 134.584C181.31 134.376 181.185 134.207 181.019 134.138C180.72 134.013 180.417 134.179 180.313 134.429C180.285 134.495 180.267 134.585 180.273 134.665C180.277 134.843 180.46 135.855 181.989 136.491C182.986 136.907 184.239 136.707 184.675 135.66C185.422 133.865 183.07 132.067 178.733 130.261C176.374 129.279 174.393 129.448 173.777 130.927C173.043 132.688 173.916 135.275 175.744 136.036C176.774 136.465 178.015 136.202 178.499 135.038C178.797 134.324 178.615 133.449 177.997 132.919C177.955 132.881 177.912 132.844 177.862 132.823C177.612 132.719 177.28 132.815 177.156 133.114Z" fill="#C2000D"/>
<path d="M170.796 146.403C170.57 146.749 170.832 147.006 170.41 147.655C170.125 148.092 169.489 148.344 168.765 147.872C167.694 147.175 167.39 145.366 168.126 144.235C168.657 143.42 170.119 143.384 171.22 144.101C173.121 145.339 173.675 147.225 173.686 147.275C173.727 147.409 173.798 147.499 173.904 147.567C174.145 147.724 174.494 147.651 174.651 147.409C174.729 147.289 174.763 147.139 174.716 146.979C174.706 146.93 174.102 144.689 171.81 143.196C170.497 142.342 168.263 142.046 167.221 143.645C166.19 145.229 166.531 147.707 168.175 148.777C169.352 149.543 170.696 149.194 171.315 148.244C171.796 147.505 171.798 146.776 171.792 146.686C171.78 146.507 171.679 146.333 171.528 146.235C171.271 146.068 170.943 146.176 170.796 146.403ZM172.314 152.976C172.556 153.134 172.904 153.06 173.062 152.819C174.142 151.159 175.252 149.455 176.774 146.128C176.891 145.883 176.803 145.589 176.577 145.442C176.305 145.265 175.977 145.373 175.83 145.599L175.79 145.66C174.308 148.926 173.247 150.555 172.176 152.199L172.157 152.229C171.999 152.471 172.073 152.819 172.314 152.976Z" fill="#C2000D"/>
<path d="M161.992 150.908C161.501 151.507 161.176 152.101 160.932 153.136C160.888 153.332 160.961 153.555 161.114 153.681C161.364 153.886 161.702 153.815 161.874 153.606C161.919 153.55 161.963 153.469 161.98 153.391C162.183 152.463 162.404 152.108 162.827 151.594C163.01 151.371 163.211 151.211 163.418 151.101C162.959 152.284 163.121 153.931 164.164 154.787C164.943 155.427 166.058 155.317 166.697 154.538C167.714 153.3 167.353 151.583 166.185 150.624C164.863 149.539 163.089 149.573 161.992 150.908ZM164.849 153.953C164.154 153.382 164.073 151.778 164.701 151.013C164.964 151.089 165.235 151.242 165.499 151.459C166.278 152.098 166.445 153.143 165.863 153.853C165.589 154.187 165.183 154.227 164.849 153.953Z" fill="#C2000D"/>
<path d="M159.438 162.464C159.604 162.3 159.632 162.045 159.531 161.841C158.466 159.682 157.861 157.195 158.336 156.728C158.451 156.614 158.669 156.501 159.101 156.505C159.254 156.506 159.382 156.456 159.484 156.355C159.69 156.153 159.692 155.796 159.49 155.591C159.389 155.488 159.262 155.437 159.11 155.435C158.524 155.431 157.976 155.567 157.578 155.958C156.809 156.716 157.015 158.003 157.337 159.177C156.527 158.661 155.471 158.539 154.562 159.181L154.498 159.244C154.306 159.434 154.265 159.777 154.492 160.008C154.669 160.187 154.974 160.241 155.192 160.077C155.819 159.636 156.531 159.769 157.162 160.41C157.87 161.128 158.183 161.729 158.611 162.369C158.636 162.394 158.649 162.432 158.674 162.458C158.863 162.65 159.207 162.691 159.438 162.464Z" fill="#C2000D"/>
<path d="M154.967 165.331C155.108 165.219 155.189 165.061 155.172 164.867C155.101 164.117 154.807 163.406 154.346 162.83C153.377 161.623 151.758 161.445 150.55 162.413C149.076 163.596 148.654 165.803 149.882 167.334C150.794 168.471 152.287 168.635 153.424 167.723C153.831 167.396 154.704 166.442 154.265 165.894C154.074 165.656 153.717 165.642 153.506 165.811C153.422 165.879 153.349 165.96 153.324 166.073C153.24 166.371 153.029 166.655 152.748 166.88C152.06 167.432 151.276 167.346 150.724 166.658C149.924 165.661 150.173 164.1 151.226 163.256C151.984 162.648 152.895 162.748 153.503 163.506C153.83 163.913 154.044 164.41 154.087 164.953C154.101 165.057 154.141 165.164 154.208 165.248C154.377 165.459 154.729 165.523 154.967 165.331Z" fill="#C2000D"/>
<path d="M143.168 168.626C142.861 168.139 142.16 168.411 141.566 168.786C140.136 169.689 140.319 171.532 141.069 172.719C141.838 173.937 143.352 174.683 144.737 173.809C146.229 172.867 146.458 170.701 145.386 167.418C146.251 168.553 146.844 169.222 147.464 169.597C147.636 169.701 147.871 169.702 148.038 169.597C148.312 169.424 148.351 169.08 148.207 168.852C148.168 168.791 148.105 168.724 148.036 168.683C147.209 168.183 145.58 166.04 142.697 161.473C142.572 161.276 142.226 161.132 141.952 161.305C141.724 161.449 141.626 161.766 141.765 162.019C145.69 169.248 145.318 172.166 144.161 172.896C143.415 173.367 142.559 173.056 141.982 172.142C141.386 171.199 141.443 170.141 142.143 169.699C142.615 169.402 142.711 169.554 143 169.371C143.228 169.227 143.341 168.9 143.168 168.626Z" fill="#C2000D"/>
<path d="M135.447 172.141C134.752 172.48 134.208 172.885 133.555 173.723C133.433 173.883 133.406 174.116 133.493 174.294C133.635 174.586 133.972 174.662 134.215 174.544C134.279 174.512 134.352 174.456 134.401 174.393C134.973 173.634 135.321 173.404 135.92 173.112C136.179 172.986 136.429 172.925 136.663 172.911C135.752 173.795 135.212 175.359 135.803 176.573C136.244 177.479 137.303 177.845 138.21 177.403C139.65 176.702 140.038 174.991 139.376 173.632C138.628 172.095 137.001 171.385 135.447 172.141ZM136.774 176.1C136.38 175.291 136.976 173.8 137.866 173.366C138.073 173.546 138.256 173.797 138.405 174.105C138.847 175.011 138.562 176.03 137.737 176.432C137.348 176.621 136.963 176.489 136.774 176.1Z" fill="#C2000D"/>
<path d="M132.754 180.496C132.906 180.439 133.033 180.315 133.09 180.159C133.115 180.073 133.338 179.433 133.049 178.657C132.728 177.797 131.825 177.384 130.965 177.705C130.476 177.887 130.064 178.175 129.767 178.459C129.735 177.703 129.607 177.155 129.45 176.733C129.161 175.957 128.265 175.254 127.303 175.612C126.78 175.807 126.426 176.247 126.182 176.779C126.119 176.918 126.112 177.055 126.163 177.19C126.263 177.46 126.587 177.608 126.857 177.507C126.992 177.457 127.091 177.362 127.155 177.223C127.335 176.83 127.529 176.681 127.681 176.624C127.9 176.542 128.287 176.705 128.438 177.11C128.652 177.684 128.856 178.645 128.488 180.645C128.463 180.732 128.483 180.839 128.515 180.923C128.609 181.176 128.906 181.354 129.209 181.241C129.361 181.184 129.471 181.067 129.539 180.888C129.564 180.801 129.993 179.22 131.342 178.717C131.663 178.598 131.917 178.714 132.037 179.034C132.263 179.642 131.926 179.767 132.077 180.172C132.171 180.425 132.468 180.603 132.754 180.496Z" fill="#C2000D"/>
<path d="M120.949 177.601C120.2 177.796 119.588 178.087 118.783 178.781C118.632 178.913 118.56 179.137 118.61 179.328C118.692 179.642 119.008 179.782 119.269 179.714C119.339 179.696 119.421 179.656 119.482 179.603C120.191 178.971 120.578 178.814 121.222 178.645C121.501 178.573 121.758 178.561 121.99 178.594C120.923 179.282 120.087 180.71 120.429 182.016C120.684 182.991 121.65 183.557 122.625 183.302C124.175 182.897 124.892 181.295 124.509 179.833C124.077 178.178 122.621 177.163 120.949 177.601ZM121.474 181.742C121.246 180.872 122.122 179.526 123.08 179.276C123.248 179.493 123.378 179.775 123.464 180.106C123.719 181.081 123.24 182.025 122.352 182.257C121.934 182.366 121.583 182.16 121.474 181.742Z" fill="#C2000D"/>
<path d="M116.775 184.716C117.006 184.681 117.195 184.488 117.23 184.245C117.294 183.598 117.253 182.511 117.108 181.569C116.915 180.323 116.811 179.884 116.531 179.017C116.454 178.755 116.178 178.616 115.929 178.654C115.608 178.704 115.436 179.004 115.477 179.271C115.598 180.053 115.811 180.367 115.961 181.218C114.94 181.448 113.929 181.86 113.26 182.6L113.194 182.174C113.04 181.177 112.622 179.53 111.003 179.78C110.451 179.866 110.015 180.224 109.669 180.697C109.579 180.82 109.545 180.953 109.567 181.095C109.611 181.38 109.898 181.59 110.183 181.546C110.325 181.524 110.442 181.452 110.532 181.328C110.787 180.979 111.008 180.872 111.168 180.848C111.684 180.768 111.951 181.2 112.127 182.339L112.484 184.651C112.523 184.9 112.78 185.152 113.101 185.102C113.35 185.064 113.536 184.853 113.55 184.596C113.61 183.33 114.648 182.623 116.108 182.288C116.182 183.005 116.188 183.751 116.154 184.12C116.145 184.176 116.153 184.23 116.159 184.265C116.2 184.532 116.454 184.766 116.775 184.716Z" fill="#C2000D"/>
<path d="M103.178 185.456C103.206 186.067 104.128 186.133 104.649 186.109C106.447 186.025 107.807 184.251 107.728 182.543C107.661 181.086 106.551 180.074 105.094 180.142C104.105 180.187 103.235 180.462 102.137 181.269C101.98 181.385 101.916 181.55 101.924 181.73C101.938 182.035 102.219 182.257 102.489 182.244C102.596 182.239 102.703 182.198 102.79 182.14C103.783 181.41 104.335 181.258 105.144 181.221C106.025 181.18 106.608 181.711 106.649 182.592C106.703 183.761 105.678 184.98 104.599 185.03C104.276 185.045 104.131 185.033 103.928 184.935C103.855 184.902 103.764 184.888 103.692 184.891C103.422 184.904 103.163 185.132 103.178 185.456Z" fill="#C2000D"/>
<path d="M90.773 181.742C90.8807 181.749 90.991 181.722 91.0847 181.674C92.1581 181.067 92.7238 180.982 93.5316 181.042C94.4112 181.106 94.9269 181.704 94.8623 182.583C94.8148 183.23 94.4078 184.102 92.6584 184.822C92.4723 184.899 92.3322 185.087 92.3177 185.284C92.2939 185.607 92.5474 185.843 92.8167 185.862L92.9064 185.869C95.0511 185.665 96.8532 184.228 97.988 183.029C97.8722 183.869 97.7677 184.8 97.7032 185.68C97.6821 185.967 97.9149 186.237 98.2022 186.258C98.4894 186.279 98.7592 186.046 98.7803 185.759C98.9213 183.838 99.3094 181.502 99.4654 181.098C99.4873 181.046 99.4913 180.992 99.4952 180.938C99.515 180.669 99.3373 180.385 98.9962 180.36C98.7808 180.344 98.5741 180.455 98.4685 180.664C98.3603 180.909 97.2889 182.473 95.708 183.602C95.8381 183.305 95.917 182.968 95.9394 182.662C96.0462 181.208 95.0648 180.071 93.6107 179.965C92.6234 179.892 91.7266 180.061 90.5403 180.732C90.3708 180.828 90.2871 180.984 90.274 181.163C90.2515 181.469 90.5037 181.722 90.773 181.742Z" fill="#C2000D"/>
<path d="M85.9968 178.921C85.2365 178.775 84.5587 178.774 83.5338 179.055C83.3401 179.109 83.1792 179.28 83.142 179.474C83.0811 179.793 83.3058 180.055 83.571 180.106C83.6417 180.12 83.7335 180.119 83.8109 180.097C84.723 179.832 85.1398 179.856 85.7939 179.981C86.0768 180.036 86.3142 180.136 86.5095 180.265C85.2505 180.427 83.8816 181.357 83.6281 182.683C83.4388 183.673 84.068 184.599 85.0581 184.789C86.6316 185.09 87.9669 183.952 88.2509 182.467C88.572 180.787 87.694 179.245 85.9968 178.921ZM84.6889 182.886C84.8579 182.002 86.2276 181.164 87.2 181.35C87.2587 181.618 87.2543 181.928 87.1901 182.264C87.0008 183.254 86.1626 183.9 85.2609 183.728C84.8366 183.647 84.6078 183.31 84.6889 182.886Z" fill="#C2000D"/>
<path d="M74.5976 176.48C74.7183 176.141 74.2698 175.791 73.9306 175.67C73.6423 175.567 73.3434 175.709 73.2409 175.998C73.1203 176.337 73.5687 176.687 73.9079 176.808C74.1962 176.911 74.4951 176.769 74.5976 176.48Z" fill="#C2000D"/>
<path d="M21.5105 97.9347C21.8703 97.9448 22.0653 97.41 22.0754 97.0501C22.0839 96.7442 21.8565 96.5038 21.5506 96.4953C21.1908 96.4852 20.9958 97.02 20.9857 97.3799C20.9772 97.6857 21.2046 97.9262 21.5105 97.9347Z" fill="#C2000D"/>
</svg>
