<svg width="261" height="261" viewBox="0 0 261 261" fill="none" xmlns="http://www.w3.org/2000/svg">
<path d="M188.047 189.89C187.88 190.053 187.851 190.307 187.95 190.512C188.087 190.807 187.992 191.2 187.773 191.414C187.387 191.79 186.852 191.758 186.375 191.268C185.495 190.366 185.599 188.255 186.552 187.325C186.952 186.935 188.111 186.861 189.845 188.64C193.351 192.235 193.621 194.008 193.209 194.41C192.99 194.624 192.442 194.655 191.939 194.14C191.198 193.379 191.318 192.91 191.319 192.884C191.372 192.681 191.324 192.477 191.198 192.348C190.972 192.116 190.628 192.15 190.435 192.338C190.383 192.389 190.331 192.464 190.305 192.54C190.239 192.705 190.01 193.708 191.166 194.893C191.92 195.667 193.151 195.975 193.963 195.184C195.355 193.827 193.898 191.25 190.619 187.886C188.834 186.055 186.946 185.433 185.798 186.551C184.432 187.883 184.219 190.605 185.602 192.022C186.381 192.821 187.625 193.066 188.527 192.187C189.081 191.647 189.258 190.771 188.898 190.04C188.873 189.989 188.849 189.938 188.811 189.899C188.622 189.706 188.279 189.663 188.047 189.89Z" fill="#C2000D"/>
<path d="M177.2 194.235C177.077 194.311 176.999 194.423 176.964 194.572C176.587 196.183 177.081 199.161 177.87 202.103C177.896 202.214 177.936 202.38 177.958 202.451C177.466 201.761 176.847 200.831 175.983 199.44C175.232 198.232 173.958 196.248 172.459 197.178C171.114 198.014 171.418 200.516 171.884 202.769C171.77 202.586 171.672 202.393 171.548 202.194C170.39 200.328 169.233 199.182 167.719 200.122C166.893 200.635 166.694 201.543 166.683 201.592C166.648 201.741 166.693 201.882 166.76 201.989C166.912 202.234 167.259 202.315 167.503 202.163C167.916 201.907 167.647 201.439 168.289 201.04C168.916 200.65 169.415 200.806 170.631 202.764C171.637 204.385 172.072 205.767 172.699 206.776C172.841 207.006 173.183 207.112 173.443 206.95C173.596 206.855 173.686 206.693 173.692 206.499C173.688 206.459 173.718 205.551 173.312 204.044C172.49 201.016 172.463 198.447 173.029 198.096C173.366 197.887 174.106 198.465 175.065 200.01C177.61 204.108 178.279 204.604 178.494 204.746C178.631 204.83 178.875 204.848 179.059 204.734C179.211 204.639 179.302 204.477 179.308 204.282C179.304 204.242 179.333 203.334 178.928 201.828C178.146 198.965 177.733 195.98 178.005 194.815C178.04 194.666 178.019 194.531 177.943 194.408C177.791 194.164 177.444 194.083 177.2 194.235Z" fill="#C2000D"/>
<path d="M161.595 207.801C161.616 207.851 161.654 207.893 161.692 207.936C162.232 208.545 163.11 208.713 163.82 208.404C165.635 207.614 166.468 205.015 165.707 203.265C165.305 202.341 164.339 201.701 163.266 202.167C162.21 202.627 161.433 203.593 160.926 204.775C160.633 204.372 160.014 203.581 159.47 203.818C159.189 203.94 159.082 204.281 159.19 204.529C159.233 204.628 159.309 204.713 159.394 204.774C159.824 205.038 160.216 205.535 160.547 206.294C160.647 206.525 160.977 206.696 161.257 206.574C161.406 206.51 161.509 206.386 161.558 206.227C161.989 204.646 162.756 203.567 163.697 203.158C164.11 202.978 164.472 203.134 164.716 203.696C165.247 204.917 164.544 206.911 163.389 207.414C163.108 207.536 162.708 207.474 162.487 207.236C162.335 207.067 162.089 206.997 161.874 207.091C161.577 207.22 161.487 207.554 161.595 207.801Z" fill="#C2000D"/>
<path d="M150.651 208.418C151.116 208.276 150.975 207.754 151.544 207.581C152.267 207.36 153.181 209.246 153.68 210.881C153.764 211.157 154.078 211.324 154.354 211.24C154.629 211.156 154.768 210.869 154.734 210.635C154.667 210.354 154.092 206.804 155.848 206.268C156.743 205.995 157.393 206.398 157.698 207.397C158.039 208.516 157.914 208.723 157.998 208.999C158.077 209.257 158.363 209.452 158.672 209.358C158.879 209.295 159.032 209.116 159.049 208.866C159.046 208.792 159.067 208.184 158.731 207.082C158.3 205.67 157.047 204.772 155.532 205.235C154.241 205.629 153.745 206.778 153.576 207.827C153.105 207.086 152.313 206.217 151.228 206.548C150.35 206.816 150.051 207.623 150.015 207.69C149.972 207.797 149.957 207.933 149.994 208.054C150.073 208.312 150.375 208.502 150.651 208.418ZM160.751 217.401C160.714 217.281 160.625 217.176 160.53 217.111C159.624 216.484 158.729 216.513 158.092 216.707C157.094 217.012 156.221 217.73 155.683 218.741C155.611 218.876 155.596 219.012 155.638 219.15C155.722 219.425 156.037 219.593 156.312 219.509C156.45 219.467 156.555 219.378 156.627 219.243C157.045 218.457 157.684 217.961 158.407 217.74C158.803 217.619 159.322 217.593 159.938 218.007C160.078 218.096 160.237 218.123 160.392 218.076C160.684 217.986 160.835 217.677 160.751 217.401Z" fill="#C2000D"/>
<path d="M139.376 210.865C139.483 210.849 139.584 210.796 139.664 210.729C140.57 209.892 141.101 209.68 141.901 209.553C142.772 209.414 143.411 209.878 143.55 210.749C143.651 211.389 143.455 212.331 141.917 213.432C141.753 213.55 141.66 213.765 141.691 213.96C141.742 214.28 142.042 214.451 142.309 214.409L142.398 214.395C144.439 213.706 145.864 211.894 146.694 210.468C146.774 211.312 146.885 212.242 147.024 213.113C147.069 213.397 147.357 213.607 147.642 213.561C147.926 213.516 148.136 213.228 148.09 212.943C147.788 211.041 147.631 208.678 147.691 208.25C147.7 208.194 147.691 208.14 147.683 208.087C147.641 207.82 147.403 207.585 147.065 207.638C146.852 207.672 146.676 207.828 146.621 208.055C146.572 208.318 145.886 210.086 144.606 211.547C144.665 211.228 144.664 210.882 144.616 210.579C144.387 209.139 143.172 208.257 141.732 208.486C140.754 208.642 139.92 209.011 138.919 209.936C138.776 210.068 138.73 210.239 138.758 210.417C138.806 210.719 139.11 210.908 139.376 210.865Z" fill="#C2000D"/>
<path d="M136.129 214.16C136.309 214.153 136.468 214.074 136.569 213.908C136.957 213.261 137.142 212.515 137.112 211.777C137.048 210.231 135.849 209.127 134.302 209.191C132.414 209.269 130.766 210.797 130.847 212.757C130.907 214.214 132.012 215.231 133.469 215.171C133.99 215.149 135.259 214.899 135.23 214.197C135.217 213.891 134.938 213.669 134.668 213.68C134.56 213.684 134.453 213.707 134.366 213.783C134.122 213.973 133.784 214.077 133.424 214.092C132.543 214.128 131.962 213.594 131.926 212.713C131.873 211.436 132.998 210.326 134.347 210.27C135.318 210.23 135.992 210.851 136.033 211.822C136.054 212.344 135.932 212.871 135.645 213.333C135.594 213.425 135.563 213.535 135.567 213.643C135.579 213.913 135.823 214.173 136.129 214.16Z" fill="#C2000D"/>
<path d="M121.069 210.419C121.554 210.456 121.612 209.919 122.205 209.963C122.958 210.02 123.126 212.109 122.997 213.814C122.975 214.101 123.208 214.371 123.495 214.393C123.782 214.415 124.015 214.197 124.069 213.967C124.108 213.681 124.861 210.164 126.692 210.302C127.625 210.372 128.084 210.985 128.006 212.026C127.918 213.192 127.726 213.34 127.704 213.628C127.684 213.897 127.879 214.182 128.202 214.207C128.418 214.223 128.625 214.112 128.732 213.886C128.755 213.815 128.996 213.256 129.083 212.107C129.194 210.635 128.353 209.344 126.773 209.225C125.427 209.123 124.547 210.014 124.009 210.93C123.839 210.069 123.417 208.972 122.286 208.886C121.37 208.817 120.798 209.46 120.741 209.51C120.662 209.594 120.599 209.716 120.589 209.841C120.569 210.111 120.782 210.397 121.069 210.419ZM127.632 221.765C127.655 221.46 127.421 221.208 127.134 221.186L127.098 221.183C125.31 221.193 123.692 221.107 122.454 221.013C122.166 220.992 121.896 221.224 121.875 221.511C121.853 221.798 122.085 222.069 122.372 222.09C123.647 222.186 125.265 222.272 127.089 222.266C127.377 222.269 127.611 222.034 127.632 221.765Z" fill="#C2000D"/>
<path d="M115.788 207.897C115.028 207.748 114.351 207.744 113.325 208.02C113.131 208.074 112.969 208.244 112.931 208.439C112.869 208.757 113.092 209.02 113.357 209.072C113.428 209.086 113.52 209.086 113.597 209.064C114.511 208.802 114.927 208.829 115.581 208.957C115.863 209.012 116.1 209.113 116.295 209.243C115.036 209.4 113.663 210.324 113.404 211.649C113.211 212.638 113.836 213.567 114.825 213.761C116.397 214.068 117.738 212.936 118.028 211.452C118.356 209.774 117.484 208.228 115.788 207.897ZM114.464 211.856C114.637 210.973 116.01 210.141 116.981 210.331C117.039 210.599 117.033 210.909 116.968 211.245C116.774 212.234 115.933 212.877 115.032 212.701C114.608 212.618 114.381 212.28 114.464 211.856Z" fill="#C2000D"/>
<path d="M108.732 204.804C108.854 204.466 108.407 204.113 108.069 203.991C107.781 203.888 107.481 204.028 107.378 204.316C107.256 204.655 107.702 205.007 108.041 205.129C108.329 205.233 108.628 205.092 108.732 204.804Z" fill="#C2000D"/>
<path d="M194.446 178.524C194.146 178.325 193.698 178.676 193.499 178.976C193.33 179.232 193.396 179.556 193.651 179.725C193.952 179.923 194.4 179.572 194.598 179.272C194.767 179.017 194.701 178.693 194.446 178.524Z" fill="#C2000D"/>
<path d="M51.131 128.721C51.4909 128.729 51.6822 128.193 51.6898 127.833C51.6963 127.527 51.4673 127.288 51.1613 127.282C50.8014 127.274 50.6101 127.81 50.6025 128.17C50.596 128.476 50.825 128.715 51.131 128.721Z" fill="#C2000D"/>
<path d="M50.2906 109.361C50.3488 109.135 50.2412 108.903 50.05 108.779C49.7805 108.598 49.6564 108.213 49.7326 107.917C49.8671 107.394 50.3402 107.144 51.0027 107.314C52.223 107.628 53.2323 109.486 52.9006 110.776C52.7617 111.316 51.8099 111.982 49.4042 111.364C44.5403 110.114 43.3881 108.739 43.5315 108.182C43.6077 107.885 44.0594 107.574 44.7568 107.753C45.7853 108.018 45.9263 108.481 45.9393 108.503C45.9991 108.704 46.1465 108.854 46.3208 108.899C46.6346 108.979 46.911 108.772 46.9783 108.51C46.9962 108.44 47.0012 108.349 46.9842 108.27C46.9548 108.095 46.6295 107.119 45.0256 106.707C43.9796 106.438 42.7678 106.814 42.4855 107.913C42.0015 109.795 44.5852 111.24 49.1353 112.41C51.6108 113.046 53.5478 112.596 53.9466 111.045C54.4217 109.197 53.1892 106.761 51.2715 106.268C50.1907 105.99 49.0003 106.428 48.6866 107.648C48.4939 108.398 48.7983 109.238 49.4852 109.675C49.533 109.706 49.5808 109.737 49.6331 109.75C49.8946 109.817 50.2099 109.675 50.2906 109.361Z" fill="#C2000D"/>
<path d="M57.2811 100.069C57.3461 99.9404 57.3549 99.8036 57.3073 99.6585C56.7922 98.0861 54.8237 95.7978 52.6208 93.6935C52.5407 93.6126 52.4205 93.4912 52.3644 93.4426C53.1436 93.7767 54.1554 94.2488 55.6167 94.9888C56.8853 95.6313 59.0052 96.6646 59.8022 95.0909C60.5178 93.6778 58.9583 91.6975 57.3892 90.015C57.5819 90.1126 57.7664 90.2263 57.9752 90.332C59.9343 91.3242 61.5181 91.7026 62.3233 90.1129C62.7624 89.2457 62.4611 88.3667 62.4452 88.3184C62.3977 88.1732 62.2855 88.076 62.1731 88.0191C61.9161 87.889 61.5775 88 61.4473 88.2569C61.2278 88.6904 61.7014 88.9505 61.3598 89.6249C61.0264 90.2833 60.5186 90.4095 58.4631 89.3685C56.761 88.5065 55.6711 87.551 54.6113 87.0142C54.3704 86.8922 54.0238 86.979 53.8855 87.252C53.8042 87.4126 53.8113 87.5977 53.907 87.7673C53.931 87.7996 54.3778 88.5908 55.5073 89.6673C57.7823 91.8283 59.1396 94.0088 58.8387 94.6029C58.6598 94.9562 57.7265 94.8467 56.1047 94.0254C51.8011 91.8458 50.9724 91.7691 50.7148 91.7597C50.5538 91.7589 50.3359 91.8705 50.2383 92.0632C50.157 92.2238 50.1641 92.4089 50.2598 92.5785C50.2838 92.6108 50.7305 93.402 51.86 94.4785C54.015 96.5181 55.9188 98.8544 56.2913 99.9913C56.3389 100.136 56.4269 100.242 56.5553 100.307C56.8123 100.437 57.1509 100.326 57.2811 100.069Z" fill="#C2000D"/>
<path d="M63.5569 80.3329C63.5127 80.3019 63.4581 80.2856 63.4036 80.2694C62.6251 80.0314 61.7888 80.3463 61.3445 80.9801C60.2078 82.6013 60.8547 85.2532 62.417 86.3485C63.2423 86.9272 64.3999 86.9693 65.0715 86.0113C65.7328 85.068 65.8915 83.8383 65.7067 82.5656C66.1666 82.7562 67.1072 83.1078 67.4482 82.6214C67.6238 82.3709 67.5371 82.0243 67.316 81.8693C67.2276 81.8073 67.1185 81.7748 67.0138 81.7673C66.5095 81.7655 65.9154 81.5468 65.2374 81.0715C65.0311 80.9268 64.6609 80.9531 64.4852 81.2036C64.3922 81.3363 64.3685 81.4955 64.4097 81.6563C64.8671 83.23 64.7762 84.5512 64.1872 85.3913C63.9289 85.7598 63.5381 85.8155 63.0369 85.4642C61.9463 84.6995 61.5055 82.6318 62.2288 81.6001C62.4044 81.3495 62.7776 81.1935 63.0902 81.2807C63.3084 81.3458 63.5547 81.2767 63.689 81.0851C63.875 80.8198 63.778 80.4879 63.5569 80.3329Z" fill="#C2000D"/>
<path d="M72.7917 73.8627C72.4673 74.2247 72.8574 74.5985 72.4609 75.0408C71.9564 75.6038 70.1986 74.4635 68.9253 73.3222C68.7108 73.1299 68.3549 73.1494 68.1627 73.3639C67.9705 73.5783 68.0006 73.8954 68.1508 74.0784C68.3533 74.284 70.6829 77.0246 69.4575 78.3918C68.8328 79.0888 68.0675 79.0797 67.29 78.3829C66.4188 77.602 66.4183 77.3599 66.2038 77.1676C66.0027 76.9874 65.6575 76.9681 65.4413 77.2093C65.2971 77.3702 65.2588 77.6017 65.373 77.8249C65.4146 77.8864 65.7113 78.4183 66.5692 79.1872C67.6683 80.1723 69.2045 80.2922 70.2617 79.1127C71.1628 78.1074 70.993 76.8674 70.5949 75.8822C71.3811 76.2726 72.5083 76.6061 73.2652 75.7616C73.8779 75.078 73.7169 74.2328 73.7128 74.1565C73.6938 74.0428 73.636 73.9185 73.5422 73.8344C73.3411 73.6542 72.9839 73.6483 72.7917 73.8627ZM59.5008 71.4016C59.5946 71.4857 59.7245 71.5296 59.8395 71.536C60.9395 71.6033 61.6904 71.1161 62.1349 70.6202C62.8317 69.8427 63.2068 68.7769 63.1442 67.6331C63.1359 67.4806 63.0781 67.3563 62.9709 67.2602C62.7564 67.068 62.4005 67.0875 62.2083 67.3019C62.1122 67.4092 62.0683 67.539 62.0767 67.6915C62.1253 68.5812 61.8352 69.3364 61.3306 69.8993C61.0543 70.2076 60.6241 70.4988 59.8828 70.4629C59.7169 70.4592 59.5672 70.5184 59.4591 70.639C59.2548 70.8669 59.2863 71.2094 59.5008 71.4016Z" fill="#C2000D"/>
<path d="M81.101 65.9666C81.0186 66.0364 80.9594 66.1337 80.9257 66.2331C80.585 67.4182 80.2408 67.875 79.6228 68.3987C78.9498 68.9688 78.1634 68.9038 77.5932 68.2309C77.1743 67.7365 76.8535 66.8287 77.5975 65.0895C77.6767 64.9044 77.6448 64.6719 77.5168 64.5209C77.3074 64.2737 76.9617 64.2834 76.7557 64.4579L76.6871 64.5161C75.2992 66.1638 75.0206 68.4524 75.0503 70.1024C74.5446 69.422 73.967 68.6846 73.3968 68.0116C73.2106 67.7919 72.8555 67.7625 72.6357 67.9487C72.416 68.1349 72.3866 68.4901 72.5728 68.7098C73.8178 70.1793 75.1774 72.118 75.3488 72.5153C75.37 72.5681 75.4049 72.6093 75.4398 72.6505C75.6144 72.8565 75.94 72.9345 76.2009 72.7134C76.3657 72.5738 76.4353 72.3497 76.3644 72.1267C76.2701 71.8763 75.9391 70.0098 76.2761 68.0964C76.3915 68.3997 76.5714 68.6956 76.7692 68.929C77.7117 70.0414 79.2085 70.1652 80.3209 69.2227C81.0763 68.5827 81.5979 67.834 81.9744 66.5241C82.0282 66.337 81.9784 66.1669 81.8621 66.0295C81.6642 65.7961 81.307 65.7921 81.101 65.9666Z" fill="#C2000D"/>
<path d="M82.0156 61.5731C81.8657 61.6727 81.7706 61.8223 81.7703 62.017C81.7741 62.7709 82.0026 63.5051 82.411 64.1198C83.2677 65.4091 84.8647 65.7311 86.1541 64.8744C87.7283 63.8285 88.3457 61.6678 87.2599 60.0336C86.453 58.8192 84.9808 58.5224 83.7664 59.3293C83.3316 59.6181 82.3767 60.4903 82.7652 61.075C82.9345 61.3299 83.2889 61.3754 83.5138 61.2259C83.6038 61.1662 83.6838 61.0914 83.7189 60.9816C83.8292 60.6923 84.0642 60.428 84.3641 60.2288C85.0987 59.7407 85.8722 59.8967 86.3604 60.6313C87.0676 61.6957 86.6808 63.2278 85.5564 63.9749C84.7468 64.5128 83.8485 64.3317 83.3106 63.5221C83.0217 63.0873 82.8527 62.5728 82.8586 62.0287C82.8537 61.9238 82.824 61.814 82.7642 61.724C82.6148 61.4991 82.2705 61.4037 82.0156 61.5731Z" fill="#C2000D"/>
<path d="M96.9139 56.9227C96.4801 57.1419 96.7075 57.632 96.1774 57.8998C95.5026 58.2408 94.2799 56.5393 93.5088 55.0131C93.3789 54.756 93.0403 54.6447 92.7833 54.7746C92.5262 54.9045 92.439 55.2107 92.5124 55.4358C92.6262 55.701 93.7996 59.1012 92.1609 59.9292C91.3255 60.3513 90.6159 60.0644 90.1451 59.1326C89.6175 58.0883 89.7051 57.8626 89.5752 57.6055C89.4534 57.3645 89.1389 57.221 88.8497 57.3671C88.6569 57.4645 88.537 57.6662 88.5622 57.9157C88.5786 57.9881 88.6616 58.5914 89.1812 59.6197C89.8468 60.9371 91.2342 61.6074 92.648 60.8931C93.8529 60.2843 94.1456 59.0675 94.1331 58.005C94.7235 58.6546 95.6523 59.3752 96.6644 58.8638C97.4838 58.4498 97.6412 57.6039 97.6651 57.5313C97.6887 57.4185 97.6801 57.2817 97.6233 57.1693C97.5015 56.9283 97.1709 56.7928 96.9139 56.9227ZM85.4314 50.6016C85.5694 50.8747 85.8999 50.9699 86.1569 50.84L86.189 50.8238C87.7146 49.8917 89.1443 49.129 90.2528 48.5689C90.5099 48.439 90.6212 48.1004 90.4913 47.8434C90.3614 47.5863 90.0229 47.4751 89.7658 47.6049C88.6251 48.1813 87.1955 48.944 85.6377 49.8923C85.3888 50.0383 85.3097 50.3606 85.4314 50.6016Z" fill="#C2000D"/>
<path d="M102.743 56.3408C103.47 56.075 104.053 55.728 104.788 54.9608C104.926 54.8144 104.976 54.5852 104.908 54.3993C104.797 54.095 104.469 53.9848 104.216 54.0775C104.148 54.1023 104.07 54.1501 104.014 54.2086C103.368 54.9049 102.998 55.0978 102.373 55.3265C102.102 55.4254 101.847 55.4613 101.613 55.4509C102.61 54.6648 103.307 53.1642 102.843 51.8963C102.497 50.9496 101.481 50.4777 100.534 50.8239C99.0298 51.3741 98.4684 53.036 98.9877 54.456C99.575 56.062 101.121 56.9343 102.743 56.3408ZM101.829 52.2672C102.138 53.1124 101.393 54.5347 100.463 54.8747C100.275 54.6752 100.119 54.4063 100.002 54.0851C99.6558 53.1384 100.043 52.1535 100.905 51.8382C101.311 51.6899 101.68 51.8615 101.829 52.2672Z" fill="#C2000D"/>
<path d="M113.88 52.5525C113.951 52.9055 114.515 52.9759 114.868 52.9052C115.168 52.845 115.352 52.5696 115.292 52.2696C115.221 51.9166 114.656 51.8462 114.303 51.9169C114.003 51.9771 113.82 52.2525 113.88 52.5525Z" fill="#C2000D"/>
<path d="M126.367 47.52C126.6 47.5096 126.791 47.3388 126.853 47.1198C126.947 46.8093 127.279 46.5782 127.585 46.5645C128.124 46.5402 128.502 46.9197 128.532 47.603C128.589 48.8618 127.107 50.3697 125.776 50.4294C125.219 50.4545 124.304 49.7388 124.193 47.2573C123.967 42.2403 124.945 40.737 125.52 40.7111C125.826 40.6974 126.256 41.0385 126.288 41.7578C126.336 42.8187 125.933 43.089 125.916 43.1078C125.741 43.2238 125.641 43.4084 125.65 43.5882C125.664 43.9119 125.943 44.1156 126.213 44.1035C126.285 44.1003 126.374 44.0782 126.445 44.039C126.603 43.9599 127.441 43.3637 127.367 41.7093C127.319 40.6304 126.605 39.5814 125.472 39.6322C123.53 39.7194 122.903 42.6124 123.114 47.3057C123.228 49.8591 124.224 51.5802 125.825 51.5083C127.731 51.4228 129.7 49.5326 129.611 47.5546C129.561 46.4397 128.795 45.429 127.536 45.4855C126.763 45.5202 126.049 46.0568 125.832 46.8414C125.816 46.8961 125.8 46.9509 125.803 47.0048C125.815 47.2745 126.043 47.5346 126.367 47.52Z" fill="#C2000D"/>
<path d="M137.512 51.471C137.654 51.4957 137.788 51.4642 137.913 51.3764C139.266 50.4251 140.881 47.8748 142.251 45.1539C142.306 45.0537 142.387 44.9034 142.417 44.8356C142.324 45.6783 142.168 46.7838 141.886 48.3974C141.642 49.7982 141.271 52.1273 143.009 52.4307C144.57 52.7031 146.009 50.6339 147.161 48.6423C147.124 48.8551 147.069 49.0647 147.028 49.2953C146.651 51.4585 146.751 53.0839 148.506 53.3904C149.464 53.5576 150.216 53.013 150.258 52.9837C150.383 52.8959 150.443 52.7602 150.465 52.6361C150.515 52.3524 150.31 52.0608 150.026 52.0113C149.547 51.9277 149.437 52.4566 148.692 52.3265C147.965 52.1996 147.696 51.7507 148.092 49.481C148.42 47.6014 149.017 46.2803 149.221 45.11C149.267 44.844 149.083 44.5378 148.782 44.4852C148.605 44.4542 148.429 44.515 148.295 44.656C148.271 44.6884 147.645 45.3464 146.944 46.7408C145.541 49.5472 143.851 51.4813 143.195 51.3668C142.805 51.2987 142.637 50.3741 142.95 48.5832C143.78 43.8311 143.611 43.016 143.545 42.7669C143.499 42.6127 143.329 42.4368 143.116 42.3996C142.939 42.3686 142.764 42.4294 142.629 42.5704C142.606 42.6028 141.979 43.2609 141.279 44.6552C139.956 47.3113 138.277 49.8137 137.298 50.5016C137.173 50.5894 137.098 50.7043 137.073 50.8461C137.024 51.1298 137.229 51.4214 137.512 51.471Z" fill="#C2000D"/>
<path d="M158.044 51.6657C158.061 51.6143 158.061 51.5574 158.06 51.5005C158.061 50.6865 157.516 49.9782 156.781 49.7377C154.899 49.1226 152.55 50.5139 151.957 52.3275C151.644 53.2856 151.941 54.4052 153.053 54.7687C154.148 55.1266 155.371 54.9202 156.535 54.3726C156.486 54.8681 156.424 55.8703 156.988 56.0548C157.279 56.1499 157.586 55.966 157.669 55.7093C157.703 55.6067 157.702 55.4928 157.679 55.3905C157.534 54.9075 157.57 54.2755 157.827 53.4884C157.905 53.2489 157.773 52.9025 157.482 52.8074C157.328 52.7571 157.168 52.7808 157.027 52.867C155.654 53.763 154.364 54.0609 153.389 53.7421C152.961 53.6023 152.794 53.2447 152.984 52.663C153.398 51.3969 155.247 50.3728 156.445 50.7643C156.736 50.8593 156.994 51.1709 157.002 51.4953C157.003 51.723 157.141 51.9385 157.363 52.0112C157.671 52.1118 157.96 51.9223 158.044 51.6657Z" fill="#C2000D"/>
<path d="M166.797 58.5547C166.356 58.3503 166.112 58.8326 165.573 58.5827C164.887 58.2646 165.464 56.2504 166.184 54.6991C166.305 54.4378 166.182 54.1032 165.921 53.982C165.66 53.8609 165.365 53.9823 165.234 54.1794C165.097 54.4331 163.156 57.4619 161.491 56.6895C160.642 56.2957 160.427 55.5612 160.866 54.6141C161.358 53.5526 161.59 53.4814 161.711 53.2201C161.824 52.9752 161.742 52.6394 161.448 52.503C161.252 52.4122 161.02 52.4432 160.839 52.6176C160.793 52.6754 160.371 53.1146 159.886 54.1597C159.265 55.4987 159.599 57.0029 161.036 57.6693C162.261 58.2372 163.397 57.7125 164.223 57.044C164.08 57.9099 164.09 59.0854 165.119 59.5625C165.952 59.9487 166.713 59.5477 166.785 59.5215C166.888 59.4701 166.99 59.3785 167.043 59.2642C167.157 59.0193 167.058 58.6759 166.797 58.5547ZM165.267 45.1248C165.214 45.2391 165.21 45.3761 165.237 45.488C165.494 46.5596 166.179 47.1354 166.784 47.4156C167.731 47.8548 168.86 47.9021 169.935 47.508C170.079 47.4555 170.181 47.3639 170.241 47.2333C170.362 46.972 170.24 46.6373 169.978 46.5162C169.848 46.4556 169.711 46.4516 169.567 46.5041C168.731 46.8106 167.924 46.7538 167.238 46.4358C166.862 46.2616 166.458 45.9353 166.276 45.2158C166.231 45.0561 166.131 44.9302 165.984 44.862C165.706 44.7333 165.388 44.8635 165.267 45.1248Z" fill="#C2000D"/>
<path d="M176.761 64.1613C176.67 64.1031 176.559 64.0753 176.454 64.0723C175.221 64.0957 174.683 63.9012 174.001 63.4647C173.258 62.9895 173.089 62.2188 173.564 61.4758C173.913 60.9299 174.686 60.3559 176.567 60.5549C176.767 60.5761 176.98 60.4772 177.087 60.3104C177.261 60.0374 177.15 59.71 176.923 59.5645L176.847 59.516C174.864 58.6749 172.595 59.0825 171.027 59.5966C171.528 58.913 172.063 58.1438 172.538 57.4008C172.693 57.1582 172.616 56.8101 172.374 56.655C172.131 56.4998 171.783 56.5763 171.628 56.8189C170.59 58.4414 169.138 60.3115 168.809 60.5924C168.764 60.6282 168.735 60.6737 168.706 60.7192C168.561 60.9466 168.582 61.2808 168.87 61.465C169.052 61.5814 169.287 61.582 169.479 61.4485C169.691 61.2847 171.377 60.4188 173.305 60.1775C173.049 60.3771 172.819 60.6361 172.654 60.8939C171.868 62.1221 172.191 63.589 173.419 64.3746C174.253 64.908 175.122 65.1861 176.485 65.1602C176.68 65.1565 176.828 65.0588 176.925 64.9072C177.089 64.6494 176.988 64.3068 176.761 64.1613Z" fill="#C2000D"/>
<path d="M181.603 64.0217C181.464 63.9073 181.294 63.86 181.107 63.9165C180.387 64.1399 179.752 64.5725 179.283 65.1424C178.299 66.3377 178.457 67.9593 179.652 68.9429C181.111 70.1438 183.358 70.1044 184.605 68.5894C185.531 67.4636 185.386 65.9687 184.26 65.0423C183.857 64.7106 182.744 64.0515 182.298 64.5936C182.104 64.8299 182.164 65.1821 182.372 65.3537C182.456 65.4223 182.55 65.477 182.666 65.4786C182.975 65.4997 183.296 65.6475 183.574 65.8763C184.255 66.4367 184.331 67.2221 183.771 67.9032C182.959 68.89 181.381 68.9667 180.338 68.1089C179.588 67.4913 179.499 66.5792 180.117 65.8286C180.448 65.4255 180.891 65.114 181.413 64.9609C181.512 64.9257 181.609 64.8652 181.677 64.7818C181.849 64.5733 181.84 64.2161 181.603 64.0217Z" fill="#C2000D"/>
<path d="M190.034 76.5236C189.697 76.1738 189.295 76.5358 188.883 76.1083C188.358 75.5642 189.623 73.8938 190.854 72.7066C191.061 72.5066 191.067 72.1503 190.867 71.943C190.667 71.7357 190.349 71.7428 190.156 71.8793C189.936 72.0663 187.033 74.191 185.759 72.8696C185.109 72.196 185.173 71.4334 185.925 70.7085C186.767 69.8962 187.008 69.9133 187.216 69.7133C187.41 69.5259 187.454 69.1829 187.229 68.9498C187.079 68.7943 186.851 68.7393 186.62 68.837C186.556 68.874 186.004 69.1314 185.175 69.9312C184.113 70.956 183.882 72.4795 184.981 73.6195C185.919 74.5911 187.168 74.5116 188.179 74.1861C187.733 74.9419 187.318 76.042 188.106 76.8581C188.743 77.5188 189.598 77.4196 189.674 77.4209C189.789 77.4103 189.917 77.3616 190.008 77.2742C190.202 77.0867 190.234 76.7308 190.034 76.5236ZM192.685 63.687C192.464 63.8995 192.471 64.2433 192.671 64.4506L192.696 64.4765C194.037 65.659 195.188 66.7999 196.05 67.6938C196.25 67.9011 196.606 67.9075 196.813 67.7075C197.021 67.5075 197.027 67.1512 196.827 66.944C195.94 66.0242 194.789 64.8833 193.423 63.6748C193.21 63.4801 192.879 63.4996 192.685 63.687Z" fill="#C2000D"/>
<path d="M192.591 82.2538C193.058 82.8717 193.559 83.3274 194.508 83.8071C194.688 83.8966 194.922 83.8779 195.08 83.7587C195.338 83.5635 195.348 83.2179 195.186 83.0024C195.142 82.9449 195.074 82.8839 195.002 82.8481C194.147 82.4329 193.855 82.135 193.454 81.6033C193.28 81.3734 193.171 81.1397 193.113 80.9131C194.156 81.6373 195.794 81.8666 196.872 81.0535C197.677 80.4464 197.832 79.3372 197.225 78.5325C196.26 77.2537 194.507 77.2011 193.3 78.1118C191.935 79.1417 191.551 80.8744 192.591 82.2538ZM196.222 80.1914C195.503 80.7335 193.925 80.4356 193.329 79.6453C193.465 79.4073 193.677 79.1799 193.95 78.9739C194.755 78.3668 195.81 78.4502 196.363 79.183C196.623 79.5279 196.566 79.9312 196.222 80.1914Z" fill="#C2000D"/>
<path d="M199.328 91.5776C199.011 91.7482 199.109 92.309 199.279 92.626C199.424 92.8955 199.741 92.9907 200.011 92.8457C200.328 92.6751 200.23 92.1143 200.06 91.7973C199.915 91.5278 199.598 91.4326 199.328 91.5776Z" fill="#C2000D"/>
<path d="M207.832 102.153C207.91 102.374 208.128 102.507 208.356 102.503C208.68 102.502 208.998 102.753 209.1 103.041C209.28 103.551 209.026 104.022 208.382 104.25C207.193 104.67 205.32 103.69 204.876 102.434C204.69 101.908 205.109 100.824 207.452 99.9967C212.187 98.3237 213.909 98.8224 214.101 99.3655C214.203 99.654 214.002 100.164 213.323 100.404C212.321 100.758 211.946 100.452 211.923 100.441C211.761 100.307 211.555 100.265 211.386 100.325C211.08 100.433 210.966 100.759 211.056 101.014C211.08 101.082 211.127 101.161 211.185 101.217C211.307 101.345 212.121 101.974 213.682 101.422C214.701 101.063 215.497 100.075 215.119 99.0057C214.472 97.1728 211.521 97.4134 207.092 98.9784C204.682 99.8299 203.324 101.283 203.858 102.794C204.494 104.593 206.874 105.928 208.741 105.268C209.794 104.896 210.538 103.87 210.118 102.682C209.86 101.952 209.139 101.424 208.326 101.444C208.269 101.445 208.212 101.446 208.161 101.464C207.906 101.554 207.724 101.848 207.832 102.153Z" fill="#C2000D"/>
<path d="M207.269 113.788C207.287 113.931 207.356 114.049 207.477 114.143C208.784 115.158 211.696 115.953 214.699 116.464C214.81 116.486 214.978 116.52 215.052 116.529C214.219 116.688 213.116 116.863 211.491 117.067C210.08 117.244 207.745 117.574 207.965 119.324C208.163 120.896 210.563 121.665 212.805 122.181C212.591 122.208 212.374 122.217 212.142 122.246C209.963 122.52 208.439 123.093 208.661 124.861C208.782 125.825 209.524 126.385 209.564 126.416C209.685 126.51 209.832 126.528 209.957 126.512C210.243 126.476 210.461 126.195 210.425 125.909C210.365 125.427 209.827 125.476 209.733 124.726C209.64 123.994 209.991 123.605 212.277 123.318C214.17 123.08 215.608 123.262 216.786 123.114C217.054 123.08 217.293 122.814 217.255 122.51C217.232 122.332 217.123 122.182 216.949 122.095C216.911 122.082 216.098 121.676 214.559 121.416C211.465 120.898 209.12 119.85 209.036 119.19C208.987 118.797 209.822 118.365 211.626 118.138C216.412 117.537 217.142 117.137 217.36 117C217.494 116.911 217.612 116.696 217.586 116.482C217.563 116.304 217.454 116.154 217.279 116.067C217.241 116.054 216.428 115.648 214.89 115.388C211.963 114.903 209.078 114.032 208.133 113.298C208.012 113.205 207.88 113.167 207.737 113.185C207.452 113.221 207.233 113.502 207.269 113.788Z" fill="#C2000D"/>
<path d="M213.133 133.623C213.187 133.624 213.241 133.607 213.296 133.59C214.074 133.351 214.591 132.622 214.604 131.848C214.639 129.868 212.618 128.033 210.711 128C209.703 127.982 208.72 128.595 208.7 129.765C208.68 130.917 209.236 132.025 210.102 132.976C209.614 133.075 208.638 133.31 208.628 133.904C208.622 134.21 208.888 134.449 209.158 134.454C209.266 134.456 209.375 134.421 209.466 134.369C209.884 134.088 210.499 133.937 211.327 133.951C211.579 133.956 211.871 133.727 211.876 133.421C211.879 133.259 211.81 133.114 211.686 133.003C210.426 131.955 209.762 130.81 209.779 129.784C209.787 129.334 210.08 129.069 210.692 129.08C212.024 129.103 213.546 130.57 213.524 131.829C213.519 132.135 213.297 132.473 212.989 132.576C212.772 132.644 212.607 132.84 212.603 133.073C212.597 133.397 212.863 133.618 213.133 133.623Z" fill="#C2000D"/>
<path d="M209.127 144.039C209.193 143.557 208.66 143.466 208.741 142.878C208.843 142.129 210.938 142.088 212.632 142.319C212.917 142.358 213.201 142.142 213.24 141.857C213.279 141.571 213.076 141.326 212.849 141.258C212.566 141.202 209.101 140.238 209.349 138.419C209.475 137.492 210.114 137.07 211.149 137.211C212.308 137.37 212.444 137.57 212.729 137.609C212.997 137.645 213.294 137.468 213.338 137.147C213.367 136.933 213.269 136.72 213.049 136.599C212.98 136.571 212.436 136.297 211.295 136.141C209.832 135.942 208.493 136.704 208.279 138.273C208.096 139.611 208.932 140.542 209.814 141.135C208.944 141.252 207.824 141.608 207.67 142.732C207.546 143.641 208.153 144.251 208.2 144.312C208.279 144.395 208.397 144.466 208.521 144.483C208.789 144.52 209.088 144.324 209.127 144.039ZM221.513 138.626C221.388 138.609 221.256 138.645 221.157 138.704C220.208 139.265 219.86 140.089 219.77 140.749C219.628 141.784 219.915 142.877 220.608 143.789C220.701 143.91 220.818 143.981 220.961 144C221.246 144.039 221.53 143.824 221.569 143.538C221.588 143.396 221.552 143.263 221.46 143.142C220.921 142.432 220.737 141.644 220.84 140.895C220.896 140.485 221.089 140.003 221.723 139.617C221.862 139.527 221.953 139.394 221.975 139.234C222.016 138.93 221.798 138.664 221.513 138.626Z" fill="#C2000D"/>
<path d="M206.747 155.024C206.776 154.92 206.77 154.806 206.742 154.705C206.357 153.534 206.385 152.962 206.601 152.182C206.837 151.332 207.524 150.943 208.373 151.179C208.998 151.352 209.774 151.922 210.137 153.779C210.176 153.976 210.333 154.15 210.524 154.203C210.836 154.29 211.116 154.087 211.188 153.827L211.212 153.741C211.433 151.598 210.376 149.549 209.423 148.201C210.224 148.479 211.116 148.764 211.966 149C212.244 149.077 212.554 148.901 212.631 148.624C212.708 148.346 212.532 148.036 212.255 147.959C210.399 147.444 208.184 146.606 207.819 146.374C207.772 146.342 207.72 146.328 207.668 146.314C207.408 146.241 207.094 146.36 207.003 146.69C206.945 146.898 207.014 147.122 207.198 147.267C207.417 147.421 208.74 148.778 209.538 150.549C209.272 150.363 208.957 150.22 208.662 150.138C207.257 149.749 205.95 150.488 205.56 151.893C205.296 152.847 205.286 153.76 205.711 155.055C205.772 155.24 205.909 155.352 206.082 155.4C206.377 155.482 206.675 155.284 206.747 155.024Z" fill="#C2000D"/>
<path d="M208.399 159.359C208.467 159.192 208.462 159.015 208.353 158.853C207.927 158.232 207.325 157.752 206.642 157.473C205.209 156.887 203.707 157.517 203.121 158.95C202.406 160.699 203.108 162.834 204.924 163.577C206.273 164.129 207.658 163.548 208.21 162.198C208.408 161.715 208.708 160.457 208.058 160.192C207.775 160.076 207.456 160.237 207.354 160.487C207.313 160.587 207.289 160.694 207.322 160.804C207.393 161.106 207.347 161.456 207.21 161.789C206.877 162.606 206.149 162.911 205.332 162.577C204.15 162.093 203.61 160.608 204.121 159.359C204.489 158.459 205.334 158.105 206.233 158.473C206.717 158.67 207.145 159.001 207.446 159.455C207.509 159.539 207.595 159.613 207.695 159.654C207.945 159.756 208.283 159.642 208.399 159.359Z" fill="#C2000D"/>
<path d="M198.631 171.66C198.867 171.235 198.404 170.957 198.692 170.438C199.06 169.777 201.026 170.499 202.521 171.33C202.773 171.47 203.116 171.372 203.255 171.12C203.395 170.869 203.296 170.566 203.109 170.421C202.866 170.265 199.987 168.109 200.879 166.504C201.333 165.686 202.082 165.525 202.994 166.033C204.017 166.601 204.071 166.837 204.323 166.977C204.559 167.108 204.9 167.051 205.057 166.767C205.162 166.579 205.148 166.344 204.987 166.152C204.933 166.101 204.526 165.648 203.519 165.089C202.229 164.372 200.704 164.595 199.935 165.98C199.279 167.16 199.719 168.331 200.326 169.204C199.473 168.997 198.299 168.922 197.748 169.913C197.303 170.715 197.647 171.504 197.668 171.577C197.711 171.684 197.795 171.792 197.905 171.854C198.141 171.985 198.491 171.911 198.631 171.66ZM211.682 170.45C211.415 170.301 211.088 170.408 210.948 170.659L210.931 170.691C210.191 172.318 209.435 173.752 208.832 174.837C208.692 175.089 208.79 175.432 209.042 175.572C209.293 175.712 209.636 175.614 209.776 175.362C210.397 174.245 211.152 172.812 211.91 171.153C212.034 170.892 211.918 170.581 211.682 170.45Z" fill="#C2000D"/>
</svg>
