<svg width="138" height="138" viewBox="0 0 138 138" fill="none" xmlns="http://www.w3.org/2000/svg">
<path d="M28.5833 82.8143C28.8119 82.7413 28.8174 82.3616 28.7448 82.1328C28.6831 81.9384 28.4873 81.8372 28.293 81.8993C28.0644 81.9724 28.059 82.352 28.1315 82.5808C28.1932 82.7753 28.389 82.8765 28.5833 82.8143Z" fill="#C2000D"/>
<path d="M24.4053 74.2502C24.3885 74.0951 24.267 73.9761 24.1187 73.9446C23.9083 73.896 23.7406 73.6856 23.7186 73.4828C23.6798 73.1249 23.9162 72.8565 24.3693 72.8051C25.2039 72.7103 26.2691 73.628 26.3648 74.5108C26.405 74.8807 25.9676 75.5221 24.3222 75.7089C20.9955 76.0866 19.9547 75.5043 19.9133 75.1225C19.8913 74.9197 20.1 74.6183 20.5769 74.5641C21.2804 74.4842 21.4771 74.7397 21.4903 74.7503C21.5748 74.8614 21.7018 74.9195 21.821 74.9059C22.0356 74.8816 22.1593 74.6864 22.1399 74.5074C22.1347 74.4597 22.1163 74.4014 22.0873 74.3564C22.028 74.2544 21.5962 73.7238 20.4993 73.8483C19.7839 73.9295 19.1163 74.4522 19.1979 75.2038C19.3376 76.4922 21.2878 76.778 24.3998 76.4247C26.0929 76.2325 27.1954 75.4914 27.0803 74.4296C26.9431 73.165 25.6032 71.9404 24.2916 72.0893C23.5524 72.1732 22.9126 72.7289 23.0032 73.564C23.0588 74.077 23.4457 74.5283 23.9766 74.6371C24.0136 74.6449 24.0507 74.6528 24.0865 74.6487C24.2653 74.6284 24.4286 74.465 24.4053 74.2502Z" fill="#C2000D"/>
<path d="M24.168 64.6895C24.203 64.4157 23.9707 64.3395 24.0361 63.8276C24.0802 63.4824 24.3894 63.1449 24.9613 63.2137C25.8072 63.3155 26.5153 64.3071 26.4013 65.1999C26.3192 65.8426 25.451 66.2942 24.5813 66.1896C23.0801 66.009 22.1992 65.0449 22.1784 65.0182C22.1145 64.9501 22.0461 64.9177 21.9627 64.9077C21.772 64.8848 21.584 65.0313 21.5596 65.2218C21.5475 65.317 21.5711 65.4165 21.6453 65.498C21.6661 65.5247 22.6792 66.6859 24.4901 66.9038C25.5266 67.0284 26.955 66.5476 27.1161 65.2858C27.2757 64.036 26.3511 62.6557 25.0525 62.4995C24.1232 62.3877 23.417 62.9917 23.3213 63.7416C23.2468 64.3249 23.4572 64.7611 23.4869 64.813C23.5462 64.9169 23.6577 64.9907 23.7769 65.005C23.9794 65.0294 24.1452 64.8681 24.168 64.6895ZM21.3464 61.2077C21.1557 61.1848 20.9677 61.3314 20.9433 61.5218C20.7761 62.8312 20.6044 64.1763 20.6563 66.6118C20.6573 66.7932 20.7955 66.9428 20.9742 66.9643C21.1887 66.9901 21.3544 66.8287 21.3772 66.6502L21.3833 66.6026C21.3253 64.2146 21.4895 62.9291 21.6551 61.6316L21.6582 61.6078C21.6825 61.4173 21.537 61.2306 21.3464 61.2077Z" fill="#C2000D"/>
<path d="M28.2882 60.7697C28.4184 60.2704 28.449 59.8202 28.307 59.1284C28.2791 58.9976 28.1724 58.884 28.0444 58.8517C27.8349 58.7989 27.6499 58.9378 27.6045 59.112C27.5924 59.1584 27.5888 59.2194 27.6 59.2718C27.7369 59.888 27.7022 60.1639 27.5901 60.5935C27.5417 60.7793 27.4644 60.933 27.3698 61.0577C27.3168 60.2151 26.7573 59.2695 25.8847 59.0492C25.2331 58.8848 24.5879 59.2665 24.4183 59.9167C24.1488 60.9502 24.8484 61.8816 25.8257 62.1283C26.931 62.4073 27.9975 61.8844 28.2882 60.7697ZM25.703 59.7459C26.2847 59.8927 26.783 60.8353 26.6164 61.4739C26.4354 61.5025 26.2285 61.4874 26.0074 61.4316C25.3558 61.2672 24.962 60.6851 25.1165 60.0929C25.1891 59.8142 25.4237 59.6754 25.703 59.7459Z" fill="#C2000D"/>
<path d="M25.9464 53.9997C25.8876 54.1442 25.9383 54.3063 26.0541 54.404C27.2807 55.4334 28.3115 56.7852 28.1444 57.1966C28.1037 57.2966 28.0003 57.4234 27.7339 57.5371C27.6399 57.5773 27.5748 57.6418 27.5387 57.7307C27.4664 57.9086 27.5593 58.1262 27.7377 58.1971C27.827 58.2325 27.9186 58.2302 28.0126 58.1901C28.373 58.0362 28.6735 57.8069 28.8135 57.4623C29.0846 56.7953 28.6163 56.0671 28.1074 55.4389C28.7416 55.5358 29.4218 55.3282 29.8089 54.6944L29.8315 54.6388C29.8993 54.472 29.8332 54.2521 29.6325 54.1724C29.4763 54.1104 29.275 54.1596 29.1849 54.3174C28.9171 54.7534 28.4451 54.8629 27.8875 54.6414C27.263 54.3934 26.9112 54.1117 26.4789 53.8367C26.4566 53.8279 26.4388 53.8079 26.4165 53.799C26.2492 53.7326 26.0277 53.7996 25.9464 53.9997Z" fill="#C2000D"/>
<path d="M27.2822 51.8877C27.2232 51.9922 27.2122 52.1095 27.2713 52.2246C27.5032 52.6685 27.8629 53.0323 28.2933 53.2706C29.1961 53.7706 30.2451 53.4737 30.7519 52.5747C31.3706 51.477 31.0801 50.0131 29.9359 49.3794C29.0856 48.9085 28.1185 49.1822 27.6412 50.029C27.4703 50.3321 27.1674 51.1382 27.5768 51.365C27.7553 51.4638 27.9801 51.3826 28.0685 51.2258C28.1039 51.1631 28.1287 51.0945 28.1162 51.019C28.0937 50.8145 28.1532 50.5868 28.2711 50.3778C28.5598 49.8655 29.0679 49.7217 29.5823 50.0066C30.3277 50.4194 30.564 51.4418 30.122 52.2258C29.8038 52.7903 29.2138 52.9574 28.6469 52.6434C28.3424 52.4748 28.0852 52.2226 27.9229 51.8996C27.8881 51.8391 27.8369 51.7833 27.7739 51.7485C27.6164 51.6613 27.3824 51.7099 27.2822 51.8877Z" fill="#C2000D"/>
<path d="M32.4024 46.9472C32.7108 47.1761 33.0837 46.8402 33.3651 46.4662C34.0435 45.565 33.489 44.4659 32.7374 43.908C31.9666 43.3357 30.8422 43.2333 30.1855 44.1058C29.4783 45.0454 29.8525 46.444 31.3055 48.2251C30.4938 47.7271 29.9639 47.4534 29.4872 47.3684C29.3547 47.3448 29.2079 47.4002 29.1285 47.5057C28.9986 47.6783 29.0566 47.9006 29.2011 48.0079C29.2396 48.0365 29.295 48.0627 29.348 48.0722C29.9837 48.1854 31.5131 49.1265 34.4037 51.2723C34.529 51.3653 34.7793 51.3719 34.9092 51.1993C35.0175 51.0555 35.0029 50.8354 34.8559 50.7114C30.6788 47.1621 30.2152 45.2637 30.7636 44.535C31.1172 44.0652 31.7263 44.0541 32.3044 44.4832C32.9018 44.9267 33.119 45.596 32.787 46.0371C32.5633 46.3343 32.467 46.2628 32.3299 46.4449C32.2216 46.5888 32.229 46.8184 32.4024 46.9472Z" fill="#C2000D"/>
<path d="M35.3926 42.9428C35.7536 42.5742 36.004 42.1985 36.2249 41.5269C36.2658 41.3995 36.2298 41.2476 36.135 41.1557C35.9799 41.0054 35.7506 41.0338 35.6246 41.1624C35.591 41.1967 35.5577 41.2479 35.5413 41.2989C35.3535 41.9023 35.1862 42.1245 34.8756 42.4417C34.7413 42.5789 34.5979 42.6739 34.454 42.735C34.827 41.9769 34.8126 40.8767 34.1664 40.2504C33.6838 39.7827 32.9352 39.7924 32.4651 40.2726C31.7178 41.0356 31.8605 42.1933 32.5843 42.8948C33.403 43.6882 34.5866 43.7659 35.3926 42.9428ZM33.6626 40.7648C34.0934 41.1823 34.0563 42.2493 33.5945 42.7208C33.4235 42.6554 33.2518 42.5391 33.0881 42.3804C32.6056 41.9127 32.5539 41.2109 32.9821 40.7736C33.1836 40.5679 33.4558 40.5643 33.6626 40.7648Z" fill="#C2000D"/>
<path d="M34.4444 37.7253C34.3697 37.8033 34.3298 37.9143 34.3409 38.0241C34.3508 38.0831 34.4041 38.5305 34.8046 38.9103C35.2487 39.3314 35.9121 39.3156 36.3356 38.8737C36.5764 38.6225 36.7396 38.3308 36.8356 38.0746C37.076 38.5175 37.3127 38.8081 37.5304 39.0145C37.9309 39.3944 38.6751 39.5544 39.1484 39.0606C39.4058 38.792 39.4907 38.426 39.4814 38.0368C39.479 37.9353 39.4429 37.8515 39.3733 37.7854C39.234 37.6533 38.9958 37.659 38.863 37.7976C38.7965 37.8669 38.7645 37.9523 38.7669 38.0538C38.7738 38.3415 38.7007 38.4871 38.626 38.5651C38.518 38.6777 38.2375 38.6929 38.0286 38.4947C37.7325 38.214 37.3288 37.6988 36.9657 36.3954C36.9558 36.3363 36.9119 36.2781 36.8683 36.2368C36.7377 36.113 36.5075 36.0931 36.358 36.249C36.2833 36.327 36.2517 36.4293 36.2632 36.556C36.2731 36.6151 36.4774 37.6852 35.8131 38.3783C35.6554 38.5429 35.4682 38.5474 35.3028 38.3905C34.9893 38.0932 35.1554 37.92 34.9464 37.7218C34.8158 37.5979 34.5856 37.578 34.4444 37.7253Z" fill="#C2000D"/>
<path d="M41.2725 36.538C41.7103 36.2648 42.0424 35.9586 42.4163 35.3575C42.4863 35.2431 42.4875 35.0868 42.4174 34.975C42.3027 34.7919 42.0735 34.7652 41.9208 34.8605C41.8801 34.8859 41.8356 34.9278 41.8076 34.9736C41.482 35.5162 41.267 35.6928 40.8903 35.9279C40.7274 36.0295 40.5658 36.0879 40.4117 36.1133C40.9537 35.464 41.2013 34.39 40.7235 33.6273C40.3668 33.0579 39.6385 32.8899 39.0684 33.2457C38.1623 33.8111 38.0255 34.9715 38.5606 35.8257C39.1658 36.7917 40.2952 37.1479 41.2725 36.538ZM40.1127 34.0085C40.4312 34.517 40.1416 35.5464 39.5816 35.8958C39.4313 35.7915 39.2925 35.6377 39.1715 35.4445C38.8147 34.875 38.9314 34.1798 39.4506 33.8558C39.695 33.7034 39.9598 33.7644 40.1127 34.0085Z" fill="#C2000D"/>
<path d="M41.1041 31.3783C40.9751 31.466 40.9169 31.6362 40.9652 31.7919C41.1129 32.1994 41.4496 32.8412 41.8083 33.3663C42.2822 34.0599 42.4713 34.2941 42.8892 34.7355C43.0106 34.8707 43.2172 34.8753 43.3562 34.7809C43.5348 34.6594 43.5523 34.4299 43.4508 34.2812C43.1529 33.8453 42.935 33.7177 42.6001 33.2489C43.1487 32.818 43.6394 32.2813 43.8292 31.6444L43.9917 31.8822C44.3708 32.4371 45.0965 33.3077 45.9996 32.6938C46.3072 32.4847 46.4669 32.144 46.5394 31.761C46.5584 31.6611 46.5408 31.5715 46.4866 31.4922C46.3783 31.3337 46.1446 31.2894 45.9858 31.3973C45.9064 31.4513 45.8572 31.5283 45.8383 31.6282C45.7847 31.9113 45.6827 32.0386 45.5934 32.0993C45.3056 32.295 45.0204 32.1116 44.5872 31.4774L43.7071 30.1894C43.6123 30.0507 43.3849 29.9731 43.2063 30.0945C43.0674 30.1889 43.016 30.369 43.081 30.5279C43.4091 31.306 42.987 32.0283 42.2039 32.6476C41.9529 32.2378 41.7349 31.7911 41.6492 31.5592C41.6388 31.5227 41.6185 31.493 41.6049 31.4732C41.5034 31.3246 41.2828 31.2569 41.1041 31.3783Z" fill="#C2000D"/>
<path d="M47.4586 27.7483C47.2885 27.3775 46.7023 27.5672 46.386 27.7124C45.2953 28.2128 44.8979 29.6494 45.373 30.6857C45.7781 31.5692 46.7167 31.9176 47.6001 31.5122C48.2 31.237 48.6694 30.85 49.1465 30.0766C49.2146 29.9661 49.2132 29.8479 49.1632 29.7388C49.0782 29.5534 48.8496 29.4866 48.686 29.5617C48.6206 29.5917 48.5651 29.6436 48.5256 29.7013C48.0939 30.401 47.7908 30.6325 47.3 30.8577C46.7656 31.1029 46.2725 30.9199 46.0274 30.3854C45.7023 29.6764 46.0316 28.6671 46.6861 28.3668C46.8824 28.2768 46.9746 28.2476 47.1246 28.258C47.1782 28.2598 47.2378 28.2457 47.2814 28.2257C47.445 28.1507 47.5486 27.9447 47.4586 27.7483Z" fill="#C2000D"/>
<path d="M54.4691 26.46C54.4053 26.4934 54.3528 26.5482 54.3164 26.6079C53.9231 27.3296 53.6329 27.5769 53.1548 27.828C52.6343 28.1014 52.1318 27.9452 51.858 27.4248C51.6569 27.0425 51.5794 26.4054 52.3155 25.3817C52.3938 25.2728 52.4067 25.117 52.3453 25.0001C52.2447 24.809 52.0183 24.7652 51.859 24.8489L51.8058 24.8768C50.664 25.7477 50.1514 27.1962 49.9319 28.2739C49.7012 27.758 49.4319 27.1946 49.1582 26.6742C49.0688 26.5043 48.8419 26.4337 48.6719 26.523C48.5019 26.6123 48.4314 26.8391 48.5208 27.009C49.1185 28.1454 49.7229 29.6036 49.777 29.8869C49.7831 29.9244 49.7999 29.9562 49.8166 29.9881C49.9004 30.1474 50.1011 30.2453 50.303 30.1393C50.4304 30.0723 50.5082 29.9366 50.4943 29.7813C50.4692 29.6047 50.5239 28.3425 51.0201 27.1465C51.0514 27.3605 51.1256 27.5791 51.2206 27.7596C51.6731 28.6199 52.6295 28.9172 53.49 28.4652C54.0743 28.1583 54.5223 27.7468 54.9569 26.9492C55.019 26.8353 55.0112 26.7174 54.9554 26.6112C54.8604 26.4306 54.6284 26.3763 54.4691 26.46Z" fill="#C2000D"/>
<path d="M56.5981 27.1381C57.114 27.1278 57.5568 27.0349 58.1883 26.7102C58.3074 26.6478 58.3896 26.5141 58.3877 26.3821C58.3847 26.1662 58.2027 26.0258 58.0228 26.0294C57.9748 26.0303 57.915 26.0435 57.8673 26.0685C57.3074 26.3678 57.032 26.4093 56.5881 26.4182C56.3961 26.4221 56.2276 26.3894 56.0828 26.3323C56.883 26.0522 57.6519 25.2567 57.6394 24.3568C57.63 23.6848 57.0947 23.1675 56.4229 23.1809C55.3551 23.2023 54.636 24.1289 54.65 25.1368C54.666 26.2767 55.4464 27.1612 56.5981 27.1381ZM56.9195 24.3712C56.9279 24.9711 56.1461 25.7069 55.4862 25.7202C55.4119 25.5536 55.3731 25.3504 55.3699 25.1224C55.3605 24.4504 55.821 23.9131 56.4329 23.9009C56.7209 23.8951 56.9155 24.0832 56.9195 24.3712Z" fill="#C2000D"/>
<path d="M63.2428 26.2773C63.3007 26.5102 63.6788 26.5386 63.9115 26.4799C64.1093 26.43 64.2229 26.2404 64.1736 26.0425C64.1156 25.8096 63.7375 25.7812 63.5048 25.8399C63.307 25.8898 63.1935 26.0794 63.2428 26.2773Z" fill="#C2000D"/>
<path d="M71.934 23.5818C72.0898 23.5898 72.2278 23.4887 72.2841 23.3474C72.3678 23.1474 72.6038 23.0153 72.8076 23.0257C73.1671 23.0441 73.3915 23.32 73.3652 23.7752C73.3166 24.6138 72.2304 25.5195 71.3436 25.4741C70.972 25.4551 70.414 24.9219 70.5097 23.2687C70.7034 19.9263 71.4547 18.9915 71.8382 19.0111C72.0419 19.0215 72.3037 19.2752 72.2759 19.7544C72.235 20.4612 71.9496 20.6148 71.9369 20.6262C71.8129 20.6919 71.7341 20.8081 71.7271 20.9279C71.7146 21.1435 71.8861 21.2965 72.0658 21.3057C72.1138 21.3081 72.1744 21.2992 72.2237 21.2777C72.3344 21.2353 72.9311 20.8933 72.995 19.7912C73.0366 19.0724 72.6348 18.3309 71.8798 18.2923C70.5855 18.2261 69.9718 20.1051 69.7907 23.2319C69.6921 24.933 70.2353 26.1383 71.3019 26.1929C72.5723 26.2579 74.0079 25.1298 74.0842 23.812C74.1272 23.0692 73.6881 22.3499 72.8492 22.307C72.3339 22.2806 71.8231 22.5909 71.6255 23.0975C71.6114 23.1328 71.5973 23.1681 71.5953 23.204C71.5849 23.3837 71.7183 23.5708 71.934 23.5818Z" fill="#C2000D"/>
<path d="M79.829 24.1876C80.0998 24.2413 80.1954 24.0156 80.7015 24.1161C81.0428 24.1839 81.3543 24.5148 81.2378 25.0789C81.0654 25.9133 80.0152 26.5489 79.1324 26.3737C78.4968 26.2475 78.118 25.3526 78.2952 24.4947C78.6011 23.014 79.6383 22.2045 79.6667 22.1857C79.7401 22.1268 79.7782 22.061 79.7952 21.9787C79.834 21.7907 79.7032 21.5935 79.5149 21.5561C79.4208 21.5374 79.3193 21.5539 79.2317 21.6222C79.2033 21.641 77.958 22.5682 77.589 24.3545C77.3778 25.3769 77.7391 26.8311 78.9867 27.0788C80.2226 27.3242 81.6794 26.5001 81.944 25.2191C82.1334 24.3025 81.5887 23.5582 80.8472 23.411C80.2704 23.2965 79.8168 23.4756 79.7625 23.5015C79.6537 23.5533 79.5706 23.6591 79.5463 23.7766C79.5051 23.9764 79.6525 24.1525 79.829 24.1876ZM83.5448 21.6221C83.5836 21.4341 83.4528 21.2369 83.2645 21.1995C81.9698 20.9424 80.6397 20.6783 78.2011 20.5612C78.0197 20.5496 77.8586 20.6767 77.8222 20.853C77.7785 21.0645 77.9259 21.2406 78.1025 21.2757L78.1496 21.285C80.5411 21.3928 81.8123 21.6452 83.0953 21.8999L83.1188 21.9046C83.3071 21.942 83.5059 21.8102 83.5448 21.6221Z" fill="#C2000D"/>
<path d="M83.0651 28.2113C83.554 28.3765 84.0021 28.4392 84.7069 28.3481C84.8402 28.3298 84.9631 28.232 85.0063 28.1073C85.0771 27.9032 84.9538 27.7095 84.7833 27.6519C84.7378 27.6365 84.677 27.6287 84.6237 27.636C83.995 27.7275 83.7217 27.6732 83.3011 27.531C83.1192 27.4696 82.9718 27.3818 82.855 27.279C83.7032 27.287 84.6978 26.7997 84.9928 25.9494C85.213 25.3145 84.8858 24.6467 84.2492 24.4315C83.2374 24.0897 82.245 24.717 81.9147 25.6693C81.5411 26.7463 81.9737 27.8425 83.0651 28.2113ZM84.3106 25.7189C84.114 26.2858 83.1277 26.7125 82.5025 26.5012C82.4893 26.3195 82.5221 26.1152 82.5968 25.8998C82.817 25.2649 83.4334 24.9159 84.0132 25.1118C84.286 25.204 84.405 25.4468 84.3106 25.7189Z" fill="#C2000D"/>
<path d="M89.9735 25.8411C89.8268 25.788 89.6651 25.8443 89.5698 25.9629C88.5653 27.2198 87.2319 28.2937 86.8145 28.1425C86.7129 28.1057 86.583 28.0075 86.4622 27.7468C86.4196 27.6548 86.3531 27.5924 86.2629 27.5597C86.0824 27.4943 85.8659 27.5945 85.7991 27.7745C85.7656 27.8645 85.7702 27.9555 85.8129 28.0475C85.9762 28.4003 86.214 28.6907 86.5637 28.8174C87.2407 29.0627 87.9611 28.5707 88.5799 28.0419C88.498 28.676 88.7232 29.3447 89.3696 29.7065L89.4261 29.727C89.5953 29.7883 89.8147 29.7146 89.8899 29.5122C89.9484 29.3547 89.8941 29.1563 89.7332 29.0725C89.2886 28.822 89.167 28.3568 89.3759 27.7943C89.6099 27.1644 89.8845 26.8044 90.1502 26.3647C90.1586 26.3422 90.1782 26.3238 90.1866 26.3013C90.2492 26.1325 90.1765 25.9147 89.9735 25.8411Z" fill="#C2000D"/>
<path d="M92.7023 27.7464C92.602 27.6806 92.485 27.6614 92.365 27.7119C91.9015 27.9103 91.5085 28.2411 91.236 28.6507C90.6644 29.5099 90.8814 30.5702 91.7447 31.1357C92.7987 31.8262 94.2907 31.6416 95.0151 30.5526C95.5535 29.7433 95.3534 28.7658 94.5404 28.2332C94.2493 28.0425 93.4634 27.6855 93.2042 28.0752C93.0912 28.245 93.1554 28.4736 93.306 28.5722C93.3662 28.6116 93.4331 28.6411 93.5098 28.634C93.7168 28.6262 93.9408 28.7012 94.1416 28.8327C94.6334 29.1549 94.7385 29.6684 94.4129 30.158C93.941 30.8674 92.8963 31.0294 92.1435 30.5363C91.6014 30.1812 91.4794 29.5848 91.8383 29.0452C92.031 28.7555 92.3041 28.5184 92.6409 28.3804C92.7042 28.3501 92.7642 28.3033 92.8041 28.2434C92.9038 28.0935 92.873 27.8582 92.7023 27.7464Z" fill="#C2000D"/>
<path d="M96.8904 32.9471C96.6344 33.2333 96.9391 33.6307 97.2897 33.9407C98.1349 34.6878 99.2843 34.2304 99.9083 33.5327C100.548 32.8171 100.748 31.712 99.9294 30.9888C99.0483 30.2099 97.6141 30.4636 95.7037 31.7539C96.2727 30.9916 96.5927 30.4897 96.7188 30.0246C96.7539 29.8954 96.711 29.7454 96.6121 29.658C96.4502 29.5149 96.2223 29.5537 96.1024 29.6879C96.0704 29.7237 96.0394 29.7763 96.0253 29.828C95.8572 30.4481 94.7822 31.8843 92.3825 34.5678C92.2785 34.6841 92.2504 34.9316 92.4123 35.0746C92.5471 35.1938 92.769 35.1978 92.906 35.0626C96.8232 31.222 98.7661 30.9215 99.4494 31.5255C99.89 31.9149 99.8487 32.5191 99.3688 33.0558C98.8729 33.6104 98.1832 33.7696 97.7697 33.404C97.4909 33.1576 97.5709 33.0682 97.4001 32.9172C97.2652 32.7979 97.0344 32.7861 96.8904 32.9471Z" fill="#C2000D"/>
<path d="M99.4702 36.8127C99.8101 37.201 100.166 37.48 100.82 37.754C100.945 37.805 101.1 37.7816 101.199 37.6951C101.363 37.5535 101.353 37.3237 101.234 37.1882C101.203 37.1521 101.154 37.1148 101.104 37.0944C100.515 36.8589 100.306 36.6748 100.014 36.3407C99.8874 36.1962 99.804 36.0462 99.7544 35.8985C100.483 36.3304 101.586 36.406 102.266 35.816C102.773 35.3755 102.824 34.6321 102.382 34.1264C101.678 33.3228 100.507 33.3699 99.7461 34.0307C98.8852 34.778 98.7114 35.9459 99.4702 36.8127ZM101.792 35.2743C101.338 35.6676 100.273 35.5436 99.8384 35.047C99.9178 34.8827 100.048 34.7219 100.22 34.5724C100.728 34.1319 101.435 34.1379 101.838 34.5984C102.028 34.8151 102.009 35.0855 101.792 35.2743Z" fill="#C2000D"/>
<path d="M104.803 35.9025C104.742 35.8132 104.642 35.7506 104.532 35.738C104.472 35.7351 104.022 35.6914 103.564 36.0002C103.057 36.3426 102.932 36.9917 103.275 37.4982C103.471 37.7862 103.722 38.0073 103.953 38.1554C103.468 38.2949 103.132 38.4632 102.884 38.6311C102.426 38.9399 102.111 39.6301 102.495 40.1961C102.704 40.504 103.045 40.6647 103.429 40.7387C103.529 40.758 103.619 40.7409 103.698 40.6871C103.857 40.5797 103.902 40.3467 103.795 40.1878C103.741 40.1084 103.664 40.059 103.564 40.0397C103.28 39.985 103.153 39.8827 103.092 39.7934C103.004 39.6643 103.049 39.388 103.288 39.2269C103.626 38.9987 104.217 38.7156 105.573 38.6405C105.633 38.6434 105.699 38.6131 105.749 38.5795C105.898 38.4788 105.966 38.2589 105.845 38.0802C105.784 37.9908 105.691 37.9382 105.564 37.9224C105.504 37.9195 104.411 37.8899 103.872 37.0954C103.744 36.9067 103.779 36.7236 103.968 36.5961C104.326 36.3544 104.461 36.553 104.7 36.3919C104.849 36.2912 104.917 36.0714 104.803 35.9025Z" fill="#C2000D"/>
<path d="M104.251 42.5388C104.487 42.9978 104.765 43.3544 105.333 43.7777C105.441 43.8571 105.597 43.8716 105.714 43.8113C105.906 43.7127 105.952 43.4868 105.87 43.3267C105.848 43.284 105.81 43.2361 105.767 43.2044C105.253 42.8342 105.095 42.6051 104.892 42.2102C104.804 42.0394 104.759 41.8735 104.747 41.718C105.349 42.3127 106.4 42.6504 107.2 42.2396C107.798 41.9328 108.027 41.2221 107.72 40.6243C107.232 39.6743 106.086 39.4395 105.189 39.8997C104.175 40.4201 103.725 41.5141 104.251 42.5388ZM106.871 41.5991C106.338 41.873 105.335 41.4972 105.034 40.9101C105.15 40.7694 105.315 40.6442 105.518 40.5402C106.116 40.2334 106.799 40.4086 107.079 40.953C107.211 41.2092 107.128 41.4676 106.871 41.5991Z" fill="#C2000D"/>
<path d="M109.299 43.5113C109.246 43.3644 109.096 43.2654 108.933 43.2729C108.501 43.3133 107.796 43.4778 107.197 43.693C106.407 43.9772 106.132 44.1013 105.6 44.3947C105.439 44.4782 105.382 44.6769 105.439 44.8351C105.512 45.0385 105.73 45.1132 105.899 45.0523C106.396 44.8737 106.574 44.6948 107.112 44.4887C107.392 45.1278 107.788 45.7376 108.357 46.0814L108.086 46.1788C107.454 46.4061 106.429 46.8894 106.796 47.9177C106.922 48.2679 107.211 48.508 107.564 48.6745C107.656 48.718 107.747 48.7235 107.838 48.691C108.018 48.626 108.12 48.411 108.055 48.2302C108.023 48.1398 107.961 48.0729 107.869 48.0295C107.608 47.9064 107.51 47.7758 107.474 47.6741C107.357 47.3464 107.606 47.1166 108.329 46.8567L109.797 46.329C109.955 46.2721 110.087 46.0716 110.014 45.8682C109.958 45.71 109.796 45.615 109.626 45.638C108.79 45.7599 108.197 45.1699 107.794 44.2564C108.253 44.1166 108.741 44.0179 108.987 43.9932C109.025 43.9924 109.058 43.9802 109.081 43.9721C109.25 43.9112 109.371 43.7147 109.299 43.5113Z" fill="#C2000D"/>
<path d="M111.519 51.1542C111.917 51.066 111.858 50.4525 111.784 50.1124C111.528 48.9398 110.211 48.2481 109.098 48.4944C108.149 48.7043 107.608 49.5491 107.815 50.4989C107.955 51.1438 108.233 51.6847 108.885 52.3145C108.979 52.4045 109.094 52.4281 109.211 52.4022C109.411 52.3581 109.525 52.1485 109.486 51.9726C109.471 51.9023 109.432 51.8371 109.385 51.7862C108.794 51.2164 108.633 50.871 108.518 50.3434C108.393 49.7688 108.677 49.3249 109.251 49.1979C110.013 49.0294 110.928 49.5644 111.081 50.268C111.126 50.479 111.135 50.5754 111.093 50.72C111.08 50.7721 111.081 50.8333 111.091 50.8802C111.129 51.0561 111.308 51.2008 111.519 51.1542Z" fill="#C2000D"/>
<path d="M111.639 58.351C111.627 58.28 111.592 58.2131 111.546 58.16C110.984 57.5628 110.84 57.2101 110.75 56.6776C110.653 56.0977 110.958 55.6677 111.538 55.568C111.963 55.4947 112.592 55.6179 113.335 56.6347C113.414 56.7429 113.558 56.8033 113.688 56.7809C113.901 56.7443 114.013 56.5424 113.983 56.3648L113.973 56.3057C113.502 54.9499 112.287 54.0144 111.332 53.4725C111.894 53.4124 112.513 53.3302 113.092 53.2305C113.282 53.198 113.419 53.0038 113.388 52.8144C113.356 52.6251 113.162 52.4879 112.973 52.5204C111.708 52.7382 110.135 52.8627 109.849 52.8267C109.811 52.821 109.776 52.8271 109.74 52.8332C109.563 52.8637 109.408 53.0244 109.445 53.2493C109.469 53.3913 109.574 53.5072 109.725 53.542C109.901 53.5726 111.082 54.0147 112.063 54.8566C111.85 54.8202 111.619 54.8233 111.418 54.8579C110.461 55.0227 109.88 55.8411 110.041 56.7997C110.15 57.4506 110.401 58.004 111.023 58.6642C111.111 58.7585 111.226 58.7875 111.344 58.7671C111.545 58.7325 111.669 58.5286 111.639 58.351Z" fill="#C2000D"/>
<path d="M111.4 59.7746C111.408 60.2905 111.499 60.7326 111.821 61.3618C111.883 61.4805 112.016 61.5616 112.148 61.5587C112.364 61.554 112.505 61.3709 112.502 61.191C112.501 61.143 112.488 61.0832 112.464 61.0358C112.167 60.4781 112.127 60.2029 112.12 59.7589C112.117 59.567 112.15 59.3982 112.208 59.2529C112.484 60.0511 113.276 60.8141 114.176 60.7945C114.848 60.7799 115.368 60.2405 115.357 59.5686C115.34 58.5007 114.417 57.7886 113.409 57.8105C112.27 57.8353 111.382 58.6227 111.4 59.7746ZM114.165 60.0746C113.565 60.0876 112.833 59.3114 112.822 58.6514C112.989 58.5758 113.193 58.5354 113.421 58.5304C114.092 58.5158 114.628 58.9723 114.637 59.5842C114.642 59.8722 114.453 60.0684 114.165 60.0746Z" fill="#C2000D"/>
<path d="M113.164 65.0535C112.927 65.0173 112.751 65.3546 112.713 65.5916C112.681 65.7931 112.81 65.9706 113.012 66.0014C113.249 66.0376 113.425 65.7003 113.463 65.4633C113.495 65.2619 113.365 65.0843 113.164 65.0535Z" fill="#C2000D"/>
<path d="M89.9908 107.044C89.8698 106.837 89.4982 106.914 89.2907 107.035C89.1144 107.138 89.0581 107.351 89.1609 107.527C89.2819 107.734 89.6535 107.657 89.861 107.536C90.0373 107.434 90.0936 107.221 89.9908 107.044Z" fill="#C2000D"/>
<path d="M83.6091 111.301C83.462 111.353 83.3736 111.499 83.3763 111.651C83.3763 111.867 83.2094 112.079 83.0171 112.148C82.6778 112.268 82.3638 112.099 82.212 111.669C81.9325 110.877 82.5856 109.627 83.4225 109.33C83.7731 109.206 84.4949 109.484 85.046 111.046C86.1602 114.203 85.8278 115.352 85.4659 115.481C85.2736 115.549 84.9336 115.415 84.7739 114.962C84.5383 114.295 84.7425 114.044 84.7498 114.029C84.8389 113.921 84.8669 113.783 84.8269 113.67C84.755 113.466 84.5375 113.391 84.3678 113.451C84.3226 113.467 84.27 113.498 84.2328 113.537C84.147 113.619 83.7279 114.162 84.0953 115.203C84.335 115.882 84.993 116.412 85.7055 116.16C86.9269 115.726 86.7669 113.758 85.7246 110.805C85.1575 109.198 84.1894 108.294 83.1829 108.651C81.9841 109.076 81.0942 110.665 81.5335 111.91C81.7811 112.612 82.4651 113.108 83.2567 112.827C83.743 112.654 84.0949 112.173 84.0815 111.63C84.0808 111.592 84.0801 111.554 84.0681 111.52C84.0082 111.35 83.8126 111.229 83.6091 111.301Z" fill="#C2000D"/>
<path d="M73.3784 114.048C73.1041 114.079 73.0822 114.323 72.5694 114.381C72.2236 114.42 71.8257 114.2 71.7639 113.627C71.6726 112.78 72.4782 111.856 73.3725 111.755C74.0164 111.682 74.6511 112.419 74.745 113.29C74.9071 114.794 74.1672 115.879 74.1459 115.906C74.094 115.984 74.0779 116.059 74.0869 116.142C74.1075 116.333 74.2924 116.481 74.4832 116.46C74.5786 116.449 74.6701 116.402 74.7327 116.311C74.754 116.284 75.656 115.023 75.4604 113.21C75.3485 112.172 74.5593 110.896 73.2953 111.039C72.0433 111.18 70.9083 112.407 71.0485 113.708C71.1488 114.638 71.8954 115.182 72.6466 115.097C73.2309 115.031 73.608 114.723 73.6518 114.682C73.7395 114.599 73.7863 114.473 73.7734 114.354C73.7516 114.151 73.5573 114.028 73.3784 114.048ZM70.6254 117.62C70.646 117.811 70.8309 117.959 71.0217 117.937C72.3334 117.789 73.6808 117.637 76.039 117.009C76.2153 116.965 76.3297 116.795 76.3104 116.616C76.2873 116.401 76.093 116.278 75.9141 116.298L75.8664 116.304C73.5559 116.927 72.2681 117.072 70.9684 117.219L70.9445 117.221C70.7537 117.243 70.6048 117.429 70.6254 117.62Z" fill="#C2000D"/>
<path d="M68.5925 111.514C68.0765 111.505 67.6306 111.581 66.987 111.882C66.8656 111.939 66.7784 112.07 66.7752 112.202C66.7699 112.418 66.9464 112.565 67.1263 112.568C67.1743 112.569 67.2346 112.558 67.2832 112.535C67.8541 112.257 68.131 112.226 68.5749 112.234C68.7669 112.237 68.934 112.276 69.0765 112.339C68.2662 112.589 67.4672 113.354 67.4453 114.254C67.4289 114.926 67.9439 115.463 68.6158 115.475C69.6836 115.494 70.4378 114.596 70.4624 113.588C70.4902 112.448 69.7443 111.535 68.5925 111.514ZM68.1652 114.267C68.1798 113.667 68.9892 112.962 69.6491 112.973C69.717 113.143 69.748 113.347 69.7425 113.575C69.7261 114.247 69.2453 114.766 68.6334 114.755C68.3454 114.75 68.1581 114.555 68.1652 114.267Z" fill="#C2000D"/>
<path d="M62.4916 115.06C62.6459 115.083 62.7932 114.996 62.8629 114.86C63.5965 113.429 64.6889 112.111 65.1281 112.176C65.2349 112.192 65.3818 112.262 65.5522 112.494C65.6123 112.576 65.6898 112.624 65.7848 112.638C65.9747 112.666 66.1668 112.525 66.1964 112.335C66.2112 112.24 66.1886 112.152 66.1285 112.07C65.898 111.757 65.6072 111.519 65.2392 111.465C64.527 111.359 63.9193 111.984 63.4183 112.626C63.3722 111.988 63.0181 111.377 62.3126 111.151L62.2533 111.143C62.0752 111.116 61.8749 111.232 61.8416 111.445C61.8157 111.611 61.9085 111.795 62.0828 111.845C62.5684 112.002 62.7803 112.434 62.6877 113.027C62.584 113.691 62.3868 114.098 62.214 114.582C62.2103 114.606 62.1948 114.628 62.1911 114.651C62.1633 114.829 62.278 115.028 62.4916 115.06Z" fill="#C2000D"/>
<path d="M60.3983 114.005C60.5136 114.038 60.6311 114.022 60.7309 113.938C61.1152 113.612 61.393 113.179 61.5323 112.708C61.8247 111.718 61.304 110.77 60.312 110.485C59.1008 110.138 57.7296 110.756 57.3591 112.01C57.0837 112.942 57.5637 113.817 58.498 114.084C58.8326 114.18 59.689 114.289 59.8215 113.84C59.8793 113.644 59.7505 113.445 59.5775 113.395C59.5083 113.375 59.4356 113.367 59.3644 113.397C59.1689 113.465 58.9327 113.46 58.702 113.394C58.1368 113.232 57.8846 112.773 58.0512 112.209C58.2925 111.392 59.2429 110.928 60.108 111.176C60.7309 111.354 61.0238 111.888 60.8402 112.509C60.7416 112.843 60.5508 113.15 60.2697 113.382C60.2181 113.429 60.1746 113.492 60.1542 113.561C60.1032 113.733 60.2022 113.949 60.3983 114.005Z" fill="#C2000D"/>
<path d="M55.1516 109.965C55.3072 109.614 54.8947 109.33 54.4654 109.144C53.4306 108.695 52.4768 109.485 52.0974 110.34C51.7084 111.218 51.8587 112.33 52.8605 112.764C53.9393 113.232 55.227 112.548 56.649 110.732C56.3418 111.633 56.1916 112.208 56.2147 112.689C56.2211 112.823 56.3081 112.952 56.4292 113.005C56.6274 113.091 56.8324 112.983 56.9054 112.819C56.9248 112.775 56.9381 112.715 56.9356 112.662C56.9048 112.021 57.4863 110.324 58.9453 107.033C59.0086 106.89 58.9591 106.647 58.761 106.561C58.5959 106.489 58.3834 106.554 58.2946 106.724C55.7466 111.584 53.989 112.469 53.1523 112.106C52.6129 111.872 52.4662 111.285 52.758 110.627C53.0595 109.947 53.6672 109.583 54.1736 109.802C54.5149 109.95 54.4662 110.06 54.6754 110.151C54.8405 110.223 55.064 110.163 55.1516 109.965Z" fill="#C2000D"/>
<path d="M51.555 108.291C51.1119 108.026 50.6871 107.871 49.9791 107.811C49.8449 107.801 49.7043 107.871 49.6358 107.984C49.5238 108.168 49.6036 108.384 49.7582 108.476C49.7994 108.501 49.8572 108.521 49.9108 108.525C50.5446 108.568 50.8002 108.679 51.1815 108.906C51.3464 109.005 51.472 109.121 51.5645 109.247C50.7371 109.06 49.6627 109.327 49.1958 110.097C48.8472 110.671 49.0267 111.393 49.6038 111.738C50.5209 112.285 51.6226 111.88 52.1455 111.019C52.7369 110.044 52.5443 108.881 51.555 108.291ZM49.8141 110.466C50.1254 109.953 51.179 109.743 51.7457 110.081C51.7204 110.262 51.6455 110.455 51.5272 110.65C51.1786 111.224 50.5028 111.436 49.9773 111.122C49.73 110.974 49.6647 110.712 49.8141 110.466Z" fill="#C2000D"/>
<path d="M46.9835 111.044C47.069 111.11 47.184 111.139 47.2928 111.116C47.3508 111.101 47.7934 111.003 48.134 110.569C48.5117 110.087 48.4304 109.433 47.9464 109.058C47.6712 108.845 47.3631 108.713 47.0972 108.644C47.5168 108.361 47.7843 108.098 47.9694 107.862C48.3101 107.428 48.3968 106.675 47.8559 106.257C47.5617 106.029 47.187 105.982 46.7984 106.03C46.697 106.043 46.6167 106.087 46.5575 106.162C46.439 106.313 46.4682 106.548 46.62 106.666C46.6959 106.725 46.7846 106.748 46.8859 106.735C47.1731 106.699 47.3261 106.757 47.4115 106.823C47.5349 106.919 47.5778 107.195 47.4 107.421C47.1483 107.742 46.6724 108.193 45.4037 108.683C45.3456 108.699 45.2917 108.748 45.2547 108.796C45.1436 108.937 45.1464 109.167 45.3172 109.299C45.4026 109.365 45.5082 109.386 45.6338 109.362C45.6919 109.346 46.7429 109.037 47.5021 109.625C47.6824 109.764 47.7053 109.949 47.5646 110.128C47.298 110.468 47.1082 110.321 46.9305 110.548C46.8194 110.689 46.8222 110.919 46.9835 111.044Z" fill="#C2000D"/>
<path d="M45.1964 104.398C44.8293 104.035 44.4541 103.783 43.7812 103.557C43.6535 103.515 43.5005 103.549 43.4073 103.643C43.2547 103.796 43.281 104.024 43.4091 104.151C43.4432 104.184 43.4944 104.218 43.5455 104.235C44.1502 104.427 44.3719 104.596 44.6878 104.908C44.8244 105.043 44.9185 105.186 44.9786 105.33C44.2201 104.952 43.1142 104.956 42.4785 105.593C42.0038 106.068 42.0065 106.813 42.4846 107.286C43.2444 108.036 44.4093 107.905 45.1214 107.191C45.9266 106.384 46.016 105.208 45.1964 104.398ZM42.9907 106.099C43.4145 105.674 44.4866 105.721 44.9561 106.185C44.8887 106.354 44.7702 106.524 44.6091 106.685C44.1345 107.161 43.4286 107.206 42.9932 106.776C42.7883 106.573 42.7873 106.303 42.9907 106.099Z" fill="#C2000D"/>
<path d="M39.4671 105.075C39.5717 105.19 39.7487 105.225 39.8971 105.157C40.2822 104.956 40.8746 104.538 41.3481 104.113C41.9735 103.552 42.1807 103.334 42.563 102.863C42.6809 102.725 42.6576 102.52 42.5449 102.395C42.4 102.235 42.1693 102.248 42.0353 102.369C41.6422 102.721 41.5449 102.953 41.1242 103.347C40.6215 102.863 40.0215 102.45 39.3626 102.348L39.577 102.155C40.0773 101.707 40.8447 100.874 40.1121 100.064C39.8626 99.7879 39.5023 99.6758 39.1116 99.6554C39.0097 99.6501 38.923 99.6794 38.8515 99.7435C38.7086 99.8717 38.6962 100.108 38.825 100.251C38.8894 100.322 38.9726 100.36 39.0745 100.366C39.3632 100.381 39.5036 100.464 39.5761 100.544C39.8095 100.803 39.6658 101.109 39.094 101.621L37.9326 102.663C37.8075 102.775 37.7612 103.01 37.9061 103.17C38.0188 103.295 38.2047 103.322 38.354 103.236C39.0831 102.808 39.8583 103.128 40.5801 103.819C40.2066 104.121 39.792 104.396 39.5731 104.512C39.5382 104.527 39.5114 104.551 39.4936 104.567C39.3596 104.688 39.3222 104.915 39.4671 105.075Z" fill="#C2000D"/>
<path d="M34.7583 99.0918C34.4058 99.2972 34.6523 99.8618 34.8279 100.162C35.4333 101.198 36.9026 101.453 37.8877 100.88C38.7275 100.39 38.9821 99.4225 38.4917 98.5833C38.1587 98.0135 37.7273 97.5843 36.9104 97.1853C36.7937 97.1283 36.6762 97.1412 36.5725 97.2016C36.3962 97.3043 36.3522 97.5382 36.443 97.6936C36.4794 97.7558 36.5364 97.8059 36.5978 97.8396C37.3369 98.2006 37.5972 98.4795 37.8696 98.9457C38.1662 99.4534 38.0325 99.9619 37.5244 100.258C36.8504 100.651 35.8132 100.421 35.45 99.7998C35.341 99.6133 35.303 99.5244 35.2986 99.3742C35.2951 99.3207 35.2752 99.2628 35.251 99.2214C35.1602 99.066 34.9449 98.983 34.7583 99.0918Z" fill="#C2000D"/>
<path d="M31.3437 92.2112C31.3818 92.2723 31.4403 92.3207 31.5027 92.3526C32.2521 92.6921 32.5204 92.9633 32.8063 93.4214C33.1176 93.9202 32.9987 94.4322 32.4993 94.7427C32.1324 94.9708 31.5022 95.0942 30.4259 94.435C30.3115 94.3649 30.1549 94.3633 30.0428 94.433C29.8593 94.5471 29.8324 94.7758 29.9277 94.9285L29.9594 94.9794C30.913 96.0539 32.3968 96.4596 33.4889 96.6002C32.9909 96.8675 32.4482 97.1766 31.9489 97.487C31.7858 97.5884 31.7321 97.8196 31.8338 97.9825C31.9354 98.1454 32.167 98.1992 32.3301 98.0978C33.4205 97.4199 34.8318 96.712 35.1107 96.6376C35.1476 96.6287 35.1782 96.6097 35.2088 96.5907C35.3616 96.4957 35.4446 96.2887 35.3239 96.0953C35.2476 95.9731 35.1064 95.9055 34.9523 95.9306C34.7779 95.9684 33.5138 96.0054 32.2832 95.5977C32.4946 95.551 32.7073 95.4612 32.8805 95.3535C33.706 94.8403 33.9324 93.8659 33.4178 93.0413C33.0683 92.4814 32.6245 92.0649 31.7962 91.6897C31.6779 91.6361 31.5607 91.6524 31.4588 91.7158C31.2856 91.8235 31.2484 92.0585 31.3437 92.2112Z" fill="#C2000D"/>
<path d="M31.2952 89.8019C31.0706 89.3374 30.8017 88.9742 30.2439 88.5374C30.1377 88.4555 29.9823 88.4374 29.8634 88.4948C29.669 88.5888 29.6177 88.8136 29.696 88.9756C29.7169 89.0188 29.7539 89.0676 29.7964 89.1004C30.3012 89.4828 30.4537 89.7156 30.647 90.1153C30.7306 90.2882 30.7713 90.4551 30.78 90.6108C30.1923 90.0019 29.1505 89.6392 28.3403 90.031C27.7353 90.3235 27.4898 91.0287 27.7823 91.6337C28.2473 92.5951 29.387 92.8572 30.2945 92.4184C31.3208 91.9222 31.7967 90.839 31.2952 89.8019ZM28.6537 90.6792C29.1939 90.418 30.1869 90.8176 30.4742 91.4118C30.3543 91.5497 30.1863 91.671 29.981 91.7702C29.376 92.0627 28.6969 91.8712 28.4305 91.3203C28.3051 91.061 28.3944 90.8045 28.6537 90.6792Z" fill="#C2000D"/>
</svg>
