<svg width="267" height="72" viewBox="0 0 267 72" fill="none" xmlns="http://www.w3.org/2000/svg">
<path d="M95.72 29.421C95.7149 29.3854 95.7071 29.3319 95.6842 29.2989C95.4029 28.6121 95.1497 27.994 94.977 26.8004C94.7553 25.2684 95.1462 23.3203 95.9123 23.2094C96.2507 23.1604 96.4751 23.328 96.524 23.6665C96.6478 24.5216 96.1907 25.1334 96.3764 26.416C96.5207 27.4136 97.3311 27.8602 98.0718 27.8257C99.9502 27.7357 100.246 28.0203 100.3 28.3944C100.432 29.3029 98.8736 30.6015 97.5554 30.7923C97.2525 30.8361 96.9342 30.773 96.6283 30.5445C96.506 30.4531 96.3735 30.4177 96.231 30.4383C95.946 30.4796 95.7327 30.7651 95.7739 31.0501C95.7946 31.1926 95.8661 31.3096 95.9884 31.401C96.4982 31.7819 97.1222 31.9462 97.7101 31.8611C99.2421 31.6394 101.65 30.1814 101.369 28.2397C101.165 26.8323 99.7599 26.672 98.024 26.7414C97.6803 26.7547 97.5071 26.6889 97.4452 26.2613C97.3215 25.4062 97.7785 24.7944 97.5929 23.5118C97.4614 22.6033 96.6661 22.0091 95.7576 22.1406C93.6733 22.4422 93.7173 25.6369 93.9081 26.9551C94.0963 28.2556 94.4058 29.011 94.687 29.6978C94.774 29.9217 95.0314 30.0663 95.2629 30.0328C95.5836 29.9864 95.7587 29.6882 95.72 29.421Z" fill="#C2000D"/>
<path d="M108.47 25.8048C108.463 25.7513 108.438 25.7002 108.413 25.6491C108.06 24.9157 107.261 24.5151 106.494 24.6187C104.532 24.8837 103.023 27.1582 103.278 29.049C103.413 30.048 104.167 30.9269 105.327 30.7703C106.469 30.6161 107.48 29.8983 108.289 28.8989C108.461 29.3661 108.841 30.2956 109.43 30.2161C109.733 30.1751 109.929 29.8762 109.892 29.6087C109.878 29.5016 109.828 29.3994 109.762 29.3175C109.422 28.9457 109.179 28.3609 109.068 27.5404C109.034 27.2907 108.764 27.0366 108.461 27.0775C108.3 27.0992 108.167 27.1898 108.077 27.3292C107.231 28.733 106.199 29.5627 105.182 29.7C104.736 29.7602 104.43 29.511 104.348 28.9045C104.17 27.5845 105.39 25.8576 106.638 25.689C106.942 25.648 107.31 25.8163 107.458 26.1051C107.558 26.3095 107.776 26.4435 108.008 26.4122C108.329 26.3688 108.507 26.0723 108.47 25.8048Z" fill="#C2000D"/>
<path d="M119.762 27.0801C119.654 27.0911 119.551 27.138 119.467 27.2009C118.516 27.9861 117.974 28.1684 117.168 28.2511C116.29 28.3411 115.678 27.843 115.588 26.9656C115.522 26.321 115.77 25.3908 117.367 24.3764C117.537 24.2685 117.642 24.0587 117.622 23.8617C117.589 23.5394 117.298 23.3521 117.03 23.3797L116.94 23.3889C114.864 23.9638 113.341 25.6944 112.433 27.0723C112.4 26.2252 112.34 25.2904 112.25 24.413C112.221 24.1265 111.944 23.9016 111.658 23.931C111.371 23.9604 111.147 24.2368 111.176 24.5233C111.373 26.4392 111.398 28.8069 111.315 29.2316C111.303 29.2872 111.308 29.3409 111.314 29.3946C111.342 29.6632 111.566 29.9116 111.906 29.8767C112.121 29.8546 112.305 29.7091 112.373 29.485C112.437 29.2252 113.218 27.4983 114.578 26.1103C114.502 26.4257 114.483 26.7714 114.514 27.0758C114.663 28.5262 115.828 29.4743 117.278 29.3254C118.263 29.2243 119.116 28.9015 120.167 28.0337C120.317 27.9097 120.372 27.7412 120.354 27.5622C120.323 27.2578 120.03 27.0525 119.762 27.0801Z" fill="#C2000D"/>
<path d="M127.403 24.1221C127.4 24.0681 127.38 24.015 127.359 23.962C127.07 23.201 126.309 22.7329 125.536 22.7701C123.558 22.8651 121.858 25.001 121.95 26.9069C121.998 27.9137 122.674 28.8543 123.843 28.7982C124.994 28.743 126.063 28.1149 126.955 27.1891C127.086 27.6693 127.385 28.6281 127.978 28.5996C128.284 28.5849 128.505 28.304 128.492 28.0343C128.486 27.9264 128.445 27.8203 128.387 27.733C128.08 27.3333 127.888 26.7298 127.849 25.9027C127.837 25.651 127.589 25.3746 127.283 25.3892C127.122 25.397 126.981 25.4758 126.879 25.6069C125.916 26.9326 124.816 27.6702 123.791 27.7195C123.342 27.7411 123.058 27.4663 123.029 26.855C122.965 25.5246 124.329 23.9093 125.587 23.8488C125.893 23.8341 126.245 24.0335 126.368 24.334C126.45 24.5463 126.655 24.6986 126.889 24.6873C127.213 24.6718 127.416 24.3917 127.403 24.1221Z" fill="#C2000D"/>
<path d="M131.037 22.5935C130.803 22.5877 130.583 22.7444 130.506 22.9766C130.328 23.6024 130.176 24.679 130.152 25.6327C130.121 26.8923 130.146 27.343 130.268 28.2463C130.298 28.5171 130.545 28.7032 130.797 28.7094C131.121 28.7174 131.344 28.4528 131.35 28.1829C131.37 27.3911 131.216 27.0452 131.219 26.181C132.265 26.1347 133.333 25.9089 134.122 25.298L134.111 25.7299C134.086 26.7376 134.207 28.4331 135.844 28.4733C136.402 28.487 136.895 28.211 137.319 27.8073C137.43 27.702 137.487 27.5774 137.49 27.4334C137.497 27.1455 137.252 26.8874 136.964 26.8803C136.82 26.8768 136.693 26.9277 136.582 27.033C136.269 27.3314 136.033 27.3976 135.871 27.3936C135.349 27.3808 135.163 26.9081 135.191 25.7564L135.248 23.4171C135.255 23.1652 135.046 22.872 134.722 22.864C134.47 22.8579 134.25 23.0325 134.189 23.2831C133.907 24.5185 132.76 25.0305 131.264 25.1018C131.317 24.3829 131.444 23.6478 131.542 23.2901C131.562 23.2366 131.563 23.1826 131.564 23.1466C131.571 22.8767 131.361 22.6014 131.037 22.5935Z" fill="#C2000D"/>
<path d="M144.007 24.1712C144.082 23.5638 143.184 23.3443 142.666 23.2804C140.879 23.0603 139.241 24.5813 139.032 26.2784C138.853 27.7255 139.778 28.9094 141.225 29.0878C142.207 29.2089 143.111 29.0845 144.329 28.4729C144.503 28.3855 144.594 28.2335 144.616 28.0549C144.654 27.7512 144.415 27.4859 144.147 27.4529C144.039 27.4397 143.928 27.4622 143.832 27.5048C142.73 28.0582 142.161 28.115 141.357 28.0159C140.481 27.908 139.996 27.2859 140.104 26.4105C140.247 25.2493 141.462 24.2202 142.534 24.3523C142.855 24.392 142.996 24.4274 143.179 24.5588C143.246 24.6034 143.333 24.6323 143.405 24.6411C143.673 24.6741 143.967 24.4927 144.007 24.1712Z" fill="#C2000D"/>
<path d="M154.55 30.2694C154.082 30.1383 153.919 30.6534 153.347 30.4931C152.619 30.2891 152.866 28.2085 153.327 26.5619C153.405 26.2846 153.23 25.974 152.953 25.8962C152.676 25.8185 152.405 25.9856 152.307 26.2012C152.212 26.4736 150.782 29.7743 149.014 29.2789C148.113 29.0263 147.783 28.3357 148.065 27.3304C148.38 26.2038 148.598 26.0964 148.675 25.8191C148.748 25.5591 148.613 25.2408 148.301 25.1534C148.093 25.0951 147.868 25.163 147.719 25.364C147.682 25.4285 147.336 25.9297 147.025 27.039C146.627 28.4602 147.198 29.8914 148.723 30.3188C150.023 30.6831 151.06 29.983 151.768 29.1907C151.765 30.0685 151.964 31.2271 153.056 31.5331C153.94 31.7808 154.627 31.263 154.694 31.2256C154.787 31.1583 154.873 31.0516 154.907 30.9303C154.98 30.6703 154.828 30.3471 154.55 30.2694Z" fill="#C2000D"/>
<path d="M159.587 30.3192C159.829 29.8564 160.888 29.5772 161.447 29.8688C161.75 30.0271 161.834 30.2942 161.675 30.5974C161.392 31.1399 160.71 31.4741 160.207 31.6585L160.128 31.6168C159.521 31.3002 159.329 30.8138 159.587 30.3192ZM156.804 32.9271C156.852 32.9521 156.884 32.9687 156.94 32.9778C157.75 33.1369 159.152 33.0972 160.204 32.7936C160.909 32.959 161.628 32.8267 162.235 32.6361L162.202 32.6999C161.335 34.3593 161.213 35.3716 161.203 35.4681C161.183 35.7012 161.325 35.8969 161.5 35.9886C161.787 36.1385 162.104 35.9992 162.229 35.7598C162.387 35.4567 162.276 34.8911 163.159 33.1998C163.676 32.2106 164.353 31.6911 164.47 31.4677C164.595 31.2284 164.553 30.8815 164.249 30.7232C164.074 30.6315 163.864 30.6439 163.701 30.7618C163.701 30.7618 163.172 31.1148 162.426 31.4157C162.5 31.3124 162.574 31.209 162.633 31.0973C163.058 30.2836 162.76 29.3364 161.947 28.9114C160.909 28.3699 159.221 28.6864 158.63 29.8193C158.238 30.5692 158.385 31.3769 158.858 31.9488C158.188 32.0256 157.553 31.9983 157.168 31.919C156.927 31.8746 156.683 31.991 156.575 32.1985C156.425 32.4857 156.564 32.8021 156.804 32.9271Z" fill="#C2000D"/>
<path d="M173.983 38.3789C174.184 38.4989 174.437 38.4614 174.61 38.3129C174.86 38.1056 175.264 38.0956 175.527 38.2525C175.99 38.5294 176.096 39.054 175.745 39.6412C175.099 40.7229 173.032 41.1652 171.888 40.482C171.409 40.1959 171.04 39.0945 172.314 36.9621C174.889 32.6508 176.533 31.9346 177.028 32.23C177.291 32.387 177.461 32.9083 177.092 33.5264C176.547 34.4381 176.063 34.4421 176.038 34.4484C175.828 34.4488 175.643 34.5479 175.551 34.7024C175.385 34.9806 175.506 35.3045 175.737 35.4429C175.799 35.4799 175.886 35.5106 175.966 35.5166C176.142 35.5379 177.17 35.502 178.019 34.0803C178.573 33.1532 178.555 31.8845 177.582 31.3029C175.913 30.3059 173.796 32.3751 171.387 36.4082C170.076 38.6024 169.959 40.5876 171.334 41.4092C172.972 42.3877 175.657 41.8949 176.673 40.1951C177.245 39.2371 177.162 37.9716 176.081 37.3254C175.416 36.9284 174.524 36.9826 173.911 37.5178C173.868 37.5549 173.825 37.592 173.797 37.6384C173.658 37.8702 173.705 38.2127 173.983 38.3789Z" fill="#C2000D"/>
<path d="M184.898 41.3005C184.932 41.3134 184.972 41.3095 185.006 41.3224C185.639 41.4308 186.828 41.8491 187.987 42.2946C188.256 42.3979 188.582 42.253 188.685 41.9842C188.789 41.7154 188.644 41.3898 188.375 41.2865C187.182 40.828 185.993 40.4097 185.179 40.2704C184.924 40.2304 184.679 40.3675 184.588 40.6027C184.472 40.9051 184.646 41.2036 184.898 41.3005ZM187.084 47.154C186.95 47.1024 186.813 47.1076 186.673 47.1696C186.278 47.3455 186.034 47.3288 185.883 47.2707C185.563 47.148 185.449 46.8922 185.572 46.5729C185.663 46.3377 185.83 46.1516 186.132 45.9201C186.492 45.6344 186.825 45.319 187.019 44.8149C187.348 43.958 186.945 43.0509 186.088 42.7216C184.374 42.0631 183.174 43.781 183.129 43.8986C183.026 44.1674 183.137 44.4801 183.439 44.5963C183.641 44.6738 183.877 44.6104 184.039 44.4411C184.141 44.326 184.995 43.4586 185.7 43.7298C186.02 43.8525 186.134 44.1083 186.011 44.4275C185.92 44.6628 185.753 44.8489 185.451 45.0803C185.091 45.3661 184.758 45.6815 184.564 46.1856C184.235 47.0425 184.638 47.9496 185.495 48.2788C186.016 48.479 186.573 48.3845 187.108 48.1465C187.247 48.0844 187.343 47.9862 187.395 47.8518C187.498 47.5829 187.353 47.2573 187.084 47.154Z" fill="#C2000D"/>
<path d="M189.82 49.1918C189.714 49.5361 190.178 49.8659 190.523 49.971C190.815 50.0603 191.108 49.9048 191.197 49.6121C191.302 49.2678 190.838 48.938 190.494 48.833C190.201 48.7436 189.909 48.8991 189.82 49.1918Z" fill="#C2000D"/>
<path d="M194.214 51.2328C194.355 51.2588 194.489 51.2284 194.615 51.1416C195.976 50.2019 197.613 47.6655 199.006 44.9564C199.061 44.8567 199.144 44.7071 199.174 44.6395C199.075 45.4814 198.909 46.5855 198.613 48.1967C198.357 49.5953 197.967 51.9212 199.702 52.2394C201.26 52.5251 202.717 50.4682 203.886 48.4865C203.847 48.699 203.79 48.9082 203.748 49.1383C203.352 51.2983 203.438 52.9245 205.19 53.246C206.147 53.4213 206.904 52.8831 206.946 52.8542C207.072 52.7675 207.133 52.6323 207.156 52.5084C207.208 52.2251 207.005 51.9318 206.722 51.8798C206.244 51.7922 206.129 52.3201 205.385 52.1837C204.659 52.0506 204.394 51.5994 204.81 49.3332C205.154 47.4565 205.762 46.1404 205.976 44.9719C206.025 44.7064 205.843 44.3986 205.542 44.3434C205.365 44.3109 205.19 44.3702 205.054 44.5101C205.03 44.5422 204.398 45.1949 203.686 46.5832C202.258 49.3775 200.552 51.2972 199.897 51.1771C199.507 51.1057 199.348 50.1797 199.676 48.3915C200.546 43.6466 200.385 42.8301 200.321 42.5805C200.276 42.4259 200.107 42.2485 199.894 42.2095C199.717 42.1771 199.542 42.2364 199.406 42.3762C199.382 42.4084 198.75 43.0611 198.038 44.4494C196.693 47.0941 194.992 49.5821 194.007 50.2616C193.882 50.3484 193.806 50.4626 193.78 50.6042C193.728 50.8875 193.93 51.1808 194.214 51.2328Z" fill="#C2000D"/>
<path d="M214.565 49.4525C214.569 49.3986 214.554 49.3436 214.54 49.2885C214.338 48.4999 213.634 47.9493 212.862 47.8994C210.886 47.7718 208.958 49.7034 208.835 51.6075C208.77 52.6134 209.336 53.624 210.503 53.6994C211.653 53.7737 212.786 53.2697 213.777 52.4499C213.853 52.9418 214.042 53.928 214.635 53.9663C214.94 53.9861 215.191 53.7317 215.208 53.4623C215.215 53.3545 215.186 53.2444 215.138 53.1511C214.877 52.7194 214.755 52.0982 214.809 51.272C214.825 51.0205 214.61 50.718 214.305 50.6983C214.143 50.6878 213.995 50.7504 213.879 50.8692C212.772 52.0783 211.597 52.6878 210.573 52.6216C210.124 52.5926 209.873 52.2878 209.912 51.6771C209.998 50.3479 211.535 48.8959 212.792 48.9772C213.098 48.9969 213.425 49.2345 213.513 49.5468C213.571 49.767 213.758 49.9415 213.992 49.9565C214.315 49.9774 214.548 49.7219 214.565 49.4525Z" fill="#C2000D"/>
<path d="M225.235 52.3585C224.749 52.3664 224.74 52.9066 224.146 52.9162C223.39 52.9284 223.032 50.864 223.005 49.1542C223 48.8662 222.744 48.6183 222.456 48.623C222.168 48.6277 221.956 48.8651 221.924 49.0997C221.91 49.3879 221.482 52.9593 219.646 52.989C218.711 53.0042 218.197 52.4364 218.18 51.3926C218.161 50.2227 218.339 50.0578 218.334 49.7699C218.33 49.4999 218.109 49.2334 217.785 49.2387C217.569 49.2422 217.374 49.3714 217.287 49.6068C217.27 49.6791 217.082 50.2582 217.1 51.41C217.124 52.8859 218.08 54.0945 219.664 54.0689C221.014 54.047 221.808 53.0801 222.261 52.1186C222.508 52.9607 223.029 54.0144 224.163 53.9961C225.081 53.9812 225.592 53.2888 225.645 53.234C225.716 53.1428 225.768 53.016 225.766 52.89C225.761 52.62 225.523 52.3538 225.235 52.3585ZM218.011 40.9339C218.013 41.0599 218.069 41.185 218.143 41.2738C218.84 42.1267 219.708 42.3466 220.374 42.3359C221.418 42.319 222.455 41.8701 223.252 41.0471C223.358 40.9374 223.41 40.8105 223.407 40.6665C223.403 40.3786 223.147 40.1307 222.859 40.1354C222.715 40.1377 222.59 40.1937 222.483 40.3035C221.864 40.9436 221.112 41.2438 220.357 41.256C219.943 41.2627 219.437 41.1449 218.959 40.5765C218.849 40.4523 218.704 40.3826 218.542 40.3853C218.236 40.3902 218.006 40.646 218.011 40.9339Z" fill="#C2000D"/>
<path d="M236.948 51.1169C236.84 51.1263 236.736 51.1716 236.651 51.2332C235.688 52.004 235.144 52.1781 234.337 52.2486C233.458 52.3255 232.853 51.8182 232.777 50.9396C232.72 50.294 232.982 49.3677 234.594 48.3775C234.766 48.2721 234.874 48.0639 234.857 47.8667C234.829 47.5439 234.541 47.3522 234.272 47.3758L234.182 47.3836C232.098 47.9273 230.548 49.6347 229.62 50.9988C229.6 50.1513 229.554 49.2157 229.477 48.3371C229.452 48.0502 229.179 47.8211 228.892 47.8461C228.605 47.8712 228.376 48.1442 228.401 48.4311C228.569 50.3498 228.559 52.7177 228.47 53.1411C228.457 53.1964 228.462 53.2502 228.466 53.304C228.49 53.573 228.71 53.8247 229.051 53.7949C229.266 53.7761 229.453 53.6333 229.523 53.4103C229.591 53.1514 230.399 51.4366 231.779 50.0691C231.698 50.3834 231.674 50.7288 231.701 51.0336C231.828 52.4861 232.978 53.4515 234.431 53.3245C235.417 53.2383 236.275 52.9284 237.339 52.0765C237.491 51.9548 237.549 51.7871 237.533 51.6078C237.506 51.3029 237.217 51.0934 236.948 51.1169Z" fill="#C2000D"/>
<path d="M239.728 47.6937C239.549 47.7169 239.398 47.8091 239.312 47.9837C238.982 48.6617 238.863 49.4214 238.958 50.1533C239.158 51.6884 240.448 52.6824 241.984 52.4831C243.858 52.2397 245.366 50.5737 245.113 48.628C244.925 47.1821 243.735 46.2657 242.29 46.4535C241.772 46.5207 240.53 46.8816 240.621 47.5778C240.66 47.8812 240.958 48.0785 241.226 48.0438C241.333 48.0298 241.437 47.9981 241.517 47.9151C241.744 47.7041 242.072 47.5709 242.429 47.5245C243.303 47.4109 243.929 47.8924 244.042 48.7671C244.207 50.0344 243.183 51.2383 241.844 51.4121C240.881 51.5373 240.154 50.9781 240.029 50.0142C239.962 49.4965 240.038 48.9603 240.283 48.4747C240.325 48.3785 240.347 48.2667 240.333 48.1596C240.298 47.8919 240.031 47.6543 239.728 47.6937Z" fill="#C2000D"/>
<path d="M255.055 48.9259C254.575 49.0013 254.641 49.5375 254.054 49.6297C253.307 49.7471 252.666 47.7525 252.4 46.0632C252.356 45.7787 252.068 45.5689 251.783 45.6136C251.499 45.6583 251.322 45.923 251.322 46.1597C251.349 46.447 251.422 50.0433 249.609 50.3283C248.684 50.4735 248.097 49.9828 247.935 48.9514C247.753 47.7956 247.906 47.6076 247.861 47.3231C247.819 47.0564 247.564 46.8232 247.244 46.8735C247.03 46.907 246.854 47.0622 246.802 47.3073C246.795 47.3813 246.689 47.981 246.868 49.1191C247.097 50.5772 248.211 51.641 249.776 51.3952C251.11 51.1856 251.762 50.1174 252.076 49.1024C252.439 49.9018 253.101 50.8727 254.222 50.6967C255.129 50.5542 255.538 49.7974 255.583 49.7357C255.64 49.6356 255.674 49.5028 255.654 49.3783C255.613 49.1116 255.339 48.8811 255.055 48.9259ZM246.067 39.3854C246.115 39.6876 246.4 39.8797 246.684 39.835L246.72 39.8294C248.458 39.4105 250.053 39.1235 251.28 38.9307C251.564 38.886 251.774 38.5979 251.729 38.3134C251.685 38.0289 251.397 37.8191 251.112 37.8638C249.85 38.0622 248.255 38.3492 246.481 38.7737C246.199 38.8362 246.025 39.1186 246.067 39.3854Z" fill="#C2000D"/>
<path d="M261.238 49.5288C262.001 49.3994 262.636 49.1638 263.498 48.5428C263.661 48.424 263.752 48.2077 263.719 48.0125C263.665 47.6931 263.362 47.5253 263.096 47.5704C263.025 47.5825 262.939 47.6153 262.875 47.6628C262.113 48.2302 261.714 48.3527 261.057 48.464C260.773 48.5122 260.515 48.5011 260.287 48.4485C261.41 47.8564 262.368 46.5072 262.142 45.1762C261.974 44.1824 261.06 43.534 260.067 43.7026C258.487 43.9705 257.633 45.5029 257.886 46.9936C258.172 48.6795 259.534 49.8178 261.238 49.5288ZM261.078 45.3568C261.228 46.2442 260.237 47.5076 259.261 47.6732C259.113 47.4428 259.008 47.1501 258.951 46.813C258.783 45.8192 259.342 44.9209 260.247 44.7674C260.673 44.6951 261.005 44.9309 261.078 45.3568Z" fill="#C2000D"/>
<path d="M1.86035 20.7974C4.69169 16.4516 10.9153 14.4915 15.7928 13.7321C20.9028 12.9366 26.2036 13.2294 31.3093 13.8676C36.1415 14.4716 40.551 15.8692 44.7937 18.2547C49.1898 20.7264 53.4573 24.436 57.8613 26.8827C60.9979 28.6252 63.3858 30.6975 67.4275 31.9159C69.7729 32.6229 71.158 32.8191 73.5965 33.0517C76.9113 33.368 78.7934 32.9828 82.1207 32.8537C87.7035 32.6372 91.5673 30.9263 96.3971 30.9263" stroke="#C2000D" stroke-linecap="round" stroke-linejoin="round"/>
</svg>
